<?xml version="1.0" standalone="no"?>
<!DOCTYPE svg PUBLIC "-//W3C//DTD SVG 1.1//EN" "http://www.w3.org/Graphics/SVG/1.1/DTD/svg11.dtd" >
<svg xmlns="http://www.w3.org/2000/svg">
<metadata></metadata>
<defs>
<font id="david_clmmediumitalic" horiz-adv-x="0" >
<font-face units-per-em="2048" ascent="1638" descent="-410" />
<missing-glyph horiz-adv-x="769" />
<glyph horiz-adv-x="1621" d="M128 1280h1365v-1536h-1365v1536zM256 1152v-1280h1109v1280h-1109z" />
<glyph horiz-adv-x="1621" d="M128 1280h1365v-1536h-1365v1536zM256 1152v-1280h1109v1280h-1109z" />
<glyph unicode="&#xd;" horiz-adv-x="682" />
<glyph unicode=" "  horiz-adv-x="769" />
<glyph unicode="&#x09;" horiz-adv-x="769" />
<glyph unicode="&#xa0;" horiz-adv-x="769" />
<glyph unicode="!" horiz-adv-x="515" d="M247 229q51 -36 79.5 -61.5t60.5 -70.5q-36 -85 -102 -138q-39 26 -56 38.5t-42 35t-47 49.5q35 77 107 147zM94 1184q9 -19 14 -41.5t9 -62t6 -56.5q36 -242 104 -497q-17 -137 -89 -169q-24 44 -45 92t-43.5 110.5t-35 103.5t-41 127t-40.5 125q-10 29 -10 47t14 51 q27 55 70 100.5t87 69.5z" />
<glyph unicode="&#x22;" horiz-adv-x="744" d="M389 1370q84 -148 108.5 -304t7.5 -388q-20 -27 -77 -21q-19 143 -71.5 298.5t-103.5 235.5q22 56 59.5 104.5t76.5 74.5zM17 1370q84 -148 108.5 -304t7.5 -388q-20 -27 -77 -21q-19 143 -71.5 298.5t-103.5 235.5q22 56 59.5 104.5t76.5 74.5z" />
<glyph unicode="#" horiz-adv-x="1080" d="M273 1260q82 22 184 0q-34 -193 -54 -355h234q9 135 17 355q82 22 184 0q-32 -193 -55 -355h169q-2 -84 -29 -144h-155q-14 -131 -24 -283h181q-2 -84 -29 -143h-162q-2 -49 -5.5 -109t-7.5 -139.5t-6 -129.5q-92 -19 -183 0q34 195 57 378h-236q-2 -49 -5 -109 t-7.5 -139.5t-5.5 -129.5q-92 -19 -183 0q34 195 56 378h-182q2 85 29 143h169q14 135 23 283h-194q2 85 29 144h174q8 135 17 355zM386 761q-14 -131 -24 -283h242q14 135 24 283h-242z" />
<glyph unicode="$" horiz-adv-x="1111" d="M591 15l30 -146q55 32 82 88l-20 91q89 38 152.5 104t89.5 153q15 65 14.5 126.5t-31.5 123t-87 102.5q-82 60 -292 120l-61 288h32q55 0 119.5 -13t102.5 -33q34 65 27 164q-147 61 -316 42l-34 156q-49 -38 -80 -98l17 -76q-10 -2 -20 -6q-49 -17 -83.5 -32t-72 -39 t-61.5 -58t-36 -77q-12 -53 14.5 -128t106.5 -133q89 -65 279 -125l92 -432q-20 -5 -41 -8q-135 -27 -232 -29q-19 -20 -32.5 -54.5t-19 -57.5t-13.5 -69q210 7 374 56zM650 205l-80 372q125 -36 174 -62q51 -27 84.5 -76.5t18.5 -92.5q-33 -83 -197 -141zM367 1065l55 -256 q-104 31 -154 60q-73 41 -94.5 78.5t17.5 64.5q72 44 176 53z" />
<glyph unicode="%" horiz-adv-x="1365" d="M865 553q-20 -20 -1.5 -95.5t54.5 -155.5q63 -138 109 -147q27 -5 70 36q44 41 45 79q2 22 -13.5 67t-36.5 78q-10 17 -46 56q-53 58 -152 79q-27 5 -29 3zM865 725q34 2 112 -29.5t131 -74.5q43 -36 81 -104t52 -147q20 -119 -34 -228q-38 -72 -98.5 -120t-118.5 -53 q-32 -2 -52 15.5t-44 54.5q-36 56 -75 154q-79 196 -73 324q3 68 37 136.5t82 71.5zM164 1050q-20 -20 -1.5 -95.5t54.5 -154.5q63 -140 109 -148q27 -5 72 37q43 41 42 77q2 22 -13.5 68.5t-33.5 78.5q-12 17 -48 56q-53 56 -152 79q-27 5 -29 2zM164 1222q34 3 111.5 -29 t130.5 -75q43 -34 81.5 -103.5t51.5 -145.5q20 -121 -34 -229q-38 -72 -98.5 -120.5t-118.5 -51.5q-31 -2 -51 15t-44 55q-36 55 -75 153q-79 195 -74 323q3 70 37.5 138t82.5 70zM800 1210q87 17 176 -15q-46 -89 -87.5 -173.5t-70 -142.5t-68.5 -149.5t-56 -128 t-61.5 -146t-55.5 -135t-65.5 -165.5t-67.5 -170q-94 -10 -174 17q160 305 270 562t260 646z" />
<glyph unicode="&#x26;" horiz-adv-x="1201" d="M471 666q167 77 167 235q0 85 -45 135.5t-122 50.5q-68 0 -113.5 -47t-45.5 -120q0 -63 38.5 -122t120.5 -132zM531 609l293 -317q79 113 96 201l-31 33l-94 13v69h347v-69l-123 -17q-48 -164 -142 -290l133 -153l156 -9v-70h-301v41l-77 85q-171 -147 -334 -146 q-159 0 -261.5 96t-102.5 240q0 203 226 305q-140 137 -140 261q0 119 88.5 201.5t222 82.5t213.5 -73.5t80 -182.5q0 -101 -59 -170.5t-190 -130.5zM381 572q-133 -90 -134 -220q0 -118 71 -194t180 -76q130 0 238 102z" />
<glyph unicode="'" horiz-adv-x="372" d="M17 1370q84 -148 108.5 -303.5t7.5 -387.5q-20 -29 -77 -22q-19 145 -71.5 300.5t-103.5 235.5q22 56 59.5 103.5t76.5 73.5z" />
<glyph unicode="(" horiz-adv-x="657" d="M314 1260q79 5 152 -26q-7 -12 -49 -75t-57 -88t-47.5 -86.5t-45.5 -105t-24 -105t-9 -120.5q5 -108 35 -209.5t83.5 -191t111 -161.5t133.5 -150q-24 -56 -45 -87t-62 -63q-169 157 -262 324t-112 379q-19 225 29 407t169 358z" />
<glyph unicode=")" horiz-adv-x="655" d="M261 -201q-79 -5 -152 25q5 12 45.5 78t55.5 93t46.5 92t44.5 110t21.5 109t3.5 124q-7 85 -43.5 175.5t-82 160.5t-107 142t-103 113t-87.5 82q44 109 116 168q188 -171 288.5 -328.5t131.5 -362.5q32 -220 -15 -409t-163 -372z" />
<glyph unicode="*" horiz-adv-x="931" d="M696 831q94 -77 103 -205l-311 -25l271 -215q-44 -92 -151 -128l-173 274l-73 -276q-125 41 -196 130l198 215l-321 25q-34 133 29 205l298 -148l-121 309q99 56 215 0l-13 -306z" />
<glyph unicode="+" horiz-adv-x="1249" d="M713 166q-65 -20 -136 -4l-63 348h-386q2 85 29 144h331l-58 344q63 20 135 4l60 -348h385q-2 -84 -29 -144h-331z" />
<glyph unicode="," horiz-adv-x="457" d="M285 258q38 -108 48 -213t-1 -210t-45 -246q-34 -27 -79 -38q7 147 -17.5 309t-62.5 249q29 46 60.5 77.5t49.5 44t47 27.5z" />
<glyph unicode="-" horiz-adv-x="771" d="M85 461q15 94 86 177q102 9 249 -7.5t249 -55.5q-19 -104 -53 -152q-162 29 -228.5 38.5t-136 10.5t-166.5 -11z" />
<glyph unicode="." horiz-adv-x="484" d="M227 251q87 -49 155 -130q-36 -94 -102 -159q-101 53 -161 118q35 86 108 171z" />
<glyph unicode="/" horiz-adv-x="721" d="M374 1307q90 17 177 2q-118 -391 -184.5 -665t-153.5 -702q-84 -19 -179 2q118 367 189.5 661t150.5 702z" />
<glyph unicode="0" horiz-adv-x="988" d="M229 1053q-31 -29 -26.5 -125.5t26.5 -206.5t54 -219q20 -67 36.5 -113t39.5 -99t49.5 -83.5t54.5 -37.5q53 -14 143 76.5t97 170.5q7 65 -20.5 181t-76.5 200q-51 84 -133 150.5t-190 96.5q-49 16 -54 9zM258 1227q53 3 173 -52t197 -127q155 -147 200 -415 q32 -193 -63 -380q-60 -116 -157.5 -196.5t-187.5 -85.5q-48 -3 -78 26t-67 92q-53 92 -111 256q-114 326 -101 537q3 72 28 149t70.5 135.5t96.5 60.5z" />
<glyph unicode="1" horiz-adv-x="768" d="M31 1084q26 20 46 37t45 34t36 25t45 29.5t44 27.5q26 17 57 11t44 -33q126 -280 191 -594q56 -270 60 -502q-12 -51 -42 -86.5t-77 -73.5q-32 410 -81 616q-38 164 -93 296.5t-94 137.5q-15 3 -56.5 -21t-98.5 -60.5t-91 -53.5q0 121 65 210z" />
<glyph unicode="2" horiz-adv-x="872" d="M119 1253q336 -27 432 -209q77 -145 -32 -343q-3 -7 -43.5 -75t-59.5 -109q-55 -113 -58 -200q-3 -79 12 -121q34 12 72 30t62.5 31.5t68 41t60 38.5t67.5 46t61 40q19 -104 -27 -216q-89 -63 -236.5 -135t-265.5 -115q-36 84 -42 168.5t13 185.5q12 72 83 212.5 t93 200.5q61 179 -53 281q-29 26 -67.5 42t-100 26.5t-95.5 14t-114 9.5q56 105 170 156z" />
<glyph unicode="3" horiz-adv-x="858" d="M67 1244q249 -3 344 -61q75 -46 84 -139q3 -41 -9.5 -91t-29 -84t-45.5 -89q97 -26 158.5 -56.5t101.5 -81.5q49 -63 59.5 -141.5t-29.5 -171.5q-36 -72 -85 -128t-117.5 -99.5t-134 -74t-164.5 -68.5q7 106 68 203q5 3 38.5 18t44.5 20t41 20.5t44.5 23t38 22t37.5 24.5 t29 24t26 26q36 51 21 105.5t-64 93.5q-46 34 -143.5 64t-191.5 47q126 167 139 237q10 63 -27.5 112t-111.5 63q-89 17 -235 20q41 104 113 162z" />
<glyph unicode="4" horiz-adv-x="962" d="M389 1033q-53 -41 -107.5 -148t-64.5 -196q-12 -94 18.5 -134.5t110.5 -32.5q96 10 181 41q-73 320 -138 470zM485 1271q80 -162 189 -658q34 12 171 65q3 -48 -8 -99.5t-33 -85.5q-24 -14 -56.5 -28t-44.5 -20q27 -143 48 -305q-22 -94 -116 -181q-9 49 -35.5 217.5 t-38.5 221.5q-201 -56 -283 -63q-67 -5 -113 23.5t-56 93.5q-38 220 50 461q36 96 119.5 199t206.5 159z" />
<glyph unicode="5" horiz-adv-x="807" d="M31 1270q222 -70 532 -130q-24 -94 -92 -167q-119 10 -326 68q22 -133 63 -218q140 -19 290 -57q82 -20 138.5 -105.5t44.5 -191.5q-2 -19 -37.5 -121t-44.5 -116q-36 -46 -68.5 -78.5t-114 -83.5t-213.5 -111q-17 94 34 207q19 10 67.5 36.5t75 41t64 38t67.5 47.5 t54 52q-9 198 -195 245q-89 20 -193 31q-61 7 -81 51q-46 104 -76 326q-18 130 11 236z" />
<glyph unicode="6" horiz-adv-x="904" d="M386 1248q14 -101 -26 -185q-41 -32 -72.5 -40.5t-43.5 -25.5q-22 -29 -28 -92.5t4 -124.5q24 -159 70 -320t111 -257q19 -29 53 -30.5t63 18.5q123 82 176 215q-19 61 -61.5 107.5t-96.5 68.5t-96.5 33t-81.5 13q20 97 99 159q87 10 170.5 -33.5t134.5 -123.5 q75 -118 22 -284q-63 -203 -281 -346q-140 -94 -220 43q-80 142 -120.5 267t-72.5 299q-15 92 -10 158t32 158q39 123 106.5 213.5t168.5 109.5z" />
<glyph unicode="7" horiz-adv-x="916" d="M99 1254q280 -63 556 -186q85 -38 53 -131q-14 -41 -48.5 -100t-91 -143.5t-83.5 -128.5q-109 -176 -45 -393q-31 -128 -105 -213q-38 44 -57.5 118.5t-16.5 158.5q5 92 30 172t51.5 127t63 107.5t53.5 99.5q39 87 39 143.5t-47 77.5q-31 14 -67 26.5t-66.5 22.5 t-70.5 20.5t-66.5 16.5t-67.5 14.5t-59 12t-54 10t-43 6.5q52 99 142 162z" />
<glyph unicode="8" horiz-adv-x="962" d="M364 633q-68 -79 -61.5 -186t84.5 -223q17 -26 31 -39.5t34.5 -24t47.5 -3.5t63 31q70 48 115 99q34 43 34.5 94.5t-23 92t-59.5 60.5q-106 58 -266 99zM174 1087q-20 -20 -25.5 -62t13.5 -91q36 -89 232 -140q53 32 74.5 74.5t-0.5 87.5q-24 51 -114 94.5t-180 36.5z M155 1261q123 -2 241.5 -42t176.5 -118q70 -96 40 -214q-24 -90 -86 -138q97 -24 176 -65q75 -38 111 -121t15 -181q-41 -183 -203 -321q-118 -99 -198 -95q-75 3 -141 102q-48 70 -74.5 126.5t-45.5 133.5q-20 90 2 189t77 157q-84 19 -142 73.5t-72 138.5 q-17 104 19 205.5t104 169.5z" />
<glyph unicode="9" horiz-adv-x="981" d="M317 157q116 46 216 125.5t139 180.5q9 118 -10 211.5t-75 197.5q-32 58 -95.5 103.5t-124 66t-108 29t-58.5 1.5q-44 -29 -24 -123q48 -230 132 -275q22 -14 53 -8t52 16.5t47.5 25t40.5 17.5q5 -90 -41 -175q-60 -38 -107 -51.5t-107 1.5q-72 17 -129 110t-75 206 q-19 123 13.5 228.5t110.5 167.5q38 29 109.5 29t147.5 -24t149.5 -70t115.5 -103q79 -106 104.5 -257.5t3.5 -284.5q-34 -201 -161 -322.5t-378 -220.5q-2 99 59 198z" />
<glyph unicode=":" horiz-adv-x="508" d="M142 876q87 -49 155 -128q-38 -94 -102 -159q-97 51 -161 118q36 85 108 169zM234 251q89 -49 157 -128q-38 -94 -103 -161q-97 53 -160 118q36 87 106 171z" />
<glyph unicode=";" horiz-adv-x="465" d="M116 876q87 -49 155 -128q-38 -94 -102 -159q-97 51 -160 118q35 85 107 169zM294 258q38 -108 48 -213t-1.5 -210t-45.5 -246q-34 -27 -78 -38q7 147 -18 309t-62 249q29 46 60.5 77.5t50.5 44t46 27.5z" />
<glyph unicode="&#x3c;" horiz-adv-x="884" d="M34 466q5 94 41 174l604 445q0 -97 -39 -189l-445 -323l657 -336q-20 -87 -82 -160z" />
<glyph unicode="=" horiz-adv-x="1331" d="M247 495h854q-17 -84 -55 -143h-853q16 85 54 143zM191 812h853q-17 -84 -54 -143h-853q16 85 54 143z" />
<glyph unicode="&#x3e;" horiz-adv-x="884" d="M777 650q-5 -94 -41 -174l-608 -452q0 97 39 189l451 330l-661 331q20 87 82 160z" />
<glyph unicode="?" horiz-adv-x="718" d="M-5 1152q56 0 95.5 -1.5t96.5 -7.5t98 -20.5t83 -36t70 -59t42 -85.5q31 -109 -94 -259q-92 -109 7 -205q-60 -70 -147 -113q-72 61 -72 164q0 39 27.5 83.5t58 78t49.5 79.5t7 90q-9 29 -30 50.5t-59 35t-68.5 22t-85 13.5t-82 7t-85.5 4q41 105 89 160zM348 229 q51 -36 78.5 -61.5t61.5 -70.5q-38 -85 -104 -138q-39 26 -55.5 38.5t-41 35t-48.5 49.5q37 77 109 147z" />
<glyph unicode="@" horiz-adv-x="1607" d="M1193 833q-17 -41 -46 -183l-67 -293q-14 -60 -13 -94q0 -32 19.5 -53t51.5 -21q77 0 151 89q119 142 119 365q0 201 -134 333t-349 132q-278 0 -462 -171q-212 -196 -212 -497q0 -280 167 -448.5t442 -168.5q236 0 449 124l24 -58q-270 -150 -519 -150q-292 0 -493 193 q-191 183 -191 488q0 340 247 566q101 92 239 143.5t285 51.5q270 0 428 -149.5t158 -394.5q0 -189 -96 -337q-63 -96 -152 -151t-172 -55q-126 0 -127 131v16q-138 -143 -251 -144q-92 0 -151.5 75t-59.5 198q0 162 95 292q61 84 149.5 131t180.5 47q80 0 167 -46l31 39h92 zM944 768q-24 3 -38 3q-119 0 -201 -108t-82 -272q0 -189 142 -190q89 0 179 113l70 358z" />
<glyph unicode="A" horiz-adv-x="1090" d="M485 1159h112l410 -1069l102 -20v-70h-387v70l106 9l12 23l-123 326h-403l-121 -326l17 -23l111 -9v-70h-335v70l99 20zM512 980l-169 -473h345z" />
<glyph unicode="B" horiz-adv-x="1030" d="M56 1145h436q391 0 390 -276q0 -195 -247 -261q152 -2 234.5 -74.5t82.5 -198.5q0 -162 -114 -248.5t-331 -86.5h-451v70l98 9l29 23v941l-29 24l-98 10v68zM336 626q22 -2 65 -1q160 0 236 57t76 180q0 208 -280 208q-12 0 -45 -2.5t-52 -2.5v-439zM336 85q61 -5 115 -5 q174 0 254 57.5t80 185.5q0 229 -282 228q-68 0 -167 -10v-456z" />
<glyph unicode="C" horiz-adv-x="1078" d="M1004 39q-171 -60 -345 -59q-169 0 -290 68q-137 79 -216.5 218.5t-79.5 306.5q0 266 163 429.5t430 163.5q154 0 338 -58v-263h-96l-26 155l-22 31q-97 44 -191 44q-193 0 -306.5 -131.5t-113.5 -358.5q0 -242 118.5 -378.5t327.5 -136.5q75 0 148 22l27 27l38 190h96 v-270z" />
<glyph unicode="D" horiz-adv-x="1182" d="M478 1145q302 0 466 -151t164 -421q0 -305 -214 -467q-82 -61 -179 -83.5t-237 -22.5h-422v70l98 9l29 23v941l-29 24l-98 10v68h422zM336 1067v-988h135q464 0 464 494q0 249 -115 371.5t-349 122.5h-135z" />
<glyph unicode="E" horiz-adv-x="983" d="M56 0v70l98 9l29 23v941l-29 24l-98 10v68h818v-249h-96l-24 145l-24 26h-394v-432h280l24 24l17 124h80v-375h-80l-17 123l-24 25h-280v-477h458l23 27l30 172h88v-278h-879z" />
<glyph unicode="F" horiz-adv-x="916" d="M56 0v70l98 9l29 23v941l-29 24l-111 10v68h819v-266h-94l-26 162l-22 26h-384v-449h280l24 24l17 124h80v-377h-80l-17 125l-24 25h-280v-437l29 -23l121 -9v-70h-430z" />
<glyph unicode="G" horiz-adv-x="1184" d="M712 550h426v-70l-94 -9l-29 -24v-408q-205 -60 -353 -59q-172 0 -293 68q-138 79 -217 218.5t-79 306.5q0 271 165.5 432t447.5 161q155 0 328 -50v-271h-96l-25 155l-24 31q-97 44 -195 44q-196 0 -310.5 -130.5t-114.5 -359.5q0 -241 118.5 -378t320.5 -137 q79 0 174 22v355l-29 24l-121 9v70z" />
<glyph unicode="H" horiz-adv-x="1259" d="M56 1145h415v-68l-106 -10l-29 -24v-403h587v403l-29 24l-106 10v68h415v-68l-97 -10l-29 -24v-941l29 -23l97 -9v-70h-415v70l106 9l29 23v459h-587v-459l29 -23l106 -9v-70h-415v70l98 9l29 23v941l-29 24l-98 10v68z" />
<glyph unicode="I" horiz-adv-x="552" d="M60 0v70l109 9l29 23v941l-29 24l-109 10v68h432v-68l-110 -10l-29 -24v-941l29 -23l110 -9v-70h-432z" />
<glyph unicode="J" horiz-adv-x="757" d="M463 1043l-30 24l-114 10v68h432v-68l-106 -10l-29 -24v-606q0 -234 -88.5 -345.5t-283.5 -111.5q-106 0 -224 40v285h96l41 -215l24 -22q29 -7 60 -7q119 0 170.5 90t51.5 279v613z" />
<glyph unicode="K" horiz-adv-x="1042" d="M56 0v70l98 9l29 23v941l-29 24l-98 10v68h415v-68l-106 -10l-29 -24v-463h65l379 463l-10 24l-96 10v68h355v-68l-113 -15l-358 -427l387 -556l125 -9v-70h-282v51l-325 459h-127v-408l29 -23l106 -9v-70h-415z" />
<glyph unicode="L" horiz-adv-x="887" d="M46 0v70l108 9l29 23v941l-29 24l-108 10v68h417v-68l-98 -10l-29 -24v-964h386l24 27l29 205h89v-311h-818z" />
<glyph unicode="M" horiz-adv-x="1477" d="M53 0v70l102 14l31 32v927l-22 24l-113 10v68h362v-46l321 -857l324 850v53h365v-68l-107 -10l-21 -24v-941l21 -23l107 -9v-70h-408v70l113 9l17 23v963l-404 -1065h-74l-389 1048v-932l31 -32l104 -14v-70h-360z" />
<glyph unicode="N" horiz-adv-x="1216" d="M49 0v70l105 14l30 32v927l-30 24l-110 10v68h321v-42l582 -874v802l-31 31l-102 15v68h358v-68l-102 -15l-31 -31v-1031h-112l-651 969v-853l31 -32l103 -14v-70h-361z" />
<glyph unicode="O" horiz-adv-x="1247" d="M625 1174q220 0 375 -150q176 -171 176 -451q0 -189 -87 -337q-72 -123 -194 -193t-270 -70q-224 0 -376 146q-176 171 -176 454q0 282 174 451q156 150 378 150zM625 1082q-169 0 -271.5 -135.5t-102.5 -373.5q0 -236 102.5 -373t271.5 -137q167 0 269.5 137.5 t102.5 373t-102.5 372t-269.5 136.5z" />
<glyph unicode="P" horiz-adv-x="952" d="M56 0v70l98 9l29 23v941l-29 24l-111 10v68h389q251 0 362.5 -78.5t111.5 -269.5q0 -166 -118.5 -266.5t-323.5 -100.5q-39 0 -128 9v-337l29 -23l121 -9v-70h-430zM336 521q82 -9 113 -9q145 0 222 73.5t77 214.5q0 137 -79.5 202t-243.5 65q-58 0 -89 -4v-542z" />
<glyph unicode="Q" horiz-adv-x="1247" d="M707 -19q9 -203 242 -203q75 0 160 19v-70q-131 -27 -240 -27q-324 0 -325 281q-220 34 -348.5 194t-128.5 400q0 283 179 452q157 148 379 149q224 0 380 -149q177 -169 178 -452q0 -239 -128 -398.5t-348 -195.5zM625 67q171 0 274 136.5t103 372t-103.5 372 t-274 136.5t-274 -136t-103.5 -373q0 -234 104.5 -371t273.5 -137z" />
<glyph unicode="R" horiz-adv-x="1102" d="M56 1145h436q208 0 309.5 -75t101.5 -232q0 -222 -277 -283q126 -34 176 -115q27 -44 48.5 -135.5t31.5 -116.5q27 -73 74.5 -97t147.5 -24h16v-65q-77 -15 -134 -16q-116 0 -172 50q-29 26 -49.5 62.5t-30 67t-23 82.5t-22.5 80q-34 104 -92.5 144t-174.5 40 q-24 0 -86 -3v-407l29 -23l98 -9v-70h-407v70l98 9l29 23v941l-29 24l-98 10v68zM336 1067v-476q53 -2 94 -2q155 0 228.5 55.5t73.5 179.5q0 130 -76 186.5t-238 56.5h-82z" />
<glyph unicode="S" horiz-adv-x="948" d="M102 34v301h101l21 -197l22 -29q75 -39 191 -39q121 0 189.5 56.5t68.5 148.5q0 90 -52 133t-192 102q-27 10 -41 17q-157 68 -223 131.5t-66 179.5q0 147 107.5 237.5t286.5 90.5q142 0 291 -48v-265h-89l-26 162l-25 29q-65 36 -154 36q-108 0 -170 -56t-62 -150 q0 -80 53 -123.5t186 -100.5q12 -5 51 -20.5t57 -23t48 -23t54.5 -33.5t47.5 -40q75 -75 75 -187q0 -154 -119.5 -248.5t-322.5 -94.5q-182 -1 -308 54z" />
<glyph unicode="T" horiz-adv-x="1018" d="M27 1145h965v-263h-94l-24 159l-24 26h-263v-965l31 -23l114 -9v-70h-445v70l114 9l31 23v965h-263l-24 -26l-24 -159h-94v263z" />
<glyph unicode="U" horiz-adv-x="1184" d="M43 1145h418v-68l-106 -10l-31 -24v-618q0 -176 72 -258t234 -82q160 0 232 82t72 258v606l-33 31l-102 15v68h360v-68l-103 -15l-30 -31v-621q0 -108 -14.5 -177t-60.5 -124q-108 -130 -353.5 -129.5t-353.5 129.5q-46 56 -60.5 124.5t-14.5 176.5v633l-29 24l-97 10v68 z" />
<glyph unicode="V" horiz-adv-x="1054" d="M-39 1145h397v-68l-99 -10l-18 -24l320 -860l309 860l-17 24l-105 10v68h339v-68l-106 -21l-392 -1065h-118l-401 1065l-109 21v68z" />
<glyph unicode="W" horiz-adv-x="1583" d="M394 0l-286 1053l-108 24v68h382v-68l-107 -14l-14 -24l220 -788l275 894h120l279 -913l207 801l-19 23l-114 21v68h353v-68l-114 -24l-272 -1053h-116l-288 934l-283 -934h-115z" />
<glyph unicode="X" horiz-adv-x="1024" d="M19 1145h411v-68l-102 -10l-14 -21l224 -351l242 344l-15 23l-99 15v68h348v-68l-109 -17l-313 -446l331 -524l116 -20v-70h-431v70l114 12l12 24l-241 387l-269 -382l10 -31l114 -10v-70h-363v70l112 22l343 480l-309 483l-112 22v68z" />
<glyph unicode="Y" horiz-adv-x="1000" d="M-22 1145h396v-68l-98 -10l-17 -19l262 -469l286 455l-15 24l-104 19v68h348v-68l-104 -22l-355 -569v-384l27 -23l116 -9v-70h-442v70l116 9l28 23v362l-340 596l-104 17v68z" />
<glyph unicode="Z" horiz-adv-x="1000" d="M114 1145h797v-72l-648 -989h515l19 22l31 203h92v-309h-843v70l647 993h-456l-32 -22l-28 -160h-94v264z" />
<glyph unicode="[" horiz-adv-x="795" d="M181 1128l208 -1188h335q-3 -75 -60 -169h-376l-237 1345q19 99 67 181h392q-5 -87 -63 -169h-266z" />
<glyph unicode="\" horiz-adv-x="827" d="M667 -61q-418 753 -821 1302q109 27 219 0q236 -418 403 -690.5t404 -605.5q-96 -25 -205 -6z" />
<glyph unicode="]" horiz-adv-x="795" d="M459 -60l-210 1188h-334q5 75 61 169h376l235 -1345q-17 -99 -66 -181h-393q7 87 65 169h266z" />
<glyph unicode="^" horiz-adv-x="1706" d="M778 1219h149l433 -471h-77l-431 363l-434 -363h-75z" />
<glyph unicode="_" horiz-adv-x="853" d="M0 -304h853v-99h-853v99z" />
<glyph unicode="`" horiz-adv-x="853" d="M177 1256h169l166 -324h-85z" />
<glyph unicode="a" horiz-adv-x="865" d="M570 99q-162 -111 -280 -111q-101 0 -159.5 60.5t-58.5 158.5q0 125 106.5 183.5t391.5 126.5v55q0 104 -33.5 147.5t-123.5 43.5q-63 0 -130 -27v-144h-117q-29 0 -41 11t-12 42q0 80 93.5 136.5t250.5 56.5q135 0 195 -58t60 -188v-495l30 -27l91 -9v-61h-241zM570 157 v300q-196 -55 -272 -101.5t-76 -135.5q0 -63 36.5 -101.5t99.5 -38.5q79 0 212 77z" />
<glyph unicode="b" horiz-adv-x="919" d="M224 1256h64v-478q125 60 234 60q152 0 245 -107.5t93 -281.5q0 -220 -125.5 -334.5t-369.5 -114.5h-218v1142h-133v53zM288 79q53 -2 94 -2q167 0 246 82t79 257q0 159 -70 245.5t-198 86.5q-60 0 -151 -28v-641z" />
<glyph unicode="c" horiz-adv-x="761" d="M725 72q-143 -84 -278 -84q-174 0 -279 117t-105 306q0 191 112.5 309t292.5 118q121 0 188.5 -46t67.5 -121q0 -41 -26.5 -66t-69.5 -25q-38 0 -77 26v140q-39 24 -82 24q-111 0 -181 -94t-70 -253q0 -157 78.5 -245.5t212.5 -88.5q109 0 216 71v-88z" />
<glyph unicode="d" horiz-adv-x="964" d="M654 1142h-132v53l208 61h65v-1159l29 -27l82 -9v-61h-252v89q-130 -104 -263 -104q-142 0 -236 111t-94 288q0 205 123 330.5t318 125.5q68 0 152 -19v321zM654 152v585q-92 27 -151 28q-130 0 -210.5 -96.5t-80.5 -255.5q0 -148 70 -234.5t186 -86.5q90 0 186 60z" />
<glyph unicode="e" horiz-adv-x="837" d="M765 181v-94q-154 -102 -321 -102q-169 0 -275 116t-106 303q0 193 111 313.5t283 120.5q140 0 224 -89.5t84 -246.5q0 -34 -2 -53h-553v-19q0 -162 77.5 -255t209.5 -93q120 0 268 99zM613 521v27q0 104 -46 158.5t-132 54.5q-84 0 -147 -67.5t-70 -172.5h395z" />
<glyph unicode="f" horiz-adv-x="547" d="M49 0v61l91 9l31 27v622h-110v54l110 26v18q0 208 96.5 330.5t249.5 122.5q58 0 95.5 -28.5t37.5 -69.5q0 -67 -70 -85l-155 103q-111 -51 -111 -267v-124h237v-80h-239v-622l29 -27l106 -9v-61h-398z" />
<glyph unicode="g" horiz-adv-x="892" d="M630 790h244v-80h-188q48 -73 48 -159q0 -116 -89.5 -191t-236.5 -75h-29q-19 -38 -19 -77q0 -3 4 -41l163 -25q155 -24 222.5 -71t67.5 -139q0 -108 -102 -191q-138 -113 -338 -113q-147 0 -228 59t-81 161q0 82 49 139t136 73q-17 39 -17 77q0 65 81 162 q-97 22 -154 91t-57 166q0 125 90.5 203.5t240.5 78.5q97 0 193 -48zM420 771q-75 0 -121 -56t-46 -154q0 -96 46 -152.5t121 -56.5t121 57t46 152.5t-46 152.5t-121 57zM352 51q-70 -22 -108.5 -66.5t-38.5 -100.5q0 -75 65 -126.5t167 -51.5q111 0 182.5 54t71.5 127 q0 65 -37.5 90t-136.5 43z" />
<glyph unicode="h" horiz-adv-x="962" d="M241 1256h64v-520q186 102 277 102q111 0 170 -65.5t59 -193.5v-482l30 -27l91 -9v-61h-372v61l80 9l29 27v453q0 94 -39 134.5t-133 40.5q-80 0 -192 -56v-572l31 -27l80 -9v-61h-373v61l92 9l29 27v1045h-132v53z" />
<glyph unicode="i" horiz-adv-x="477" d="M263 1208q41 0 70 -29t29 -70t-29 -69t-70 -28t-70 28t-29 69q0 43 29 71t70 28zM256 829h65v-732l31 -27l92 -9v-61h-384v61l90 9l29 27v618h-119v53z" />
<glyph unicode="j" horiz-adv-x="453" d="M186 715h-121v53l198 61h65v-686q0 -159 -17 -246.5t-81 -157.5q-102 -111 -245 -111q-55 0 -86.5 25.5t-31.5 66.5q0 61 63 89l166 -101q90 29 90 265v742zM150 1109q0 43 29 71t70 28t70 -29t29 -70t-29 -69t-70 -28t-70 28t-29 69z" />
<glyph unicode="k" horiz-adv-x="882" d="M43 0v61l92 9l29 27v1045h-132v53l209 61h64v-821h33l261 292l-12 24l-77 7v63h325v-63l-110 -14l-233 -247l300 -424l109 -8v-65h-266v56l-231 331h-99v-290l31 -27l80 -9v-61h-373z" />
<glyph unicode="l" horiz-adv-x="481" d="M48 0v61l100 9l29 27v1045h-131v53l208 61h65v-1159l31 -27l97 -9v-61h-399z" />
<glyph unicode="m" horiz-adv-x="1438" d="M775 724q195 114 293 114q102 0 161.5 -67.5t59.5 -191.5v-482l29 -27l90 -9v-61h-372v61l80 9l31 27v453q0 176 -154 175q-77 0 -193 -56v-572l31 -27l80 -9v-61h-363v61l82 9l29 27v453q0 176 -150 175q-82 0 -195 -56v-572l29 -27l82 -9v-61h-374v61l92 9l29 27v618 h-121v53l198 61h65v-93q174 102 273 102q128 0 188 -114z" />
<glyph unicode="n" horiz-adv-x="969" d="M51 0v61l92 9l29 27v618h-121v53l198 61h65v-93q186 102 275 102q113 0 171.5 -65.5t58.5 -193.5v-482l29 -27l92 -9v-61h-373v61l82 9l29 27v453q0 94 -39.5 134.5t-133.5 40.5q-82 0 -191 -56v-572l29 -27l82 -9v-61h-374z" />
<glyph unicode="o" horiz-adv-x="919" d="M459 838q174 0 286 -119.5t112 -307t-113 -307t-285 -119.5t-284 119.5t-112 306.5q0 189 111 308t285 119zM459 765q-106 0 -170.5 -95t-64.5 -259q0 -162 65.5 -257.5t169.5 -95.5q106 0 171.5 94.5t65.5 258.5q0 162 -65.5 258t-171.5 96z" />
<glyph unicode="p" horiz-adv-x="940" d="M39 -372v61l92 9l29 27v990h-121v53l198 61h65v-93q135 102 251 102q142 0 235 -111t93 -288q0 -201 -115.5 -322.5t-304.5 -121.5q-65 0 -159 15v-285l29 -27l109 -9v-61h-401zM302 99q82 -27 145 -27q126 0 204.5 93.5t78.5 250.5q0 145 -68 229.5t-181 84.5 q-79 0 -179 -58v-573z" />
<glyph unicode="q" horiz-adv-x="906" d="M783 811q-2 -27 -3.5 -56.5t-2 -45.5t-0.5 -23v-961l30 -29l91 -7v-61h-400v61l108 7l29 29v331q-130 -61 -236 -61q-150 0 -243 108.5t-93 289.5q0 205 128 326t348 121q104 0 244 -29zM635 748q-80 19 -130 18q-133 0 -210.5 -93t-77.5 -258q0 -157 69 -243.5 t190 -86.5q56 0 159 26v637z" />
<glyph unicode="r" horiz-adv-x="651" d="M51 0v61l91 9l30 27v618h-121v53l198 61h65v-160q82 85 183 166q14 3 42 3q51 0 103 -22v-147h-55q-34 41 -87 41q-80 0 -186 -125v-488l29 -27l120 -9v-61h-412z" />
<glyph unicode="s" horiz-adv-x="682" d="M587 800v-192h-84l-13 121q-67 36 -126 36q-68 0 -105 -32.5t-37 -90.5q0 -51 33 -84.5t112 -71.5q14 -7 44.5 -21t48.5 -23t42.5 -24t45.5 -31q65 -51 65 -146q0 -119 -84.5 -187.5t-234.5 -68.5q-125 0 -222 35v222h82l20 -145q72 -41 145.5 -41t117 38.5t43.5 100 t-38.5 94t-136.5 76.5q-118 53 -169 102.5t-51 131.5q0 113 78.5 176t223.5 63q115 0 200 -38z" />
<glyph unicode="t" horiz-adv-x="570" d="M150 719h-107v52l112 50l74 159h63v-181h259v-80h-259v-451q0 -102 28 -144t113 -42q55 0 118 14v-64q-118 -38 -223 -37q-102 0 -140 39t-38 133v552z" />
<glyph unicode="u" horiz-adv-x="971" d="M242 838h65v-565q0 -92 40 -136.5t126 -44.5q94 0 198 51v579h-121v53l198 63h64v-741l31 -27l80 -9v-61h-252v96q-157 -113 -277 -113q-111 0 -169.5 66.5t-58.5 194.5v478h-122v53z" />
<glyph unicode="v" horiz-adv-x="843" d="M-9 821h371v-63l-91 -7l-20 -27l200 -558l218 558l-14 27l-92 7v63h302v-63l-100 -14l-299 -744h-96l-274 748l-105 10v63z" />
<glyph unicode="w" horiz-adv-x="1315" d="M-3 821h370v-63l-91 -7l-20 -27l155 -555l229 652h104l201 -652l175 555l-14 27l-92 7v63h302v-63l-96 -14l-244 -744h-106l-206 647l-231 -647h-105l-227 748l-104 10v63z" />
<glyph unicode="x" horiz-adv-x="858" d="M31 821h367v-63l-79 -10l-8 -18l143 -223l155 218l-13 23l-82 10v63h307v-63l-96 -17l-225 -299l251 -365l102 -14v-63h-363v63l71 12l9 14l-159 254l-174 -247l9 -21l97 -12v-63h-323v63l98 14l246 329l-229 333l-104 19v63z" />
<glyph unicode="y" horiz-adv-x="844" d="M-2 821h371v-63l-91 -7l-20 -27l205 -531l213 531l-14 27l-92 7v63h304v-63l-99 -14l-342 -829q-61 -147 -126 -217t-147 -70q-53 0 -85 26.5t-32 69.5q0 51 44 92l164 -65q77 84 138 256l-287 741l-104 10v63z" />
<glyph unicode="z" horiz-adv-x="798" d="M77 0v85l455 657h-315l-24 -27l-19 -131h-80v237h616v-65l-473 -677h367l26 27l19 145h87v-251h-659z" />
<glyph unicode="{" horiz-adv-x="829" d="M713 1200v-63q-126 -3 -171 -47t-45 -158v-138q0 -137 -49 -205t-175 -94q119 -27 171.5 -93.5t52.5 -194.5v-142q0 -135 38 -180t178 -47v-67h-42q-181 0 -246 66.5t-65 246.5v145q0 128 -46 179t-164 51q-5 0 -18.5 -1t-20.5 -1v75q15 -2 44 -1q114 0 159.5 50 t45.5 170v174q0 145 77.5 210t253.5 65h22z" />
<glyph unicode="|" horiz-adv-x="853" d="M374 1304h106v-1707h-106v1707z" />
<glyph unicode="}" horiz-adv-x="829" d="M109 1200h22q176 0 254 -65t78 -210v-174q0 -119 45 -169.5t159 -50.5q29 0 45 1v-75q-7 0 -20.5 1t-19.5 1q-118 0 -163.5 -51t-45.5 -179v-145q0 -179 -66 -246t-247 -67h-41v67q140 2 178.5 47t38.5 180v142q0 128 52 194.5t172 93.5q-126 26 -175 94t-49 205v138 q0 114 -45 157.5t-172 47.5v63z" />
<glyph unicode="~" horiz-adv-x="1421" d="M1275 631v-109q-167 -119 -323 -119q-72 0 -158 29q-24 9 -83 29t-87 28.5t-72.5 18t-82.5 9.5q-131 0 -321 -133v111q176 121 323 121q89 0 242 -55q9 -3 33.5 -11.5t36 -13t32.5 -11t35 -10t32.5 -7t36.5 -5t35 -1.5q135 -1 321 129z" />
<glyph unicode="&#xa3;" horiz-adv-x="1076" d="M237 415l-90 -33q-20 96 -5 149l44 15q-72 201 -12 352.5t198 242.5t314 107q0 -123 -34 -204q-94 -7 -158 -18t-110 -32t-68 -48.5t-29 -72.5t2.5 -99t33.5 -131q7 -22 18 -41q164 56 263 105q22 -99 7 -149q-133 -56 -217 -85q68 -171 16 -357q29 -9 84.5 8.5t135.5 59 t132 71.5t139 81l33 21q17 -102 -7 -202q-488 -253 -645 -196q61 239 -45 456z" />
<glyph unicode="&#xad;" horiz-adv-x="771" d="M85 461q15 94 86 177q102 9 249 -7.5t249 -55.5q-19 -104 -53 -152q-162 29 -228.5 38.5t-136 10.5t-166.5 -11z" />
<glyph unicode="&#x5b0;" d="M-17 -403q22 55 73 89q60 -34 103 -89q-22 -56 -72 -89q-61 33 -104 89zM-56 -183q24 56 73 89q61 -32 104 -89q-24 -55 -73 -88q-61 33 -104 88z" />
<glyph unicode="&#x5b1;" d="M-152 -403q22 55 72 89q61 -34 104 -89q-22 -56 -72 -89q-61 33 -104 89zM239 -403q24 55 73 89q61 -34 104 -89q-24 -56 -73 -89q-61 33 -104 89zM200 -183q24 56 73 89q61 -32 104 -89q-24 -55 -73 -88q-61 33 -104 88zM-70 -183q24 56 73 89q61 -32 105 -89 q-24 -55 -74 -88q-61 33 -104 88zM-312 -183q22 56 71 89q61 -32 104 -89q-22 -55 -71 -88q-61 33 -104 88z" />
<glyph unicode="&#x5b2;" d="M-287 -118h424q-7 -65 -40 -119h-425q9 63 41 119zM253 -403q22 55 71 89q61 -34 104 -89q-24 -56 -73 -89q-59 33 -102 89zM213 -183q22 56 72 89q61 -32 104 -89q-22 -55 -72 -88q-61 33 -104 88z" />
<glyph unicode="&#x5b3;" d="M106 -239h-145l32 -177q-29 -3 -59.5 -3.5t-61.5 3.5l-31 177h-176q9 65 41 121h441q-9 -65 -41 -121zM261 -403q24 55 74 89q61 -34 104 -89q-24 -56 -74 -89q-61 33 -104 89zM222 -183q24 56 73 89q61 -32 104 -89q-24 -55 -73 -88q-61 33 -104 88z" />
<glyph unicode="&#x5b4;" d="M-56 -183q24 56 73 89q61 -32 104 -89q-24 -55 -73 -88q-61 33 -104 88z" />
<glyph unicode="&#x5b5;" d="M77 -183q22 56 71 89q61 -32 105 -89q-22 -55 -72 -88q-61 33 -104 88zM-189 -183q24 56 73 89q61 -32 104 -89q-24 -55 -73 -88q-61 33 -104 88z" />
<glyph unicode="&#x5b6;" d="M-20 -381q22 55 71 89q61 -34 104 -89q-22 -56 -73 -88q-59 32 -102 88zM77 -183q22 56 71 89q61 -32 105 -89q-22 -55 -72 -88q-61 33 -104 88zM-189 -183q24 56 73 89q61 -32 104 -89q-24 -55 -73 -88q-61 33 -104 88z" />
<glyph unicode="&#x5b7;" d="M-162 -118h425q-9 -65 -41 -121h-423q7 65 39 121z" />
<glyph unicode="&#x5b8;" d="M230 -239h-136l31 -177q-29 -3 -59 -3.5t-61 3.5l-32 177h-185q9 65 41 121h442q-9 -65 -41 -121z" />
<glyph unicode="&#x5b9;" d="M-297 1179q24 55 73 87q61 -32 105 -87q-24 -56 -74 -88q-61 32 -104 88z" />
<glyph unicode="&#x5ba;" d="M-297 1179q24 55 73 87q61 -32 105 -87q-24 -56 -74 -88q-61 32 -104 88z" />
<glyph unicode="&#x5bb;" d="M181 -403q24 55 73 89q61 -34 104 -89q-24 -56 -73 -89q-61 33 -104 89zM-38 -292q24 55 74 87q61 -32 104 -87q-24 -56 -73 -89q-61 33 -105 89zM-254 -183q22 56 71 89q61 -32 104 -89q-22 -55 -73 -88q-59 33 -102 88z" />
<glyph unicode="&#x5bc;" d="M-195 512q32 56 86 104q68 -43 123 -104q-34 -58 -86 -104q-62 41 -123 104z" />
<glyph unicode="&#x5bd;" d="M77 -90l58 -332q-29 -5 -60 -5t-61 5l-58 332q29 5 59.5 5t61.5 -5z" />
<glyph unicode="&#x5be;" horiz-adv-x="839" d="M-65 860q27 94 103 178q335 -15 582 -81q-27 -102 -76 -151q-200 29 -317.5 38t-291.5 16z" />
<glyph unicode="&#x5bf;" d="M-408 1256h440q-9 -63 -39 -119h-442q9 64 41 119z" />
<glyph unicode="&#x5c0;" horiz-adv-x="305" d="M-26 1085q61 38 137 47l217 -1229q-63 -39 -137 -46z" />
<glyph unicode="&#x5c1;" d="M684 1154q24 55 74 88q61 -34 104 -88q-24 -55 -74 -89q-61 34 -104 89z" />
<glyph unicode="&#x5c2;" d="M145 1154q22 55 72 88q61 -34 104 -88q-22 -55 -72 -89q-61 34 -104 89z" />
<glyph unicode="&#x5c3;" horiz-adv-x="508" d="M142 876q87 -49 155 -128q-38 -94 -102 -159q-97 51 -161 118q36 85 108 169zM234 251q89 -49 157 -128q-38 -94 -103 -161q-97 53 -160 118q36 87 106 171z" />
<glyph unicode="&#x5c4;" d="M-333 1283q29 67 87 106q73 -39 125 -106q-27 -67 -87 -105q-74 38 -125 105z" />
<glyph unicode="&#x5c5;" d="M-60 -259q27 67 87 105q73 -39 125 -105q-27 -67 -87 -106q-74 39 -125 106z" />
<glyph unicode="&#x5c7;" d="M-27 -239h-150q9 65 40 121h374q-9 -65 -41 -121h-102l48 -268q-29 -5 -60 -5t-62 5z" />
<glyph unicode="&#x5d0;" horiz-adv-x="1186" d="M79 1068q90 -121 139 -247q294 -68 506 -213q48 77 46 163t-48 149q55 92 128 148q61 -72 68 -165.5t-23.5 -179t-90.5 -175.5q172 -154 273 -430q-29 -75 -92 -161q-84 282 -268 458q-79 75 -196 128.5t-243 79.5q55 -287 45 -536q-32 -82 -103 -130q-12 121 -16 167.5 t-17 146t-22.5 147.5t-29 128t-41 132t-53 116t-70.5 122q40 84 108 152z" />
<glyph unicode="&#x5d1;" horiz-adv-x="986" d="M155 1053q17 -3 50 -12q130 -31 194.5 -47t149 -44t139.5 -57q51 -26 66.5 -62t11.5 -92q-2 -22 -9.5 -42.5t-20 -48.5t-21.5 -51q-20 -58 -11.5 -87.5t54.5 -60.5q15 -10 40 -21.5t42 -20t22 -18.5q29 -55 -53 -153q-67 -80 -311.5 -182t-458.5 -114q17 104 120 207 q357 63 479 153q-7 9 -26.5 28.5t-27.5 31.5q-44 61 -29 126q26 116 25 173q0 92 -68 114q-101 36 -187 55t-181.5 32.5t-128.5 20.5q51 114 140 172z" />
<glyph unicode="&#x5d2;" horiz-adv-x="645" d="M143 1068q172 -147 293.5 -417t147.5 -532q-20 -101 -96 -162q-31 157 -77 297q-29 -65 -147.5 -170.5t-217.5 -126.5q0 96 31 174q24 20 104 78.5t114 94.5q51 63 50.5 120t-46.5 139q-97 176 -279 343q55 107 123 162z" />
<glyph unicode="&#x5d3;" horiz-adv-x="849" d="M-61 889q32 113 88 164q191 0 399.5 -51t288.5 -104q3 -24 -2.5 -70t-14.5 -79q-56 -9 -125 -39q-67 -32 -46 -114q12 -44 26.5 -88.5t36 -99.5t32.5 -83t40 -96.5t36 -83.5q-9 -104 -94 -188q-94 191 -177 461q-17 55 -18 133.5t13 119.5q17 51 61 126 q-38 10 -73.5 20.5t-65.5 18t-64 14.5t-57 11t-57.5 8.5t-50.5 7t-49.5 5t-44.5 3.5t-44 2.5t-38 1.5z" />
<glyph unicode="&#x5d4;" horiz-adv-x="1134" d="M205 589q48 -157 92 -256t102 -200q0 -49 -18.5 -98t-42.5 -78q-60 51 -122 161.5t-79 200.5q-14 75 5.5 169t62.5 101zM106 1051q341 -26 575 -124q99 -43 165.5 -108.5t110.5 -169.5q55 -126 74 -237.5t27 -281.5q-19 -101 -106 -173q-2 15 -6 67.5t-6.5 73.5 t-8.5 67.5t-12 77t-16 72.5t-24 81q-58 177 -145 268.5t-200 127.5q-44 12 -87.5 23t-91.5 19.5t-81 13.5t-85 11t-73.5 8.5t-76 7t-65.5 6.5q57 115 132 170z" />
<glyph unicode="&#x5d5;" horiz-adv-x="570" d="M46 1068q295 -189 358 -513q41 -208 43 -478q-41 -85 -97 -120q-27 343 -106 560q-14 38 -29 70.5t-37.5 64t-37 51t-47 51t-47 44.5t-56 49.5t-57.5 50.5q41 107 113 170z" />
<glyph unicode="&#x5d6;" horiz-adv-x="636" d="M90 1068q263 -123 413 -274q-22 -102 -88 -178q-70 46 -152 108q-43 -49 -46 -116q-3 -48 68.5 -179.5t146.5 -239.5q10 -77 -3 -139t-47 -93q-116 157 -214 347.5t-95 268.5q2 29 15.5 61.5t42.5 83t38 69.5q-22 15 -49.5 30.5t-48 25t-53 24t-44.5 19.5q46 124 116 182 z" />
<glyph unicode="&#x5d7;" horiz-adv-x="1104" d="M113 1068q7 -3 22 -12.5t23.5 -14.5t24 -11t32.5 -11t39 -7q123 -19 204 -38.5t184 -57.5q208 -80 295 -300q80 -205 87 -478q-32 -119 -121 -181q-5 19 -14.5 145.5t-21.5 197.5q-31 186 -125 313q-65 87 -199 146q-147 65 -336 62q51 -104 77.5 -277.5t17.5 -396.5 q-15 -61 -52.5 -114t-80.5 -76q-5 70 -9.5 185.5t-11.5 190.5q-12 137 -36.5 238t-72.5 235q-7 17 -32.5 37.5t-26.5 26.5q56 126 133 198z" />
<glyph unicode="&#x5d8;" horiz-adv-x="1148" d="M63 1068q56 -89 117.5 -208t82.5 -167q12 -29 51 -135.5t76.5 -192t77.5 -147.5q31 -46 78.5 -56t100.5 22q70 44 106.5 75t69.5 74q53 68 46 177q-10 172 -58 253q-44 77 -127 99t-163 -17q-65 -31 -142 -97q-9 101 17 186q125 114 268 117q135 2 221 -89.5t108 -220.5 q43 -268 -90 -511q-84 -152 -249 -230q-155 -73 -248 26q-36 36 -71.5 106.5t-93 201t-94.5 205.5q-84 174 -207 333q24 92 123 196z" />
<glyph unicode="&#x5d9;" horiz-adv-x="599" d="M63 1068q75 -36 126.5 -66.5t107.5 -75.5t89.5 -94.5t55.5 -118t22 -152.5q-31 -148 -135 -245q-2 15 -1.5 60.5t-1.5 71t-6 65.5t-15 76.5t-29 70.5q-14 31 -36 56.5t-42.5 43t-57 37t-59.5 29.5t-71 30.5t-71 30.5q29 65 54.5 105t69.5 76z" />
<glyph unicode="&#x5da;" horiz-adv-x="856" d="M17 1051q387 -53 705 -215q-5 -68 -36 -135q-75 -7 -118 -20q-104 -34 -71 -145l198 -662q-15 -186 -82 -253q-17 73 -35 144t-43 154.5t-40 131.5t-49.5 156.5t-46.5 149.5q-27 97 -10 213t65 200q-254 85 -524 114q24 116 87 167z" />
<glyph unicode="&#x5db;" horiz-adv-x="928" d="M128 1051q118 -19 182.5 -30.5t152.5 -41.5t141 -69q102 -75 142.5 -182t41.5 -260q2 -119 -100 -285q-44 -73 -222 -145t-417 -98q20 102 79 173q48 15 169 47.5t200.5 61.5t137.5 70q15 72 13.5 159.5t-22.5 140.5q-41 108 -109 171t-205 85q-140 22 -326 38 q50 105 142 165z" />
<glyph unicode="&#x5dc;" horiz-adv-x="837" d="M44 1370q3 -31 10 -107.5t16 -119.5q9 -41 22.5 -60.5t52.5 -36.5q41 -19 180 -46t209 -48q51 -15 85.5 -45.5t51.5 -75t23.5 -84.5t8.5 -92q2 -29 -13.5 -62t-30 -53.5t-50.5 -63.5t-46 -56q-53 -67 -61.5 -109.5t3.5 -163.5q-48 -109 -157 -190q-12 26 -22 93.5 t-5 101.5q15 87 48.5 154.5t96.5 152.5q26 34 34.5 46t25.5 44.5t19.5 55.5t-1 60.5t-17.5 78.5q-9 24 -32 33q-38 14 -102 30t-177.5 42.5t-152.5 36.5q-84 20 -104 87q-29 97 -56 264q47 89 141 133z" />
<glyph unicode="&#x5dd;" horiz-adv-x="1078" d="M200 836q75 -328 177 -667q10 -31 40 -43.5t66 -6.5q85 12 221 79.5t136 112.5q0 14 -32.5 51t-37.5 68q-2 9 0.5 24t7 39t5.5 38q20 147 -112 199q-29 10 -57.5 20.5t-65 19t-58.5 14.5t-71 14.5t-65 12t-77.5 13.5t-76.5 12zM31 1051q10 -2 103 -16t118.5 -18.5 t107.5 -20t129 -28t117 -32.5t135 -42q189 -67 184 -240q-3 -53 -26 -191q70 -94 77 -117q12 -27 7 -74.5t-31 -82.5q-17 -22 -126 -85q-183 -109 -304 -159q-80 -34 -143 -24q-44 7 -83.5 40.5t-54.5 82.5q-99 345 -183 814l-160 29q20 44 57.5 90.5t75.5 73.5z" />
<glyph unicode="&#x5de;" horiz-adv-x="1141" d="M79 1068q157 -116 235 -291q20 96 140 184q55 39 119.5 63t107.5 24q126 -3 195 -113q63 -102 88 -181q20 -67 40 -208q5 -43 -4 -73q-46 -145 -107 -253q-34 -63 -105 -94q-278 -131 -599 -186q32 109 98 193q176 49 310 101q97 38 176 84t104 85q-14 176 -89 343 q-27 60 -57.5 86t-75.5 30q-48 2 -120 -39t-111.5 -72.5t-71.5 -61.5q27 -116 -11 -230q-19 -60 -45 -98t-71 -67q-14 85 -13 169q0 19 10 60.5t3 68.5q-14 68 -94 164t-167 145q45 97 115 167z" />
<glyph unicode="&#x5df;" horiz-adv-x="581" d="M61 1068q143 -90 234 -247t127 -341q67 -343 58 -586q-27 -113 -111 -188q-2 20 -7 106t-9.5 134.5t-13 128.5t-21.5 153.5t-28 146.5q-24 102 -57 181t-82.5 142t-93 105t-117.5 102q37 83 121 163z" />
<glyph unicode="&#x5e0;" horiz-adv-x="643" d="M61 1060q150 -36 276.5 -158t148.5 -284q17 -126 12 -197t-41 -232q-12 -15 -27 -30.5t-29 -27.5t-35 -28t-35 -26t-39.5 -27.5t-37.5 -24t-40 -23.5t-35.5 -22.5t-36.5 -21.5t-33 -18q-17 116 19 215l254 162q9 125 -10 214.5t-90 175.5q-56 67 -129 106t-179 74 q29 106 87 173z" />
<glyph unicode="&#x5e1;" horiz-adv-x="1170" d="M307 831q92 -329 205 -619q14 -36 50.5 -44.5t82.5 15.5q147 77 220 152q56 56 28 179q-19 70 -45.5 117t-68.5 76t-84.5 44t-109.5 29q-118 25 -278 51zM75 1051q142 -22 404 -85t362 -106q89 -36 147 -118t60 -174q2 -104 -21 -185t-93 -163q-108 -126 -262 -206 q-80 -43 -141.5 -45.5t-97 27.5t-54.5 88q-114 350 -219 766q-162 29 -211 41q36 95 126 160z" />
<glyph unicode="&#x5e2;" horiz-adv-x="962" d="M27 1068q189 -157 310.5 -378.5t148.5 -411.5q12 12 38.5 37.5t35 35t29 31t27.5 31t20.5 26.5t18.5 29t12 27t9 30.5t3 30.5q2 104 -32 171.5t-108 148.5q36 121 96 192q193 -188 179 -445q-7 -116 -60 -239q-22 -53 -62 -105t-67.5 -78.5t-95.5 -84.5t-92 -78 q-9 -9 -26.5 -21t-27 -23t-13.5 -26q-19 -73 -67.5 -109t-133.5 -62q0 9 -5 52t-1.5 77.5t16.5 76.5q12 34 43.5 64t79.5 66t73 63q-12 80 -44 162t-69.5 145.5t-98.5 138.5t-107 124.5t-116 120.5q22 104 87 181z" />
<glyph unicode="&#x5e3;" horiz-adv-x="936" d="M207 1051q237 -31 401 -172q111 -96 153 -287q97 -420 84 -713q-12 -121 -104 -208q-22 273 -58 512q-17 114 -29 177t-38.5 143.5t-64.5 143.5q-56 94 -152.5 152t-214.5 75q-29 -60 -35 -107t12 -82.5t53 -64t91 -53.5q3 -82 -59 -163q-114 31 -179 103.5t-64 176.5 q2 87 64.5 195.5t139.5 171.5z" />
<glyph unicode="&#x5e4;" horiz-adv-x="972" d="M258 1051q9 0 42 -7.5t43 -9t40 -8.5t43 -11.5t39.5 -12t43.5 -14.5t40 -16t44 -20.5t44 -24.5q138 -82 186 -282q34 -133 0 -261q-14 -53 -59 -134t-73 -103q-90 -72 -265 -139.5t-284 -67.5q3 97 63 188q92 22 141.5 35.5t126.5 42t130.5 64t92.5 83.5 q17 113 -13.5 217t-107.5 172q-56 49 -160 88.5t-200 39.5q-22 -60 -26.5 -100t14.5 -74t52 -59.5t97 -61.5q-19 -92 -89 -143q-96 9 -160.5 84t-68.5 170q-2 90 73.5 206t150.5 159z" />
<glyph unicode="&#x5e5;" horiz-adv-x="936" d="M58 1068q44 -97 99 -177t95 -120.5t105 -101t97 -92.5q138 131 77 310q38 108 118 181q49 -75 60 -156t-13 -153.5t-65.5 -135.5t-101.5 -118q179 -253 178 -642q-36 -128 -130 -198q2 46 3.5 108.5t-11.5 149.5t-32.5 170.5t-60.5 171.5t-99 155q-53 63 -152 154.5 t-172 169t-106 149.5q29 100 111 175z" />
<glyph unicode="&#x5e6;" horiz-adv-x="947" d="M94 1068q14 -56 50.5 -111.5t80 -96.5t106.5 -83.5t108.5 -68t106.5 -58.5q27 43 24 109.5t-34 119.5q63 135 145 189q140 -222 -31 -466q43 -20 69.5 -33.5t57 -42.5t34.5 -58q7 -55 -27.5 -138.5t-80.5 -126.5q-89 -89 -294.5 -170.5t-335.5 -92.5q7 104 98 195 q116 27 216.5 64t162 71t96.5 64.5t35 47.5q0 34 -29 56.5t-109 53.5q-266 102 -384 182q-67 46 -122.5 105t-63.5 90q12 56 45 111.5t76 87.5z" />
<glyph unicode="&#x5e7;" horiz-adv-x="1138" d="M48 1044q99 -17 278 -45t300.5 -48.5t168.5 -34.5q73 -19 140 -120t69 -216q-22 -58 -67.5 -133t-89 -139t-50.5 -79q-9 -14 -8 -50t-4 -82q-7 -14 -18 -25.5t-34 -29.5t-30 -25q-41 -38 -72 -58q-36 48 -31.5 113.5t43.5 130.5q26 41 72 118t82 136.5t63 100.5 q-10 55 -31.5 102.5t-38.5 61.5q-20 17 -195 50.5t-332 51.5q7 -19 44.5 -114.5t46 -118.5t40 -105t42.5 -115t36 -103t37.5 -116t29.5 -108.5t31 -120.5q0 -162 -116 -259v1q-5 39 -14.5 89t-40 188t-67.5 268.5t-100 306.5t-136 328l-181 29q48 102 133 170z" />
<glyph unicode="&#x5e8;" horiz-adv-x="902" d="M77 1051q9 -2 61.5 -13.5t67 -15t63 -14.5t69 -19t61.5 -20.5t64 -24.5t55 -28.5t55.5 -34t44.5 -38.5q58 -58 99.5 -203t59 -274t18.5 -231q-10 -60 -34.5 -96.5t-71.5 -69.5q-14 174 -54 350q-19 80 -27.5 114.5t-28 93t-44.5 99.5t-61 77q-20 22 -50.5 42t-57 34.5 t-72 28t-68.5 21t-76.5 18t-68 13t-73.5 12t-63 9.5q24 56 54 92.5t78 77.5z" />
<glyph unicode="&#x5e9;" horiz-adv-x="1196" d="M97 1068q85 -130 158.5 -294.5t114.5 -300.5q63 29 104 87t36 112q-5 46 -41.5 105t-79.5 104q46 121 157 187q101 -166 109 -327q5 -111 -46 -198q-73 -125 -205 -191q12 -41 18 -60t19 -51.5t24 -47t30 -26.5t39 -12q53 2 171 90t184 177q27 116 3.5 220t-104.5 245 q38 96 144 181q63 -80 102 -206t26 -256q-14 -133 -80.5 -257.5t-139.5 -194.5q-198 -189 -308 -188q-39 2 -74 20.5t-58 41.5t-48.5 68.5t-38.5 75t-37 86.5q-3 10 -5 15q-22 51 -53.5 136.5t-58 149.5t-53.5 113q-58 109 -150 207q47 114 141 189z" />
<glyph unicode="&#x5ea;" horiz-adv-x="1158" d="M167 1060q312 -26 577 -152q65 -31 128 -87t96 -138q84 -201 105 -528q-26 -123 -107 -198q-67 565 -176 693q-26 29 -58 54.5t-57 41t-66.5 32t-62 22.5t-69.5 19.5t-62 16.5q41 -159 64.5 -305.5t18.5 -194.5q-3 -22 -26 -79t-52 -100q-24 -36 -141 -101t-185 -90 q-14 48 -6 102.5t26 100.5q171 77 253 138q-55 282 -130 562q-94 17 -223 30q19 51 54.5 89t98.5 72z" />
<glyph unicode="&#x5f0;" horiz-adv-x="1140" d="M616 1068q295 -189 358 -513q41 -208 43 -478q-41 -85 -97 -120q-27 343 -106 560q-14 38 -29 70.5t-37.5 64t-37 51t-47 51t-47 44.5t-56 49.5t-57.5 50.5q41 107 113 170zM46 1068q295 -189 358 -513q41 -208 43 -478q-41 -85 -97 -120q-27 343 -106 560 q-14 38 -29 70.5t-37.5 64t-37 51t-47 51t-47 44.5t-56 49.5t-57.5 50.5q41 107 113 170z" />
<glyph unicode="&#x5f1;" horiz-adv-x="1169" d="M645 1068q295 -189 358 -513q41 -208 43 -478q-41 -85 -97 -120q-27 343 -106 560q-14 38 -29 70.5t-37.5 64t-37 51t-47 51t-47 44.5t-56 49.5t-57.5 50.5q41 107 113 170zM63 1068q75 -36 126.5 -66.5t107.5 -75.5t89.5 -94.5t55.5 -118t22 -152.5q-31 -148 -135 -245 q-2 15 -1.5 60.5t-1.5 71t-6 65.5t-15 76.5t-29 70.5q-14 31 -36 56.5t-42.5 43t-57 37t-59.5 29.5t-71 30.5t-71 30.5q29 65 54.5 105t69.5 76z" />
<glyph unicode="&#x5f2;" horiz-adv-x="1198" d="M662 1068q75 -36 126.5 -66.5t107.5 -75.5t89.5 -94.5t55.5 -118t22 -152.5q-31 -148 -135 -245q-2 15 -1.5 60.5t-1.5 71t-6 65.5t-15 76.5t-29 70.5q-14 31 -36 56.5t-42.5 43t-57 37t-59.5 29.5t-71 30.5t-71 30.5q29 65 54.5 105t69.5 76zM63 1068 q75 -36 126.5 -66.5t107.5 -75.5t89.5 -94.5t55.5 -118t22 -152.5q-31 -148 -135 -245q-2 15 -1.5 60.5t-1.5 71t-6 65.5t-15 76.5t-29 70.5q-14 31 -36 56.5t-42.5 43t-57 37t-59.5 29.5t-71 30.5t-71 30.5q29 65 54.5 105t69.5 76z" />
<glyph unicode="&#x5f3;" horiz-adv-x="389" d="M32 1285q84 -148 108.5 -303.5t7.5 -387.5q-20 -29 -77 -22q-19 145 -71.5 300.5t-103.5 235.5q22 56 59.5 103.5t76.5 73.5z" />
<glyph unicode="&#x5f4;" horiz-adv-x="761" d="M404 1285q84 -148 108.5 -304t7.5 -388q-20 -27 -77 -21q-19 143 -71.5 298.5t-103.5 235.5q22 56 59.5 104.5t76.5 74.5zM32 1285q84 -148 108.5 -304t7.5 -388q-20 -27 -77 -21q-19 143 -71.5 298.5t-103.5 235.5q22 56 59.5 104.5t76.5 74.5z" />
<glyph unicode="&#x2000;" horiz-adv-x="819" />
<glyph unicode="&#x2001;" horiz-adv-x="1638" />
<glyph unicode="&#x2002;" horiz-adv-x="819" />
<glyph unicode="&#x2003;" horiz-adv-x="1638" />
<glyph unicode="&#x2004;" horiz-adv-x="546" />
<glyph unicode="&#x2005;" horiz-adv-x="409" />
<glyph unicode="&#x2006;" horiz-adv-x="273" />
<glyph unicode="&#x2007;" horiz-adv-x="273" />
<glyph unicode="&#x2008;" horiz-adv-x="204" />
<glyph unicode="&#x2009;" horiz-adv-x="327" />
<glyph unicode="&#x200a;" horiz-adv-x="91" />
<glyph unicode="&#x200c;" />
<glyph unicode="&#x200d;" />
<glyph unicode="&#x200e;" />
<glyph unicode="&#x200f;" />
<glyph unicode="&#x2010;" horiz-adv-x="771" d="M85 461q15 94 86 177q102 9 249 -7.5t249 -55.5q-19 -104 -53 -152q-162 29 -228.5 38.5t-136 10.5t-166.5 -11z" />
<glyph unicode="&#x2011;" horiz-adv-x="771" d="M85 461q15 94 86 177q102 9 249 -7.5t249 -55.5q-19 -104 -53 -152q-162 29 -228.5 38.5t-136 10.5t-166.5 -11z" />
<glyph unicode="&#x2012;" horiz-adv-x="771" d="M85 461q15 94 86 177q102 9 249 -7.5t249 -55.5q-19 -104 -53 -152q-162 29 -228.5 38.5t-136 10.5t-166.5 -11z" />
<glyph unicode="&#x2013;" horiz-adv-x="1078" d="M114 584h854q-17 -84 -55 -144h-853q16 86 54 144z" />
<glyph unicode="&#x2014;" horiz-adv-x="1590" d="M114 584h1366q-17 -84 -55 -144h-1365q16 86 54 144z" />
<glyph unicode="&#x2015;" horiz-adv-x="2273" d="M114 584h2048q-17 -84 -54 -144h-2048q16 86 54 144z" />
<glyph unicode="&#x2018;" horiz-adv-x="372" d="M63 649q-84 148 -108.5 303.5t-7.5 387.5q20 29 77 22q19 -145 71.5 -300.5t103.5 -235.5q-22 -56 -59.5 -103.5t-76.5 -73.5z" />
<glyph unicode="&#x2019;" horiz-adv-x="372" d="M17 1370q84 -148 108.5 -303.5t7.5 -387.5q-20 -29 -77 -22q-19 145 -71.5 300.5t-103.5 235.5q22 56 59.5 103.5t76.5 73.5z" />
<glyph unicode="&#x201a;" horiz-adv-x="372" d="M201 266q84 -148 108.5 -303.5t7.5 -387.5q-20 -29 -77 -22q-19 145 -71.5 300.5t-103.5 235.5q22 56 59.5 103.5t76.5 73.5z" />
<glyph unicode="&#x201c;" horiz-adv-x="744" d="M55 647q-84 148 -108.5 304t-7.5 388q20 27 77 21q19 -143 71.5 -298.5t103.5 -235.5q-22 -56 -59.5 -104.5t-76.5 -74.5zM427 647q-84 148 -108.5 304t-7.5 388q20 27 77 21q19 -143 71.5 -298.5t103.5 -235.5q-22 -56 -59.5 -104.5t-76.5 -74.5z" />
<glyph unicode="&#x201d;" horiz-adv-x="744" d="M389 1370q84 -148 108.5 -304t7.5 -388q-20 -27 -77 -21q-19 143 -71.5 298.5t-103.5 235.5q22 56 59.5 104.5t76.5 74.5zM17 1370q84 -148 108.5 -304t7.5 -388q-20 -27 -77 -21q-19 143 -71.5 298.5t-103.5 235.5q22 56 59.5 104.5t76.5 74.5z" />
<glyph unicode="&#x201e;" horiz-adv-x="744" d="M578 271q84 -148 108.5 -304t7.5 -388q-20 -27 -77 -21q-19 143 -71.5 298.5t-103.5 235.5q22 56 59.5 104.5t76.5 74.5zM206 271q84 -148 108.5 -304t7.5 -388q-20 -27 -77 -21q-19 143 -71.5 298.5t-103.5 235.5q22 56 59.5 104.5t76.5 74.5z" />
<glyph unicode="&#x2026;" horiz-adv-x="1563" d="M261 251q87 -49 155 -130q-36 -94 -102 -159q-101 53 -161 118q35 86 108 171zM783 251q87 -49 155 -130q-36 -94 -102 -159q-101 53 -161 118q35 86 108 171zM1306 251q87 -49 155 -130q-36 -94 -102 -159q-101 53 -161 118q35 86 108 171z" />
<glyph unicode="&#x202f;" horiz-adv-x="327" />
<glyph unicode="&#x205f;" horiz-adv-x="409" />
<glyph unicode="&#x20aa;" horiz-adv-x="1769" d="M1347 736q87 -196 99 -343q-24 -39 -104.5 -87t-174.5 -86q-131 -53 -249 -68q-92 -14 -107 55l-103 474q-90 -55 -136 -140q85 -418 119 -485q56 -108 181 -90q259 32 487 143q70 36 104 98q60 109 105 257q9 31 4 74q-20 147 -41 213q-26 80 -89 184q-68 113 -97 156 q-38 -36 -68.5 -91t-35.5 -107q10 -12 31.5 -38.5t28 -36t19.5 -31.5t27 -51zM287 838q53 -106 79.5 -283.5t19.5 -404.5q-15 -63 -53 -117.5t-80 -75.5q-5 72 -10.5 189t-12.5 194q-12 140 -36.5 243t-74.5 238q-7 19 -32.5 40t-26.5 26q56 130 133 204q72 -41 142 -58 q79 -19 248.5 -43t254.5 -55q210 -80 299 -304q22 -55 39 -110q-27 -106 -123 -164q-51 189 -111 271q-77 106 -203 143q-108 31 -206 46.5t-246 20.5z" />
<glyph unicode="&#x20ac;" horiz-adv-x="1020" d="M686 1215q-3 -55 -17.5 -104t-40.5 -65q-68 19 -122 22.5t-85.5 -3.5t-74.5 -22q-32 -10 -58 -45q-26 -31 -38.5 -111.5t-2.5 -171.5q3 -27 11 -63l391 125q7 -67 -16 -118l-348 -111q14 -44 29 -89l352 113q7 -67 -16 -118l-297 -94q24 -55 46 -89q5 -7 20.5 -32.5 t24 -38t24 -29.5t31.5 -23t33 -3q65 15 133.5 42.5t110 49.5t106.5 58q7 -34 2 -83.5t-19 -76.5q-3 -3 -12 -9q-181 -123 -305 -155q-44 -14 -80 -8t-57.5 20.5t-45.5 42.5q-75 89 -155 288l-72 -24q-7 65 14 118l22 7q-15 46 -26 90l-6 -2q-2 17 -2 33q-22 96 -21 165 q2 116 31 205q36 114 107 206.5t159 118.5q41 12 84 14.5t72.5 -1t58.5 -11.5t39.5 -11.5t15.5 -6.5z" />
<glyph unicode="&#x2212;" horiz-adv-x="1274" d="M182 654h854q-17 -84 -55 -144h-853q16 86 54 144z" />
<glyph unicode="&#x2502;" horiz-adv-x="972" d="M555 1638v-2150h-137v2150h137z" />
<glyph unicode="&#x25cc;" horiz-adv-x="1049" d="M231.5 398q19.5 0 36.5 -14t20.5 -34.5t-8.5 -34t-31.5 -13.5t-36 13.5t-20 34t8 34.5t31 14zM501.5 167q20.5 0 37 -13.5t19.5 -33t-8.5 -33.5t-31.5 -14t-36 14t-19.5 33.5t7.5 33t31.5 13.5zM827 167q20 0 36 -13.5t19.5 -33t-7.5 -33.5t-31.5 -14t-37 14t-20 33.5 t8.5 33t32 13.5zM1014.5 398q19.5 0 36.5 -14t20.5 -34.5t-8.5 -34t-31.5 -13.5t-35.5 13.5t-19.5 34t7.5 34.5t30.5 14zM958.5 722q19.5 0 35.5 -13.5t19.5 -34t-7.5 -34.5t-30.5 -14t-36.5 14t-20.5 34.5t8.5 34t31.5 13.5zM688.5 951q19.5 0 36 -14t20 -33.5t-8 -33 t-32 -13.5t-36.5 13.5t-19.5 33t8.5 33.5t31.5 14zM364.5 951q19.5 0 35.5 -14t19.5 -33.5t-7.5 -33t-31.5 -13.5t-36.5 13.5t-19.5 33t8.5 33.5t31.5 14zM175 722q20 0 36 -13.5t19.5 -34t-7.5 -34.5t-31 -14t-37 14t-20.5 34.5t8.5 34t32 13.5zM171.5 560q19.5 0 36 -14 t19.5 -34t-8 -34t-31.5 -14t-36.5 14t-19.5 34t8.5 34t31.5 14zM242.5 860q20.5 0 36.5 -14.5t19.5 -34t-8.5 -33t-31.5 -13.5t-35.5 13.5t-19.5 33t7.5 34t31.5 14.5zM347.5 259q19.5 0 36.5 -13.5t20.5 -33t-8.5 -34t-31.5 -14.5t-36 14.5t-20 34t8 33t31 13.5zM948 259 q20 0 36 -13.5t19.5 -33t-7.5 -34t-31 -14.5t-37 14.5t-20 34t8.5 33t31.5 13.5zM842.5 860q19.5 0 35.5 -14.5t19.5 -34t-7.5 -33t-30.5 -13.5t-36.5 13.5t-20.5 33t8.5 34t31.5 14.5zM519.5 983q19.5 0 36.5 -13.5t20.5 -33.5t-8.5 -33.5t-31.5 -13.5t-35.5 13.5 t-19.5 33.5t7.5 33.5t30.5 13.5zM669.5 135q19.5 0 36 -13.5t20 -33.5t-7.5 -33.5t-31 -13.5t-37 13.5t-20.5 33.5t8.5 33.5t31.5 13.5zM1018.5 560q20.5 0 37 -14t20 -34t-8.5 -34t-32 -14t-36 14t-19.5 34t7.5 34t31.5 14z" />
<glyph unicode="&#xe000;" horiz-adv-x="819" d="M0 819h819v-819h-819v819z" />
<glyph unicode="&#xe801;" horiz-adv-x="570" d="M-297 1179q24 55 73 87q61 -32 105 -87q-24 -56 -74 -88q-61 32 -104 88zM46 1068q295 -189 358 -513q41 -208 43 -478q-41 -85 -97 -120q-27 343 -106 560q-14 38 -29 70.5t-37.5 64t-37 51t-47 51t-47 44.5t-56 49.5t-57.5 50.5q41 107 113 170z" />
<glyph unicode="&#xe802;" horiz-adv-x="856" d="M191 225q22 55 73 89q60 -34 103 -89q-22 -56 -72 -89q-61 33 -104 89zM152 445q24 56 73 89q61 -32 104 -89q-24 -55 -73 -88q-61 33 -104 88zM17 1051q387 -53 705 -215q-5 -68 -36 -135q-75 -7 -118 -20q-104 -34 -71 -145l198 -662q-15 -186 -82 -253q-17 73 -35 144 t-43 154.5t-40 131.5t-49.5 156.5t-46.5 149.5q-27 97 -10 213t65 200q-254 85 -524 114q24 116 87 167z" />
<glyph unicode="&#xe803;" horiz-adv-x="856" d="M307 375h-136l31 -177q-29 -3 -59 -3.5t-61 3.5l-32 177h-185q9 65 41 121h442q-9 -65 -41 -121zM17 1051q387 -53 705 -215q-5 -68 -36 -135q-75 -7 -118 -20q-104 -34 -71 -145l198 -662q-15 -186 -82 -253q-17 73 -35 144t-43 154.5t-40 131.5t-49.5 156.5 t-46.5 149.5q-27 97 -10 213t65 200q-254 85 -524 114q24 116 87 167z" />
<glyph unicode="&#xe804;" horiz-adv-x="599" d="M63 1068q75 -36 126.5 -66.5t107.5 -75.5t89.5 -94.5t55.5 -118t22 -152.5q-31 -148 -135 -245q-2 15 -1.5 60.5t-1.5 71t-6 65.5t-15 76.5t-29 70.5q-14 31 -36 56.5t-42.5 43t-57 37t-59.5 29.5t-71 30.5t-71 30.5q29 65 54.5 105t69.5 76zM282 145q24 56 73 89 q61 -32 104 -89q-24 -55 -73 -88q-61 33 -104 88z" />
<glyph unicode="&#xfb1d;" horiz-adv-x="599" d="M251 -183q24 56 73 89q61 -32 104 -89q-24 -55 -73 -88q-61 33 -104 88zM63 1068q75 -36 126.5 -66.5t107.5 -75.5t89.5 -94.5t55.5 -118t22 -152.5q-31 -148 -135 -245q-2 15 -1.5 60.5t-1.5 71t-6 65.5t-15 76.5t-29 70.5q-14 31 -36 56.5t-42.5 43t-57 37t-59.5 29.5 t-71 30.5t-71 30.5q29 65 54.5 105t69.5 76z" />
<glyph unicode="&#xfb1e;" d="M-196 1295q75 -56 145.5 -65.5t117 12t81.5 60.5q27 -60 28 -128q-20 -20 -58 -36.5t-92.5 -24t-129.5 13t-154 68.5q19 61 62 100z" />
<glyph unicode="&#xfb1f;" horiz-adv-x="1198" d="M418 176h425q-9 -65 -41 -121h-423q7 65 39 121zM63 1068q75 -36 126.5 -66.5t107.5 -75.5t89.5 -94.5t55.5 -118t22 -152.5q-31 -148 -135 -245q-2 15 -1.5 60.5t-1.5 71t-6 65.5t-15 76.5t-29 70.5q-14 31 -36 56.5t-42.5 43t-57 37t-59.5 29.5t-71 30.5t-71 30.5 q29 65 54.5 105t69.5 76zM662 1068q75 -36 126.5 -66.5t107.5 -75.5t89.5 -94.5t55.5 -118t22 -152.5q-31 -148 -135 -245q-2 15 -1.5 60.5t-1.5 71t-6 65.5t-15 76.5t-29 70.5q-14 31 -36 56.5t-42.5 43t-57 37t-59.5 29.5t-71 30.5t-71 30.5q29 65 54.5 105t69.5 76z" />
<glyph unicode="&#xfb20;" horiz-adv-x="947" d="M27 1068q326 -275 495 -831q39 20 59.5 34t44.5 38t38 53q15 51 15 109t-10 101q-36 142 -143 300q38 109 109 196q166 -236 169 -457q3 -222 -82 -369q-87 -150 -333 -215q-65 -17 -102 -46q-128 -90 -256 -71q3 7 17.5 49.5t31.5 73t48 63.5q26 27 67 41.5t99.5 26.5 t94.5 27q-58 191 -171.5 357.5t-277.5 335.5q20 97 87 184z" />
<glyph unicode="&#xfb29;" horiz-adv-x="1249" d="M981 510q27 60 29 144h-385l-60 348q-72 17 -135 -4l58 -344h-331q-27 -58 -29 -144h853z" />
<glyph unicode="&#xfb2a;" horiz-adv-x="1196" d="M684 1154q24 55 74 88q61 -34 104 -88q-24 -55 -74 -89q-61 34 -104 89zM97 1068q85 -130 158.5 -294.5t114.5 -300.5q63 29 104 87t36 112q-5 46 -41.5 105t-79.5 104q46 121 157 187q101 -166 109 -327q5 -111 -46 -198q-73 -125 -205 -191q12 -41 18 -60t19 -51.5 t24 -47t30 -26.5t39 -12q53 2 171 90t184 177q27 116 3.5 220t-104.5 245q38 96 144 181q63 -80 102 -206t26 -256q-14 -133 -80.5 -257.5t-139.5 -194.5q-198 -189 -308 -188q-39 2 -74 20.5t-58 41.5t-48.5 68.5t-38.5 75t-37 86.5q-3 10 -5 15q-22 51 -53.5 136.5 t-58 149.5t-53.5 113q-58 109 -150 207q47 114 141 189z" />
<glyph unicode="&#xfb2b;" horiz-adv-x="1196" d="M145 1154q22 55 72 88q61 -34 104 -88q-22 -55 -72 -89q-61 34 -104 89zM97 1068q85 -130 158.5 -294.5t114.5 -300.5q63 29 104 87t36 112q-5 46 -41.5 105t-79.5 104q46 121 157 187q101 -166 109 -327q5 -111 -46 -198q-73 -125 -205 -191q12 -41 18 -60t19 -51.5 t24 -47t30 -26.5t39 -12q53 2 171 90t184 177q27 116 3.5 220t-104.5 245q38 96 144 181q63 -80 102 -206t26 -256q-14 -133 -80.5 -257.5t-139.5 -194.5q-198 -189 -308 -188q-39 2 -74 20.5t-58 41.5t-48.5 68.5t-38.5 75t-37 86.5q-3 10 -5 15q-22 51 -53.5 136.5 t-58 149.5t-53.5 113q-58 109 -150 207q47 114 141 189z" />
<glyph unicode="&#xfb2c;" horiz-adv-x="1196" d="M684 1154q24 55 74 88q61 -34 104 -88q-24 -55 -74 -89q-61 34 -104 89zM641 488q32 56 86 104q68 -43 123 -104q-34 -58 -86 -104q-62 41 -123 104zM97 1068q85 -130 158.5 -294.5t114.5 -300.5q63 29 104 87t36 112q-5 46 -41.5 105t-79.5 104q46 121 157 187 q101 -166 109 -327q5 -111 -46 -198q-73 -125 -205 -191q12 -41 18 -60t19 -51.5t24 -47t30 -26.5t39 -12q53 2 171 90t184 177q27 116 3.5 220t-104.5 245q38 96 144 181q63 -80 102 -206t26 -256q-14 -133 -80.5 -257.5t-139.5 -194.5q-198 -189 -308 -188q-39 2 -74 20.5 t-58 41.5t-48.5 68.5t-38.5 75t-37 86.5q-3 10 -5 15q-22 51 -53.5 136.5t-58 149.5t-53.5 113q-58 109 -150 207q47 114 141 189z" />
<glyph unicode="&#xfb2d;" horiz-adv-x="1196" d="M145 1154q22 55 72 88q61 -34 104 -88q-22 -55 -72 -89q-61 34 -104 89zM641 488q32 56 86 104q68 -43 123 -104q-34 -58 -86 -104q-62 41 -123 104zM97 1068q85 -130 158.5 -294.5t114.5 -300.5q63 29 104 87t36 112q-5 46 -41.5 105t-79.5 104q46 121 157 187 q101 -166 109 -327q5 -111 -46 -198q-73 -125 -205 -191q12 -41 18 -60t19 -51.5t24 -47t30 -26.5t39 -12q53 2 171 90t184 177q27 116 3.5 220t-104.5 245q38 96 144 181q63 -80 102 -206t26 -256q-14 -133 -80.5 -257.5t-139.5 -194.5q-198 -189 -308 -188q-39 2 -74 20.5 t-58 41.5t-48.5 68.5t-38.5 75t-37 86.5q-3 10 -5 15q-22 51 -53.5 136.5t-58 149.5t-53.5 113q-58 109 -150 207q47 114 141 189z" />
<glyph unicode="&#xfb2e;" horiz-adv-x="1186" d="M418 -118h425q-9 -65 -41 -121h-423q7 65 39 121zM79 1068q90 -121 139 -247q294 -68 506 -213q48 77 46 163t-48 149q55 92 128 148q61 -72 68 -165.5t-23.5 -179t-90.5 -175.5q172 -154 273 -430q-29 -75 -92 -161q-84 282 -268 458q-79 75 -196 128.5t-243 79.5 q55 -287 45 -536q-32 -82 -103 -130q-12 121 -16 167.5t-17 146t-22.5 147.5t-29 128t-41 132t-53 116t-70.5 122q40 84 108 152z" />
<glyph unicode="&#xfb2f;" horiz-adv-x="1186" d="M810 -239h-136l31 -177q-29 -3 -59 -3.5t-61 3.5l-32 177h-185q9 65 41 121h442q-9 -65 -41 -121zM79 1068q90 -121 139 -247q294 -68 506 -213q48 77 46 163t-48 149q55 92 128 148q61 -72 68 -165.5t-23.5 -179t-90.5 -175.5q172 -154 273 -430q-29 -75 -92 -161 q-84 282 -268 458q-79 75 -196 128.5t-243 79.5q55 -287 45 -536q-32 -82 -103 -130q-12 121 -16 167.5t-17 146t-22.5 147.5t-29 128t-41 132t-53 116t-70.5 122q40 84 108 152z" />
<glyph unicode="&#xfb30;" horiz-adv-x="1186" d="M445 287q32 56 86 104q68 -43 123 -104q-34 -58 -86 -104q-62 41 -123 104zM79 1068q90 -121 139 -247q294 -68 506 -213q48 77 46 163t-48 149q55 92 128 148q61 -72 68 -165.5t-23.5 -179t-90.5 -175.5q172 -154 273 -430q-29 -75 -92 -161q-84 282 -268 458 q-79 75 -196 128.5t-243 79.5q55 -287 45 -536q-32 -82 -103 -130q-12 121 -16 167.5t-17 146t-22.5 147.5t-29 128t-41 132t-53 116t-70.5 122q40 84 108 152z" />
<glyph unicode="&#xfb31;" horiz-adv-x="986" d="M228 512q32 56 86 104q68 -43 123 -104q-34 -58 -86 -104q-62 41 -123 104zM155 1053q17 -3 50 -12q130 -31 194.5 -47t149 -44t139.5 -57q51 -26 66.5 -62t11.5 -92q-2 -22 -9.5 -42.5t-20 -48.5t-21.5 -51q-20 -58 -11.5 -87.5t54.5 -60.5q15 -10 40 -21.5t42 -20 t22 -18.5q29 -55 -53 -153q-67 -80 -311.5 -182t-458.5 -114q17 104 120 207q357 63 479 153q-7 9 -26.5 28.5t-27.5 31.5q-44 61 -29 126q26 116 25 173q0 92 -68 114q-101 36 -187 55t-181.5 32.5t-128.5 20.5q51 114 140 172z" />
<glyph unicode="&#xfb32;" horiz-adv-x="645" d="M23 481q32 56 86 104q68 -43 123 -104q-34 -58 -86 -104q-62 41 -123 104zM143 1068q172 -147 293.5 -417t147.5 -532q-20 -101 -96 -162q-31 157 -77 297q-29 -65 -147.5 -170.5t-217.5 -126.5q0 96 31 174q24 20 104 78.5t114 94.5q51 63 50.5 120t-46.5 139 q-97 176 -279 343q55 107 123 162z" />
<glyph unicode="&#xfb33;" horiz-adv-x="849" d="M133 481q32 56 86 104q68 -43 123 -104q-34 -58 -86 -104q-62 41 -123 104zM-61 889q32 113 88 164q191 0 399.5 -51t288.5 -104q3 -24 -2.5 -70t-14.5 -79q-56 -9 -125 -39q-67 -32 -46 -114q12 -44 26.5 -88.5t36 -99.5t32.5 -83t40 -96.5t36 -83.5q-9 -104 -94 -188 q-94 191 -177 461q-17 55 -18 133.5t13 119.5q17 51 61 126q-38 10 -73.5 20.5t-65.5 18t-64 14.5t-57 11t-57.5 8.5t-50.5 7t-49.5 5t-44.5 3.5t-44 2.5t-38 1.5z" />
<glyph unicode="&#xfb34;" horiz-adv-x="1134" d="M447 447q32 56 86 104q68 -43 123 -104q-34 -58 -86 -104q-62 41 -123 104zM205 589q48 -157 92 -256t102 -200q0 -49 -18.5 -98t-42.5 -78q-60 51 -122 161.5t-79 200.5q-14 75 5.5 169t62.5 101zM106 1051q341 -26 575 -124q99 -43 165.5 -108.5t110.5 -169.5 q55 -126 74 -237.5t27 -281.5q-19 -101 -106 -173q-2 15 -6 67.5t-6.5 73.5t-8.5 67.5t-12 77t-16 72.5t-24 81q-58 177 -145 268.5t-200 127.5q-44 12 -87.5 23t-91.5 19.5t-81 13.5t-85 11t-73.5 8.5t-76 7t-65.5 6.5q57 115 132 170z" />
<glyph unicode="&#xfb35;" horiz-adv-x="570" d="M-28 457q32 56 86 104q68 -43 123 -104q-34 -58 -86 -104q-62 41 -123 104zM46 1068q295 -189 358 -513q41 -208 43 -478q-41 -85 -97 -120q-27 343 -106 560q-14 38 -29 70.5t-37.5 64t-37 51t-47 51t-47 44.5t-56 49.5t-57.5 50.5q41 107 113 170z" />
<glyph unicode="&#xfb36;" horiz-adv-x="797" d="M-35 512q32 56 86 104q68 -43 123 -104q-34 -58 -86 -104q-62 41 -123 104zM250 1068q263 -123 413 -274q-22 -102 -88 -178q-70 46 -152 108q-43 -49 -46 -116q-3 -48 68.5 -179.5t146.5 -239.5q10 -77 -3 -139t-47 -93q-116 157 -214 347.5t-95 268.5q2 29 15.5 61.5 t42.5 83t38 69.5q-22 15 -49.5 30.5t-48 25t-53 24t-44.5 19.5q46 124 116 182z" />
<glyph unicode="&#xfb38;" horiz-adv-x="1148" d="M512 512q32 56 86 104q68 -43 123 -104q-34 -58 -86 -104q-62 41 -123 104zM63 1068q56 -89 117.5 -208t82.5 -167q12 -29 51 -135.5t76.5 -192t77.5 -147.5q31 -46 78.5 -56t100.5 22q70 44 106.5 75t69.5 74q53 68 46 177q-10 172 -58 253q-44 77 -127 99t-163 -17 q-65 -31 -142 -97q-9 101 17 186q125 114 268 117q135 2 221 -89.5t108 -220.5q43 -268 -90 -511q-84 -152 -249 -230q-155 -73 -248 26q-36 36 -71.5 106.5t-93 201t-94.5 205.5q-84 174 -207 333q24 92 123 196z" />
<glyph unicode="&#xfb39;" horiz-adv-x="599" d="M-4 573q32 56 86 104q68 -43 123 -104q-34 -58 -86 -104q-62 41 -123 104zM63 1068q75 -36 126.5 -66.5t107.5 -75.5t89.5 -94.5t55.5 -118t22 -152.5q-31 -148 -135 -245q-2 15 -1.5 60.5t-1.5 71t-6 65.5t-15 76.5t-29 70.5q-14 31 -36 56.5t-42.5 43t-57 37 t-59.5 29.5t-71 30.5t-71 30.5q29 65 54.5 105t69.5 76z" />
<glyph unicode="&#xfb3a;" horiz-adv-x="856" d="M116 437q32 56 86 104q68 -43 123 -104q-34 -58 -86 -104q-62 41 -123 104zM17 1051q387 -53 705 -215q-5 -68 -36 -135q-75 -7 -118 -20q-104 -34 -71 -145l198 -662q-15 -186 -82 -253q-17 73 -35 144t-43 154.5t-40 131.5t-49.5 156.5t-46.5 149.5q-27 97 -10 213 t65 200q-254 85 -524 114q24 116 87 167z" />
<glyph unicode="&#xfb3b;" horiz-adv-x="928" d="M225 512q32 56 86 104q68 -43 123 -104q-34 -58 -86 -104q-62 41 -123 104zM128 1051q118 -19 182.5 -30.5t152.5 -41.5t141 -69q102 -75 142.5 -182t41.5 -260q2 -119 -100 -285q-44 -73 -222 -145t-417 -98q20 102 79 173q48 15 169 47.5t200.5 61.5t137.5 70 q15 72 13.5 159.5t-22.5 140.5q-41 108 -109 171t-205 85q-140 22 -326 38q50 105 142 165z" />
<glyph unicode="&#xfb3c;" horiz-adv-x="837" d="M153 591q32 56 86 104q68 -43 123 -104q-34 -58 -86 -104q-62 41 -123 104zM44 1370q3 -31 10 -107.5t16 -119.5q9 -41 22.5 -60.5t52.5 -36.5q41 -19 180 -46t209 -48q51 -15 85.5 -45.5t51.5 -75t23.5 -84.5t8.5 -92q2 -29 -13.5 -62t-30 -53.5t-50.5 -63.5t-46 -56 q-53 -67 -61.5 -109.5t3.5 -163.5q-48 -109 -157 -190q-12 26 -22 93.5t-5 101.5q15 87 48.5 154.5t96.5 152.5q26 34 34.5 46t25.5 44.5t19.5 55.5t-1 60.5t-17.5 78.5q-9 24 -32 33q-38 14 -102 30t-177.5 42.5t-152.5 36.5q-84 20 -104 87q-29 97 -56 264q47 89 141 133z " />
<glyph unicode="&#xfb3e;" horiz-adv-x="1141" d="M494 512q32 56 86 104q68 -43 123 -104q-34 -58 -86 -104q-62 41 -123 104zM79 1068q157 -116 235 -291q20 96 140 184q55 39 119.5 63t107.5 24q126 -3 195 -113q63 -102 88 -181q20 -67 40 -208q5 -43 -4 -73q-46 -145 -107 -253q-34 -63 -105 -94q-278 -131 -599 -186 q32 109 98 193q176 49 310 101q97 38 176 84t104 85q-14 176 -89 343q-27 60 -57.5 86t-75.5 30q-48 2 -120 -39t-111.5 -72.5t-71.5 -61.5q27 -116 -11 -230q-19 -60 -45 -98t-71 -67q-14 85 -13 169q0 19 10 60.5t3 68.5q-14 68 -94 164t-167 145q45 97 115 167z" />
<glyph unicode="&#xfb40;" horiz-adv-x="643" d="M58 512q32 56 86 104q68 -43 123 -104q-34 -58 -86 -104q-62 41 -123 104zM61 1060q150 -36 276.5 -158t148.5 -284q17 -126 12 -197t-41 -232q-12 -15 -27 -30.5t-29 -27.5t-35 -28t-35 -26t-39.5 -27.5t-37.5 -24t-40 -23.5t-35.5 -22.5t-36.5 -21.5t-33 -18 q-17 116 19 215l254 162q9 125 -10 214.5t-90 175.5q-56 67 -129 106t-179 74q29 106 87 173z" />
<glyph unicode="&#xfb41;" horiz-adv-x="1170" d="M539 509q32 56 86 104q68 -43 123 -104q-34 -58 -86 -104q-62 41 -123 104zM307 831q92 -329 205 -619q14 -36 50.5 -44.5t82.5 15.5q147 77 220 152q56 56 28 179q-19 70 -45.5 117t-68.5 76t-84.5 44t-109.5 29q-118 25 -278 51zM75 1051q142 -22 404 -85t362 -106 q89 -36 147 -118t60 -174q2 -104 -21 -185t-93 -163q-108 -126 -262 -206q-80 -43 -141.5 -45.5t-97 27.5t-54.5 88q-114 350 -219 766q-162 29 -211 41q36 95 126 160z" />
<glyph unicode="&#xfb43;" horiz-adv-x="936" d="M355 512q32 56 86 104q68 -43 123 -104q-34 -58 -86 -104q-62 41 -123 104zM207 1051q237 -31 401 -172q111 -96 153 -287q97 -420 84 -713q-12 -121 -104 -208q-22 273 -58 512q-17 114 -29 177t-38.5 143.5t-64.5 143.5q-56 94 -152.5 152t-214.5 75q-29 -60 -35 -107 t12 -82.5t53 -64t91 -53.5q3 -82 -59 -163q-114 31 -179 103.5t-64 176.5q2 87 64.5 195.5t139.5 171.5z" />
<glyph unicode="&#xfb44;" horiz-adv-x="972" d="M413 471q32 56 86 104q68 -43 123 -104q-34 -58 -86 -104q-62 41 -123 104zM258 1051q9 0 42 -7.5t43 -9t40 -8.5t43 -11.5t39.5 -12t43.5 -14.5t40 -16t44 -20.5t44 -24.5q138 -82 186 -282q34 -133 0 -261q-14 -53 -59 -134t-73 -103q-90 -72 -265 -139.5t-284 -67.5 q3 97 63 188q92 22 141.5 35.5t126.5 42t130.5 64t92.5 83.5q17 113 -13.5 217t-107.5 172q-56 49 -160 88.5t-200 39.5q-22 -60 -26.5 -100t14.5 -74t52 -59.5t97 -61.5q-19 -92 -89 -143q-96 9 -160.5 84t-68.5 170q-2 90 73.5 206t150.5 159z" />
<glyph unicode="&#xfb46;" horiz-adv-x="947" d="M204 382q32 56 86 104q68 -43 123 -104q-34 -58 -86 -104q-62 41 -123 104zM94 1068q14 -56 50.5 -111.5t80 -96.5t106.5 -83.5t108.5 -68t106.5 -58.5q27 43 24 109.5t-34 119.5q63 135 145 189q140 -222 -31 -466q43 -20 69.5 -33.5t57 -42.5t34.5 -58 q7 -55 -27.5 -138.5t-80.5 -126.5q-89 -89 -294.5 -170.5t-335.5 -92.5q7 104 98 195q116 27 216.5 64t162 71t96.5 64.5t35 47.5q0 34 -29 56.5t-109 53.5q-266 102 -384 182q-67 46 -122.5 105t-63.5 90q12 56 45 111.5t76 87.5z" />
<glyph unicode="&#xfb47;" horiz-adv-x="1138" d="M491 512q32 56 86 104q68 -43 123 -104q-34 -58 -86 -104q-62 41 -123 104zM48 1044q99 -17 278 -45t300.5 -48.5t168.5 -34.5q73 -19 140 -120t69 -216q-22 -58 -67.5 -133t-89 -139t-50.5 -79q-9 -14 -8 -50t-4 -82q-7 -14 -18 -25.5t-34 -29.5t-30 -25 q-41 -38 -72 -58q-36 48 -31.5 113.5t43.5 130.5q26 41 72 118t82 136.5t63 100.5q-10 55 -31.5 102.5t-38.5 61.5q-20 17 -195 50.5t-332 51.5q7 -19 44.5 -114.5t46 -118.5t40 -105t42.5 -115t36 -103t37.5 -116t29.5 -108.5t31 -120.5q0 -162 -116 -259v1q-5 39 -14.5 89 t-40 188t-67.5 268.5t-100 306.5t-136 328l-181 29q48 102 133 170z" />
<glyph unicode="&#xfb48;" horiz-adv-x="902" d="M245 512q32 56 86 104q68 -43 123 -104q-34 -58 -86 -104q-62 41 -123 104zM77 1051q9 -2 61.5 -13.5t67 -15t63 -14.5t69 -19t61.5 -20.5t64 -24.5t55 -28.5t55.5 -34t44.5 -38.5q58 -58 99.5 -203t59 -274t18.5 -231q-10 -60 -34.5 -96.5t-71.5 -69.5q-14 174 -54 350 q-19 80 -27.5 114.5t-28 93t-44.5 99.5t-61 77q-20 22 -50.5 42t-57 34.5t-72 28t-68.5 21t-76.5 18t-68 13t-73.5 12t-63 9.5q24 56 54 92.5t78 77.5z" />
<glyph unicode="&#xfb49;" horiz-adv-x="1196" d="M641 488q32 56 86 104q68 -43 123 -104q-34 -58 -86 -104q-62 41 -123 104zM97 1068q85 -130 158.5 -294.5t114.5 -300.5q63 29 104 87t36 112q-5 46 -41.5 105t-79.5 104q46 121 157 187q101 -166 109 -327q5 -111 -46 -198q-73 -125 -205 -191q12 -41 18 -60t19 -51.5 t24 -47t30 -26.5t39 -12q53 2 171 90t184 177q27 116 3.5 220t-104.5 245q38 96 144 181q63 -80 102 -206t26 -256q-14 -133 -80.5 -257.5t-139.5 -194.5q-198 -189 -308 -188q-39 2 -74 20.5t-58 41.5t-48.5 68.5t-38.5 75t-37 86.5q-3 10 -5 15q-22 51 -53.5 136.5 t-58 149.5t-53.5 113q-58 109 -150 207q47 114 141 189z" />
<glyph unicode="&#xfb4a;" horiz-adv-x="1158" d="M570 468q32 56 86 104q68 -43 123 -104q-34 -58 -86 -104q-62 41 -123 104zM167 1060q312 -26 577 -152q65 -31 128 -87t96 -138q84 -201 105 -528q-26 -123 -107 -198q-67 565 -176 693q-26 29 -58 54.5t-57 41t-66.5 32t-62 22.5t-69.5 19.5t-62 16.5 q41 -159 64.5 -305.5t18.5 -194.5q-3 -22 -26 -79t-52 -100q-24 -36 -141 -101t-185 -90q-14 48 -6 102.5t26 100.5q171 77 253 138q-55 282 -130 562q-94 17 -223 30q19 51 54.5 89t98.5 72z" />
<glyph unicode="&#xfb4b;" horiz-adv-x="570" d="M65 1179q24 55 73 87q61 -32 105 -87q-24 -56 -74 -88q-61 32 -104 88zM46 1068q295 -189 358 -513q41 -208 43 -478q-41 -85 -97 -120q-27 343 -106 560q-14 38 -29 70.5t-37.5 64t-37 51t-47 51t-47 44.5t-56 49.5t-57.5 50.5q41 107 113 170z" />
<glyph unicode="&#xfb4c;" horiz-adv-x="986" d="M145 1256h440q-9 -63 -39 -119h-442q9 64 41 119zM155 1053q17 -3 50 -12q130 -31 194.5 -47t149 -44t139.5 -57q51 -26 66.5 -62t11.5 -92q-2 -22 -9.5 -42.5t-20 -48.5t-21.5 -51q-20 -58 -11.5 -87.5t54.5 -60.5q15 -10 40 -21.5t42 -20t22 -18.5q29 -55 -53 -153 q-67 -80 -311.5 -182t-458.5 -114q17 104 120 207q357 63 479 153q-7 9 -26.5 28.5t-27.5 31.5q-44 61 -29 126q26 116 25 173q0 92 -68 114q-101 36 -187 55t-181.5 32.5t-128.5 20.5q51 114 140 172z" />
<glyph unicode="&#xfb4d;" horiz-adv-x="928" d="M90 1256h440q-9 -63 -39 -119h-442q9 64 41 119zM128 1051q118 -19 182.5 -30.5t152.5 -41.5t141 -69q102 -75 142.5 -182t41.5 -260q2 -119 -100 -285q-44 -73 -222 -145t-417 -98q20 102 79 173q48 15 169 47.5t200.5 61.5t137.5 70q15 72 13.5 159.5t-22.5 140.5 q-41 108 -109 171t-205 85q-140 22 -326 38q50 105 142 165z" />
<glyph unicode="&#xfb4e;" horiz-adv-x="972" d="M172 1256h440q-9 -63 -39 -119h-442q9 64 41 119zM258 1051q9 0 42 -7.5t43 -9t40 -8.5t43 -11.5t39.5 -12t43.5 -14.5t40 -16t44 -20.5t44 -24.5q138 -82 186 -282q34 -133 0 -261q-14 -53 -59 -134t-73 -103q-90 -72 -265 -139.5t-284 -67.5q3 97 63 188 q92 22 141.5 35.5t126.5 42t130.5 64t92.5 83.5q17 113 -13.5 217t-107.5 172q-56 49 -160 88.5t-200 39.5q-22 -60 -26.5 -100t14.5 -74t52 -59.5t97 -61.5q-19 -92 -89 -143q-96 9 -160.5 84t-68.5 170q-2 90 73.5 206t150.5 159z" />
<glyph unicode="&#xfb4f;" horiz-adv-x="1196" d="M58 1401q-46 -22 -87 -59.5t-61 -78.5q31 -167 77.5 -304.5t126.5 -296.5q416 -53 613 -239q184 -176 270 -466q61 85 92 162q-102 282 -275 441q58 90 89 177t23 183.5t-68 170.5q-73 -58 -128 -152q46 -65 48 -153t-44 -166q-213 148 -527 223q-56 128 -86.5 246.5 t-62.5 311.5z" />
</font>
</defs>
</svg>
