<?xml version="1.0" standalone="no"?>
<!DOCTYPE svg PUBLIC "-//W3C//DTD SVG 1.1//EN" "http://www.w3.org/Graphics/SVG/1.1/DTD/svg11.dtd" >
<svg xmlns="http://www.w3.org/2000/svg">
<metadata></metadata>
<defs>
<font id="frank_ruehl_clmbold" horiz-adv-x="0" >
<font-face units-per-em="2048" ascent="1638" descent="-410" />
<missing-glyph horiz-adv-x="616" />
<glyph horiz-adv-x="1365" d="M307 1058v-1092h751v1092h-751zM171 1195h1024v-1366h-1024v1366z" />
<glyph horiz-adv-x="1365" d="M307 1058v-1092h751v1092h-751zM171 1195h1024v-1366h-1024v1366z" />
<glyph unicode="&#xd;" horiz-adv-x="682" />
<glyph unicode=" "  horiz-adv-x="616" />
<glyph unicode="&#x09;" horiz-adv-x="616" />
<glyph unicode="&#xa0;" horiz-adv-x="616" />
<glyph unicode="!" horiz-adv-x="556" d="M142 220l112 169q15 22 24 22t24 -22l114 -169q22 -32 0 -65l-114 -169q-14 -22 -23 -22t-25 22l-112 169q-14 20 -14 33t14 32zM335 553l90 413q14 60 14 113q0 179 -159 179q-160 0 -161 -176q0 -60 12 -116l91 -413q5 -22 22 -41q24 -27 36 -27t34 27q18 21 21 41z " />
<glyph unicode="&#x22;" horiz-adv-x="817" d="M85 645l29 420q2 14 9 36q15 48 59.5 74t107.5 26q67 0 94 -25.5t12 -74.5q-9 -24 -14 -36l-240 -420h-57zM473 645l30 420q2 14 9 36q15 48 60.5 74t109.5 26t92 -26t13 -72q-3 -10 -17 -38l-241 -420h-56z" />
<glyph unicode="#" horiz-adv-x="979" d="M230 375h-160v142h181l27 184h-164v142h183l51 352h154l-51 -352h146l50 352h153l-49 -352h159v-142h-180l-25 -184h160v-142h-181l-54 -375h-154l55 375h-147l-55 -375h-153zM432 701l-28 -184h146l27 184h-145z" />
<glyph unicode="$" horiz-adv-x="979" d="M544 739l45 -14q184 -56 266 -142t82 -223q0 -160 -102.5 -259t-290.5 -121v-214h-99v210q-67 5 -93 12q-148 29 -228.5 100t-80.5 173q0 70 41 115.5t105 45.5q60 0 99.5 -36t39.5 -89q0 -79 -60 -126q-12 -12 -12 -19q0 -27 57 -52t132 -30v406l-58 19 q-162 49 -236 127t-74 197q0 109 55.5 197t154.5 136q56 29 158 41v174h99v-172q172 -12 273 -78t101 -166q0 -67 -41.5 -110.5t-106.5 -43.5q-55 0 -92.5 35t-37.5 86q0 44 29 92q10 14 10 26q0 53 -135 67v-364zM445 770v331q-164 -29 -163 -164q0 -118 141 -160zM544 445 v-370q43 3 74 17q48 19 77 63.5t29 98.5q0 137 -163 186z" />
<glyph unicode="%" horiz-adv-x="1421" d="M1171 1232l-707 -1232h-147l564 988q-49 -15 -127 -17.5t-123 7.5q0 -75 -33 -159.5t-88 -149.5q-109 -131 -254 -131q-99 0 -163 61t-64 157q0 89 52 192t129 170q106 90 220 90q97 0 161 -82q67 -32 157 -32q96 0 162 32.5t123 105.5h138zM440 1072q-38 -12 -59 -34.5 t-57 -86.5q-82 -143 -82 -209q0 -32 20 -52.5t50 -20.5q77 0 146 95.5t69 203.5q0 24 -8 53q-48 17 -79 51zM1193 695q90 0 149 -60t59 -152q0 -77 -35 -166.5t-95 -164.5q-104 -128 -245 -128q-101 0 -166 60.5t-65 154.5q0 157 118 305q125 151 280 151zM1219 556 q-55 0 -113 -95q-99 -160 -99 -234q0 -31 20.5 -52t49.5 -21q79 0 149.5 95.5t70.5 202.5q0 43 -23 73.5t-55 30.5z" />
<glyph unicode="&#x26;" horiz-adv-x="1454" d="M1360 696v-92q-90 -3 -133.5 -33t-93.5 -127q-58 -104 -107 -173q85 -113 174 -112q87 0 118 143l85 -19q-9 -85 -51 -157q-48 -80 -110.5 -116t-152.5 -36q-157 0 -270 113q-160 -114 -360 -114q-198 0 -300 107q-92 97 -92 225q0 196 203 318q55 32 141 72 q-67 138 -66 245q0 135 100 227q101 90 268 91q140 0 225.5 -67.5t85.5 -176.5q0 -114 -97 -193q-72 -56 -202 -109q65 -111 137 -219.5t102 -140.5q82 99 82 169q0 43 -35.5 62t-116.5 21v92h466zM452 609q-96 -60 -95 -169q0 -70 39 -148q87 -177 242 -178q60 0 113 38 q-188 228 -299 457zM678 792q24 10 27 12q131 67 131 201q0 70 -37.5 117t-95.5 47q-51 0 -85 -36.5t-34 -91.5q0 -87 94 -249z" />
<glyph unicode="'" horiz-adv-x="430" d="M85 645l29 420q2 14 9 36q15 48 59.5 74t107.5 26q67 0 94 -25.5t12 -74.5q-9 -24 -14 -36l-240 -420h-57z" />
<glyph unicode="(" horiz-adv-x="663" d="M577 -116v-85q-171 89 -282 230q-172 220 -172 500q0 299 198 531q101 118 256 198v-86q-70 -49 -107.5 -96t-66.5 -124q-67 -167 -67 -425q0 -278 80 -457q53 -113 161 -186z" />
<glyph unicode=")" horiz-adv-x="663" d="M85 1172v86q171 -89 282 -231q172 -220 172 -500q0 -299 -198 -530q-101 -118 -256 -198v85q70 49 107.5 96t66.5 124q67 166 67 425q0 278 -80 457q-53 113 -161 186z" />
<glyph unicode="*" horiz-adv-x="853" d="M408 845l-27 -17q-36 -22 -55 -41t-55 -72q-39 -60 -95 -60q-32 0 -56 23t-24 56q0 58 56 83q27 10 94 14q61 5 112 34l28 17l-28 16q-39 22 -63.5 28t-89.5 9q-49 3 -79 30t-30 66q0 32 23.5 55t57.5 23q38 0 69 -27q14 -14 48 -65q38 -51 87 -80l27 -17v32q0 41 -7 65 t-37 87q-17 32 -18 63q0 38 24 64.5t58.5 26.5t59 -27.5t24.5 -64.5q0 -27 -34 -99q-27 -53 -27 -115v-32l27 17q39 24 56 42t53 71q39 60 96 59q34 0 57 -23t23 -55q0 -55 -56 -84q-19 -9 -94 -15q-56 -2 -113 -34l-27 -16l27 -15q39 -22 64 -28t88 -10q49 -3 80 -30.5 t31 -66.5q0 -32 -22 -53.5t-55 -21.5q-34 0 -56 17t-65 75q-34 48 -87 79l-27 17v-33q0 -41 6.5 -65.5t35.5 -86.5q17 -32 17 -61q0 -39 -23.5 -65.5t-58 -26.5t-58.5 26.5t-24 63.5q0 27 35 101q27 53 27 114v33z" />
<glyph unicode="+" horiz-adv-x="1034" d="M420 333h-333v196h333v333h196v-333h331v-196h-331v-333h-196v333z" />
<glyph unicode="," horiz-adv-x="561" d="M152 157q-15 19 -15 31t15 30l135 166q17 20 27 20t27 -20l130 -166q14 -17 14.5 -29.5t-9.5 -31.5l-237 -399q-22 -38 -51 -26t-19 53l58 235q9 34 -9 55z" />
<glyph unicode="-" horiz-adv-x="720" d="M650 602l-48 -194q-5 -15 -10 -20.5t-22 -5.5h-485q-24 0 -28 8t3 26l49 195q3 15 8.5 20.5t22.5 5.5h485q26 0 29 -8t-4 -27z" />
<glyph unicode="." horiz-adv-x="566" d="M152 218l135 166q17 20 27 20t27 -20l135 -166q26 -31 0 -61l-135 -166q-17 -20 -27 -20t-27 20l-135 166q-15 19 -15 30.5t15 30.5z" />
<glyph unicode="/" horiz-adv-x="474" d="M389 1258h126l-428 -1284h-126z" />
<glyph unicode="0" horiz-adv-x="979" d="M490 1208q172 0 295 -148q147 -184 147 -476q0 -259 -127 -433.5t-315 -174.5q-191 0 -317.5 175t-126.5 441t126.5 441t317.5 175zM488 1120q-90 0 -119 -105q-29 -109 -29 -423q0 -343 35 -442q32 -85 113 -85q89 0 118 104q29 109 29 420q0 355 -36 445 q-29 86 -111 86z" />
<glyph unicode="1" horiz-adv-x="979" d="M633 1208v-962q0 -82 2 -100t10 -28q19 -26 138 -26h55v-92h-681v92h55q121 0 141 26q9 10 10.5 28t1.5 100v606q0 106 -18.5 123.5t-133.5 19.5h-71v96q283 5 431 117h60z" />
<glyph unicode="2" horiz-adv-x="979" d="M814 454h92l-39 -461q-68 7 -104 7h-642q-29 0 -89 -7v80q65 92 132.5 172.5t210.5 230.5q137 145 186.5 237.5t49.5 197.5q0 96 -49.5 148t-138.5 52q-65 0 -121 -36t-56 -77q0 -20 27 -32q60 -29 85.5 -64t25.5 -90q0 -67 -39.5 -106t-105.5 -39q-77 0 -123 54t-46 143 q0 145 118.5 244.5t292.5 99.5q181 0 300.5 -92t119.5 -229q0 -126 -92 -247q-38 -48 -99 -94t-241 -162q-96 -65 -170 -128h329q82 2 99 3.5t29 10.5q20 12 39 99z" />
<glyph unicode="3" horiz-adv-x="979" d="M599 628q116 -15 179 -51q58 -34 92.5 -100.5t34.5 -147.5q0 -82 -35 -154.5t-95 -113.5q-123 -85 -321 -85q-184 0 -298.5 80.5t-114.5 209.5q0 72 42.5 117t111.5 45q63 0 105.5 -41t42.5 -100q0 -36 -12 -59t-51 -61q-17 -15 -17 -30q0 -27 46 -49.5t101 -22.5 q94 0 146 71t52 199q0 242 -159 242l-85 -9q-10 -2 -28 -1q-27 0 -44 17.5t-17 46.5q0 56 61 57q22 0 70 -10q46 -9 60 -9q60 0 95.5 65t35.5 174q0 101 -45 156.5t-125 55.5q-48 0 -89 -20.5t-41 -44.5q0 -9 12 -21q68 -63 68 -128q0 -60 -38.5 -97.5t-99.5 -37.5 q-67 0 -111 44.5t-44 111.5q0 104 90 186q109 96 297 95q181 0 292 -82.5t111 -219.5q0 -201 -231 -266q-24 -7 -44 -12z" />
<glyph unicode="4" horiz-adv-x="979" d="M761 423h171v-114h-171v-63q0 -82 2 -100t10 -30q20 -24 123 -24h19v-92h-582v92h19q111 0 129 24q9 12 10.5 30t1.5 100v63h-461v126l622 773h117q-10 -189 -10 -259v-526zM493 423v427l-336 -427h336z" />
<glyph unicode="5" horiz-adv-x="979" d="M268 940l-26 -220q143 65 246 65q184 0 304.5 -109t120.5 -277q0 -188 -130.5 -305.5t-340.5 -117.5q-177 0 -283 77t-106 205q0 79 44.5 126.5t119.5 47.5q65 0 105 -38.5t40 -101.5q0 -43 -21.5 -71t-70.5 -52q-20 -12 -21 -24q0 -27 46 -49.5t104 -22.5 q102 0 156 81.5t54 236.5q0 278 -193 278q-111 0 -189 -65q3 -20 3 -27q0 -27 -20.5 -47.5t-49.5 -20.5q-27 0 -45 17.5t-18 45.5q0 32 45 77q34 447 39 559q138 -29 333 -29q210 0 309 24q15 5 27 5q14 0 14 -18q0 -67 -58 -144q-102 -131 -323 -131q-94 -1 -215 25z" />
<glyph unicode="6" horiz-adv-x="979" d="M345 616q53 61 110 87t139 26q152 0 247.5 -97.5t95.5 -250.5q0 -176 -123 -290.5t-311 -114.5q-212 0 -337 155q-116 143 -117 391q0 300 147 492q147 195 388 194q147 0 234 -64.5t87 -174.5q0 -70 -43 -111.5t-116 -41.5q-67 0 -108.5 36.5t-41.5 94.5q0 56 34 101 q14 17 13 32q0 39 -73 40q-87 0 -143.5 -96.5t-73.5 -277.5q-8 -81 -8 -130zM505 601q-48 2 -85.5 -30t-50.5 -86q-14 -63 -14 -154q0 -131 37.5 -203t107.5 -72q140 0 140 306q0 234 -135 239z" />
<glyph unicode="7" horiz-adv-x="979" d="M932 1208v-71q-189 -403 -238 -568.5t-49 -402.5q0 -92 -44.5 -141t-124.5 -49q-72 0 -114.5 46t-42.5 121q0 101 91 277q15 31 216 343l116 172q-215 -5 -225 -5q-26 0 -194 5q-12 2 -31 2q-44 0 -62 -30t-42 -142l-17 -77l-94 10l58 510q215 -24 408 -24q239 0 389 24z " />
<glyph unicode="8" horiz-adv-x="979" d="M688 701q244 -97 244 -334q0 -176 -127 -283.5t-334 -107.5q-195 0 -310 82t-115 220q0 154 131 222q27 15 105 39q-198 106 -198 306q0 166 118.5 264.5t316.5 98.5q166 0 268 -73t102 -191q0 -123 -104 -195q-29 -21 -97 -48zM601 744l3 4q72 63 72 177 q0 90 -50.5 142.5t-135.5 52.5q-79 0 -132 -47t-53 -117q0 -56 36 -104t94 -70q49 -19 157 -45q3 2 5 5zM374 493q-60 -49 -83 -94.5t-23 -115.5q0 -102 59 -160t163 -58q101 0 165.5 56t64.5 144q0 65 -34 103t-114 67q-43 14 -198 58z" />
<glyph unicode="9" horiz-adv-x="979" d="M630 561q-101 -113 -249 -112q-145 0 -241.5 99t-96.5 251q0 177 120 293t306 116q220 0 355 -179q106 -143 106 -370q0 -285 -130 -476q-137 -207 -406 -207q-145 0 -231 60t-86 159q0 73 46 121.5t116 48.5q63 0 103 -38.5t40 -99.5q0 -43 -34 -97q-10 -15 -10 -31 q0 -34 58 -34q203 0 230 363q4 41 4 133zM483 1120q-145 0 -145 -282q0 -125 29 -188q15 -32 46.5 -52.5t67.5 -20.5q65 0 103.5 66.5t38.5 179.5q0 137 -38 220q-32 77 -102 77z" />
<glyph unicode=":" horiz-adv-x="566" d="M152 795l135 164q17 20 27 20.5t27 -20.5l135 -164q26 -32 0 -65l-135 -163q-17 -20 -27 -20.5t-27 20.5l-135 163q-15 20 -15 32.5t15 32.5zM152 218l135 166q17 20 27 20t27 -20l135 -166q26 -31 0 -61l-135 -166q-17 -20 -27 -20t-27 20l-135 166q-15 19 -15 30.5 t15 30.5z" />
<glyph unicode=";" horiz-adv-x="566" d="M152 157q-15 19 -15 31t15 30l135 166q17 20 27 20t27 -20l130 -166q14 -17 14.5 -29.5t-9.5 -31.5l-237 -399q-22 -38 -51 -26t-19 53l58 235q9 34 -9 55zM152 795l135 164q17 20 27 20.5t27 -20.5l135 -164q26 -32 0 -65l-135 -163q-17 -20 -27 -20.5t-27 20.5 l-135 163q-15 20 -15 32.5t15 32.5z" />
<glyph unicode="&#x3c;" horiz-adv-x="1034" d="M952 689l-559 -257l559 -261v-214l-868 396v154l868 396v-214z" />
<glyph unicode="=" horiz-adv-x="1034" d="M87 157v196h860v-196h-860zM87 509v196h860v-196h-860z" />
<glyph unicode="&#x3e;" horiz-adv-x="1034" d="M82 689v214l869 -396v-154l-869 -396v214l560 261z" />
<glyph unicode="?" horiz-adv-x="896" d="M268 220l114 169q15 22 24 22t24 -22l114 -169q22 -32 0 -65l-114 -169q-15 -22 -23.5 -22t-24.5 22l-114 169q-12 20 -12 33t12 32zM427 741q51 58 74 111t23 121q0 89 -43.5 141t-99.5 38q-17 -5 -25 -13.5t-8 -25.5t2.5 -34t6 -49t3.5 -61q0 -60 -41 -98t-106 -38 q-70 0 -116 45t-46 114q0 118 107.5 192t276.5 74q179 0 284 -82t105 -222q0 -119 -92 -206q-39 -36 -101.5 -75.5t-115 -78.5t-85.5 -89q-14 -17 -20.5 -18t-16.5 16l-40 65q-12 20 -7 40q13 56 81 133z" />
<glyph unicode="@" horiz-adv-x="1274" d="M1099 324h118q-32 -80 -109 -157q-191 -193 -448 -193q-259 0 -439 188t-180 456q0 266 181.5 453t441.5 187q237 0 402.5 -154.5t165.5 -376.5q0 -186 -125.5 -330t-287.5 -144q-60 0 -95.5 26t-35.5 69q0 3 3 27q-68 -128 -193 -128q-96 0 -160.5 73.5t-64.5 181.5 q0 174 116 331q108 145 268 145q56 0 91 -19.5t68 -67.5l20 58h178l-157 -492q-12 -44 -12 -63q0 -38 41 -37q49 0 109 51q128 108 128 307q0 191 -129.5 315t-331.5 124q-220 0 -366 -151t-146 -378q0 -232 147.5 -389t366.5 -157q137 0 249.5 63t185.5 182zM693 889 q-79 0 -147 -124q-97 -172 -97 -328q0 -101 78 -101q84 0 144 142q34 82 68 192t34 142q0 31 -24 54t-56 23z" />
<glyph unicode="A" horiz-adv-x="1295" d="M599 1258h130l438 -1058q27 -65 57 -84.5t104 -23.5v-92h-599v92l29 2q56 0 77.5 8.5t21.5 32.5t-21 70l-65 167h-425l-27 -65q-27 -61 -27 -97q0 -58 39 -85.5t132 -32.5v-92h-494v92q75 9 130 66t113 195zM563 894l-172 -408h338z" />
<glyph unicode="B" horiz-adv-x="1327" d="M29 1232h659q154 0 230.5 -13.5t146.5 -54.5q63 -34 99 -97t36 -137q0 -159 -157 -234q-61 -29 -179 -47q119 -15 198 -53q195 -87 194 -273q0 -85 -49.5 -159.5t-131.5 -112.5q-119 -51 -355 -51h-691v92h26q119 0 140 26q9 10 10.5 28t1.5 100v740q0 84 -2 101t-10 29 q-22 24 -140 24h-26v92zM514 679h83q147 0 210 51q84 65 84 193q0 106 -59 161.5t-172 55.5h-51q-51 0 -75 -22q-20 -17 -20 -77v-362zM514 585v-384q0 -61 5 -75q15 -34 99 -34h51q119 0 181 51q80 67 80 198q0 140 -94 203q-63 41 -205 41h-117z" />
<glyph unicode="C" horiz-adv-x="1327" d="M1191 1251l17 -488l-90 -10q-58 213 -153.5 314.5t-237.5 101.5q-157 0 -238 -136.5t-81 -401.5q0 -282 83.5 -416.5t257.5 -134.5q147 0 246 97.5t133 274.5l106 -25q-49 -229 -181.5 -341t-359.5 -112q-292 0 -463 188q-162 179 -162 439q0 287 182 472t463 185 q90 0 159.5 -19.5t153.5 -71.5l92 84h73z" />
<glyph unicode="D" horiz-adv-x="1421" d="M210 246v740q0 82 -1.5 100t-10.5 28q-20 26 -140 26h-26v92h608q181 0 287 -20.5t182 -71.5q244 -159 244 -510q0 -176 -60.5 -311t-174.5 -215q-150 -104 -458 -104h-628v92h26q119 0 140 26q9 10 10.5 28t1.5 100zM620 92h35q87 0 158 31t109 85q43 58 67.5 173.5 t24.5 251.5q0 507 -352 507h-42q-61 0 -82 -20.5t-21 -81.5v-835q0 -68 20 -89.5t83 -21.5z" />
<glyph unicode="E" horiz-adv-x="1295" d="M1172 1232l11 -444h-89q-41 143 -99 226q-92 126 -288 126h-48q-102 0 -130 -37q-17 -26 -17 -110v-309h29q101 0 161.5 62.5t74.5 180.5h92v-579h-92q-14 118 -74.5 180.5t-161.5 62.5h-29v-379q0 -70 27 -96q15 -15 39 -19.5t88 -4.5h51q155 0 250.5 88t148.5 279h91 l-21 -459h-1159v92h26q119 0 140 26q9 10 10.5 28t1.5 100v740q0 82 -2 100t-10 28q-20 26 -140 26h-26v92h1145z" />
<glyph unicode="F" horiz-adv-x="1232" d="M1167 1232l11 -444h-89q-41 145 -99 226q-92 126 -289 126h-32q-102 0 -130 -37q-17 -26 -17 -110v-309h29q207 0 236 243h92v-579h-92q-14 118 -74.5 180.5t-161.5 62.5h-29v-345q0 -82 2 -100t10 -28q20 -26 142 -26h44v-92h-682v92h25q119 0 140 26q9 10 10.5 28 t1.5 100v740q0 82 -1.5 100t-10.5 28q-20 26 -140 26h-25v92h1129z" />
<glyph unicode="G" horiz-adv-x="1421" d="M1227 1251l15 -490h-90q-43 195 -148.5 301.5t-257.5 106.5q-75 0 -139 -34t-102 -94q-97 -157 -97 -433q0 -247 70 -398q32 -70 92.5 -108.5t139.5 -38.5q114 0 183.5 72.5t69.5 192.5v24q0 94 -22.5 111.5t-133.5 17.5h-19v92h606v-92q-121 -2 -140 -24 q-9 -10 -10.5 -28.5t-1.5 -100.5v-352h-90l-84 167q-63 -65 -119 -99q-125 -70 -287 -70q-265 0 -430 173.5t-165 449.5q0 275 169 454q191 207 489 207q92 0 164 -20.5t162 -71.5l101 85h75z" />
<glyph unicode="H" horiz-adv-x="1484" d="M964 579h-445v-333q0 -84 1.5 -101t10.5 -27q20 -26 141 -26h26v-92h-664v92h26q119 0 140 26q9 10 10.5 28t1.5 100v739q0 84 -2 101.5t-10 27.5q-20 26 -140 26h-26v92h664v-92h-26q-121 0 -141 -26q-9 -10 -10.5 -28t-1.5 -101v-304h445v304q0 84 -1.5 101.5 t-10.5 27.5q-20 26 -140 26h-25v92h664v-92h-26q-121 0 -142 -26q-9 -10 -10.5 -28t-1.5 -101v-739q0 -84 2 -101t10 -27q20 -26 142 -26h26v-92h-664v92h25q119 0 140 26q9 10 10.5 28t1.5 100v333z" />
<glyph unicode="I" horiz-adv-x="757" d="M225 246v740q0 82 -1.5 100t-10.5 28q-20 26 -140 26h-25v92h664v-92h-26q-121 0 -142 -26q-9 -10 -10.5 -27t-1.5 -101v-740q0 -84 2 -101t10 -27q20 -26 142 -26h26v-92h-664v92h25q119 0 140 26q9 10 10.5 28t1.5 100z" />
<glyph unicode="J" horiz-adv-x="1105" d="M911 986v-508q0 -152 -35 -243.5t-115 -155.5q-130 -104 -341 -105q-191 0 -302 90t-111 247q0 109 59.5 180.5t151.5 71.5q77 0 126.5 -49.5t49.5 -124.5q0 -70 -44.5 -115t-112.5 -45q-19 0 -41 5q-17 3 -20 3q-32 0 -33 -32q0 -49 61 -87.5t141 -38.5q67 0 124 27 t89 73q46 70 46 239v568q0 84 -1.5 101t-10.5 27q-20 26 -140 26h-25v92h664v-92h-26q-121 0 -142 -26q-9 -10 -10.5 -27t-1.5 -101z" />
<glyph unicode="K" horiz-adv-x="1390" d="M654 577l-144 -150v-181q0 -82 2 -100t10 -28q20 -26 142 -26h25v-92h-663v92h25q119 0 140 26q9 10 10.5 28t1.5 100v740q0 82 -1.5 100t-10.5 28q-20 26 -140 26h-25v92h663v-92h-25q-121 0 -142 -26q-9 -10 -10.5 -28t-1.5 -100v-399l377 399q56 63 57 94 q0 60 -128 60h-41v92h575v-92q-85 -5 -160.5 -48.5t-185.5 -152.5l-142 -149l355 -566q58 -92 82.5 -110t96.5 -22v-92h-621v92h22q116 0 116 39q0 19 -20 55z" />
<glyph unicode="L" horiz-adv-x="1232" d="M1106 459h90l-20 -459h-1144v92h26q119 0 140 26q9 10 10.5 28t1.5 101v739q0 82 -1.5 100t-10.5 28q-20 26 -140 26h-26v92h676v-92h-37q-121 0 -142 -26q-9 -10 -10.5 -28t-1.5 -100v-774q0 -70 27 -96q15 -15 39.5 -19.5t87.5 -4.5h36q181 0 288 128q65 79 111 239z " />
<glyph unicode="M" horiz-adv-x="1674" d="M577 1232l264 -734l250 734h556v-92h-19q-121 0 -141 -26q-9 -10 -10.5 -28t-1.5 -100v-740q0 -82 1.5 -100t10.5 -28q20 -26 141 -26h19v-92h-652v92h19q121 0 141 26q9 10 10.5 28t1.5 100v851l-377 -1097h-89l-387 1080v-710q0 -114 8.5 -158.5t35.5 -73.5 q41 -43 144 -46v-92h-487v92q99 2 140 46q27 29 36 74.5t9 157.5v616q0 82 -2 100t-10 28q-20 26 -142 26h-19v92h550z" />
<glyph unicode="N" horiz-adv-x="1421" d="M461 1232l659 -771v401q0 113 -8.5 158t-36.5 74q-41 44 -140 46v92h487v-92q-102 -3 -144 -46q-27 -29 -35.5 -73.5t-8.5 -158.5v-874h-114l-794 944v-562q0 -113 8.5 -157t35.5 -73q39 -41 144 -46v-92h-487v92q101 5 140 46q27 29 36 73.5t9 156.5v673q-65 92 -181 95 v94h430z" />
<glyph unicode="O" horiz-adv-x="1421" d="M712 1258q247 0 414 -145q106 -90 167.5 -227.5t61.5 -286.5q0 -307 -229 -491q-169 -133 -423 -134q-278 0 -457 176t-179 447q0 150 60.5 287t167.5 229q166 145 417 145zM713 1169q-147 0 -218 -121q-87 -147 -87 -418.5t87 -434.5q70 -131 218 -132q147 0 224 137.5 t77 396.5q0 282 -87 441q-76 131 -214 131z" />
<glyph unicode="P" horiz-adv-x="1295" d="M526 529v-283q0 -84 1.5 -101t10.5 -29q22 -24 141 -24h38v-92h-676v92h26q118 0 140 24q9 12 10 29t1 101v739q0 84 -1.5 101t-9.5 28q-22 24 -140 24h-26v94h678q234 0 363 -60q82 -38 127 -112.5t45 -170.5q0 -360 -537 -360h-191zM526 623h99q166 0 233 60.5 t67 207.5q0 128 -58 187.5t-179 59.5h-68q-58 0 -76 -19.5t-18 -82.5v-413z" />
<glyph unicode="Q" horiz-adv-x="1421" d="M806 -43v26q-51 -9 -108 -9q-287 0 -469 209q-164 184 -164 437q0 271 185 454.5t460 183.5q266 0 452 -186t186 -452q0 -166 -76.5 -310t-213.5 -235q48 -143 77 -190t68 -47t58 30t26 101h92v-13q0 -123 -82 -200t-212 -77q-133 0 -206 72.5t-73 205.5zM964 299 q43 113 43 332q0 224 -67 378q-70 160 -233 160q-300 0 -301 -522q0 -215 36 -324q29 73 61 104q72 68 185 68q138 0 225 -101q25 -32 51 -95zM809 90q5 56 5 81q0 109 -39 168t-115 59q-67 0 -108.5 -49t-41.5 -124q0 -73 53 -117.5t138 -44.5q53 0 108 27z" />
<glyph unicode="R" horiz-adv-x="1390" d="M519 592v-345q0 -84 1.5 -100.5t10.5 -28.5q22 -24 141 -24h45v-92h-683v92h26q118 0 140 24q9 12 10.5 29t1.5 100v739q0 84 -2 101t-10 29q-22 24 -140 24h-26v92h729q239 0 336 -61q138 -90 138 -248q0 -174 -164 -257q-55 -26 -177 -50q111 -38 165.5 -101t73.5 -179 l12 -65l7 -47q10 -67 20 -81q17 -26 50 -25q75 0 78 162h92v-21q0 -137 -76 -211t-214 -74q-229 0 -273 203q-9 49 -24 214q-5 72 -12.5 98t-28.5 52q-46 51 -152 51h-95zM519 686h94q171 0 234.5 49.5t63.5 179.5q0 116 -55.5 170.5t-174.5 54.5h-41q-82 0 -101.5 -18 t-19.5 -91v-345z" />
<glyph unicode="S" horiz-adv-x="1138" d="M1004 1244l22 -442h-91q-152 367 -420 367q-101 0 -165.5 -50.5t-64.5 -128.5q0 -106 116 -147q43 -15 174 -41l82 -19q222 -49 322.5 -144.5t100.5 -257.5q0 -179 -125.5 -293t-324.5 -114q-198 0 -350 115l-106 -101h-77l-10 483h87q70 -193 190.5 -300.5t265.5 -107.5 q111 0 178.5 54.5t67.5 145.5q0 96 -76 136q-48 26 -184 52l-106 20q-201 38 -311 143.5t-110 262.5q0 171 122 276t320 105q171 0 307 -92l89 78h77z" />
<glyph unicode="T" horiz-adv-x="1232" d="M1181 1232l26 -462h-91q-34 186 -101 273q-79 101 -184 100q-38 0 -49.5 -12.5t-11.5 -57.5v-827q0 -82 1.5 -100t10.5 -28q20 -26 141 -26h38v-92h-690v92h38q121 0 142 26q9 10 10.5 28t1.5 100v827q0 44 -12 57t-50 13q-118 0 -198 -121q-58 -84 -87 -252h-90l25 462 h1130z" />
<glyph unicode="U" horiz-adv-x="1421" d="M510 986v-546q0 -184 57 -254q73 -84 218 -84q215 0 290 163q29 63 29 254v343q0 114 -8.5 158.5t-35.5 73.5q-41 44 -140 46v92h486v-92q-102 -3 -143 -46q-27 -29 -35.5 -74t-8.5 -158v-343q0 -150 -13 -223.5t-49 -131.5q-63 -99 -166.5 -144.5t-266.5 -45.5 q-369 0 -477 197q-44 82 -44 274v541q0 82 -1.5 100t-10.5 28q-20 26 -140 26h-25v92h663v-92h-25q-121 0 -142 -26q-9 -10 -10.5 -28t-1.5 -100z" />
<glyph unicode="V" horiz-adv-x="1295" d="M732 352l243 607q15 38 15 65q0 68 -60 97q-32 19 -106 19v92h504v-92q-155 -15 -236 -217l-391 -949h-150l-414 1048q-29 73 -61 95.5t-107 22.5v92h618v-92h-36q-106 0 -106 -43q0 -15 16 -56z" />
<glyph unicode="W" horiz-adv-x="1674" d="M1213 440l149 487q22 73 22 104q0 67 -58 94q-29 14 -95 15v92h430v-92q-77 -15 -112 -58.5t-73 -170.5l-297 -937h-124l-214 695l-225 -695h-128l-348 1067q-20 61 -44 80t-82 19h-4v92h529v-92q-60 -3 -80 -11.5t-20 -31.5q0 -19 13 -58l198 -611l137 429l-62 193 q-19 55 -39 71t-70 19v92h505v-92q-61 -3 -80.5 -12.5t-19.5 -33.5q0 -15 10 -46z" />
<glyph unicode="X" horiz-adv-x="1232" d="M736 705l302 -440q79 -114 113.5 -141.5t102.5 -31.5v-92h-614v92q63 2 88 10.5t25 30.5q0 31 -23 58l-186 266l-150 -191q-34 -43 -34 -85q0 -44 43.5 -64.5t140.5 -24.5v-92h-564v92q75 3 123.5 33t121.5 121l251 309l-350 498q-36 51 -63 67.5t-83 19.5v92h611v-92 q-75 -3 -96 -10t-21 -31q0 -20 18 -44l179 -258l119 147q58 68 58 109q0 87 -164 87v92h526v-92q-67 -5 -117 -34t-108 -97z" />
<glyph unicode="Y" horiz-adv-x="1232" d="M717 676l170 304q24 48 24 78q0 38 -34 60t-90 22h-36v92h503v-92q-138 -10 -228 -159l-256 -438v-297q0 -82 1.5 -100t10.5 -28q20 -26 141 -26h38v-92h-690v92h38q121 0 142 26q9 10 10.5 28t1.5 100v275l-349 558q-24 38 -50 49.5t-84 11.5v92h614v-92h-27 q-96 0 -96 -37q0 -20 21 -53z" />
<glyph unicode="Z" horiz-adv-x="1138" d="M1082 1232v-95l-684 -1043h152q155 0 221 34q82 41 140 130.5t81 212.5h90l-27 -471h-1014v99l684 1039h-126q-137 0 -208.5 -29.5t-127.5 -108.5q-53 -72 -92 -198h-87l20 430h978z" />
<glyph unicode="[" horiz-adv-x="663" d="M579 1232v-85h-226v-1246h226v-85h-436v1416h436z" />
<glyph unicode="\" horiz-adv-x="1034" d="M212 1258l735 -1258h-126l-736 1258h127z" />
<glyph unicode="]" horiz-adv-x="663" d="M53 -184v85h225v1246h-225v85h435v-1416h-435z" />
<glyph unicode="^" horiz-adv-x="1034" d="M945 543h-203l-223 426l-227 -426h-203l356 689h146z" />
<glyph unicode="_" horiz-adv-x="853" d="M0 -99h853v-154h-853v154z" />
<glyph unicode="`" horiz-adv-x="568" d="M425 930h-109l-251 149q-61 36 -62 88q0 36 28.5 61t69.5 25q43 0 82 -31q10 -7 49 -56z" />
<glyph unicode="a" horiz-adv-x="1042" d="M881 543v-301q0 -75 9 -99t37 -24q15 0 32 12q19 12 34 12q26 0 26 -27q0 -55 -57 -98.5t-131 -43.5q-135 0 -181 122q-68 -67 -141.5 -94.5t-184.5 -27.5q-125 0 -194 53t-69 147q0 147 183 222q92 38 312 85q20 2 57 12v89q0 89 -31.5 125.5t-108.5 36.5q-51 0 -89 -16 t-38 -39q0 -10 16 -29q24 -32 24 -64q0 -48 -40.5 -79.5t-100 -31.5t-98.5 36.5t-39 91.5q0 101 106.5 160.5t282.5 59.5q207 0 303 -79q44 -36 62.5 -81.5t18.5 -129.5zM613 401l-91 -20q-92 -22 -134 -62.5t-42 -108.5q0 -55 30 -87.5t80 -32.5q72 0 114.5 58.5 t42.5 156.5v96z" />
<glyph unicode="b" horiz-adv-x="1105" d="M410 1258v-553q101 128 264 128q162 0 266 -116t104 -299q0 -198 -121 -321t-315 -123q-181 0 -296 139l-111 -137h-83q24 131 24 376v634q0 114 -15.5 136.5t-94.5 22.5h-32v87zM589 705q-181 0 -181 -343q0 -145 44.5 -222t127.5 -77q169 0 169 335q0 307 -160 307z " />
<glyph unicode="c" horiz-adv-x="948" d="M811 302l88 -29q-36 -114 -102 -183q-106 -116 -285 -116q-207 0 -333 114.5t-126 302.5q0 193 137.5 317.5t350.5 124.5q155 0 247.5 -63t92.5 -169q0 -65 -42 -105t-112 -40q-61 0 -100.5 35t-39.5 89q0 39 36 84q19 22 19 32q0 20 -26.5 34t-64.5 14 q-96 0 -149.5 -85.5t-53.5 -236.5q0 -159 57.5 -245.5t161.5 -86.5q114 0 179 87q36 48 65 125z" />
<glyph unicode="d" horiz-adv-x="1138" d="M969 1258v-1050q0 -67 21 -85q14 -12 80 -12h46v-92l-399 -19v123q-101 -148 -280 -149q-167 0 -270.5 115.5t-103.5 301.5t112.5 314t276.5 128q155 0 249 -114v267q0 114 -15 136.5t-94 22.5h-54v87zM531 717q-82 0 -127.5 -85.5t-45.5 -237.5q0 -145 44.5 -224.5 t124.5 -79.5q79 0 128.5 87.5t49.5 226.5q0 142 -47.5 227.5t-126.5 85.5z" />
<glyph unicode="e" horiz-adv-x="979" d="M922 389h-572q2 -131 43 -196q67 -102 189 -103q84 0 144.5 45.5t111.5 144.5l84 -34q-111 -271 -407 -272q-200 0 -322 105q-63 55 -100.5 140.5t-37.5 176.5q0 177 122 305q128 131 337 132q186 0 297 -112.5t111 -304.5v-27zM352 483h256q26 0 36 12t10 43 q0 207 -135 206q-77 0 -122 -70t-45 -191z" />
<glyph unicode="f" horiz-adv-x="663" d="M654 807v-102h-214v-459v-80q0 -51 23 -66t105 -15h31v-85h-563v85h7q84 0 106.5 14.5t22.5 66.5v80v459h-148v102h148v22q0 189 102.5 305.5t269.5 116.5q106 0 177 -53t71 -133q0 -60 -39.5 -100t-97.5 -40q-55 0 -91.5 34t-36.5 84q0 56 43 90q9 9 9 16q0 14 -28 13 q-26 0 -52 -19.5t-38 -48.5q-20 -44 -21 -189v-98h214z" />
<glyph unicode="g" horiz-adv-x="1042" d="M449 166h118q177 0 254 -26q63 -19 102.5 -74.5t39.5 -126.5q0 -137 -128 -210.5t-367 -73.5q-416 0 -417 168q0 60 48 99t133 52q-155 43 -155 159q0 131 198 167q-188 65 -188 241q0 126 113.5 209t289.5 83q130 0 229 -50q108 135 218 135q56 0 91 -30.5t35 -80.5 q0 -46 -30.5 -77.5t-75.5 -31.5q-34 0 -63 24t-29 53v7q0 9 -8 8q-29 0 -63 -48q56 -46 79 -89.5t23 -102.5q0 -79 -41 -141.5t-116 -96.5q-87 -41 -241 -41h-30q-73 0 -101.5 -12t-28.5 -44q0 -31 21.5 -40t89.5 -9zM495 744q-131 0 -131 -188q0 -87 27 -141 q27 -61 102 -62q60 0 93.5 51.5t33.5 141.5q0 198 -125 198zM560 -73h-224q-63 -27 -63 -84q0 -48 54 -73.5t153 -25.5q261 0 261 104q0 39 -26 56q-22 14 -49 18.5t-106 4.5z" />
<glyph unicode="h" horiz-adv-x="1169" d="M437 1258v-582q102 157 290 157q138 0 210 -82q65 -70 65 -220v-285v-79q0 -53 23 -66.5t105 -13.5h7v-87h-521v87q75 0 96.5 14.5t21.5 64.5v80v261q0 167 -121 167q-48 0 -89 -27t-61 -74q-26 -56 -26 -162v-165v-79q0 -53 20.5 -66.5t95.5 -13.5v-87h-521v87h7 q84 0 107 13.5t23 65.5v80v734q-2 121 -16.5 143t-92.5 22h-33v87z" />
<glyph unicode="i" horiz-adv-x="631" d="M449 807v-561v-80q0 -49 22 -64t101 -15h10v-87h-534v87h7q80 0 103 14.5t23 65.5v79v302q0 114 -15.5 137t-93.5 23h-24v87zM311 1258q61 0 105.5 -44.5t44.5 -105.5q0 -63 -44.5 -107.5t-109.5 -44.5q-60 0 -104 45t-44 106.5t44.5 106t107.5 44.5z" />
<glyph unicode="j" horiz-adv-x="600" d="M314 1258q61 0 105.5 -44.5t44.5 -105.5q0 -63 -44.5 -107.5t-108.5 -44.5q-60 0 -104.5 45t-44.5 106.5t44.5 106t107.5 44.5zM457 807v-621q0 -244 -59 -358q-39 -79 -120.5 -126t-178.5 -47q-104 0 -171.5 48t-67.5 123q0 55 37.5 91.5t95.5 36.5q48 0 79.5 -32.5 t31.5 -81.5q0 -53 -49 -86q14 -19 44 -19q90 0 90 169v657q0 102 -17 124.5t-92 22.5h-54v87z" />
<glyph unicode="k" horiz-adv-x="1138" d="M430 1258v-838l212 184q43 38 42 68q0 48 -102 48h-21v87h502v-87h-39q-90 0 -184 -80l-132 -109l268 -335q56 -73 81 -91t69 -18v-87h-522v87h17q67 0 67 34q0 26 -22 53l-157 190l-79 -70v-48v-79q0 -51 21.5 -65.5t94.5 -14.5v-87h-520v87h6q84 0 107 13.5t23 65.5v80 v740q0 114 -15.5 136.5t-93.5 22.5h-33v87z" />
<glyph unicode="l" horiz-adv-x="600" d="M437 1258v-1012v-80q0 -53 26 -67q20 -12 90 -12h12v-87h-533v87h7q84 0 107 13.5t23 65.5v80v740q0 114 -15.5 136.5t-93.5 22.5h-33v87z" />
<glyph unicode="m" horiz-adv-x="1643" d="M423 807v-135q102 160 273 161q85 0 149.5 -41t91.5 -113q60 82 123 118t145 36q114 0 191 -71t77 -177v-339v-80q0 -49 23 -64t105 -15h7v-87h-502v87q65 2 82 15.5t17 63.5v80v276q0 152 -94 152q-72 0 -113.5 -54.5t-41.5 -145.5v-228v-80q0 -49 17 -63t82 -16v-87 h-464v87q63 2 80 15.5t17 64.5v79v269q0 84 -22.5 121.5t-71.5 37.5q-70 0 -112.5 -54.5t-42.5 -145.5v-228v-80q0 -49 17 -63t82 -16v-87h-504v87h9q82 0 105 13.5t23 66.5v79v302q0 114 -15.5 137t-94.5 23h-27v87z" />
<glyph unicode="n" horiz-adv-x="1169" d="M425 807v-150q63 96 133 136t171 40q140 0 211 -82q65 -70 65 -220v-285v-79q0 -53 23 -66.5t105 -13.5h7v-87h-520v87q75 0 96 14.5t21 64.5v80v261q0 167 -124 167q-46 0 -87 -27t-62 -74q-27 -55 -27 -162v-165v-80q0 -49 21.5 -64t96.5 -15v-87h-521v87h7 q82 0 105 13.5t23 66.5v79v297q0 119 -15.5 142t-93.5 23h-26v87z" />
<glyph unicode="o" horiz-adv-x="1042" d="M526 833q195 0 328.5 -125.5t133.5 -308t-134 -304t-335.5 -121.5t-333.5 121.5t-132 307.5q0 184 135 307t338 123zM522 744q-174 0 -174 -341q0 -340 173 -340q82 0 127 88t45 250q0 148 -34 242q-17 44 -55 72.5t-82 28.5z" />
<glyph unicode="p" horiz-adv-x="1138" d="M433 807v-109q58 73 119 104t148 31q164 0 271.5 -116t107.5 -292q0 -191 -115.5 -321t-287.5 -130q-142 0 -243 111v-184v-80q0 -51 23.5 -65.5t106.5 -14.5h19v-86h-551v86h7q82 0 105 14.5t23 65.5v80v642q-2 121 -16.5 143t-93.5 22h-25v87zM625 705 q-94 0 -143.5 -81t-49.5 -233q0 -145 47 -223t132 -78q80 0 126 81.5t46 224.5q1 309 -158 309z" />
<glyph unicode="q" horiz-adv-x="1105" d="M899 831h84q-26 -203 -26 -367v-563v-80q0 -51 23.5 -65.5t104.5 -14.5h7v-86h-551v86h19q84 0 106.5 14.5t22.5 65.5v80v198q-108 -125 -262 -125q-75 0 -147.5 32t-117.5 84q-48 53 -76 137t-28 169q0 188 123.5 312.5t311.5 124.5q186 0 297 -138zM526 744 q-172 0 -173 -341q0 -312 166 -313q82 0 129 91.5t47 250.5q0 131 -29 203q-20 49 -58.5 79t-81.5 30z" />
<glyph unicode="r" horiz-adv-x="885" d="M411 807v-206q90 232 284 232q82 0 134.5 -48.5t52.5 -124.5q0 -63 -41.5 -104.5t-104.5 -41.5q-55 0 -91.5 35.5t-36.5 90.5q0 39 29 80q-80 -24 -130 -111q-72 -126 -72 -329v-34v-79q0 -53 23 -66.5t105 -13.5h38v-87h-570v87h7q82 0 105 13.5t23 66.5v79v297 q0 119 -15.5 142t-94.5 23h-25v87z" />
<glyph unicode="s" horiz-adv-x="853" d="M749 816l7 -270h-80q-63 104 -127 151t-146 47q-63 0 -103.5 -28t-40.5 -71q0 -32 21.5 -49t84.5 -35l154 -37q92 -22 130.5 -39t72.5 -46q73 -65 73 -174q0 -128 -95.5 -209.5t-247.5 -81.5q-140 0 -240 60l-67 -31h-72l-8 296h77q119 -236 310 -236q68 0 107.5 27.5 t39.5 73.5q0 73 -119 99l-125 27q-143 31 -212 97q-72 68 -71 169q0 121 93 199t236 78q118 0 212 -55l63 38h73z" />
<glyph unicode="t" horiz-adv-x="727" d="M650 807v-102h-222v-439q0 -87 13 -117t51 -30q53 0 81 52.5t26 145.5h90q2 -17 2 -39q0 -123 -68 -210q-70 -94 -220 -94t-207 94q-22 36 -29 80.5t-7 148.5v408h-121v89q241 27 282 351h107v-338h222z" />
<glyph unicode="u" horiz-adv-x="1169" d="M997 807v-583v-40q0 -46 17 -59.5t77 -13.5h47v-92l-397 -19v140q-73 -90 -142.5 -128t-159.5 -38q-181 0 -253 147q-17 36 -22 72.5t-5 132.5v217q-2 121 -16.5 143t-93.5 22h-27v87l405 12v-491q0 -97 28 -140t93 -43q48 0 89.5 26.5t62.5 70.5q29 56 29 176v137 q0 119 -15.5 142t-93.5 23h-28v87z" />
<glyph unicode="v" horiz-adv-x="1042" d="M609 239l125 314q31 75 31 102q0 36 -31 51.5t-101 15.5v85h388v-85h-7q-51 0 -84.5 -32.5t-71.5 -117.5l-262 -596h-145l-314 655q-27 56 -48 72t-69 19v85h482v-85q-89 0 -89 -39q0 -17 14 -45z" />
<glyph unicode="w" horiz-adv-x="1517" d="M1096 263l119 290q24 58 24 89q0 36 -32.5 57t-85.5 21h-12v87h386v-87q-58 -3 -90.5 -33t-69.5 -112l-268 -599h-128l-183 449l-195 -449h-129l-278 649q-24 55 -48 74.5t-74 20.5v87h471v-87q-51 -2 -67 -9.5t-16 -31.5q0 -9 12 -39l148 -377l123 290l-43 102 q-17 39 -36.5 52t-67.5 13v87h477v-87h-12q-92 0 -93 -39q0 -15 11 -38z" />
<glyph unicode="x" horiz-adv-x="1042" d="M631 464l236 -280q55 -63 80.5 -79t73.5 -18v-87h-536v87h12q68 0 68 39q0 17 -19 38l-101 121l-102 -101q-24 -24 -24 -49q0 -48 80 -48h23v-87h-400v87q68 2 152 79l207 196l-244 292q-32 39 -54 51t-61 15v87h505v-87h-18q-56 0 -57 -27q0 -15 19 -36l97 -118l87 84 q36 34 36 58q0 39 -68 39h-39v87h420v-87q-99 0 -195 -89z" />
<glyph unicode="y" horiz-adv-x="1042" d="M613 270l141 312q15 38 16 70q0 68 -115 68h-18v87h384v-87q-53 -2 -85.5 -31.5t-70.5 -108.5l-298 -643q-68 -150 -149.5 -219.5t-188.5 -69.5q-96 0 -154 43.5t-58 113.5q0 63 42.5 106t106.5 43q56 0 92 -32.5t36 -83.5q0 -36 -14 -58q-2 -2 -2 -5q0 -10 16 -11 q77 0 145 135l39 74l-350 679q-20 43 -39 55t-65 13v87h485v-87h-31q-60 0 -60 -36q0 -19 14 -46z" />
<glyph unicode="z" horiz-adv-x="916" d="M845 807v-82l-461 -640h106q87 0 120 12t68 53q51 63 83 174h84l-17 -324h-768v75l464 647h-87q-89 0 -124 -9.5t-64 -38.5q-32 -34 -75 -174h-87l21 307h737z" />
<glyph unicode="{" horiz-adv-x="663" d="M143 486v75q55 14 79 30.5t37.5 48.5t13.5 148v188q0 160 62 210q51 46 162 46h88v-78q-56 -5 -79 -31.5t-23 -88.5v-95v-202q0 -99 -36.5 -143t-137.5 -70q101 -26 137.5 -70t36.5 -143v-202q0 -111 1.5 -132t13.5 -40q22 -36 87 -43v-78h-88q-111 0 -162 46 q-61 49 -62 210v187q0 85 -3.5 112t-16.5 51q-15 26 -38 38t-72 26z" />
<glyph unicode="|" horiz-adv-x="1034" d="M618 1232v-1232h-203v1232h203z" />
<glyph unicode="}" horiz-adv-x="663" d="M495 561v-75q-53 -14 -77 -30t-36 -48q-14 -36 -13 -149v-187q0 -160 -62 -210q-51 -46 -162 -46h-92v78q67 7 89 43q12 19 14.5 40t2.5 132v202q0 99 36.5 143t137.5 70q-101 26 -137.5 70t-36.5 143v202v95q0 60 -24 87.5t-82 32.5v78h92q111 0 162 -46q61 -49 62 -210 v-188q0 -84 3 -111t17 -51q14 -26 36 -39.5t70 -25.5z" />
<glyph unicode="~" horiz-adv-x="1034" d="M230 288l-143 91q102 193 246 193q49 0 153 -40l91 -32q82 -32 112 -32q29 0 54 18.5t61 69.5l143 -90q-106 -193 -246 -193q-55 0 -153 39l-91 33q-82 32 -112 32q-29 0 -54 -19t-61 -70z" />
<glyph unicode="&#xa3;" horiz-adv-x="979" d="M739 1044q0 67 -157 67q-77 0 -129 -68t-50 -176q2 -67 27 -232h353v-111h-341q9 -130 -20 -229.5t-115 -173.5q131 26 306 24q172 -2 261 196l83 -25q-32 -169 -111.5 -255.5t-200.5 -86.5q-20 0 -129.5 12t-199 14.5t-232.5 -14.5l-14 127q155 114 116 411h-128v111 h108q-20 123 -21 229q0 152 109.5 244.5t286.5 92.5q183 0 284.5 -67t101.5 -199q0 -73 -46 -121t-116 -48q-58 0 -96.5 37.5t-38.5 94.5q0 70 68 106q41 21 41 40z" />
<glyph unicode="&#xad;" horiz-adv-x="720" d="M650 602l-48 -194q-5 -15 -10 -20.5t-22 -5.5h-485q-24 0 -28 8t3 26l49 195q3 15 8.5 20.5t22.5 5.5h485q26 0 29 -8t-4 -27z" />
<glyph unicode="&#x591;" d="M-60 -232v130h120v-130q68 -19 112.5 -77t44.5 -131h-121q0 41 -28.5 69t-67.5 28t-67.5 -28t-28.5 -69h-121q0 73 44.5 131t112.5 77z" />
<glyph unicode="&#x592;" d="M-5 1318q-31 0 -53 22t-22 52.5t22 53t53 22.5t53 -22.5t22 -53t-22 -52.5t-53 -22zM-95.5 1126q-30.5 0 -53 22.5t-22.5 53t22.5 53t53 22.5t53 -22.5t22.5 -53t-22.5 -53t-53 -22.5zM95.5 1126q-30.5 0 -53 22.5t-22.5 53t22.5 53t53 22.5t53 -22.5t22.5 -53t-22.5 -53 t-53 -22.5z" />
<glyph unicode="&#x593;" d="M12 1562l145 -81l-121 -68l121 -70l-121 -68l121 -68l-145 -81l-91 52l43 29l-121 68l121 68l-121 70l121 68l-43 29z" />
<glyph unicode="&#x594;" d="M0 1277q31 0 53 -22.5t22 -53t-22 -53t-53 -22.5t-53 22.5t-22 53t22 53t53 22.5zM0 1468q31 0 53 -22.5t22 -53t-22 -52.5t-53 -22t-53 22t-22 52.5t22 53t53 22.5z" />
<glyph unicode="&#x595;" d="M-179 1475h119v-349h-119v349zM104 1277q31 0 53 -22.5t22 -53t-22 -53t-53 -22.5t-53 22.5t-22 53t22 53t53 22.5zM104 1468q31 0 53 -22.5t22 -53t-22 -52.5t-53 -22t-53 22t-22 52.5t22 53t53 22.5z" />
<glyph unicode="&#x596;" d="M48 -464q-169 131 -169 345q0 9 2 17h119q7 -172 121 -301z" />
<glyph unicode="&#x597;" d="M-160 1287l160 160l160 -160l-160 -161z" />
<glyph unicode="&#x598;" d="M-148 1126h-111q-27 41 -28 91q0 70 50.5 120.5t120.5 50.5q58 0 103 -34.5t61 -87.5q7 -22 25.5 -35.5t42.5 -13.5q29 0 49.5 20.5t20.5 49.5q0 38 -34 87h111q24 -39 24 -87q0 -70 -50.5 -120.5t-120.5 -50.5q-58 0 -102.5 34t-61.5 87q-7 22 -25.5 36t-42.5 14 q-29 0 -49.5 -20.5t-20.5 -49.5q0 -10 2.5 -20.5t7.5 -21.5t7.5 -17t10.5 -17.5t10 -14.5z" />
<glyph unicode="&#x599;" d="M-48 1488q169 -131 169 -345q0 -9 -2 -17h-119q-7 172 -121 301z" />
<glyph unicode="&#x59a;" d="M102 -102l115 -60l-205 -109l205 -108l-115 -61l-319 169z" />
<glyph unicode="&#x59b;" d="M-98.5 -102q31.5 0 53 -22.5t21.5 -53t-21.5 -53t-53 -22.5t-53.5 22.5t-22 53t22 53t53.5 22.5zM5 -464l-72 61q113 128 120 301h121v-17q0 -214 -169 -345z" />
<glyph unicode="&#x59c;" d="M48 1488l73 -61q-114 -128 -121 -301h-119q-2 9 -2 17q0 214 169 345z" />
<glyph unicode="&#x59d;" d="M48 1488l73 -61q-114 -128 -121 -301h-119q-2 9 -2 17q0 214 169 345z" />
<glyph unicode="&#x59e;" d="M164 1488l73 -61q-114 -128 -121 -301h-119q-2 9 -2 17q0 214 169 345zM-68 1488l73 -61q-114 -128 -121 -301h-120q-2 9 -1 17q0 214 169 345z" />
<glyph unicode="&#x59f;" d="M229.5 1367q-19.5 0 -34 -13.5t-14.5 -34t14.5 -34.5t34 -14t34 14t14.5 34.5t-14.5 34t-34 13.5zM171 1200l-74 -74l-61 60l75 75q-14 27 -14 58q0 55 38.5 94t94 39t94 -39t38.5 -93.5t-38.5 -94t-94.5 -39.5q-31 0 -58 14zM-229.5 1367q-19.5 0 -34 -13.5t-14.5 -34 t14.5 -34.5t34 -14t34 14t14.5 34.5t-14.5 34t-34 13.5zM-171 1200q-27 -14 -58 -14q-56 0 -94.5 39.5t-38.5 94t38.5 93.5t94 39t94 -39t38.5 -94q0 -31 -14 -58l75 -75l-61 -60z" />
<glyph unicode="&#x5a0;" d="M29.5 1367q-19.5 0 -34 -13.5t-14.5 -34t14.5 -34.5t34 -14t34.5 14t15 34.5t-15 34t-34.5 13.5zM-29 1200l-73 -74l-60 60l73 75q-14 27 -13 58q0 55 39 94t93.5 39t93 -39t38.5 -93.5t-38.5 -94t-92.5 -39.5q-33 0 -60 14z" />
<glyph unicode="&#x5a1;" d="M-39 1210v-84h-120v285h120v-100q9 -2 17 -2q32 0 56 33.5t24 68.5h101q0 -77 -54 -139t-127 -62h-17z" />
<glyph unicode="&#x5a2;" d="M-60 -311q-68 20 -112.5 77.5t-44.5 131.5h121q0 -39 28.5 -67.5t67.5 -28.5t67.5 28t28.5 68h121q0 -73 -44.5 -130.5t-112.5 -78.5v-129h-120v129z" />
<glyph unicode="&#x5a3;" d="M-200 -444v120h280v222h120v-342h-400z" />
<glyph unicode="&#x5a4;" d="M102 -102l115 -60l-205 -109l205 -108l-115 -61l-319 169z" />
<glyph unicode="&#x5a5;" d="M-48 -464l-73 61q114 128 121 301h119q2 -9 2 -17q0 -214 -169 -345z" />
<glyph unicode="&#x5a6;" d="M-164 -464l-73 61q114 128 121 301h119q2 -9 2 -17q0 -214 -169 -345zM68 -464l-73 61q114 128 121 301h120q2 -9 1 -17q0 -214 -169 -345z" />
<glyph unicode="&#x5a7;" d="M133 -102l60 -122h-157l121 -119l-48 -97h-242l-60 121h157l-121 121l48 96h242z" />
<glyph unicode="&#x5a8;" d="M-48 1488q169 -131 169 -345q0 -9 -2 -17h-119q-7 172 -121 301z" />
<glyph unicode="&#x5a9;" d="M-29.5 1367q-19.5 0 -34.5 -13.5t-15 -34t15 -34.5t34.5 -14t34 14t14.5 34.5t-14.5 34t-34 13.5zM29 1200q-27 -14 -60 -14q-55 0 -93 39.5t-38 94t38.5 93.5t93 39t93.5 -39t39 -94q0 -31 -13 -58l73 -75l-60 -60z" />
<glyph unicode="&#x5aa;" d="M217 -102h-121q0 -39 -28.5 -67.5t-67.5 -28.5t-67.5 28t-28.5 68h-121q0 -89 62.5 -153t154.5 -64q90 0 153.5 65t63.5 152z" />
<glyph unicode="&#x5ab;" d="M102 1464l115 -61l-205 -108l205 -109l-115 -60l-319 169z" />
<glyph unicode="&#x5ac;" d="M-200 1126v120h280v222h120v-342h-400z" />
<glyph unicode="&#x5ad;" d="M48 -464q-169 131 -169 345q0 9 2 17h119q7 -172 121 -301z" />
<glyph unicode="&#x5ae;" d="M-148 1126h-111q-27 41 -28 91q0 70 50.5 120.5t120.5 50.5q58 0 103 -34.5t61 -87.5q7 -22 25.5 -35.5t42.5 -13.5q29 0 49.5 20.5t20.5 49.5q0 38 -34 87h111q24 -39 24 -87q0 -70 -50.5 -120.5t-120.5 -50.5q-58 0 -102.5 34t-61.5 87q-7 22 -25.5 36t-42.5 14 q-29 0 -49.5 -20.5t-20.5 -49.5q0 -10 2.5 -20.5t7.5 -21.5t7.5 -17t10.5 -17.5t10 -14.5z" />
<glyph unicode="&#x5af;" d="M0 1355q-26 0 -43 -18t-17 -42.5t17 -41.5t43 -17t43 17t17 41.5t-17 42.5t-43 18zM0 1464q70 0 119.5 -49.5t49.5 -119.5t-49.5 -119.5t-119.5 -49.5t-119.5 49.5t-49.5 119.5t49.5 119.5t119.5 49.5z" />
<glyph unicode="&#x5b0;" d="M0 -294q31 0 53 -22t22 -52.5t-22 -53t-53 -22.5t-53 22.5t-22 53t22 52.5t53 22zM0 -102q31 0 53 -22.5t22 -53t-22 -53t-53 -22.5t-53 22.5t-22 53t22 53t53 22.5z" />
<glyph unicode="&#x5b1;" d="M-112.5 -294q30.5 0 52.5 -22t22 -52.5t-22 -53t-52.5 -22.5t-53 22.5t-22.5 53t22.5 52.5t53 22zM-211.5 -102q30.5 0 52.5 -22.5t22 -53t-22 -53t-52.5 -22.5t-53 22.5t-22.5 53t22.5 53t53 22.5zM-3.5 -102q30.5 0 53 -22.5t22.5 -53t-22.5 -53t-53 -22.5t-53 22.5 t-22.5 53t22.5 53t53 22.5zM211.5 -294q30.5 0 53 -22t22.5 -52.5t-22.5 -53t-53 -22.5t-52.5 22.5t-22 53t22 52.5t52.5 22zM211.5 -102q30.5 0 53 -22.5t22.5 -53t-22.5 -53t-53 -22.5t-52.5 22.5t-22 53t22 53t52.5 22.5z" />
<glyph unicode="&#x5b2;" d="M-280 -118h341v-121h-341v121zM205 -294q31 0 53 -22t22 -52.5t-22 -53t-53 -22.5t-53 22.5t-22 53t22 52.5t53 22zM205 -102q31 0 53 -22.5t22 -53t-22 -53t-53 -22.5t-53 22.5t-22 53t22 53t53 22.5z" />
<glyph unicode="&#x5b3;" d="M-280 -239v121h341v-121h-110v-189h-120v189h-111zM205 -294q31 0 53 -22t22 -52.5t-22 -53t-53 -22.5t-53 22.5t-22 53t22 52.5t53 22zM205 -102q31 0 53 -22.5t22 -53t-22 -53t-53 -22.5t-53 22.5t-22 53t22 53t53 22.5z" />
<glyph unicode="&#x5b4;" d="M0 -102q31 0 53 -22.5t22 -53t-22 -53t-53 -22.5t-53 22.5t-22 53t22 53t53 22.5z" />
<glyph unicode="&#x5b5;" d="M-108.5 -102q31.5 0 54 -22.5t22.5 -53t-22.5 -53t-54 -22.5t-53.5 22.5t-22 53t22 53t53.5 22.5zM108.5 -102q31.5 0 53 -22.5t22 -53t-21.5 -53t-53.5 -22.5t-54 22.5t-22.5 53t22.5 53t54 22.5z" />
<glyph unicode="&#x5b6;" d="M-5 -294q31 0 53 -22t22 -52.5t-22 -53t-53 -22.5t-53 22.5t-22 53t22 52.5t53 22zM-108.5 -102q31.5 0 54 -22.5t22.5 -53t-22.5 -53t-54 -22.5t-53.5 22.5t-22 53t22 53t53.5 22.5zM108.5 -102q31.5 0 53.5 -22.5t22 -53t-22 -53t-53.5 -22.5t-54 22.5t-22.5 53 t22.5 53t54 22.5z" />
<glyph unicode="&#x5b7;" d="M-171 -118h342v-121h-342v121z" />
<glyph unicode="&#x5b8;" d="M-171 -239v121h342v-121h-111v-160h-120v160h-111z" />
<glyph unicode="&#x5b9;" d="M0 1266q31 0 53 -22t22 -52.5t-22 -53t-53 -22.5t-53 22.5t-22 53t22 52.5t53 22z" />
<glyph unicode="&#x5ba;" d="M0 1266q31 0 53 -22t22 -52.5t-22 -53t-53 -22.5t-53 22.5t-22 53t22 52.5t53 22z" />
<glyph unicode="&#x5bb;" d="M0 -193q31 0 53 -22t22 -53t-22 -53t-53 -22t-53 22t-22 53t22 53t53 22zM191 -294q31 0 53 -22t22 -52.5t-22 -53t-53 -22.5t-53 22.5t-22 53t22 52.5t53 22zM-190.5 -102q31.5 0 53 -22.5t21.5 -53t-21.5 -53t-53 -22.5t-53.5 22.5t-22 53t22 53t53.5 22.5z" />
<glyph unicode="&#x5bc;" d="M0 591q31 0 53 -22.5t22 -53t-22 -53t-53 -22.5t-53 22.5t-22 53t22 53t53 22.5z" />
<glyph unicode="&#x5bd;" d="M-60 -102h120v-308h-120v308z" />
<glyph unicode="&#x5be;" horiz-adv-x="723" d="M628 768v171q0 43 -21.5 64t-58.5 21h-372q-38 0 -59 -21.5t-21 -63.5v-171q0 -43 21 -64t59 -21h372q38 0 59 21t21 64z" />
<glyph unicode="&#x5bf;" d="M-171 1270h342v-120h-342v120z" />
<glyph unicode="&#x5c0;" horiz-adv-x="343" d="M68 1068l208 72v-1229l-208 -71v1228z" />
<glyph unicode="&#x5c1;" d="M1188 1225q31 0 53 -22t22 -52.5t-22 -53t-53 -22.5t-53 22.5t-22 53t22 52.5t53 22z" />
<glyph unicode="&#x5c2;" d="M286.5 1225q30.5 0 53 -22t22.5 -52.5t-22.5 -53t-53 -22.5t-52.5 22.5t-22 53t22 52.5t52.5 22z" />
<glyph unicode="&#x5c3;" horiz-adv-x="566" d="M152 795l135 164q17 20 27 20.5t27 -20.5l135 -164q26 -32 0 -65l-135 -163q-17 -20 -27 -20.5t-27 20.5l-135 163q-15 20 -15 32.5t15 32.5zM152 218l135 166q17 20 27 20t27 -20l135 -166q26 -31 0 -61l-135 -166q-17 -20 -27 -20t-27 20l-135 166q-15 19 -15 30.5 t15 30.5z" />
<glyph unicode="&#x5c4;" d="M0 1434q63 0 108.5 -45.5t45.5 -108.5t-45.5 -108.5t-108.5 -45.5t-108.5 45.5t-45.5 108.5t45.5 108.5t108.5 45.5z" />
<glyph unicode="&#x5c5;" d="M0 -102q63 0 108.5 -45.5t45.5 -108.5t-45.5 -108.5t-108.5 -45.5t-108.5 45.5t-45.5 108.5t45.5 108.5t108.5 45.5z" />
<glyph unicode="&#x5c6;" horiz-adv-x="643" d="M225 355q-22 68 -27 142q-9 106 14 186h177q31 0 54 -13t37.5 -23t28.5 -5q29 10 37.5 94.5t-0.5 135.5q-7 70 -36.5 111t-106.5 41h-191q-12 0 -22.5 9.5t-12.5 22.5q-2 9 0 22.5t0 15.5q-3 7 -14 8t-20 -5q-31 -22 -47 -104q-12 -58 -14 -119q-2 -32 7 -77 q10 -53 36 -80q7 -7 6 -19t-17.5 -82t-17.5 -111q-5 -104 12 -225q9 -60 -4 -111l-32 -126q-7 -20 -2 -31.5t32 -11.5h354q26 0 35 7.5t14 26.5l67 249q7 19 1.5 30t-32.5 11h-270q-34 0 -46 31z" />
<glyph unicode="&#x5c7;" d="M-171 -239v121h342v-121h-111v-246h-120v246h-111z" />
<glyph unicode="&#x5d0;" horiz-adv-x="1058" d="M309 973l377 -393q9 77 31 115q-48 27 -79.5 85t-33.5 133q0 53 17 109.5t46 74.5q10 7 21.5 2t16.5 -19q0 -2 1.5 -13t4 -17t11 -14.5t24.5 -11.5l95 -19q61 -12 97.5 -49.5t44 -92t4 -103t-15.5 -103.5q-7 -26 -18 -32.5t-22 -0.5t-32.5 14.5t-38.5 8.5q-44 0 -66 -51 q-17 -51 -13 -88t23 -57l97 -105q58 -60 69 -134t-13.5 -129.5t-69.5 -82.5q-34 -22 -70 -12q-7 2 -12.5 17t-18.5 41.5t-33 47.5l-415 445q-67 -22 -72 -83q-5 -43 18 -74.5t58 -55.5t71 -51.5t61.5 -75t23.5 -110.5q0 -55 -10 -72t-41 -17h-341q-36 0 -47 29t8 63 q9 15 40 18t35 9q14 39 2.5 65t-28.5 86.5t-14 116.5q10 171 156 234l-67 68q-38 38 -61 76q-36 61 -23.5 151.5t64.5 141.5q17 15 40 20.5t35 -6.5q7 -7 24 -41t39 -58z" />
<glyph unicode="&#x5d1;" horiz-adv-x="894" d="M835 324q26 0 31.5 -11t-2.5 -30l-67 -249q-5 -19 -14.5 -26.5t-33.5 -7.5h-655q-27 0 -32.5 11t1.5 32l65 259q3 14 11 18t27 4h372q55 0 68 9q24 15 45 68t21 118q0 99 -44 135q-22 20 -50 24.5t-78 4.5h-258q-75 0 -109 46t-34 158q0 87 29 151.5t67 64.5 q14 0 17 -5.5t1.5 -19t-0.5 -22.5q2 -14 12.5 -23t20.5 -9h379q48 0 82 -19.5t53.5 -50.5t30.5 -79.5t14.5 -94.5t3.5 -111q0 -87 -23 -175t-59 -151q-3 -5 -0.5 -12t9.5 -7h99z" />
<glyph unicode="&#x5d2;" horiz-adv-x="655" d="M131 324h64q99 0 145.5 42t58.5 122q12 99 -6.5 147t-85.5 48h-41q-75 0 -109 46t-34 158q0 87 29 151.5t66 64.5q14 0 17.5 -5.5t2 -19t-0.5 -22.5q2 -14 12 -23t21 -9h114q12 0 25.5 -1.5t39 -12t43 -27.5t27.5 -53t5 -85q-5 -41 -13.5 -82t-13 -71t-4.5 -69 q2 -53 23.5 -101.5t48 -83.5t47.5 -96.5t21 -136.5q0 -73 -15.5 -142.5t-38.5 -69.5q-10 0 -19.5 4.5t-16.5 13.5t-12 17t-12 25t-9.5 25.5t-8.5 29t-8 27.5q-41 133 -75 133q-26 0 -75 -142l-34 -92q-7 -20 -16.5 -27t-34.5 -7h-198q-27 0 -32.5 11t1.5 32l67 259 q3 14 10.5 18t24.5 4z" />
<glyph unicode="&#x5d3;" horiz-adv-x="887" d="M196 1024h570q36 0 57.5 -21.5t23.5 -63.5l-2 -188q0 -17 -2.5 -28t-10.5 -20.5t-11.5 -13t-18 -13.5t-17.5 -14q-38 -29 -57.5 -77.5t-19.5 -92.5q0 -49 26.5 -128t31.5 -113q17 -109 -36 -190q-19 -29 -56 -47.5t-63.5 -18.5t-37.5 12q-3 7 -3 10t1 7.5t4.5 19t6 36.5 t4 70t3.5 109q0 9 -2 50t-2 73.5t7 83.5t24 97q12 34 27.5 58t25 33.5t9.5 14.5q0 9 -8 11.5t-28 2.5h-449q-75 0 -109.5 46t-34.5 158q0 87 29.5 151.5t66.5 64.5q14 0 17.5 -5.5t1.5 -19t0 -22.5q2 -14 12 -23t20 -9z" />
<glyph unicode="&#x5d4;" horiz-adv-x="950" d="M220 1024h587q38 0 59 -21.5t21 -63.5v-166q0 -39 -9 -63t-24.5 -44.5t-22.5 -35.5q-24 -60 -25.5 -114.5t8.5 -88.5t29 -87t26 -89q22 -109 -29 -190q-19 -29 -55.5 -47.5t-63 -18.5t-37.5 12q-3 7 -4 9.5t1 8.5t4.5 18t4 37.5t2.5 69t-3 109.5q0 9 -3 50t-4 73.5 t5 83.5t20 97q12 34 27 58t24.5 33.5t9.5 14.5q0 9 -7 11.5t-29 2.5h-515q-75 0 -109.5 46t-34.5 158q0 87 29 151.5t67 64.5q14 0 17 -5.5t1.5 -19t0.5 -22.5q2 -14 12 -23t20 -9zM271 502q12 0 16.5 -3.5t0.5 -10.5q-17 -32 -10 -223v-67.5t-8.5 -64t-25.5 -56.5 q-27 -38 -76 -58.5t-71 -18.5q-27 2 -17 17q12 22 14 176q2 14 1 55.5t0.5 58t4 45.5t9.5 46.5t19 31.5q61 72 143 72z" />
<glyph unicode="&#x5d5;" horiz-adv-x="561" d="M215 1024h97q46 0 79.5 -14.5t51.5 -36.5t29 -54.5t13.5 -59t2.5 -60.5v-674q0 -39 -10 -70q-9 -26 -41.5 -46.5t-47.5 -18.5q-20 2 -20 20v531q0 27 -2.5 46t-14 43.5t-38.5 38.5t-68 14h-36q-75 0 -109 46t-34 158q0 87 29.5 151.5t67.5 64.5q14 0 17 -5.5t1.5 -19 t-1.5 -22.5q2 -14 13 -23t21 -9z" />
<glyph unicode="&#x5d6;" horiz-adv-x="583" d="M205 1024h97q133 0 188 -75q34 -44 40 -116t-6 -125t-26 -75q-9 -12 -36 6t-51 31.5t-49 -13.5q-19 -29 -21.5 -83.5t5 -99t24 -120.5t19.5 -103q19 -109 -36 -190q-19 -29 -56.5 -47.5t-63.5 -18.5t-37 12q-3 7 -3 10t1.5 7.5t4 19t5.5 36.5t5.5 70t2.5 109q0 2 -2 64.5 t0.5 110t13.5 88.5q10 39 21 65.5t18 36t11 19t2 21.5q-2 7 -3.5 11t-7.5 6t-8.5 2h-10h-9.5h-36q-75 0 -109 46t-34 158q0 87 30 151.5t67 64.5q14 0 16.5 -5.5t1 -19t-0.5 -22.5q2 -14 12.5 -23t20.5 -9z" />
<glyph unicode="&#x5d7;" horiz-adv-x="1032" d="M224 683q-75 12 -109.5 54.5t-34.5 149.5q0 87 29 151.5t68 64.5q12 0 15.5 -5.5t2 -19t0.5 -22.5q2 -14 12 -23t20 -9h655q36 0 57.5 -21.5t21.5 -63.5v-166q0 -39 -9.5 -63t-25 -44.5t-20.5 -35.5q-24 -60 -25.5 -114.5t8.5 -88.5t28 -87t27 -89q20 -109 -31 -190 q-17 -29 -53.5 -47.5t-63 -18.5t-38.5 12q-5 10 0 29.5t11 67.5t-4 155q0 5 -6 49.5t-8 74.5t2.5 82t19.5 98q10 34 25.5 58t25 33.5t9.5 14.5q0 9 -7 11.5t-29 2.5h-370q-70 0 -103 -53q-27 -44 -34 -114.5t-1 -127.5t22 -137q20 -106 -36 -190q-20 -29 -57 -47.5 t-63.5 -18.5t-36.5 12q-5 26 -1 26.5t11 63.5t5 162q-3 183 21 277q9 36 30 65.5t39 46t18 23.5q2 5 -2.5 7.5t-14.5 4.5z" />
<glyph unicode="&#x5d8;" horiz-adv-x="1049" d="M160 683q-53 10 -76.5 52.5t-23.5 151.5q0 87 29 151.5t66 64.5q14 0 17.5 -5.5t1.5 -19t0 -22.5q2 -14 12 -23t21 -9h47q85 0 139 -63q31 -39 41.5 -95.5t2 -111t-30.5 -102.5q-3 -9 -9 -11.5t-16.5 2t-13.5 6t-15 10.5q-19 12 -33.5 5t-21.5 -29q-32 -109 -12 -193 q27 -118 99 -118h437q39 0 57 13t23 42q17 128 -20.5 206.5t-115.5 97.5q-43 10 -81.5 0.5t-64 -33.5t-40 -41.5t-24.5 -36.5q-7 -14 -18 -24t-22.5 -15.5t-21.5 0t-15 22.5q-5 14 3.5 66.5t31.5 122.5t57 135.5t88.5 110t118.5 41.5q46 -2 83.5 -22.5t60.5 -48.5t40 -71.5 t25.5 -80.5t13 -88t5 -80t0.5 -70q0 -295 -111 -536q-10 -22 -19.5 -28t-29.5 -6h-591q-39 0 -42 34q-12 101 -26 187t-20.5 119.5t-6.5 75t10 96.5q7 38 22.5 78.5t16.5 56.5q1 29 -48 36z" />
<glyph unicode="&#x5d9;" horiz-adv-x="580" d="M215 1024h125q97 0 142 -56.5t45 -151.5q0 -89 -20.5 -150.5t-64.5 -134.5q-46 -75 -118 -132q-24 -19 -48.5 -20.5t-36.5 14.5q-12 14 -7 36.5t24 41.5q79 82 102 131q15 43 3.5 62t-40.5 19h-109q-75 0 -109.5 46t-34.5 158q0 87 29 151.5t67 64.5q14 0 17 -5.5 t1.5 -19t0.5 -22.5q2 -14 12 -23t20 -9z" />
<glyph unicode="&#x5da;" horiz-adv-x="913" d="M207 1024h510q137 0 136 -177q0 -41 -7.5 -74.5t-32.5 -61.5t-65 -28q0 -15 20 -397t20 -556q0 -92 -52 -143q-27 -27 -65 -39t-48 8q-3 5 -3 8.5t0.5 8t4 19t6 37.5t5 70t2.5 110q0 14 8.5 399.5t10.5 474.5h-454q-75 0 -109 46t-34 158q0 87 29 151.5t66 64.5 q14 0 17.5 -5.5t1.5 -19t0 -22.5q2 -14 12.5 -23t20.5 -9z" />
<glyph unicode="&#x5db;" horiz-adv-x="843" d="M90 0q-27 0 -32 11t2 32l66 259q3 14 10 18t26 4h343q104 0 158 46t54 130q0 94 -46 138.5t-157 44.5h-290q-75 0 -109.5 46t-34.5 158q0 87 30 151.5t67 64.5q14 0 17.5 -5.5t2 -19t-1.5 -22.5q2 -14 12.5 -23t21.5 -9h293q61 0 110 -22t79.5 -64t52 -90t32.5 -110 t16 -113.5t7 -110.5q2 -65 -5.5 -131t-29 -136t-55 -123.5t-89.5 -88.5t-126 -35h-424z" />
<glyph unicode="&#x5dc;" horiz-adv-x="885" d="M503 172q2 -9 6.5 -31t6 -39t0 -37.5t-14.5 -37.5t-37 -27q-44 -20 -88.5 5.5t-47.5 81.5q-2 67 22.5 114.5t79.5 98.5q46 41 100 80.5t86.5 70t64.5 85.5q26 44 4.5 95.5t-67.5 51.5h-517q-14 0 -18 6.5t-6 22.5q-14 186 0 346q3 32 9 77.5t9.5 69.5t2 48t-10.5 37 q-12 19 -39.5 28.5t-44.5 25.5t-13 55q3 48 18.5 89t31 61.5t21.5 20.5q14 0 26 -18t31 -25q9 -3 28.5 -8t31 -9.5t27 -13.5t25 -25.5t14.5 -38.5q9 -36 -5.5 -73.5t-37 -84.5t-29.5 -93q-2 -41 -2.5 -76t30 -58t95.5 -23h478q22 0 36 -8.5t19 -35.5q32 -160 19 -301 q-3 -38 -7.5 -65t-17.5 -69.5t-38 -77.5t-62 -61q-15 -10 -58.5 -38t-64 -43.5t-49 -41t-39 -53t-8.5 -58.5z" />
<glyph unicode="&#x5dd;" horiz-adv-x="943" d="M259 324h463q27 0 41.5 10.5t14.5 42.5v140q0 75 -29.5 120.5t-88.5 45.5h-339q-58 0 -88 -45.5t-30 -120.5v-140q0 -32 14.5 -42.5t41.5 -10.5zM195 705q-94 26 -94 182q0 87 29.5 151.5t67.5 64.5q14 0 16.5 -5.5t0.5 -19t0 -22.5q2 -14 12 -23t22 -9h357q41 0 71 -1.5 t57 -8.5t44 -14t33.5 -25.5t26 -34t17 -51.5t11 -65t6 -85t2.5 -103v-127v-442q0 -67 -67 -67h-647q-63 0 -63 60v432q1 152 98 213z" />
<glyph unicode="&#x5de;" horiz-adv-x="979" d="M254 676q-94 14 -134 64t-40 147q0 87 30 151.5t67 64.5q14 0 16.5 -5.5t1 -19t0.5 -22.5q2 -12 12 -20.5t22 -9.5q126 -15 170 -111q29 -60 17 -181q19 10 35.5 22t30 28t24.5 29t22 35t18 33.5t16.5 37t13 35t12.5 37.5t11 33q7 22 14.5 26.5t28.5 0.5 q300 -63 300 -524q0 -268 -73 -501q-9 -26 -38 -26h-408q-27 0 -32 11t2 32l70 259q3 14 10.5 18t24.5 4h255q46 0 70 28q26 27 33.5 77.5t-13.5 108.5q-24 63 -86 104t-165 41q-160 0 -256.5 -147t-82.5 -423q3 -65 -18.5 -84.5t-101.5 -40.5q-34 -9 -34 26q0 171 36 327 q38 159 153 284q15 14 6.5 31t-40.5 20z" />
<glyph unicode="&#x5df;" horiz-adv-x="597" d="M207 1024h187q44 0 76.5 -19.5t49 -51t24 -63.5t7.5 -64q0 -80 -19.5 -140.5t-67.5 -132.5q-58 -85 -58 -155q0 -43 18 -324t15 -344q-3 -55 -14.5 -88t-38.5 -55q-32 -29 -68 -39.5t-50 8.5q-7 26 -3.5 32t12 70t10.5 151q0 22 5 147.5t12 276.5t8 211q2 41 30 96.5 t28 90.5q0 22 -16 37t-38 15h-113q-75 0 -109 46t-34 158q0 87 29.5 151.5t67.5 64.5q12 0 15.5 -5.5t1.5 -19t0 -22.5q2 -14 12.5 -23t20.5 -9z" />
<glyph unicode="&#x5e0;" horiz-adv-x="626" d="M273 1024h131q138 0 142 -157q2 -26 -14 -114q-24 -148 -23 -219q0 -67 27 -173.5t29 -147.5q9 -99 -19 -177q-3 -14 -7.5 -20t-15.5 -11t-33 -5h-434q-26 0 -31.5 11t2.5 32l65 259q3 14 11 18t25 4h222q51 0 63 38q5 27 5 43.5t-2.5 56.5t-4.5 62q0 43 7 78.5t4 49.5 q-7 31 -70 31h-82q-75 0 -109.5 46t-34.5 158q0 87 30 151.5t68 64.5q14 0 16 -5.5t0.5 -19t0.5 -22.5q2 -14 12 -23t20 -9z" />
<glyph unicode="&#x5e1;" horiz-adv-x="894" d="M768 507q0 97 -51 136.5t-154 39.5h-309q-51 -70 -51 -162q0 -118 71 -163.5t204 -45.5q68 0 116.5 8t89.5 27.5t62.5 59t21.5 100.5zM167 698q-38 34 -53 76t-15 113q0 87 29 151.5t67 64.5q14 0 17 -5.5t1.5 -19t-0.5 -22.5q2 -14 12.5 -23t20.5 -9h309q51 0 94.5 -12 t74 -32.5t54.5 -49.5t38.5 -62t25.5 -71t15.5 -76t8 -75.5t1.5 -72t0 -64.5q0 -90 -12 -165.5t-40 -143t-73.5 -112.5t-116 -72.5t-164.5 -27.5q-369 0 -369 432q0 101 24.5 174t50.5 104z" />
<glyph unicode="&#x5e2;" horiz-adv-x="972" d="M713 683q-143 31 -143 204q0 87 30 151.5t67 64.5q14 0 16.5 -5.5t1 -19t-0.5 -22.5q5 -32 35 -32h40q68 0 121.5 -40t56.5 -126q2 -44 -17 -86.5t-56.5 -94t-44.5 -64.5q-19 -34 -33.5 -73.5t-20.5 -61t-17 -81t-16 -76.5q-2 -10 -9.5 -49.5t-11.5 -59t-13.5 -52 t-20 -57t-23.5 -43.5q-44 -67 -95.5 -105.5t-125.5 -72.5l-320 -150q-22 -10 -30 -5t-6 31l20 290q2 22 10.5 31.5t25.5 16.5l241 92q22 9 41.5 25t19.5 29q2 17 -17 31.5t-54 34.5t-53 38q-58 53 -69 142q-3 36 4 92.5t5 64.5q-2 19 -8 22.5t-36 11.5q-70 15 -102 63 t-32 145q0 87 29 151.5t67 64.5q14 0 17 -5.5t1.5 -19t0.5 -22.5q5 -31 32 -32l55 -2q27 -2 75 -19t70 -51q24 -38 32.5 -89.5t5 -95t-13.5 -78.5q-9 -27 -30 -25t-40 11t-36 -13q-15 -20 7 -53q20 -26 50 -46t56.5 -44t46.5 -68q36 -87 9 -200q44 29 62 61.5t33.5 86 t35.5 94.5q15 27 35 59.5t33 51.5t21.5 37.5t4.5 28.5t-19 13z" />
<glyph unicode="&#x5e3;" horiz-adv-x="933" d="M410 683q-44 0 -78.5 -18t-47.5 -42t-1 -39q5 -9 13.5 -11.5t20 -1.5t28.5 -1q121 -14 133 -140q5 -51 -5 -96.5t-45 -45.5q-20 0 -32 6t-15.5 12t-10.5 22q-19 34 -80 34q-63 0 -80 -31q-9 -15 -14 -22t-16 -13t-28 -6q-32 0 -45 13t-13 40q0 102 19 172q15 60 45 97.5 t78 70.5q-90 0 -126.5 45t-36.5 159q0 87 30 151.5t68 64.5q12 0 15 -5.5t1.5 -19t0.5 -22.5q2 -14 12 -23t20 -9h408q90 0 133 -20.5t63 -87.5q22 -75 33 -343q29 -759 29 -832q0 -102 -53 -154q-27 -27 -65 -39t-48 8q-5 26 -3 27t9.5 65.5t9.5 160.5q15 515 22 703 q3 90 -35.5 130.5t-118.5 40.5h-194z" />
<glyph unicode="&#x5e4;" horiz-adv-x="960" d="M97 0q-26 0 -31.5 11t2.5 32l69 259q3 14 10 18t25 4h439q53 0 90.5 14.5t57 34.5t31.5 48t14.5 48.5t2.5 42.5q0 171 -187 171h-168q-44 0 -77.5 -14t-45.5 -30t-3 -28q3 -5 9 -7.5t10.5 -2.5h14.5h15q56 0 88 -25t44 -83q7 -36 -4 -67.5t-47 -31.5q-19 0 -31 5 t-15.5 9.5t-11.5 16.5q-17 29 -81 29q-61 0 -78 -26q-9 -12 -14 -18t-17 -11t-29 -5q-32 0 -45 11t-11 34q2 60 25 117q32 84 118 127q-99 0 -138 42.5t-39 161.5q0 87 29 151.5t68 64.5q12 0 15.5 -5.5t1.5 -19t0 -22.5q2 -14 12 -23t21 -9h407q49 0 77 -2.5t57.5 -13 t48.5 -32.5t29 -60q53 -184 53 -397q0 -239 -82 -485q-5 -14 -7.5 -19t-12 -10t-26.5 -5h-683z" />
<glyph unicode="&#x5e5;" horiz-adv-x="1053" d="M688 683q-51 26 -76 71.5t-25 132.5t29 151.5t67 64.5q14 0 17 -5.5t1.5 -19t-1.5 -22.5q3 -14 13.5 -23t20.5 -9l99 -7q49 -3 84 -24.5t51.5 -51.5t23 -52t8.5 -42q7 -101 -29 -171q-5 -14 -14.5 -18t-18 -2.5t-24 6.5t-27.5 7q-80 10 -112 -24q-155 -166 -226 -284.5 t-75 -259.5q-2 -75 31 -196.5t31 -174.5q-3 -97 -53 -143q-26 -24 -61 -34t-61 -7t-32 17q-5 24 -1.5 30t10.5 67.5t7 148.5q0 12 -15.5 150t-26.5 309.5t-4 281.5q0 17 5 42.5t5 38t-4.5 27t-23 20t-51.5 5.5q-162 0 -162 204q0 87 30 151.5t68 64.5q14 0 16 -5.5t0.5 -19 t0.5 -22.5q2 -14 12 -23t22 -9h109q77 0 119.5 -48.5t42.5 -135.5q-2 -56 -15.5 -93t-45.5 -90q-29 -46 -29 -84q-3 -145 18 -259q20 56 49.5 105.5t74.5 103.5t67.5 77t80.5 83z" />
<glyph unicode="&#x5e6;" horiz-adv-x="994" d="M200 324h438q-119 53 -184 132q-67 82 -75 184q-2 29 -14.5 36t-41.5 7h-58q-41 0 -70 6.5t-57.5 27t-43 63.5t-14.5 107q0 85 34 150.5t74 65.5q12 0 15.5 -5.5t1.5 -19t0 -22.5q2 -14 12 -23t20 -9h77q89 0 121.5 -43.5t32.5 -139.5q0 -24 -6 -69t-4.5 -79t18.5 -68 q5 -12 13 -22.5t19 -20t16 -13.5t20.5 -14.5t16.5 -11.5q60 87 94 140q-61 26 -80.5 69t-19.5 135q0 87 29.5 151.5t67.5 64.5q14 0 16.5 -5.5t0.5 -19t0 -22.5q2 -14 12 -23t22 -9h53q113 0 155 -99q24 -58 21.5 -126.5t-29.5 -122.5q-7 -14 -16.5 -15t-20.5 4.5t-29 11.5 t-35 6q-39 0 -60 -29l-107 -157q26 -17 81 -43t105.5 -56.5t86.5 -74.5q17 -20 7 -62l-60 -227q-5 -19 -14.5 -26.5t-33.5 -7.5h-679q-26 0 -32 11t3 32l65 259q3 14 10 18t26 4z" />
<glyph unicode="&#x5e7;" horiz-adv-x="928" d="M220 1024h475q55 0 93 -21.5t58.5 -51t31.5 -77.5t13.5 -83t2.5 -86q0 -131 -42.5 -212.5t-136.5 -140.5q-26 -15 -101.5 -57t-106.5 -68t-29 -51q2 -9 6 -31t6 -40t0 -38.5t-14.5 -36.5t-36.5 -27q-55 -22 -93.5 3t-43.5 84q-5 67 38.5 133.5t116.5 121.5 q22 15 103.5 57.5t130 83.5t53.5 89q3 31 -4.5 52.5t-19.5 32.5t-35 16t-38.5 6t-44.5 1h-10h-377q-75 0 -109 46t-34 158q0 87 29.5 151.5t67.5 64.5q14 0 17 -5.5t1.5 -19t-1.5 -22.5q3 -14 13.5 -23t20.5 -9zM227 280q-2 -97 3.5 -288.5t1.5 -240.5q-2 -15 0 -58 t-2.5 -67t-17.5 -37q-27 -22 -69 -36t-53 2q-3 7 -3 9.5t1.5 5.5t4.5 16t5.5 31.5t5 59t2.5 94.5q0 97 -4.5 288.5t-0.5 240.5q0 15 0.5 44.5t0.5 47.5t5.5 38.5t13.5 30.5q14 17 40.5 29t45 11t25.5 -6q2 -5 3 -6t1.5 -4.5t0 -5t-1.5 -8.5t-2 -14.5t-2 -24t-1.5 -36 t-1.5 -50t-1 -66.5z" />
<glyph unicode="&#x5e8;" horiz-adv-x="878" d="M207 1024h418q65 0 109 -23t63.5 -65.5t27.5 -84.5t8 -97v-629q0 -39 -10 -70q-9 -26 -41.5 -46.5t-47.5 -18.5q-20 2 -21 20v505q0 34 -5 60t-20.5 52.5t-47.5 41t-82 14.5h-357q-75 0 -109 46t-34 158q0 87 30 151.5t67 64.5q14 0 17.5 -5.5t1.5 -19t-2 -22.5 q2 -14 13.5 -23t21.5 -9z" />
<glyph unicode="&#x5e9;" horiz-adv-x="1355" d="M1063 683q-61 9 -91 52t-30 152q0 87 30 151.5t67 64.5q14 0 17.5 -5.5t1.5 -19t-2 -22.5q5 -29 33 -34l80 -18q133 -27 133 -209q0 -75 -20 -129q-22 -58 -94 -154t-87 -121q-90 -145 -164 -357q-5 -19 -14.5 -26.5t-35.5 -7.5h-552q-22 0 -30 7t-13 27q-75 292 -94 372 q-27 118 -15 239q3 34 -23 43q-44 14 -68.5 54.5t-24.5 144.5q0 87 29.5 151.5t67.5 64.5q14 0 17 -5.5t1.5 -19t-1.5 -22.5q5 -32 34 -32l75 -7q63 -3 100.5 -42.5t41.5 -98.5q7 -101 -22 -187q-5 -17 -13 -24.5t-14 -7.5t-18.5 2.5t-18.5 4.5q-44 5 -57 -24t-2 -133 q10 -89 42.5 -136t80.5 -47h109q15 32 31 142q14 92 71 167q10 14 7 31t-24 24q-56 19 -76.5 59.5t-20.5 139.5q0 87 30 151.5t67 64.5q14 0 16.5 -5.5t1 -19t-0.5 -22.5q5 -29 34 -32l72 -7q58 -5 100 -42.5t50 -100.5q14 -97 -15 -183q-7 -22 -19 -27t-31 2 q-55 15 -92 -36q-5 -9 -10 -20t-8.5 -24.5t-5 -24t-4.5 -25.5t-3 -21q-19 -113 -81 -191h213q36 0 56.5 14t45.5 44q67 85 171 186q44 44 29 81q-12 27 -60 34z" />
<glyph unicode="&#x5ea;" horiz-adv-x="1015" d="M46 0q-26 0 -31.5 11t2.5 32l65 259q3 14 11 18t25 4h73q27 0 39 13t9.5 30t-3.5 36q-14 84 0 152q7 39 25.5 74t38.5 54q-75 0 -109 46t-34 158q0 87 30 151.5t67 64.5q14 0 17.5 -5.5t1.5 -19t-2 -22.5q2 -14 13 -23t21 -9h449q65 0 109.5 -23t64 -65.5t27.5 -84.5 t8 -97v-629q0 -39 -11 -70q-9 -26 -41 -46.5t-47 -18.5q-20 2 -21 20v505q0 34 -5 60t-20.5 52.5t-48 41t-81.5 14.5h-275q-70 -80 -70 -181q0 -61 26 -144q24 -80 24 -177q0 -84 -38 -155q-10 -17 -18 -21.5t-30 -4.5h-261z" />
<glyph unicode="&#x5f0;" horiz-adv-x="1122" d="M776 1024h97q46 0 79.5 -14.5t51.5 -36.5t29 -54.5t13.5 -59t2.5 -60.5v-674q0 -39 -10 -70q-9 -26 -41.5 -46.5t-47.5 -18.5q-20 2 -20 20v531q0 27 -2.5 46t-14 43.5t-38.5 38.5t-68 14h-36q-75 0 -109 46t-34 158q0 87 29.5 151.5t67.5 64.5q14 0 17 -5.5t1.5 -19 t-1.5 -22.5q2 -14 13 -23t21 -9zM215 1024h97q46 0 79.5 -14.5t51.5 -36.5t29 -54.5t13.5 -59t2.5 -60.5v-674q0 -39 -10 -70q-9 -26 -41.5 -46.5t-47.5 -18.5q-20 2 -20 20v531q0 27 -2.5 46t-14 43.5t-38.5 38.5t-68 14h-36q-75 0 -109 46t-34 158q0 87 29.5 151.5 t67.5 64.5q14 0 17 -5.5t1.5 -19t-1.5 -22.5q2 -14 13 -23t21 -9z" />
<glyph unicode="&#x5f1;" horiz-adv-x="1141" d="M795 1024h97q46 0 79.5 -14.5t51.5 -36.5t29 -54.5t13.5 -59t2.5 -60.5v-674q0 -39 -10 -70q-9 -26 -41.5 -46.5t-47.5 -18.5q-20 2 -20 20v531q0 27 -2.5 46t-14 43.5t-38.5 38.5t-68 14h-36q-75 0 -109 46t-34 158q0 87 29.5 151.5t67.5 64.5q14 0 17 -5.5t1.5 -19 t-1.5 -22.5q2 -14 13 -23t21 -9zM215 1024h125q97 0 142 -56.5t45 -151.5q0 -89 -20.5 -150.5t-64.5 -134.5q-46 -75 -118 -132q-24 -19 -48.5 -20.5t-36.5 14.5q-12 14 -7 36.5t24 41.5q79 82 102 131q15 43 3.5 62t-40.5 19h-109q-75 0 -109.5 46t-34.5 158q0 87 29 151.5 t67 64.5q14 0 17 -5.5t1.5 -19t0.5 -22.5q2 -14 12 -23t20 -9z" />
<glyph unicode="&#x5f2;" horiz-adv-x="1160" d="M795 1024h125q97 0 142 -56.5t45 -151.5q0 -89 -20.5 -150.5t-64.5 -134.5q-46 -75 -118 -132q-24 -19 -48.5 -20.5t-36.5 14.5q-12 14 -7 36.5t24 41.5q79 82 102 131q15 43 3.5 62t-40.5 19h-109q-75 0 -109.5 46t-34.5 158q0 87 29 151.5t67 64.5q14 0 17 -5.5 t1.5 -19t0.5 -22.5q2 -14 12 -23t20 -9zM215 1024h125q97 0 142 -56.5t45 -151.5q0 -89 -20.5 -150.5t-64.5 -134.5q-46 -75 -118 -132q-24 -19 -48.5 -20.5t-36.5 14.5q-12 14 -7 36.5t24 41.5q79 82 102 131q15 43 3.5 62t-40.5 19h-109q-75 0 -109.5 46t-34.5 158 q0 87 29 151.5t67 64.5q14 0 17 -5.5t1.5 -19t0.5 -22.5q2 -14 12 -23t20 -9z" />
<glyph unicode="&#x5f3;" horiz-adv-x="430" d="M85 645l29 420q2 14 9 36q15 48 59.5 74t107.5 26q67 0 94 -25.5t12 -74.5q-9 -24 -14 -36l-240 -420h-57z" />
<glyph unicode="&#x5f4;" horiz-adv-x="817" d="M85 645l29 420q2 14 9 36q15 48 59.5 74t107.5 26q67 0 94 -25.5t12 -74.5q-9 -24 -14 -36l-240 -420h-57zM473 645l30 420q2 14 9 36q15 48 60.5 74t109.5 26t92 -26t13 -72q-3 -10 -17 -38l-241 -420h-56z" />
<glyph unicode="&#x5f5;" horiz-adv-x="561" d="M379 275q2 17 26.5 42.5t57.5 37.5q10 2 17.5 -6t7.5 -18v-67.5v-70t-1 -54.5t-3.5 -52t-7.5 -32q-9 -26 -37.5 -45.5t-42.5 -19.5q-19 2 -19 20q-2 9 0 167q0 19 2 98zM490 558q0 -17 -25 -45t-64 -49q-7 -3 -14.5 3.5t-7.5 18.5q-2 29 -2 55q0 19 -17 63.5t-34 55.5 q-22 15 -35 19t-38 4h-43q-32 0 -51 5t-45 25q-29 20 -41 84q-7 41 -6 77q0 55 13 119q17 82 48 104q9 5 20 4.5t14 -7.5q2 -2 0 -15.5t0 -22.5q2 -14 17.5 -23t28.5 -9h103q99 -3 141 -61q36 -46 36 -164q0 -70 1 -141t1 -100z" />
<glyph unicode="&#x5f7;" horiz-adv-x="926" d="M176 686q-26 3 -57 27q-29 20 -40 84q-7 41 -7 77q0 55 13 119q17 82 48 104q9 5 20 4.5t14 -7.5q2 -2 0.5 -15.5t-0.5 -22.5q2 -14 12 -23t22 -9h494q53 0 92 -21.5t59.5 -51t31.5 -77.5t13.5 -83t2.5 -86q0 -133 -34 -216t-112 -119q-26 -12 -62.5 -30.5t-91.5 -50 t-90.5 -63t-34.5 -54.5q0 -9 4.5 -31t6 -39t0 -37.5t-13.5 -37.5t-36 -27q-43 -19 -88 10t-48 77q-9 125 155 237q9 5 101.5 55.5t154 99t66.5 96.5q3 31 -4.5 52.5t-19 32.5t-35 16t-38.5 6t-44 1h-10h-320q-32 -19 -51.5 -59t-25.5 -104t-8 -108.5t0.5 -125.5t2.5 -103 q0 -77 3.5 -233.5t2.5 -198.5q-2 -15 -0.5 -58t-2.5 -67t-18 -37q-29 -24 -65.5 -36t-47.5 2q-3 7 -4 9.5t1 5.5t5.5 16t6 31.5t4 59l3.5 94.5q0 90 -3.5 250t-3.5 191q0 20 -1.5 71.5t-1.5 79.5t1.5 75.5t6.5 77.5t13.5 66t23.5 60.5t35 43.5z" />
<glyph unicode="&#x2000;" horiz-adv-x="819" />
<glyph unicode="&#x2001;" horiz-adv-x="1638" />
<glyph unicode="&#x2002;" horiz-adv-x="819" />
<glyph unicode="&#x2003;" horiz-adv-x="1638" />
<glyph unicode="&#x2004;" horiz-adv-x="546" />
<glyph unicode="&#x2005;" horiz-adv-x="409" />
<glyph unicode="&#x2006;" horiz-adv-x="273" />
<glyph unicode="&#x2007;" horiz-adv-x="273" />
<glyph unicode="&#x2008;" horiz-adv-x="204" />
<glyph unicode="&#x2009;" horiz-adv-x="327" />
<glyph unicode="&#x200a;" horiz-adv-x="91" />
<glyph unicode="&#x200c;" />
<glyph unicode="&#x200d;" />
<glyph unicode="&#x200e;" />
<glyph unicode="&#x200f;" />
<glyph unicode="&#x2010;" horiz-adv-x="720" d="M650 602l-48 -194q-5 -15 -10 -20.5t-22 -5.5h-485q-24 0 -28 8t3 26l49 195q3 15 8.5 20.5t22.5 5.5h485q26 0 29 -8t-4 -27z" />
<glyph unicode="&#x2011;" horiz-adv-x="720" d="M650 602l-48 -194q-5 -15 -10 -20.5t-22 -5.5h-485q-24 0 -28 8t3 26l49 195q3 15 8.5 20.5t22.5 5.5h485q26 0 29 -8t-4 -27z" />
<glyph unicode="&#x2012;" horiz-adv-x="720" d="M650 602l-48 -194q-5 -15 -10 -20.5t-22 -5.5h-485q-24 0 -28 8t3 26l49 195q3 15 8.5 20.5t22.5 5.5h485q26 0 29 -8t-4 -27z" />
<glyph unicode="&#x2013;" horiz-adv-x="887" d="M850 602l-48 -194q-3 -15 -9 -20.5t-23 -5.5h-709q-24 0 -28 8t3 26l49 195q3 15 8.5 20.5t22.5 5.5h710q24 0 28.5 -8t-4.5 -27z" />
<glyph unicode="&#x2014;" horiz-adv-x="1408" d="M1370 602l-47 -194q-3 -15 -9.5 -20.5t-23.5 -5.5h-1229q-24 0 -28 8t3 26l49 195q3 15 8.5 20.5t22.5 5.5h1231q24 0 28 -8t-5 -27z" />
<glyph unicode="&#x2015;" horiz-adv-x="1732" d="M1695 602l-48 -194q-3 -15 -9 -20.5t-23 -5.5h-1554q-24 0 -28 8t3 26l49 195q3 15 8.5 20.5t22.5 5.5h1555q24 0 28.5 -8t-4.5 -27z" />
<glyph unicode="&#x2018;" horiz-adv-x="494" d="M375 1278l-29 -421q-2 -14 -8 -36q-15 -48 -58.5 -73.5t-108.5 -25.5q-67 0 -94.5 25.5t-11.5 73.5q9 26 15 36l241 421h54z" />
<glyph unicode="&#x2019;" horiz-adv-x="494" d="M119 713l29 420q2 14 9 36q15 48 59.5 74.5t107.5 26.5q67 0 94 -25.5t12 -75.5q-9 -24 -14 -36l-240 -420h-57z" />
<glyph unicode="&#x201a;" horiz-adv-x="494" d="M119 -285l29 420q2 14 9 36q15 48 59.5 74t107.5 26q67 0 94 -25.5t12 -74.5q-9 -24 -14 -36l-240 -420h-57z" />
<glyph unicode="&#x201c;" horiz-adv-x="885" d="M766 1278l-29 -421q-2 -14 -8 -36q-15 -48 -59 -73.5t-109 -25.5q-67 0 -94 25.5t-11 73.5q9 26 15 36l241 421h54zM379 1278l-29 -421q-2 -12 -9 -36q-15 -46 -60 -72.5t-109 -26.5t-93.5 25.5t-13.5 71.5q3 12 17 38l241 421h56z" />
<glyph unicode="&#x201d;" horiz-adv-x="885" d="M119 713l29 420q2 14 9 36q15 48 59.5 74.5t107.5 26.5q67 0 94 -25.5t12 -75.5q-9 -24 -14 -36l-240 -420h-57zM507 713l31 420q2 14 8 36q15 48 60.5 74.5t109.5 26.5t92 -26.5t13 -72.5q-3 -10 -17 -38l-241 -420h-56z" />
<glyph unicode="&#x201e;" horiz-adv-x="885" d="M119 -283l29 421q2 12 9 36q15 48 59.5 73.5t107.5 25.5q67 0 94 -25.5t12 -73.5q-9 -26 -14 -36l-240 -421h-57zM507 -283l31 421q2 12 8 36q15 46 60.5 72.5t109.5 26.5t92 -25.5t13 -71.5q-3 -12 -17 -38l-241 -421h-56z" />
<glyph unicode="&#x2026;" horiz-adv-x="1549" d="M1135 218l135 166q17 20 27 20t27 -20l135 -166q26 -31 0 -61l-135 -166q-17 -20 -27 -20t-27 20l-135 166q-15 19 -15 30.5t15 30.5zM644 218l135 166q17 20 27 20t27 -20l135 -166q26 -31 0 -61l-135 -166q-17 -20 -27 -20t-27 20l-135 166q-15 19 -15 30.5t15 30.5z M152 218l135 166q17 20 27 20t27 -20l135 -166q26 -31 0 -61l-135 -166q-17 -20 -27 -20t-27 20l-135 166q-15 19 -15 30.5t15 30.5z" />
<glyph unicode="&#x202f;" horiz-adv-x="327" />
<glyph unicode="&#x205f;" horiz-adv-x="409" />
<glyph unicode="&#x20aa;" horiz-adv-x="1513" d="M1039 539q0 -55 -12 -78q-29 -55 -73 -68q-43 -14 -46 44v8v193q0 19 -13 32t-30 13h-432q-9 0 -21.5 -2t-40.5 -15.5t-40 -35.5q-53 -94 -17 -381q14 -118 -32 -188q-20 -29 -55.5 -47.5t-60 -18.5t-35.5 12q-3 7 -3 10t1.5 7.5t4.5 19t5.5 36.5t5 70t2.5 109v37.5 t0.5 56t2.5 56.5t6 67.5t11 59.5q10 36 31.5 65.5t38.5 46t19 23.5q2 12 -27 15q-43 3 -82 33q-24 19 -28 54v183q-2 68 55 68h809q56 0 56 -68v-417zM539 468q0 55 12 78q29 56 74 68q43 14 46 -42v-11v-192q0 -19 12 -32t30 -13h427q125 0 125 156l-2 401q0 55 14 78 q27 55 71 68q43 14 46 -44q2 -3 2 -8v-524q0 -46 -1 -72t-5 -79.5t-12 -88t-24 -78.5t-40 -69.5t-60.5 -44.5t-82.5 -19h-577q-55 0 -55 68v400z" />
<glyph unicode="&#x20ac;" horiz-adv-x="979" d="M109 406h-104l39 115h48q-2 46 -2 68v27h-85l39 114h55q19 121 78 227q147 271 434 272q148 0 245.5 -66.5t97.5 -182.5q0 -67 -41 -109.5t-104 -42.5q-53 0 -88 34t-35 83q0 60 62 96q24 14 23 34q0 29 -35 46t-98 17q-85 0 -151.5 -63t-99.5 -177q-22 -75 -29 -168h453 l-40 -114h-418q0 -49 4 -95h391l-40 -115h-338q51 -290 253 -290q92 0 158 61.5t91 155.5l89 -17q-68 -341 -384 -342q-295 0 -427 297q-26 62 -41 135z" />
<glyph unicode="&#x2502;" horiz-adv-x="979" d="M592 1638v-2150h-205v2150h205z" />
<glyph unicode="&#x25cc;" horiz-adv-x="1030" d="M861.5 775q25.5 0 44.5 -18t19 -44.5t-19 -44.5t-44.5 -18t-44 18t-18.5 44.5t18.5 44.5t44 18zM715 227q26 0 44.5 -19t18.5 -44.5t-18.5 -43.5t-44.5 -18t-44.5 18t-18.5 43.5t18.5 44.5t44.5 19zM166.5 374q26.5 0 44.5 -18t18 -44.5t-18 -44.5t-44.5 -18t-44.5 18 t-18 44.5t18 44.5t44.5 18zM313.5 922q26.5 0 44 -18t17.5 -43.5t-17.5 -44.5t-44 -19t-44.5 19t-18 44.5t18 43.5t44.5 18zM166.5 775q26.5 0 44.5 -18t18 -44.5t-18 -44.5t-44.5 -18t-44.5 18t-18 44.5t18 44.5t44.5 18zM313.5 227q26.5 0 44 -19t17.5 -44.5t-17.5 -43.5 t-44 -18t-44.5 18t-18 43.5t18 44.5t44.5 19zM861.5 374q25.5 0 44.5 -18t19 -44.5t-19 -44.5t-44.5 -18t-44 18t-18.5 44.5t18.5 44.5t44 18zM715 922q26 0 44.5 -18t18.5 -43.5t-18.5 -44.5t-44.5 -19t-44.5 19t-18.5 44.5t18.5 43.5t44.5 18zM513.5 172 q25.5 0 44.5 -17.5t19 -44t-19 -44.5t-44.5 -18t-44 18t-18.5 44.5t18.5 44t44 17.5zM915.5 575q26.5 0 44.5 -18.5t18 -44.5t-18 -44.5t-44.5 -18.5t-44.5 18.5t-18 44.5t18 44.5t44.5 18.5zM513.5 976q25.5 0 44.5 -18t19 -44.5t-19 -44t-44.5 -17.5t-44 17.5t-18.5 44 t18.5 44.5t44 18zM112.5 575q25.5 0 44.5 -18.5t19 -44.5t-19 -44.5t-44.5 -18.5t-44.5 18.5t-19 44.5t19 44.5t44.5 18.5z" />
<glyph unicode="&#xe000;" horiz-adv-x="810" d="M0 811h811v-811h-811v811z" />
<glyph unicode="&#xe801;" horiz-adv-x="561" d="M0 1266q31 0 53 -22t22 -52.5t-22 -53t-53 -22.5t-53 22.5t-22 53t22 52.5t53 22zM215 1024h97q46 0 79.5 -14.5t51.5 -36.5t29 -54.5t13.5 -59t2.5 -60.5v-674q0 -39 -10 -70q-9 -26 -41.5 -46.5t-47.5 -18.5q-20 2 -20 20v531q0 27 -2.5 46t-14 43.5t-38.5 38.5t-68 14 h-36q-75 0 -109 46t-34 158q0 87 29.5 151.5t67.5 64.5q14 0 17 -5.5t1.5 -19t-1.5 -22.5q2 -14 13 -23t21 -9z" />
<glyph unicode="&#xe802;" horiz-adv-x="837" d="M207 1024h510q137 0 136 -177q0 -41 -7.5 -74.5t-32.5 -61.5t-65 -28q0 -15 20 -397t20 -556q0 -92 -52 -143q-27 -27 -65 -39t-48 8q-3 5 -3 8.5t0.5 8t4 19t6 37.5t5 70t2.5 110q0 14 8.5 399.5t10.5 474.5h-454q-75 0 -109 46t-34 158q0 87 29 151.5t66 64.5 q14 0 17.5 -5.5t1.5 -19t0 -22.5q2 -14 12.5 -23t20.5 -9zM461 327q31 0 53 -22t22 -52.5t-22 -53t-53 -22.5t-53 22.5t-22 53t22 52.5t53 22zM461 519q31 0 53 -22.5t22 -53t-22 -53t-53 -22.5t-53 22.5t-22 53t22 53t53 22.5z" />
<glyph unicode="&#xe803;" horiz-adv-x="837" d="M207 1024h510q137 0 136 -177q0 -41 -7.5 -74.5t-32.5 -61.5t-65 -28q0 -15 20 -397t20 -556q0 -92 -52 -143q-27 -27 -65 -39t-48 8q-3 5 -3 8.5t0.5 8t4 19t6 37.5t5 70t2.5 110q0 14 8.5 399.5t10.5 474.5h-454q-75 0 -109 46t-34 158q0 87 29 151.5t66 64.5 q14 0 17.5 -5.5t1.5 -19t0 -22.5q2 -14 12.5 -23t20.5 -9zM228 381v121h342v-121h-111v-160h-120v160h-111z" />
<glyph unicode="&#xe804;" horiz-adv-x="580" d="M290 287q31 0 53 -22.5t22 -53t-22 -53t-53 -22.5t-53 22.5t-22 53t22 53t53 22.5zM215 1024h125q97 0 142 -56.5t45 -151.5q0 -89 -20.5 -150.5t-64.5 -134.5q-46 -75 -118 -132q-24 -19 -48.5 -20.5t-36.5 14.5q-12 14 -7 36.5t24 41.5q79 82 102 131q15 43 3.5 62 t-40.5 19h-109q-75 0 -109.5 46t-34.5 158q0 87 29 151.5t67 64.5q14 0 17 -5.5t1.5 -19t0.5 -22.5q2 -14 12 -23t20 -9z" />
<glyph unicode="&#xfb1d;" horiz-adv-x="580" d="M290 -102q31 0 53 -22.5t22 -53t-22 -53t-53 -22.5t-53 22.5t-22 53t22 53t53 22.5zM215 1024h125q97 0 142 -56.5t45 -151.5q0 -89 -20.5 -150.5t-64.5 -134.5q-46 -75 -118 -132q-24 -19 -48.5 -20.5t-36.5 14.5q-12 14 -7 36.5t24 41.5q79 82 102 131q15 43 3.5 62 t-40.5 19h-109q-75 0 -109.5 46t-34.5 158q0 87 29 151.5t67 64.5q14 0 17 -5.5t1.5 -19t0.5 -22.5q2 -14 12 -23t20 -9z" />
<glyph unicode="&#xfb1e;" d="M242 1273q-67 -157 -242 -157q-87 0 -152 45.5t-90 115.5l78 41q60 -80 164 -81q97 0 159 81z" />
<glyph unicode="&#xfb1f;" horiz-adv-x="1160" d="M396 211h342v-121h-342v121zM795 1024h125q97 0 142 -56.5t45 -151.5q0 -89 -20.5 -150.5t-64.5 -134.5q-46 -75 -118 -132q-24 -19 -48.5 -20.5t-36.5 14.5q-12 14 -7 36.5t24 41.5q79 82 102 131q15 43 3.5 62t-40.5 19h-109q-75 0 -109.5 46t-34.5 158q0 87 29 151.5 t67 64.5q14 0 17 -5.5t1.5 -19t0.5 -22.5q2 -14 12 -23t20 -9zM215 1024h125q97 0 142 -56.5t45 -151.5q0 -89 -20.5 -150.5t-64.5 -134.5q-46 -75 -118 -132q-24 -19 -48.5 -20.5t-36.5 14.5q-12 14 -7 36.5t24 41.5q79 82 102 131q15 43 3.5 62t-40.5 19h-109 q-75 0 -109.5 46t-34.5 158q0 87 29 151.5t67 64.5q14 0 17 -5.5t1.5 -19t0.5 -22.5q2 -14 12 -23t20 -9z" />
<glyph unicode="&#xfb20;" horiz-adv-x="955" d="M135 0q-27 0 -32.5 11t1.5 32l63 257q3 15 10 19.5t26 4.5h205h3h15.5t9.5 4.5t3 11.5q-2 10 -13 17.5t-35 18.5t-43 23q-60 41 -80 116q-7 24 -8.5 67.5t-5.5 60.5q-2 20 -7.5 24t-36.5 12q-70 17 -101.5 64t-31.5 144q0 87 30 151.5t67 64.5q14 0 16.5 -5.5t0.5 -19 t0 -22.5q5 -31 34 -32l53 -2q29 -2 76 -19t69 -51q24 -38 33.5 -89t5 -94.5t-14.5 -79.5q-9 -27 -28.5 -25t-37 12t-35.5 -12q-12 -15 4.5 -38.5t61 -44.5t71.5 -52q41 -44 48.5 -98t-19.5 -107q34 0 60.5 9.5t42 20t26.5 32.5t14.5 32t9.5 36.5t6 28.5q5 22 16 53.5 t18.5 54.5t13 44.5t0 34.5t-20.5 14q-160 15 -160 203q0 87 29.5 151.5t67.5 64.5q14 0 17 -5.5t1.5 -19t-1.5 -22.5q5 -32 34 -32h41q68 0 121 -40t57 -126q2 -43 -16.5 -85.5t-47.5 -92.5t-41 -83q-15 -44 -19 -85t-1.5 -106t2.5 -94q-3 -142 -72 -225q-70 -87 -196 -87 h-379z" />
<glyph unicode="&#xfb21;" horiz-adv-x="2164" d="M454 625q-48 -19 -99 -65t-56 -104q-2 -44 20 -77.5t55.5 -57.5t67.5 -49.5t58 -72.5t24 -110q0 -55 -11 -72t-40 -17h-367q-36 0 -47 29t8 63q9 15 40 18t35 9q14 24 -1 61.5t-32 94t-7 112.5q12 82 70 159t152 128l-104 39q-56 22 -84 73.5t-26.5 108t17.5 107.5t42 75 q17 15 39 21t36 -4q5 -5 17 -29t35 -48t61 -37l1413 -548q-19 77 -11.5 147.5t33.5 116.5q-46 27 -75 83.5t-29 133.5q0 53 17 109.5t46 74.5q12 7 25.5 3t18.5 -13q0 -2 4.5 -13.5t8.5 -19.5t14.5 -17.5t24.5 -12.5l104 -22q60 -10 95.5 -48t43 -92.5t5 -104t-15.5 -103.5 q-7 -26 -21.5 -32t-31 0t-41 15.5t-43.5 9.5q-44 0 -65 -51q-48 -111 26 -215q85 -32 126 -90.5t37.5 -115.5t-25.5 -105t-54 -70q-43 -29 -70 -14q-20 9 -47 56.5t-63 63.5z" />
<glyph unicode="&#xfb22;" horiz-adv-x="2082" d="M198 1024h1763q38 0 59 -21.5t21 -63.5l-2 -188q0 -17 -1.5 -28t-10 -20.5t-12 -13t-18 -13.5t-16.5 -14q-39 -29 -58.5 -77.5t-19.5 -92.5q0 -49 26.5 -128t31.5 -113q19 -109 -36 -190q-19 -29 -56.5 -47.5t-64 -18.5t-36.5 12q-3 7 -3 10t1.5 7.5t4 19t5 36.5t5 70 t2.5 109q0 9 -1.5 50t-1.5 73.5t7.5 83.5t23.5 97q12 34 28 58t24.5 33.5t8.5 14.5q0 14 -36 14h-1643q-75 0 -109.5 46t-34.5 158q0 87 30 151.5t68 64.5q14 0 16.5 -5.5t0.5 -19t0 -22.5q2 -14 12 -23t22 -9z" />
<glyph unicode="&#xfb23;" horiz-adv-x="2145" d="M222 1024h1780q38 0 59 -21.5t21 -63.5v-166q0 -39 -9.5 -63t-24.5 -44.5t-22 -35.5q-24 -60 -25.5 -114.5t9.5 -88.5t29 -87t24 -89q22 -109 -29 -190q-19 -29 -55.5 -47.5t-63 -18.5t-36.5 12q-3 7 -3 9.5t0.5 8.5t3 18t4.5 37.5t3 69t-1 109.5q0 9 -3.5 50t-5 73.5 t4.5 83.5t21 97q10 34 25.5 58t25 33.5t9.5 14.5q0 9 -6 11.5t-30 2.5h-1710q-75 0 -109.5 46t-34.5 158q0 87 30 151.5t68 64.5q14 0 16 -5.5t0.5 -19t0.5 -22.5q2 -14 12 -23t22 -9zM271 502q12 0 16.5 -3.5t0.5 -10.5q-15 -32 -10 -223v-67.5t-7.5 -64t-26.5 -56.5 q-26 -38 -75.5 -58.5t-71.5 -18.5q-26 2 -17 17q12 22 16 176v55.5t0.5 58t3 45.5t10.5 46.5t18 31.5q61 72 143 72z" />
<glyph unicode="&#xfb24;" horiz-adv-x="2036" d="M90 0q-27 0 -32 11t2 32l66 259q3 14 11 18t25 4h1541q106 0 158 44.5t52 131.5q0 90 -47.5 136.5t-157.5 46.5h-1484q-75 0 -109.5 46t-34.5 158q0 87 30 151.5t67 64.5q14 0 16.5 -5.5t1 -19t0.5 -22.5q2 -14 12 -23t22 -9h1488q61 0 109 -22t79.5 -64t53 -90 t32.5 -110t15 -113.5t6 -110.5q3 -65 -4.5 -131t-28.5 -136t-54.5 -123.5t-90 -88.5t-126.5 -35h-1618z" />
<glyph unicode="&#xfb25;" horiz-adv-x="2080" d="M1812 683h-1711q-14 0 -18 6.5t-6 22.5q-14 186 0 346q3 32 9 77.5t9.5 69.5t2 48t-10.5 37q-12 19 -39.5 28.5t-43.5 25.5t-14 55q3 48 18.5 89t31 61.5t21.5 20.5q14 0 26 -18t31 -25q9 -3 29 -8t31 -9.5t26.5 -13.5t25 -25.5t14.5 -38.5q9 -36 -5.5 -73.5t-37 -84.5 t-29.5 -93q-2 -41 -2.5 -76t30 -58t95.5 -23h1673q22 0 35.5 -8.5t18.5 -35.5q32 -160 19 -301q-3 -38 -7.5 -65t-17 -69.5t-37.5 -77.5t-62 -61q-29 -20 -108.5 -49t-148.5 -53t-123 -59t-52 -73q2 -9 6 -31t5.5 -39t0 -37.5t-14.5 -37.5t-36 -27q-43 -19 -88.5 10 t-48.5 77q-3 65 21.5 112.5t80.5 100.5q41 38 114.5 68.5t138.5 47.5t126.5 48t85.5 72q26 44 4 95.5t-68 51.5z" />
<glyph unicode="&#xfb26;" horiz-adv-x="2138" d="M259 324h1658q27 0 41.5 10.5t14.5 42.5v140q0 75 -30 120.5t-88 45.5h-1534q-58 0 -88 -45.5t-30 -120.5v-140q0 -32 14.5 -42.5t41.5 -10.5zM195 705q-94 26 -94 182q0 87 29.5 151.5t67.5 64.5q14 0 16.5 -5.5t0.5 -19t0 -22.5q2 -14 12 -23t22 -9h1552 q41 0 70.5 -1.5t57 -8.5t44.5 -14t33 -25.5t25.5 -34t17.5 -51.5t11 -65t5.5 -85t2.5 -103v-127v-442q0 -67 -66 -67h-1842q-63 0 -63 60v432q1 152 98 213z" />
<glyph unicode="&#xfb27;" horiz-adv-x="2071" d="M205 1024h1614q53 0 91.5 -16t60.5 -42t35 -63.5t17.5 -71.5t4.5 -77v-629q0 -39 -11 -70q-9 -26 -37.5 -45.5t-44.5 -19.5q-19 2 -18 20v505q0 34 -5.5 60t-20.5 52.5t-47.5 41t-82.5 14.5h-1560q-75 0 -109 46t-34 158q0 87 30 151.5t67 64.5q14 0 16.5 -5.5t1 -19 t-0.5 -22.5q2 -14 12.5 -23t20.5 -9z" />
<glyph unicode="&#xfb28;" horiz-adv-x="2039" d="M48 0q-27 0 -32.5 11t1.5 32l67 259q3 14 10.5 18t24.5 4h70q27 0 38.5 13t10 30t-3.5 36q-12 80 2 152q7 39 25.5 74t40.5 54q-77 0 -110 46t-33 158q0 87 29 151.5t66 64.5q14 0 17.5 -5.5t1.5 -19t0 -22.5q2 -14 12 -23t20 -9h1473q53 0 92.5 -16t61.5 -42t35 -63.5 t16.5 -71.5t3.5 -77v-629q0 -39 -11 -70q-9 -26 -37.5 -45.5t-42.5 -19.5q-20 2 -20 20v505q0 34 -5.5 60t-20 52.5t-47.5 41t-83 14.5h-1305q-72 -80 -72 -181q0 -61 26 -144q26 -80 25 -177q0 -84 -39 -155q-9 -17 -17.5 -21.5t-28.5 -4.5h-261z" />
<glyph unicode="&#xfb29;" horiz-adv-x="1034" d="M87 333v196h333v333h196v-333h331v-196h-860z" />
<glyph unicode="&#xfb2a;" horiz-adv-x="1355" d="M1174 1225q31 0 53 -22t22 -52.5t-22 -53t-53 -22.5t-53 22.5t-22 53t22 52.5t53 22zM1063 683q-61 9 -91 52t-30 152q0 87 30 151.5t67 64.5q14 0 17.5 -5.5t1.5 -19t-2 -22.5q5 -29 33 -34l80 -18q133 -27 133 -209q0 -75 -20 -129q-22 -58 -94 -154t-87 -121 q-90 -145 -164 -357q-5 -19 -14.5 -26.5t-35.5 -7.5h-552q-22 0 -30 7t-13 27q-75 292 -94 372q-27 118 -15 239q3 34 -23 43q-44 14 -68.5 54.5t-24.5 144.5q0 87 29.5 151.5t67.5 64.5q14 0 17 -5.5t1.5 -19t-1.5 -22.5q5 -32 34 -32l75 -7q63 -3 100.5 -42.5t41.5 -98.5 q7 -101 -22 -187q-5 -17 -13 -24.5t-14 -7.5t-18.5 2.5t-18.5 4.5q-44 5 -57 -24t-2 -133q10 -89 42.5 -136t80.5 -47h109q15 32 31 142q14 92 71 167q10 14 7 31t-24 24q-56 19 -76.5 59.5t-20.5 139.5q0 87 30 151.5t67 64.5q14 0 16.5 -5.5t1 -19t-0.5 -22.5 q5 -29 34 -32l72 -7q58 -5 100 -42.5t50 -100.5q14 -97 -15 -183q-7 -22 -19 -27t-31 2q-55 15 -92 -36q-5 -9 -10 -20t-8.5 -24.5t-5 -24t-4.5 -25.5t-3 -21q-19 -113 -81 -191h213q36 0 56.5 14t45.5 44q67 85 171 186q44 44 29 81q-12 27 -60 34z" />
<glyph unicode="&#xfb2b;" horiz-adv-x="1355" d="M272.5 1225q30.5 0 53 -22t22.5 -52.5t-22.5 -53t-53 -22.5t-52.5 22.5t-22 53t22 52.5t52.5 22zM1063 683q-61 9 -91 52t-30 152q0 87 30 151.5t67 64.5q14 0 17.5 -5.5t1.5 -19t-2 -22.5q5 -29 33 -34l80 -18q133 -27 133 -209q0 -75 -20 -129q-22 -58 -94 -154 t-87 -121q-90 -145 -164 -357q-5 -19 -14.5 -26.5t-35.5 -7.5h-552q-22 0 -30 7t-13 27q-75 292 -94 372q-27 118 -15 239q3 34 -23 43q-44 14 -68.5 54.5t-24.5 144.5q0 87 29.5 151.5t67.5 64.5q14 0 17 -5.5t1.5 -19t-1.5 -22.5q5 -32 34 -32l75 -7q63 -3 100.5 -42.5 t41.5 -98.5q7 -101 -22 -187q-5 -17 -13 -24.5t-14 -7.5t-18.5 2.5t-18.5 4.5q-44 5 -57 -24t-2 -133q10 -89 42.5 -136t80.5 -47h109q15 32 31 142q14 92 71 167q10 14 7 31t-24 24q-56 19 -76.5 59.5t-20.5 139.5q0 87 30 151.5t67 64.5q14 0 16.5 -5.5t1 -19t-0.5 -22.5 q5 -29 34 -32l72 -7q58 -5 100 -42.5t50 -100.5q14 -97 -15 -183q-7 -22 -19 -27t-31 2q-55 15 -92 -36q-5 -9 -10 -20t-8.5 -24.5t-5 -24t-4.5 -25.5t-3 -21q-19 -113 -81 -191h213q36 0 56.5 14t45.5 44q67 85 171 186q44 44 29 81q-12 27 -60 34z" />
<glyph unicode="&#xfb2c;" horiz-adv-x="1355" d="M1174 1225q31 0 53 -22t22 -52.5t-22 -53t-53 -22.5t-53 22.5t-22 53t22 52.5t53 22zM853 591q31 0 53 -22.5t22 -53t-22 -53t-53 -22.5t-53 22.5t-22 53t22 53t53 22.5zM1063 683q-61 9 -91 52t-30 152q0 87 30 151.5t67 64.5q14 0 17.5 -5.5t1.5 -19t-2 -22.5 q5 -29 33 -34l80 -18q133 -27 133 -209q0 -75 -20 -129q-22 -58 -94 -154t-87 -121q-90 -145 -164 -357q-5 -19 -14.5 -26.5t-35.5 -7.5h-552q-22 0 -30 7t-13 27q-75 292 -94 372q-27 118 -15 239q3 34 -23 43q-44 14 -68.5 54.5t-24.5 144.5q0 87 29.5 151.5t67.5 64.5 q14 0 17 -5.5t1.5 -19t-1.5 -22.5q5 -32 34 -32l75 -7q63 -3 100.5 -42.5t41.5 -98.5q7 -101 -22 -187q-5 -17 -13 -24.5t-14 -7.5t-18.5 2.5t-18.5 4.5q-44 5 -57 -24t-2 -133q10 -89 42.5 -136t80.5 -47h109q15 32 31 142q14 92 71 167q10 14 7 31t-24 24 q-56 19 -76.5 59.5t-20.5 139.5q0 87 30 151.5t67 64.5q14 0 16.5 -5.5t1 -19t-0.5 -22.5q5 -29 34 -32l72 -7q58 -5 100 -42.5t50 -100.5q14 -97 -15 -183q-7 -22 -19 -27t-31 2q-55 15 -92 -36q-5 -9 -10 -20t-8.5 -24.5t-5 -24t-4.5 -25.5t-3 -21q-19 -113 -81 -191h213 q36 0 56.5 14t45.5 44q67 85 171 186q44 44 29 81q-12 27 -60 34z" />
<glyph unicode="&#xfb2d;" horiz-adv-x="1355" d="M272.5 1225q30.5 0 53 -22t22.5 -52.5t-22.5 -53t-53 -22.5t-52.5 22.5t-22 53t22 52.5t52.5 22zM853 591q31 0 53 -22.5t22 -53t-22 -53t-53 -22.5t-53 22.5t-22 53t22 53t53 22.5zM1063 683q-61 9 -91 52t-30 152q0 87 30 151.5t67 64.5q14 0 17.5 -5.5t1.5 -19 t-2 -22.5q5 -29 33 -34l80 -18q133 -27 133 -209q0 -75 -20 -129q-22 -58 -94 -154t-87 -121q-90 -145 -164 -357q-5 -19 -14.5 -26.5t-35.5 -7.5h-552q-22 0 -30 7t-13 27q-75 292 -94 372q-27 118 -15 239q3 34 -23 43q-44 14 -68.5 54.5t-24.5 144.5q0 87 29.5 151.5 t67.5 64.5q14 0 17 -5.5t1.5 -19t-1.5 -22.5q5 -32 34 -32l75 -7q63 -3 100.5 -42.5t41.5 -98.5q7 -101 -22 -187q-5 -17 -13 -24.5t-14 -7.5t-18.5 2.5t-18.5 4.5q-44 5 -57 -24t-2 -133q10 -89 42.5 -136t80.5 -47h109q15 32 31 142q14 92 71 167q10 14 7 31t-24 24 q-56 19 -76.5 59.5t-20.5 139.5q0 87 30 151.5t67 64.5q14 0 16.5 -5.5t1 -19t-0.5 -22.5q5 -29 34 -32l72 -7q58 -5 100 -42.5t50 -100.5q14 -97 -15 -183q-7 -22 -19 -27t-31 2q-55 15 -92 -36q-5 -9 -10 -20t-8.5 -24.5t-5 -24t-4.5 -25.5t-3 -21q-19 -113 -81 -191h213 q36 0 56.5 14t45.5 44q67 85 171 186q44 44 29 81q-12 27 -60 34z" />
<glyph unicode="&#xfb2e;" horiz-adv-x="1058" d="M358 -118h342v-121h-342v121zM309 973l377 -393q9 77 31 115q-48 27 -79.5 85t-33.5 133q0 53 17 109.5t46 74.5q10 7 21.5 2t16.5 -19q0 -2 1.5 -13t4 -17t11 -14.5t24.5 -11.5l95 -19q61 -12 97.5 -49.5t44 -92t4 -103t-15.5 -103.5q-7 -26 -18 -32.5t-22 -0.5 t-32.5 14.5t-38.5 8.5q-44 0 -66 -51q-17 -51 -13 -88t23 -57l97 -105q58 -60 69 -134t-13.5 -129.5t-69.5 -82.5q-34 -22 -70 -12q-7 2 -12.5 17t-18.5 41.5t-33 47.5l-415 445q-67 -22 -72 -83q-5 -43 18 -74.5t58 -55.5t71 -51.5t61.5 -75t23.5 -110.5q0 -55 -10 -72 t-41 -17h-341q-36 0 -47 29t8 63q9 15 40 18t35 9q14 39 2.5 65t-28.5 86.5t-14 116.5q10 171 156 234l-67 68q-38 38 -61 76q-36 61 -23.5 151.5t64.5 141.5q17 15 40 20.5t35 -6.5q7 -7 24 -41t39 -58z" />
<glyph unicode="&#xfb2f;" horiz-adv-x="1058" d="M358 -239v121h342v-121h-111v-160h-120v160h-111zM309 973l377 -393q9 77 31 115q-48 27 -79.5 85t-33.5 133q0 53 17 109.5t46 74.5q10 7 21.5 2t16.5 -19q0 -2 1.5 -13t4 -17t11 -14.5t24.5 -11.5l95 -19q61 -12 97.5 -49.5t44 -92t4 -103t-15.5 -103.5 q-7 -26 -18 -32.5t-22 -0.5t-32.5 14.5t-38.5 8.5q-44 0 -66 -51q-17 -51 -13 -88t23 -57l97 -105q58 -60 69 -134t-13.5 -129.5t-69.5 -82.5q-34 -22 -70 -12q-7 2 -12.5 17t-18.5 41.5t-33 47.5l-415 445q-67 -22 -72 -83q-5 -43 18 -74.5t58 -55.5t71 -51.5t61.5 -75 t23.5 -110.5q0 -55 -10 -72t-41 -17h-341q-36 0 -47 29t8 63q9 15 40 18t35 9q14 39 2.5 65t-28.5 86.5t-14 116.5q10 171 156 234l-67 68q-38 38 -61 76q-36 61 -23.5 151.5t64.5 141.5q17 15 40 20.5t35 -6.5q7 -7 24 -41t39 -58z" />
<glyph unicode="&#xfb30;" horiz-adv-x="1058" d="M577 234q31 0 53 -22.5t22 -53t-22 -53t-53 -22.5t-53 22.5t-22 53t22 53t53 22.5zM309 973l377 -393q9 77 31 115q-48 27 -79.5 85t-33.5 133q0 53 17 109.5t46 74.5q10 7 21.5 2t16.5 -19q0 -2 1.5 -13t4 -17t11 -14.5t24.5 -11.5l95 -19q61 -12 97.5 -49.5t44 -92 t4 -103t-15.5 -103.5q-7 -26 -18 -32.5t-22 -0.5t-32.5 14.5t-38.5 8.5q-44 0 -66 -51q-17 -51 -13 -88t23 -57l97 -105q58 -60 69 -134t-13.5 -129.5t-69.5 -82.5q-34 -22 -70 -12q-7 2 -12.5 17t-18.5 41.5t-33 47.5l-415 445q-67 -22 -72 -83q-5 -43 18 -74.5t58 -55.5 t71 -51.5t61.5 -75t23.5 -110.5q0 -55 -10 -72t-41 -17h-341q-36 0 -47 29t8 63q9 15 40 18t35 9q14 39 2.5 65t-28.5 86.5t-14 116.5q10 171 156 234l-67 68q-38 38 -61 76q-36 61 -23.5 151.5t64.5 141.5q17 15 40 20.5t35 -6.5q7 -7 24 -41t39 -58z" />
<glyph unicode="&#xfb31;" horiz-adv-x="894" d="M451 591q31 0 53 -22.5t22 -53t-22 -53t-53 -22.5t-53 22.5t-22 53t22 53t53 22.5zM835 324q26 0 31.5 -11t-2.5 -30l-67 -249q-5 -19 -14.5 -26.5t-33.5 -7.5h-655q-27 0 -32.5 11t1.5 32l65 259q3 14 11 18t27 4h372q55 0 68 9q24 15 45 68t21 118q0 99 -44 135 q-22 20 -50 24.5t-78 4.5h-258q-75 0 -109 46t-34 158q0 87 29 151.5t67 64.5q14 0 17 -5.5t1.5 -19t-0.5 -22.5q2 -14 12.5 -23t20.5 -9h379q48 0 82 -19.5t53.5 -50.5t30.5 -79.5t14.5 -94.5t3.5 -111q0 -87 -23 -175t-59 -151q-3 -5 -0.5 -12t9.5 -7h99z" />
<glyph unicode="&#xfb32;" horiz-adv-x="655" d="M236 594q31 0 53 -22.5t22 -53t-22 -53t-53 -22.5t-53 22.5t-22 53t22 53t53 22.5zM131 324h64q99 0 145.5 42t58.5 122q12 99 -6.5 147t-85.5 48h-41q-75 0 -109 46t-34 158q0 87 29 151.5t66 64.5q14 0 17.5 -5.5t2 -19t-0.5 -22.5q2 -14 12 -23t21 -9h114 q12 0 25.5 -1.5t39 -12t43 -27.5t27.5 -53t5 -85q-5 -41 -13.5 -82t-13 -71t-4.5 -69q2 -53 23.5 -101.5t48 -83.5t47.5 -96.5t21 -136.5q0 -73 -15.5 -142.5t-38.5 -69.5q-10 0 -19.5 4.5t-16.5 13.5t-12 17t-12 25t-9.5 25.5t-8.5 29t-8 27.5q-41 133 -75 133 q-26 0 -75 -142l-34 -92q-7 -20 -16.5 -27t-34.5 -7h-198q-27 0 -32.5 11t1.5 32l67 259q3 14 10.5 18t24.5 4z" />
<glyph unicode="&#xfb33;" horiz-adv-x="887" d="M444 591q31 0 53 -22.5t22 -53t-22 -53t-53 -22.5t-53 22.5t-22 53t22 53t53 22.5zM196 1024h570q36 0 57.5 -21.5t23.5 -63.5l-2 -188q0 -17 -2.5 -28t-10.5 -20.5t-11.5 -13t-18 -13.5t-17.5 -14q-38 -29 -57.5 -77.5t-19.5 -92.5q0 -49 26.5 -128t31.5 -113 q17 -109 -36 -190q-19 -29 -56 -47.5t-63.5 -18.5t-37.5 12q-3 7 -3 10t1 7.5t4.5 19t6 36.5t4 70t3.5 109q0 9 -2 50t-2 73.5t7 83.5t24 97q12 34 27.5 58t25 33.5t9.5 14.5q0 9 -8 11.5t-28 2.5h-449q-75 0 -109.5 46t-34.5 158q0 87 29.5 151.5t66.5 64.5q14 0 17.5 -5.5 t1.5 -19t0 -22.5q2 -14 12 -23t20 -9z" />
<glyph unicode="&#xfb34;" horiz-adv-x="950" d="M473 591q31 0 53 -22.5t22 -53t-22 -53t-53 -22.5t-53 22.5t-22 53t22 53t53 22.5zM220 1024h587q38 0 59 -21.5t21 -63.5v-166q0 -39 -9 -63t-24.5 -44.5t-22.5 -35.5q-24 -60 -25.5 -114.5t8.5 -88.5t29 -87t26 -89q22 -109 -29 -190q-19 -29 -55.5 -47.5t-63 -18.5 t-37.5 12q-3 7 -4 9.5t1 8.5t4.5 18t4 37.5t2.5 69t-3 109.5q0 9 -3 50t-4 73.5t5 83.5t20 97q12 34 27 58t24.5 33.5t9.5 14.5q0 9 -7 11.5t-29 2.5h-515q-75 0 -109.5 46t-34.5 158q0 87 29 151.5t67 64.5q14 0 17 -5.5t1.5 -19t0.5 -22.5q2 -14 12 -23t20 -9zM271 502 q12 0 16.5 -3.5t0.5 -10.5q-17 -32 -10 -223v-67.5t-8.5 -64t-25.5 -56.5q-27 -38 -76 -58.5t-71 -18.5q-27 2 -17 17q12 22 14 176q2 14 1 55.5t0.5 58t4 45.5t9.5 46.5t19 31.5q61 72 143 72z" />
<glyph unicode="&#xfb35;" horiz-adv-x="561" d="M237 594q31 0 53 -22.5t22 -53t-22 -53t-53 -22.5t-53 22.5t-22 53t22 53t53 22.5zM215 1024h97q46 0 79.5 -14.5t51.5 -36.5t29 -54.5t13.5 -59t2.5 -60.5v-674q0 -39 -10 -70q-9 -26 -41.5 -46.5t-47.5 -18.5q-20 2 -20 20v531q0 27 -2.5 46t-14 43.5t-38.5 38.5 t-68 14h-36q-75 0 -109 46t-34 158q0 87 29.5 151.5t67.5 64.5q14 0 17 -5.5t1.5 -19t-1.5 -22.5q2 -14 13 -23t21 -9z" />
<glyph unicode="&#xfb36;" horiz-adv-x="617" d="M109 591q31 0 53 -22.5t22 -53t-22 -53t-53 -22.5t-53 22.5t-22 53t22 53t53 22.5zM239 1024h97q133 0 188 -75q34 -44 40 -116t-6 -125t-26 -75q-9 -12 -36 6t-51 31.5t-49 -13.5q-19 -29 -21.5 -83.5t5 -99t24 -120.5t19.5 -103q19 -109 -36 -190q-19 -29 -56.5 -47.5 t-63.5 -18.5t-37 12q-3 7 -3 10t1.5 7.5t4 19t5.5 36.5t5.5 70t2.5 109q0 2 -2 64.5t0.5 110t13.5 88.5q10 39 21 65.5t18 36t11 19t2 21.5q-2 7 -3.5 11t-7.5 6t-8.5 2h-10h-9.5h-36q-75 0 -109 46t-34 158q0 87 30 151.5t67 64.5q14 0 16.5 -5.5t1 -19t-0.5 -22.5 q2 -14 12.5 -23t20.5 -9z" />
<glyph unicode="&#xfb37;" horiz-adv-x="1032" d="M534 591q31 0 53 -22.5t22 -53t-22 -53t-53 -22.5t-53 22.5t-22 53t22 53t53 22.5zM224 683q-75 12 -109.5 54.5t-34.5 149.5q0 87 29 151.5t68 64.5q12 0 15.5 -5.5t2 -19t0.5 -22.5q2 -14 12 -23t20 -9h655q36 0 57.5 -21.5t21.5 -63.5v-166q0 -39 -9.5 -63t-25 -44.5 t-20.5 -35.5q-24 -60 -25.5 -114.5t8.5 -88.5t28 -87t27 -89q20 -109 -31 -190q-17 -29 -53.5 -47.5t-63 -18.5t-38.5 12q-5 10 0 29.5t11 67.5t-4 155q0 5 -6 49.5t-8 74.5t2.5 82t19.5 98q10 34 25.5 58t25 33.5t9.5 14.5q0 9 -7 11.5t-29 2.5h-370q-70 0 -103 -53 q-27 -44 -34 -114.5t-1 -127.5t22 -137q20 -106 -36 -190q-20 -29 -57 -47.5t-63.5 -18.5t-36.5 12q-5 26 -1 26.5t11 63.5t5 162q-3 183 21 277q9 36 30 65.5t39 46t18 23.5q2 5 -2.5 7.5t-14.5 4.5z" />
<glyph unicode="&#xfb38;" horiz-adv-x="1049" d="M631 560q31 0 53 -22.5t22 -53t-22 -53t-53 -22.5t-53 22.5t-22 53t22 53t53 22.5zM160 683q-53 10 -76.5 52.5t-23.5 151.5q0 87 29 151.5t66 64.5q14 0 17.5 -5.5t1.5 -19t0 -22.5q2 -14 12 -23t21 -9h47q85 0 139 -63q31 -39 41.5 -95.5t2 -111t-30.5 -102.5 q-3 -9 -9 -11.5t-16.5 2t-13.5 6t-15 10.5q-19 12 -33.5 5t-21.5 -29q-32 -109 -12 -193q27 -118 99 -118h437q39 0 57 13t23 42q17 128 -20.5 206.5t-115.5 97.5q-43 10 -81.5 0.5t-64 -33.5t-40 -41.5t-24.5 -36.5q-7 -14 -18 -24t-22.5 -15.5t-21.5 0t-15 22.5 q-5 14 3.5 66.5t31.5 122.5t57 135.5t88.5 110t118.5 41.5q46 -2 83.5 -22.5t60.5 -48.5t40 -71.5t25.5 -80.5t13 -88t5 -80t0.5 -70q0 -295 -111 -536q-10 -22 -19.5 -28t-29.5 -6h-591q-39 0 -42 34q-12 101 -26 187t-20.5 119.5t-6.5 75t10 96.5q7 38 22.5 78.5 t16.5 56.5q1 29 -48 36z" />
<glyph unicode="&#xfb39;" horiz-adv-x="580" d="M176 640q31 0 53 -22.5t22 -53t-22 -53t-53 -22.5t-53 22.5t-22 53t22 53t53 22.5zM215 1024h125q97 0 142 -56.5t45 -151.5q0 -89 -20.5 -150.5t-64.5 -134.5q-46 -75 -118 -132q-24 -19 -48.5 -20.5t-36.5 14.5q-12 14 -7 36.5t24 41.5q79 82 102 131q15 43 3.5 62 t-40.5 19h-109q-75 0 -109.5 46t-34.5 158q0 87 29 151.5t67 64.5q14 0 17 -5.5t1.5 -19t0.5 -22.5q2 -14 12 -23t20 -9z" />
<glyph unicode="&#xfb3a;" horiz-adv-x="913" d="M444 591q31 0 53 -22.5t22 -53t-22 -53t-53 -22.5t-53 22.5t-22 53t22 53t53 22.5zM207 1024h510q137 0 136 -177q0 -41 -7.5 -74.5t-32.5 -61.5t-65 -28q0 -15 20 -397t20 -556q0 -92 -52 -143q-27 -27 -65 -39t-48 8q-3 5 -3 8.5t0.5 8t4 19t6 37.5t5 70t2.5 110 q0 14 8.5 399.5t10.5 474.5h-454q-75 0 -109 46t-34 158q0 87 29 151.5t66 64.5q14 0 17.5 -5.5t1.5 -19t0 -22.5q2 -14 12.5 -23t20.5 -9z" />
<glyph unicode="&#xfb3b;" horiz-adv-x="843" d="M437 591q31 0 53 -22.5t22 -53t-22 -53t-53 -22.5t-53 22.5t-22 53t22 53t53 22.5zM90 0q-27 0 -32 11t2 32l66 259q3 14 10 18t26 4h343q104 0 158 46t54 130q0 94 -46 138.5t-157 44.5h-290q-75 0 -109.5 46t-34.5 158q0 87 30 151.5t67 64.5q14 0 17.5 -5.5t2 -19 t-1.5 -22.5q2 -14 12.5 -23t21.5 -9h293q61 0 110 -22t79.5 -64t52 -90t32.5 -110t16 -113.5t7 -110.5q2 -65 -5.5 -131t-29 -136t-55 -123.5t-89.5 -88.5t-126 -35h-424z" />
<glyph unicode="&#xfb3c;" horiz-adv-x="885" d="M403 591q31 0 53 -22.5t22 -53t-22 -53t-53 -22.5t-53 22.5t-22 53t22 53t53 22.5zM503 172q2 -9 6.5 -31t6 -39t0 -37.5t-14.5 -37.5t-37 -27q-44 -20 -88.5 5.5t-47.5 81.5q-2 67 22.5 114.5t79.5 98.5q46 41 100 80.5t86.5 70t64.5 85.5q26 44 4.5 95.5t-67.5 51.5 h-517q-14 0 -18 6.5t-6 22.5q-14 186 0 346q3 32 9 77.5t9.5 69.5t2 48t-10.5 37q-12 19 -39.5 28.5t-44.5 25.5t-13 55q3 48 18.5 89t31 61.5t21.5 20.5q14 0 26 -18t31 -25q9 -3 28.5 -8t31 -9.5t27 -13.5t25 -25.5t14.5 -38.5q9 -36 -5.5 -73.5t-37 -84.5t-29.5 -93 q-2 -41 -2.5 -76t30 -58t95.5 -23h478q22 0 36 -8.5t19 -35.5q32 -160 19 -301q-3 -38 -7.5 -65t-17.5 -69.5t-38 -77.5t-62 -61q-15 -10 -58.5 -38t-64 -43.5t-49 -41t-39 -53t-8.5 -58.5z" />
<glyph unicode="&#xfb3d;" horiz-adv-x="943" d="M492 591q31 0 53 -22.5t22 -53t-22 -53t-53 -22.5t-53 22.5t-22 53t22 53t53 22.5zM259 324h463q27 0 41.5 10.5t14.5 42.5v140q0 75 -29.5 120.5t-88.5 45.5h-339q-58 0 -88 -45.5t-30 -120.5v-140q0 -32 14.5 -42.5t41.5 -10.5zM195 705q-94 26 -94 182 q0 87 29.5 151.5t67.5 64.5q14 0 16.5 -5.5t0.5 -19t0 -22.5q2 -14 12 -23t22 -9h357q41 0 71 -1.5t57 -8.5t44 -14t33.5 -25.5t26 -34t17 -51.5t11 -65t6 -85t2.5 -103v-127v-442q0 -67 -67 -67h-647q-63 0 -63 60v432q1 152 98 213z" />
<glyph unicode="&#xfb3e;" horiz-adv-x="979" d="M580 571q31 0 53 -22.5t22 -53t-22 -53t-53 -22.5t-53 22.5t-22 53t22 53t53 22.5zM254 676q-94 14 -134 64t-40 147q0 87 30 151.5t67 64.5q14 0 16.5 -5.5t1 -19t0.5 -22.5q2 -12 12 -20.5t22 -9.5q126 -15 170 -111q29 -60 17 -181q19 10 35.5 22t30 28t24.5 29t22 35 t18 33.5t16.5 37t13 35t12.5 37.5t11 33q7 22 14.5 26.5t28.5 0.5q300 -63 300 -524q0 -268 -73 -501q-9 -26 -38 -26h-408q-27 0 -32 11t2 32l70 259q3 14 10.5 18t24.5 4h255q46 0 70 28q26 27 33.5 77.5t-13.5 108.5q-24 63 -86 104t-165 41q-160 0 -256.5 -147 t-82.5 -423q3 -65 -18.5 -84.5t-101.5 -40.5q-34 -9 -34 26q0 171 36 327q38 159 153 284q15 14 6.5 31t-40.5 20z" />
<glyph unicode="&#xfb3f;" horiz-adv-x="597" d="M174 591q31 0 53 -22.5t22 -53t-22 -53t-53 -22.5t-53 22.5t-22 53t22 53t53 22.5zM207 1024h187q44 0 76.5 -19.5t49 -51t24 -63.5t7.5 -64q0 -80 -19.5 -140.5t-67.5 -132.5q-58 -85 -58 -155q0 -43 18 -324t15 -344q-3 -55 -14.5 -88t-38.5 -55q-32 -29 -68 -39.5 t-50 8.5q-7 26 -3.5 32t12 70t10.5 151q0 22 5 147.5t12 276.5t8 211q2 41 30 96.5t28 90.5q0 22 -16 37t-38 15h-113q-75 0 -109 46t-34 158q0 87 29.5 151.5t67.5 64.5q12 0 15.5 -5.5t1.5 -19t0 -22.5q2 -14 12.5 -23t20.5 -9z" />
<glyph unicode="&#xfb40;" horiz-adv-x="626" d="M268 591q31 0 53 -22.5t22 -53t-22 -53t-53 -22.5t-53 22.5t-22 53t22 53t53 22.5zM273 1024h131q138 0 142 -157q2 -26 -14 -114q-24 -148 -23 -219q0 -67 27 -173.5t29 -147.5q9 -99 -19 -177q-3 -14 -7.5 -20t-15.5 -11t-33 -5h-434q-26 0 -31.5 11t2.5 32l65 259 q3 14 11 18t25 4h222q51 0 63 38q5 27 5 43.5t-2.5 56.5t-4.5 62q0 43 7 78.5t4 49.5q-7 31 -70 31h-82q-75 0 -109.5 46t-34.5 158q0 87 30 151.5t68 64.5q14 0 16 -5.5t0.5 -19t0.5 -22.5q2 -14 12 -23t20 -9z" />
<glyph unicode="&#xfb41;" horiz-adv-x="894" d="M478 591q31 0 53 -22.5t22 -53t-22 -53t-53 -22.5t-53 22.5t-22 53t22 53t53 22.5zM768 507q0 97 -51 136.5t-154 39.5h-309q-51 -70 -51 -162q0 -118 71 -163.5t204 -45.5q68 0 116.5 8t89.5 27.5t62.5 59t21.5 100.5zM167 698q-38 34 -53 76t-15 113q0 87 29 151.5 t67 64.5q14 0 17 -5.5t1.5 -19t-0.5 -22.5q2 -14 12.5 -23t20.5 -9h309q51 0 94.5 -12t74 -32.5t54.5 -49.5t38.5 -62t25.5 -71t15.5 -76t8 -75.5t1.5 -72t0 -64.5q0 -90 -12 -165.5t-40 -143t-73.5 -112.5t-116 -72.5t-164.5 -27.5q-369 0 -369 432q0 101 24.5 174 t50.5 104z" />
<glyph unicode="&#xfb42;" horiz-adv-x="972" d="M553 680q31 0 53 -22.5t22 -53t-22 -53t-53 -22.5t-53 22.5t-22 53t22 53t53 22.5zM713 683q-143 31 -143 204q0 87 30 151.5t67 64.5q14 0 16.5 -5.5t1 -19t-0.5 -22.5q5 -32 35 -32h40q68 0 121.5 -40t56.5 -126q2 -44 -17 -86.5t-56.5 -94t-44.5 -64.5 q-19 -34 -33.5 -73.5t-20.5 -61t-17 -81t-16 -76.5q-2 -10 -9.5 -49.5t-11.5 -59t-13.5 -52t-20 -57t-23.5 -43.5q-44 -67 -95.5 -105.5t-125.5 -72.5l-320 -150q-22 -10 -30 -5t-6 31l20 290q2 22 10.5 31.5t25.5 16.5l241 92q22 9 41.5 25t19.5 29q2 17 -17 31.5t-54 34.5 t-53 38q-58 53 -69 142q-3 36 4 92.5t5 64.5q-2 19 -8 22.5t-36 11.5q-70 15 -102 63t-32 145q0 87 29 151.5t67 64.5q14 0 17 -5.5t1.5 -19t0.5 -22.5q5 -31 32 -32l55 -2q27 -2 75 -19t70 -51q24 -38 32.5 -89.5t5 -95t-13.5 -78.5q-9 -27 -30 -25t-40 11t-36 -13 q-15 -20 7 -53q20 -26 50 -46t56.5 -44t46.5 -68q36 -87 9 -200q44 29 62 61.5t33.5 86t35.5 94.5q15 27 35 59.5t33 51.5t21.5 37.5t4.5 28.5t-19 13z" />
<glyph unicode="&#xfb43;" horiz-adv-x="933" d="M616 540q31 0 53 -22.5t22 -53t-22 -53t-53 -22.5t-53 22.5t-22 53t22 53t53 22.5zM410 683q-44 0 -78.5 -18t-47.5 -42t-1 -39q5 -9 13.5 -11.5t20 -1.5t28.5 -1q121 -14 133 -140q5 -51 -5 -96.5t-45 -45.5q-20 0 -32 6t-15.5 12t-10.5 22q-19 34 -80 34q-63 0 -80 -31 q-9 -15 -14 -22t-16 -13t-28 -6q-32 0 -45 13t-13 40q0 102 19 172q15 60 45 97.5t78 70.5q-90 0 -126.5 45t-36.5 159q0 87 30 151.5t68 64.5q12 0 15 -5.5t1.5 -19t0.5 -22.5q2 -14 12 -23t20 -9h408q90 0 133 -20.5t63 -87.5q22 -75 33 -343q29 -759 29 -832 q0 -102 -53 -154q-27 -27 -65 -39t-48 8q-5 26 -3 27t9.5 65.5t9.5 160.5q15 515 22 703q3 90 -35.5 130.5t-118.5 40.5h-194z" />
<glyph unicode="&#xfb44;" horiz-adv-x="960" d="M649 591q31 0 53 -22.5t22 -53t-22 -53t-53 -22.5t-53 22.5t-22 53t22 53t53 22.5zM97 0q-26 0 -31.5 11t2.5 32l69 259q3 14 10 18t25 4h439q53 0 90.5 14.5t57 34.5t31.5 48t14.5 48.5t2.5 42.5q0 171 -187 171h-168q-44 0 -77.5 -14t-45.5 -30t-3 -28q3 -5 9 -7.5 t10.5 -2.5h14.5h15q56 0 88 -25t44 -83q7 -36 -4 -67.5t-47 -31.5q-19 0 -31 5t-15.5 9.5t-11.5 16.5q-17 29 -81 29q-61 0 -78 -26q-9 -12 -14 -18t-17 -11t-29 -5q-32 0 -45 11t-11 34q2 60 25 117q32 84 118 127q-99 0 -138 42.5t-39 161.5q0 87 29 151.5t68 64.5 q12 0 15.5 -5.5t1.5 -19t0 -22.5q2 -14 12 -23t21 -9h407q49 0 77 -2.5t57.5 -13t48.5 -32.5t29 -60q53 -184 53 -397q0 -239 -82 -485q-5 -14 -7.5 -19t-12 -10t-26.5 -5h-683z" />
<glyph unicode="&#xfb45;" horiz-adv-x="1053" d="M546 748q31 0 53 -22.5t22 -53t-22 -53t-53 -22.5t-53 22.5t-22 53t22 53t53 22.5zM688 683q-51 26 -76 71.5t-25 132.5t29 151.5t67 64.5q14 0 17 -5.5t1.5 -19t-1.5 -22.5q3 -14 13.5 -23t20.5 -9l99 -7q49 -3 84 -24.5t51.5 -51.5t23 -52t8.5 -42q7 -101 -29 -171 q-5 -14 -14.5 -18t-18 -2.5t-24 6.5t-27.5 7q-80 10 -112 -24q-155 -166 -226 -284.5t-75 -259.5q-2 -75 31 -196.5t31 -174.5q-3 -97 -53 -143q-26 -24 -61 -34t-61 -7t-32 17q-5 24 -1.5 30t10.5 67.5t7 148.5q0 12 -15.5 150t-26.5 309.5t-4 281.5q0 17 5 42.5t5 38 t-4.5 27t-23 20t-51.5 5.5q-162 0 -162 204q0 87 30 151.5t68 64.5q14 0 16 -5.5t0.5 -19t0.5 -22.5q2 -14 12 -23t22 -9h109q77 0 119.5 -48.5t42.5 -135.5q-2 -56 -15.5 -93t-45.5 -90q-29 -46 -29 -84q-3 -145 18 -259q20 56 49.5 105.5t74.5 103.5t67.5 77t80.5 83z" />
<glyph unicode="&#xfb46;" horiz-adv-x="994" d="M280 560q31 0 53 -22.5t22 -53t-22 -53t-53 -22.5t-53 22.5t-22 53t22 53t53 22.5zM200 324h438q-119 53 -184 132q-67 82 -75 184q-2 29 -14.5 36t-41.5 7h-58q-41 0 -70 6.5t-57.5 27t-43 63.5t-14.5 107q0 85 34 150.5t74 65.5q12 0 15.5 -5.5t1.5 -19t0 -22.5 q2 -14 12 -23t20 -9h77q89 0 121.5 -43.5t32.5 -139.5q0 -24 -6 -69t-4.5 -79t18.5 -68q5 -12 13 -22.5t19 -20t16 -13.5t20.5 -14.5t16.5 -11.5q60 87 94 140q-61 26 -80.5 69t-19.5 135q0 87 29.5 151.5t67.5 64.5q14 0 16.5 -5.5t0.5 -19t0 -22.5q2 -14 12 -23t22 -9h53 q113 0 155 -99q24 -58 21.5 -126.5t-29.5 -122.5q-7 -14 -16.5 -15t-20.5 4.5t-29 11.5t-35 6q-39 0 -60 -29l-107 -157q26 -17 81 -43t105.5 -56.5t86.5 -74.5q17 -20 7 -62l-60 -227q-5 -19 -14.5 -26.5t-33.5 -7.5h-679q-26 0 -32 11t3 32l65 259q3 14 10 18t26 4z" />
<glyph unicode="&#xfb47;" horiz-adv-x="928" d="M440 591q31 0 53 -22.5t22 -53t-22 -53t-53 -22.5t-53 22.5t-22 53t22 53t53 22.5zM220 1024h475q55 0 93 -21.5t58.5 -51t31.5 -77.5t13.5 -83t2.5 -86q0 -131 -42.5 -212.5t-136.5 -140.5q-26 -15 -101.5 -57t-106.5 -68t-29 -51q2 -9 6 -31t6 -40t0 -38.5t-14.5 -36.5 t-36.5 -27q-55 -22 -93.5 3t-43.5 84q-5 67 38.5 133.5t116.5 121.5q22 15 103.5 57.5t130 83.5t53.5 89q3 31 -4.5 52.5t-19.5 32.5t-35 16t-38.5 6t-44.5 1h-10h-377q-75 0 -109 46t-34 158q0 87 29.5 151.5t67.5 64.5q14 0 17 -5.5t1.5 -19t-1.5 -22.5q3 -14 13.5 -23 t20.5 -9zM227 280q-2 -97 3.5 -288.5t1.5 -240.5q-2 -15 0 -58t-2.5 -67t-17.5 -37q-27 -22 -69 -36t-53 2q-3 7 -3 9.5t1.5 5.5t4.5 16t5.5 31.5t5 59t2.5 94.5q0 97 -4.5 288.5t-0.5 240.5q0 15 0.5 44.5t0.5 47.5t5.5 38.5t13.5 30.5q14 17 40.5 29t45 11t25.5 -6 q2 -5 3 -6t1.5 -4.5t0 -5t-1.5 -8.5t-2 -14.5t-2 -24t-1.5 -36t-1.5 -50t-1 -66.5z" />
<glyph unicode="&#xfb48;" horiz-adv-x="878" d="M502 536q31 0 53 -22.5t22 -53t-22 -53t-53 -22.5t-53 22.5t-22 53t22 53t53 22.5zM207 1024h418q65 0 109 -23t63.5 -65.5t27.5 -84.5t8 -97v-629q0 -39 -10 -70q-9 -26 -41.5 -46.5t-47.5 -18.5q-20 2 -21 20v505q0 34 -5 60t-20.5 52.5t-47.5 41t-82 14.5h-357 q-75 0 -109 46t-34 158q0 87 30 151.5t67 64.5q14 0 17.5 -5.5t1.5 -19t-2 -22.5q2 -14 13.5 -23t21.5 -9z" />
<glyph unicode="&#xfb49;" horiz-adv-x="1355" d="M853 591q31 0 53 -22.5t22 -53t-22 -53t-53 -22.5t-53 22.5t-22 53t22 53t53 22.5zM1063 683q-61 9 -91 52t-30 152q0 87 30 151.5t67 64.5q14 0 17.5 -5.5t1.5 -19t-2 -22.5q5 -29 33 -34l80 -18q133 -27 133 -209q0 -75 -20 -129q-22 -58 -94 -154t-87 -121 q-90 -145 -164 -357q-5 -19 -14.5 -26.5t-35.5 -7.5h-552q-22 0 -30 7t-13 27q-75 292 -94 372q-27 118 -15 239q3 34 -23 43q-44 14 -68.5 54.5t-24.5 144.5q0 87 29.5 151.5t67.5 64.5q14 0 17 -5.5t1.5 -19t-1.5 -22.5q5 -32 34 -32l75 -7q63 -3 100.5 -42.5t41.5 -98.5 q7 -101 -22 -187q-5 -17 -13 -24.5t-14 -7.5t-18.5 2.5t-18.5 4.5q-44 5 -57 -24t-2 -133q10 -89 42.5 -136t80.5 -47h109q15 32 31 142q14 92 71 167q10 14 7 31t-24 24q-56 19 -76.5 59.5t-20.5 139.5q0 87 30 151.5t67 64.5q14 0 16.5 -5.5t1 -19t-0.5 -22.5 q5 -29 34 -32l72 -7q58 -5 100 -42.5t50 -100.5q14 -97 -15 -183q-7 -22 -19 -27t-31 2q-55 15 -92 -36q-5 -9 -10 -20t-8.5 -24.5t-5 -24t-4.5 -25.5t-3 -21q-19 -113 -81 -191h213q36 0 56.5 14t45.5 44q67 85 171 186q44 44 29 81q-12 27 -60 34z" />
<glyph unicode="&#xfb4a;" horiz-adv-x="1015" d="M606 591q31 0 53 -22.5t22 -53t-22 -53t-53 -22.5t-53 22.5t-22 53t22 53t53 22.5zM46 0q-26 0 -31.5 11t2.5 32l65 259q3 14 11 18t25 4h73q27 0 39 13t9.5 30t-3.5 36q-14 84 0 152q7 39 25.5 74t38.5 54q-75 0 -109 46t-34 158q0 87 30 151.5t67 64.5q14 0 17.5 -5.5 t1.5 -19t-2 -22.5q2 -14 13 -23t21 -9h449q65 0 109.5 -23t64 -65.5t27.5 -84.5t8 -97v-629q0 -39 -11 -70q-9 -26 -41 -46.5t-47 -18.5q-20 2 -21 20v505q0 34 -5 60t-20.5 52.5t-48 41t-81.5 14.5h-275q-70 -80 -70 -181q0 -61 26 -144q24 -80 24 -177q0 -84 -38 -155 q-10 -17 -18 -21.5t-30 -4.5h-261z" />
<glyph unicode="&#xfb4b;" horiz-adv-x="561" d="M305 1266q31 0 53 -22t22 -52.5t-22 -53t-53 -22.5t-53 22.5t-22 53t22 52.5t53 22zM215 1024h97q46 0 79.5 -14.5t51.5 -36.5t29 -54.5t13.5 -59t2.5 -60.5v-674q0 -39 -10 -70q-9 -26 -41.5 -46.5t-47.5 -18.5q-20 2 -20 20v531q0 27 -2.5 46t-14 43.5t-38.5 38.5 t-68 14h-36q-75 0 -109 46t-34 158q0 87 29.5 151.5t67.5 64.5q14 0 17 -5.5t1.5 -19t-1.5 -22.5q2 -14 13 -23t21 -9z" />
<glyph unicode="&#xfb4c;" horiz-adv-x="894" d="M290 1270h342v-120h-342v120zM835 324q26 0 31.5 -11t-2.5 -30l-67 -249q-5 -19 -14.5 -26.5t-33.5 -7.5h-655q-27 0 -32.5 11t1.5 32l65 259q3 14 11 18t27 4h372q55 0 68 9q24 15 45 68t21 118q0 99 -44 135q-22 20 -50 24.5t-78 4.5h-258q-75 0 -109 46t-34 158 q0 87 29 151.5t67 64.5q14 0 17 -5.5t1.5 -19t-0.5 -22.5q2 -14 12.5 -23t20.5 -9h379q48 0 82 -19.5t53.5 -50.5t30.5 -79.5t14.5 -94.5t3.5 -111q0 -87 -23 -175t-59 -151q-3 -5 -0.5 -12t9.5 -7h99z" />
<glyph unicode="&#xfb4d;" horiz-adv-x="843" d="M256 1270h342v-120h-342v120zM90 0q-27 0 -32 11t2 32l66 259q3 14 10 18t26 4h343q104 0 158 46t54 130q0 94 -46 138.5t-157 44.5h-290q-75 0 -109.5 46t-34.5 158q0 87 30 151.5t67 64.5q14 0 17.5 -5.5t2 -19t-1.5 -22.5q2 -14 12.5 -23t21.5 -9h293q61 0 110 -22 t79.5 -64t52 -90t32.5 -110t16 -113.5t7 -110.5q2 -65 -5.5 -131t-29 -136t-55 -123.5t-89.5 -88.5t-126 -35h-424z" />
<glyph unicode="&#xfb4e;" horiz-adv-x="960" d="M321 1270h342v-120h-342v120zM97 0q-26 0 -31.5 11t2.5 32l69 259q3 14 10 18t25 4h439q53 0 90.5 14.5t57 34.5t31.5 48t14.5 48.5t2.5 42.5q0 171 -187 171h-168q-44 0 -77.5 -14t-45.5 -30t-3 -28q3 -5 9 -7.5t10.5 -2.5h14.5h15q56 0 88 -25t44 -83q7 -36 -4 -67.5 t-47 -31.5q-19 0 -31 5t-15.5 9.5t-11.5 16.5q-17 29 -81 29q-61 0 -78 -26q-9 -12 -14 -18t-17 -11t-29 -5q-32 0 -45 11t-11 34q2 60 25 117q32 84 118 127q-99 0 -138 42.5t-39 161.5q0 87 29 151.5t68 64.5q12 0 15.5 -5.5t1.5 -19t0 -22.5q2 -14 12 -23t21 -9h407 q49 0 77 -2.5t57.5 -13t48.5 -32.5t29 -60q53 -184 53 -397q0 -239 -82 -485q-5 -14 -7.5 -19t-12 -10t-26.5 -5h-683z" />
<glyph unicode="&#xfb4f;" horiz-adv-x="1064" d="M138 1181q-12 -80 58 -148l463 -454q5 68 34 117q-46 27 -75 83.5t-29 133.5q0 53 17 109.5t46 74.5q10 7 24.5 3t18.5 -13q2 -2 6 -13.5t7.5 -19.5t14.5 -17.5t25 -12.5l102 -22q61 -10 97 -48t43.5 -92.5t4.5 -104t-15 -103.5q-7 -26 -21.5 -32t-31 0t-42 15.5 t-42.5 9.5q-44 0 -65 -51q-15 -38 -17 -77t12 -58l114 -115q60 -58 74.5 -131t-8.5 -129.5t-66 -85.5q-36 -24 -70 -14q-7 2 -13.5 16.5t-21 40t-34.5 46.5l-651 641q-27 27 -42.5 62.5t-18 82.5t-1.5 77.5t6 88.5q2 12 2 17q3 32 9 77.5t9.5 69.5t1.5 48t-10 37 q-12 19 -39.5 28.5t-43.5 25.5t-14 55q3 48 18.5 89t30.5 61.5t22 20.5q14 0 26 -18t31 -25q9 -3 29 -8t31 -9.5t26.5 -13.5t25 -25.5t14.5 -38.5q9 -36 -6 -73.5t-37 -84.5t-29 -93z" />
</font>
</defs>
</svg>
