<?xml version="1.0" standalone="no"?>
<!DOCTYPE svg PUBLIC "-//W3C//DTD SVG 1.1//EN" "http://www.w3.org/Graphics/SVG/1.1/DTD/svg11.dtd" >
<svg xmlns="http://www.w3.org/2000/svg">
<metadata></metadata>
<defs>
<font id="frank_ruehl_clmmediumoblique" horiz-adv-x="0" >
<font-face units-per-em="2048" ascent="1638" descent="-410" />
<missing-glyph horiz-adv-x="631" />
<glyph horiz-adv-x="1194" d="M410 1126l-330 -1228h717l329 1228h-716zM360 1195h853l-366 -1366h-854z" />
<glyph horiz-adv-x="1194" d="M410 1126l-330 -1228h717l329 1228h-716zM360 1195h853l-366 -1366h-854z" />
<glyph unicode="&#xd;" horiz-adv-x="682" />
<glyph unicode=" "  horiz-adv-x="631" />
<glyph unicode="&#x09;" horiz-adv-x="631" />
<glyph unicode="&#xa0;" horiz-adv-x="631" />
<glyph unicode="!" horiz-adv-x="520" d="M290 444q-7 -17 -25 -36q-24 -26 -33.5 -26t-19.5 26q-9 19 -7 36l63 491q9 67 19 106q43 160 165 160q119 0 75 -162q-9 -32 -37 -102zM61 164l120 121q20 20 31.5 20t21.5 -20l54 -121q12 -27 -15 -55l-118 -121q-22 -22 -33 -22t-21 22l-53 121q-14 28 13 55z" />
<glyph unicode="&#x22;" horiz-adv-x="728" d="M145 645l138 420q3 14 16 36q55 101 165 100q56 0 72.5 -25.5t-10.5 -74.5q-12 -24 -21 -36l-314 -420h-46zM469 645l137 420q5 14 17 36q26 48 70 74t98 26t70 -25.5t-8 -72.5q-7 -10 -25 -38l-313 -420h-46z" />
<glyph unicode="#" horiz-adv-x="972" d="M196 372h-172l31 113h187l93 225h-175l31 113h191l144 348h123l-144 -348h210l143 348h123l-143 -348h169l-31 -113h-186l-92 -225h172l-30 -113h-188l-154 -372h-123l154 372h-210l-153 -372h-123zM457 710l-92 -225h210l92 225h-210z" />
<glyph unicode="$" horiz-adv-x="948" d="M601 1186l49 181h108l-48 -179q130 -12 193 -81t36 -168q-31 -119 -149 -120q-53 0 -73.5 30t-8.5 76q7 29 26 49.5t58 42.5q12 7 14 16q5 19 -28.5 38.5t-93.5 25.5l-105 -396l23 -6q138 -43 205 -123q63 -79 24 -227q-43 -157 -160.5 -252.5t-284.5 -107.5l-55 -207 h-107l54 203q-77 5 -130 24q-85 31 -121.5 97.5t-12.5 150.5q17 65 63 105.5t109 40.5q48 0 69 -30.5t10 -74.5q-19 -72 -103 -117q-17 -7 -19 -17q-9 -27 36 -53.5t123 -33.5l121 446q-80 26 -153 78q-56 41 -75 113t5 155q34 130 140 214.5t261 106.5zM480 734l97 360 q-80 -9 -144 -60t-81 -114q-34 -126 128 -186zM522 492l-111 -417q48 5 86 19q65 24 111.5 72.5t65.5 118.5q36 130 -99 189q-24 11 -53 18z" />
<glyph unicode="%" horiz-adv-x="1447" d="M806 1022q-3 -24 -6 -29q-20 -79 -76.5 -165t-129.5 -150q-143 -130 -283 -130q-96 0 -141 59.5t-22 151.5q24 85 104.5 190.5t174.5 170.5q128 89 240 88q51 0 81 -18t52 -62q56 -38 115 -37q172 0 314 141h104l-1036 -1232h-111l887 1058q-96 -49 -186 -49 q-42 -1 -81 13zM649 1116q-53 -17 -85 -41.5t-95 -101.5q-80 -94 -115 -147t-45 -96q-12 -41 5 -66.5t56 -25.5q92 0 202.5 112t144.5 240q10 32 8 63q-52 20 -76 63zM1229 684q87 0 128 -57t19 -146q-20 -75 -80 -165.5t-139 -163.5q-133 -126 -275 -126q-96 0 -143.5 58.5 t-23.5 147.5q20 72 74 154t126 150q162 148 314 148zM1225 591q-68 0 -165 -113q-164 -184 -186 -271q-10 -38 7.5 -63.5t53.5 -25.5q92 0 205 111t147 237q14 51 -4.5 88t-57.5 37z" />
<glyph unicode="&#x26;" horiz-adv-x="1390" d="M1193 288l73 -10q-39 -99 -104 -167q-63 -68 -128 -99t-147 -31q-70 0 -118.5 25.5t-92.5 89.5q-101 -65 -184.5 -93.5t-175.5 -28.5q-174 0 -243 105q-31 48 -39 114t9 130q31 114 132 211t264 167q-31 152 -4 255q36 137 141 219.5t238 82.5q119 0 175.5 -64t29.5 -167 q-17 -68 -70 -133t-123 -106q-65 -38 -189 -87q77 -276 162 -423q72 65 123 134t64 124q10 39 -23 59.5t-108 20.5h-17l19 73h481l-19 -73h-19q-85 0 -146 -46q-27 -24 -48 -47t-114 -139q-43 -53 -65 -76t-91 -88q68 -104 159 -104q56 0 109 46t89 126zM620 773 q49 20 56 26q167 79 206 225q19 70 -7.5 115t-84.5 45t-108.5 -47.5t-70.5 -121.5q-23 -90 9 -242zM452 631q-89 -44 -136.5 -95t-66.5 -121q-34 -128 26.5 -226.5t173.5 -98.5q43 0 83 14t106 50q-73 126 -109 218t-77 259z" />
<glyph unicode="'" horiz-adv-x="407" d="M145 645l138 420q5 14 17 36q53 101 166 100q55 0 71 -25.5t-10 -74.5q-14 -24 -22 -36l-314 -420h-46z" />
<glyph unicode="(" horiz-adv-x="593" d="M681 1256l7 -68q-157 -113 -254.5 -268t-163 -401t-52 -402t110.5 -269l-41 -58q-72 53 -111.5 97.5t-72.5 107.5q-113 234 -34 529q85 319 350 556q101 91 261 176z" />
<glyph unicode=")" horiz-adv-x="593" d="M-70 -210l-9 63q159 113 255.5 268t163.5 403q67 246 53 401t-113 268l43 63q72 -51 111.5 -96.5t72.5 -108.5q114 -230 34 -527q-41 -155 -130.5 -298.5t-217.5 -257.5q-101 -93 -263 -178z" />
<glyph unicode="*" horiz-adv-x="882" d="M507 838l-62 -31q-5 -3 -20 -10t-19.5 -9.5t-16.5 -9.5t-18 -12t-18 -14.5t-24.5 -21t-28.5 -27.5q-29 -27 -47 -37q-27 -14 -57 -7t-37 30q-7 24 10 55t46 44q19 10 96 21q39 3 121 44l61 31l-44 31q-27 17 -38.5 23.5t-37 14.5t-61.5 11q-32 3 -46.5 12.5t-21.5 30.5 q-9 26 5 53t43 41q72 36 106 -36q14 -29 29 -49.5t24.5 -28t36.5 -26.5l44 -29l18 60q2 5 6 22t4 20.5t2.5 17t2.5 20.5v19.5t-2 26.5t-3 29q-14 82 58 118q27 14 52 5t33 -34q10 -36 -27 -89q-24 -34 -38.5 -62.5t-19.5 -43t-16 -49.5l-17 -62l62 31q5 2 18 8.5t15.5 8.5 t13.5 7t14.5 7.5t12.5 9.5t16 12t16.5 12.5t19.5 18t22 20.5q29 29 50 39q27 14 56 5.5t36 -31.5t-10 -54t-46 -44q-17 -10 -55 -16q-19 -2 -34 -3.5t-29.5 -5t-22.5 -5t-20.5 -7.5t-17 -7.5t-20 -9.5t-20.5 -11l-61 -31l44 -31q3 -2 9 -5q22 -14 34 -20.5t36.5 -13.5 t58.5 -10q31 -3 45.5 -12.5t21.5 -28.5q9 -26 -6 -54t-42 -42q-72 -36 -106 36q-14 31 -30 51.5t-24.5 26.5t-35.5 26l-45 31l-15 -61q-14 -48 -16.5 -70.5t4.5 -85.5q17 -80 -58 -118q-27 -14 -52.5 -5t-32.5 34q-12 36 27 89q34 49 47 79t27 77z" />
<glyph unicode="+" horiz-adv-x="1034" d="M452 500l96 362h136l-95 -362h362l-38 -136h-362l-97 -364h-137l98 364h-362l37 136h362z" />
<glyph unicode="," horiz-adv-x="522" d="M82 164l126 116q24 20 36 20t24 -20l65 -116q12 -22 -14 -55l-256 -300q-24 -22 -44.5 -14.5t-3.5 39.5l81 159q17 34 5 55l-34 61q-14 28 15 55z" />
<glyph unicode="-" horiz-adv-x="725" d="M667 573l-65 -126q-14 -26 -39 -25h-483q-34 0 -17 34l65 126q14 26 39 26h483q34 -1 17 -35z" />
<glyph unicode="." horiz-adv-x="520" d="M82 164l126 116q24 20 36 20t24 -20l65 -116q15 -27 -14 -55l-128 -116q-24 -22 -36 -22t-24 22l-64 116q-14 28 15 55z" />
<glyph unicode="/" horiz-adv-x="500" d="M621 1256h125l-799 -1280h-124z" />
<glyph unicode="0" horiz-adv-x="972" d="M688 1201q121 0 193.5 -81.5t83 -221t-34.5 -319.5q-72 -266 -235.5 -435.5t-349.5 -169.5q-119 0 -193.5 80.5t-89 215t29.5 314.5q72 268 240 442.5t356 174.5zM650 1111q-44 0 -93.5 -35t-92.5 -96q-68 -97 -140 -362q-55 -201 -68.5 -296t3.5 -155q32 -102 113 -102 q44 0 93.5 35t94.5 96q38 53 72 146t81 267q44 169 55.5 256t-5.5 144q-31 102 -113 102z" />
<glyph unicode="1" horiz-adv-x="972" d="M753 1201h87q-58 -169 -89 -286l-188 -697q-19 -70 -20.5 -83.5t5.5 -21.5q12 -24 135 -24h68l-24 -89h-676l24 89h85q102 0 130.5 12.5t44.5 67.5l11 49l180 668q20 75 8 91t-85 16h-125l22 82q118 3 233.5 38t173.5 88z" />
<glyph unicode="2" horiz-adv-x="972" d="M858 369l-131 -369h-787l14 48q131 128 222 210l172 143l130 106q236 193 288 391q27 99 -19.5 155t-150.5 56q-43 0 -95 -21t-88 -54q-48 -39 -58 -82q0 -5 -1.5 -6.5t1 -6t2.5 -6t5 -5t7.5 -4.5t9.5 -4.5t10.5 -6t12 -5.5t13.5 -7q26 -12 35 -38.5t1 -58.5 q-12 -46 -53 -75t-94 -29q-72 0 -97.5 48.5t-3.5 132.5q38 137 172.5 228.5t298.5 91.5q186 0 269 -92t42 -240q-32 -121 -144 -234q-84 -80 -317 -231q-137 -89 -288 -209h334q82 0 111 18.5t60 83.5l34 72h83z" />
<glyph unicode="3" horiz-adv-x="972" d="M655 628q126 -24 175 -105t17 -202q-43 -157 -186.5 -252t-337.5 -95q-172 0 -260.5 78t-55.5 202q19 65 69 107.5t107 42.5q56 0 83.5 -28t13.5 -79q-17 -60 -94 -101q-29 -14 -36.5 -19.5t-11.5 -17.5q-10 -36 51.5 -65t129.5 -29q113 0 193 71t111 188 q32 114 1.5 182.5t-124.5 68.5q-15 0 -80 -2q-22 -2 -41 -1q-53 0 -39 51q14 55 68 55q24 0 37 -2q51 -3 69 -4q90 0 152.5 61.5t91.5 172.5q26 92 -6 148.5t-122 56.5q-65 0 -129 -26.5t-71 -55.5q-5 -15 14 -31q43 -38 29 -87q-12 -46 -50.5 -74t-94.5 -28q-58 0 -82 32.5 t-9 86.5q31 116 158 194.5t286 78.5q167 0 245.5 -80t42.5 -213q-24 -90 -93.5 -159.5t-175.5 -106.5q-5 -2 -10.5 -3.5t-15 -4.5t-19.5 -6z" />
<glyph unicode="4" horiz-adv-x="972" d="M831 1201h99q-43 -128 -101 -341l-124 -466h181l-26 -95h-181l-24 -89l-10 -41q-15 -55 1 -67.5t105 -12.5h7l-24 -89h-498l23 89h19q85 0 110 13.5t40 66.5l11 41l24 89h-454l25 95zM488 394l121 453l-452 -453h331z" />
<glyph unicode="5" horiz-adv-x="972" d="M418 975l-94 -256q82 31 130.5 41t103.5 10q181 0 263 -107t36 -281q-49 -188 -202 -298t-363 -110q-137 0 -212 57q-49 39 -69 99.5t-2 123.5q17 61 66.5 102.5t110.5 41.5q58 0 83.5 -30t13.5 -76q-10 -34 -29.5 -55.5t-65.5 -45.5q-36 -17 -41 -37q-10 -38 46 -63.5 t121 -25.5q102 0 178 60q96 75 141 247q39 142 -2.5 218.5t-144.5 76.5q-49 0 -85.5 -11t-95.5 -38q-17 -9 -43 -42t-52 -35q-24 -2 -37 10t-7 36q3 14 16.5 39.5t17.5 37.5q121 321 191 537q121 -31 194.5 -41t160.5 -10q73 0 121 8.5t118 36.5q12 7 24 6q14 0 8 -15 q-9 -31 -46 -78q-53 -67 -150 -115t-201 -48q-89 1 -202 30z" />
<glyph unicode="6" horiz-adv-x="972" d="M309 591q148 143 311 143q147 0 223.5 -101.5t37.5 -250.5q-22 -80 -76 -159.5t-126 -135.5q-143 -113 -317 -113q-196 0 -274.5 151t-10.5 401q36 138 110 267t173 228q87 85 197 132.5t220 47.5q125 0 193 -58t44 -146q-15 -55 -59 -89t-103 -34q-56 0 -81 28t-13 73 q9 32 41 71q12 15 13 24q7 20 -11.5 29.5t-63.5 9.5q-61 0 -138.5 -47.5t-135.5 -133.5q-44 -63 -75 -130t-79 -207zM541 613q-96 0 -170 -72t-108 -195q-24 -90 -5 -163q26 -118 131 -118q85 0 158 82.5t110 221.5q31 114 -0.5 179t-115.5 65z" />
<glyph unicode="7" horiz-adv-x="972" d="M1043 1104l-120 -160q-215 -299 -291 -440.5t-118 -324.5q-27 -109 -71 -156t-114 -47q-63 0 -84 33.5t-6 92.5q32 119 162 308q77 109 297 387l152 200q-46 -2 -106 -2q-84 0 -278 10q-14 2 -38 2q-38 0 -59 -23t-62 -107l-51 -100l-80 11l164 413q261 -17 459 -17 q140 0 269 11z" />
<glyph unicode="8" horiz-adv-x="972" d="M705 666q77 -38 114 -77q87 -94 46 -246q-20 -79 -73 -151.5t-123 -119.5q-138 -97 -340 -98q-174 0 -261 74q-44 41 -60.5 105t2.5 134q38 138 169 223q60 39 171 77q-43 26 -63.5 43t-35.5 42q-56 84 -24 204q38 142 169 233.5t293 91.5q154 0 233.5 -76.5t48.5 -194.5 q-44 -162 -266 -264zM536 736l92 -38q84 58 124 106t55 109q24 89 -17 143.5t-131 54.5q-92 0 -161.5 -48t-91.5 -124q-19 -70 12 -117.5t118 -85.5zM563 495l-133 53q-104 -43 -160.5 -102.5t-81.5 -151.5q-29 -108 17 -168.5t159 -60.5q116 0 201 58t113 157 q20 80 -6.5 130.5t-108.5 84.5z" />
<glyph unicode="9" horiz-adv-x="972" d="M707 573q-82 -77 -152 -106.5t-156 -29.5q-152 0 -225 100.5t-32 252.5q46 172 196 291.5t321 119.5q200 0 277.5 -152.5t7.5 -410.5q-72 -271 -260 -467q-92 -94 -205.5 -145.5t-234.5 -51.5q-123 0 -190.5 57.5t-44.5 140.5q14 53 58 88t105 35q55 0 79 -28t14 -72 q-9 -27 -45 -76q-12 -15 -13 -22q-5 -19 16 -25.5t67 -6.5q72 0 150.5 53.5t134.5 146.5q52 86 132 308zM642 1111q-96 0 -171 -89q-67 -75 -101 -201t-4 -195.5t120 -69.5q106 0 190 94q51 56 78 162q38 135 6.5 217t-118.5 82z" />
<glyph unicode=":" horiz-adv-x="520" d="M242 761l127 116q24 20 35.5 20.5t23.5 -20.5l65 -116q15 -27 -15 -54l-126 -116q-24 -22 -36 -22.5t-24 22.5l-65 116q-16 27 15 54zM82 164l126 116q24 20 36 20t24 -20l65 -116q15 -27 -14 -55l-128 -116q-24 -22 -36 -22t-24 22l-64 116q-14 28 15 55z" />
<glyph unicode=";" horiz-adv-x="520" d="M82 164l126 116q24 20 36 20t24 -20l65 -116q12 -22 -14 -55l-256 -300q-24 -22 -44.5 -14.5t-3.5 39.5l81 159q17 34 5 55l-34 61q-14 28 15 55zM242 761l127 116q24 20 35.5 20.5t23.5 -20.5l65 -116q15 -27 -15 -54l-126 -116q-24 -22 -36 -22.5t-24 22.5l-65 116 q-16 27 15 54z" />
<glyph unicode="&#x3c;" horiz-adv-x="1034" d="M1021 748l-763 -316l594 -316l-40 -145l-761 396l34 130l975 396z" />
<glyph unicode="=" horiz-adv-x="1034" d="M7 191l36 137h860l-36 -137h-860zM99 536l38 136h860l-38 -136h-860z" />
<glyph unicode="&#x3e;" horiz-adv-x="1034" d="M150 748l39 145l763 -396l-34 -130l-976 -396l39 145l765 316z" />
<glyph unicode="?" horiz-adv-x="851" d="M671 937q22 84 -13 126.5t-110 42.5q-46 0 -70 -10.5t-31 -31t-7 -42.5t-0.5 -52.5t-9.5 -54.5q-14 -32 -59 -53.5t-96 -21.5q-61 0 -82.5 34t-6.5 90q29 102 150 169.5t282 67.5q160 0 238.5 -76.5t46.5 -202.5q-22 -82 -81 -140t-201 -147q-155 -96 -205 -193 q-7 -15 -27 -36q-26 -26 -32.5 -25t-21.5 25q-12 20 1 58q19 51 51.5 100t62.5 80.5t94 94.5q14 14 21 20q79 77 106 178zM184 164l118 121q22 20 33 20t20 -20l55 -121q12 -27 -16 -55l-118 -121q-22 -22 -32 -22t-20 22l-55 121q-12 28 15 55z" />
<glyph unicode="@" horiz-adv-x="1257" d="M1041 321h104q-75 -108 -211 -208q-193 -137 -405 -137q-123 0 -221 48.5t-152.5 133t-71.5 200t20 250.5q38 138 116.5 260t185.5 211q104 84 226 130.5t237 46.5q147 0 252.5 -69t145.5 -187t4 -258q-32 -116 -110.5 -224t-184.5 -180q-126 -87 -227 -87 q-51 0 -75.5 30.5t-11.5 80.5q5 20 10 34q-70 -73 -119.5 -104t-100.5 -31q-43 0 -79.5 21.5t-56.5 55.5q-38 67 -9 177q44 164 186 289q65 55 138.5 89t127.5 34q49 0 76 -29t29 -82l52 95h151l-256 -493q-15 -27 -21 -51q-5 -17 4.5 -29t28.5 -12q34 0 85 31.5t104 86.5 q56 58 102.5 137t64.5 149q22 87 7.5 172.5t-63.5 148.5q-90 118 -268 118q-220 0 -403.5 -156t-248.5 -397q-65 -242 37.5 -397.5t326.5 -155.5q261 0 474 258zM766 857q-63 0 -128 -72q-67 -73 -119.5 -162t-71.5 -160q-17 -63 -5 -98.5t51 -35.5q82 0 186 149 q43 60 79.5 132.5t50.5 123.5q15 56 3 89.5t-46 33.5z" />
<glyph unicode="A" horiz-adv-x="1201" d="M754 1258l214 -1074q14 -67 36.5 -85.5t92.5 -18.5h43l-8 -80h-514l8 80h28q73 0 98 12t25 50q0 14 -7 54l-40 210h-435l-94 -164q-31 -51 -30 -94q0 -39 25.5 -53.5t91.5 -14.5h41l-10 -80h-459l9 80q70 0 127 47t125 160l563 971h70zM717 486l-97 490l-279 -490h376z " />
<glyph unicode="B" horiz-adv-x="1232" d="M210 1232h514q184 0 278 -53q65 -36 101.5 -97t36.5 -135q0 -162 -142 -247q-75 -44 -191 -67q268 -80 268 -281q0 -101 -56 -182t-155 -124q-102 -46 -297 -46h-620l9 80h25q97 0 125 24q10 10 16 24.5t23 81.5l219 812q15 61 15 84q0 29 -25.5 37.5t-109.5 8.5h-44z M459 672h142q150 0 228 62q49 38 78.5 102.5t29.5 136.5q0 94 -48 136.5t-153 42.5h-50q-65 0 -86 -19t-42 -97zM439 592l-110 -406q-10 -39 -10 -60q0 -27 25 -36.5t95 -9.5h85q159 0 237 68q106 92 106 236q0 131 -123 183q-63 26 -198 25h-107z" />
<glyph unicode="C" horiz-adv-x="1232" d="M1053 1121l102 99h62l-96 -478h-70q-7 184 -44 270q-70 172 -239 172q-89 0 -171 -49.5t-140 -139.5q-80 -125 -127.5 -282.5t-47.5 -302.5q0 -154 78 -251q77 -101 239 -101q191 0 316 155q41 48 97 168l70 -31q-61 -145 -137 -222q-148 -154 -375 -154t-364.5 137.5 t-137.5 366.5q0 288 191 520q208 259 495 260q185 0 299 -137z" />
<glyph unicode="D" horiz-adv-x="1327" d="M-65 0l9 80h8q116 0 142 24q10 10 16 24.5t23 81.5l219 812q15 61 15 84q0 29 -25.5 37.5t-109.5 8.5h-44l10 80h495q143 0 232 -20.5t152 -68.5q177 -133 177 -401q0 -171 -81 -336t-217 -275q-89 -70 -207 -100.5t-298 -30.5h-516zM387 80h55q239 0 352 97 q104 92 179 287t75 371q0 160 -82 242q-79 75 -239 75h-51q-68 0 -88.5 -18t-41.5 -93l-227 -853q-10 -31 -10 -58q-1 -50 78 -50z" />
<glyph unicode="E" horiz-adv-x="1232" d="M1196 1232l-66 -411h-77v60q0 89 -13.5 135.5t-49.5 79.5q-65 56 -174 56h-99q-96 0 -122.5 -18t-48.5 -100l-94 -350h40q125 0 195.5 50.5t107.5 163.5l77 -11l-152 -570l-77 14q15 70 16 118q0 155 -190 155h-37l-101 -375q-19 -72 -19 -94q0 -31 26.5 -43t93.5 -12h92 q201 0 319 101q49 41 82.5 87t91.5 150l9 14l70 -14l-133 -418h-1026l8 80h9q116 0 142 24q15 15 39 106l218 812q15 61 16 84q0 29 -26 37.5t-109 8.5h-45l11 80h996z" />
<glyph unicode="F" horiz-adv-x="1138" d="M1191 1232l-66 -411h-77v60q0 89 -13.5 135.5t-49.5 79.5q-63 56 -174 56h-89q-96 0 -122.5 -18t-48.5 -100l-94 -350h40q125 0 195.5 50.5t107.5 163.5l77 -11l-152 -570l-76 14q15 70 15 118q0 155 -190 155h-37l-106 -394q-17 -70 -17 -84q0 -29 25.5 -37.5 t109.5 -8.5h44l-8 -80h-543l9 80h8q116 0 142 24q15 15 39 106l218 812q15 61 16 84q0 29 -25.5 37.5t-109.5 8.5h-44l10 80h986z" />
<glyph unicode="G" horiz-adv-x="1327" d="M1261 1220l-94 -479l-71 12q-2 164 -41 251q-38 85 -107 132.5t-158 47.5q-232 0 -384 -288q-60 -116 -95.5 -255t-35.5 -262q0 -155 81 -243t223 -88q253 0 320 256l16 53q15 61 15 83q0 29 -25.5 37.5t-109.5 8.5h-56l9 81h554l-10 -81h-7q-116 0 -142 -23 q-12 -9 -16 -22.5t-23 -83.5l-102 -381h-75l-21 138q-80 -75 -164.5 -107.5t-205.5 -32.5q-220 0 -344.5 130t-124.5 362q0 335 254 589q203 203 456 203q104 0 179 -34t141 -110l106 106h58z" />
<glyph unicode="H" horiz-adv-x="1421" d="M978 604h-548l-106 -394q-17 -70 -17 -84q0 -29 25.5 -37.5t109.5 -8.5h44l-8 -80h-543l9 80h8q116 0 142 24q15 15 39 106l219 812q15 61 15 84q0 29 -25.5 37.5t-109.5 8.5h-44l10 80h541l-9 -80h-6q-118 0 -142 -24q-12 -9 -17 -22.5t-22 -83.5l-92 -338h549l91 338 q17 58 17 84q0 29 -26 37.5t-109 8.5h-45l9 80h543l-9 -80h-7q-118 0 -143 -24q-10 -9 -15.5 -22.5t-23.5 -83.5l-219 -812q-15 -58 -15 -84q0 -29 25.5 -37.5t109.5 -8.5h44l-10 -80h-541l8 80h7q118 0 144 24q14 14 39 106z" />
<glyph unicode="I" horiz-adv-x="694" d="M483 80l-10 -80h-529l8 80q119 2 144 24q15 15 39 106l218 812q17 67 17 84q0 29 -26.5 37.5t-109.5 8.5h-38l11 80h529l-9 -80q-119 -2 -143 -24q-15 -15 -40 -106l-218 -812q-17 -65 -17 -82q0 -29 26.5 -38.5t109.5 -9.5h38z" />
<glyph unicode="J" horiz-adv-x="1042" d="M556 1152l11 80h536l-9 -80h-7q-108 0 -131 -24q-14 -14 -40 -106l-186 -694q-49 -183 -152.5 -268.5t-273.5 -85.5q-154 0 -240 71t-86 199q0 104 59.5 176t146.5 72q60 0 97.5 -33.5t37.5 -88.5q0 -53 -31.5 -86t-80.5 -33q-39 0 -79 24q-10 5 -24 5q-19 0 -31.5 -15.5 t-12.5 -39.5q0 -75 59.5 -126t148.5 -51q108 0 171.5 74t111.5 252l174 648q17 68 17 84q0 29 -25.5 37.5t-108.5 8.5h-52z" />
<glyph unicode="K" horiz-adv-x="1264" d="M422 584l491 409q92 75 92 116q0 24 -21 33.5t-79 9.5h-38l10 80h512l-8 -80q-102 -9 -172.5 -42t-170.5 -125l-321 -268l259 -538q36 -73 55.5 -86t105.5 -13h53l-11 -80h-558l9 80h56q68 0 92 6t24 25q0 10 -27 66l-200 420l-193 -158l-61 -229q-17 -70 -17 -84 q0 -29 25.5 -37.5t109.5 -8.5h44l-9 -80h-542l8 80h9q116 0 141 24q10 9 16.5 24t23.5 82l218 812q15 61 16 84q0 29 -26 37.5t-109 8.5h-45l11 80h541l-9 -80h-7q-118 0 -141 -24q-12 -9 -17.5 -22.5t-23.5 -83.5z" />
<glyph unicode="L" horiz-adv-x="1138" d="M1005 432l70 -14l-133 -418h-1005l8 80h9q116 0 142 24q15 15 39 106l218 812q15 61 16 84q0 29 -26 37.5t-109 8.5h-45l11 80h573l-10 -80h-38q-118 0 -141 -24q-12 -10 -16.5 -23.5t-23.5 -82.5l-213 -793q-19 -70 -19 -94q0 -31 26.5 -43t93.5 -12h71q181 0 285 72.5 t217 279.5z" />
<glyph unicode="M" horiz-adv-x="1611" d="M620 1232l90 -921l582 921h369l-9 -80h-7q-118 0 -143 -24q-10 -9 -15.5 -22.5t-23.5 -83.5l-217 -812q-17 -56 -17 -84q0 -29 25.5 -37.5t109.5 -8.5h44l-10 -80h-541l8 80h7q118 0 143 24q14 14 40 106l225 841l-659 -1051h-61l-106 1027l-176 -657q-39 -159 -39 -196 q0 -94 152 -94l-9 -80h-426l8 80q92 3 133 56t89 234l174 652q17 65 17 84q0 29 -25.5 37.5t-109.5 8.5h-44l9 80h413z" />
<glyph unicode="N" horiz-adv-x="1390" d="M538 1232l431 -942l154 572q39 159 39 196q0 94 -153 94l10 80h447l-9 -80q-108 -3 -151 -54.5t-91 -235.5l-237 -886h-67l-474 1026l-169 -632q-41 -159 -41 -196q0 -94 154 -94h18l-10 -80h-471l9 80q79 2 118 24t67 79.5t62 186.5l195 727q-10 34 -30 44.5t-81 10.5 h-89l8 80h361z" />
<glyph unicode="O" horiz-adv-x="1327" d="M780 1258q200 0 338 -135q137 -135 136 -355q0 -164 -64.5 -318.5t-182.5 -272.5q-207 -203 -475 -203q-213 0 -338.5 134t-125.5 361q0 324 220 558q216 231 492 231zM785 1184q-172 0 -305 -170q-84 -108 -147 -306.5t-63 -354.5q0 -142 71.5 -223.5t194.5 -81.5 q101 0 188.5 52t145.5 146q80 128 132.5 298.5t52.5 302.5q0 60 -17 128t-41 107q-27 46 -86 74t-126 28z" />
<glyph unicode="P" horiz-adv-x="1138" d="M422 543l-89 -333q-17 -70 -17 -84q0 -29 25.5 -37.5t109.5 -8.5h44l-9 -80h-542l8 80h9q116 0 141 24q10 10 16.5 24.5t23.5 81.5l218 812q15 61 15 84q0 29 -25.5 37.5t-108.5 8.5h-45l11 80h503q205 0 295 -61q126 -87 127 -248q0 -210 -187 -310q-87 -46 -171.5 -58 t-321.5 -12h-30zM444 623h32q167 0 191 3q133 12 200 94q73 92 73 222q0 114 -56 162t-191 48h-21q-53 0 -74 -16t-35 -66z" />
<glyph unicode="Q" horiz-adv-x="1327" d="M850 46v-37q2 -85 10.5 -121t33.5 -62q19 -15 41 -15q68 0 128 124l60 -37q-48 -87 -90 -135q-75 -84 -180 -84q-85 0 -140.5 66t-55.5 168q0 34 7 73q-60 -12 -113 -12q-225 0 -354 133.5t-129 366.5q0 203 97.5 384t260.5 290.5t345 109.5q203 0 340 -126 q143 -131 143 -369q0 -253 -155 -478q-82 -118 -249 -239zM828 198q102 142 162 320t60 344q0 157 -60 230q-32 41 -90.5 66t-122.5 25q-94 0 -181 -57.5t-152 -162.5q-79 -128 -127.5 -299t-48.5 -323q0 -137 65 -218q-15 51 -16 87q0 108 71 177t180 69q111 0 179.5 -66.5 t80.5 -191.5zM676 77q15 85 15 123q0 79 -40 125.5t-108 46.5q-70 0 -116 -48.5t-46 -122.5q0 -72 44 -112t123 -40q60 1 128 28z" />
<glyph unicode="R" horiz-adv-x="1264" d="M423 597l-104 -387q-17 -70 -17 -84q0 -29 25.5 -37.5t109.5 -8.5h44l-8 -80h-543l9 80h8q116 0 142 24q15 15 39 106l218 812q15 61 16 84q0 29 -25.5 37.5t-109.5 8.5h-44l10 80h546q200 0 294 -48q147 -75 146 -232q0 -84 -47 -156t-127 -113q-82 -41 -261 -62 q94 -34 135 -99.5t41 -176.5q0 -39 -2 -62l-2 -87q0 -104 52 -104q36 0 61.5 34t57.5 125l62 -26q-49 -135 -106 -193t-138 -58q-80 0 -130.5 57.5t-50.5 149.5q0 41 10 171q5 55 5 92q0 84 -45 118.5t-153 34.5h-118zM444 678h133q108 0 159 9t99 37q140 84 140 240 q0 90 -59 139t-167 49h-83q-60 0 -81.5 -19t-40.5 -83z" />
<glyph unicode="S" horiz-adv-x="1138" d="M1079 1220l-93 -445l-71 12q2 15 1 34q0 169 -78.5 266t-214.5 97q-114 0 -190 -64t-76 -159q0 -126 194 -203l145 -58q152 -60 213.5 -135t61.5 -200q0 -169 -129.5 -280t-329.5 -111q-208 0 -352 134l-100 -108h-60l94 486l68 -12q-2 -19 -2 -47q0 -167 91 -270 q97 -109 259 -109q131 0 214 67.5t83 176.5q0 94 -75 148q-27 19 -133 62l-147 61q-123 53 -170 104q-80 89 -81 209q0 162 119 272t291 110q183 0 311 -126l92 88h65z" />
<glyph unicode="T" horiz-adv-x="1169" d="M1239 1232l-72 -469l-71 8q3 70 3 120q0 159 -63 218q-48 43 -145 43h-24q-39 0 -53.5 -15.5t-31.5 -80.5l-227 -846q-15 -58 -16 -84q0 -29 26 -37.5t109 -8.5h63l-10 -80h-590l8 80h38q118 0 143 24q15 15 39 106l232 870q9 31 9 43q0 29 -56 29h-24q-140 0 -241 -131 q-49 -63 -147 -239l-70 10l150 440h1021z" />
<glyph unicode="U" horiz-adv-x="1390" d="M171 1152l8 80h543l-10 -80h-7q-118 0 -142 -24q-12 -10 -17 -23.5t-22 -82.5l-154 -568q-24 -96 -24 -176q0 -109 73 -169.5t202 -60.5q198 0 297 143q31 43 52.5 102.5t58.5 201.5l99 367q39 159 39 196q0 96 -158 94l10 80h449l-9 -80q-61 -3 -90 -9t-57.5 -40.5 t-44.5 -83t-47 -157.5l-95 -360q-46 -174 -70 -234q-39 -104 -93 -163t-138 -91q-102 -39 -239 -40q-208 0 -317 84t-109 242q0 79 34 202l140 520q15 61 15 84q0 29 -25.5 37.5t-109.5 8.5h-42z" />
<glyph unicode="V" horiz-adv-x="1201" d="M570 265l381 684q53 92 53 133q0 70 -128 70h-31l8 80h465l-9 -80q-90 -9 -144 -58.5t-153 -217.5l-507 -902h-63l-200 1011q-20 102 -45.5 134.5t-87.5 32.5h-48l12 80h504l-9 -80h-58q-63 0 -82.5 -10t-19.5 -45q0 -26 14 -88z" />
<glyph unicode="W" horiz-adv-x="1580" d="M1075 335l278 641q39 94 40 123q0 53 -110 53h-29l9 80h398l-9 -80q-87 -19 -129 -63.5t-101 -180.5l-407 -934h-64l-120 862l-387 -862h-60l-135 1028q-14 104 -32 123q-22 27 -82 27h-45l9 80h456l-11 -80h-30q-53 0 -75.5 -11t-22.5 -40q0 -19 9 -79l92 -687l287 653 l-12 85q-7 55 -26.5 67t-101.5 12h-22l8 80h475l-9 -80h-32q-61 0 -82.5 -9.5t-21.5 -36.5q0 -12 3 -46z" />
<glyph unicode="X" horiz-adv-x="1201" d="M693 669l198 -464q38 -89 63.5 -107t110.5 -18h44l-8 -80h-548l10 80h53q61 0 82.5 8t21.5 31q0 20 -10 43l-154 365l-257 -271q-67 -70 -67 -116q0 -60 116 -60h26l-10 -80h-489l9 80q89 12 145 46t152 135l336 353l-177 419q-34 80 -63.5 99.5t-112.5 19.5h-41l8 80 h538l-9 -80h-30q-114 0 -115 -48q0 -14 17 -54l123 -294l209 213q82 87 81 134q0 49 -88 49h-34l8 80h483l-8 -80q-89 -2 -146 -33.5t-156 -132.5z" />
<glyph unicode="Y" horiz-adv-x="1169" d="M618 621l290 372q44 53 44 92q0 31 -29 49t-80 18h-39l8 80h482l-9 -80q-92 -5 -146.5 -41t-145.5 -148l-341 -437l-85 -316q-17 -70 -17 -84q0 -29 26 -37.5t110 -8.5h62l-9 -80h-592l10 80h38q118 0 141 24q12 10 16.5 23t22.5 83l86 316l-205 508q-29 72 -63 95 t-109 23h-29l8 80h526l-9 -80h-48q-104 0 -104 -41q0 -19 19 -65z" />
<glyph unicode="Z" horiz-adv-x="1138" d="M1138 1232l-10 -66l-911 -1086h230q126 0 210 29t150 96q44 44 76.5 94.5t87.5 157.5l72 -20l-140 -437h-946l11 65l909 1087h-164q-208 0 -302 -72q-46 -34 -75 -72.5t-106 -167.5l-18 -34l-70 18l138 408h858z" />
<glyph unicode="[" horiz-adv-x="568" d="M102 -123h241l-17 -61h-394l379 1416h394l-16 -63h-240z" />
<glyph unicode="\" horiz-adv-x="1034" d="M430 1258l347 -1258h-99l-347 1258h99z" />
<glyph unicode="]" horiz-adv-x="568" d="M483 1171h-239l15 61h393l-379 -1416h-392l17 63h239z" />
<glyph unicode="^" horiz-adv-x="1034" d="M959 543h-148l-135 530l-425 -530h-149l541 689h145z" />
<glyph unicode="_" horiz-adv-x="853" d="M-166 -125h854l-28 -104h-853z" />
<glyph unicode="`" horiz-adv-x="568" d="M526 913h-70l-227 166q-34 29 -24 66q7 26 28 43t47 17q20 0 34 -10.5t38 -42.5z" />
<glyph unicode="a" horiz-adv-x="979" d="M676 777h148l-170 -574q-19 -67 -19 -92q0 -17 11 -30t25 -13q68 0 169 202l53 -29q-29 -65 -84 -142q-89 -125 -200 -125q-46 0 -75 31t-29 80q0 22 9 55q-63 -92 -121 -129t-139 -37q-114 0 -183 76t-69 203q0 213 138 392q123 157 282 157q84 0 141.5 -50.5 t66.5 -128.5zM451 708q-80 0 -137 -59q-68 -70 -112.5 -189t-44.5 -231q0 -79 36.5 -123.5t100.5 -44.5q123 0 199 154q87 177 87 341q0 70 -34.5 111t-94.5 41z" />
<glyph unicode="b" horiz-adv-x="948" d="M495 1258l-181 -611q72 85 133.5 120t134.5 35q114 0 182.5 -79.5t68.5 -210.5q0 -239 -173 -406q-137 -131 -327 -132q-126 0 -202 67t-76 177q0 53 24 135l204 690q15 56 16 73q0 29 -22.5 42t-75.5 13h-41l7 61zM526 698q-126 0 -226 -155q-101 -167 -100 -338 q0 -79 38 -122.5t108 -43.5q131 0 226 157q92 155 92 325q0 84 -36.5 130.5t-101.5 46.5z" />
<glyph unicode="c" horiz-adv-x="757" d="M582 225l49 -37q-137 -213 -329 -214q-133 0 -213 84.5t-80 224.5q0 205 137 362t317 157q92 0 156.5 -53.5t64.5 -130.5q0 -55 -30.5 -91.5t-76.5 -36.5q-39 0 -65 23t-26 60q0 55 64 82q27 10 27 26q0 22 -34 39t-75 17q-108 0 -197 -126q-106 -152 -105 -352 q0 -96 41.5 -149.5t116.5 -53.5q128 0 258 169z" />
<glyph unicode="d" horiz-adv-x="1042" d="M911 270l52 -31q-140 -265 -299 -265q-116 0 -116 122q0 24 2 37q-109 -159 -277 -159q-119 0 -193.5 78.5t-74.5 203.5q0 212 145 379t330 167q96 0 153 -61q26 -29 43 -79l112 381q15 51 16 75q0 53 -97 53h-53l6 61l340 26l-304 -1024q-26 -90 -25 -123 q0 -46 42.5 -46t82.5 42t115 163zM485 725q-126 0 -224 -169q-90 -159 -90 -317q0 -84 41.5 -134t110.5 -50q125 0 209 165q41 79 69.5 180.5t28.5 169.5t-41 111.5t-104 43.5z" />
<glyph unicode="e" horiz-adv-x="757" d="M579 198l41 -46q-137 -177 -335 -178q-138 0 -216.5 78.5t-78.5 217.5q0 208 144 370t330 162q90 0 146.5 -48.5t56.5 -127.5q0 -154 -204 -244q-87 -39 -311 -92q-3 -44 -4 -58q0 -82 44.5 -129.5t121.5 -47.5q127 0 265 143zM160 357q114 24 175 51q189 84 189 229 q0 44 -25.5 70.5t-68.5 26.5q-94 0 -167.5 -102.5t-102.5 -274.5z" />
<glyph unicode="f" horiz-adv-x="568" d="M374 777h220l-24 -81h-215l-106 -421q-85 -338 -177 -589l-188 -31q160 357 253 744l70 297h-152l22 81h148q56 207 120 308q102 171 268 171q82 0 135.5 -43.5t53.5 -109.5q0 -39 -26.5 -65t-65.5 -26q-38 0 -63.5 22t-25.5 55q0 24 16 48q12 20 12 30q0 29 -41 29 q-90 0 -151 -146q-35 -85 -83 -273z" />
<glyph unicode="g" horiz-adv-x="916" d="M652 737q101 -72 101 -189q0 -58 -31 -118t-80 -99q-89 -72 -231 -72q-41 0 -123 12q-36 5 -70 5q-44 0 -73 -19.5t-29 -48.5q0 -44 63 -60q29 -7 188 -15q152 -9 225 -48q89 -48 89 -153q0 -126 -116 -202q-114 -75 -350 -75q-193 0 -288 67q-61 48 -62 124q0 92 84 142 q46 29 135 48q-94 46 -94 126q0 70 56 114q49 43 154 57q-106 56 -106 177q0 118 104 205t246 87q73 0 147 -32q116 92 194 92q44 0 76 -26.5t32 -62.5q0 -32 -20 -53.5t-49 -21.5q-20 0 -32 8.5t-32.5 36t-44.5 27.5q-25 -1 -63 -33zM456 737q-92 0 -149.5 -72.5 t-57.5 -188.5q0 -72 40 -112.5t110 -40.5q82 0 132 58q70 87 70 220q0 63 -39 99.5t-106 36.5zM247 5q-114 0 -179 -38.5t-65 -108.5q0 -131 243 -131q147 0 225.5 40t78.5 115q0 63 -64 89q-29 12 -105 23t-134 11z" />
<glyph unicode="h" horiz-adv-x="1042" d="M521 1258l-204 -686q167 230 321 230q73 0 123 -47.5t50 -119.5q0 -75 -41 -191l-81 -236q-32 -90 -32 -114q0 -14 8.5 -23.5t22.5 -9.5q80 0 210 202l49 -36q-68 -121 -149 -187t-161 -66q-51 0 -85.5 37t-34.5 91q0 48 31 142l90 266q26 79 26 120q0 31 -21.5 50.5 t-53.5 19.5q-123 0 -244 -176q-46 -65 -69 -119.5t-58 -167.5l-70 -237h-148l309 1043q15 53 15 75q0 53 -97 53h-53l7 61z" />
<glyph unicode="i" horiz-adv-x="568" d="M394 802l-181 -609q-20 -72 -20 -96q0 -36 29 -36q72 0 206 207l53 -29q-65 -99 -106 -145q-102 -118 -211 -118q-49 0 -83.5 31t-34.5 75q0 41 38 172l99 333q15 56 15 75q0 53 -97 53h-41l7 62zM363.5 1219q39.5 0 66 -27.5t26.5 -65.5q0 -39 -27.5 -65.5t-66.5 -26.5 q-38 0 -64.5 27.5t-26.5 65t26.5 65t66 27.5z" />
<glyph unicode="j" horiz-adv-x="537" d="M476 802l-203 -683q-55 -186 -78 -241t-60 -103q-104 -119 -244 -120q-80 0 -127 37t-47 100q0 44 26.5 73t68.5 29q36 0 59 -22t23 -58q0 -20 -13 -46q-9 -14 -9 -24q0 -12 11 -21.5t25 -9.5q113 0 184 278q29 118 43 157l130 439q15 51 15 73q0 29 -22 42t-75 13h-60 l7 62zM449 1219q39 0 65.5 -27.5t26.5 -65.5q0 -39 -27.5 -65.5t-66.5 -26.5q-38 0 -64 27.5t-26 65t26.5 65t65.5 27.5z" />
<glyph unicode="k" horiz-adv-x="948" d="M512 1258l-212 -714q87 135 167.5 196.5t169.5 61.5q70 0 118.5 -45t48.5 -110q0 -174 -312 -285q41 -34 58 -77t23 -131q3 -51 10.5 -67.5t25.5 -16.5q31 0 67.5 40t110.5 153l53 -34q-80 -133 -147.5 -194t-137.5 -61q-126 0 -127 171q0 39 2 84v63q0 46 -27 46 q-3 0 -34 -3q-12 -2 -24 -2q-15 0 -26.5 11t-11.5 26q0 46 53 46q26 0 46 -8q15 -5 22 -5q17 0 72 27q166 82 166 183q0 38 -22.5 62.5t-56.5 24.5q-48 0 -110 -43t-119 -114q-41 -53 -84.5 -143.5t-68.5 -177.5l-65 -222h-149l309 1043q15 56 16 75q0 53 -98 53h-52l6 61z " />
<glyph unicode="l" horiz-adv-x="568" d="M502 1258l-316 -1067q-22 -73 -22 -94q0 -36 31 -36q75 0 209 207l53 -29q-155 -265 -319 -265q-51 0 -81 32.5t-30 87.5q0 63 46 217l217 732q15 51 15 75q0 53 -97 53h-53l7 61z" />
<glyph unicode="m" horiz-adv-x="1517" d="M393 802l-50 -230q90 128 157.5 179t148.5 51q70 0 117.5 -45t47.5 -114q0 -32 -10 -82q148 241 329 241q70 0 114.5 -43.5t44.5 -111.5q0 -63 -21 -128l-107 -331q-20 -67 -20.5 -84t11 -30t24.5 -13q63 0 197 198l52 -35q-84 -121 -129 -168q-87 -82 -169 -82 q-60 0 -96.5 33.5t-36.5 86.5q0 36 6.5 65t40.5 126l79 242q24 75 24 110q0 63 -67 63q-48 0 -107.5 -39.5t-105.5 -102.5q-79 -104 -140 -311l-73 -247h-149l137 463q34 108 34 170q0 67 -72 67q-96 0 -199 -131.5t-161 -327.5l-70 -241h-148l174 587q14 49 13 73 q0 55 -95 55h-41l5 62z" />
<glyph unicode="n" horiz-adv-x="1042" d="M391 802l-50 -230q167 230 316 230q68 0 116 -48.5t48 -116.5q0 -77 -41 -193l-80 -236q-32 -89 -33 -114q0 -14 8.5 -23.5t22.5 -9.5q82 0 212 205l49 -36q-148 -256 -312 -256q-51 0 -85.5 36t-34.5 91q0 51 31 143l91 266q26 79 25 120q0 29 -19.5 49.5t-48.5 20.5 q-55 0 -119 -47t-118 -129q-46 -67 -69.5 -120.5t-57.5 -166.5l-70 -237h-148l174 587q15 56 15 75q0 53 -97 53h-41l7 62z" />
<glyph unicode="o" horiz-adv-x="853" d="M466 802q125 0 213.5 -94.5t88.5 -227.5q0 -201 -145 -366q-125 -140 -311 -140q-140 0 -221.5 86.5t-81.5 233.5q0 213 143 361q142 147 314 147zM457 737q-96 0 -167 -92q-53 -70 -90.5 -195.5t-37.5 -231.5q0 -179 152 -179q68 0 117.5 40t94.5 129q34 70 57 161.5 t23 157.5q0 99 -39.5 154.5t-109.5 55.5z" />
<glyph unicode="p" horiz-adv-x="979" d="M399 802l-25 -145q119 145 254 145q108 0 179 -89q56 -72 57 -189q0 -220 -137 -391q-123 -159 -307 -159q-85 0 -127 31t-76 120l-84 -279q-19 -67 -19 -85q0 -26 24 -35t86 -9h20l-7 -62h-409l6 62q87 3 107 20t45 109l219 741q15 48 15 75q0 53 -97 53h-41l7 62z M575 712q-109 0 -196 -133q-48 -73 -83 -180t-35 -182q0 -68 40 -112.5t103 -44.5q131 0 219 186q80 166 80 315q0 68 -35 109.5t-93 41.5z" />
<glyph unicode="q" horiz-adv-x="948" d="M852 802l-284 -956q-19 -67 -18 -85q0 -26 23.5 -35t85.5 -9h13l-6 -62h-420l7 62q99 2 120 19t47 110l73 248q-111 -118 -235 -118q-51 0 -102.5 20.5t-83.5 52.5q-72 68 -72 198q0 217 141 386t322 169q131 0 218 -118l104 118h67zM471 736q-61 0 -122 -50.5 t-108 -141.5q-34 -65 -56.5 -152t-22.5 -156q0 -79 37 -128.5t96 -49.5q68 0 130.5 53t106.5 150q31 67 53.5 158t22.5 154q0 72 -38.5 117.5t-98.5 45.5z" />
<glyph unicode="r" horiz-adv-x="757" d="M382 802l-39 -198q68 106 128.5 152t132.5 46q58 0 96.5 -36t38.5 -90q0 -48 -28 -78.5t-73 -30.5q-51 0 -73 37q-7 10 -7 55q0 39 -31 39q-58 0 -146.5 -134t-136.5 -294l-80 -270h-149l174 587q17 61 18 80q0 48 -99 48h-41l6 62z" />
<glyph unicode="s" horiz-adv-x="757" d="M416 802q111 0 182 -49.5t71 -127.5q0 -46 -27.5 -75t-69.5 -29q-39 0 -64 22t-25 56q0 29 27 68q9 14 9 24q0 20 -31 33t-80 13q-75 0 -124.5 -39t-49.5 -97q0 -49 28 -76.5t112 -56.5q102 -38 148 -67q85 -58 86 -164q0 -116 -92.5 -189.5t-239.5 -73.5 q-128 0 -203 52.5t-75 140.5q0 49 28.5 82t70.5 33q38 0 62.5 -25t24.5 -61q0 -22 -6 -35t-30 -38q-12 -9 -11 -26q0 -26 41.5 -42t106.5 -16q89 0 142 41t53 109q0 44 -25 69t-97 54q-79 31 -133 58q-118 61 -117 174q0 111 86.5 184.5t221.5 73.5z" />
<glyph unicode="t" horiz-adv-x="600" d="M459 1060l-84 -283h186l-23 -81h-186l-163 -544q-5 -20 -5 -39q0 -48 40 -48q43 0 88 44.5t123 163.5l51 -34q-60 -97 -85 -131q-44 -60 -110 -97t-125 -37q-51 0 -87 37.5t-36 92.5q0 46 32 162l128 430h-160l24 81h160l84 283h148z" />
<glyph unicode="u" horiz-adv-x="1042" d="M869 777l-169 -567q-20 -75 -21 -101q0 -17 9.5 -29t23.5 -12q55 0 186 193l51 -31q-90 -140 -160 -198t-149 -58q-48 0 -78.5 32t-30.5 81q0 44 20 116q-145 -227 -317 -227q-72 0 -117 43.5t-45 113.5q0 39 6.5 67.5t46.5 156.5l68 230q14 49 14 73q0 29 -21.5 42 t-74.5 13h-41l5 62l329 25l-167 -560q-19 -63 -19 -97q0 -31 21.5 -52t52.5 -21q90 0 192.5 127t155.5 304l80 274h149z" />
<glyph unicode="v" horiz-adv-x="885" d="M379 802l-116 -394q-41 -137 -41 -212q0 -56 32.5 -94.5t80.5 -38.5q67 0 134 60t116 164q75 154 75 254q0 27 -8.5 45t-38.5 52q-36 41 -36 79q0 34 22 59.5t55 25.5q44 0 74.5 -39t30.5 -96q0 -101 -42.5 -234.5t-105.5 -237.5q-140 -222 -317 -222q-92 0 -154.5 64 t-62.5 159q0 84 32 195l58 196q17 51 17 79q0 49 -97 49h-29l5 62z" />
<glyph unicode="w" horiz-adv-x="1327" d="M384 802l-148 -500q-34 -114 -35 -155q0 -34 26 -58t63 -24q87 0 178 128q102 140 148 299l85 285h149l-111 -369q-39 -138 -39 -222q0 -56 24.5 -88.5t69.5 -32.5q119 0 237 218q77 148 77 260q0 27 -8.5 44t-39.5 51q-36 41 -36 79q0 36 23 60.5t56 24.5q44 0 74.5 -39 t30.5 -96q0 -104 -46 -244.5t-116 -248.5q-68 -104 -139 -152t-158 -48q-84 0 -134 50.5t-50 134.5q0 15 3 70q-72 -108 -129 -166q-85 -89 -202 -89q-84 0 -133 45.5t-49 120.5q0 51 29 145l88 302q14 44 14 73t-21.5 42t-74.5 13h-29l7 62z" />
<glyph unicode="x" horiz-adv-x="853" d="M343 265l-51 -93q-113 -198 -236 -198q-51 0 -81.5 29t-30.5 77q0 44 24.5 71.5t62.5 27.5q61 0 73 -66q5 -34 26 -34q44 0 117 134l77 137l-20 99q-34 169 -50 196q-12 26 -36 26q-22 0 -48.5 -28.5t-90.5 -121.5l-50 35q99 143 128 176q63 70 118 70q53 0 83.5 -46 t52.5 -157l19 -94l50 89q41 77 53.5 96.5t39.5 48.5q58 63 134 63q43 0 70 -30t27 -74q0 -43 -23 -67.5t-62 -24.5q-24 0 -35.5 8.5t-23.5 34.5q-10 22 -29 22q-46 0 -107 -115l-75 -138l32 -162q24 -106 41 -141.5t46 -35.5q41 0 110 92q24 34 47 71l53 -29 q-48 -85 -80 -123q-58 -72 -91.5 -94t-80.5 -22q-63 0 -99 40.5t-58 135.5z" />
<glyph unicode="y" horiz-adv-x="853" d="M375 538l76 -361q177 282 177 422q0 31 -10 89q-3 20 -4 29q0 34 25 59.5t59 25.5t55.5 -24.5t21.5 -64.5q0 -43 -23 -100t-95 -197q-207 -403 -343 -576q-147 -184 -292 -185q-67 0 -112 37t-45 90q0 39 25.5 65.5t63.5 26.5q55 0 73 -53q5 -14 5 -67q0 -27 33 -27 q73 0 181 131q36 46 97 144q-53 300 -121 553q-27 109 -65 109q-22 0 -42.5 -31t-68.5 -133l-53 24q106 278 222 278q55 0 93 -62t67 -202z" />
<glyph unicode="z" horiz-adv-x="790" d="M602 258l60 -21q-39 -121 -114 -192t-162 -71q-84 0 -203 55q-111 53 -132 53q-10 0 -12.5 -4.5t-2.5 -24.5q0 -79 -51 -79q-41 0 -41 41q0 82 123 219q73 80 137 128t250 164q72 44 126 102q-56 -14 -87 -14q-58 0 -157 35q-77 24 -102 23q-63 0 -140 -136l-56 29 q121 237 281 237q46 0 144 -48q79 -39 122 -39q19 0 28.5 9.5t16.5 34.5q12 43 41 43q17 0 29 -11t12 -28q0 -34 -37.5 -98t-97.5 -131q-63 -72 -124.5 -120.5t-160.5 -104.5q-101 -58 -139.5 -86t-67.5 -66q53 15 84 15q53 0 172 -41q77 -27 115 -27q79 0 146 154z" />
<glyph unicode="{" horiz-adv-x="568" d="M114 497l16 54q58 19 85 34.5t48 42.5q17 22 26.5 47t29.5 103l53 198q43 157 116 210q29 20 77.5 33t94.5 13h45l-16 -58q-84 -5 -123 -48.5t-71 -166.5l-60 -222q-24 -87 -57 -128.5t-115 -84.5q58 -43 69 -84t-11 -129l-60 -222q-34 -123 -18 -166.5t98 -48.5l-15 -58 h-44q-48 0 -89 12.5t-60 33.5q-44 53 -3 210l53 198q22 84 25.5 112t-5.5 51q-9 22 -27 34.5t-62 29.5z" />
<glyph unicode="|" horiz-adv-x="1034" d="M782 1232l-330 -1232h-133l330 1232h133z" />
<glyph unicode="}" horiz-adv-x="568" d="M473 551l-16 -54q-60 -17 -86 -32.5t-48 -44.5q-17 -22 -26.5 -47t-31.5 -103l-53 -198q-43 -160 -116 -210q-27 -20 -76 -33t-97 -13h-42l15 58q84 5 123 48.5t71 166.5l60 222q24 87 57.5 128.5t113.5 84.5q-58 43 -69 84t13 129l59 222q32 123 16 166.5t-96 48.5 l15 58h43q48 0 89.5 -12.5t59.5 -33.5q46 -49 3 -210l-53 -198q-22 -84 -25.5 -112t6.5 -52q9 -22 27 -34t64 -29z" />
<glyph unicode="~" horiz-adv-x="1034" d="M130 311l-74 64q70 84 148.5 133.5t140.5 49.5q55 0 153 -55l69 -37q58 -32 77.5 -40t46.5 -8q73 0 176 111l73 -65q-70 -84 -148.5 -133t-139.5 -49q-53 0 -154 53l-68 39q-67 36 -83 42t-42 6q-73 0 -175 -111z" />
<glyph unicode="&#xa3;" horiz-adv-x="972" d="M408 524q-24 -125 -80.5 -218t-163.5 -168q101 14 163 10.5t136.5 -14.5t91.5 -11q84 0 141 34t115 119l65 -34q-130 -268 -369 -268q-20 0 -127 12t-195 14.5t-236 -14.5l20 127q186 114 226 411h-113l31 111h92q12 123 41 229q39 152 174 244.5t312 92.5q154 0 236 -69 t54 -173q-17 -61 -71.5 -102t-110.5 -41q-46 0 -75 29t-17 71q10 39 30.5 63.5t69.5 44.5q19 7 24 27t-31.5 40t-92.5 20q-104 0 -181 -66.5t-106 -177.5q-17 -67 -36 -232h363l-30 -111h-350z" />
<glyph unicode="&#xad;" horiz-adv-x="725" d="M667 573l-65 -126q-14 -26 -39 -25h-483q-34 0 -17 34l65 126q14 26 39 26h483q34 -1 17 -35z" />
<glyph unicode="&#x591;" d="M-244 -241l37 139h96l-37 -139q65 -17 93.5 -72.5t10.5 -126.5h-98q14 46 -10 77.5t-68.5 31.5t-85 -31.5t-52.5 -77.5h-96q19 72 78.5 127t131.5 72z" />
<glyph unicode="&#x592;" d="M225 1331q-29 0 -43.5 19.5t-6.5 48.5t33.5 49t53.5 20t42.5 -20t7 -49t-32.5 -48.5t-54 -19.5zM67.5 1126q-28.5 0 -43 20t-6.5 49t33.5 48.5t53.5 19.5t42.5 -19.5t7 -48.5t-33 -49t-54 -20zM272 1126q-28 0 -42.5 20t-7 49t33.5 48.5t54 19.5t42.5 -19.5t7 -48.5 t-33.5 -49t-54 -20z" />
<glyph unicode="&#x593;" d="M299 1560l124 -72l-164 -73l127 -72l-164 -72l124 -73l-163 -72l-74 43l68 29l-124 73l164 72l-127 72l166 73l-53 29z" />
<glyph unicode="&#x594;" d="M207.5 1263q28.5 0 43 -19.5t6.5 -48.5t-33.5 -49t-53.5 -20t-42.5 20t-7 49t33 48.5t54 19.5zM262 1468q28 0 42.5 -20t7 -49t-32.5 -48.5t-54 -19.5t-43.5 19.5t-6.5 48.5t33.5 49t53.5 20z" />
<glyph unicode="&#x595;" d="M104 1475h101l-92 -349h-103zM299.5 1263q28.5 0 43 -19.5t6.5 -48.5t-33.5 -49t-53.5 -20t-42.5 20t-7 49t33 48.5t54 19.5zM354 1468q28 0 42.5 -20t7 -49t-32.5 -48.5t-54 -19.5t-43.5 19.5t-6.5 48.5t33.5 49t53.5 20z" />
<glyph unicode="&#x596;" d="M-131 -403l-64 -61q-135 131 -76 345q2 9 3 17h97q-39 -173 40 -301z" />
<glyph unicode="&#x597;" d="M92 1287l164 160l79 -160l-164 -161z" />
<glyph unicode="&#x598;" d="M404 1365h84q9 -46 0 -78q-17 -67 -76.5 -114t-126.5 -47q-53 0 -86 32t-37 81q0 26 -17 42t-44 16q-32 0 -62 -24t-39 -56q-10 -39 10 -84h-90q-10 46 0 84q17 67 76.5 113t126.5 46q55 0 89 -32.5t34 -83.5q2 -24 19 -38.5t42 -14.5q32 0 62 23t39 57q11 40 -4 78z" />
<glyph unicode="&#x599;" d="M143 1427l64 61q135 -131 76 -345q-2 -9 -5 -17h-95q39 173 -40 301z" />
<glyph unicode="&#x59a;" d="M-38 -102l82 -48l-273 -121l210 -120l-109 -49l-294 169z" />
<glyph unicode="&#x59b;" d="M-258.5 -102q28.5 0 43 -20t6.5 -49t-33.5 -48.5t-53.5 -19.5t-42.5 19.5t-7 48.5t33 49t54 20zM-288 -403q148 128 201 301h97q-3 -9 -5 -17q-56 -213 -261 -345z" />
<glyph unicode="&#x59c;" d="M360 1427q-148 -128 -201 -301h-98q3 9 6 17q56 213 261 345z" />
<glyph unicode="&#x59d;" d="M360 1427q-148 -128 -201 -301h-98q3 9 6 17q56 213 261 345z" />
<glyph unicode="&#x59e;" d="M464 1427q-148 -128 -199 -301h-98q2 9 5 17q56 213 261 345zM254 1427q-148 -128 -201 -301h-96q2 9 4 17q58 213 261 345z" />
<glyph unicode="&#x59f;" d="M470 1391q-30 0 -56.5 -21.5t-35 -51t8 -50t46.5 -20.5t56 20.5t34.5 50t-7.5 51t-46 21.5zM355 1205l-99 -79l-36 48l99 79q-10 31 0 66q14 55 63.5 94t104 39t83.5 -39t14.5 -93.5t-64 -94t-104.5 -39.5q-35 0 -61 19zM13 1391q-30 0 -57.5 -21.5t-35 -51t8 -50 t45 -20.5t56 20.5t35 50t-6.5 51t-45 21.5zM29 1205q-36 -19 -72 -19q-55 0 -83.5 39.5t-13.5 94t64 93.5t104.5 39t83.5 -39t13 -94q-9 -36 -36 -66l58 -79l-62 -48z" />
<glyph unicode="&#x5a0;" d="M272 1391q-30 0 -57 -21.5t-35 -51t7.5 -50t45.5 -20.5t56.5 20.5t35 50t-7 51t-45.5 21.5zM155 1205l-99 -79l-36 48l99 79q-10 31 0 66q15 55 64 94t104.5 39t83.5 -39t13.5 -93.5t-64 -94t-103.5 -39.5q-36 0 -62 19z" />
<glyph unicode="&#x5a1;" d="M138 1207l-22 -81h-96l76 285h97l-29 -107q44 0 84 31.5t52 75.5h98q-22 -85 -99 -144.5t-161 -59.5z" />
<glyph unicode="&#x5a2;" d="M-261 -302q-63 17 -92 72.5t-11 127.5h96q-12 -44 12 -77t68.5 -33t84.5 32.5t52 77.5h97q-19 -72 -78.5 -127.5t-131.5 -72.5l-37 -138h-96z" />
<glyph unicode="&#x5a3;" d="M-451 -444l28 103h297l65 239h102l-92 -342h-400z" />
<glyph unicode="&#x5a4;" d="M-38 -102l82 -48l-273 -121l210 -120l-109 -49l-294 169z" />
<glyph unicode="&#x5a5;" d="M-348 -403q148 128 201 301h96q-2 -9 -4 -17q-58 -213 -261 -345z" />
<glyph unicode="&#x5a6;" d="M-454 -403q148 128 201 301h98q-2 -9 -5 -17q-56 -213 -262 -345zM-242 -403q148 128 201 301h96q-2 -9 -4 -17q-58 -213 -263 -345z" />
<glyph unicode="&#x5a7;" d="M-26 -102l23 -96h-193l129 -145l-75 -97h-240l-22 97h192l-129 145l73 96h242z" />
<glyph unicode="&#x5a8;" d="M143 1427l64 61q135 -131 76 -345q-2 -9 -5 -17h-95q39 173 -40 301z" />
<glyph unicode="&#x5a9;" d="M211 1391q-30 0 -56.5 -21.5t-35 -51t7.5 -50t46 -20.5t56.5 20.5t35 50t-7.5 51t-46 21.5zM227 1205q-34 -19 -70 -19q-55 0 -84 39.5t-14.5 94t64 93.5t104.5 39t84 -39t13 -94q-10 -36 -36 -66l58 -79l-61 -48z" />
<glyph unicode="&#x5aa;" d="M-364 -102h96q-12 -44 12 -77t68.5 -33t84.5 32.5t52 77.5h97q-22 -85 -99 -145t-161.5 -60t-128 60t-21.5 145z" />
<glyph unicode="&#x5ab;" d="M381 1464l83 -49l-273 -120l208 -121l-109 -48l-292 169z" />
<glyph unicode="&#x5ac;" d="M-29 1126l27 103h297l63 239h103l-91 -342h-399z" />
<glyph unicode="&#x5ad;" d="M-131 -403l-64 -61q-135 131 -76 345q2 9 3 17h97q-39 -173 40 -301z" />
<glyph unicode="&#x5ae;" d="M404 1365h84q9 -46 0 -78q-17 -67 -76.5 -114t-126.5 -47q-53 0 -86 32t-37 81q0 26 -17 42t-44 16q-32 0 -62 -24t-39 -56q-10 -39 10 -84h-90q-10 46 0 84q17 67 76.5 113t126.5 46q55 0 89 -32.5t34 -83.5q2 -24 19 -38.5t42 -14.5q32 0 62 23t39 57q11 40 -4 78z" />
<glyph unicode="&#x5af;" d="M238 1379q-35 0 -66.5 -25t-41 -59.5t9.5 -59.5t54 -25t65.5 25t40 59.5t-8.5 59.5t-53 25zM261 1464q70 0 106 -49.5t17 -119.5t-81 -119.5t-132 -49.5t-106 49.5t-18 119.5t81 119.5t133 49.5z" />
<glyph unicode="&#x5b0;" d="M-214 -307q28 0 42.5 -19.5t7.5 -48.5t-32.5 -49t-53.5 -20t-42.5 20t-8 49t32.5 48.5t54 19.5zM-159.5 -102q28.5 0 43.5 -20t7.5 -49t-33 -48.5t-54 -19.5t-43 19.5t-6.5 48.5t32.5 49t53 20z" />
<glyph unicode="&#x5b1;" d="M-325 -307q28 0 42.5 -19.5t7.5 -48.5t-32.5 -49t-53.5 -20t-42.5 20t-7.5 49t32.5 48.5t53.5 19.5zM-373 -102q28 0 43.5 -20t8 -49t-33.5 -48.5t-54 -19.5t-42.5 19.5t-7 48.5t32.5 49t53 20zM-168 -102q28 0 43.5 -20t7.5 -49t-33.5 -48.5t-53.5 -19.5t-42.5 19.5 t-7 48.5t32.5 49t53 20zM-1 -307q28 0 42.5 -19.5t8 -48.5t-32.5 -49t-54 -20t-42.5 20t-7.5 49t32.5 48.5t53.5 19.5zM54 -102q28 0 43.5 -20t7.5 -49t-33.5 -48.5t-53.5 -19.5t-42.5 19.5t-7 48.5t32.5 49t53 20z" />
<glyph unicode="&#x5b2;" d="M-445 -119h341l-27 -103h-342zM54 -102q28 0 43.5 -20t7.5 -49t-33.5 -48.5t-53.5 -19.5t-42.5 19.5t-7 48.5t32.5 49t53 20zM-1 -307q28 0 42.5 -19.5t8 -48.5t-32.5 -49t-54 -20t-42.5 20t-7.5 49t32.5 48.5t53.5 19.5z" />
<glyph unicode="&#x5b3;" d="M-445 -119h341l-27 -103h-120l-54 -203h-103l55 203h-120zM54 -102q28 0 43.5 -20t7.5 -49t-33.5 -48.5t-53.5 -19.5t-42.5 19.5t-7 48.5t32.5 49t53 20zM-1 -307q28 0 42.5 -19.5t8 -48.5t-32.5 -49t-54 -20t-42.5 20t-7.5 49t32.5 48.5t53.5 19.5z" />
<glyph unicode="&#x5b4;" d="M-159.5 -102q28.5 0 43.5 -20t7.5 -49t-33 -48.5t-54 -19.5t-43 19.5t-6.5 48.5t32.5 49t53 20z" />
<glyph unicode="&#x5b5;" d="M-262 -102q28 0 43.5 -20t8 -49t-33.5 -48.5t-54 -19.5t-42.5 19.5t-7 48.5t32.5 49t53 20zM-57 -102q28 0 43.5 -20t7.5 -49t-33.5 -48.5t-53.5 -19.5t-42.5 19.5t-7 48.5t32.5 49t53 20z" />
<glyph unicode="&#x5b6;" d="M-214 -307q28 0 42.5 -19.5t7.5 -48.5t-32.5 -49t-53.5 -20t-42.5 20t-8 49t32.5 48.5t54 19.5zM-262 -102q28 0 43.5 -20t8 -49t-33.5 -48.5t-54 -19.5t-42.5 19.5t-7 48.5t32.5 49t53 20zM-57 -102q28 0 43.5 -20t7.5 -49t-33.5 -48.5t-53.5 -19.5t-42.5 19.5t-7 48.5 t32.5 49t53 20z" />
<glyph unicode="&#x5b7;" d="M-335 -119h342l-27 -103h-342z" />
<glyph unicode="&#x5b8;" d="M-335 -119h342l-27 -103h-120l-48 -179h-102l48 179h-120z" />
<glyph unicode="&#x5b9;" d="M207.5 1263q28.5 0 43 -19.5t6.5 -48.5t-33.5 -49t-53.5 -20t-42.5 20t-7 49t33 48.5t54 19.5z" />
<glyph unicode="&#x5ba;" d="M207.5 1263q28.5 0 43 -19.5t6.5 -48.5t-33.5 -49t-53.5 -20t-42.5 20t-7 49t33 48.5t54 19.5z" />
<glyph unicode="&#x5bb;" d="M-26.5 -307q28.5 0 43 -19.5t7.5 -48.5t-32.5 -49t-53.5 -20t-42.5 20t-8 49t32 48.5t54 19.5zM-187 -205q28 0 43.5 -19.5t8 -48.5t-33.5 -48.5t-54 -19.5t-42.5 19.5t-7 48.5t32.5 48.5t53 19.5zM-347 -102q28 0 43.5 -20t7.5 -49t-33.5 -48.5t-53.5 -19.5t-42.5 19.5 t-7 48.5t32.5 49t53 20z" />
<glyph unicode="&#x5bc;" d="M24 579q29 0 43.5 -20t7 -48t-33.5 -48.5t-54 -20.5t-42.5 20.5t-7 48.5t32.5 48t54 20z" />
<glyph unicode="&#x5bd;" d="M-210 -102h102l-93 -349h-103z" />
<glyph unicode="&#x5be;" horiz-adv-x="737" d="M734 841q-17 -68 -72 -68h-423q-55 0 -38 68l31 115q19 68 73 68h424q55 0 36 -68z" />
<glyph unicode="&#x5bf;" d="M36 1263h341l-27 -102h-341z" />
<glyph unicode="&#x5c0;" horiz-adv-x="305" d="M241 1085l157 47l-330 -1229l-157 -46z" />
<glyph unicode="&#x5c1;" d="M1206 1205q28 0 42.5 -19.5t7 -48.5t-33.5 -49t-54 -20t-42.5 20t-7 49t33.5 48.5t54 19.5z" />
<glyph unicode="&#x5c2;" d="M458 1205q28 0 42.5 -19.5t7 -48.5t-33 -49t-53.5 -20t-42.5 20t-7 49t33 48.5t53.5 19.5z" />
<glyph unicode="&#x5c3;" horiz-adv-x="520" d="M242 761l127 116q24 20 35.5 20.5t23.5 -20.5l65 -116q15 -27 -15 -54l-126 -116q-24 -22 -36 -22.5t-24 22.5l-65 116q-16 27 15 54zM82 164l126 116q24 20 36 20t24 -20l65 -116q15 -27 -14 -55l-128 -116q-24 -22 -36 -22t-24 22l-64 116q-14 28 15 55z" />
<glyph unicode="&#x5c4;" d="M225.5 1331q42.5 0 64.5 -30t10 -72.5t-49.5 -72.5t-80 -30t-64.5 30t-10 72.5t49.5 72.5t80 30z" />
<glyph unicode="&#x5c5;" d="M-158.5 -102q42.5 0 64.5 -30t10 -72.5t-49.5 -72.5t-80 -30t-64.5 30t-10 72.5t49.5 72.5t80 30z" />
<glyph unicode="&#x5c6;" horiz-adv-x="628" d="M227 242h283l-129 -242h-422l61 118q17 32 26 77q3 20 13.5 80t15.5 83.5t18 69t30 89.5q19 48 57 113.5t66 108.5l27 43q-17 17 -23 23.5t-11 23t-3 41.5q2 70 46 149q36 63 68 78q10 5 21 4.5t13 -7.5q0 -3 -5 -16t-5 -22q-2 -14 5.5 -23t18.5 -9h100h11q32 0 49 -1 t39.5 -11t33.5 -29q24 -44 7 -114t-51 -94q-17 -9 -24 -7t-24 8t-30 6q-157 2 -157 0q-20 -17 -60.5 -100t-66.5 -158q-24 -77 -33 -128t-4 -109q3 -45 39 -45z" />
<glyph unicode="&#x5c7;" d="M-300 -119h273l-28 -103h-85l-53 -196h-102l53 196h-86z" />
<glyph unicode="&#x5d0;" horiz-adv-x="1058" d="M1063 874q-24 -85 -49.5 -115t-54.5 -17q-53 26 -143 -100q-41 -58 -61.5 -124.5t-0.5 -102.5l93 -164q20 -43 17.5 -87.5t-19.5 -81.5q-19 -41 -62.5 -74.5t-72.5 -24.5q-15 5 -14.5 18t6.5 29t-6 40l-280 500q-90 -51 -111 -114q-12 -41 -3 -87t26 -84t25.5 -90 t-5.5 -103q-24 -92 -80 -92h-275q-29 5 -24 36t28 56q14 14 42 17.5t34 9.5q17 24 16.5 61.5t3 97.5t30.5 125q32 75 92 134.5t152 119.5l-89 155q-34 68 -18.5 131.5t54.5 108t73 44.5q17 0 23 -8t4.5 -20t0 -33t13.5 -38l244 -434q48 119 149 207l-43.5 13.5t-32.5 16.5 t-23 28.5t-6 42t9 61.5q15 61 53.5 116t73.5 55q12 0 13.5 -5.5t-4.5 -20t-6 -21.5q-2 -15 6 -22t28 -10l55 -10q82 -14 110 -42t9 -98z" />
<glyph unicode="&#x5d1;" horiz-adv-x="868" d="M353 1024h377q27 0 61.5 -16t44.5 -52q29 -99 -27 -311q-53 -198 -189 -384q-3 -5 -3.5 -12t6.5 -7h123q26 0 29 -10t-10 -31l-89 -167q-10 -20 -21.5 -27t-36.5 -7h-656q-26 0 -28 11t10 32l92 177q9 14 16.5 18t26.5 4h380q55 0 72 14q31 24 65.5 95.5t57.5 157.5 q38 140 17 204q-12 32 -45.5 50.5t-81.5 18.5h-240q-73 0 -99 35.5t-5 112.5q17 60 54.5 116.5t71.5 56.5q12 0 13.5 -5.5t-3.5 -18t-7 -21.5q-2 -14 6 -24t18 -10z" />
<glyph unicode="&#x5d2;" horiz-adv-x="721" d="M-26 0q-27 0 -29.5 11t11.5 32l92 177q7 14 15.5 18t26.5 4h89q32 0 62 6t53 20.5t42 27.5t34.5 36t25.5 37.5t21 42t15.5 36.5t12 34t7.5 27q90 273 -7 273h-54q-75 0 -100 35.5t-4 114.5q17 61 55.5 116t70.5 55q12 0 13.5 -5.5t-4.5 -20t-6 -21.5q-2 -14 6 -23t18 -9 h133q9 0 20 -1.5t30 -7t31.5 -18t23 -30.5t7 -50.5t-18.5 -71.5q-9 -19 -29.5 -67t-28 -67.5t-20.5 -57t-23 -74.5q-17 -60 -13.5 -122.5t14.5 -107.5t12.5 -112.5t-18.5 -139.5q-7 -29 -14 -47.5t-21.5 -37.5t-29.5 -19q-24 0 -32.5 46t-17 115.5t-29.5 104.5 q-20 36 -107 -104q-3 -5 -9 -13l-8 -16l-58 -92q-20 -34 -55 -34h-205z" />
<glyph unicode="&#x5d3;" horiz-adv-x="901" d="M176 932q15 61 53.5 116t70.5 55q14 0 15 -5.5t-4.5 -20t-6.5 -21.5q0 -14 7.5 -23t17.5 -9h613q55 0 38 -68l-40 -144q-5 -20 -17 -25t-25.5 -2.5t-36.5 -10.5t-47 -44q-56 -75 -82.5 -179t-40 -215t-27.5 -153q-31 -97 -91 -145q-34 -27 -75 -38.5t-46 7.5 q-3 2 -1.5 9.5t3.5 8.5t9.5 18t16 38t23 69t31.5 109q2 5 16.5 65t27.5 108.5t38.5 116t54.5 113.5q20 36 42.5 59t33.5 32.5t12 14.5q3 10 -3.5 12t-21.5 2h-7h-449q-73 0 -98.5 36.5t-3.5 113.5z" />
<glyph unicode="&#x5d4;" horiz-adv-x="984" d="M372 1024h613q55 0 37 -68l-39 -144q-7 -24 -13 -32.5t-12 -7.5t-19.5 -8.5t-30.5 -33.5q-32 -44 -52.5 -150.5t-37 -227t-31.5 -169.5q-31 -97 -91 -145q-34 -27 -75 -38.5t-46 7.5q-3 2 -1.5 9.5t3.5 8.5t9.5 18t16 38t23 69t33.5 109q2 12 12 64t31.5 136t58.5 193 q14 39 36 64.5t39 36t17 15.5q2 5 0.5 8.5t-6 5t-8 1.5t-9.5 -0.5t-9 -0.5h-500q-73 0 -99 36.5t-4 113.5q15 61 54 116t71 55q14 0 15.5 -5.5t-4.5 -20t-6 -21.5q-2 -14 6 -23t18 -9zM285 556q20 0 10 -17q-27 -49 -71.5 -237.5t-86.5 -236.5q-29 -32 -78 -51t-68 -17 t-8 20q27 51 66 208q3 9 9.5 33.5t9 34t8.5 32.5t9.5 34t9.5 30t10 30t11 25.5t12 24t12 19t14 15.5q52 53 131 53z" />
<glyph unicode="&#x5d5;" horiz-adv-x="580" d="M357 1024h90q77 0 113 -29t34 -79.5t-17 -116.5q-19 -72 -57.5 -219t-67.5 -252.5t-59 -206.5q-17 -61 -58 -96t-72 -35q-7 0 -11.5 6t-2.5 14q32 118 88.5 330.5t73.5 279.5q10 39 14.5 57.5t3.5 42.5t-13 35t-36.5 19t-67.5 8h-7q-73 0 -98.5 36.5t-5.5 113.5 q17 61 55.5 116t71.5 55q14 0 14.5 -5.5t-4.5 -20t-7 -21.5q-2 -14 6 -23t20 -9z" />
<glyph unicode="&#x5d6;" horiz-adv-x="578" d="M364 1024h119q106 0 133 -68q17 -46 -6 -115.5t-50 -92.5q-10 -9 -30.5 4t-40.5 23t-49 -10q-34 -31 -60.5 -144.5t-47.5 -252.5t-37 -185q-31 -97 -92 -145q-34 -27 -70 -38.5t-41 7.5q-3 2 -1.5 11t3.5 12.5t8.5 24t14.5 43.5t23 73.5t32 111.5q2 10 15.5 65.5 t25.5 105t32.5 108.5t39.5 90q15 26 29 44.5t20 25.5t12 15.5t11 20.5q3 12 -4.5 18t-21.5 6h-19q-73 0 -98.5 36.5t-3.5 113.5q15 61 53.5 116t71.5 55q14 0 14.5 -5.5t-4.5 -20t-7 -21.5q0 -14 8 -23t18 -9z" />
<glyph unicode="&#x5d7;" horiz-adv-x="1012" d="M273 782q-51 10 -70 46t0 104q17 61 55.5 116t70.5 55q14 0 15 -5.5t-4 -20t-7 -21.5q-2 -14 5.5 -23t19.5 -9h664q53 0 36 -68l-37 -144q-7 -24 -14 -31.5t-12 -7.5t-18.5 -9.5t-31.5 -33.5q-32 -44 -52.5 -150.5t-36.5 -227t-32 -169.5q-31 -97 -92 -145 q-34 -27 -74 -38.5t-47 7.5q0 7 1 12t7.5 18.5t16 34t26 71t33.5 116.5q9 34 36 155.5t51 187.5q15 44 30.5 74.5t24 40.5t18.5 19.5t15 16.5q20 29 -23 29h-359q-72 -2 -116 -52q-38 -43 -67.5 -146.5t-55 -231t-39.5 -169.5q-31 -97 -92 -145q-34 -27 -74.5 -38.5 t-46.5 7.5q-2 2 -0.5 10.5t4 10t10.5 18.5t16.5 38.5t23 68.5t29.5 106q61 227 94 321q22 60 47.5 99.5t45.5 56.5t21 22q9 19 -15 24z" />
<glyph unicode="&#x5d8;" horiz-adv-x="991" d="M285 787q-49 12 -65.5 41.5t-1.5 103.5q17 61 55.5 116t71.5 55q14 0 14.5 -5.5t-4.5 -20t-7 -21.5q-2 -14 6 -23t20 -9h53q87 0 112.5 -39.5t4.5 -117.5q-20 -75 -56 -106q-20 -17 -44 -2.5t-48 -4.5q-53 -41 -101 -222q-36 -133 -24 -211.5t67 -78.5h297q82 2 140 103 q38 67 60.5 127t30.5 123.5t-19 100.5q-26 39 -64.5 46t-80.5 -11.5t-78.5 -47t-70.5 -62.5q-32 -32 -50 -23.5t0 47.5q19 44 59 106.5t95 128t120.5 110t120.5 41.5q53 -3 82 -39t35.5 -86.5t-1 -116t-20.5 -117.5t-28 -102q-56 -167 -118.5 -291t-149.5 -245 q-10 -14 -16 -19t-17 -10t-30 -5h-519q-20 0 -25.5 7t-1.5 27q24 128 31.5 212.5t14.5 132.5t31 133q12 44 32 87t34.5 64t38 50t24.5 33q24 34 -10 41z" />
<glyph unicode="&#x5d9;" horiz-adv-x="559" d="M355 1024h99q79 0 110.5 -30.5t24.5 -119.5q-9 -75 -47.5 -159t-101.5 -148q-60 -65 -117 -105t-76 -10q-20 29 33 70q128 97 138 188q3 34 -17 53t-55 19h-42q-73 0 -99 36.5t-4 113.5q15 61 54 116t71 55q14 0 14.5 -5.5t-4.5 -20t-7 -21.5q-2 -14 7 -23t19 -9z" />
<glyph unicode="&#x5da;" horiz-adv-x="849" d="M340 1024h477q60 0 79.5 -32.5t4.5 -88.5q-14 -56 -48 -88.5t-83 -32.5q-5 -17 -16.5 -57.5t-21.5 -78.5t-19 -74q-44 -172 -106.5 -480.5t-79.5 -361.5q-31 -96 -92 -143q-34 -27 -74 -39t-45 8q-3 2 -1.5 9t3 8.5t9.5 17.5t16.5 37.5t23 69.5t31.5 111 q34 125 133.5 470.5t151.5 502.5h-395q-73 0 -98.5 35.5t-5.5 112.5q17 61 55.5 117t71.5 56q14 0 14.5 -5.5t-4.5 -18t-7 -21.5q0 -14 7 -24t19 -10z" />
<glyph unicode="&#x5db;" horiz-adv-x="889" d="M-12 0q-26 0 -28.5 11t9.5 32l92 177q9 14 16.5 18t26.5 4h382q195 0 267 270q34 126 -11.5 198t-171.5 72h-241q-73 0 -97.5 35t-6.5 113q15 60 53.5 116.5t73.5 56.5q12 0 13.5 -5.5t-3.5 -18t-7 -21.5q-2 -14 6 -24t20 -10h315q294 0 157 -512q-27 -97 -64.5 -183.5 t-90.5 -162.5t-124.5 -121t-151.5 -45h-434z" />
<glyph unicode="&#x5dc;" horiz-adv-x="918" d="M377 174q-3 -9 -6.5 -41t-8 -60.5t-28 -53t-66.5 -26.5q-36 -2 -52 26.5t-9 67.5q14 65 51 112.5t109 100.5q43 32 113 72.5t113.5 67t91 78.5t74.5 120q24 51 19 97.5t-48 46.5h-513q-20 0 -24.5 8.5t-1.5 32.5q19 109 65 235q15 44 50 112.5t55.5 113.5t15.5 63 q-5 15 -22 24.5t-30 14.5t-20.5 22t4.5 48q39 114 68 114q14 0 20.5 -18t24.5 -25q10 -3 40 -8t46 -16t23 -37q7 -34 -19 -78.5t-68.5 -103.5t-59.5 -103q-12 -31 -17 -48t-7 -41t7.5 -36.5t33.5 -22t63 -9.5h408q55 0 70 -13t21 -55q3 -38 -16 -128.5t-41 -148.5 q-14 -38 -25.5 -65t-35.5 -69.5t-58 -77.5t-79 -61q-27 -17 -91 -49.5t-101.5 -53.5t-79.5 -56t-59 -73z" />
<glyph unicode="&#x5dd;" horiz-adv-x="955" d="M391 1024h377q51 0 70 -1t51.5 -7.5t52.5 -22.5q27 -20 37.5 -45t2 -87t-22.5 -119.5t-51 -197.5q-7 -24 -10 -35q-70 -258 -139 -446q-14 -39 -30.5 -51t-45.5 -12h-651q-26 0 -30.5 7.5t0.5 52.5q10 56 23 106.5t34 125.5t26 94q29 113 57.5 182t70.5 123q43 56 94 91 q-106 14 -70 148q17 61 54.5 117t72.5 56q12 0 13.5 -5.5t-3.5 -18t-7 -21.5q-2 -14 6 -24t18 -10zM466 782q-72 0 -131 -60t-88 -152q-46 -140 -66 -234q-9 -34 -9.5 -54.5t8 -28t17 -9.5t28.5 -2h9h437q22 0 32 7t21 29q36 85 78 243q9 34 15 58.5t11 58t3 56.5t-8.5 44 t-23.5 32.5t-45 11.5h-288z" />
<glyph unicode="&#x5de;" horiz-adv-x="996" d="M155 82q-10 -44 -46.5 -70t-65.5 -23.5t-36 11.5q-3 9 8 51q58 215 140 362.5t209 275.5q19 19 17 39t-23 25q-20 5 -48 6.5t-47 6.5t-36 22q-41 41 -14 142q17 61 54.5 117t72.5 56q12 0 13.5 -5.5t-3.5 -18t-7 -21.5q-2 -14 6 -24t18 -10h36q43 0 70 -11t37.5 -30.5 t13.5 -35t3 -32.5q-2 -65 -41 -140q89 39 145.5 97t107.5 138q14 22 26 25.5t30 -1.5q80 -15 129 -62t64.5 -118t9.5 -151t-32 -176q-72 -263 -195 -493q-10 -20 -21 -27t-31 -7h-424q-27 0 -29.5 11t10.5 32l93 177q9 14 16.5 18t25.5 4h285q24 0 41 8.5t41 34.5 q29 31 58 113t31 162q2 89 -47 142.5t-139 53.5q-164 0 -312.5 -183.5t-213.5 -490.5z" />
<glyph unicode="&#x5df;" horiz-adv-x="549" d="M346 1024h163q60 0 78.5 -48t-2.5 -111q-22 -85 -104 -181q-65 -79 -83 -145q-24 -87 -96.5 -418t-91.5 -391q-31 -96 -91 -143q-34 -27 -75 -39t-46 8q-3 2 -1.5 9t3.5 8.5t9.5 17.5t16 37.5t23 69.5t31.5 111q24 82 109.5 375.5t117.5 390.5q19 53 54 100t40 69 q5 15 -6 26.5t-30 11.5h-70q-73 0 -98.5 35.5t-3.5 112.5q15 60 53.5 116.5t70.5 56.5q14 0 15 -5.5t-4 -18t-5 -21.5q-2 -14 5.5 -24t17.5 -10z" />
<glyph unicode="&#x5e0;" horiz-adv-x="648" d="M442 1024h116q138 0 99 -157q-7 -26 -44 -114q-63 -148 -82 -219q-19 -67 -20.5 -173.5t-10.5 -147.5q-19 -99 -65 -177q-9 -14 -14 -20t-18.5 -11t-33.5 -5h-408q-27 0 -30 11t11 32l92 177q7 14 15.5 18t27.5 4h211q49 0 79 58q12 24 21.5 60t21.5 88t18 83 q19 67 41.5 124t23.5 77q3 31 -11 40.5t-45 9.5h-44q-75 0 -100 35.5t-5 112.5q17 60 55 116.5t72 56.5q12 0 13.5 -5.5t-3.5 -18t-7 -21.5q-2 -14 6 -24t18 -10z" />
<glyph unicode="&#x5e1;" horiz-adv-x="921" d="M300 782q-104 12 -66 148q15 60 53.5 116.5t72.5 56.5q12 0 13.5 -5.5t-4 -18t-5.5 -21.5q-2 -14 5.5 -24t17.5 -10h306q53 0 94.5 -13.5t69 -34t43.5 -55t24 -65t8 -75t-2.5 -76t-12 -76t-14.5 -65.5t-14 -55q-44 -160 -107 -268t-162 -181q-97 -72 -277 -72 q-166 0 -227 75q-82 97 -36 323q29 135 96 256q20 38 56 79t68 61zM427 230q297 0 375 289q32 125 -9.5 194t-150.5 69h-139q-56 0 -77.5 -3.5t-44.5 -19.5q-58 -38 -101.5 -106.5t-66.5 -150.5q-73 -272 214 -272z" />
<glyph unicode="&#x5e2;" horiz-adv-x="991" d="M794 775q-79 5 -106.5 41.5t-6.5 113.5q15 60 53.5 116.5t72.5 56.5q12 0 14 -5.5t-4 -18t-6 -21.5q-2 -19 11.5 -28t27.5 -11t41 -4h8q34 -2 60 -7.5t50 -18.5t33 -40t2 -65q-7 -34 -23 -64t-30.5 -45.5t-43.5 -42.5t-42 -41q-43 -44 -85 -110t-66 -114.5t-71 -145.5 q-2 -3 -11.5 -24t-12 -25t-11 -22t-12 -24t-12 -22t-13.5 -24t-13.5 -20.5t-16.5 -22t-17 -20.5t-18 -21q-63 -67 -124.5 -105.5t-143.5 -72.5l-362 -150q-26 -12 -31.5 -8t2.5 32l69 199q7 22 17 31t30 16l217 75q55 19 96 48.5t46 65.5q7 31 -1 57.5t-14.5 36.5t-27.5 34 q-24 32 -38.5 52.5t-26.5 54t-7 65.5q3 32 27.5 86t42.5 95t11 53q-7 14 -44.5 22.5t-51.5 16.5q-49 32 -22 130q15 60 53.5 116.5t72.5 56.5q12 0 14 -5.5t-4 -18t-6 -21.5q-3 -26 24 -32q24 -5 70.5 -9.5t74 -15.5t42.5 -40q12 -26 -3.5 -101t-50.5 -107q-7 -7 -34.5 5 t-44.5 1q-15 -9 -33 -59.5t-13 -90.5q5 -27 29 -60.5t46 -71.5t26 -83q5 -80 -50 -181q51 29 83 72t64 104.5t65 103.5q36 44 86 98t76 85.5t32 57.5q3 17 -6.5 28t-28.5 13z" />
<glyph unicode="&#x5e3;" horiz-adv-x="923" d="M326 783q-75 -2 -96.5 36.5t-2.5 110.5q15 60 53.5 116.5t72.5 56.5q12 0 14 -5.5t-4 -18t-6 -21.5q-2 -14 5.5 -24t18.5 -10h368q84 0 125 -25.5t44 -82.5q2 -61 -60 -343q-159 -719 -198 -843q-31 -96 -90 -143q-34 -27 -75 -39t-46 8q-3 2 -1.5 9t3 8.5t9.5 17.5 t16.5 37.5t23.5 69.5t32 111q15 56 238 802q10 46 9 83.5t-30.5 62.5t-88.5 25h-196q-43 0 -85.5 -34.5t-64.5 -73.5t-14 -56q2 -5 6.5 -6t12 0.5l17.5 3.5t24 3.5t31 0.5q53 -5 80 -31t21 -92q-5 -44 -26.5 -84.5t-57.5 -40.5q-15 0 -24 2.5t-14 9.5t-5.5 11t-4.5 16 q-9 36 -70 36q-63 0 -89 -32q-12 -15 -19.5 -22t-20.5 -14t-30 -7q-60 0 -42 55q19 63 54 138q75 155 183 218z" />
<glyph unicode="&#x5e4;" horiz-adv-x="916" d="M-9 0q-27 0 -29.5 11t11.5 32l92 177q7 14 15.5 18t27.5 4h435q96 0 156 78t100 219q12 60 11 114t-31 91.5t-84 37.5h-215q-43 0 -86.5 -34.5t-65 -73.5t-14.5 -56q3 -5 7.5 -6t11.5 0.5t17 3.5t23.5 3.5t32.5 0.5q53 -5 80.5 -31t20.5 -92q-5 -44 -26.5 -84.5 t-57.5 -40.5q-15 0 -24.5 2.5t-13.5 9.5t-6 11t-4 16q-9 36 -71 36q-61 0 -87 -32q-14 -15 -21 -22t-19.5 -14t-29.5 -7q-60 0 -45 55q20 63 57 138q75 155 181 218q-137 -2 -98 147q15 60 54 116.5t73 56.5q12 0 13.5 -5.5t-3.5 -18t-7 -21.5q-2 -14 6 -24t18 -10h353 q87 0 130.5 -24t54.5 -84q24 -157 -48 -406q-77 -273 -207 -476q-22 -34 -61 -34h-627z" />
<glyph unicode="&#x5e5;" horiz-adv-x="916" d="M655 800q-44 32 -18 130q17 60 55 116.5t71 56.5q14 0 14.5 -5.5t-4.5 -18t-5 -21.5q-2 -14 6 -24t18 -10l102 -14q32 -5 49.5 -20t19 -41.5t-2 -49.5t-11.5 -56q-20 -73 -50 -99q-14 -19 -30.5 -4.5t-44.5 2.5q-7 -3 -40 -30.5t-90 -76t-86 -72.5q-213 -179 -291 -413 q-32 -96 -60 -250t-32 -170q-31 -96 -92 -143q-34 -27 -75 -39t-46 8q-2 7 5 20.5t19 33.5t29 72.5t31 126.5q0 5 12.5 77.5t28 158t35 187t42.5 196t42 154.5q10 29 47.5 83t44.5 79q3 15 -8 26.5t-28 11.5h-15q-75 0 -100 35.5t-4 112.5q15 60 53.5 116.5t72.5 56.5 q12 0 14 -5.5t-4 -18t-6 -21.5q-2 -14 5.5 -24t17.5 -10h106q121 0 77 -166q-15 -58 -45 -104.5t-83 -110.5q-43 -51 -56 -97q-31 -97 -50 -210q68 130 268 294q22 19 51 42t45.5 35.5t32 26.5t22 22.5t6.5 13.5q-2 9 -11 12t-25.5 6t-28.5 12z" />
<glyph unicode="&#x5e6;" horiz-adv-x="954" d="M674 800q-44 32 -19 130q17 60 55 116.5t72 56.5q12 0 13.5 -5.5t-3.5 -18t-7 -21.5q-2 -14 6 -24t18 -10l87 -7q49 -3 68 -29.5t19 -59.5q-2 -85 -53 -170q-17 -22 -25.5 -17t-25.5 14.5t-32 2.5q-20 -10 -50 -39l-224 -224q27 -20 95.5 -63t101 -76t46.5 -83 q7 -27 -10 -60l-96 -179q-10 -20 -21 -27t-37 -7h-654q-26 0 -28 11t10 32l93 177q7 14 15.5 18t25.5 4h482q-12 36 -41 65t-59 45.5t-63.5 43.5t-52 59.5t-23 69t-1 58t19 78t18.5 78.5q7 27 -3 34t-36 9h-5h-22.5t-36 0.5t-36.5 6.5t-33 17q-39 34 -15 124q17 60 55 116.5 t71 56.5q14 0 14.5 -5.5t-4.5 -18t-5 -21.5q-2 -14 6 -24t18 -10h56q92 0 114.5 -34t1.5 -109q-3 -12 -22 -62.5t-31 -96.5t-7 -80q3 -38 40 -84q160 154 201 193q12 12 11 24t-14 13q-29 5 -38 12z" />
<glyph unicode="&#x5e7;" horiz-adv-x="965" d="M370 1024h490q46 0 77.5 -13.5t45.5 -40t20 -55t0.5 -69t-11.5 -70.5t-17 -71q-34 -128 -88 -209t-141 -136q-49 -31 -152.5 -78.5t-132.5 -63.5q-84 -48 -104 -107q-19 -53 -40.5 -73.5t-48.5 -20.5q-26 0 -40.5 18t-5.5 50q7 26 17 45.5t36.5 53t83.5 75t143 91.5 q10 5 56 29t76 42.5t69 48.5t65.5 68.5t38.5 82.5q20 82 -10.5 121.5t-100.5 39.5h-377q-73 0 -98.5 35.5t-3.5 112.5q15 60 53.5 116.5t72.5 56.5q12 0 13 -5.5t-4.5 -18t-5.5 -21.5q-2 -14 6 -24t18 -10zM227 406q-31 -114 -87 -339.5t-73 -283.5q-3 -7 -13.5 -39t-15 -45 t-13 -36t-17 -38.5t-17.5 -27.5q-24 -29 -64 -45t-57 4q-7 9 1 30t32 83.5t42 137.5q27 99 85.5 330.5t77.5 292.5q5 17 14 51t16 55.5t18 45.5t23 38q19 20 49 33t48.5 13t23.5 -7q2 -2 1 -9.5t-1.5 -8.5t-6.5 -18t-13 -37.5t-21.5 -69.5t-31.5 -110z" />
<glyph unicode="&#x5e8;" horiz-adv-x="870" d="M304 782q-73 0 -98 35.5t-5 112.5q15 60 54 116.5t73 56.5q12 0 13.5 -5.5t-4.5 -18t-6 -21.5q-2 -14 6 -24t18 -10h420q53 0 86 -20.5t44 -55.5t10.5 -71.5t-10.5 -77.5q-29 -104 -89 -328t-82 -305q-20 -80 -39 -111q-19 -27 -50.5 -46t-53.5 -19q-10 0 -14.5 8.5 t-1.5 18.5v2v1v2h2v2v2v1l2 2v2v1v2l1 2v2v1v2l2 2v1v2v2h2v1v2v2v2h1v1v2v2l2 1v2v2v2l2 1v2v2l2 1v2v2v2l1 1v2v2v1l2 2v2v1v2l2 2v2v1v2h1v2v1v2l2 2v2v1v2h2v2v1v2v2l1 1v2v2v2h2v1v2v2l2 1v2v2v2l2 1v2v2l1 1v2v2v1l2 2v2v2v1l2 2v2v1v2l1 2v2v1l2 2v2v1v2l2 2v1v2v2 l2 2v1v2v2l1 1v2v2v2l2 1v2v2l2 1v2v2l1 2v1v2v2l2 1v2v2v1l2 2v2v2v1l1 2v2v1v2l2 2v2v1v2l2 2v1v2l2 2v1v2v2l1 2v1v2v2l2 1v2v2v2l2 1v2v2v1l1 2v2v1l2 2v2v2v1l2 2v2v1v2l2 2v2v1l1 2v2v1v2l2 2v1v2v2l2 2v1v2v2l1 1v2v2l2 2v1v2v2l2 1v2v2v2l1 1v2v2v1l2 2v2v1l2 2v2v2 v1l2 2v2v1l1 2v2v2v3l2 2v1v2l2 2v1v4l1 2v1v2l2 2v1v4l2 2v1v2l2 2v1v4v1l1 2v2v2l2 1v4v1l2 2v2v2l1 3v2v1l2 2v2v1v4l2 2v1v2l1 2v1v4l2 2v1v2l2 2v1v4l2 2v1v2l1 2v3v2v1l2 2v2v2l2 3v2v1l1 2v2v2l2 3v2v1l2 2v2v1v4l2 2v1v2l1 2v1v4l2 2v1v2l2 2v1v2v3l1 2v2v2l2 1v2v2 l2 3v2v2l2 1v2v2v1l1 4v1v2l2 2v2v1l2 2v2v3v2l1 2v1v2l2 2v1v2l2 2v3v2v2l1 1v2v2l2 1v2v2v2l2 1v2v2l2 3v2v2v1l1 2v2v1l2 2v2v1v2l2 2v2v1l1 4q20 77 -4.5 108.5t-114.5 31.5h-319z" />
<glyph unicode="&#x5e9;" horiz-adv-x="1218" d="M976 794q-48 32 -20 136q17 60 54.5 116.5t71.5 56.5q12 0 13.5 -5.5t-3.5 -18t-7 -21.5q-2 -29 26 -34l97 -17q41 -7 55 -40t3.5 -78.5t-26.5 -84.5t-35 -72q-34 -58 -115 -147.5t-104 -116.5q-48 -60 -163.5 -210t-175.5 -224q-19 -22 -31 -28t-36 -6h-413 q-17 0 -24.5 6t-7.5 28q3 73 7.5 162t6 120.5t4 74t5 66.5t8.5 55q20 119 114 236q29 38 -4 44q-3 0 -15 1t-21.5 3.5t-15.5 9.5q-39 34 -16 124q17 60 55.5 116.5t71.5 56.5q14 0 14.5 -5.5t-4.5 -18t-7 -21.5q-3 -34 24 -36l90 -8q39 -5 57 -28t22 -68q2 -26 -11 -78 t-28 -81q-10 -17 -25 -14t-30 10.5t-41 -7.5q-27 -17 -62 -91.5t-47 -158.5q-38 -275 65 -256q63 155 102 222q29 55 94.5 132.5t82.5 106.5q31 55 29 67q-3 15 -28.5 19.5t-35.5 10.5q-44 31 -19 130q17 60 54.5 116.5t71.5 56.5q12 0 14 -5.5t-3.5 -18t-6.5 -21.5 q0 -14 6.5 -24t18.5 -10l89 -9q84 -9 84 -87q0 -97 -53 -170q-10 -15 -22.5 -12.5t-26 10t-40.5 -4.5q-17 -7 -34 -39q-15 -24 -51 -96.5t-62 -113.5q-22 -34 -59.5 -81t-65 -88t-44.5 -91h140q44 0 68 15.5t57 54.5q171 195 360 377q38 36 20 72q-12 22 -58 23t-58 10z" />
<glyph unicode="&#x5ea;" horiz-adv-x="1032" d="M-67 0q-27 0 -29.5 11t11.5 32l92 177q7 14 15.5 18t26.5 4h67q20 0 35 4.5t20 14.5t7.5 16t2.5 23v21q12 135 72 259q56 119 179 202h-31q-75 0 -100 35.5t-4 112.5q15 60 53.5 116.5t72.5 56.5q12 0 14 -5.5t-4 -18t-6 -21.5q-2 -14 5.5 -24t18.5 -10h452 q53 0 86 -20.5t43.5 -55.5t9.5 -71.5t-11 -77.5q-27 -104 -88 -328t-83 -305q-20 -80 -39 -111q-17 -27 -48.5 -46t-53.5 -19q-10 0 -15.5 8.5t-2.5 18.5q87 321 168 625q20 77 -4.5 108.5t-113.5 31.5h-123q-51 0 -84.5 -16.5t-80.5 -60.5q-79 -75 -111 -188 q-20 -67 -26.5 -165t-26.5 -171q-22 -85 -79 -150q-27 -31 -63 -31h-224z" />
<glyph unicode="&#x5f0;" horiz-adv-x="1160" d="M937 1024h90q77 0 113 -29t34 -79.5t-17 -116.5q-19 -72 -57.5 -219t-67.5 -252.5t-59 -206.5q-17 -61 -58 -96t-72 -35q-7 0 -11.5 6t-2.5 14q32 118 88.5 330.5t73.5 279.5q10 39 14.5 57.5t3.5 42.5t-13 35t-36.5 19t-67.5 8h-7q-73 0 -98.5 36.5t-5.5 113.5 q17 61 55.5 116t71.5 55q14 0 14.5 -5.5t-4.5 -20t-7 -21.5q-2 -14 6 -23t20 -9zM357 1024h90q77 0 113 -29t34 -79.5t-17 -116.5q-19 -72 -57.5 -219t-67.5 -252.5t-59 -206.5q-17 -61 -58 -96t-72 -35q-7 0 -11.5 6t-2.5 14q32 118 88.5 330.5t73.5 279.5q10 39 14.5 57.5 t3.5 42.5t-13 35t-36.5 19t-67.5 8h-7q-73 0 -98.5 36.5t-5.5 113.5q17 61 55.5 116t71.5 55q14 0 14.5 -5.5t-4.5 -20t-7 -21.5q-2 -14 6 -23t20 -9z" />
<glyph unicode="&#x5f1;" horiz-adv-x="1140" d="M917 1024h90q77 0 113 -29t34 -79.5t-17 -116.5q-19 -72 -57.5 -219t-67.5 -252.5t-59 -206.5q-17 -61 -58 -96t-72 -35q-7 0 -11.5 6t-2.5 14q32 118 88.5 330.5t73.5 279.5q10 39 14.5 57.5t3.5 42.5t-13 35t-36.5 19t-67.5 8h-7q-73 0 -98.5 36.5t-5.5 113.5 q17 61 55.5 116t71.5 55q14 0 14.5 -5.5t-4.5 -20t-7 -21.5q-2 -14 6 -23t20 -9zM355 1024h99q79 0 110.5 -30.5t24.5 -119.5q-9 -75 -47.5 -159t-101.5 -148q-60 -65 -117 -105t-76 -10q-20 29 33 70q128 97 138 188q3 34 -17 53t-55 19h-42q-73 0 -99 36.5t-4 113.5 q15 61 54 116t71 55q14 0 14.5 -5.5t-4.5 -20t-7 -21.5q-2 -14 7 -23t19 -9z" />
<glyph unicode="&#x5f2;" horiz-adv-x="1119" d="M915 1024h99q79 0 110.5 -30.5t24.5 -119.5q-9 -75 -47.5 -159t-101.5 -148q-60 -65 -117 -105t-76 -10q-20 29 33 70q128 97 138 188q3 34 -17 53t-55 19h-42q-73 0 -99 36.5t-4 113.5q15 61 54 116t71 55q14 0 14.5 -5.5t-4.5 -20t-7 -21.5q-2 -14 7 -23t19 -9z M355 1024h99q79 0 110.5 -30.5t24.5 -119.5q-9 -75 -47.5 -159t-101.5 -148q-60 -65 -117 -105t-76 -10q-20 29 33 70q128 97 138 188q3 34 -17 53t-55 19h-42q-73 0 -99 36.5t-4 113.5q15 61 54 116t71 55q14 0 14.5 -5.5t-4.5 -20t-7 -21.5q-2 -14 7 -23t19 -9z" />
<glyph unicode="&#x5f3;" horiz-adv-x="407" d="M145 645l138 420q5 14 17 36q53 101 166 100q55 0 71 -25.5t-10 -74.5q-14 -24 -22 -36l-314 -420h-46z" />
<glyph unicode="&#x5f4;" horiz-adv-x="728" d="M145 645l138 420q3 14 16 36q55 101 165 100q56 0 72.5 -25.5t-10.5 -74.5q-12 -24 -21 -36l-314 -420h-46zM469 645l137 420q5 14 17 36q26 48 70 74t98 26t70 -25.5t-8 -72.5q-7 -10 -25 -38l-313 -420h-46z" />
<glyph unicode="&#x5f5;" horiz-adv-x="580" d="M464 375q-38 -142 -71 -254q-17 -61 -55 -96t-67 -35q-7 0 -11 6t-2 14q15 53 85 307q7 19 37.5 44.5t64.5 36.5q10 3 15.5 -5t3.5 -18zM396 529q17 61 29 113q0 2 2 7q9 43 11 71.5t-24.5 45t-92.5 16.5h-16q-73 0 -98.5 36.5t-5.5 113.5q17 61 55.5 116t71.5 55 q14 0 14.5 -5.5t-4.5 -20t-7 -21.5q-2 -14 6 -23t20 -9h90q77 0 113 -29t34 -79.5t-17 -116.5q-26 -94 -51 -197q-5 -19 -37 -47t-74 -46q-9 -3 -15 3.5t-4 16.5z" />
<glyph unicode="&#x5f7;" horiz-adv-x="965" d="M290 782q-31 5 -60 24q-24 17 -22 64q0 31 9 58q15 55 37 91q2 2 7 9.5t6 10t5 9.5t7 9.5t7 7.5t6.5 7.5l7 7t8 7t7.5 6t8 4.5q10 5 21 4.5t13 -7.5q0 -3 -5.5 -16t-5.5 -22q-2 -14 6 -23t18 -9h492q46 0 76.5 -13.5t44.5 -40t20 -55t0.5 -69t-11.5 -70.5t-16 -71 q-34 -128 -87.5 -209t-140.5 -136q-49 -31 -156 -77.5t-138 -64.5q-85 -48 -106 -107q-17 -53 -38.5 -73.5t-48.5 -20.5q-26 0 -41 18t-7 50q7 26 18 45.5t38.5 53t85.5 75t143 91.5q12 7 56.5 29t76 41.5t71.5 49.5t67.5 68.5t39.5 82.5q20 82 -11.5 121.5t-99.5 39.5h-288 q-142 -188 -190 -376q-22 -85 -58.5 -232.5t-62.5 -244t-41 -146.5q-5 -17 -17 -67.5t-24 -78.5t-31 -43q-36 -27 -76 -42.5t-47 1.5q-3 3 -1.5 10t4.5 8.5t9.5 18t15 37.5t24 69t32.5 111q31 113 86.5 338t75.5 285q68 214 181 352z" />
<glyph unicode="&#x2000;" horiz-adv-x="819" />
<glyph unicode="&#x2001;" horiz-adv-x="1638" />
<glyph unicode="&#x2002;" horiz-adv-x="819" />
<glyph unicode="&#x2003;" horiz-adv-x="1638" />
<glyph unicode="&#x2004;" horiz-adv-x="546" />
<glyph unicode="&#x2005;" horiz-adv-x="409" />
<glyph unicode="&#x2006;" horiz-adv-x="273" />
<glyph unicode="&#x2007;" horiz-adv-x="273" />
<glyph unicode="&#x2008;" horiz-adv-x="204" />
<glyph unicode="&#x2009;" horiz-adv-x="327" />
<glyph unicode="&#x200a;" horiz-adv-x="91" />
<glyph unicode="&#x200c;" />
<glyph unicode="&#x200d;" />
<glyph unicode="&#x200e;" />
<glyph unicode="&#x200f;" />
<glyph unicode="&#x2010;" horiz-adv-x="725" d="M667 573l-65 -126q-14 -26 -39 -25h-483q-34 0 -17 34l65 126q14 26 39 26h483q34 -1 17 -35z" />
<glyph unicode="&#x2011;" horiz-adv-x="725" d="M667 573l-65 -126q-14 -26 -39 -25h-483q-34 0 -17 34l65 126q14 26 39 26h483q34 -1 17 -35z" />
<glyph unicode="&#x2012;" horiz-adv-x="725" d="M667 573l-65 -126q-14 -26 -39 -25h-483q-34 0 -17 34l65 126q14 26 39 26h483q34 -1 17 -35z" />
<glyph unicode="&#x2013;" horiz-adv-x="887" d="M872 568l-65 -126q-9 -15 -15.5 -20.5t-25.5 -5.5h-723q-26 0 -27.5 8t10.5 27l64 126q9 15 16 20t24 5h725q26 0 27.5 -7.5t-10.5 -26.5z" />
<glyph unicode="&#x2014;" horiz-adv-x="1390" d="M1376 568l-65 -126q-9 -15 -15.5 -20.5t-25.5 -5.5h-1227q-26 0 -27.5 8t10.5 27l64 126q9 15 16 20t24 5h1229q26 0 27.5 -7.5t-10.5 -26.5z" />
<glyph unicode="&#x2015;" horiz-adv-x="1732" d="M1717 568l-65 -126q-9 -15 -15.5 -20.5t-25.5 -5.5h-1568q-26 0 -27.5 8t10.5 27l64 126q9 15 16 20t24 5h1570q26 0 27.5 -7.5t-10.5 -26.5z" />
<glyph unicode="&#x2018;" horiz-adv-x="474" d="M556 1278l-138 -421q-3 -14 -15 -36q-55 -99 -166 -99q-56 0 -71.5 24.5t10.5 74.5q12 26 20 36l314 421h46z" />
<glyph unicode="&#x2019;" horiz-adv-x="471" d="M198 713l137 420q5 14 17 36q53 101 165 101q56 0 71.5 -25.5t-9.5 -75.5q-14 -24 -23 -36l-312 -420h-46z" />
<glyph unicode="&#x201a;" horiz-adv-x="471" d="M-70 -283l138 421q5 14 17 36q53 99 166 99q55 0 71 -24.5t-10 -74.5q-14 -26 -22 -36l-312 -421h-48z" />
<glyph unicode="&#x201c;" horiz-adv-x="800" d="M882 1278l-138 -421q-3 -12 -15 -36q-55 -99 -166 -99q-56 0 -72.5 24.5t11.5 74.5q12 26 20 36l314 421h46zM558 1278l-136 -421q-5 -12 -18 -36q-26 -46 -70 -72.5t-97.5 -26.5t-70 25.5t7.5 71.5q7 12 26 38l312 421h46z" />
<glyph unicode="&#x201d;" horiz-adv-x="797" d="M198 713l137 420q5 14 17 36q53 101 165 101q56 0 71.5 -25.5t-9.5 -75.5q-14 -24 -23 -36l-312 -420h-46zM521 713l138 420q3 14 17 36q24 48 69 74.5t98 26.5t70 -25.5t-7 -73.5q-7 -10 -25 -38l-314 -420h-46z" />
<glyph unicode="&#x201e;" horiz-adv-x="797" d="M-70 -283l138 421q5 14 17 36q53 99 166 99q55 0 71 -24.5t-10 -74.5q-14 -26 -22 -36l-312 -421h-48zM254 -283l137 421q5 12 17 36q26 46 70 72.5t98 26.5t71 -25.5t-9 -71.5q-5 -12 -24 -38l-314 -421h-46z" />
<glyph unicode="&#x2026;" horiz-adv-x="1484" d="M1072 164l126 116q24 20 36 20t24 -20l65 -116q15 -27 -14 -55l-128 -116q-24 -22 -36 -22t-24 22l-64 116q-14 28 15 55zM577 164l126 116q24 20 36 20t24 -20l65 -116q15 -27 -14 -55l-128 -116q-24 -22 -36 -22t-24 22l-64 116q-14 28 15 55zM82 164l126 116 q24 20 36 20t24 -20l65 -116q15 -27 -14 -55l-128 -116q-24 -22 -36 -22t-24 22l-64 116q-14 28 15 55z" />
<glyph unicode="&#x202f;" horiz-adv-x="327" />
<glyph unicode="&#x205f;" horiz-adv-x="409" />
<glyph unicode="&#x20aa;" horiz-adv-x="1575" d="M1418 903q15 61 57 96t73 35q9 0 12 -6t2 -14l-151 -563q-12 -46 -19.5 -72t-26 -79.5t-36 -88t-45.5 -78.5t-58 -69.5t-72.5 -44.5t-88.5 -19h-596q-55 0 -37 68l133 495q17 61 58 96.5t72 35.5q9 0 13 -5.5t0 -13.5l-104 -389q-5 -19 4.5 -32t26.5 -13h481 q43 0 75.5 16.5t50.5 45.5t25.5 48.5t14.5 45.5zM1044 464q-17 -61 -58 -97t-71 -36q-9 0 -13 6t-3 15l105 385q5 19 -4.5 32t-26.5 13h-454q-56 0 -89.5 -9.5t-64.5 -43.5q-38 -43 -65 -147t-48.5 -229.5t-34.5 -169.5q-10 -32 -27.5 -60.5t-29.5 -44t-35 -40.5 q-17 -19 -38.5 -31t-37 -12t-20.5 12q-2 2 0 9.5t3.5 8.5t9 18t16.5 38t23.5 69t31.5 111q3 12 16.5 70t32.5 129.5t41 140.5q29 90 75 141q15 19 10 29.5t-29 10.5q-17 0 -19.5 12.5t6.5 41.5l32 120q17 68 74 68h786q56 0 38 -68z" />
<glyph unicode="&#x20ac;" horiz-adv-x="972" d="M836 1215q125 0 192.5 -58t44.5 -147q-15 -55 -58.5 -89t-103.5 -34q-56 0 -80.5 28.5t-13.5 72.5q9 32 40 72q14 15 15 24q5 20 -13 29.5t-62 9.5q-126 0 -232 -92t-176 -277h492l-64 -109h-464l-27 -104h432l-63 -109h-393q-34 -157 32.5 -246.5t191.5 -89.5 q68 0 135.5 30.5t120.5 85.5l44 -65q-150 -172 -387 -173q-186 0 -281 124t-74 334h-86l67 109h37q2 15 9 39q12 41 19 65h-77l66 109h53q49 99 115 183q221 278 549 278z" />
<glyph unicode="&#x2502;" horiz-adv-x="972" d="M862 1638l-575 -2150h-137l575 2150h137z" />
<glyph unicode="&#x25cc;" horiz-adv-x="1049" d="M106.5 398q19.5 0 30 -14t5.5 -34.5t-23 -34t-38 -13.5t-30 13.5t-5 34t23 34.5t37.5 14zM274 167q20 0 30 -13.5t5 -33t-23 -33.5t-37.5 -14t-30 14t-5.5 33.5t23 33t38 13.5zM598.5 167q19.5 0 29.5 -13.5t5 -33t-23 -33.5t-37.5 -14t-30 14t-5 33.5t23.5 33t37.5 13.5 zM890 398q20 0 30 -14t5 -34.5t-23 -34t-37.5 -13.5t-30 13.5t-5 34t23 34.5t37.5 14zM977 722q20 0 30 -13.5t5 -34t-23 -34.5t-37.5 -14t-30 14t-5 34.5t23 34t37.5 13.5zM808 951q20 0 30 -14t5 -33.5t-23 -33t-37.5 -13.5t-30 13.5t-5 33t23 33.5t37.5 14zM483.5 951 q19.5 0 30 -14t5.5 -33.5t-23 -33t-37.5 -13.5t-30 13.5t-5.5 33t23 33.5t37.5 14zM193.5 722q19.5 0 30 -13.5t5.5 -34t-23 -34.5t-38 -14t-30 14t-5 34.5t23 34t37.5 13.5zM117 560q20 0 30 -14t5 -34t-23 -34t-37.5 -14t-30 14t-5.5 34t23 34t38 14zM321.5 860 q19.5 0 30 -14.5t5.5 -34t-23 -33t-38 -13.5t-30 13.5t-5 33t23 34t37.5 14.5zM161.5 259q19.5 0 29.5 -13.5t5 -33t-23 -34t-37.5 -14.5t-29.5 14.5t-5 34t23 33t37.5 13.5zM760.5 259q19.5 0 29.5 -13.5t5 -33t-22 -34t-37.5 -14.5t-30.5 14.5t-4 34t23 33t36.5 13.5z M921.5 860q20.5 0 31 -14.5t4.5 -34t-23.5 -33t-37 -13.5t-29.5 13.5t-5 33t22 34t37.5 14.5zM654.5 983q19.5 0 30 -13.5t5 -33.5t-23 -33.5t-37.5 -13.5t-30 13.5t-4 33.5t23 33.5t36.5 13.5zM427.5 135q19.5 0 30 -13.5t5 -33.5t-23 -33.5t-37.5 -13.5t-30 13.5t-5 33.5 t23 33.5t37.5 13.5zM965 560q20 0 30 -14t5 -34t-23 -34t-37.5 -14t-30 14t-5 34t23 34t37.5 14z" />
<glyph unicode="&#xe000;" horiz-adv-x="802" d="M0 802h802v-802h-802v802z" />
<glyph unicode="&#xe801;" horiz-adv-x="580" d="M210.5 1263q28.5 0 43 -19.5t6.5 -48.5t-33.5 -49t-53.5 -20t-42.5 20t-7 49t33 48.5t54 19.5zM357 1024h90q77 0 113 -29t34 -79.5t-17 -116.5q-19 -72 -57.5 -219t-67.5 -252.5t-59 -206.5q-17 -61 -58 -96t-72 -35q-7 0 -11.5 6t-2.5 14q32 118 88.5 330.5t73.5 279.5 q10 39 14.5 57.5t3.5 42.5t-13 35t-36.5 19t-67.5 8h-7q-73 0 -98.5 36.5t-5.5 113.5q17 61 55.5 116t71.5 55q14 0 14.5 -5.5t-4.5 -20t-7 -21.5q-2 -14 6 -23t20 -9z" />
<glyph unicode="&#xe802;" horiz-adv-x="849" d="M387 391q28 0 42.5 -19.5t7.5 -48.5t-32.5 -49t-53.5 -20t-42.5 20t-8 49t32.5 48.5t54 19.5zM441.5 596q28.5 0 43.5 -20t7.5 -49t-33 -48.5t-54 -19.5t-43 19.5t-6.5 48.5t32.5 49t53 20zM340 1024h477q60 0 79.5 -32.5t4.5 -88.5q-14 -56 -48 -88.5t-83 -32.5 q-5 -17 -16.5 -57.5t-21.5 -78.5t-19 -74q-44 -172 -106.5 -480.5t-79.5 -361.5q-31 -96 -92 -143q-34 -27 -74 -39t-45 8q-3 2 -1.5 9t3 8.5t9.5 17.5t16.5 37.5t23 69.5t31.5 111q34 125 133.5 470.5t151.5 502.5h-395q-73 0 -98.5 35.5t-5.5 112.5q17 61 55.5 117 t71.5 56q14 0 14.5 -5.5t-4.5 -18t-7 -21.5q0 -14 7 -24t19 -10z" />
<glyph unicode="&#xe803;" horiz-adv-x="849" d="M175 507h342l-27 -103h-120l-48 -179h-102l48 179h-120zM340 1024h477q60 0 79.5 -32.5t4.5 -88.5q-14 -56 -48 -88.5t-83 -32.5q-5 -17 -16.5 -57.5t-21.5 -78.5t-19 -74q-44 -172 -106.5 -480.5t-79.5 -361.5q-31 -96 -92 -143q-34 -27 -74 -39t-45 8q-3 2 -1.5 9 t3 8.5t9.5 17.5t16.5 37.5t23 69.5t31.5 111q34 125 133.5 470.5t151.5 502.5h-395q-73 0 -98.5 35.5t-5.5 112.5q17 61 55.5 117t71.5 56q14 0 14.5 -5.5t-4.5 -18t-7 -21.5q0 -14 7 -24t19 -10z" />
<glyph unicode="&#xe804;" horiz-adv-x="559" d="M239.5 325q28.5 0 43.5 -20t7.5 -49t-33 -48.5t-54 -19.5t-43 19.5t-6.5 48.5t32.5 49t53 20zM355 1024h99q79 0 110.5 -30.5t24.5 -119.5q-9 -75 -47.5 -159t-101.5 -148q-60 -65 -117 -105t-76 -10q-20 29 33 70q128 97 138 188q3 34 -17 53t-55 19h-42q-73 0 -99 36.5 t-4 113.5q15 61 54 116t71 55q14 0 14.5 -5.5t-4.5 -20t-7 -21.5q-2 -14 7 -23t19 -9z" />
<glyph unicode="&#xfb1d;" horiz-adv-x="559" d="M125.5 -102q28.5 0 43.5 -20t7.5 -49t-33 -48.5t-54 -19.5t-43 19.5t-6.5 48.5t32.5 49t53 20zM355 1024h99q79 0 110.5 -30.5t24.5 -119.5q-9 -75 -47.5 -159t-101.5 -148q-60 -65 -117 -105t-76 -10q-20 29 33 70q128 97 138 188q3 34 -17 53t-55 19h-42 q-73 0 -99 36.5t-4 113.5q15 61 54 116t71 55q14 0 14.5 -5.5t-4.5 -20t-7 -21.5q-2 -14 7 -23t19 -9z" />
<glyph unicode="&#xfb1e;" d="M-10 1266l61 45q19 -41 50.5 -66.5t93.5 -25.5q60 0 111.5 27t86.5 65l32 -45q-106 -150 -258 -150q-80 0 -123.5 42.5t-53.5 107.5z" />
<glyph unicode="&#xfb1f;" horiz-adv-x="1119" d="M341 287h342l-27 -103h-342zM915 1024h99q79 0 110.5 -30.5t24.5 -119.5q-9 -75 -47.5 -159t-101.5 -148q-60 -65 -117 -105t-76 -10q-20 29 33 70q128 97 138 188q3 34 -17 53t-55 19h-42q-73 0 -99 36.5t-4 113.5q15 61 54 116t71 55q14 0 14.5 -5.5t-4.5 -20t-7 -21.5 q-2 -14 7 -23t19 -9zM355 1024h99q79 0 110.5 -30.5t24.5 -119.5q-9 -75 -47.5 -159t-101.5 -148q-60 -65 -117 -105t-76 -10q-20 29 33 70q128 97 138 188q3 34 -17 53t-55 19h-42q-73 0 -99 36.5t-4 113.5q15 61 54 116t71 55q14 0 14.5 -5.5t-4.5 -20t-7 -21.5 q-2 -14 7 -23t19 -9z" />
<glyph unicode="&#xfb20;" horiz-adv-x="1005" d="M154 242h129q68 0 82 28q12 22 1 47.5t-34 53.5t-28 37q-34 70 -22 165q3 32 17.5 75t23 72t1.5 41q-7 14 -44.5 22.5t-50.5 16.5q-49 32 -22 130q15 60 53.5 116.5t72.5 56.5q12 0 13.5 -5.5t-4.5 -18t-6 -21.5q-3 -26 24 -32q24 -5 71 -9.5t74 -15.5t43 -40 q12 -26 -3.5 -101t-51.5 -107q-7 -7 -34 5t-44 1q-15 -10 -27.5 -37t-5.5 -67q5 -38 40 -87t44 -76q17 -48 7 -117.5t-50 -132.5q82 0 130 33q27 19 47 52t40 84.5t34 76.5q27 53 86 135t66 111q3 17 -7 28t-29 13q-79 5 -106 41.5t-6 113.5q15 60 53.5 116.5t72.5 56.5 q12 0 13.5 -5.5t-4.5 -18t-6 -21.5q-2 -19 12 -28t27.5 -11t40.5 -4h9q34 -2 59.5 -7.5t49.5 -18.5t33.5 -40t2.5 -65q-7 -34 -23 -64t-30.5 -45.5t-43.5 -42.5t-43 -41q-31 -34 -56.5 -81t-38 -82t-34 -105t-33.5 -102q-53 -159 -137 -234q-46 -41 -97 -61.5t-78.5 -23 t-73.5 -2.5h-315q-27 0 -30 11t11 32l92 177q7 14 15.5 18t27.5 4z" />
<glyph unicode="&#xfb21;" horiz-adv-x="2008" d="M1565 350q36 232 224 420l-43.5 13.5t-32.5 16.5t-23.5 28.5t-6 42t9.5 61.5q15 61 53.5 116t72.5 55q12 0 14 -5.5t-4 -20t-6 -21.5q-2 -15 5.5 -22t28.5 -10l54 -10q82 -14 110.5 -42t9.5 -98q-24 -85 -50.5 -116t-53.5 -16q-32 17 -86 -29t-98 -124 q-26 -46 -43 -109.5t-13.5 -127.5t37.5 -93q92 -82 65 -186q-14 -46 -37 -69t-47 -23q-10 0 -17 8t-10.5 19t-16 26t-31.5 27l-1169 673l2 -2q-147 -101 -187 -276q-12 -58 -2.5 -108.5t26 -81t25 -77.5t-5.5 -97q-24 -92 -80 -92h-275q-29 5 -24 36t28 56q14 14 42 17.5 t34 9.5q14 19 16.5 52.5t0 68.5t8.5 95.5t40 123.5q92 207 272 321l-70 39q-60 34 -74.5 96.5t7 113t53.5 63.5q17 10 29 4.5t14.5 -14.5t14.5 -25t31 -26z" />
<glyph unicode="&#xfb22;" horiz-adv-x="1947" d="M181 932q15 61 53.5 116t70.5 55q14 0 15 -5.5t-4 -20t-7 -21.5q0 -14 7.5 -23t18.5 -9h1636q55 0 38 -68l-40 -144q-5 -20 -17 -25t-25.5 -2.5t-36.5 -10.5t-47 -44q-56 -75 -82.5 -179t-40 -215t-27.5 -153q-31 -97 -90 -145q-34 -27 -75 -38.5t-47 7.5q-3 2 -1.5 9.5 t3.5 8.5t9.5 18t16 38t23 69t31.5 109q2 5 16.5 65t27.5 108.5t38.5 116t54.5 113.5q20 36 42.5 59t33.5 32.5t13 14.5q3 10 -4 12t-22 2h-7h-1473q-73 0 -98.5 36.5t-3.5 113.5z" />
<glyph unicode="&#xfb23;" horiz-adv-x="1962" d="M343 1024h1637q55 0 37 -68l-39 -144q-7 -24 -13 -32.5t-12 -7.5t-19.5 -8.5t-30.5 -33.5q-32 -44 -52.5 -150.5t-37 -227t-31.5 -169.5q-31 -97 -91 -145q-34 -27 -75 -38.5t-46 7.5q-3 2 -1.5 9.5t3.5 8.5t9.5 18t16 38t23 69t33.5 109q2 12 12 64t31.5 136t58.5 193 q14 39 36 64.5t39 36t17 15.5q2 5 0.5 8.5t-6 5t-8 1.5t-9.5 -0.5t-9 -0.5h-1524q-73 0 -99 36.5t-4 113.5q15 61 54 116t71 55q14 0 15.5 -5.5t-4.5 -20t-8 -21.5q0 -14 8 -23t18 -9zM256 556q20 0 10 -17q-27 -49 -71.5 -237.5t-86.5 -236.5q-29 -32 -78 -51t-68 -17 t-8 20q27 51 66 208q3 9 9.5 33.5t9 34t8.5 32.5t9.5 34t9.5 30t10 30t11 25.5t12 24t12 19t14 15.5q52 53 131 53z" />
<glyph unicode="&#xfb24;" horiz-adv-x="1884" d="M-41 0q-26 0 -28.5 11t9.5 32l92 177q9 14 16.5 18t26.5 4h1406q195 0 267 270q32 121 -20 195.5t-163 74.5h-1265q-73 0 -98 35t-6 113q15 60 53.5 116.5t73.5 56.5q12 0 13.5 -5.5t-3.5 -18t-7 -21.5q-2 -14 6 -24t20 -10h1339q294 0 157 -512q-27 -97 -64.5 -183.5 t-90.5 -162.5t-124.5 -121t-151.5 -45h-1458z" />
<glyph unicode="&#xfb25;" horiz-adv-x="1913" d="M1725 782h-1537q-20 0 -24.5 8.5t-1.5 32.5q19 109 65 235q15 44 50 112.5t55.5 113.5t15.5 63q-5 15 -22 24.5t-30 14.5t-20.5 22t4.5 48q39 114 68 114q14 0 20.5 -18t24.5 -25q10 -3 40 -8t46 -16t23 -37q7 -34 -19 -78.5t-68.5 -103.5t-59.5 -103q-12 -31 -17 -48 t-7 -41t7.5 -36.5t33.5 -22t63 -9.5h1441q43 0 54.5 -7.5t21.5 -36.5q14 -32 -6.5 -133t-44.5 -168q-14 -38 -25.5 -65t-35.5 -69.5t-58 -77.5t-79 -61q-43 -26 -174 -63.5t-239.5 -80t-130.5 -88.5q-3 -9 -6.5 -41t-8 -60.5t-28.5 -53t-66 -26.5q-36 -2 -52.5 26.5 t-9.5 67.5q14 65 51.5 112.5t109.5 100.5q48 36 146.5 73.5t185 65t166.5 79.5t107 120q24 51 19 97.5t-48 46.5z" />
<glyph unicode="&#xfb26;" horiz-adv-x="1950" d="M353 1024h1401q51 0 70 -1t51.5 -7.5t53.5 -22.5q27 -20 37 -45t1.5 -87t-22 -119.5t-51.5 -197.5q-7 -24 -10 -35q-70 -258 -138 -446q-14 -39 -31 -51t-46 -12h-1674q-26 0 -31 7.5t0 52.5q10 56 23 106.5t34.5 125.5t26.5 94q29 113 57 182t71 123q43 56 94 91 q-106 14 -70 148q17 61 54.5 117t71.5 56q12 0 13.5 -5.5t-3.5 -18t-7 -21.5q-2 -14 6 -24t18 -10zM442 782q-72 0 -130.5 -60t-87.5 -152q-46 -140 -67 -234q-9 -34 -9.5 -54.5t8 -28t17 -9.5t28.5 -2h9h1434q22 0 32 7t20 29q36 87 79 243q9 34 14.5 58.5t11 58t3.5 56.5 t-8.5 44t-24 32.5t-44.5 11.5h-1285z" />
<glyph unicode="&#xfb27;" horiz-adv-x="1916" d="M283 782q-73 0 -98 35.5t-4 112.5q15 60 53.5 116.5t72.5 56.5q12 0 14 -5.5t-4 -18t-6 -21.5q-2 -14 5.5 -24t18.5 -10h1460q53 0 86.5 -20.5t44.5 -55.5t10 -71.5t-11 -77.5q-29 -104 -88.5 -328.5t-82.5 -304.5q-22 -80 -39 -111q-17 -27 -45 -46t-50 -19 q-10 0 -14.5 8.5t-1.5 18.5q19 73 83 311.5t85 313.5q20 77 -4.5 108.5t-115.5 31.5h-1369z" />
<glyph unicode="&#xfb28;" horiz-adv-x="2027" d="M-87 0q-27 0 -29.5 11t10.5 32l92 177q7 14 15.5 18t27.5 4h67q20 0 34.5 4.5t19.5 14.5t7.5 16t2.5 23v21q12 135 72 259q56 119 179 202h-30q-75 0 -100 35.5t-5 112.5q15 60 54 116.5t73 56.5q12 0 13.5 -5.5t-4.5 -18t-6 -21.5q-2 -14 6 -24t18 -10h1476 q53 0 86.5 -20.5t43.5 -55.5t9.5 -71.5t-11.5 -77.5q-27 -104 -87.5 -328.5t-82.5 -304.5q-20 -80 -40 -111q-17 -27 -45 -46t-48 -19q-10 0 -15.5 8.5t-2.5 18.5q111 415 168 625q20 77 -4.5 108.5t-113.5 31.5h-1155q-51 0 -84.5 -16.5t-81.5 -60.5q-79 -75 -111 -188 q-20 -67 -26 -165t-27 -171q-22 -85 -78 -150q-27 -31 -63 -31h-224z" />
<glyph unicode="&#xfb29;" horiz-adv-x="1034" d="M913 364h-860l37 136h362l96 362h136l-95 -362h362z" />
<glyph unicode="&#xfb2a;" horiz-adv-x="1218" d="M1235 1205q28 0 42.5 -19.5t7 -48.5t-33.5 -49t-54 -20t-42.5 20t-7 49t33.5 48.5t54 19.5zM976 794q-48 32 -20 136q17 60 54.5 116.5t71.5 56.5q12 0 13.5 -5.5t-3.5 -18t-7 -21.5q-2 -29 26 -34l97 -17q41 -7 55 -40t3.5 -78.5t-26.5 -84.5t-35 -72 q-34 -58 -115 -147.5t-104 -116.5q-48 -60 -163.5 -210t-175.5 -224q-19 -22 -31 -28t-36 -6h-413q-17 0 -24.5 6t-7.5 28q3 73 7.5 162t6 120.5t4 74t5 66.5t8.5 55q20 119 114 236q29 38 -4 44q-3 0 -15 1t-21.5 3.5t-15.5 9.5q-39 34 -16 124q17 60 55.5 116.5t71.5 56.5 q14 0 14.5 -5.5t-4.5 -18t-7 -21.5q-3 -34 24 -36l90 -8q39 -5 57 -28t22 -68q2 -26 -11 -78t-28 -81q-10 -17 -25 -14t-30 10.5t-41 -7.5q-27 -17 -62 -91.5t-47 -158.5q-38 -275 65 -256q63 155 102 222q29 55 94.5 132.5t82.5 106.5q31 55 29 67q-3 15 -28.5 19.5 t-35.5 10.5q-44 31 -19 130q17 60 54.5 116.5t71.5 56.5q12 0 14 -5.5t-3.5 -18t-6.5 -21.5q0 -14 6.5 -24t18.5 -10l89 -9q84 -9 84 -87q0 -97 -53 -170q-10 -15 -22.5 -12.5t-26 10t-40.5 -4.5q-17 -7 -34 -39q-15 -24 -51 -96.5t-62 -113.5q-22 -34 -59.5 -81t-65 -88 t-44.5 -91h140q44 0 68 15.5t57 54.5q171 195 360 377q38 36 20 72q-12 22 -58 23t-58 10z" />
<glyph unicode="&#xfb2b;" horiz-adv-x="1218" d="M487 1205q28 0 42.5 -19.5t7 -48.5t-33 -49t-53.5 -20t-42.5 20t-7 49t33 48.5t53.5 19.5zM976 794q-48 32 -20 136q17 60 54.5 116.5t71.5 56.5q12 0 13.5 -5.5t-3.5 -18t-7 -21.5q-2 -29 26 -34l97 -17q41 -7 55 -40t3.5 -78.5t-26.5 -84.5t-35 -72 q-34 -58 -115 -147.5t-104 -116.5q-48 -60 -163.5 -210t-175.5 -224q-19 -22 -31 -28t-36 -6h-413q-17 0 -24.5 6t-7.5 28q3 73 7.5 162t6 120.5t4 74t5 66.5t8.5 55q20 119 114 236q29 38 -4 44q-3 0 -15 1t-21.5 3.5t-15.5 9.5q-39 34 -16 124q17 60 55.5 116.5t71.5 56.5 q14 0 14.5 -5.5t-4.5 -18t-7 -21.5q-3 -34 24 -36l90 -8q39 -5 57 -28t22 -68q2 -26 -11 -78t-28 -81q-10 -17 -25 -14t-30 10.5t-41 -7.5q-27 -17 -62 -91.5t-47 -158.5q-38 -275 65 -256q63 155 102 222q29 55 94.5 132.5t82.5 106.5q31 55 29 67q-3 15 -28.5 19.5 t-35.5 10.5q-44 31 -19 130q17 60 54.5 116.5t71.5 56.5q12 0 14 -5.5t-3.5 -18t-6.5 -21.5q0 -14 6.5 -24t18.5 -10l89 -9q84 -9 84 -87q0 -97 -53 -170q-10 -15 -22.5 -12.5t-26 10t-40.5 -4.5q-17 -7 -34 -39q-15 -24 -51 -96.5t-62 -113.5q-22 -34 -59.5 -81t-65 -88 t-44.5 -91h140q44 0 68 15.5t57 54.5q171 195 360 377q38 36 20 72q-12 22 -58 23t-58 10z" />
<glyph unicode="&#xfb2c;" horiz-adv-x="1218" d="M1235 1205q28 0 42.5 -19.5t7 -48.5t-33.5 -49t-54 -20t-42.5 20t-7 49t33.5 48.5t54 19.5zM768 579q29 0 43.5 -20t7 -48t-33.5 -48.5t-54 -20.5t-42.5 20.5t-7 48.5t32.5 48t54 20zM976 794q-48 32 -20 136q17 60 54.5 116.5t71.5 56.5q12 0 13.5 -5.5t-3.5 -18 t-7 -21.5q-2 -29 26 -34l97 -17q41 -7 55 -40t3.5 -78.5t-26.5 -84.5t-35 -72q-34 -58 -115 -147.5t-104 -116.5q-48 -60 -163.5 -210t-175.5 -224q-19 -22 -31 -28t-36 -6h-413q-17 0 -24.5 6t-7.5 28q3 73 7.5 162t6 120.5t4 74t5 66.5t8.5 55q20 119 114 236q29 38 -4 44 q-3 0 -15 1t-21.5 3.5t-15.5 9.5q-39 34 -16 124q17 60 55.5 116.5t71.5 56.5q14 0 14.5 -5.5t-4.5 -18t-7 -21.5q-3 -34 24 -36l90 -8q39 -5 57 -28t22 -68q2 -26 -11 -78t-28 -81q-10 -17 -25 -14t-30 10.5t-41 -7.5q-27 -17 -62 -91.5t-47 -158.5q-38 -275 65 -256 q63 155 102 222q29 55 94.5 132.5t82.5 106.5q31 55 29 67q-3 15 -28.5 19.5t-35.5 10.5q-44 31 -19 130q17 60 54.5 116.5t71.5 56.5q12 0 14 -5.5t-3.5 -18t-6.5 -21.5q0 -14 6.5 -24t18.5 -10l89 -9q84 -9 84 -87q0 -97 -53 -170q-10 -15 -22.5 -12.5t-26 10t-40.5 -4.5 q-17 -7 -34 -39q-15 -24 -51 -96.5t-62 -113.5q-22 -34 -59.5 -81t-65 -88t-44.5 -91h140q44 0 68 15.5t57 54.5q171 195 360 377q38 36 20 72q-12 22 -58 23t-58 10z" />
<glyph unicode="&#xfb2d;" horiz-adv-x="1218" d="M487 1205q28 0 42.5 -19.5t7 -48.5t-33 -49t-53.5 -20t-42.5 20t-7 49t33 48.5t53.5 19.5zM768 579q29 0 43.5 -20t7 -48t-33.5 -48.5t-54 -20.5t-42.5 20.5t-7 48.5t32.5 48t54 20zM976 794q-48 32 -20 136q17 60 54.5 116.5t71.5 56.5q12 0 13.5 -5.5t-3.5 -18 t-7 -21.5q-2 -29 26 -34l97 -17q41 -7 55 -40t3.5 -78.5t-26.5 -84.5t-35 -72q-34 -58 -115 -147.5t-104 -116.5q-48 -60 -163.5 -210t-175.5 -224q-19 -22 -31 -28t-36 -6h-413q-17 0 -24.5 6t-7.5 28q3 73 7.5 162t6 120.5t4 74t5 66.5t8.5 55q20 119 114 236q29 38 -4 44 q-3 0 -15 1t-21.5 3.5t-15.5 9.5q-39 34 -16 124q17 60 55.5 116.5t71.5 56.5q14 0 14.5 -5.5t-4.5 -18t-7 -21.5q-3 -34 24 -36l90 -8q39 -5 57 -28t22 -68q2 -26 -11 -78t-28 -81q-10 -17 -25 -14t-30 10.5t-41 -7.5q-27 -17 -62 -91.5t-47 -158.5q-38 -275 65 -256 q63 155 102 222q29 55 94.5 132.5t82.5 106.5q31 55 29 67q-3 15 -28.5 19.5t-35.5 10.5q-44 31 -19 130q17 60 54.5 116.5t71.5 56.5q12 0 14 -5.5t-3.5 -18t-6.5 -21.5q0 -14 6.5 -24t18.5 -10l89 -9q84 -9 84 -87q0 -97 -53 -170q-10 -15 -22.5 -12.5t-26 10t-40.5 -4.5 q-17 -7 -34 -39q-15 -24 -51 -96.5t-62 -113.5q-22 -34 -59.5 -81t-65 -88t-44.5 -91h140q44 0 68 15.5t57 54.5q171 195 360 377q38 36 20 72q-12 22 -58 23t-58 10z" />
<glyph unicode="&#xfb2e;" horiz-adv-x="1058" d="M206 -119h342l-27 -103h-342zM1063 874q-24 -85 -49.5 -115t-54.5 -17q-53 26 -143 -100q-41 -58 -61.5 -124.5t-0.5 -102.5l93 -164q20 -43 17.5 -87.5t-19.5 -81.5q-19 -41 -62.5 -74.5t-72.5 -24.5q-15 5 -14.5 18t6.5 29t-6 40l-280 500q-90 -51 -111 -114 q-12 -41 -3 -87t26 -84t25.5 -90t-5.5 -103q-24 -92 -80 -92h-275q-29 5 -24 36t28 56q14 14 42 17.5t34 9.5q17 24 16.5 61.5t3 97.5t30.5 125q32 75 92 134.5t152 119.5l-89 155q-34 68 -18.5 131.5t54.5 108t73 44.5q17 0 23 -8t4.5 -20t0 -33t13.5 -38l244 -434 q48 119 149 207l-43.5 13.5t-32.5 16.5t-23 28.5t-6 42t9 61.5q15 61 53.5 116t73.5 55q12 0 13.5 -5.5t-4.5 -20t-6 -21.5q-2 -15 6 -22t28 -10l55 -10q82 -14 110 -42t9 -98z" />
<glyph unicode="&#xfb2f;" horiz-adv-x="1058" d="M206 -119h342l-27 -103h-120l-48 -179h-102l48 179h-120zM1063 874q-24 -85 -49.5 -115t-54.5 -17q-53 26 -143 -100q-41 -58 -61.5 -124.5t-0.5 -102.5l93 -164q20 -43 17.5 -87.5t-19.5 -81.5q-19 -41 -62.5 -74.5t-72.5 -24.5q-15 5 -14.5 18t6.5 29t-6 40l-280 500 q-90 -51 -111 -114q-12 -41 -3 -87t26 -84t25.5 -90t-5.5 -103q-24 -92 -80 -92h-275q-29 5 -24 36t28 56q14 14 42 17.5t34 9.5q17 24 16.5 61.5t3 97.5t30.5 125q32 75 92 134.5t152 119.5l-89 155q-34 68 -18.5 131.5t54.5 108t73 44.5q17 0 23 -8t4.5 -20t0 -33 t13.5 -38l244 -434q48 119 149 207l-43.5 13.5t-32.5 16.5t-23 28.5t-6 42t9 61.5q15 61 53.5 116t73.5 55q12 0 13.5 -5.5t-4.5 -20t-6 -21.5q-2 -15 6 -22t28 -10l55 -10q82 -14 110 -42t9 -98z" />
<glyph unicode="&#xfb30;" horiz-adv-x="1058" d="M476 325q29 0 43.5 -20t7 -48t-33.5 -48.5t-54 -20.5t-42.5 20.5t-7 48.5t32.5 48t54 20zM1063 874q-24 -85 -49.5 -115t-54.5 -17q-53 26 -143 -100q-41 -58 -61.5 -124.5t-0.5 -102.5l93 -164q20 -43 17.5 -87.5t-19.5 -81.5q-19 -41 -62.5 -74.5t-72.5 -24.5 q-15 5 -14.5 18t6.5 29t-6 40l-280 500q-90 -51 -111 -114q-12 -41 -3 -87t26 -84t25.5 -90t-5.5 -103q-24 -92 -80 -92h-275q-29 5 -24 36t28 56q14 14 42 17.5t34 9.5q17 24 16.5 61.5t3 97.5t30.5 125q32 75 92 134.5t152 119.5l-89 155q-34 68 -18.5 131.5t54.5 108 t73 44.5q17 0 23 -8t4.5 -20t0 -33t13.5 -38l244 -434q48 119 149 207l-43.5 13.5t-32.5 16.5t-23 28.5t-6 42t9 61.5q15 61 53.5 116t73.5 55q12 0 13.5 -5.5t-4.5 -20t-6 -21.5q-2 -15 6 -22t28 -10l55 -10q82 -14 110 -42t9 -98z" />
<glyph unicode="&#xfb31;" horiz-adv-x="868" d="M439 579q29 0 43.5 -20t7 -48t-33.5 -48.5t-54 -20.5t-42.5 20.5t-7 48.5t32.5 48t54 20zM353 1024h377q27 0 61.5 -16t44.5 -52q29 -99 -27 -311q-53 -198 -189 -384q-3 -5 -3.5 -12t6.5 -7h123q26 0 29 -10t-10 -31l-89 -167q-10 -20 -21.5 -27t-36.5 -7h-656 q-26 0 -28 11t10 32l92 177q9 14 16.5 18t26.5 4h380q55 0 72 14q31 24 65.5 95.5t57.5 157.5q38 140 17 204q-12 32 -45.5 50.5t-81.5 18.5h-240q-73 0 -99 35.5t-5 112.5q17 60 54.5 116.5t71.5 56.5q12 0 13.5 -5.5t-3.5 -18t-7 -21.5q-2 -14 6 -24t18 -10z" />
<glyph unicode="&#xfb32;" horiz-adv-x="721" d="M341 579q29 0 43.5 -20t7 -48t-33.5 -48.5t-54 -20.5t-42.5 20.5t-7 48.5t32.5 48t54 20zM-26 0q-27 0 -29.5 11t11.5 32l92 177q7 14 15.5 18t26.5 4h89q32 0 62 6t53 20.5t42 27.5t34.5 36t25.5 37.5t21 42t15.5 36.5t12 34t7.5 27q90 273 -7 273h-54q-75 0 -100 35.5 t-4 114.5q17 61 55.5 116t70.5 55q12 0 13.5 -5.5t-4.5 -20t-6 -21.5q-2 -14 6 -23t18 -9h133q9 0 20 -1.5t30 -7t31.5 -18t23 -30.5t7 -50.5t-18.5 -71.5q-9 -19 -29.5 -67t-28 -67.5t-20.5 -57t-23 -74.5q-17 -60 -13.5 -122.5t14.5 -107.5t12.5 -112.5t-18.5 -139.5 q-7 -29 -14 -47.5t-21.5 -37.5t-29.5 -19q-24 0 -32.5 46t-17 115.5t-29.5 104.5q-20 36 -107 -104q-3 -5 -9 -13l-8 -16l-58 -92q-20 -34 -55 -34h-205z" />
<glyph unicode="&#xfb33;" horiz-adv-x="901" d="M449 579q29 0 43.5 -20t7 -48t-33.5 -48.5t-54 -20.5t-42.5 20.5t-7 48.5t32.5 48t54 20zM176 932q15 61 53.5 116t70.5 55q14 0 15 -5.5t-4.5 -20t-6.5 -21.5q0 -14 7.5 -23t17.5 -9h613q55 0 38 -68l-40 -144q-5 -20 -17 -25t-25.5 -2.5t-36.5 -10.5t-47 -44 q-56 -75 -82.5 -179t-40 -215t-27.5 -153q-31 -97 -91 -145q-34 -27 -75 -38.5t-46 7.5q-3 2 -1.5 9.5t3.5 8.5t9.5 18t16 38t23 69t31.5 109q2 5 16.5 65t27.5 108.5t38.5 116t54.5 113.5q20 36 42.5 59t33.5 32.5t12 14.5q3 10 -3.5 12t-21.5 2h-7h-449q-73 0 -98.5 36.5 t-3.5 113.5z" />
<glyph unicode="&#xfb34;" horiz-adv-x="984" d="M524 579q29 0 43.5 -20t7 -48t-33.5 -48.5t-54 -20.5t-42.5 20.5t-7 48.5t32.5 48t54 20zM372 1024h613q55 0 37 -68l-39 -144q-7 -24 -13 -32.5t-12 -7.5t-19.5 -8.5t-30.5 -33.5q-32 -44 -52.5 -150.5t-37 -227t-31.5 -169.5q-31 -97 -91 -145q-34 -27 -75 -38.5 t-46 7.5q-3 2 -1.5 9.5t3.5 8.5t9.5 18t16 38t23 69t33.5 109q2 12 12 64t31.5 136t58.5 193q14 39 36 64.5t39 36t17 15.5q2 5 0.5 8.5t-6 5t-8 1.5t-9.5 -0.5t-9 -0.5h-500q-73 0 -99 36.5t-4 113.5q15 61 54 116t71 55q14 0 15.5 -5.5t-4.5 -20t-6 -21.5q-2 -14 6 -23 t18 -9zM285 556q20 0 10 -17q-27 -49 -71.5 -237.5t-86.5 -236.5q-29 -32 -78 -51t-68 -17t-8 20q27 51 66 208q3 9 9.5 33.5t9 34t8.5 32.5t9.5 34t9.5 30t10 30t11 25.5t12 24t12 19t14 15.5q52 53 131 53z" />
<glyph unicode="&#xfb35;" horiz-adv-x="580" d="M266 579q29 0 43.5 -20t7 -48t-33.5 -48.5t-54 -20.5t-42.5 20.5t-7 48.5t32.5 48t54 20zM357 1024h90q77 0 113 -29t34 -79.5t-17 -116.5q-19 -72 -57.5 -219t-67.5 -252.5t-59 -206.5q-17 -61 -58 -96t-72 -35q-7 0 -11.5 6t-2.5 14q32 118 88.5 330.5t73.5 279.5 q10 39 14.5 57.5t3.5 42.5t-13 35t-36.5 19t-67.5 8h-7q-73 0 -98.5 36.5t-5.5 113.5q17 61 55.5 116t71.5 55q14 0 14.5 -5.5t-4.5 -20t-7 -21.5q-2 -14 6 -23t20 -9z" />
<glyph unicode="&#xfb36;" horiz-adv-x="609" d="M126 579q29 0 43.5 -20t7 -48t-33.5 -48.5t-54 -20.5t-42.5 20.5t-7 48.5t32.5 48t54 20zM398 1024h119q106 0 133 -68q17 -46 -6 -115.5t-50 -92.5q-10 -9 -30.5 4t-40.5 23t-49 -10q-34 -31 -60.5 -144.5t-47.5 -252.5t-37 -185q-31 -97 -92 -145q-34 -27 -70 -38.5 t-41 7.5q-3 2 -1.5 11t3.5 12.5t8.5 24t14.5 43.5t23 73.5t32 111.5q2 10 15.5 65.5t25.5 105t32.5 108.5t39.5 90q15 26 29 44.5t20 25.5t12 15.5t11 20.5q3 12 -4.5 18t-21.5 6h-19q-73 0 -98.5 36.5t-3.5 113.5q15 61 53.5 116t71.5 55q14 0 14.5 -5.5t-4.5 -20t-7 -21.5 q0 -14 8 -23t18 -9z" />
<glyph unicode="&#xfb37;" horiz-adv-x="1012" d="M543 579q29 0 43.5 -20t7 -48t-33.5 -48.5t-54 -20.5t-42.5 20.5t-7 48.5t32.5 48t54 20zM273 782q-51 10 -70 46t0 104q17 61 55.5 116t70.5 55q14 0 15 -5.5t-4 -20t-7 -21.5q-2 -14 5.5 -23t19.5 -9h664q53 0 36 -68l-37 -144q-7 -24 -14 -31.5t-12 -7.5t-18.5 -9.5 t-31.5 -33.5q-32 -44 -52.5 -150.5t-36.5 -227t-32 -169.5q-31 -97 -92 -145q-34 -27 -74 -38.5t-47 7.5q0 7 1 12t7.5 18.5t16 34t26 71t33.5 116.5q9 34 36 155.5t51 187.5q15 44 30.5 74.5t24 40.5t18.5 19.5t15 16.5q20 29 -23 29h-359q-72 -2 -116 -52 q-38 -43 -67.5 -146.5t-55 -231t-39.5 -169.5q-31 -97 -92 -145q-34 -27 -74.5 -38.5t-46.5 7.5q-2 2 -0.5 10.5t4 10t10.5 18.5t16.5 38.5t23 68.5t29.5 106q61 227 94 321q22 60 47.5 99.5t45.5 56.5t21 22q9 19 -15 24z" />
<glyph unicode="&#xfb38;" horiz-adv-x="991" d="M594 533q29 0 43.5 -20t7 -48t-33.5 -48.5t-54 -20.5t-42.5 20.5t-7 48.5t32.5 48t54 20zM285 787q-49 12 -65.5 41.5t-1.5 103.5q17 61 55.5 116t71.5 55q14 0 14.5 -5.5t-4.5 -20t-7 -21.5q-2 -14 6 -23t20 -9h53q87 0 112.5 -39.5t4.5 -117.5q-20 -75 -56 -106 q-20 -17 -44 -2.5t-48 -4.5q-53 -41 -101 -222q-36 -133 -24 -211.5t67 -78.5h297q82 2 140 103q38 67 60.5 127t30.5 123.5t-19 100.5q-26 39 -64.5 46t-80.5 -11.5t-78.5 -47t-70.5 -62.5q-32 -32 -50 -23.5t0 47.5q19 44 59 106.5t95 128t120.5 110t120.5 41.5 q53 -3 82 -39t35.5 -86.5t-1 -116t-20.5 -117.5t-28 -102q-56 -167 -118.5 -291t-149.5 -245q-10 -14 -16 -19t-17 -10t-30 -5h-519q-20 0 -25.5 7t-1.5 27q24 128 31.5 212.5t14.5 132.5t31 133q12 44 32 87t34.5 64t38 50t24.5 33q24 34 -10 41z" />
<glyph unicode="&#xfb39;" horiz-adv-x="559" d="M275 722q29 0 43.5 -20t7 -48t-33.5 -48.5t-54 -20.5t-42.5 20.5t-7 48.5t32.5 48t54 20zM355 1024h99q79 0 110.5 -30.5t24.5 -119.5q-9 -75 -47.5 -159t-101.5 -148q-60 -65 -117 -105t-76 -10q-20 29 33 70q128 97 138 188q3 34 -17 53t-55 19h-42q-73 0 -99 36.5 t-4 113.5q15 61 54 116t71 55q14 0 14.5 -5.5t-4.5 -20t-7 -21.5q-2 -14 7 -23t19 -9z" />
<glyph unicode="&#xfb3a;" horiz-adv-x="849" d="M413 579q29 0 43.5 -20t7 -48t-33.5 -48.5t-54 -20.5t-42.5 20.5t-7 48.5t32.5 48t54 20zM340 1024h477q60 0 79.5 -32.5t4.5 -88.5q-14 -56 -48 -88.5t-83 -32.5q-5 -17 -16.5 -57.5t-21.5 -78.5t-19 -74q-44 -172 -106.5 -480.5t-79.5 -361.5q-31 -96 -92 -143 q-34 -27 -74 -39t-45 8q-3 2 -1.5 9t3 8.5t9.5 17.5t16.5 37.5t23 69.5t31.5 111q34 125 133.5 470.5t151.5 502.5h-395q-73 0 -98.5 35.5t-5.5 112.5q17 61 55.5 117t71.5 56q14 0 14.5 -5.5t-4.5 -18t-7 -21.5q0 -14 7 -24t19 -10z" />
<glyph unicode="&#xfb3b;" horiz-adv-x="889" d="M504 579q29 0 43.5 -20t7 -48t-33.5 -48.5t-54 -20.5t-42.5 20.5t-7 48.5t32.5 48t54 20zM-12 0q-26 0 -28.5 11t9.5 32l92 177q9 14 16.5 18t26.5 4h382q195 0 267 270q34 126 -11.5 198t-171.5 72h-241q-73 0 -97.5 35t-6.5 113q15 60 53.5 116.5t73.5 56.5 q12 0 13.5 -5.5t-3.5 -18t-7 -21.5q-2 -14 6 -24t20 -10h315q294 0 157 -512q-27 -97 -64.5 -183.5t-90.5 -162.5t-124.5 -121t-151.5 -45h-434z" />
<glyph unicode="&#xfb3c;" horiz-adv-x="918" d="M490 630q29 0 43.5 -20t7 -48t-33.5 -48.5t-54 -20.5t-42.5 20.5t-7 48.5t32.5 48t54 20zM377 174q-3 -9 -6.5 -41t-8 -60.5t-28 -53t-66.5 -26.5q-36 -2 -52 26.5t-9 67.5q14 65 51 112.5t109 100.5q43 32 113 72.5t113.5 67t91 78.5t74.5 120q24 51 19 97.5t-48 46.5 h-513q-20 0 -24.5 8.5t-1.5 32.5q19 109 65 235q15 44 50 112.5t55.5 113.5t15.5 63q-5 15 -22 24.5t-30 14.5t-20.5 22t4.5 48q39 114 68 114q14 0 20.5 -18t24.5 -25q10 -3 40 -8t46 -16t23 -37q7 -34 -19 -78.5t-68.5 -103.5t-59.5 -103q-12 -31 -17 -48t-7 -41 t7.5 -36.5t33.5 -22t63 -9.5h408q55 0 70 -13t21 -55q3 -38 -16 -128.5t-41 -148.5q-14 -38 -25.5 -65t-35.5 -69.5t-58 -77.5t-79 -61q-27 -17 -91 -49.5t-101.5 -53.5t-79.5 -56t-59 -73z" />
<glyph unicode="&#xfb3d;" horiz-adv-x="955" d="M533 579q29 0 43.5 -20t7 -48t-33.5 -48.5t-54 -20.5t-42.5 20.5t-7 48.5t32.5 48t54 20zM391 1024h377q51 0 70 -1t51.5 -7.5t52.5 -22.5q27 -20 37.5 -45t2 -87t-22.5 -119.5t-51 -197.5q-7 -24 -10 -35q-70 -258 -139 -446q-14 -39 -30.5 -51t-45.5 -12h-651 q-26 0 -30.5 7.5t0.5 52.5q10 56 23 106.5t34 125.5t26 94q29 113 57.5 182t70.5 123q43 56 94 91q-106 14 -70 148q17 61 54.5 117t72.5 56q12 0 13.5 -5.5t-3.5 -18t-7 -21.5q-2 -14 6 -24t18 -10zM466 782q-72 0 -131 -60t-88 -152q-46 -140 -66 -234q-9 -34 -9.5 -54.5 t8 -28t17 -9.5t28.5 -2h9h437q22 0 32 7t21 29q36 85 78 243q9 34 15 58.5t11 58t3 56.5t-8.5 44t-23.5 32.5t-45 11.5h-288z" />
<glyph unicode="&#xfb3e;" horiz-adv-x="996" d="M616 579q29 0 43.5 -20t7 -48t-33.5 -48.5t-54 -20.5t-42.5 20.5t-7 48.5t32.5 48t54 20zM155 82q-10 -44 -46.5 -70t-65.5 -23.5t-36 11.5q-3 9 8 51q58 215 140 362.5t209 275.5q19 19 17 39t-23 25q-20 5 -48 6.5t-47 6.5t-36 22q-41 41 -14 142q17 61 54.5 117 t72.5 56q12 0 13.5 -5.5t-3.5 -18t-7 -21.5q-2 -14 6 -24t18 -10h36q43 0 70 -11t37.5 -30.5t13.5 -35t3 -32.5q-2 -65 -41 -140q89 39 145.5 97t107.5 138q14 22 26 25.5t30 -1.5q80 -15 129 -62t64.5 -118t9.5 -151t-32 -176q-72 -263 -195 -493q-10 -20 -21 -27t-31 -7 h-424q-27 0 -29.5 11t10.5 32l93 177q9 14 16.5 18t25.5 4h285q24 0 41 8.5t41 34.5q29 31 58 113t31 162q2 89 -47 142.5t-139 53.5q-164 0 -312.5 -183.5t-213.5 -490.5z" />
<glyph unicode="&#xfb3f;" horiz-adv-x="549" d="M159 579q29 0 43.5 -20t7 -48t-33.5 -48.5t-54 -20.5t-42.5 20.5t-7 48.5t32.5 48t54 20zM346 1024h163q60 0 78.5 -48t-2.5 -111q-22 -85 -104 -181q-65 -79 -83 -145q-24 -87 -96.5 -418t-91.5 -391q-31 -96 -91 -143q-34 -27 -75 -39t-46 8q-3 2 -1.5 9t3.5 8.5 t9.5 17.5t16 37.5t23 69.5t31.5 111q24 82 109.5 375.5t117.5 390.5q19 53 54 100t40 69q5 15 -6 26.5t-30 11.5h-70q-73 0 -98.5 35.5t-3.5 112.5q15 60 53.5 116.5t70.5 56.5q14 0 15 -5.5t-4 -18t-5 -21.5q-2 -14 5.5 -24t17.5 -10z" />
<glyph unicode="&#xfb40;" horiz-adv-x="648" d="M324 579q29 0 43.5 -20t7 -48t-33.5 -48.5t-54 -20.5t-42.5 20.5t-7 48.5t32.5 48t54 20zM442 1024h116q138 0 99 -157q-7 -26 -44 -114q-63 -148 -82 -219q-19 -67 -20.5 -173.5t-10.5 -147.5q-19 -99 -65 -177q-9 -14 -14 -20t-18.5 -11t-33.5 -5h-408q-27 0 -30 11 t11 32l92 177q7 14 15.5 18t27.5 4h211q49 0 79 58q12 24 21.5 60t21.5 88t18 83q19 67 41.5 124t23.5 77q3 31 -11 40.5t-45 9.5h-44q-75 0 -100 35.5t-5 112.5q17 60 55 116.5t72 56.5q12 0 13.5 -5.5t-3.5 -18t-7 -21.5q-2 -14 6 -24t18 -10z" />
<glyph unicode="&#xfb41;" horiz-adv-x="921" d="M517 579q29 0 43.5 -20t7 -48t-33.5 -48.5t-54 -20.5t-42.5 20.5t-7 48.5t32.5 48t54 20zM300 782q-104 12 -66 148q15 60 53.5 116.5t72.5 56.5q12 0 13.5 -5.5t-4 -18t-5.5 -21.5q-2 -14 5.5 -24t17.5 -10h306q53 0 94.5 -13.5t69 -34t43.5 -55t24 -65t8 -75t-2.5 -76 t-12 -76t-14.5 -65.5t-14 -55q-44 -160 -107 -268t-162 -181q-97 -72 -277 -72q-166 0 -227 75q-82 97 -36 323q29 135 96 256q20 38 56 79t68 61zM427 230q297 0 375 289q32 125 -9.5 194t-150.5 69h-139q-56 0 -77.5 -3.5t-44.5 -19.5q-58 -38 -101.5 -106.5t-66.5 -150.5 q-73 -272 214 -272z" />
<glyph unicode="&#xfb42;" horiz-adv-x="991" d="M592 688q29 0 43.5 -20t7 -48t-33.5 -48.5t-54 -20.5t-42.5 20.5t-7 48.5t32.5 48t54 20zM794 775q-79 5 -106.5 41.5t-6.5 113.5q15 60 53.5 116.5t72.5 56.5q12 0 14 -5.5t-4 -18t-6 -21.5q-2 -19 11.5 -28t27.5 -11t41 -4h8q34 -2 60 -7.5t50 -18.5t33 -40t2 -65 q-7 -34 -23 -64t-30.5 -45.5t-43.5 -42.5t-42 -41q-43 -44 -85 -110t-66 -114.5t-71 -145.5q-2 -3 -11.5 -24t-12 -25t-11 -22t-12 -24t-12 -22t-13.5 -24t-13.5 -20.5t-16.5 -22t-17 -20.5t-18 -21q-63 -67 -124.5 -105.5t-143.5 -72.5l-362 -150q-26 -12 -31.5 -8t2.5 32 l69 199q7 22 17 31t30 16l217 75q55 19 96 48.5t46 65.5q7 31 -1 57.5t-14.5 36.5t-27.5 34q-24 32 -38.5 52.5t-26.5 54t-7 65.5q3 32 27.5 86t42.5 95t11 53q-7 14 -44.5 22.5t-51.5 16.5q-49 32 -22 130q15 60 53.5 116.5t72.5 56.5q12 0 14 -5.5t-4 -18t-6 -21.5 q-3 -26 24 -32q24 -5 70.5 -9.5t74 -15.5t42.5 -40q12 -26 -3.5 -101t-50.5 -107q-7 -7 -34.5 5t-44.5 1q-15 -9 -33 -59.5t-13 -90.5q5 -27 29 -60.5t46 -71.5t26 -83q5 -80 -50 -181q51 29 83 72t64 104.5t65 103.5q36 44 86 98t76 85.5t32 57.5q3 17 -6.5 28t-28.5 13z " />
<glyph unicode="&#xfb43;" horiz-adv-x="923" d="M633 579q29 0 43.5 -20t7 -48t-33.5 -48.5t-54 -20.5t-42.5 20.5t-7 48.5t32.5 48t54 20zM326 783q-75 -2 -96.5 36.5t-2.5 110.5q15 60 53.5 116.5t72.5 56.5q12 0 14 -5.5t-4 -18t-6 -21.5q-2 -14 5.5 -24t18.5 -10h368q84 0 125 -25.5t44 -82.5q2 -61 -60 -343 q-159 -719 -198 -843q-31 -96 -90 -143q-34 -27 -75 -39t-46 8q-3 2 -1.5 9t3 8.5t9.5 17.5t16.5 37.5t23.5 69.5t32 111q15 56 238 802q10 46 9 83.5t-30.5 62.5t-88.5 25h-196q-43 0 -85.5 -34.5t-64.5 -73.5t-14 -56q2 -5 6.5 -6t12 0.5l17.5 3.5t24 3.5t31 0.5 q53 -5 80 -31t21 -92q-5 -44 -26.5 -84.5t-57.5 -40.5q-15 0 -24 2.5t-14 9.5t-5.5 11t-4.5 16q-9 36 -70 36q-63 0 -89 -32q-12 -15 -19.5 -22t-20.5 -14t-30 -7q-60 0 -42 55q19 63 54 138q75 155 183 218z" />
<glyph unicode="&#xfb44;" horiz-adv-x="916" d="M662 579q29 0 43.5 -20t7 -48t-33.5 -48.5t-54 -20.5t-42.5 20.5t-7 48.5t32.5 48t54 20zM-9 0q-27 0 -29.5 11t11.5 32l92 177q7 14 15.5 18t27.5 4h435q96 0 156 78t100 219q12 60 11 114t-31 91.5t-84 37.5h-215q-43 0 -86.5 -34.5t-65 -73.5t-14.5 -56q3 -5 7.5 -6 t11.5 0.5t17 3.5t23.5 3.5t32.5 0.5q53 -5 80.5 -31t20.5 -92q-5 -44 -26.5 -84.5t-57.5 -40.5q-15 0 -24.5 2.5t-13.5 9.5t-6 11t-4 16q-9 36 -71 36q-61 0 -87 -32q-14 -15 -21 -22t-19.5 -14t-29.5 -7q-60 0 -45 55q20 63 57 138q75 155 181 218q-137 -2 -98 147 q15 60 54 116.5t73 56.5q12 0 13.5 -5.5t-3.5 -18t-7 -21.5q-2 -14 6 -24t18 -10h353q87 0 130.5 -24t54.5 -84q24 -157 -48 -406q-77 -273 -207 -476q-22 -34 -61 -34h-627z" />
<glyph unicode="&#xfb45;" horiz-adv-x="916" d="M577 796q29 0 43.5 -20t7 -48t-33.5 -48.5t-54 -20.5t-42.5 20.5t-7 48.5t32.5 48t54 20zM655 800q-44 32 -18 130q17 60 55 116.5t71 56.5q14 0 14.5 -5.5t-4.5 -18t-5 -21.5q-2 -14 6 -24t18 -10l102 -14q32 -5 49.5 -20t19 -41.5t-2 -49.5t-11.5 -56q-20 -73 -50 -99 q-14 -19 -30.5 -4.5t-44.5 2.5q-7 -3 -40 -30.5t-90 -76t-86 -72.5q-213 -179 -291 -413q-32 -96 -60 -250t-32 -170q-31 -96 -92 -143q-34 -27 -75 -39t-46 8q-2 7 5 20.5t19 33.5t29 72.5t31 126.5q0 5 12.5 77.5t28 158t35 187t42.5 196t42 154.5q10 29 47.5 83t44.5 79 q3 15 -8 26.5t-28 11.5h-15q-75 0 -100 35.5t-4 112.5q15 60 53.5 116.5t72.5 56.5q12 0 14 -5.5t-4 -18t-6 -21.5q-2 -14 5.5 -24t17.5 -10h106q121 0 77 -166q-15 -58 -45 -104.5t-83 -110.5q-43 -51 -56 -97q-31 -97 -50 -210q68 130 268 294q22 19 51 42t45.5 35.5 t32 26.5t22 22.5t6.5 13.5q-2 9 -11 12t-25.5 6t-28.5 12z" />
<glyph unicode="&#xfb46;" horiz-adv-x="954" d="M290 431q29 0 43.5 -20t7 -48t-33.5 -48.5t-54 -20.5t-42.5 20.5t-7 48.5t32.5 48t54 20zM674 800q-44 32 -19 130q17 60 55 116.5t72 56.5q12 0 13.5 -5.5t-3.5 -18t-7 -21.5q-2 -14 6 -24t18 -10l87 -7q49 -3 68 -29.5t19 -59.5q-2 -85 -53 -170q-17 -22 -25.5 -17 t-25.5 14.5t-32 2.5q-20 -10 -50 -39l-224 -224q27 -20 95.5 -63t101 -76t46.5 -83q7 -27 -10 -60l-96 -179q-10 -20 -21 -27t-37 -7h-654q-26 0 -28 11t10 32l93 177q7 14 15.5 18t25.5 4h482q-12 36 -41 65t-59 45.5t-63.5 43.5t-52 59.5t-23 69t-1 58t19 78t18.5 78.5 q7 27 -3 34t-36 9h-5h-22.5t-36 0.5t-36.5 6.5t-33 17q-39 34 -15 124q17 60 55 116.5t71 56.5q14 0 14.5 -5.5t-4.5 -18t-5 -21.5q-2 -14 6 -24t18 -10h56q92 0 114.5 -34t1.5 -109q-3 -12 -22 -62.5t-31 -96.5t-7 -80q3 -38 40 -84q160 154 201 193q12 12 11 24t-14 13 q-29 5 -38 12z" />
<glyph unicode="&#xfb47;" horiz-adv-x="965" d="M533 625q29 0 43.5 -20t7 -48t-33.5 -48.5t-54 -20.5t-42.5 20.5t-7 48.5t32.5 48t54 20zM370 1024h490q46 0 77.5 -13.5t45.5 -40t20 -55t0.5 -69t-11.5 -70.5t-17 -71q-34 -128 -88 -209t-141 -136q-49 -31 -152.5 -78.5t-132.5 -63.5q-84 -48 -104 -107 q-19 -53 -40.5 -73.5t-48.5 -20.5q-26 0 -40.5 18t-5.5 50q7 26 17 45.5t36.5 53t83.5 75t143 91.5q10 5 56 29t76 42.5t69 48.5t65.5 68.5t38.5 82.5q20 82 -10.5 121.5t-100.5 39.5h-377q-73 0 -98.5 35.5t-3.5 112.5q15 60 53.5 116.5t72.5 56.5q12 0 13 -5.5t-4.5 -18 t-5.5 -21.5q-2 -14 6 -24t18 -10zM227 406q-31 -114 -87 -339.5t-73 -283.5q-3 -7 -13.5 -39t-15 -45t-13 -36t-17 -38.5t-17.5 -27.5q-24 -29 -64 -45t-57 4q-7 9 1 30t32 83.5t42 137.5q27 99 85.5 330.5t77.5 292.5q5 17 14 51t16 55.5t18 45.5t23 38q19 20 49 33 t48.5 13t23.5 -7q2 -2 1 -9.5t-1.5 -8.5t-6.5 -18t-13 -37.5t-21.5 -69.5t-31.5 -110z" />
<glyph unicode="&#xfb48;" horiz-adv-x="870" d="M526 579q29 0 43.5 -20t7 -48t-33.5 -48.5t-54 -20.5t-42.5 20.5t-7 48.5t32.5 48t54 20zM304 782q-73 0 -98 35.5t-5 112.5q15 60 54 116.5t73 56.5q12 0 13.5 -5.5t-4.5 -18t-6 -21.5q-2 -14 6 -24t18 -10h420q53 0 86 -20.5t44 -55.5t10.5 -71.5t-10.5 -77.5 q-29 -104 -89 -328t-82 -305q-20 -80 -39 -111q-19 -27 -50.5 -46t-53.5 -19q-10 0 -14.5 8.5t-1.5 18.5v2v1v2h2v2v2v1l2 2v2v1v2l1 2v2v1v2l2 2v1v2v2h2v1v2v2v2h1v1v2v2l2 1v2v2v2l2 1v2v2l2 1v2v2v2l1 1v2v2v1l2 2v2v1v2l2 2v2v1v2h1v2v1v2l2 2v2v1v2h2v2v1v2v2l1 1v2v2 v2h2v1v2v2l2 1v2v2v2l2 1v2v2l1 1v2v2v1l2 2v2v2v1l2 2v2v1v2l1 2v2v1l2 2v2v1v2l2 2v1v2v2l2 2v1v2v2l1 1v2v2v2l2 1v2v2l2 1v2v2l1 2v1v2v2l2 1v2v2v1l2 2v2v2v1l1 2v2v1v2l2 2v2v1v2l2 2v1v2l2 2v1v2v2l1 2v1v2v2l2 1v2v2v2l2 1v2v2v1l1 2v2v1l2 2v2v2v1l2 2v2v1v2l2 2v2 v1l1 2v2v1v2l2 2v1v2v2l2 2v1v2v2l1 1v2v2l2 2v1v2v2l2 1v2v2v2l1 1v2v2v1l2 2v2v1l2 2v2v2v1l2 2v2v1l1 2v2v2v3l2 2v1v2l2 2v1v4l1 2v1v2l2 2v1v4l2 2v1v2l2 2v1v4v1l1 2v2v2l2 1v4v1l2 2v2v2l1 3v2v1l2 2v2v1v4l2 2v1v2l1 2v1v4l2 2v1v2l2 2v1v4l2 2v1v2l1 2v3v2v1l2 2v2 v2l2 3v2v1l1 2v2v2l2 3v2v1l2 2v2v1v4l2 2v1v2l1 2v1v4l2 2v1v2l2 2v1v2v3l1 2v2v2l2 1v2v2l2 3v2v2l2 1v2v2v1l1 4v1v2l2 2v2v1l2 2v2v3v2l1 2v1v2l2 2v1v2l2 2v3v2v2l1 1v2v2l2 1v2v2v2l2 1v2v2l2 3v2v2v1l1 2v2v1l2 2v2v1v2l2 2v2v1l1 4q20 77 -4.5 108.5t-114.5 31.5 h-319z" />
<glyph unicode="&#xfb49;" horiz-adv-x="1218" d="M768 579q29 0 43.5 -20t7 -48t-33.5 -48.5t-54 -20.5t-42.5 20.5t-7 48.5t32.5 48t54 20zM976 794q-48 32 -20 136q17 60 54.5 116.5t71.5 56.5q12 0 13.5 -5.5t-3.5 -18t-7 -21.5q-2 -29 26 -34l97 -17q41 -7 55 -40t3.5 -78.5t-26.5 -84.5t-35 -72q-34 -58 -115 -147.5 t-104 -116.5q-48 -60 -163.5 -210t-175.5 -224q-19 -22 -31 -28t-36 -6h-413q-17 0 -24.5 6t-7.5 28q3 73 7.5 162t6 120.5t4 74t5 66.5t8.5 55q20 119 114 236q29 38 -4 44q-3 0 -15 1t-21.5 3.5t-15.5 9.5q-39 34 -16 124q17 60 55.5 116.5t71.5 56.5q14 0 14.5 -5.5 t-4.5 -18t-7 -21.5q-3 -34 24 -36l90 -8q39 -5 57 -28t22 -68q2 -26 -11 -78t-28 -81q-10 -17 -25 -14t-30 10.5t-41 -7.5q-27 -17 -62 -91.5t-47 -158.5q-38 -275 65 -256q63 155 102 222q29 55 94.5 132.5t82.5 106.5q31 55 29 67q-3 15 -28.5 19.5t-35.5 10.5 q-44 31 -19 130q17 60 54.5 116.5t71.5 56.5q12 0 14 -5.5t-3.5 -18t-6.5 -21.5q0 -14 6.5 -24t18.5 -10l89 -9q84 -9 84 -87q0 -97 -53 -170q-10 -15 -22.5 -12.5t-26 10t-40.5 -4.5q-17 -7 -34 -39q-15 -24 -51 -96.5t-62 -113.5q-22 -34 -59.5 -81t-65 -88t-44.5 -91h140 q44 0 68 15.5t57 54.5q171 195 360 377q38 36 20 72q-12 22 -58 23t-58 10z" />
<glyph unicode="&#xfb4a;" horiz-adv-x="1032" d="M621 579q29 0 43.5 -20t7 -48t-33.5 -48.5t-54 -20.5t-42.5 20.5t-7 48.5t32.5 48t54 20zM-67 0q-27 0 -29.5 11t11.5 32l92 177q7 14 15.5 18t26.5 4h67q20 0 35 4.5t20 14.5t7.5 16t2.5 23v21q12 135 72 259q56 119 179 202h-31q-75 0 -100 35.5t-4 112.5 q15 60 53.5 116.5t72.5 56.5q12 0 14 -5.5t-4 -18t-6 -21.5q-2 -14 5.5 -24t18.5 -10h452q53 0 86 -20.5t43.5 -55.5t9.5 -71.5t-11 -77.5q-27 -104 -88 -328t-83 -305q-20 -80 -39 -111q-17 -27 -48.5 -46t-53.5 -19q-10 0 -15.5 8.5t-2.5 18.5q87 321 168 625 q20 77 -4.5 108.5t-113.5 31.5h-123q-51 0 -84.5 -16.5t-80.5 -60.5q-79 -75 -111 -188q-20 -67 -26.5 -165t-26.5 -171q-22 -85 -79 -150q-27 -31 -63 -31h-224z" />
<glyph unicode="&#xfb4b;" horiz-adv-x="580" d="M524.5 1263q28.5 0 43 -19.5t6.5 -48.5t-33.5 -49t-53.5 -20t-42.5 20t-7 49t33 48.5t54 19.5zM357 1024h90q77 0 113 -29t34 -79.5t-17 -116.5q-19 -72 -57.5 -219t-67.5 -252.5t-59 -206.5q-17 -61 -58 -96t-72 -35q-7 0 -11.5 6t-2.5 14q32 118 88.5 330.5t73.5 279.5 q10 39 14.5 57.5t3.5 42.5t-13 35t-36.5 19t-67.5 8h-7q-73 0 -98.5 36.5t-5.5 113.5q17 61 55.5 116t71.5 55q14 0 14.5 -5.5t-4.5 -20t-7 -21.5q-2 -14 6 -23t20 -9z" />
<glyph unicode="&#xfb4c;" horiz-adv-x="868" d="M466 1263h341l-27 -102h-341zM353 1024h377q27 0 61.5 -16t44.5 -52q29 -99 -27 -311q-53 -198 -189 -384q-3 -5 -3.5 -12t6.5 -7h123q26 0 29 -10t-10 -31l-89 -167q-10 -20 -21.5 -27t-36.5 -7h-656q-26 0 -28 11t10 32l92 177q9 14 16.5 18t26.5 4h380q55 0 72 14 q31 24 65.5 95.5t57.5 157.5q38 140 17 204q-12 32 -45.5 50.5t-81.5 18.5h-240q-73 0 -99 35.5t-5 112.5q17 60 54.5 116.5t71.5 56.5q12 0 13.5 -5.5t-3.5 -18t-7 -21.5q-2 -14 6 -24t18 -10z" />
<glyph unicode="&#xfb4d;" horiz-adv-x="889" d="M505 1263h341l-27 -102h-341zM-12 0q-26 0 -28.5 11t9.5 32l92 177q9 14 16.5 18t26.5 4h382q195 0 267 270q34 126 -11.5 198t-171.5 72h-241q-73 0 -97.5 35t-6.5 113q15 60 53.5 116.5t73.5 56.5q12 0 13.5 -5.5t-3.5 -18t-7 -21.5q-2 -14 6 -24t20 -10h315 q294 0 157 -512q-27 -97 -64.5 -183.5t-90.5 -162.5t-124.5 -121t-151.5 -45h-434z" />
<glyph unicode="&#xfb4e;" horiz-adv-x="916" d="M521 1263h341l-27 -102h-341zM-9 0q-27 0 -29.5 11t11.5 32l92 177q7 14 15.5 18t27.5 4h435q96 0 156 78t100 219q12 60 11 114t-31 91.5t-84 37.5h-215q-43 0 -86.5 -34.5t-65 -73.5t-14.5 -56q3 -5 7.5 -6t11.5 0.5t17 3.5t23.5 3.5t32.5 0.5q53 -5 80.5 -31t20.5 -92 q-5 -44 -26.5 -84.5t-57.5 -40.5q-15 0 -24.5 2.5t-13.5 9.5t-6 11t-4 16q-9 36 -71 36q-61 0 -87 -32q-14 -15 -21 -22t-19.5 -14t-29.5 -7q-60 0 -45 55q20 63 57 138q75 155 181 218q-137 -2 -98 147q15 60 54 116.5t73 56.5q12 0 13.5 -5.5t-3.5 -18t-7 -21.5 q-2 -14 6 -24t18 -10h353q87 0 130.5 -24t54.5 -84q24 -157 -48 -406q-77 -273 -207 -476q-22 -34 -61 -34h-627z" />
<glyph unicode="&#xfb4f;" horiz-adv-x="993" d="M623 567q36 108 131 203q-27 9 -41.5 13.5t-32.5 16.5t-24 28.5t-6 42t10 61.5q15 61 54 116t71 55q14 0 14.5 -5.5t-4.5 -20t-7 -21.5q-2 -15 7 -22t29 -10l55 -10q82 -14 109 -42t10 -98q-24 -85 -49.5 -115t-55.5 -17q-53 26 -135 -104q-39 -60 -59 -123.5t-1 -99.5 l87 -164q19 -44 15.5 -88t-22.5 -81q-20 -43 -63.5 -75.5t-72.5 -23.5q-15 5 -14.5 18t6.5 29t-6 40l-433 840q-17 36 22 148q17 44 52 112.5t55.5 113.5t15.5 63q-7 15 -23.5 24.5t-29 14.5t-21 22t4.5 48q39 114 69 114q14 0 19.5 -18t24.5 -25q22 -9 41.5 -3.5t38.5 -7 t28 -50.5q9 -34 -18 -78.5t-69.5 -103.5t-58.5 -103q-17 -48 0 -82z" />
</font>
</defs>
</svg>
