<?xml version="1.0" standalone="no"?>
<!DOCTYPE svg PUBLIC "-//W3C//DTD SVG 1.1//EN" "http://www.w3.org/Graphics/SVG/1.1/DTD/svg11.dtd" >
<svg xmlns="http://www.w3.org/2000/svg">
<metadata></metadata>
<defs>
<font id="frank_ruehl_clmmedium" horiz-adv-x="0" >
<font-face units-per-em="2048" ascent="1638" descent="-410" />
<missing-glyph horiz-adv-x="631" />
<glyph horiz-adv-x="1194" d="M239 1126v-1228h717v1228h-717zM171 1195h853v-1366h-853v1366z" />
<glyph horiz-adv-x="1194" d="M239 1126v-1228h717v1228h-717zM171 1195h853v-1366h-853v1366z" />
<glyph unicode="&#xd;" horiz-adv-x="682" />
<glyph unicode=" "  horiz-adv-x="631" />
<glyph unicode="&#x09;" horiz-adv-x="631" />
<glyph unicode="&#xa0;" horiz-adv-x="631" />
<glyph unicode="!" horiz-adv-x="520" d="M302 444q-2 -17 -15 -36q-17 -26 -26.5 -26t-26.5 26q-14 19 -17 36l-69 491q-9 67 -8 106q0 160 121 160q119 0 120 -162q0 -32 -11 -102zM148 164l88 121q15 20 26 20t26 -20l87 -121q20 -27 0 -55l-87 -121q-15 -22 -25 -22t-27 22l-88 121q-19 28 0 55z" />
<glyph unicode="&#x22;" horiz-adv-x="728" d="M104 645l24 420q2 14 7 36q14 48 50.5 74t89.5 26q55 0 77.5 -25.5t9.5 -74.5q-5 -24 -12 -36l-200 -420h-46zM427 645l25 420q0 14 7 36q12 48 49.5 74t91.5 26t77.5 -26t11.5 -72q-3 -10 -15 -38l-201 -420h-46z" />
<glyph unicode="#" horiz-adv-x="972" d="M229 372h-173v113h188l32 225h-174v113h190l51 348h123l-51 -348h210l51 348h123l-51 -348h170v-113h-186l-32 -225h172v-113h-188l-54 -372h-123l54 372h-209l-55 -372h-123zM399 710l-32 -225h210l32 225h-210z" />
<glyph unicode="$" horiz-adv-x="948" d="M415 1186v181h107v-179q135 -12 216 -81t81 -168q0 -119 -116 -120q-53 0 -82.5 30t-29.5 76q0 29 12.5 49.5t46.5 42.5q10 7 10 16q0 19 -38 38.5t-100 25.5v-396l26 -6q148 -43 237 -123q85 -79 85 -227q0 -157 -92 -252.5t-256 -107.5v-207h-107v203q-79 5 -137 24 q-94 31 -147.5 97.5t-53.5 150.5q0 65 35 105.5t98 40.5q48 0 77.5 -30.5t29.5 -74.5q0 -72 -71 -117q-14 -7 -14 -17q0 -27 50.5 -53.5t132.5 -33.5v446q-87 26 -173 78q-68 41 -105.5 113t-37.5 155q0 130 83 214.5t233 106.5zM415 734v360q-77 -9 -128 -60t-51 -114 q0 -126 179 -186zM522 492v-417q48 5 80 19q58 24 93 72.5t35 118.5q0 130 -150 189q-27 11 -58 18z" />
<glyph unicode="%" horiz-adv-x="1447" d="M664 1022q2 -24 2 -29q0 -79 -33.5 -165t-88.5 -150q-109 -130 -249 -130q-96 0 -157 59.5t-61 151.5q0 85 53 190.5t128 170.5q104 89 216 88q94 0 156 -80q67 -38 124 -37q172 0 277 141h104l-707 -1232h-111l605 1058q-84 -49 -173 -49q-42 -1 -85 13zM481 1116 q-48 -17 -73.5 -41.5t-67.5 -101.5q-55 -94 -75.5 -147t-20.5 -96q0 -41 24 -66.5t61 -25.5q92 0 173.5 112t81.5 240q0 32 -9 63q-58 20 -94 63zM1178 684q87 0 143 -57t56 -146q0 -75 -35.5 -165.5t-93.5 -163.5q-99 -126 -241 -126q-96 0 -159 58.5t-63 147.5 q0 155 118 304q121 148 275 148zM1198 591q-67 0 -135 -113q-114 -184 -114 -271q0 -38 25.5 -63.5t61.5 -25.5q92 0 175 111t83 237q0 51 -28.5 88t-67.5 37z" />
<glyph unicode="&#x26;" horiz-adv-x="1390" d="M1248 288l75 -10q-12 -99 -58 -167q-85 -130 -241 -130q-70 0 -125.5 25.5t-116.5 89.5q-157 -121 -328 -122q-174 0 -270 105q-97 106 -97 244q0 114 76 211t219 167q-72 152 -71 255q0 137 81.5 219.5t216.5 82.5q119 0 193 -64t74 -167q0 -68 -35 -133t-95 -106 q-55 -38 -166 -87q150 -276 275 -423q119 138 120 258q0 80 -154 80h-17v73h481v-73h-19q-84 0 -133 -46q-22 -24 -35.5 -47t-76.5 -139q-43 -77 -113 -164q97 -104 188 -104q56 0 96.5 46t55.5 126zM544 773q43 22 50 26q145 79 145 225q0 70 -37.5 115t-97.5 45 q-58 0 -95.5 -47.5t-37.5 -121.5q0 -90 73 -242zM415 631q-77 -44 -111 -95t-34 -121q0 -128 87 -226.5t199 -98.5q73 0 173 64q-108 126 -168.5 218t-145.5 259z" />
<glyph unicode="'" horiz-adv-x="407" d="M104 645l26 420q0 14 7 36q12 48 48.5 74t89.5 26q56 0 78 -25.5t11 -74.5q-7 -24 -12 -36l-202 -420h-46z" />
<glyph unicode="(" horiz-adv-x="593" d="M476 1256l26 -68q-128 -113 -183.5 -268t-55.5 -401t55.5 -402t183.5 -269l-26 -58q-150 92 -239 205q-176 234 -176 529q0 319 200 556q77 91 215 176z" />
<glyph unicode=")" horiz-adv-x="593" d="M118 -210l-26 63q128 113 183.5 268t55.5 403q0 246 -55.5 401t-183.5 268l26 63q150 -90 239 -205q176 -230 175 -527q0 -323 -199 -556q-77 -93 -215 -178z" />
<glyph unicode="*" horiz-adv-x="882" d="M415 838l-53 -31q-5 -3 -19 -10t-17 -9.5t-13.5 -9.5t-15.5 -12l-14.5 -14.5t-19 -21t-21.5 -27.5q-20 -27 -37 -37q-24 -14 -55 -7t-44.5 30t-5 54.5t34.5 44.5q17 10 90 21q38 3 110 44l52 31l-52 31q-31 17 -44 23.5t-41 14.5t-66 11q-58 7 -78 43q-15 24 -8.5 52 t30.5 42q61 36 114 -36q22 -29 43.5 -49.5t33.5 -28t43 -26.5l53 -29v60v22t-1 20.5t-2 17t-2.5 20.5t-5 19.5t-8.5 26.5t-12 29q-36 82 26 118q26 14 52 5t41 -34q20 -36 -3 -89q-15 -34 -22 -62.5t-8 -43t-2 -49.5v-62l54 31q2 2 14 8.5t14.5 8.5t11 7t12 7.5t11 9.5 t12.5 12t13 12.5t14.5 18t17.5 20.5q20 29 39 39q22 14 53.5 5.5t45.5 -31.5t4.5 -54t-33.5 -44q-17 -10 -51 -16l-35 -3.5t-27.5 -5t-20.5 -5t-19 -7.5t-14.5 -7.5t-17 -9.5t-18.5 -11l-53 -31l53 -31q3 -2 8 -5q27 -14 42 -20.5t40.5 -13.5t61.5 -10q56 -7 77 -41 q15 -26 9 -54t-32 -42q-61 -36 -114 36q-22 31 -43.5 51.5t-31.5 26.5t-44 26l-52 31v-61q-2 -34 0 -49.5t9 -43t22 -63.5q38 -80 -27 -118q-24 -14 -51.5 -5t-42.5 34q-20 36 3 89q22 49 27.5 79t5.5 77v61z" />
<glyph unicode="+" horiz-adv-x="1034" d="M449 500v362h136v-362h362v-136h-362v-364h-136v364h-362v136h362z" />
<glyph unicode="," horiz-adv-x="522" d="M169 164l96 116q19 20 30.5 20t28.5 -20l96 -116q19 -22 0 -55l-174 -300q-17 -22 -40 -14.5t-15 39.5l38 159q9 34 -9 55l-51 61q-22 28 0 55z" />
<glyph unicode="-" horiz-adv-x="725" d="M645 573l-32 -126q-7 -26 -33 -25h-483q-32 0 -25 34l32 126q5 26 31 26h485q34 -1 25 -35z" />
<glyph unicode="." horiz-adv-x="520" d="M169 164l96 116q19 20 30.5 20t28.5 -20l96 -116q22 -27 0 -55l-96 -116q-17 -22 -29 -22t-30 22l-96 116q-22 28 0 55z" />
<glyph unicode="/" horiz-adv-x="500" d="M416 1256h125l-456 -1280h-124z" />
<glyph unicode="0" horiz-adv-x="972" d="M497 1201q184 0 296.5 -175.5t112.5 -446.5q0 -266 -118.5 -435.5t-304.5 -169.5q-181 0 -298.5 173.5t-117.5 436.5q0 268 122 442.5t308 174.5zM485 1111q-44 0 -84.5 -35t-67.5 -96q-43 -97 -43 -362q0 -201 12 -297t44 -154q58 -102 140 -102q44 0 84.5 35t67.5 96 q24 53 33.5 146t9.5 267q0 169 -12 255.5t-44 144.5q-58 102 -140 102z" />
<glyph unicode="1" horiz-adv-x="972" d="M561 1201h88q-12 -169 -12 -286v-697q0 -70 1.5 -83.5t10.5 -21.5q19 -24 141 -24h68v-89h-675v89h85q102 0 127 12.5t25 67.5v49v668q0 75 -15.5 91t-90.5 16h-125v82q118 3 223.5 38t148.5 88z" />
<glyph unicode="2" horiz-adv-x="972" d="M891 369l-33 -369h-786v48q97 128 167 210l133 143l101 106q184 193 184 391q0 99 -61.5 155t-165.5 56q-43 0 -89 -21t-75 -54q-36 -39 -36 -82q0 -3 1 -6.5t3 -6t4.5 -5t6.5 -5t7.5 -5t10.5 -5.5t12 -5.5t14.5 -5.5t15.5 -7q61 -27 62 -97q0 -46 -33.5 -75t-86.5 -29 q-72 0 -110 48.5t-38 132.5q0 137 111 228.5t273 91.5q186 0 293.5 -92t107.5 -240q0 -121 -82 -234q-61 -80 -256 -231q-113 -89 -232 -209h335q84 0 107.5 18.5t35.5 83.5l15 72h84z" />
<glyph unicode="3" horiz-adv-x="972" d="M618 628q133 -24 203 -105t70 -202q0 -157 -118 -252t-312 -95q-172 0 -280.5 78t-108.5 202q0 65 39 107.5t94 42.5q56 0 91 -28t35 -79q0 -60 -66 -101q-26 -14 -32 -19.5t-6 -17.5q0 -36 68.5 -65t137.5 -29q111 0 173.5 71t62.5 188.5t-49.5 184t-141.5 66.5 q-15 0 -80 -2q-22 -2 -41 -1q-53 0 -53 51q0 55 54 55q24 0 38 -2l68 -4q90 0 136.5 61.5t46.5 172.5q0 92 -47 148.5t-136 56.5q-67 0 -123 -26.5t-56 -55.5q0 -15 22 -31q53 -38 53 -87q0 -46 -30.5 -74t-87.5 -28q-58 0 -90.5 32.5t-32.5 86.5q0 116 107 194.5t264 78.5 q167 0 267 -80t100 -213q0 -90 -51.5 -159.5t-146.5 -106.5q-5 -2 -9.5 -3.5t-13 -4.5t-18.5 -6z" />
<glyph unicode="4" horiz-adv-x="972" d="M640 1201h99q-9 -128 -9 -341v-466h181v-95h-181v-89v-41q0 -55 20 -67.5t108 -12.5h7v-89h-498v89h19q85 0 106.5 13.5t21.5 66.5v41v89h-454v95zM514 394v453l-331 -453h331z" />
<glyph unicode="5" horiz-adv-x="972" d="M288 975l-25 -256q75 31 120 41t100 10q181 0 292 -107t111 -281q0 -188 -123 -298t-333 -110q-137 0 -227 57q-60 39 -95.5 99.5t-35.5 123.5q0 61 38 102.5t102 41.5q58 0 91 -30t33 -76q0 -34 -14.5 -55.5t-53.5 -45.5q-31 -17 -31 -37q0 -38 63.5 -63.5t127.5 -25.5 q101 0 163 60q75 75 75 247q0 142 -62.5 218.5t-164.5 76.5q-49 0 -83.5 -11t-82.5 -38q-15 -9 -33 -42t-42 -35q-26 -2 -41 10t-17 36q-2 14 5 39.5t9 37.5q36 321 46 537q215 -51 368 -51q123 0 227 45q12 7 22 6q14 0 14 -15q0 -31 -25 -78q-36 -67 -120 -115t-188 -48 q-89 1 -210 30z" />
<glyph unicode="6" horiz-adv-x="972" d="M282 591q111 143 273 143q147 0 251 -101.5t104 -250.5q0 -80 -32.5 -159.5t-90.5 -135.5q-113 -113 -287 -113q-196 0 -314.5 151t-118.5 401q0 138 39 267t112 228q63 85 160.5 132.5t206.5 47.5q126 0 209 -58t83 -146q0 -55 -34 -89t-94 -34q-56 0 -88.5 28t-32.5 73 q0 32 21 71q9 15 8 24q0 39 -85 39q-63 0 -127 -47.5t-100 -133.5q-27 -63 -39 -130t-24 -207zM507 613q-94 0 -149.5 -72t-55.5 -195q0 -90 38 -163q58 -118 163 -118q85 0 135.5 82.5t50.5 221.5q0 114 -48.5 179t-133.5 65z" />
<glyph unicode="7" horiz-adv-x="972" d="M879 1104l-77 -160q-135 -299 -173 -440.5t-32 -324.5q2 -109 -28.5 -156t-100.5 -47q-125 0 -125 126q0 119 80 308q46 109 193 387l99 200q-46 -2 -106 -2q-84 0 -281 10q-14 2 -38 2q-38 0 -53 -23t-34 -107l-24 -100l-83 11l52 413q266 -17 465 -17q140 0 266 11v-91 z" />
<glyph unicode="8" horiz-adv-x="972" d="M657 666q87 -38 135 -77q113 -94 113 -246q0 -79 -32.5 -151.5t-90.5 -119.5q-113 -97 -314 -98q-174 0 -280 74q-56 41 -89.5 105.5t-33.5 133.5q0 138 109 223q49 39 150 77q-85 43 -123 85q-79 84 -78 204q0 142 106.5 233.5t268.5 91.5q154 0 254.5 -76.5 t100.5 -194.5q0 -162 -196 -264zM469 736l104 -38q68 58 95 106t27 109q0 89 -55.5 143.5t-146.5 54.5q-94 0 -150 -48t-56 -124q0 -70 43 -117.5t139 -85.5zM561 495l-146 53q-94 -43 -134 -102.5t-40 -151.5q0 -108 62 -168.5t173 -60.5q118 0 188 58t70 157 q0 80 -41.5 130.5t-131.5 84.5z" />
<glyph unicode="9" horiz-adv-x="972" d="M684 573q-61 -77 -122.5 -106.5t-148.5 -29.5q-152 0 -252 100.5t-100 252.5q0 172 119 291.5t289 119.5q198 0 317 -152.5t119 -410.5q0 -271 -135 -467q-65 -94 -166 -145.5t-222 -51.5q-123 0 -205.5 57.5t-82.5 140.5q0 53 35 88t96 35q55 0 86.5 -28t31.5 -72 q0 -27 -24 -76q-9 -15 -8 -22q0 -32 93 -32q72 0 136 53.5t95 146.5q29 86 49 308zM476 1111q-51 0 -86 -20.5t-61 -68.5q-48 -75 -47 -201q0 -126 48.5 -195.5t137.5 -69.5q51 0 94.5 25t70.5 69q36 56 36 162q0 135 -53 217t-140 82z" />
<glyph unicode=":" horiz-adv-x="520" d="M169 761l96 116q19 20 30.5 20.5t28.5 -20.5l96 -116q22 -27 0 -54l-96 -116q-17 -22 -29 -22.5t-30 22.5l-96 116q-22 27 0 54zM169 164l96 116q19 20 30.5 20t28.5 -20l96 -116q22 -27 0 -55l-96 -116q-17 -22 -29 -22t-30 22l-96 116q-22 28 0 55z" />
<glyph unicode=";" horiz-adv-x="520" d="M169 164l96 116q19 20 30.5 20t28.5 -20l96 -116q19 -22 0 -55l-174 -300q-17 -22 -40 -14.5t-15 39.5l38 159q9 34 -9 55l-51 61q-22 28 0 55zM169 761l96 116q19 20 30.5 20.5t28.5 -20.5l96 -116q22 -27 0 -54l-96 -116q-17 -22 -29 -22.5t-30 22.5l-96 116 q-22 27 0 54z" />
<glyph unicode="&#x3c;" horiz-adv-x="1034" d="M952 748l-679 -316l679 -316v-145l-868 396v130l868 396v-145z" />
<glyph unicode="=" horiz-adv-x="1034" d="M87 191v137h860v-137h-860zM87 536v136h860v-136h-860z" />
<glyph unicode="&#x3e;" horiz-adv-x="1034" d="M82 748v145l869 -396v-130l-869 -396v145l679 316z" />
<glyph unicode="?" horiz-adv-x="851" d="M550 937q0 84 -45.5 126.5t-122.5 42.5q-70 0 -83.5 -25t3.5 -81t14 -85q-3 -32 -43.5 -53.5t-91.5 -21.5q-61 0 -91 34t-30 90q0 102 104 169.5t263 67.5q162 0 261 -76.5t99 -202.5q0 -82 -43 -140t-162 -147q-60 -44 -99 -89.5t-53 -103.5q-3 -15 -19 -36 q-19 -26 -25.5 -25t-27.5 25q-19 20 -15 58q3 51 23.5 100t42 80.5t69.5 94.5q10 14 15 20q57 77 57 178zM271 164l86 121q17 20 28 20t26 -20l86 -121q20 -27 0 -55l-86 -121q-17 -22 -27 -22t-27 22l-86 121q-20 28 0 55z" />
<glyph unicode="@" horiz-adv-x="1257" d="M1087 321h104q-46 -108 -157 -208q-155 -137 -367 -137q-253 0 -423.5 182t-170.5 450q0 287 176 471q80 84 190.5 130.5t224.5 46.5q224 0 381.5 -151t157.5 -363q0 -116 -49.5 -224t-136.5 -180q-102 -87 -203 -87q-53 0 -85.5 30.5t-32.5 80.5q0 20 2 34 q-49 -73 -91 -104t-93 -31q-92 0 -157 77q-56 67 -57 177q0 164 110 289q49 55 113 89t120 34q101 0 134 -111l27 95h150l-125 -493q-7 -27 -6 -51q0 -17 12.5 -29t31.5 -12q34 0 76.5 32.5t80.5 85.5q90 130 90 286q0 87 -37.5 172.5t-103.5 148.5q-123 118 -301 118 q-218 0 -360.5 -156t-142.5 -397q0 -242 144 -397.5t368 -155.5q261 0 406 258zM667 857q-63 0 -107 -72q-48 -73 -77 -162t-29 -160q0 -63 21.5 -98.5t60.5 -35.5q82 0 147 149q61 138 61 256q0 56 -20.5 89.5t-56.5 33.5z" />
<glyph unicode="A" horiz-adv-x="1232" d="M645 1256l435 -1067q29 -72 54 -90.5t90 -18.5h24v-80h-529v80h71q106 0 106 45q0 12 -14 46l-92 228h-452l-56 -150q-15 -41 -16 -72q0 -97 138 -97h35v-80h-453v80h7q77 0 121 53q29 31 67 128l392 995h72zM561 976l-189 -484h382z" />
<glyph unicode="B" horiz-adv-x="1232" d="M51 1232h613q155 0 247 -41q73 -32 120.5 -104.5t47.5 -154.5q0 -140 -115 -224q-56 -43 -162 -65q174 -31 257.5 -106.5t83.5 -201.5q0 -157 -125 -246t-347 -89h-620v80h31q104 0 129 13t25 67v50v812v50q0 55 -25 67.5t-129 12.5h-31v80zM427 678h152q164 0 233 52.5 t69 179.5q0 148 -94 206q-53 36 -179 36h-69q-67 0 -89.5 -18t-22.5 -67v-389zM427 597v-409q0 -70 17 -89t82 -19h71q155 0 232 39q104 51 105 221q0 167 -123 225q-75 32 -234 32h-150z" />
<glyph unicode="C" horiz-adv-x="1232" d="M1091 1244l25 -493h-75q-53 177 -97 254q-49 82 -125.5 127.5t-164.5 45.5q-82 0 -155.5 -42t-112.5 -114q-84 -147 -84 -425q0 -275 91.5 -408.5t280.5 -133.5q212 0 318 177q44 73 68 203l80 -13q-29 -215 -155.5 -331.5t-330.5 -116.5q-253 0 -415 177.5t-162 452.5 q0 258 160 449q172 205 418 205q85 0 148.5 -24t153.5 -91l69 101h65z" />
<glyph unicode="D" horiz-adv-x="1327" d="M234 210v812v50q0 55 -25 67.5t-127 12.5h-33v80h543q278 0 415 -87q118 -77 180 -211.5t62 -310.5q0 -191 -69 -333t-199 -215q-133 -75 -358 -75h-574v80h33q102 0 127 13t25 67v50zM522 80h116q207 0 296.5 124.5t89.5 411.5q0 283 -97.5 409.5t-315.5 126.5h-89 q-63 0 -80 -16t-17 -80v-882q0 -63 16 -78.5t81 -15.5z" />
<glyph unicode="E" horiz-adv-x="1232" d="M1075 1232l24 -437h-73q-38 227 -123 294q-43 36 -105 49.5t-177 13.5h-89q-70 0 -88.5 -15.5t-18.5 -69.5v-389h41q121 0 176.5 54.5t62.5 178.5h80v-559h-80q-5 140 -65 199q-26 27 -64 36.5t-117 9.5h-34v-435q0 -44 14 -56q26 -26 109 -26h112q215 0 294 101 q67 80 102 275h76l-35 -456h-1048v80h31q104 0 129 13t25 67v50v812v50q0 55 -25 67.5t-129 12.5h-31v80h1026z" />
<glyph unicode="F" horiz-adv-x="1138" d="M1065 1232l24 -437h-75q-36 218 -113.5 287.5t-289.5 69.5h-79q-70 0 -88.5 -15.5t-18.5 -69.5v-389h41q121 0 176.5 54.5t62.5 178.5h80v-559h-80q-5 138 -63 199q-27 27 -65 36.5t-118 9.5h-34v-387v-50q0 -55 24.5 -67.5t129.5 -12.5h56v-80h-586v80h31q104 0 129 13 t25 67v50v812v50q0 55 -25 67.5t-129 12.5h-31v80h1016z" />
<glyph unicode="G" horiz-adv-x="1327" d="M1109 1244l24 -479h-73q-106 413 -400 413q-177 0 -270 -149.5t-93 -434.5q0 -263 90 -398q43 -63 120 -102t159 -39q84 0 157 39t105 102q34 68 35 183q0 70 -24 86t-132 16h-32v80h543v-80h-26q-121 0 -143 -24q-10 -12 -11 -105v-376h-71l-63 154q-84 -84 -166 -120 t-189 -36q-123 0 -235 49.5t-192 140.5q-150 169 -150 430q0 340 247 539q154 125 348 125q94 0 160.5 -25.5t150.5 -92.5l66 104h65z" />
<glyph unicode="H" horiz-adv-x="1421" d="M997 592h-572v-382v-50q0 -55 24.5 -67.5t129.5 -12.5h32v-80h-562v80h31q104 0 129 13t25 67v50v812v50q0 55 -25 67.5t-129 12.5h-31v80h562v-80h-32q-104 0 -129 -13t-25 -67v-50v-338h572v338v50q0 55 -25 67.5t-129 12.5h-24v80h553v-80h-31q-104 0 -128.5 -13 t-24.5 -67v-50v-812v-50q0 -55 24.5 -67.5t128.5 -12.5h31v-80h-560v80h31q104 0 129 13t25 67v50v382z" />
<glyph unicode="I" horiz-adv-x="694" d="M444 1022v-812v-50q0 -55 24.5 -67.5t127.5 -12.5h34v-80h-565v80h34q104 0 129 13t25 67v50v812v50q0 55 -25 67.5t-129 12.5h-34v80h565v-80h-34q-102 0 -127 -13t-25 -67v-50z" />
<glyph unicode="J" horiz-adv-x="948" d="M730 1022v-565q0 -241 -63 -338q-90 -145 -319 -145q-157 0 -240 74q-99 82 -99 217q0 90 47.5 149t122.5 59q56 0 92 -34.5t36 -88.5q0 -53 -30.5 -88t-76.5 -35q-27 0 -63 9h-6q-20 0 -20 -28q0 -38 32 -78q58 -75 174 -75q152 0 202 148q22 67 22 270v549v50 q0 55 -24.5 67.5t-127.5 12.5h-32v80h559v-80h-32q-104 0 -129 -13t-25 -67v-50z" />
<glyph unicode="K" horiz-adv-x="1327" d="M427 558l418 420q84 84 83 123q0 51 -111 51h-42v80h525v-80q-160 0 -288 -137l-254 -254l413 -595q38 -55 67.5 -70.5t99.5 -15.5h32v-80h-583v80h53q116 0 116 39q0 20 -34 72l-297 435l-198 -199v-217v-50q0 -55 24.5 -67.5t128.5 -12.5h33v-80h-562v80h31 q104 0 129 13t25 67v50v812v50q0 55 -25 67.5t-129 12.5h-31v80h562v-80h-33q-104 0 -128.5 -13t-24.5 -67v-50v-464z" />
<glyph unicode="L" horiz-adv-x="1138" d="M1103 468l-36 -468h-1007v80h30q104 0 129 13t25 67v50v812v50q0 55 -24.5 67.5t-129.5 12.5h-30v80h560v-80h-31q-104 0 -129 -13t-25 -67v-50v-860q0 -44 14 -56q26 -26 109 -26h72q217 0 295 99q73 94 102 289h76z" />
<glyph unicode="M" horiz-adv-x="1611" d="M490 1232l327 -909l313 909h428v-80h-31q-104 0 -128.5 -13t-24.5 -67v-50v-812v-50q0 -55 24.5 -67.5t128.5 -12.5h31v-80h-560v80h31q104 0 129 13t25 67v50v913l-381 -1123h-68l-406 1123v-754q0 -174 37.5 -229t158.5 -60v-80h-486v80q123 5 160.5 60t37.5 229v653 v50q0 55 -25 67.5t-129 12.5h-33v80h441z" />
<glyph unicode="N" horiz-adv-x="1390" d="M384 1232l681 -906v536q0 176 -37.5 230.5t-158.5 59.5v80h486v-80q-123 -5 -160.5 -59.5t-37.5 -230.5v-886h-72l-761 1028v-634q0 -176 37.5 -230.5t159.5 -59.5v-80h-487v80q123 5 160.5 60t37.5 230v726q-22 32 -57 44t-100 12h-43v80h352z" />
<glyph unicode="O" horiz-adv-x="1327" d="M671 1258q246 0 413 -185.5t167 -456.5q0 -275 -168 -458.5t-419 -183.5q-249 0 -418 183.5t-169 456.5q0 145 54.5 277.5t153.5 222.5q156 144 386 144zM669 1178q-188 0 -282 -147q-48 -77 -66.5 -167.5t-18.5 -243.5q0 -159 19 -249.5t66 -169.5q94 -147 277 -146.5 t276 146.5q48 77 67 168.5t19 246.5t-19 247.5t-67 167.5q-95 147 -271 147z" />
<glyph unicode="P" horiz-adv-x="1138" d="M423 548v-338v-50q0 -55 25 -67.5t129 -12.5h44v-80h-573v80h31q104 0 128.5 13t24.5 67v50v812v50q0 55 -24.5 67.5t-128.5 12.5h-31v80h597q188 0 290 -53q172 -87 173 -285q0 -101 -49.5 -180t-140.5 -122q-94 -44 -302 -44h-193zM423 628h207q268 0 268 259 q0 135 -64 200t-197 65h-110q-70 0 -87 -14.5t-17 -72.5v-437z" />
<glyph unicode="Q" horiz-adv-x="1327" d="M1200 -34h77q2 -135 -57 -212t-162 -77q-106 0 -166.5 84.5t-65.5 238.5q-77 -26 -152 -26q-249 0 -423 186t-174 454q0 145 58 278.5t164 227.5q154 138 363 138q247 0 419 -182.5t172 -445.5q0 -333 -270 -557q44 -140 77.5 -198.5t71.5 -58.5q32 0 46.5 34t21.5 116z M939 203q49 80 68.5 173t19.5 244q0 254 -70 389q-39 79 -116.5 124t-174.5 45q-193 0 -277 -151q-87 -157 -87 -413q0 -292 101 -425q-2 14 -2 31q0 102 69 167t176.5 65t184 -65t108.5 -184zM819 92v17q0 126 -47 194.5t-134 68.5q-70 0 -114 -47t-44 -122 q0 -70 46.5 -109t132.5 -39q87 -1 160 37z" />
<glyph unicode="R" horiz-adv-x="1232" d="M420 597v-389v-48q0 -55 24.5 -67.5t128.5 -12.5h31v-80h-560v80h31q104 0 129 13t25 67v48v814v50q0 55 -25 67.5t-129 12.5h-31v80h591q215 0 332.5 -80t117.5 -225q0 -254 -363 -306q101 -26 155.5 -85.5t81.5 -177.5l27 -107q22 -89 39.5 -118t46.5 -29q34 0 51 40 t22 129h72q-3 -154 -54.5 -226.5t-157.5 -72.5q-101 0 -152 63.5t-66 208.5l-9 87q-17 157 -87 213q-63 51 -172 51h-99zM420 678h188q133 0 201 58q67 53 67 189q0 116 -60 171.5t-186 55.5h-92q-84 0 -99 -12q-14 -10 -16.5 -23t-2.5 -64v-375z" />
<glyph unicode="S" horiz-adv-x="1075" d="M932 1242l20 -443h-73q-34 131 -102 228q-104 148 -285 149q-109 0 -176 -55.5t-67 -145.5q0 -152 224 -210l182 -46q186 -46 250 -108q102 -99 102 -261q0 -172 -112 -274t-299 -102q-111 0 -192 29t-167 99l-77 -116h-66l-7 487h73q36 -183 134 -292q116 -128 297 -128 q128 0 206 68q77 68 77 170.5t-79 162.5q-26 20 -51 29t-123 34l-162 41q-188 48 -265.5 125.5t-77.5 217.5q0 160 103.5 258.5t270.5 98.5q188 0 310 -118l69 102h63z" />
<glyph unicode="T" horiz-adv-x="1138" d="M1080 1232l26 -474h-73q-20 145 -57 234q-32 77 -92 118.5t-138 41.5q-80 0 -80 -61v-881v-50q0 -55 24.5 -67.5t126.5 -12.5h45v-80h-586v80h45q104 0 128.5 13t24.5 67v50v881q0 61 -80 61q-174 0 -242 -189q-29 -85 -46 -205h-74l26 474h1022z" />
<glyph unicode="U" horiz-adv-x="1390" d="M1166 862v-388q0 -213 -75 -320q-121 -179 -408 -180q-299 0 -422 176q-44 65 -51 193v118v561v50q0 55 -25 67.5t-127 12.5h-29v80h558v-80h-32q-104 0 -129 -13t-25 -67v-50v-571q0 -119 10.5 -167t44.5 -96q89 -121 273 -121q104 0 183.5 43.5t120.5 123.5 q24 44 32 96t8 155v377q0 176 -37.5 230.5t-158.5 59.5v80h487v-80q-123 -5 -160.5 -59.5t-37.5 -230.5z" />
<glyph unicode="V" horiz-adv-x="1232" d="M671 265l264 703q20 56 21 95q0 41 -37 65t-102 24h-32v80h463v-80h-17q-73 0 -110 -33.5t-77 -133.5l-392 -1011h-68l-432 1082q-24 60 -48.5 78t-83.5 18h-34v80h533v-80h-68q-106 0 -106 -43q0 -19 13 -51z" />
<glyph unicode="W" horiz-adv-x="1674" d="M596 311l198 655l-45 133q-10 31 -32 42t-75 11h-40v80h494v-80h-28q-73 0 -97 -9q-26 -12 -26 -37q0 -10 12 -48l236 -747l205 693q10 27 10 59q0 89 -147 89h-13v80h418v-80h-7q-85 0 -126 -61q-24 -34 -46 -115l-301 -1002h-70l-276 849l-253 -849h-73l-369 1111 q-15 44 -32 55.5t-70 11.5h-33v80h482v-80h-77q-73 0 -74 -34q0 -17 9 -43z" />
<glyph unicode="X" horiz-adv-x="1201" d="M664 683l358 -514q43 -63 70.5 -76t108.5 -13h21v-80h-560v80h48q80 2 97 6t17 25q0 19 -22 53l-254 360l-198 -287q-27 -41 -27 -75q0 -38 29.5 -60t80.5 -22h43v-80h-485v80h7q128 0 224 137l276 384l-336 486q-29 43 -54.5 54t-88.5 11h-29v80h527v-80h-65 q-82 0 -82 -22q0 -15 19 -43l227 -328l184 268q24 34 24 58q0 67 -117 67h-24v80h469v-80h-27q-68 0 -115 -32.5t-119 -127.5z" />
<glyph unicode="Y" horiz-adv-x="1201" d="M664 609l212 377q29 53 29 89q0 41 -32 59t-102 18h-39v80h485v-80h-14q-87 0 -150 -58q-34 -34 -85 -125l-255 -459v-300v-50q0 -55 24 -67.5t128 -12.5h45v-80h-586v80h45q104 0 128.5 13t24.5 67v50v280l-368 583q-29 48 -56.5 63.5t-82.5 15.5h-37v80h548v-80h-101 q-67 0 -67 -32q0 -20 19 -48z" />
<glyph unicode="Z" horiz-adv-x="1042" d="M971 1232v-61l-701 -1091h283q179 0 246 89q70 85 102 305h80l-30 -474h-910v61l698 1091h-222q-172 0 -240.5 -69t-109.5 -283h-77l35 432h846z" />
<glyph unicode="[" horiz-adv-x="568" d="M266 -123h241v-61h-394v1416h394v-63h-241v-1292z" />
<glyph unicode="\" horiz-adv-x="1034" d="M225 1258l683 -1258h-99l-683 1258h99z" />
<glyph unicode="]" horiz-adv-x="568" d="M300 1171h-239v61h393v-1416h-393v63h239v1292z" />
<glyph unicode="^" horiz-adv-x="1034" d="M945 543h-148l-278 530l-282 -530h-148l356 689h146z" />
<glyph unicode="_" horiz-adv-x="853" d="M0 -125h853v-104h-853v104z" />
<glyph unicode="`" horiz-adv-x="568" d="M413 913h-70l-271 166q-43 29 -43 66q0 26 17 43t43 17q32 0 85 -53z" />
<glyph unicode="a" horiz-adv-x="948" d="M771 550v-343q0 -65 14.5 -91.5t50.5 -26.5q15 0 48 12q15 7 26 7q17 0 17 -21q0 -38 -49.5 -68.5t-107.5 -30.5q-60 0 -95 28t-55 93q-114 -135 -297 -135q-113 0 -180.5 55t-67.5 145q0 160 219 242q104 41 317 77v67q0 108 -44 145q-46 43 -140 43q-61 0 -106.5 -20 t-45.5 -47q0 -9 12 -22q26 -36 25 -70q0 -38 -26.5 -62.5t-65.5 -24.5q-44 0 -71.5 29t-27.5 77q0 92 95 152.5t238 60.5q162 0 249 -68q68 -56 68 -203zM611 341v79q-179 -29 -253 -63q-111 -53 -111 -159q0 -58 38.5 -95.5t96.5 -37.5q55 0 108.5 29t86.5 77 q22 34 28 63.5t6 106.5z" />
<glyph unicode="b" horiz-adv-x="948" d="M307 1258v-570q48 73 101 103t131 30q154 0 251 -117t97 -301.5t-104.5 -306.5t-261.5 -122q-154 0 -256 135l-84 -133h-65q31 140 31 440v664q0 55 -13 70.5t-61 15.5h-59v73zM509 734q-102 0 -156 -90.5t-54 -261.5q0 -157 57 -245.5t158 -88.5q94 0 144 88t50 250 q0 167 -51.5 257.5t-147.5 90.5z" />
<glyph unicode="c" horiz-adv-x="757" d="M660 251l67 -26q-55 -137 -126.5 -194t-185.5 -57q-159 0 -258 113.5t-99 296.5q0 191 107.5 314t273.5 123q114 0 190 -59t76 -144q0 -51 -30 -83.5t-74.5 -32.5t-73.5 26.5t-29 68.5q0 38 34 79q10 15 11 20q0 20 -29 36t-67 16q-94 0 -152 -95t-58 -250 q0 -150 60 -237t162 -87q67 0 113.5 40t87.5 132z" />
<glyph unicode="d" horiz-adv-x="979" d="M649 -12v135q-79 -148 -236 -149q-148 0 -244 117t-96 298q0 184 97.5 308t242.5 124q143 0 236 -126v385q0 55 -14 70.5t-60 15.5h-101v73l335 19v-1060q0 -80 19 -102.5t87 -22.5h30v-73zM447 729q-53 0 -96.5 -34.5t-65.5 -90.5q-32 -85 -32 -235q0 -142 51 -222 t141 -80q92 0 147 89.5t55 237.5q0 125 -33 205q-22 58 -68 94t-99 36z" />
<glyph unicode="e" horiz-adv-x="853" d="M794 384h-553q-2 -130 42 -205q67 -113 195 -112q85 0 144 41.5t112 140.5l60 -32q-104 -242 -349 -243q-172 0 -278.5 111t-106.5 290q0 191 109 318.5t273 127.5q155 0 254.5 -122t97.5 -315zM242 457h299q41 0 55.5 13t14.5 51q0 102 -47 164.5t-125 62.5 q-119 0 -173 -152q-24 -67 -24 -139z" />
<glyph unicode="f" horiz-adv-x="568" d="M343 795h188v-73h-188v-512v-68q0 -51 23 -66t107 -15h30v-61h-455v61h7q82 0 105 14.5t23 66.5v68v512h-151v73h151v53q0 104 15 167.5t53 116.5q90 126 264 126q104 0 164 -43t60 -118q0 -46 -26.5 -75t-69.5 -29q-39 0 -66 26.5t-27 64.5q0 29 15 54q10 17 10 23 q0 29 -58 29q-51 0 -93 -32.5t-62 -89.5q-19 -48 -19 -175v-98z" />
<glyph unicode="g" horiz-adv-x="916" d="M335 126h174q155 0 216 -24q48 -19 75.5 -67.5t27.5 -111.5q0 -270 -429 -269q-172 0 -266 46t-94 129q0 106 157 162q-114 39 -114 147q0 70 38.5 111t123.5 60q-67 31 -105 92.5t-38 136.5q0 128 92 205.5t244 77.5q114 0 212 -65q60 55 91 72t72 17q49 0 81 -27.5 t32 -71.5q0 -34 -22 -58t-55 -24q-67 0 -77 63q-5 24 -17 24q-19 0 -58 -41q63 -75 63 -167q0 -176 -160 -248q-43 -19 -83 -24.5t-161 -7.5q-85 -2 -122.5 -20t-37.5 -57q0 -32 20 -44q24 -14 120 -16zM435 748q-85 0 -132 -55.5t-47 -156.5q0 -96 46 -152t126 -56 q82 0 128 56t46 157q0 99 -43.5 153t-123.5 54zM420 -20h-126q-61 -32 -87 -63t-26 -74q0 -58 59 -88.5t166 -30.5q143 0 222.5 40t79.5 113q0 41 -29.5 67.5t-81.5 31.5q-25 4 -177 4z" />
<glyph unicode="h" horiz-adv-x="1042" d="M341 1258v-603q111 166 270 166q77 0 137.5 -35t92.5 -97q22 -43 29 -81t7 -130v-268v-68q0 -51 23 -66t105 -15h7v-61h-432v61h7q84 0 107 14.5t23 66.5v68v275q0 118 -38 172q-19 26 -53.5 43t-67.5 17q-55 0 -107 -36t-79 -94q-31 -65 -31 -201v-176v-68q0 -51 23 -66 t107 -15h7v-61h-432v61h7q82 0 105 14.5t23 66.5v68v870q0 55 -13 70.5t-60 15.5h-82v73z" />
<glyph unicode="i" horiz-adv-x="537" d="M352 795v-585v-68q0 -51 23 -66t106 -15h12v-61h-442v61h12q82 0 105 14.5t23 66.5v68v408q0 55 -12.5 70t-60.5 15h-87v74zM271 1220q41 0 70 -29t29 -70t-29 -70t-71 -29q-39 0 -68.5 30t-29.5 69q0 41 29 70t70 29z" />
<glyph unicode="j" horiz-adv-x="505" d="M353 795v-674q0 -145 -15 -221.5t-55 -133.5q-80 -111 -232 -111q-85 0 -138 38.5t-53 101.5q0 44 27.5 73.5t68.5 29.5q36 0 62 -24t26 -57q0 -15 -12 -41q-9 -22 -8 -27q0 -22 43 -22q27 0 54 17t39 43q32 67 33 252v579q0 55 -13 70t-61 15h-99v74zM273 1220 q41 0 70 -29t29 -70t-29 -70t-72 -29q-39 0 -68 30t-29 69q0 41 29 70t70 29z" />
<glyph unicode="k" horiz-adv-x="1012" d="M340 413l230 222q39 39 39 66q0 32 -80 33h-53v61h449v-61q-87 -10 -151 -42.5t-137 -106.5l-77 -75l242 -331q53 -67 90.5 -89t109.5 -29v-61h-451v61h33q75 0 75 29q0 10 -12 31l-203 285l-104 -99v-97v-68q0 -51 23 -66t106 -15h7v-61h-432v61h7q82 0 105 14.5 t23 66.5v68v870q0 55 -12.5 70.5t-60.5 15.5h-82v73l316 19v-845z" />
<glyph unicode="l" horiz-adv-x="537" d="M348 1258v-1048v-68q0 -51 23 -66t107 -15h12v-61h-442v61h12q82 0 105 14.5t23 66.5v68v870q0 55 -13 70.5t-59 15.5h-84v73z" />
<glyph unicode="m" horiz-adv-x="1517" d="M343 795v-131q97 157 246 157q85 0 149 -47t86 -124q106 171 267 171q125 0 201 -97q34 -44 44.5 -83t10.5 -117v-314v-67q0 -53 23 -67.5t105 -14.5h6v-61h-431v61h6q84 0 107 14.5t23 66.5v68v280q0 92 -20 141q-36 85 -125 86q-90 0 -143 -76t-53 -204v-227v-68 q0 -51 23 -66t105 -15h7v-61h-432v61h7q84 0 106.5 14.5t22.5 66.5v68v299q0 106 -34 151q-15 24 -47.5 40.5t-64.5 16.5q-84 0 -139.5 -75t-55.5 -190v-242v-67q0 -53 23 -67.5t105 -14.5h7v-61h-430v61h7q82 0 105 14.5t23 67.5v67v408q0 55 -13 70t-61 15h-70v74z" />
<glyph unicode="n" horiz-adv-x="1042" d="M341 795v-138q109 164 270 164q75 0 136.5 -35t93.5 -97q22 -43 29 -81t7 -130v-268v-68q0 -51 23 -66t105 -15h7v-61h-432v61h7q84 0 107 14.5t23 66.5v68v276q0 118 -38 171q-19 26 -53.5 43t-67.5 17q-55 0 -107 -36t-79 -94q-31 -65 -31 -200v-177v-68q0 -51 23 -66 t107 -15h7v-61h-432v61h7q82 0 105 14.5t23 66.5v68v408q0 55 -13 70t-60 15h-62v74z" />
<glyph unicode="o" horiz-adv-x="853" d="M430 821q152 0 258.5 -124t106.5 -299.5t-107.5 -299.5t-261 -124t-261 123t-107.5 299q0 179 107.5 302t264.5 123zM430 748q-193 0 -193 -352q0 -169 49 -258.5t141 -89.5t140.5 89.5t48.5 260.5q0 169 -48 259.5t-138 90.5z" />
<glyph unicode="p" horiz-adv-x="979" d="M343 795v-121q85 147 236 147q140 0 237 -121t97 -299q0 -183 -98 -305t-247 -122q-79 0 -130.5 32.5t-94.5 106.5v-248v-68q0 -51 23 -65.5t107 -14.5h19v-62h-444v62h7q82 0 105 14.5t23 65.5v68v753q0 55 -13 70t-61 15h-61v74zM548 729q-97 0 -152 -90.5t-55 -249.5 q0 -147 55.5 -234.5t146 -87.5t141 89.5t50.5 254.5q0 150 -48.5 234t-137.5 84z" />
<glyph unicode="q" horiz-adv-x="948" d="M766 795h63q-24 -113 -27 -145q0 -26 -2 -123v-662v-68q0 -51 23.5 -65.5t104.5 -14.5h7v-62h-443v62h18q84 0 107 14.5t23 65.5v68v234q-51 -70 -101.5 -97.5t-130.5 -27.5q-150 0 -248.5 114.5t-98.5 290.5q0 189 104.5 315.5t261.5 126.5q159 0 259 -142zM442 748 q-201 0 -201 -359q0 -154 52 -238t147 -84q200 0 200 349q0 137 -36 215q-24 55 -67.5 86t-94.5 31z" />
<glyph unicode="r" horiz-adv-x="757" d="M338 795v-211q41 113 108.5 175t147.5 62q68 0 108 -37.5t40 -99.5q0 -53 -29 -84.5t-75 -31.5q-41 0 -67.5 26.5t-26.5 67.5t31 77q-109 -14 -171 -157q-67 -152 -66 -355v-17v-68q0 -51 23 -66t105 -15h32v-61h-455v61h6q84 0 107 14.5t23 66.5v68v408q0 55 -12.5 70 t-60.5 15h-70v74z" />
<glyph unicode="s" horiz-adv-x="790" d="M666 814v-287h-60q-36 102 -84 151q-70 68 -165 68q-70 0 -114.5 -33.5t-44.5 -84.5q0 -63 60 -90q31 -17 124 -38l86 -19q79 -17 113.5 -30.5t65.5 -40.5q72 -60 72 -173q0 -119 -76 -191t-203 -72q-130 0 -233 84l-60 -70h-60v323h68q31 -128 105.5 -195.5t181.5 -67.5 q75 0 123 38.5t48 97.5q0 51 -40.5 81t-142.5 54l-90 21q-130 31 -181 76q-60 55 -60 157q0 111 68.5 179.5t180.5 68.5q121 0 208 -68l50 61h60z" />
<glyph unicode="t" horiz-adv-x="663" d="M331 795h251v-73h-251v-466q0 -92 15 -128q20 -49 86 -49q125 0 133 232h72q2 -17 1 -40q0 -154 -88 -239q-61 -58 -164 -58q-152 0 -195 111q-20 48 -20 202v435h-140v66q205 15 230 345h70v-338z" />
<glyph unicode="u" horiz-adv-x="1042" d="M703 -12v142q-56 -82 -119 -119t-147 -37q-159 0 -230 110q-32 49 -33 165v369q0 55 -13 70t-60 15h-65v74l299 18v-520q0 -70 4 -95t21 -49q34 -53 120 -52q131 0 187 119q36 79 36 210v210q0 55 -12.5 70t-60.5 15h-87v74l321 18v-597q0 -82 18.5 -103.5t88.5 -21.5h43 v-73z" />
<glyph unicode="v" horiz-adv-x="916" d="M503 207l157 395q15 46 16 72q0 60 -92 60h-24v61h341v-61h-7q-94 0 -158 -161l-243 -599h-60l-293 686q-17 43 -40 58.5t-73 15.5h-13v61h402v-61h-23q-53 0 -73 -8.5t-20 -30.5q0 -19 9 -36z" />
<glyph unicode="w" horiz-adv-x="1327" d="M934 220l145 389q14 32 13 63q0 61 -83 62h-29v61h322v-61h-12q-44 0 -71.5 -27.5t-54.5 -102.5l-239 -630h-53l-208 540l-203 -540h-60l-256 676q-17 51 -35 67.5t-54 16.5h-30v61h375v-61h-31q-70 0 -70 -39q0 -14 7 -38l166 -428l150 397l-15 45q-12 38 -31 50.5 t-58 12.5h-29v61h382v-61h-41q-43 0 -57.5 -7.5t-14.5 -31.5q0 -20 7 -36z" />
<glyph unicode="x" horiz-adv-x="916" d="M527 435l215 -290q61 -84 149 -84h12v-61h-430v61h12q90 0 90 31q0 19 -22 51l-130 173l-143 -173q-14 -14 -14 -35q0 -27 24 -40q15 -7 60 -7h25v-61h-360v61h11q79 0 153 89l196 229l-208 263q-43 55 -68.5 71.5t-72.5 20.5v61h404v-61h-24q-75 0 -75 -31q0 -17 17 -37 l132 -168l107 128q34 43 34 70q0 38 -77 38h-32v61h353v-61h-15q-67 0 -128 -72z" />
<glyph unicode="y" horiz-adv-x="916" d="M512 217l155 385q17 41 17 69q0 63 -92 63h-27v61h341v-61h-10q-49 0 -80 -30t-63 -108l-195 -482q-94 -237 -162 -329q-101 -137 -236 -137q-67 0 -111 38t-44 94q0 46 29 76t74 30q38 0 62.5 -22.5t24.5 -54.5q0 -19 -9 -45q-3 -14 -3 -15q0 -17 27 -17q41 0 95.5 61.5 t100.5 158.5l29 60l-278 630q-22 51 -48.5 71.5t-67.5 20.5h-19v61h406v-61h-35q-79 0 -79 -43q0 -12 10 -36z" />
<glyph unicode="z" horiz-adv-x="820" d="M730 795v-61l-465 -661h174q116 0 169.5 53t65.5 179h68l-12 -305h-663v61l465 661h-148q-104 0 -154.5 -49.5t-62.5 -165.5h-68l15 288h616z" />
<glyph unicode="{" horiz-adv-x="568" d="M113 497v54q55 19 77.5 34.5t34.5 42.5q17 34 17 150v198q0 157 60 210q51 46 161 46h44v-58q-84 -5 -111 -48.5t-27 -166.5v-222q0 -87 -22.5 -128.5t-92.5 -84.5q70 -43 92.5 -84.5t22.5 -128.5v-222q0 -123 27 -166.5t111 -48.5v-58h-44q-109 0 -161 46 q-60 53 -60 210v198q0 84 -4 112t-20 51q-25 37 -105 64z" />
<glyph unicode="|" horiz-adv-x="1034" d="M584 1232v-1232h-133v1232h133z" />
<glyph unicode="}" horiz-adv-x="568" d="M456 551v-54q-55 -17 -78 -32.5t-37 -44.5q-17 -34 -17 -150v-198q0 -160 -59 -210q-51 -46 -161 -46h-43v58q82 5 109.5 48.5t27.5 166.5v222q0 87 22 128.5t92 84.5q-70 43 -92 84.5t-22 128.5v222q0 123 -27.5 166.5t-109.5 48.5v58h43q109 0 161 -46q60 -49 59 -210 v-198q0 -84 4.5 -112t21.5 -52q22 -36 106 -63z" />
<glyph unicode="~" horiz-adv-x="1034" d="M177 311l-90 64q48 84 113 133.5t126 49.5q55 0 169 -55l78 -37q97 -48 137 -48q73 0 147 111l90 -65q-48 -84 -112.5 -133t-126.5 -49q-55 0 -169 53l-78 39q-75 36 -93 42t-44 6q-74 0 -147 -111z" />
<glyph unicode="&#xa3;" horiz-adv-x="972" d="M399 524q9 -125 -22.5 -218t-118.5 -168q99 14 162 10.5t140 -14.5t94 -11q84 0 131.5 34t83.5 119l73 -34q-58 -268 -297 -268q-20 0 -129.5 12t-199 14.5t-232.5 -14.5l-14 127q155 114 116 411h-113v111h93q-20 123 -21 229q0 152 109.5 244.5t286.5 92.5 q154 0 254.5 -69t100.5 -173q0 -61 -43.5 -102t-99.5 -41q-46 0 -83 29t-37 71q0 39 14.5 63.5t59.5 44.5q15 7 15 27t-42 40t-98 20q-106 0 -165 -66.5t-57 -177.5q2 -67 27 -232h362v-111h-350z" />
<glyph unicode="&#xad;" horiz-adv-x="725" d="M645 573l-32 -126q-7 -26 -33 -25h-483q-32 0 -25 34l32 126q5 26 31 26h485q34 -1 25 -35z" />
<glyph unicode="&#x591;" d="M-48 -241v139h96v-139q68 -17 112.5 -72.5t44.5 -126.5h-96q0 46 -32.5 77.5t-76.5 31.5t-76.5 -31.5t-32.5 -77.5h-96q0 72 44.5 127t112.5 72z" />
<glyph unicode="&#x592;" d="M0 1331q-29 0 -48.5 19.5t-19.5 48.5t19.5 49t48.5 20t48.5 -20t19.5 -49t-19.5 -48.5t-48.5 -19.5zM-102 1126q-29 0 -49 20t-20 49t20 48.5t49 19.5t48.5 -19.5t19.5 -48.5t-19.5 -49t-48.5 -20zM102 1126q-29 0 -48.5 20t-19.5 49t19.5 48.5t48.5 19.5t49 -19.5 t20 -48.5t-20 -49t-49 -20z" />
<glyph unicode="&#x593;" d="M12 1560l145 -72l-145 -73l145 -72l-145 -72l145 -73l-145 -72l-84 43l60 29l-145 73l145 72l-145 72l145 73l-60 29z" />
<glyph unicode="&#x594;" d="M0 1263q29 0 48.5 -19.5t19.5 -48.5t-19.5 -49t-48.5 -20t-48.5 20t-19.5 49t19.5 48.5t48.5 19.5zM0 1468q29 0 48.5 -20t19.5 -49t-19.5 -48.5t-48.5 -19.5t-48.5 19.5t-19.5 48.5t19.5 49t48.5 20z" />
<glyph unicode="&#x595;" d="M-160 1475h102v-349h-102v349zM92 1263q29 0 48.5 -19.5t19.5 -48.5t-19.5 -49t-48.5 -20t-48.5 20t-19.5 49t19.5 48.5t48.5 19.5zM92 1468q29 0 48.5 -20t19.5 -49t-19.5 -48.5t-48.5 -19.5t-48.5 19.5t-19.5 48.5t19.5 49t48.5 20z" />
<glyph unicode="&#x596;" d="M109 -403l-49 -61q-169 131 -169 345q0 9 1 17h96q7 -173 121 -301z" />
<glyph unicode="&#x597;" d="M-121 1287l121 160l121 -160l-121 -161z" />
<glyph unicode="&#x598;" d="M169 1365h85q20 -46 21 -78q0 -67 -47 -114t-114 -47q-53 0 -94.5 32t-57.5 81q-9 26 -30 42t-46 16q-34 0 -57.5 -24t-23.5 -56q0 -39 33 -84h-89q-24 46 -24 84q0 67 47 113t114 46q55 0 97.5 -32.5t55.5 -83.5q9 -24 29.5 -38.5t45.5 -14.5q34 0 57.5 23t23.5 57 q0 40 -26 78z" />
<glyph unicode="&#x599;" d="M-109 1427l49 61q169 -131 169 -345q0 -9 -1 -17h-96q-7 173 -121 301z" />
<glyph unicode="&#x59a;" d="M121 -102l96 -48l-241 -121l241 -120l-96 -49l-338 169z" />
<glyph unicode="&#x59b;" d="M-100 -102q28 0 48 -20t20 -49t-20 -48.5t-48 -19.5t-48.5 19.5t-20.5 48.5t20.5 49t48.5 20zM-48 -403q113 128 120 301h97v-17q0 -213 -169 -345z" />
<glyph unicode="&#x59c;" d="M109 1427q-114 -128 -121 -301h-96q-2 9 -1 17q0 213 169 345z" />
<glyph unicode="&#x59d;" d="M109 1427q-114 -128 -121 -301h-96q-2 9 -1 17q0 213 169 345z" />
<glyph unicode="&#x59e;" d="M213 1427q-114 -128 -119 -301h-97v17q0 213 169 345zM3 1427q-114 -128 -121 -301h-95v17q0 213 169 345z" />
<glyph unicode="&#x59f;" d="M229.5 1391q-29.5 0 -51 -21.5t-21.5 -51t21.5 -50t51 -20.5t51 20.5t21.5 50t-21.5 51t-51 21.5zM162 1205l-77 -79l-49 48l78 79q-17 31 -17 66q0 55 38.5 94t94 39t94 -39t38.5 -93.5t-38.5 -94t-94.5 -39.5q-36 0 -67 19zM-229.5 1391q-29.5 0 -51 -21.5t-21.5 -51 t21.5 -50t51 -20.5t51 20.5t21.5 50t-21.5 51t-51 21.5zM-162 1205q-31 -19 -67 -19q-56 0 -94.5 39.5t-38.5 94t38.5 93.5t94 39t94 -39t38.5 -94q0 -36 -17 -66l78 -79l-49 -48z" />
<glyph unicode="&#x5a0;" d="M30 1391q-30 0 -51.5 -21.5t-21.5 -51t21.5 -50t51.5 -20.5t51 20.5t21 50t-21 51t-51 21.5zM-36 1205l-78 -79l-48 48l77 79q-17 31 -17 66q0 55 39 94t93.5 39t93 -39t38.5 -93.5t-38.5 -94t-92.5 -39.5q-36 0 -67 19z" />
<glyph unicode="&#x5a1;" d="M-55 1207v-81h-95v285h95v-107q46 0 78 31.5t32 75.5h95q0 -85 -60 -144.5t-145 -59.5z" />
<glyph unicode="&#x5a2;" d="M-48 -302q-68 17 -112.5 72.5t-44.5 127.5h96q0 -44 32.5 -77t76.5 -33t76.5 32.5t32.5 77.5h96q0 -72 -44.5 -127.5t-112.5 -72.5v-138h-96v138z" />
<glyph unicode="&#x5a3;" d="M-200 -444v103h297v239h103v-342h-400z" />
<glyph unicode="&#x5a4;" d="M121 -102l96 -48l-241 -121l241 -120l-96 -49l-338 169z" />
<glyph unicode="&#x5a5;" d="M-109 -403q114 128 121 301h96q2 -9 1 -17q0 -213 -169 -345z" />
<glyph unicode="&#x5a6;" d="M-213 -403q114 128 119 301h97v-17q0 -213 -169 -345zM-3 -403q114 128 121 301h95v-17q0 -213 -169 -345z" />
<glyph unicode="&#x5a7;" d="M133 -102l48 -96h-193l169 -145l-48 -97h-242l-48 97h193l-169 145l48 96h242z" />
<glyph unicode="&#x5a8;" d="M-109 1427l49 61q169 -131 169 -345q0 -9 -1 -17h-96q-7 173 -121 301z" />
<glyph unicode="&#x5a9;" d="M-30 1391q-30 0 -51 -21.5t-21 -51t21 -50t51 -20.5t51.5 20.5t21.5 50t-21.5 51t-51.5 21.5zM36 1205q-31 -19 -67 -19q-55 0 -93 39.5t-38 94t38.5 93.5t93 39t93.5 -39t39 -94q0 -36 -17 -66l77 -79l-48 -48z" />
<glyph unicode="&#x5aa;" d="M-205 -102h96q0 -44 32.5 -77t76.5 -33t76.5 32.5t32.5 77.5h96q0 -85 -60 -145t-145 -60t-145 60t-60 145z" />
<glyph unicode="&#x5ab;" d="M121 1464l96 -49l-241 -120l241 -121l-96 -48l-338 169z" />
<glyph unicode="&#x5ac;" d="M-200 1126v103h297v239h103v-342h-400z" />
<glyph unicode="&#x5ad;" d="M109 -403l-49 -61q-169 131 -169 345q0 9 1 17h96q7 -173 121 -301z" />
<glyph unicode="&#x5ae;" d="M169 1365h85q20 -46 21 -78q0 -67 -47 -114t-114 -47q-53 0 -94.5 32t-57.5 81q-9 26 -30 42t-46 16q-34 0 -57.5 -24t-23.5 -56q0 -39 33 -84h-89q-24 46 -24 84q0 67 47 113t114 46q55 0 97.5 -32.5t55.5 -83.5q9 -24 29.5 -38.5t45.5 -14.5q34 0 57.5 23t23.5 57 q0 40 -26 78z" />
<glyph unicode="&#x5af;" d="M0 1379q-34 0 -59 -25t-25 -59.5t25 -59.5t59 -25t59 25t25 59.5t-25 59.5t-59 25zM0 1464q70 0 119.5 -49.5t49.5 -119.5t-49.5 -119.5t-119.5 -49.5t-119.5 49.5t-49.5 119.5t49.5 119.5t119.5 49.5z" />
<glyph unicode="&#x5b0;" d="M0 -307q29 0 48.5 -19.5t19.5 -48.5t-19.5 -49t-48.5 -20t-48.5 20t-19.5 49t19.5 48.5t48.5 19.5zM0 -102q29 0 48.5 -20t19.5 -49t-19.5 -48.5t-48.5 -19.5t-48.5 19.5t-19.5 48.5t19.5 49t48.5 20z" />
<glyph unicode="&#x5b1;" d="M-111 -307q29 0 48.5 -19.5t19.5 -48.5t-19.5 -49t-48.5 -20t-48.5 20t-19.5 49t19.5 48.5t48.5 19.5zM-213 -102q29 0 48.5 -20t19.5 -49t-19.5 -48.5t-48.5 -19.5t-49 19.5t-20 48.5t20 49t49 20zM-9 -102q29 0 49 -20t20 -49t-20 -48.5t-49 -19.5t-48.5 19.5 t-19.5 48.5t19.5 49t48.5 20zM213 -307q29 0 49 -19.5t20 -48.5t-20 -49t-49 -20t-48.5 20t-19.5 49t19.5 48.5t48.5 19.5zM213 -102q29 0 49 -20t20 -49t-20 -48.5t-49 -19.5t-48.5 19.5t-19.5 48.5t19.5 49t48.5 20z" />
<glyph unicode="&#x5b2;" d="M-282 -119h342v-103h-342v103zM213 -102q29 0 49 -20t20 -49t-20 -48.5t-49 -19.5t-48.5 19.5t-19.5 48.5t19.5 49t48.5 20zM213 -307q29 0 49 -19.5t20 -48.5t-20 -49t-49 -20t-48.5 20t-19.5 49t19.5 48.5t48.5 19.5z" />
<glyph unicode="&#x5b3;" d="M-282 -119h342v-103h-120v-203h-102v203h-120v103zM213 -102q29 0 49 -20t20 -49t-20 -48.5t-49 -19.5t-48.5 19.5t-19.5 48.5t19.5 49t48.5 20zM213 -307q29 0 49 -19.5t20 -48.5t-20 -49t-49 -20t-48.5 20t-19.5 49t19.5 48.5t48.5 19.5z" />
<glyph unicode="&#x5b4;" d="M0 -102q29 0 48.5 -20t19.5 -49t-19.5 -48.5t-48.5 -19.5t-48.5 19.5t-19.5 48.5t19.5 49t48.5 20z" />
<glyph unicode="&#x5b5;" d="M-102 -102q29 0 48.5 -20t19.5 -49t-19.5 -48.5t-48.5 -19.5t-49 19.5t-20 48.5t20 49t49 20zM102 -102q29 0 49 -20t20 -49t-20 -48.5t-49 -19.5t-48.5 19.5t-19.5 48.5t19.5 49t48.5 20z" />
<glyph unicode="&#x5b6;" d="M0 -307q29 0 48.5 -19.5t19.5 -48.5t-19.5 -49t-48.5 -20t-48.5 20t-19.5 49t19.5 48.5t48.5 19.5zM-102 -102q29 0 48.5 -20t19.5 -49t-19.5 -48.5t-48.5 -19.5t-49 19.5t-20 48.5t20 49t49 20zM102 -102q29 0 49 -20t20 -49t-20 -48.5t-49 -19.5t-48.5 19.5t-19.5 48.5 t19.5 49t48.5 20z" />
<glyph unicode="&#x5b7;" d="M-171 -119h342v-103h-342v103z" />
<glyph unicode="&#x5b8;" d="M-171 -119h342v-103h-120v-179h-102v179h-120v103z" />
<glyph unicode="&#x5b9;" d="M0 1263q29 0 48.5 -19.5t19.5 -48.5t-19.5 -49t-48.5 -20t-48.5 20t-19.5 49t19.5 48.5t48.5 19.5z" />
<glyph unicode="&#x5ba;" d="M0 1263q29 0 48.5 -19.5t19.5 -48.5t-19.5 -49t-48.5 -20t-48.5 20t-19.5 49t19.5 48.5t48.5 19.5z" />
<glyph unicode="&#x5bb;" d="M188 -307q29 0 48.5 -19.5t19.5 -48.5t-19.5 -49t-48.5 -20t-49 20t-20 49t20 48.5t49 19.5zM0 -205q29 0 48.5 -19.5t19.5 -48.5t-19.5 -48.5t-48.5 -19.5t-48.5 19.5t-19.5 48.5t19.5 48.5t48.5 19.5zM-188 -102q29 0 49 -20t20 -49t-20 -48.5t-49 -19.5t-48.5 19.5 t-19.5 48.5t19.5 49t48.5 20z" />
<glyph unicode="&#x5bc;" d="M0 579q29 0 48.5 -20t19.5 -48t-19.5 -48.5t-48.5 -20.5t-48.5 20.5t-19.5 48.5t19.5 48t48.5 20z" />
<glyph unicode="&#x5bd;" d="M-51 -102h102v-349h-102v349z" />
<glyph unicode="&#x5be;" horiz-adv-x="737" d="M640 841q0 -68 -55 -68h-423q-55 0 -54 68v115q0 68 54 68h423q55 0 55 -68v-115z" />
<glyph unicode="&#x5bf;" d="M-171 1263h342v-102h-342v102z" />
<glyph unicode="&#x5c0;" horiz-adv-x="305" d="M80 1085l145 47v-1229l-145 -46v1228z" />
<glyph unicode="&#x5c1;" d="M1014 1205q29 0 48.5 -19.5t19.5 -48.5t-19.5 -49t-48.5 -20t-49 20t-20 49t20 48.5t49 19.5z" />
<glyph unicode="&#x5c2;" d="M266 1205q29 0 49 -19.5t20 -48.5t-20 -49t-49 -20t-48.5 20t-19.5 49t19.5 48.5t48.5 19.5z" />
<glyph unicode="&#x5c3;" horiz-adv-x="520" d="M169 761l96 116q19 20 30.5 20.5t28.5 -20.5l96 -116q22 -27 0 -54l-96 -116q-17 -22 -29 -22.5t-30 22.5l-96 116q-22 27 0 54zM169 164l96 116q19 20 30.5 20t28.5 -20l96 -116q22 -27 0 -55l-96 -116q-17 -22 -29 -22t-30 22l-96 116q-22 28 0 55z" />
<glyph unicode="&#x5c4;" d="M0 1331q43 0 72.5 -30t29.5 -72.5t-29.5 -72.5t-72.5 -30t-72.5 30t-29.5 72.5t29.5 72.5t72.5 30z" />
<glyph unicode="&#x5c5;" d="M0 -102q43 0 72.5 -30t29.5 -72.5t-29.5 -72.5t-72.5 -30t-72.5 30t-29.5 72.5t29.5 72.5t72.5 30z" />
<glyph unicode="&#x5c6;" horiz-adv-x="628" d="M294 242h283l-65 -242h-422l29 118q9 32 6 77l-8 80t-7 83.5t0 69t6 89.5q7 48 26.5 113.5t36.5 108.5l16 43q-20 17 -28 23.5t-17.5 23t-16.5 41.5q-17 70 7 149q19 63 48 78q26 14 34 -3q2 -2 0 -15.5t0 -22.5q2 -14 12 -23t22 -9h99h10q32 0 49.5 -1t43 -11t42.5 -29 q36 -39 37 -113.5t-27 -94.5q-14 -9 -21.5 -7t-25.5 8t-31 6q-159 2 -159 0q-15 -17 -34 -100t-22 -158q-7 -142 25 -237q16 -45 52 -45z" />
<glyph unicode="&#x5c7;" d="M-137 -119h274v-103h-86v-196h-102v196h-86v103z" />
<glyph unicode="&#x5d0;" horiz-adv-x="1058" d="M959 874q0 -58 -8.5 -91.5t-24 -41t-35.5 0.5q-60 26 -116 -100q-26 -58 -28.5 -119.5t28.5 -107.5l136 -164q31 -36 41.5 -84t1.5 -85q-7 -41 -41 -74.5t-66 -24.5q-14 3 -17.5 11.5t-2.5 19t-2.5 26t-15.5 30.5l-415 500q-75 -51 -78 -114q-2 -41 19.5 -88t48 -84 t49.5 -89.5t23 -102.5q0 -92 -57 -92h-274q-31 0 -34.5 36t13.5 56q9 14 37 17.5t31 9.5q9 19 4.5 47.5t-15.5 60t-16 76.5t2 100q12 75 56 134.5t120 119.5l-132 155q-31 38 -43.5 80t-9 77t16 64t32.5 46t38 17q22 0 28 -11.5t13 -38.5t26 -49l360 -434q17 119 94 207 q-38 10 -57.5 17.5t-41.5 24.5t-31.5 46t-9.5 74q0 61 24 116t58 55q12 0 14.5 -5.5t0.5 -20t0 -21.5q3 -26 43 -32l56 -10q87 -14 122 -42t35 -98z" />
<glyph unicode="&#x5d1;" horiz-adv-x="868" d="M212 1024h375q29 0 66.5 -16t59.5 -52q55 -99 55 -311q0 -198 -87 -384q-2 -5 0 -12t8 -7h123q26 0 32 -10t-1 -31l-46 -167q-5 -20 -13.5 -27t-34.5 -7h-655q-26 0 -32 11t1 32l46 177q3 14 10 18t26 4h381q55 0 68 14q24 24 39.5 95.5t15.5 157.5q0 140 -38 204 q-43 68 -145 69h-241q-73 0 -108 35.5t-35 112.5q0 60 23 116.5t57 56.5q12 0 14.5 -5.5t1 -18t-0.5 -21.5q2 -14 12.5 -24t22.5 -10z" />
<glyph unicode="&#x5d2;" horiz-adv-x="721" d="M106 0q-27 0 -32.5 11t1.5 32l46 177q3 14 10 18t26 4h89q32 0 60.5 6t47 20.5t34 27.5t25.5 36t16 37.5t9.5 42t5 36.5t2.5 34t1 27q17 273 -80 273h-55q-73 0 -108 35.5t-35 114.5q0 61 24 116t56 55q12 0 15.5 -5.5t1 -20t-0.5 -21.5q2 -14 12 -23t22 -9h131 q17 0 36.5 -5t50.5 -20.5t46.5 -55.5t6.5 -98q-29 -195 -29 -266q0 -87 62.5 -229t62.5 -253q0 -20 -1 -34.5t-4.5 -32.5t-12 -27.5t-20.5 -9.5q-24 0 -44.5 46t-47.5 115.5t-58 104.5q-26 31 -63 -61q-5 -14 -26 -72l-32 -92q-7 -19 -15.5 -26.5t-30.5 -7.5h-205z" />
<glyph unicode="&#x5d3;" horiz-adv-x="901" d="M56 932q0 61 24 116t57 55q14 0 16 -5.5t0.5 -20t0.5 -21.5q2 -14 12 -23t20 -9h614q53 0 55 -68v-144q0 -20 -10 -25t-24.5 -2.5t-35 -10.5t-34.5 -44q-29 -58 -34 -139.5t3.5 -148.5t18.5 -143.5t9 -115.5q-5 -97 -53 -145q-27 -27 -65 -38.5t-48 7.5q-3 7 -4 10 t0.5 7.5t5 19t6 36.5t4.5 70t3 109q0 5 -2.5 65t-2.5 108.5t8 116t25 113.5q12 36 27 59t24.5 32.5t9.5 14.5q0 15 -31 14h-5h-449q-75 0 -110 36.5t-35 113.5z" />
<glyph unicode="&#x5d4;" horiz-adv-x="984" d="M229 1024h614q53 0 55 -68v-144q0 -24 -4.5 -32.5t-10.5 -7.5t-17 -8.5t-21 -33.5q-17 -31 -15.5 -111t12 -152.5t20.5 -157.5t8 -126q-5 -97 -53 -145q-27 -27 -64.5 -38.5t-47.5 7.5q-3 7 -4 10t0.5 7.5t5 19t6 36.5t4.5 70t3 109q0 12 -4 71t-5 122t8 200q2 31 12 53 t21 32.5t19.5 18t8.5 12.5q-2 7 -6 10.5t-7.5 4t-12 0t-10.5 -0.5h-500q-75 0 -110 36.5t-35 113.5q0 61 24 116t56 55q14 0 16.5 -5.5t1 -20t-0.5 -21.5q2 -14 12.5 -23t20.5 -9zM268 556q19 0 15 -17q-15 -49 -9 -246t-23 -228q-20 -32 -64 -51t-64 -17q-19 2 -14 20 q14 51 12 208v28v102.5t7 88.5t22 59q39 53 118 53z" />
<glyph unicode="&#x5d5;" horiz-adv-x="580" d="M213 1024h91q113 0 151 -57t38 -168q0 -72 2 -219t1 -252.5t-4 -206.5q-2 -61 -33 -96t-61 -35q-9 0 -15 6t-6 14v330.5v279.5q0 39 -1 57.5t-8.5 42.5t-22 35t-42 19t-67.5 8h-9q-73 0 -108 36.5t-35 113.5q0 61 23.5 116t56.5 55q14 0 16.5 -5.5t0.5 -20t-2 -21.5 q3 -14 13.5 -23t20.5 -9z" />
<glyph unicode="&#x5d6;" horiz-adv-x="578" d="M220 1024h121q106 0 149 -68q31 -55 26.5 -120t-26.5 -88q-7 -9 -31 4t-46 23t-46 -10q-20 -24 -22 -102.5t7.5 -164t19 -180t5.5 -135.5q-3 -97 -53 -145q-26 -27 -59 -38.5t-45 7.5q-2 7 -2.5 12t-0.5 12t1.5 24t3.5 42.5t3.5 75t1.5 110.5q0 10 -1.5 65.5t-2.5 105 t3 108.5t15 90q10 26 18.5 44.5t12.5 25.5t7.5 15.5t3.5 20.5q3 24 -30 24h-19q-73 0 -108.5 36.5t-35.5 113.5q0 61 24 116t57 55q14 0 16 -5.5t0.5 -20t-1.5 -21.5q3 -14 13.5 -23t20.5 -9z" />
<glyph unicode="&#x5d7;" horiz-adv-x="1012" d="M195 782q-55 10 -82.5 46t-27.5 104q0 61 24 116t57 55q12 0 15 -5.5t1.5 -20t-1.5 -21.5q3 -14 13.5 -23t20.5 -9h664q53 0 55 -68v-144q0 -24 -4.5 -31.5t-10.5 -7.5t-16 -9.5t-22 -33.5q-17 -31 -14.5 -111t12.5 -152.5t20.5 -157.5t6.5 -126q-5 -97 -53 -145 q-26 -27 -64 -38.5t-48 7.5q-3 0 -1.5 16t5 28t7.5 69t4 139q0 34 -6 174t3 169q3 44 10 74.5t13 40.5t13.5 19.5t10.5 16.5q5 14 -3.5 21.5t-28.5 7.5h-358q-7 0 -20 -2t-41 -14.5t-42 -35.5q-26 -43 -28.5 -146.5t7 -231t6.5 -169.5q-5 -97 -53 -145q-26 -27 -64 -38.5 t-49 7.5q-2 7 -2.5 11t1 8.5t5 19.5t6 38.5t4.5 69.5t2 105q0 227 8 321q5 60 20.5 99.5t31 56.5t15.5 22q4 19 -22 24z" />
<glyph unicode="&#x5d8;" horiz-adv-x="991" d="M205 787q-53 12 -78.5 43.5t-25.5 101.5q0 61 23.5 116t56.5 55q12 0 15.5 -5.5t1.5 -20t-2 -21.5q3 -14 13.5 -23t20.5 -9h53q87 0 124 -39.5t37 -117.5q0 -75 -28 -106q-17 -17 -44 -2.5t-48 -4.5q-41 -41 -41 -222q0 -133 33.5 -211.5t87.5 -78.5h297q80 2 111 103 q20 67 28 128t-3 123.5t-46 101t-75 45t-77 -12t-66.5 -47t-53.5 -62.5q-24 -32 -44.5 -23.5t-13.5 47.5q9 44 32.5 106.5t59.5 128t89.5 110t110.5 41.5q55 -3 94 -38.5t57.5 -88t30.5 -115t11 -119t-2 -100.5q-10 -167 -39 -291t-86 -245q-5 -14 -9 -19t-14.5 -10 t-27.5 -5h-519q-22 0 -29 7t-8 27q-12 128 -26.5 212.5t-21.5 132.5t-5 133q2 44 11 87t17.5 64t23 50l16.5 33q16 34 -22 41z" />
<glyph unicode="&#x5d9;" horiz-adv-x="559" d="M212 1024h99q80 0 119 -30.5t55 -119.5q14 -75 -3.5 -159t-61.5 -148q-43 -65 -89 -105t-75 -10q-26 29 15 70q102 97 87 188q-5 34 -30.5 53t-59.5 19h-43q-73 0 -108 36.5t-35 113.5q0 61 24 116t56 55q14 0 16.5 -5.5t0.5 -20t-2 -21.5q3 -14 14 -23t21 -9z" />
<glyph unicode="&#x5da;" horiz-adv-x="849" d="M196 1024h480q58 0 87 -32.5t29 -88.5t-25.5 -88.5t-75.5 -32.5v-57.5v-78.5v-74q3 -172 23 -480.5t16 -361.5q-3 -96 -52 -143q-26 -27 -63.5 -39t-49.5 8q-2 5 -3 8.5t1 8t4.5 19t6 37.5t5 70t1.5 110q2 125 9 470.5t15 502.5h-394q-73 0 -108 35.5t-35 112.5 q0 61 23 117t57 56q12 0 15.5 -5.5t1.5 -18t-2 -21.5q3 -14 13.5 -24t20.5 -10z" />
<glyph unicode="&#x5db;" horiz-adv-x="889" d="M119 0q-26 0 -31.5 11t1.5 32l46 177q3 14 10 18t26 4h380q196 0 197 270q0 126 -64 198t-192 72h-241q-73 0 -107.5 35t-35.5 113q-2 60 22 116.5t58 56.5q12 0 14.5 -5.5t0.5 -18t0 -21.5q2 -14 13 -24t21 -10h316q294 0 294 -512q0 -97 -15 -183.5t-47 -162.5 t-92 -121t-140 -45h-434z" />
<glyph unicode="&#x5dc;" horiz-adv-x="918" d="M461 174q-2 -9 4 -41t9.5 -60.5t-13.5 -53t-60 -26.5q-34 -2 -59 26.5t-28 67.5q-3 65 21.5 112.5t80.5 100.5q36 32 95 72.5t95.5 67t70 78.5t42.5 120q9 58 -7 101t-60 43h-514q-20 0 -27 8.5t-9 32.5q-10 109 0 235q3 38 15.5 89t21 84.5t13.5 70t-5 45.5 q-10 19 -38.5 28t-44.5 25.5t-15 55.5q10 114 38 114q14 0 26 -18t30 -25q12 -3 43.5 -8t50.5 -16t31 -37q17 -22 8.5 -60.5t-23 -67.5t-32.5 -75t-23 -82q-2 -41 -2 -76t31 -58t94 -23h409q53 0 72 -13t34 -55q15 -38 20.5 -132.5t-1.5 -144.5q-3 -38 -7.5 -65t-16.5 -69.5 t-37.5 -77.5t-63.5 -61q-24 -17 -78.5 -49.5t-87 -53.5t-63.5 -56t-40 -73z" />
<glyph unicode="&#x5dd;" horiz-adv-x="955" d="M249 1024h376q51 0 70.5 -1t53 -7.5t58.5 -22.5q61 -38 73.5 -119.5t12.5 -364.5q0 -258 -19 -446q-3 -39 -17 -51t-43 -12h-650q-17 0 -25 2.5t-14 15.5t-7 42q-5 56 -6 106.5t0 125.5t1 94q0 113 9 182t37 123q29 56 70 91q-109 14 -110 148q0 61 23.5 117t57.5 56 q12 0 14.5 -5.5t0.5 -18t0 -21.5q2 -14 12 -24t22 -10zM389 782q-72 0 -115.5 -60t-48.5 -152q-9 -140 -3 -234q2 -46 12 -66.5t21 -24t37 -3.5h8h437q22 0 31 7t12 29q14 85 14 243q0 53 -3.5 89.5t-14 81t-36 67.5t-64.5 23h-287z" />
<glyph unicode="&#x5de;" horiz-adv-x="996" d="M265 82q2 -27 -10.5 -47.5t-29.5 -30t-35.5 -14t-33 -1t-18.5 10.5q-5 9 -5 51q0 215 42.5 362.5t135.5 275.5q14 19 6 39t-29 25q-22 5 -50 6.5t-48.5 6.5t-42.5 22q-51 41 -51 142q0 61 23 117t57 56q12 0 14.5 -5.5t0.5 -18t0 -21.5q2 -14 12 -24t21 -10h35 q126 0 154 -109q17 -65 -3 -140q79 39 119.5 97t69.5 138q9 22 20 25.5t31 -1.5q84 -15 145.5 -62t95.5 -118t49.5 -151t15.5 -176q0 -263 -62 -493q-5 -20 -14.5 -27t-29.5 -7h-423q-27 0 -32.5 11t1.5 32l46 177q3 14 10 18t26 4h285q24 0 38.5 8.5t31.5 34.5 q20 31 27 107t-12 168q-22 89 -85 142.5t-154 53.5q-164 0 -262.5 -183.5t-81.5 -490.5z" />
<glyph unicode="&#x5df;" horiz-adv-x="549" d="M203 1024h162q60 0 90 -45t30 -114q0 -85 -55 -181q-44 -79 -44 -145q0 -87 15 -418t14 -391q-5 -96 -53 -143q-27 -27 -65 -39t-48 8q-3 5 -4 8.5t0.5 8t4.5 19t6 37.5t5 70t4 110q0 82 6.5 375.5t13.5 390.5q3 53 26.5 100t23.5 69q0 15 -15 26.5t-32 11.5h-70 q-75 0 -109 35.5t-34 112.5q0 60 23 116.5t56 56.5q14 0 16 -5.5t0.5 -18t0.5 -21.5q2 -14 12 -24t20 -10z" />
<glyph unicode="&#x5e0;" horiz-adv-x="648" d="M300 1024h115q138 0 141 -157q0 -26 -13 -114q-24 -148 -24 -219q0 -67 26.5 -173.5t29.5 -147.5q7 -99 -19 -177q-5 -14 -8.5 -20t-15 -11t-32.5 -5h-408q-27 0 -32 11t1 32l47 177q3 14 10 18t25 4h212q49 0 63 58q5 24 5 60t-2.5 88t-2.5 83q0 67 7 124t3 77 q-7 49 -70 50h-44q-73 0 -108 35.5t-35 112.5q0 60 23 116.5t57 56.5q12 0 14.5 -5.5t1 -18t-0.5 -21.5q2 -14 12 -24t22 -10z" />
<glyph unicode="&#x5e1;" horiz-adv-x="921" d="M222 782q-106 12 -106 148q0 60 23 116.5t57 56.5q12 0 14.5 -5.5t1 -18t0.5 -21.5q2 -14 12 -24t20 -10h306q68 0 123.5 -22t89.5 -54t59 -84t36 -93t17.5 -100.5t7.5 -87.5t1 -74q0 -160 -35 -268t-115 -181q-77 -72 -256 -72q-166 0 -248 75q-108 97 -121 323 q-9 135 26 256q27 94 87 140zM497 230q297 0 297 289q0 125 -61 194t-170 69h-136q-58 0 -78.5 -3.5t-39.5 -19.5q-48 -38 -73.5 -106.5t-25.5 -150.5q0 -272 287 -272z" />
<glyph unicode="&#x5e2;" horiz-adv-x="991" d="M719 775q-82 5 -119 41.5t-37 113.5q0 60 23 116.5t57 56.5q12 0 14.5 -5.5t1 -18t0.5 -21.5q2 -19 18 -28t31.5 -11t42.5 -4h8q169 -7 180 -131q3 -34 -5.5 -64t-18.5 -45.5t-32.5 -42.5t-30.5 -41q-31 -44 -55 -110t-36 -114.5t-32 -145.5q-2 -3 -6 -24t-5 -25 l-5.5 -22l-6 -24t-6 -22t-8 -24t-7.5 -20.5t-9 -22t-11 -20.5t-13 -21q-44 -67 -95.5 -105.5t-124.5 -72.5l-323 -150q-22 -12 -29.5 -8t-4.5 32l14 199q2 22 9.5 31t26.5 16l198 75q48 19 80 48.5t30 65.5q-3 31 -17.5 57.5t-24 36.5t-34.5 34q-34 32 -54 52.5t-40.5 54 t-25.5 65.5t4.5 89.5t16.5 89t-2 55.5q-12 14 -52 22.5t-56 16.5q-56 32 -56 130q0 60 23 116.5t57 56.5q12 0 14.5 -5.5t1 -18t0.5 -21.5q3 -26 32 -32q24 -5 72.5 -9.5t78.5 -15.5t54 -40q20 -26 23.5 -97.5t-21.5 -110.5q-5 -7 -36 5t-45 1q-14 -9 -17 -57t12 -93 q10 -27 43.5 -60.5t67 -71.5t46.5 -83q26 -80 0 -181q43 29 62.5 72t36 104.5t38.5 103.5q22 44 58 98t54 85.5t18 57.5q-2 17 -14.5 28t-31.5 13z" />
<glyph unicode="&#x5e3;" horiz-adv-x="923" d="M247 783q-75 -2 -106.5 36.5t-31.5 110.5q0 60 23 116.5t57 56.5q12 0 15 -5.5t1 -18t0 -21.5q2 -14 12 -24t20 -10h371q84 0 131.5 -25.5t64.5 -82.5q19 -61 32 -343q34 -719 29 -843q-5 -96 -53 -143q-27 -27 -64.5 -39t-47.5 8q-3 5 -4 8.5t0.5 8t5 19t6 37.5t4 70 t3.5 110q0 58 22 802q2 75 -34 123t-119 48h-197q-44 0 -77.5 -34.5t-44.5 -73.5t1 -56q10 -9 15.5 -6.5t27.5 6t48 2.5q55 -5 89 -31t44 -92q7 -44 -3.5 -84.5t-46.5 -40.5q-20 0 -32 6t-15.5 12t-10.5 21q-19 36 -82 36q-61 0 -78 -32q-9 -15 -14 -22t-17 -14t-27 -7 q-32 0 -46 13.5t-12 41.5q2 63 19 138q32 155 122 218z" />
<glyph unicode="&#x5e4;" horiz-adv-x="916" d="M123 0q-27 0 -32.5 11t1.5 32l46 177q3 14 10 18t26 4h435q96 0 136 78t40 219q0 96 -44.5 169.5t-124.5 73.5h-215q-43 0 -77 -34.5t-45 -73.5t1 -56q12 -9 16 -6.5t27 6t49 2.5q53 -5 87 -31t46 -92q7 -44 -4 -84.5t-47 -40.5q-19 0 -31 6t-15.5 12t-11.5 21 q-17 36 -80 36q-61 0 -79 -32q-9 -15 -14 -22t-16.5 -14t-29.5 -7q-32 0 -45 13.5t-13 41.5q3 63 19 138q34 155 123 218q-137 -2 -136 147q0 60 23 116.5t57 56.5q12 0 14.5 -5.5t0.5 -18t0 -21.5q2 -14 12 -24t21 -10h353q87 0 137.5 -24t75.5 -84q67 -157 62 -406 q-5 -273 -81 -476q-12 -34 -51 -34h-626z" />
<glyph unicode="&#x5e5;" horiz-adv-x="916" d="M572 800q-53 32 -53 130q0 60 24 116.5t56 56.5q14 0 16.5 -5.5t0.5 -18t-2 -21.5q3 -14 13.5 -24t21.5 -10l105 -14q34 -5 55.5 -20t31 -41.5t12 -49.5t2.5 -56q0 -73 -22 -99q-10 -19 -31.5 -4.5t-45.5 2.5q-5 -3 -30.5 -30.5t-70 -76t-66.5 -72.5q-167 -179 -181 -413 q-5 -96 7.5 -250t12.5 -170q-5 -96 -53 -143q-27 -27 -64.5 -39t-47.5 8q-5 9 1.5 29.5t14.5 67.5t-1 156q0 5 -7.5 80t-14.5 153.5t-15.5 191t-10 192t1.5 156.5q2 29 25 83t23 79q0 15 -14.5 26.5t-31.5 11.5h-16q-73 0 -108 35.5t-35 112.5q0 60 23 116.5t57 56.5 q12 0 14.5 -5.5t1 -18t0.5 -21.5q2 -14 12 -24t20 -10h106q121 0 121 -166q0 -58 -17 -104.5t-53 -110.5q-29 -51 -31 -97q-5 -97 7 -210q34 130 190 294q17 19 40 42l35.5 35.5t24.5 26.5t16.5 22.5t2.5 13.5q-3 9 -13.5 12t-28 6t-31.5 12z" />
<glyph unicode="&#x5e6;" horiz-adv-x="954" d="M591 800q-53 32 -53 130q0 60 23 116.5t57 56.5q12 0 14.5 -5.5t0.5 -18t0 -21.5q2 -14 12 -24t21 -10l88 -7q49 -3 76 -29.5t35 -59.5q20 -85 -7 -170q-5 -15 -14 -17t-20.5 5.5t-24 12t-24.5 -0.5q-17 -10 -39 -39q-19 -27 -44 -61.5t-60.5 -83t-58.5 -79.5 q32 -20 112 -63t121 -76t68 -83q15 -27 7 -60l-48 -179q-5 -20 -14.5 -27t-35.5 -7h-653q-26 0 -32 11t3 32l44 177q3 14 11 18t25 4h481q-27 46 -77.5 78.5t-106 64t-89.5 71.5q-27 32 -40.5 65.5t-16.5 65t-3 70.5t-1 82q0 12 -4.5 20.5t-7 13t-13.5 6t-13 1.5t-19 2 h-21.5t-35.5 0.5t-39 6.5t-38 17q-48 34 -48 124q0 60 24 116.5t56 56.5q14 0 16.5 -5.5t0.5 -18t-2 -21.5q3 -14 13.5 -24t20.5 -10h57q92 0 123.5 -34t31.5 -109q0 -12 -6 -62.5t-5 -96.5t14 -80q15 -38 62 -84q119 154 150 193q9 12 4.5 24t-18.5 13q-30 5 -40 12z" />
<glyph unicode="&#x5e7;" horiz-adv-x="965" d="M227 1024h492q53 0 92 -21.5t59.5 -51t31.5 -77.5t13.5 -83t2.5 -86q0 -128 -32.5 -209t-103.5 -136q-41 -31 -132.5 -78.5t-115.5 -63.5q-72 -48 -75 -107q-5 -53 -20.5 -73.5t-42.5 -20.5q-26 0 -45.5 18t-19.5 50q0 26 4.5 45.5t22 53t64 75t119.5 91.5q9 5 47 29 t64 42.5t57.5 48.5t47.5 68.5t16 82.5q-2 82 -43.5 121.5t-109.5 39.5h-378q-75 0 -109 35.5t-34 112.5q0 60 23 116.5t55 56.5q14 0 16.5 -5.5t1 -18t0.5 -21.5q2 -14 12 -24t20 -10zM251 406q-2 -114 2.5 -339.5t2.5 -283.5q-2 -7 -2.5 -39t-1.5 -45t-3.5 -36t-7 -38.5 t-11.5 -27.5q-17 -29 -52 -45t-59 4q-5 5 -5.5 15.5t1 30t5 43.5t7 68.5t3.5 93.5q0 99 -4.5 330.5t-0.5 292.5v51t0.5 55.5t5 45.5t14.5 38q12 20 39.5 33t46 13t25.5 -7q2 -7 2 -8t0.5 -5t0.5 -6t-0.5 -9.5t-1.5 -17t-2 -28t-1.5 -41.5t-1.5 -59t-1 -79z" />
<glyph unicode="&#x5e8;" horiz-adv-x="870" d="M227 782q-75 0 -109 35.5t-34 112.5q0 60 23 116.5t57 56.5q12 0 14.5 -5.5t0.5 -18t0 -21.5q2 -14 12 -24t21 -10h419q55 0 93.5 -20.5t59 -55.5t29 -71.5t8.5 -77.5v-328v-305q0 -80 -10 -111q-10 -27 -36.5 -46t-49.5 -19q-10 0 -17 8.5t-7 18.5v625q0 77 -33 108.5 t-124 31.5h-317z" />
<glyph unicode="&#x5e9;" horiz-adv-x="1218" d="M894 794q-56 32 -56 136q0 60 23 116.5t57 56.5q12 0 15.5 -5.5t2 -18t-1.5 -21.5q5 -29 34 -34l100 -17q44 -7 67.5 -40t25 -78.5t-4.5 -84.5t-16 -72q-19 -58 -76 -147.5t-72 -116.5q-31 -60 -107 -210t-115 -224q-14 -22 -24 -28t-36 -6h-410q-19 0 -28 6t-14 28 q-17 73 -37 162t-26.5 120.5t-15 74t-12 66.5t-7.5 55q-14 119 52 236q19 38 -16 44q-3 0 -15 1t-22.5 3.5t-20.5 9.5q-48 34 -48 124q0 60 24 116.5t57 56.5q12 0 15 -5.5t1.5 -18t-1.5 -21.5q7 -34 34 -36l91 -8q43 -5 66.5 -28t38.5 -68q9 -26 10 -77t-8 -82 q-5 -17 -20.5 -14t-32.5 10.5t-39 -7.5q-22 -17 -37.5 -91.5t-3.5 -158.5q36 -275 131 -256q24 155 45 222q15 55 59.5 132.5t52.5 106.5q17 55 12 67q-7 15 -33 19.5t-40 10.5q-53 31 -53 130q0 60 23 116.5t57 56.5q12 0 15.5 -5.5t2 -18t-1.5 -21.5q2 -14 13 -24t21 -10 l90 -9q87 -9 108 -87q26 -97 -7 -170q-7 -15 -19 -12.5t-27 10t-39 -4.5q-15 -7 -26 -39q-9 -24 -25 -96.5t-31 -113.5q-12 -34 -37.5 -81t-42 -88t-21.5 -91h142q44 0 63.5 15.5t41.5 54.5q118 195 260 377q29 36 0 72q-17 22 -64 23t-61 10z" />
<glyph unicode="&#x5ea;" horiz-adv-x="1032" d="M65 0q-27 0 -32.5 11t1.5 32l46 177q3 14 10 18t26 4h67q20 0 33 4.5t16.5 14.5t3.5 16t-4.5 23t-4.5 21q-26 135 2 259q26 119 124 202h-30q-73 0 -108.5 35.5t-35.5 112.5q0 60 23 116.5t57 56.5q12 0 14.5 -5.5t1 -18t0.5 -21.5q2 -14 12 -24t20 -10h452 q53 0 91.5 -20.5t59 -55.5t30 -71.5t9.5 -77.5q0 -104 -1 -328t-1 -305q0 -80 -10 -111q-9 -27 -36 -46t-49 -19q-10 0 -17 8.5t-7 18.5v625q0 77 -33.5 108.5t-122.5 31.5h-122q-51 0 -80.5 -16.5t-63.5 -60.5q-58 -75 -61 -188q-2 -67 17.5 -165t19.5 -171q0 -85 -39 -150 q-19 -31 -53 -31h-225z" />
<glyph unicode="&#x5f0;" horiz-adv-x="1160" d="M793 1024h91q113 0 151 -57t38 -168q0 -72 2 -219t1 -252.5t-4 -206.5q-2 -61 -33 -96t-61 -35q-9 0 -15 6t-6 14v330.5v279.5q0 39 -1 57.5t-8.5 42.5t-22 35t-42 19t-67.5 8h-9q-73 0 -108 36.5t-35 113.5q0 61 23.5 116t56.5 55q14 0 16.5 -5.5t0.5 -20t-2 -21.5 q3 -14 13.5 -23t20.5 -9zM213 1024h91q113 0 151 -57t38 -168q0 -72 2 -219t1 -252.5t-4 -206.5q-2 -61 -33 -96t-61 -35q-9 0 -15 6t-6 14v330.5v279.5q0 39 -1 57.5t-8.5 42.5t-22 35t-42 19t-67.5 8h-9q-73 0 -108 36.5t-35 113.5q0 61 23.5 116t56.5 55q14 0 16.5 -5.5 t0.5 -20t-2 -21.5q3 -14 13.5 -23t20.5 -9z" />
<glyph unicode="&#x5f1;" horiz-adv-x="1140" d="M773 1024h91q113 0 151 -57t38 -168q0 -72 2 -219t1 -252.5t-4 -206.5q-2 -61 -33 -96t-61 -35q-9 0 -15 6t-6 14v330.5v279.5q0 39 -1 57.5t-8.5 42.5t-22 35t-42 19t-67.5 8h-9q-73 0 -108 36.5t-35 113.5q0 61 23.5 116t56.5 55q14 0 16.5 -5.5t0.5 -20t-2 -21.5 q3 -14 13.5 -23t20.5 -9zM212 1024h99q80 0 119 -30.5t55 -119.5q14 -75 -3.5 -159t-61.5 -148q-43 -65 -89 -105t-75 -10q-26 29 15 70q102 97 87 188q-5 34 -30.5 53t-59.5 19h-43q-73 0 -108 36.5t-35 113.5q0 61 24 116t56 55q14 0 16.5 -5.5t0.5 -20t-2 -21.5 q3 -14 14 -23t21 -9z" />
<glyph unicode="&#x5f2;" horiz-adv-x="1119" d="M772 1024h99q80 0 119 -30.5t55 -119.5q14 -75 -3.5 -159t-61.5 -148q-43 -65 -89 -105t-75 -10q-26 29 15 70q102 97 87 188q-5 34 -30.5 53t-59.5 19h-43q-73 0 -108 36.5t-35 113.5q0 61 24 116t56 55q14 0 16.5 -5.5t0.5 -20t-2 -21.5q3 -14 14 -23t21 -9zM212 1024 h99q80 0 119 -30.5t55 -119.5q14 -75 -3.5 -159t-61.5 -148q-43 -65 -89 -105t-75 -10q-26 29 15 70q102 97 87 188q-5 34 -30.5 53t-59.5 19h-43q-73 0 -108 36.5t-35 113.5q0 61 24 116t56 55q14 0 16.5 -5.5t0.5 -20t-2 -21.5q3 -14 14 -23t21 -9z" />
<glyph unicode="&#x5f3;" horiz-adv-x="407" d="M104 645l26 420q0 14 7 36q12 48 48.5 74t89.5 26q56 0 78 -25.5t11 -74.5q-7 -24 -12 -36l-202 -420h-46z" />
<glyph unicode="&#x5f4;" horiz-adv-x="728" d="M104 645l24 420q2 14 7 36q14 48 50.5 74t89.5 26q55 0 77.5 -25.5t9.5 -74.5q-5 -24 -12 -36l-200 -420h-46zM427 645l25 420q0 14 7 36q12 48 49.5 74t91.5 26t77.5 -26t11.5 -72q-3 -10 -15 -38l-201 -420h-46z" />
<glyph unicode="&#x5f5;" horiz-adv-x="580" d="M495 375q0 -142 -3 -254q-2 -61 -29.5 -96t-56.5 -35q-9 0 -14.5 6t-5.5 14q2 55 3 307q2 19 26 44.5t56 36.5q9 3 16.5 -5t7.5 -18zM386 529q0 61 -2 113q0 27 -1 35.5t-3.5 29t-7.5 27.5t-14.5 19.5t-25 16t-37.5 8t-51 4.5h-17q-73 0 -108 36.5t-35 113.5 q0 61 23.5 116t56.5 55q14 0 16.5 -5.5t0.5 -20t-2 -21.5q3 -14 13.5 -23t20.5 -9h91q113 0 151 -57t38 -168q0 -96 2 -197q0 -19 -24 -47t-61 -46q-7 -3 -14.5 3.5t-9.5 16.5z" />
<glyph unicode="&#x5f7;" horiz-adv-x="965" d="M212 782q-32 5 -65 24q-29 17 -41 64q-7 31 -7 58q2 55 14 91q0 2 3 9.5l4 10t3.5 9.5t3.5 9.5t3.5 7.5t5 7.5t5 7t6 7t7 6t6.5 4.5q9 5 20 4.5t15 -7.5q2 -2 0 -15.5t0 -22.5q2 -14 12 -23t22 -9h490q55 0 93 -21.5t58.5 -51t31.5 -77.5t13.5 -83t2.5 -86 q0 -128 -31.5 -209t-104.5 -136q-41 -31 -135 -77.5t-120 -64.5q-73 -48 -76 -107q-3 -53 -19.5 -73.5t-44.5 -20.5q-26 0 -45 18t-19 50q0 26 5 45.5t23.5 53t65 75t119.5 91.5q10 7 48.5 29t65 41.5t58 49.5t48.5 68.5t17 82.5q0 82 -42 121.5t-111 39.5h-289 q-90 -188 -89 -376q0 -85 3.5 -244t3.5 -221t-2 -158q0 -17 1 -67.5t-2.5 -78.5t-18.5 -43q-27 -27 -64 -42.5t-49 1.5q-3 7 -3 10.5t1.5 7.5t4 18.5t5.5 37.5t5.5 70t2.5 110q0 113 -4.5 338t-0.5 285q12 214 87 352z" />
<glyph unicode="&#x2000;" horiz-adv-x="819" />
<glyph unicode="&#x2001;" horiz-adv-x="1638" />
<glyph unicode="&#x2002;" horiz-adv-x="819" />
<glyph unicode="&#x2003;" horiz-adv-x="1638" />
<glyph unicode="&#x2004;" horiz-adv-x="546" />
<glyph unicode="&#x2005;" horiz-adv-x="409" />
<glyph unicode="&#x2006;" horiz-adv-x="273" />
<glyph unicode="&#x2007;" horiz-adv-x="273" />
<glyph unicode="&#x2008;" horiz-adv-x="204" />
<glyph unicode="&#x2009;" horiz-adv-x="327" />
<glyph unicode="&#x200a;" horiz-adv-x="91" />
<glyph unicode="&#x200c;" />
<glyph unicode="&#x200d;" />
<glyph unicode="&#x200e;" />
<glyph unicode="&#x200f;" />
<glyph unicode="&#x2010;" horiz-adv-x="725" d="M645 573l-32 -126q-7 -26 -33 -25h-483q-32 0 -25 34l32 126q5 26 31 26h485q34 -1 25 -35z" />
<glyph unicode="&#x2011;" horiz-adv-x="725" d="M645 573l-32 -126q-7 -26 -33 -25h-483q-32 0 -25 34l32 126q5 26 31 26h485q34 -1 25 -35z" />
<glyph unicode="&#x2012;" horiz-adv-x="725" d="M645 573l-32 -126q-7 -26 -33 -25h-483q-32 0 -25 34l32 126q5 26 31 26h485q34 -1 25 -35z" />
<glyph unicode="&#x2013;" horiz-adv-x="887" d="M850 568l-31 -126q-3 -15 -9 -20.5t-23 -5.5h-726q-24 0 -28 8t3 27l32 126q3 15 8.5 20t22.5 5h727q24 0 28.5 -7.5t-4.5 -26.5z" />
<glyph unicode="&#x2014;" horiz-adv-x="1390" d="M1353 568l-30 -126q-3 -15 -9.5 -20.5t-23.5 -5.5h-1229q-24 0 -28 8t3 27l32 126q3 15 8.5 20t22.5 5h1230q24 0 28.5 -7.5t-4.5 -26.5z" />
<glyph unicode="&#x2015;" horiz-adv-x="1732" d="M1695 568l-31 -126q-3 -15 -9 -20.5t-23 -5.5h-1571q-24 0 -28 8t3 27l32 126q3 15 8.5 20t22.5 5h1572q24 0 28.5 -7.5t-4.5 -26.5z" />
<glyph unicode="&#x2018;" horiz-adv-x="474" d="M345 1278l-24 -421q-2 -14 -7 -36q-14 -48 -49.5 -73.5t-90.5 -25.5t-78 25.5t-9 73.5q7 26 12 36l200 421h46z" />
<glyph unicode="&#x2019;" horiz-adv-x="471" d="M138 713l24 420q2 14 7 36q14 48 50.5 74.5t89.5 26.5q55 0 78 -25.5t9 -75.5q-5 -24 -12 -36l-200 -420h-46z" />
<glyph unicode="&#x201a;" horiz-adv-x="471" d="M138 -283l24 421q2 12 7 36q14 48 50.5 73.5t89.5 25.5q55 0 78 -25.5t9 -73.5q-5 -26 -12 -36l-200 -421h-46z" />
<glyph unicode="&#x201c;" horiz-adv-x="800" d="M671 1278l-24 -421q-2 -12 -7 -36q-14 -48 -50.5 -73.5t-89.5 -25.5q-55 0 -78 25.5t-9 73.5q5 26 12 36l200 421h46zM348 1278l-25 -421q0 -12 -7 -36q-12 -46 -49.5 -72.5t-91.5 -26.5t-78 25.5t-12 71.5q3 12 16 38l201 421h46z" />
<glyph unicode="&#x201d;" horiz-adv-x="797" d="M138 713l24 420q2 14 7 36q14 48 50.5 74.5t89.5 26.5q55 0 78 -25.5t9 -75.5q-5 -24 -12 -36l-200 -420h-46zM461 713l25 420q0 14 7 36q12 48 49.5 74.5t91.5 26.5t78 -26.5t12 -72.5q-3 -10 -16 -38l-201 -420h-46z" />
<glyph unicode="&#x201e;" horiz-adv-x="797" d="M138 -283l24 421q2 12 7 36q14 48 50.5 73.5t89.5 25.5q55 0 78 -25.5t9 -73.5q-5 -26 -12 -36l-200 -421h-46zM461 -283l25 421q0 12 7 36q12 46 49.5 72.5t91.5 26.5t78 -25.5t12 -71.5q-3 -12 -16 -38l-201 -421h-46z" />
<glyph unicode="&#x2026;" horiz-adv-x="1484" d="M1159 164l96 116q19 20 30.5 20t28.5 -20l96 -116q22 -27 0 -55l-96 -116q-17 -22 -29 -22t-30 22l-96 116q-22 28 0 55zM664 164l96 116q19 20 30.5 20t28.5 -20l96 -116q22 -27 0 -55l-96 -116q-17 -22 -29 -22t-30 22l-96 116q-22 28 0 55zM169 164l96 116 q19 20 30.5 20t28.5 -20l96 -116q22 -27 0 -55l-96 -116q-17 -22 -29 -22t-30 22l-96 116q-22 28 0 55z" />
<glyph unicode="&#x202f;" horiz-adv-x="327" />
<glyph unicode="&#x205f;" horiz-adv-x="409" />
<glyph unicode="&#x20aa;" horiz-adv-x="1575" d="M1307 903q0 61 32.5 96t63.5 35q19 0 19 -20v-563v-72t-4.5 -79.5t-13 -88t-24.5 -78.5t-39 -69.5t-61 -44.5t-84 -19h-595q-55 0 -55 68l-2 495q2 61 33.5 96.5t62.5 35.5q7 0 13 -5.5t6 -13.5v-389q0 -19 12.5 -32t29.5 -13h482q125 0 124 156v505zM1051 464 q0 -61 -32.5 -97t-61.5 -36q-9 0 -14.5 6t-5.5 15v385q0 19 -12 32t-31 13h-454q-56 0 -86.5 -9.5t-51.5 -43.5q-20 -32 -24.5 -108.5t2.5 -151.5t13.5 -161t5.5 -125q-2 -32 -11.5 -60.5t-17 -44t-24.5 -40.5q-19 -29 -48 -39.5t-39 8.5q-2 7 -3 10t1 7.5t4.5 19t6 36.5 t5 70t1.5 111q0 12 -1.5 76t-2.5 118t4 146q5 90 36 141q10 19 2.5 29.5t-31.5 10.5q-15 0 -21 12t-6 42v120q-2 68 54 68h789q55 0 54 -68v-492z" />
<glyph unicode="&#x20ac;" horiz-adv-x="972" d="M642 1215q126 0 209 -58t83 -147q0 -55 -35 -89t-93 -34q-56 0 -89 28.5t-33 72.5q0 32 21 72q9 15 8 24q0 39 -85 39q-126 0 -207 -92t-102 -277h492l-34 -109h-465v-104h432l-34 -109h-393q9 -157 99.5 -246.5t214.5 -89.5q68 0 127 30.5t99 85.5l61 -65 q-104 -172 -341 -173q-186 0 -314 124t-164 334h-85l37 109h38q-2 17 -2 39q0 41 2 65h-77l37 109h53q22 99 65 183q147 278 475 278z" />
<glyph unicode="&#x2502;" horiz-adv-x="972" d="M555 1638v-2150h-137v2150h137z" />
<glyph unicode="&#x25cc;" horiz-adv-x="1049" d="M130.5 398q19.5 0 34 -14t14.5 -34.5t-14.5 -34t-34 -13.5t-33 13.5t-13.5 34t13.5 34.5t33 14zM361 167q20 0 33.5 -13.5t13.5 -33t-13.5 -33.5t-33.5 -14t-34.5 14t-14.5 33.5t14.5 33t34.5 13.5zM685.5 167q19.5 0 33 -13.5t13.5 -33t-13.5 -33.5t-33 -14t-33.5 14 t-14 33.5t14 33t33.5 13.5zM914.5 398q20.5 0 34.5 -14t14 -34.5t-14 -34t-34.5 -13.5t-34 13.5t-13.5 34t13.5 34.5t34 14zM914.5 722q20.5 0 34.5 -13.5t14 -34t-14 -34.5t-34.5 -14t-34 14t-13.5 34.5t13.5 34t34 13.5zM685.5 951q19.5 0 33 -14t13.5 -33.5t-13.5 -33 t-33 -13.5t-33.5 13.5t-14 33t14 33.5t33.5 14zM361 951q20 0 33.5 -14t13.5 -33.5t-13.5 -33t-33.5 -13.5t-34.5 13.5t-14.5 33t14.5 33.5t34.5 14zM130.5 722q19.5 0 34 -13.5t14.5 -34t-14.5 -34.5t-34 -14t-33 14t-13.5 34.5t13.5 34t33 13.5zM99 560q20 0 34 -14 t14 -34t-14 -34t-34 -14t-34 14t-14 34t14 34t34 14zM222.5 860q19.5 0 34 -14.5t14.5 -34t-14.5 -33t-34 -13.5t-33 13.5t-13.5 33t13.5 34t33 14.5zM222.5 259q19.5 0 34 -13.5t14.5 -33t-14.5 -34t-34 -14.5t-33 14.5t-13.5 34t13.5 33t33 13.5zM823.5 259 q19.5 0 33 -13.5t13.5 -33t-13.5 -34t-33 -14.5t-34 14.5t-14.5 34t14.5 33t34 13.5zM823.5 860q19.5 0 33 -14.5t13.5 -34t-13.5 -33t-33 -13.5t-34 13.5t-14.5 33t14.5 34t34 14.5zM523 983q20 0 33.5 -13.5t13.5 -33.5t-13.5 -33.5t-33.5 -13.5t-34.5 13.5t-14.5 33.5 t14.5 33.5t34.5 13.5zM523 135q20 0 33.5 -13.5t13.5 -33.5t-13.5 -33.5t-33.5 -13.5t-34.5 13.5t-14.5 33.5t14.5 33.5t34.5 13.5zM946.5 560q19.5 0 34 -14t14.5 -34t-14.5 -34t-34 -14t-33.5 14t-14 34t14 34t33.5 14z" />
<glyph unicode="&#xe000;" horiz-adv-x="793" d="M0 794h794v-794h-794v794z" />
<glyph unicode="&#xe801;" horiz-adv-x="580" d="M3 1263q29 0 48.5 -19.5t19.5 -48.5t-19.5 -49t-48.5 -20t-48.5 20t-19.5 49t19.5 48.5t48.5 19.5zM213 1024h91q113 0 151 -57t38 -168q0 -72 2 -219t1 -252.5t-4 -206.5q-2 -61 -33 -96t-61 -35q-9 0 -15 6t-6 14v330.5v279.5q0 39 -1 57.5t-8.5 42.5t-22 35t-42 19 t-67.5 8h-9q-73 0 -108 36.5t-35 113.5q0 61 23.5 116t56.5 55q14 0 16.5 -5.5t0.5 -20t-2 -21.5q3 -14 13.5 -23t20.5 -9z" />
<glyph unicode="&#xe802;" horiz-adv-x="849" d="M413 391q29 0 48.5 -19.5t19.5 -48.5t-19.5 -49t-48.5 -20t-48.5 20t-19.5 49t19.5 48.5t48.5 19.5zM413 596q29 0 48.5 -20t19.5 -49t-19.5 -48.5t-48.5 -19.5t-48.5 19.5t-19.5 48.5t19.5 49t48.5 20zM196 1024h480q58 0 87 -32.5t29 -88.5t-25.5 -88.5t-75.5 -32.5 v-57.5v-78.5v-74q3 -172 23 -480.5t16 -361.5q-3 -96 -52 -143q-26 -27 -63.5 -39t-49.5 8q-2 5 -3 8.5t1 8t4.5 19t6 37.5t5 70t1.5 110q2 125 9 470.5t15 502.5h-394q-73 0 -108 35.5t-35 112.5q0 61 23 117t57 56q12 0 15.5 -5.5t1.5 -18t-2 -21.5q3 -14 13.5 -24 t20.5 -10z" />
<glyph unicode="&#xe803;" horiz-adv-x="849" d="M172 507h342v-103h-120v-179h-102v179h-120v103zM196 1024h480q58 0 87 -32.5t29 -88.5t-25.5 -88.5t-75.5 -32.5v-57.5v-78.5v-74q3 -172 23 -480.5t16 -361.5q-3 -96 -52 -143q-26 -27 -63.5 -39t-49.5 8q-2 5 -3 8.5t1 8t4.5 19t6 37.5t5 70t1.5 110q2 125 9 470.5 t15 502.5h-394q-73 0 -108 35.5t-35 112.5q0 61 23 117t57 56q12 0 15.5 -5.5t1.5 -18t-2 -21.5q3 -14 13.5 -24t20.5 -10z" />
<glyph unicode="&#xe804;" horiz-adv-x="559" d="M285 325q29 0 48.5 -20t19.5 -49t-19.5 -48.5t-48.5 -19.5t-48.5 19.5t-19.5 48.5t19.5 49t48.5 20zM212 1024h99q80 0 119 -30.5t55 -119.5q14 -75 -3.5 -159t-61.5 -148q-43 -65 -89 -105t-75 -10q-26 29 15 70q102 97 87 188q-5 34 -30.5 53t-59.5 19h-43 q-73 0 -108 36.5t-35 113.5q0 61 24 116t56 55q14 0 16.5 -5.5t0.5 -20t-2 -21.5q3 -14 14 -23t21 -9z" />
<glyph unicode="&#xfb1d;" horiz-adv-x="559" d="M285 -102q29 0 48.5 -20t19.5 -49t-19.5 -48.5t-48.5 -19.5t-48.5 19.5t-19.5 48.5t19.5 49t48.5 20zM212 1024h99q80 0 119 -30.5t55 -119.5q14 -75 -3.5 -159t-61.5 -148q-43 -65 -89 -105t-75 -10q-26 29 15 70q102 97 87 188q-5 34 -30.5 53t-59.5 19h-43 q-73 0 -108 36.5t-35 113.5q0 61 24 116t56 55q14 0 16.5 -5.5t0.5 -20t-2 -21.5q3 -14 14 -23t21 -9z" />
<glyph unicode="&#xfb1e;" d="M-218 1266l49 45q65 -92 169 -92q58 0 103 27t69 65l46 -45q-67 -150 -218 -150q-82 0 -136.5 42.5t-81.5 107.5z" />
<glyph unicode="&#xfb1f;" horiz-adv-x="1119" d="M396 287h342v-103h-342v103zM772 1024h99q80 0 119 -30.5t55 -119.5q14 -75 -3.5 -159t-61.5 -148q-43 -65 -89 -105t-75 -10q-26 29 15 70q102 97 87 188q-5 34 -30.5 53t-59.5 19h-43q-73 0 -108 36.5t-35 113.5q0 61 24 116t56 55q14 0 16.5 -5.5t0.5 -20t-2 -21.5 q3 -14 14 -23t21 -9zM212 1024h99q80 0 119 -30.5t55 -119.5q14 -75 -3.5 -159t-61.5 -148q-43 -65 -89 -105t-75 -10q-26 29 15 70q102 97 87 188q-5 34 -30.5 53t-59.5 19h-43q-73 0 -108 36.5t-35 113.5q0 61 24 116t56 55q14 0 16.5 -5.5t0.5 -20t-2 -21.5q3 -14 14 -23 t21 -9z" />
<glyph unicode="&#xfb20;" horiz-adv-x="1005" d="M220 242h130q68 0 75 28q7 22 -11 47.5t-49.5 53.5t-38.5 37q-53 70 -67 165q-5 32 -2.5 77.5t4.5 67t-8 43.5q-12 14 -52.5 22.5t-55.5 16.5q-56 32 -56 130q0 60 23 116.5t57 56.5q12 0 14.5 -5.5t1 -18t-0.5 -21.5q3 -26 33 -32q24 -5 72.5 -9.5t78.5 -15.5t54 -40 q20 -26 23.5 -97.5t-22.5 -110.5q-5 -7 -35.5 5t-44.5 1q-14 -10 -17 -34t12 -70q15 -38 64 -87t64 -76q70 -119 24 -250q82 0 121 33q22 19 32.5 52t17 84.5t13.5 76.5q14 53 50.5 135t36.5 111q-2 17 -14.5 28t-31.5 13q-82 5 -118.5 41.5t-36.5 113.5q0 60 23 116.5 t57 56.5q12 0 14.5 -5.5t1 -18t-0.5 -21.5q2 -19 18 -28t31.5 -11t43.5 -4h8q169 -7 179 -131q3 -34 -5 -64t-18.5 -45.5t-32.5 -42.5t-31 -41q-24 -34 -36.5 -81t-15 -82t-6 -105t-5.5 -102q-12 -159 -75 -234q-26 -31 -55.5 -50.5t-64 -26.5t-53 -8.5t-52.5 -1.5h-316 q-27 0 -32.5 11t1.5 32l46 177q3 14 10 18t26 4z" />
<glyph unicode="&#xfb21;" horiz-adv-x="2008" d="M1603 350q-26 232 110 420q-38 10 -57 17.5t-41.5 24.5t-31.5 46t-9 74q0 61 23.5 116t57.5 55q12 0 15 -5.5t1 -20t0 -21.5q3 -26 42 -32l59 -10q85 -14 121 -42t36 -98q0 -58 -9.5 -92t-25 -41t-35.5 1q-36 17 -77 -29t-65 -124q-10 -49 -12.5 -110t18.5 -126t62 -94 q114 -82 115 -186q0 -46 -17.5 -69t-41.5 -23q-15 0 -37 31t-60 49l-1348 673l2 -2q-119 -101 -111 -276q3 -58 25.5 -108.5t48 -82t46 -77.5t20.5 -96q0 -92 -57 -92h-274q-31 0 -34.5 36t13.5 56q9 14 37 17.5t31 9.5q12 22 -0.5 72t-26.5 109.5t2 158.5q38 207 184 321 l-80 39q-68 34 -99 96.5t-23 113t37 63.5q14 10 26.5 4.5t18.5 -14.5t22 -25t37 -26z" />
<glyph unicode="&#xfb22;" horiz-adv-x="1947" d="M61 932q0 61 24 116t57 55q14 0 16 -5.5t0.5 -20t0.5 -21.5q2 -14 12 -23t20 -9h1639q53 0 54 -68v-144q0 -20 -10 -25t-24.5 -2.5t-35 -10.5t-34.5 -44q-29 -58 -34 -139.5t3.5 -148.5t18.5 -143.5t9 -115.5q-5 -97 -53 -145q-27 -27 -65 -38.5t-48 7.5q-3 7 -4 10 t0.5 7.5t5 19t6 36.5t4.5 70t3 109q0 5 -2.5 65t-2.5 108.5t8 116t25 113.5q12 36 27 59t24.5 32.5t9.5 14.5q0 15 -31 14h-5h-1472q-75 0 -110.5 36.5t-35.5 113.5z" />
<glyph unicode="&#xfb23;" horiz-adv-x="1962" d="M200 1024h1638q53 0 55 -68v-144q0 -24 -4.5 -32.5t-10.5 -7.5t-17 -8.5t-21 -33.5q-17 -31 -15.5 -111t12 -152.5t20.5 -157.5t8 -126q-5 -97 -53 -145q-27 -27 -64.5 -38.5t-47.5 7.5q-3 7 -4 10t0.5 7.5t5 19t6 36.5t4 70t3.5 109q0 12 -4 71t-5 122t7 200 q2 31 12.5 53t21.5 32.5t19.5 18t8.5 12.5q-2 7 -6 10.5t-7.5 4t-12 0t-10.5 -0.5h-1524q-75 0 -110 36.5t-35 113.5q0 61 24 116t56 55q14 0 16.5 -5.5t1 -20t-0.5 -21.5q2 -14 12.5 -23t20.5 -9zM239 556q19 0 15 -17q-15 -49 -9 -246t-23 -228q-20 -32 -64 -51t-64 -17 q-19 2 -14 20q14 51 12 208v28v102.5t7 88.5t22 59q39 53 118 53z" />
<glyph unicode="&#xfb24;" horiz-adv-x="1884" d="M90 0q-26 0 -31.5 11t1.5 32l46 177q3 14 10 18t26 4h1404q196 0 197 270q0 121 -73 195.5t-183 74.5h-1265q-73 0 -107.5 35t-35.5 113q-2 60 22 116.5t58 56.5q12 0 14.5 -5.5t0.5 -18t0 -21.5q2 -14 13 -24t21 -10h1340q294 0 293 -512q0 -97 -14.5 -183.5 t-46.5 -162.5t-92 -121t-140 -45h-1458z" />
<glyph unicode="&#xfb25;" horiz-adv-x="1913" d="M1647 782h-1538q-20 0 -27 8.5t-9 32.5q-10 109 0 235q3 38 15.5 89t21 84.5t13.5 70t-5 45.5q-10 19 -38.5 28t-44.5 25.5t-15 55.5q10 114 38 114q14 0 26 -18t30 -25q12 -3 43.5 -8t50.5 -16t31 -37q17 -22 8.5 -60.5t-23 -67.5t-32.5 -75t-23 -82q-2 -41 -2 -76 t31 -58t94 -23h1442q41 0 54.5 -7.5t34.5 -36.5q20 -32 28 -142.5t-1 -158.5q-3 -38 -7.5 -65t-16.5 -69.5t-37.5 -77.5t-63.5 -61q-31 -20 -112.5 -49t-157.5 -52t-140 -59t-73 -72q-2 -9 4.5 -41t10 -60.5t-14 -53t-59.5 -26.5q-34 -2 -59 26.5t-28 67.5q-3 65 21.5 112.5 t80.5 100.5q34 31 99 60t130.5 53t129 53t107 73.5t49.5 98.5q9 58 -6.5 101t-59.5 43z" />
<glyph unicode="&#xfb26;" horiz-adv-x="1950" d="M212 1024h1399q51 0 71 -1t53 -7.5t59 -22.5q61 -38 73 -119.5t12 -364.5q0 -258 -19 -446q-3 -39 -16.5 -51t-42.5 -12h-1675q-17 0 -24.5 2.5t-13.5 15.5t-8 42q-5 56 -6 106.5t0 125.5t1 94q0 113 9.5 182t36.5 123q29 56 70 91q-109 14 -109 148q0 61 23 117t57 56 q12 0 14.5 -5.5t1 -18t-0.5 -21.5q2 -14 12.5 -24t22.5 -10zM365 782q-72 0 -115 -60t-49 -152q-9 -140 -3 -234q2 -46 12 -66.5t21 -24t37 -3.5h8h1434q22 0 30.5 7t12.5 29q14 85 13 243q0 53 -3 89.5t-13.5 81t-36 67.5t-64.5 23h-1284z" />
<glyph unicode="&#xfb27;" horiz-adv-x="1916" d="M207 782q-75 0 -109.5 35.5t-34.5 112.5q0 60 23 116.5t57 56.5q12 0 14.5 -5.5t1 -18t0.5 -21.5q2 -14 12 -24t20 -10h1461q55 0 93 -20.5t58.5 -55.5t29 -71.5t8.5 -77.5v-328v-305q0 -80 -10 -111q-10 -27 -33 -46t-44 -19q-10 0 -16.5 8.5t-6.5 18.5v625 q0 77 -33.5 108.5t-123.5 31.5h-1367z" />
<glyph unicode="&#xfb28;" horiz-adv-x="2027" d="M44 0q-27 0 -32 11t2 32l46 177q3 14 10 18t26 4h66q20 0 33 4.5t16.5 14.5t3.5 16t-4 23t-4 21q-26 135 1 259q26 119 125 202h-31q-73 0 -108 35.5t-35 112.5q0 60 23 116.5t57 56.5q12 0 14.5 -5.5t1 -18t-0.5 -21.5q2 -14 12 -24t21 -10h1476q53 0 91.5 -20.5 t59 -55.5t29.5 -71.5t9 -77.5q0 -104 -0.5 -328t-0.5 -305q0 -80 -11 -111q-9 -27 -31.5 -46t-44.5 -19q-10 0 -17 8.5t-7 18.5v625q0 77 -33.5 108.5t-122.5 31.5h-1155q-51 0 -80 -16.5t-63 -60.5q-58 -75 -62 -188q-2 -67 18 -165t20 -171q0 -85 -39 -150 q-19 -31 -53 -31h-226z" />
<glyph unicode="&#xfb29;" horiz-adv-x="1034" d="M947 364h-860v136h362v362h136v-362h362v-136z" />
<glyph unicode="&#xfb2a;" horiz-adv-x="1218" d="M1043 1205q29 0 48.5 -19.5t19.5 -48.5t-19.5 -49t-48.5 -20t-49 20t-20 49t20 48.5t49 19.5zM894 794q-56 32 -56 136q0 60 23 116.5t57 56.5q12 0 15.5 -5.5t2 -18t-1.5 -21.5q5 -29 34 -34l100 -17q44 -7 67.5 -40t25 -78.5t-4.5 -84.5t-16 -72q-19 -58 -76 -147.5 t-72 -116.5q-31 -60 -107 -210t-115 -224q-14 -22 -24 -28t-36 -6h-410q-19 0 -28 6t-14 28q-17 73 -37 162t-26.5 120.5t-15 74t-12 66.5t-7.5 55q-14 119 52 236q19 38 -16 44q-3 0 -15 1t-22.5 3.5t-20.5 9.5q-48 34 -48 124q0 60 24 116.5t57 56.5q12 0 15 -5.5t1.5 -18 t-1.5 -21.5q7 -34 34 -36l91 -8q43 -5 66.5 -28t38.5 -68q9 -26 10 -77t-8 -82q-5 -17 -20.5 -14t-32.5 10.5t-39 -7.5q-22 -17 -37.5 -91.5t-3.5 -158.5q36 -275 131 -256q24 155 45 222q15 55 59.5 132.5t52.5 106.5q17 55 12 67q-7 15 -33 19.5t-40 10.5q-53 31 -53 130 q0 60 23 116.5t57 56.5q12 0 15.5 -5.5t2 -18t-1.5 -21.5q2 -14 13 -24t21 -10l90 -9q87 -9 108 -87q26 -97 -7 -170q-7 -15 -19 -12.5t-27 10t-39 -4.5q-15 -7 -26 -39q-9 -24 -25 -96.5t-31 -113.5q-12 -34 -37.5 -81t-42 -88t-21.5 -91h142q44 0 63.5 15.5t41.5 54.5 q118 195 260 377q29 36 0 72q-17 22 -64 23t-61 10z" />
<glyph unicode="&#xfb2b;" horiz-adv-x="1218" d="M295 1205q29 0 49 -19.5t20 -48.5t-20 -49t-49 -20t-48.5 20t-19.5 49t19.5 48.5t48.5 19.5zM894 794q-56 32 -56 136q0 60 23 116.5t57 56.5q12 0 15.5 -5.5t2 -18t-1.5 -21.5q5 -29 34 -34l100 -17q44 -7 67.5 -40t25 -78.5t-4.5 -84.5t-16 -72q-19 -58 -76 -147.5 t-72 -116.5q-31 -60 -107 -210t-115 -224q-14 -22 -24 -28t-36 -6h-410q-19 0 -28 6t-14 28q-17 73 -37 162t-26.5 120.5t-15 74t-12 66.5t-7.5 55q-14 119 52 236q19 38 -16 44q-3 0 -15 1t-22.5 3.5t-20.5 9.5q-48 34 -48 124q0 60 24 116.5t57 56.5q12 0 15 -5.5t1.5 -18 t-1.5 -21.5q7 -34 34 -36l91 -8q43 -5 66.5 -28t38.5 -68q9 -26 10 -77t-8 -82q-5 -17 -20.5 -14t-32.5 10.5t-39 -7.5q-22 -17 -37.5 -91.5t-3.5 -158.5q36 -275 131 -256q24 155 45 222q15 55 59.5 132.5t52.5 106.5q17 55 12 67q-7 15 -33 19.5t-40 10.5q-53 31 -53 130 q0 60 23 116.5t57 56.5q12 0 15.5 -5.5t2 -18t-1.5 -21.5q2 -14 13 -24t21 -10l90 -9q87 -9 108 -87q26 -97 -7 -170q-7 -15 -19 -12.5t-27 10t-39 -4.5q-15 -7 -26 -39q-9 -24 -25 -96.5t-31 -113.5q-12 -34 -37.5 -81t-42 -88t-21.5 -91h142q44 0 63.5 15.5t41.5 54.5 q118 195 260 377q29 36 0 72q-17 22 -64 23t-61 10z" />
<glyph unicode="&#xfb2c;" horiz-adv-x="1218" d="M1043 1205q29 0 48.5 -19.5t19.5 -48.5t-19.5 -49t-48.5 -20t-49 20t-20 49t20 48.5t49 19.5zM744 579q29 0 48.5 -20t19.5 -48t-19.5 -48.5t-48.5 -20.5t-48.5 20.5t-19.5 48.5t19.5 48t48.5 20zM894 794q-56 32 -56 136q0 60 23 116.5t57 56.5q12 0 15.5 -5.5t2 -18 t-1.5 -21.5q5 -29 34 -34l100 -17q44 -7 67.5 -40t25 -78.5t-4.5 -84.5t-16 -72q-19 -58 -76 -147.5t-72 -116.5q-31 -60 -107 -210t-115 -224q-14 -22 -24 -28t-36 -6h-410q-19 0 -28 6t-14 28q-17 73 -37 162t-26.5 120.5t-15 74t-12 66.5t-7.5 55q-14 119 52 236 q19 38 -16 44q-3 0 -15 1t-22.5 3.5t-20.5 9.5q-48 34 -48 124q0 60 24 116.5t57 56.5q12 0 15 -5.5t1.5 -18t-1.5 -21.5q7 -34 34 -36l91 -8q43 -5 66.5 -28t38.5 -68q9 -26 10 -77t-8 -82q-5 -17 -20.5 -14t-32.5 10.5t-39 -7.5q-22 -17 -37.5 -91.5t-3.5 -158.5 q36 -275 131 -256q24 155 45 222q15 55 59.5 132.5t52.5 106.5q17 55 12 67q-7 15 -33 19.5t-40 10.5q-53 31 -53 130q0 60 23 116.5t57 56.5q12 0 15.5 -5.5t2 -18t-1.5 -21.5q2 -14 13 -24t21 -10l90 -9q87 -9 108 -87q26 -97 -7 -170q-7 -15 -19 -12.5t-27 10t-39 -4.5 q-15 -7 -26 -39q-9 -24 -25 -96.5t-31 -113.5q-12 -34 -37.5 -81t-42 -88t-21.5 -91h142q44 0 63.5 15.5t41.5 54.5q118 195 260 377q29 36 0 72q-17 22 -64 23t-61 10z" />
<glyph unicode="&#xfb2d;" horiz-adv-x="1218" d="M295 1205q29 0 49 -19.5t20 -48.5t-20 -49t-49 -20t-48.5 20t-19.5 49t19.5 48.5t48.5 19.5zM744 579q29 0 48.5 -20t19.5 -48t-19.5 -48.5t-48.5 -20.5t-48.5 20.5t-19.5 48.5t19.5 48t48.5 20zM894 794q-56 32 -56 136q0 60 23 116.5t57 56.5q12 0 15.5 -5.5t2 -18 t-1.5 -21.5q5 -29 34 -34l100 -17q44 -7 67.5 -40t25 -78.5t-4.5 -84.5t-16 -72q-19 -58 -76 -147.5t-72 -116.5q-31 -60 -107 -210t-115 -224q-14 -22 -24 -28t-36 -6h-410q-19 0 -28 6t-14 28q-17 73 -37 162t-26.5 120.5t-15 74t-12 66.5t-7.5 55q-14 119 52 236 q19 38 -16 44q-3 0 -15 1t-22.5 3.5t-20.5 9.5q-48 34 -48 124q0 60 24 116.5t57 56.5q12 0 15 -5.5t1.5 -18t-1.5 -21.5q7 -34 34 -36l91 -8q43 -5 66.5 -28t38.5 -68q9 -26 10 -77t-8 -82q-5 -17 -20.5 -14t-32.5 10.5t-39 -7.5q-22 -17 -37.5 -91.5t-3.5 -158.5 q36 -275 131 -256q24 155 45 222q15 55 59.5 132.5t52.5 106.5q17 55 12 67q-7 15 -33 19.5t-40 10.5q-53 31 -53 130q0 60 23 116.5t57 56.5q12 0 15.5 -5.5t2 -18t-1.5 -21.5q2 -14 13 -24t21 -10l90 -9q87 -9 108 -87q26 -97 -7 -170q-7 -15 -19 -12.5t-27 10t-39 -4.5 q-15 -7 -26 -39q-9 -24 -25 -96.5t-31 -113.5q-12 -34 -37.5 -81t-42 -88t-21.5 -91h142q44 0 63.5 15.5t41.5 54.5q118 195 260 377q29 36 0 72q-17 22 -64 23t-61 10z" />
<glyph unicode="&#xfb2e;" horiz-adv-x="1058" d="M370 -119h342v-103h-342v103zM959 874q0 -58 -8.5 -91.5t-24 -41t-35.5 0.5q-60 26 -116 -100q-26 -58 -28.5 -119.5t28.5 -107.5l136 -164q31 -36 41.5 -84t1.5 -85q-7 -41 -41 -74.5t-66 -24.5q-14 3 -17.5 11.5t-2.5 19t-2.5 26t-15.5 30.5l-415 500q-75 -51 -78 -114 q-2 -41 19.5 -88t48 -84t49.5 -89.5t23 -102.5q0 -92 -57 -92h-274q-31 0 -34.5 36t13.5 56q9 14 37 17.5t31 9.5q9 19 4.5 47.5t-15.5 60t-16 76.5t2 100q12 75 56 134.5t120 119.5l-132 155q-31 38 -43.5 80t-9 77t16 64t32.5 46t38 17q22 0 28 -11.5t13 -38.5t26 -49 l360 -434q17 119 94 207q-38 10 -57.5 17.5t-41.5 24.5t-31.5 46t-9.5 74q0 61 24 116t58 55q12 0 14.5 -5.5t0.5 -20t0 -21.5q3 -26 43 -32l56 -10q87 -14 122 -42t35 -98z" />
<glyph unicode="&#xfb2f;" horiz-adv-x="1058" d="M370 -119h342v-103h-120v-179h-102v179h-120v103zM959 874q0 -58 -8.5 -91.5t-24 -41t-35.5 0.5q-60 26 -116 -100q-26 -58 -28.5 -119.5t28.5 -107.5l136 -164q31 -36 41.5 -84t1.5 -85q-7 -41 -41 -74.5t-66 -24.5q-14 3 -17.5 11.5t-2.5 19t-2.5 26t-15.5 30.5 l-415 500q-75 -51 -78 -114q-2 -41 19.5 -88t48 -84t49.5 -89.5t23 -102.5q0 -92 -57 -92h-274q-31 0 -34.5 36t13.5 56q9 14 37 17.5t31 9.5q9 19 4.5 47.5t-15.5 60t-16 76.5t2 100q12 75 56 134.5t120 119.5l-132 155q-31 38 -43.5 80t-9 77t16 64t32.5 46t38 17 q22 0 28 -11.5t13 -38.5t26 -49l360 -434q17 119 94 207q-38 10 -57.5 17.5t-41.5 24.5t-31.5 46t-9.5 74q0 61 24 116t58 55q12 0 14.5 -5.5t0.5 -20t0 -21.5q3 -26 43 -32l56 -10q87 -14 122 -42t35 -98z" />
<glyph unicode="&#xfb30;" horiz-adv-x="1058" d="M521 325q29 0 48.5 -20t19.5 -48t-19.5 -48.5t-48.5 -20.5t-48.5 20.5t-19.5 48.5t19.5 48t48.5 20zM959 874q0 -58 -8.5 -91.5t-24 -41t-35.5 0.5q-60 26 -116 -100q-26 -58 -28.5 -119.5t28.5 -107.5l136 -164q31 -36 41.5 -84t1.5 -85q-7 -41 -41 -74.5t-66 -24.5 q-14 3 -17.5 11.5t-2.5 19t-2.5 26t-15.5 30.5l-415 500q-75 -51 -78 -114q-2 -41 19.5 -88t48 -84t49.5 -89.5t23 -102.5q0 -92 -57 -92h-274q-31 0 -34.5 36t13.5 56q9 14 37 17.5t31 9.5q9 19 4.5 47.5t-15.5 60t-16 76.5t2 100q12 75 56 134.5t120 119.5l-132 155 q-31 38 -43.5 80t-9 77t16 64t32.5 46t38 17q22 0 28 -11.5t13 -38.5t26 -49l360 -434q17 119 94 207q-38 10 -57.5 17.5t-41.5 24.5t-31.5 46t-9.5 74q0 61 24 116t58 55q12 0 14.5 -5.5t0.5 -20t0 -21.5q3 -26 43 -32l56 -10q87 -14 122 -42t35 -98z" />
<glyph unicode="&#xfb31;" horiz-adv-x="868" d="M415 579q29 0 48.5 -20t19.5 -48t-19.5 -48.5t-48.5 -20.5t-48.5 20.5t-19.5 48.5t19.5 48t48.5 20zM212 1024h375q29 0 66.5 -16t59.5 -52q55 -99 55 -311q0 -198 -87 -384q-2 -5 0 -12t8 -7h123q26 0 32 -10t-1 -31l-46 -167q-5 -20 -13.5 -27t-34.5 -7h-655 q-26 0 -32 11t1 32l46 177q3 14 10 18t26 4h381q55 0 68 14q24 24 39.5 95.5t15.5 157.5q0 140 -38 204q-43 68 -145 69h-241q-73 0 -108 35.5t-35 112.5q0 60 23 116.5t57 56.5q12 0 14.5 -5.5t1 -18t-0.5 -21.5q2 -14 12.5 -24t22.5 -10z" />
<glyph unicode="&#xfb32;" horiz-adv-x="721" d="M317 579q29 0 48.5 -20t19.5 -48t-19.5 -48.5t-48.5 -20.5t-48.5 20.5t-19.5 48.5t19.5 48t48.5 20zM106 0q-27 0 -32.5 11t1.5 32l46 177q3 14 10 18t26 4h89q32 0 60.5 6t47 20.5t34 27.5t25.5 36t16 37.5t9.5 42t5 36.5t2.5 34t1 27q17 273 -80 273h-55 q-73 0 -108 35.5t-35 114.5q0 61 24 116t56 55q12 0 15.5 -5.5t1 -20t-0.5 -21.5q2 -14 12 -23t22 -9h131q17 0 36.5 -5t50.5 -20.5t46.5 -55.5t6.5 -98q-29 -195 -29 -266q0 -87 62.5 -229t62.5 -253q0 -20 -1 -34.5t-4.5 -32.5t-12 -27.5t-20.5 -9.5q-24 0 -44.5 46 t-47.5 115.5t-58 104.5q-26 31 -63 -61q-5 -14 -26 -72l-32 -92q-7 -19 -15.5 -26.5t-30.5 -7.5h-205z" />
<glyph unicode="&#xfb33;" horiz-adv-x="901" d="M425 579q29 0 48.5 -20t19.5 -48t-19.5 -48.5t-48.5 -20.5t-48.5 20.5t-19.5 48.5t19.5 48t48.5 20zM56 932q0 61 24 116t57 55q14 0 16 -5.5t0.5 -20t0.5 -21.5q2 -14 12 -23t20 -9h614q53 0 55 -68v-144q0 -20 -10 -25t-24.5 -2.5t-35 -10.5t-34.5 -44 q-29 -58 -34 -139.5t3.5 -148.5t18.5 -143.5t9 -115.5q-5 -97 -53 -145q-27 -27 -65 -38.5t-48 7.5q-3 7 -4 10t0.5 7.5t5 19t6 36.5t4.5 70t3 109q0 5 -2.5 65t-2.5 108.5t8 116t25 113.5q12 36 27 59t24.5 32.5t9.5 14.5q0 15 -31 14h-5h-449q-75 0 -110 36.5t-35 113.5z " />
<glyph unicode="&#xfb34;" horiz-adv-x="984" d="M500 579q29 0 48.5 -20t19.5 -48t-19.5 -48.5t-48.5 -20.5t-48.5 20.5t-19.5 48.5t19.5 48t48.5 20zM229 1024h614q53 0 55 -68v-144q0 -24 -4.5 -32.5t-10.5 -7.5t-17 -8.5t-21 -33.5q-17 -31 -15.5 -111t12 -152.5t20.5 -157.5t8 -126q-5 -97 -53 -145 q-27 -27 -64.5 -38.5t-47.5 7.5q-3 7 -4 10t0.5 7.5t5 19t6 36.5t4.5 70t3 109q0 12 -4 71t-5 122t8 200q2 31 12 53t21 32.5t19.5 18t8.5 12.5q-2 7 -6 10.5t-7.5 4t-12 0t-10.5 -0.5h-500q-75 0 -110 36.5t-35 113.5q0 61 24 116t56 55q14 0 16.5 -5.5t1 -20t-0.5 -21.5 q2 -14 12.5 -23t20.5 -9zM268 556q19 0 15 -17q-15 -49 -9 -246t-23 -228q-20 -32 -64 -51t-64 -17q-19 2 -14 20q14 51 12 208v28v102.5t7 88.5t22 59q39 53 118 53z" />
<glyph unicode="&#xfb35;" horiz-adv-x="580" d="M242 579q29 0 48.5 -20t19.5 -48t-19.5 -48.5t-48.5 -20.5t-48.5 20.5t-19.5 48.5t19.5 48t48.5 20zM213 1024h91q113 0 151 -57t38 -168q0 -72 2 -219t1 -252.5t-4 -206.5q-2 -61 -33 -96t-61 -35q-9 0 -15 6t-6 14v330.5v279.5q0 39 -1 57.5t-8.5 42.5t-22 35t-42 19 t-67.5 8h-9q-73 0 -108 36.5t-35 113.5q0 61 23.5 116t56.5 55q14 0 16.5 -5.5t0.5 -20t-2 -21.5q3 -14 13.5 -23t20.5 -9z" />
<glyph unicode="&#xfb36;" horiz-adv-x="609" d="M102 579q29 0 48.5 -20t19.5 -48t-19.5 -48.5t-48.5 -20.5t-48.5 20.5t-19.5 48.5t19.5 48t48.5 20zM254 1024h121q106 0 149 -68q31 -55 26.5 -120t-26.5 -88q-7 -9 -31 4t-46 23t-46 -10q-20 -24 -22 -102.5t7.5 -164t19 -180t5.5 -135.5q-3 -97 -53 -145 q-26 -27 -59 -38.5t-45 7.5q-2 7 -2.5 12t-0.5 12t1.5 24t3.5 42.5t3.5 75t1.5 110.5q0 10 -1.5 65.5t-2.5 105t3 108.5t15 90q10 26 18.5 44.5t12.5 25.5t7.5 15.5t3.5 20.5q3 24 -30 24h-19q-73 0 -108.5 36.5t-35.5 113.5q0 61 24 116t57 55q14 0 16 -5.5t0.5 -20 t-1.5 -21.5q3 -14 13.5 -23t20.5 -9z" />
<glyph unicode="&#xfb37;" horiz-adv-x="1012" d="M519 579q29 0 48.5 -20t19.5 -48t-19.5 -48.5t-48.5 -20.5t-48.5 20.5t-19.5 48.5t19.5 48t48.5 20zM195 782q-55 10 -82.5 46t-27.5 104q0 61 24 116t57 55q12 0 15 -5.5t1.5 -20t-1.5 -21.5q3 -14 13.5 -23t20.5 -9h664q53 0 55 -68v-144q0 -24 -4.5 -31.5t-10.5 -7.5 t-16 -9.5t-22 -33.5q-17 -31 -14.5 -111t12.5 -152.5t20.5 -157.5t6.5 -126q-5 -97 -53 -145q-26 -27 -64 -38.5t-48 7.5q-3 0 -1.5 16t5 28t7.5 69t4 139q0 34 -6 174t3 169q3 44 10 74.5t13 40.5t13.5 19.5t10.5 16.5q5 14 -3.5 21.5t-28.5 7.5h-358q-7 0 -20 -2 t-41 -14.5t-42 -35.5q-26 -43 -28.5 -146.5t7 -231t6.5 -169.5q-5 -97 -53 -145q-26 -27 -64 -38.5t-49 7.5q-2 7 -2.5 11t1 8.5t5 19.5t6 38.5t4.5 69.5t2 105q0 227 8 321q5 60 20.5 99.5t31 56.5t15.5 22q4 19 -22 24z" />
<glyph unicode="&#xfb38;" horiz-adv-x="991" d="M582 533q29 0 48.5 -20t19.5 -48t-19.5 -48.5t-48.5 -20.5t-48.5 20.5t-19.5 48.5t19.5 48t48.5 20zM205 787q-53 12 -78.5 43.5t-25.5 101.5q0 61 23.5 116t56.5 55q12 0 15.5 -5.5t1.5 -20t-2 -21.5q3 -14 13.5 -23t20.5 -9h53q87 0 124 -39.5t37 -117.5 q0 -75 -28 -106q-17 -17 -44 -2.5t-48 -4.5q-41 -41 -41 -222q0 -133 33.5 -211.5t87.5 -78.5h297q80 2 111 103q20 67 28 128t-3 123.5t-46 101t-75 45t-77 -12t-66.5 -47t-53.5 -62.5q-24 -32 -44.5 -23.5t-13.5 47.5q9 44 32.5 106.5t59.5 128t89.5 110t110.5 41.5 q55 -3 94 -38.5t57.5 -88t30.5 -115t11 -119t-2 -100.5q-10 -167 -39 -291t-86 -245q-5 -14 -9 -19t-14.5 -10t-27.5 -5h-519q-22 0 -29 7t-8 27q-12 128 -26.5 212.5t-21.5 132.5t-5 133q2 44 11 87t17.5 64t23 50l16.5 33q16 34 -22 41z" />
<glyph unicode="&#xfb39;" horiz-adv-x="559" d="M212 722q29 0 48.5 -20t19.5 -48t-19.5 -48.5t-48.5 -20.5t-48.5 20.5t-19.5 48.5t19.5 48t48.5 20zM212 1024h99q80 0 119 -30.5t55 -119.5q14 -75 -3.5 -159t-61.5 -148q-43 -65 -89 -105t-75 -10q-26 29 15 70q102 97 87 188q-5 34 -30.5 53t-59.5 19h-43 q-73 0 -108 36.5t-35 113.5q0 61 24 116t56 55q14 0 16.5 -5.5t0.5 -20t-2 -21.5q3 -14 14 -23t21 -9z" />
<glyph unicode="&#xfb3a;" horiz-adv-x="849" d="M389 579q29 0 48.5 -20t19.5 -48t-19.5 -48.5t-48.5 -20.5t-48.5 20.5t-19.5 48.5t19.5 48t48.5 20zM196 1024h480q58 0 87 -32.5t29 -88.5t-25.5 -88.5t-75.5 -32.5v-57.5v-78.5v-74q3 -172 23 -480.5t16 -361.5q-3 -96 -52 -143q-26 -27 -63.5 -39t-49.5 8q-2 5 -3 8.5 t1 8t4.5 19t6 37.5t5 70t1.5 110q2 125 9 470.5t15 502.5h-394q-73 0 -108 35.5t-35 112.5q0 61 23 117t57 56q12 0 15.5 -5.5t1.5 -18t-2 -21.5q3 -14 13.5 -24t20.5 -10z" />
<glyph unicode="&#xfb3b;" horiz-adv-x="889" d="M480 579q29 0 48.5 -20t19.5 -48t-19.5 -48.5t-48.5 -20.5t-48.5 20.5t-19.5 48.5t19.5 48t48.5 20zM119 0q-26 0 -31.5 11t1.5 32l46 177q3 14 10 18t26 4h380q196 0 197 270q0 126 -64 198t-192 72h-241q-73 0 -107.5 35t-35.5 113q-2 60 22 116.5t58 56.5 q12 0 14.5 -5.5t0.5 -18t0 -21.5q2 -14 13 -24t21 -10h316q294 0 294 -512q0 -97 -15 -183.5t-47 -162.5t-92 -121t-140 -45h-434z" />
<glyph unicode="&#xfb3c;" horiz-adv-x="918" d="M452 630q29 0 48.5 -20t19.5 -48t-19.5 -48.5t-48.5 -20.5t-48.5 20.5t-19.5 48.5t19.5 48t48.5 20zM461 174q-2 -9 4 -41t9.5 -60.5t-13.5 -53t-60 -26.5q-34 -2 -59 26.5t-28 67.5q-3 65 21.5 112.5t80.5 100.5q36 32 95 72.5t95.5 67t70 78.5t42.5 120q9 58 -7 101 t-60 43h-514q-20 0 -27 8.5t-9 32.5q-10 109 0 235q3 38 15.5 89t21 84.5t13.5 70t-5 45.5q-10 19 -38.5 28t-44.5 25.5t-15 55.5q10 114 38 114q14 0 26 -18t30 -25q12 -3 43.5 -8t50.5 -16t31 -37q17 -22 8.5 -60.5t-23 -67.5t-32.5 -75t-23 -82q-2 -41 -2 -76t31 -58 t94 -23h409q53 0 72 -13t34 -55q15 -38 20.5 -132.5t-1.5 -144.5q-3 -38 -7.5 -65t-16.5 -69.5t-37.5 -77.5t-63.5 -61q-24 -17 -78.5 -49.5t-87 -53.5t-63.5 -56t-40 -73z" />
<glyph unicode="&#xfb3d;" horiz-adv-x="955" d="M509 579q29 0 48.5 -20t19.5 -48t-19.5 -48.5t-48.5 -20.5t-48.5 20.5t-19.5 48.5t19.5 48t48.5 20zM249 1024h376q51 0 70.5 -1t53 -7.5t58.5 -22.5q61 -38 73.5 -119.5t12.5 -364.5q0 -258 -19 -446q-3 -39 -17 -51t-43 -12h-650q-17 0 -25 2.5t-14 15.5t-7 42 q-5 56 -6 106.5t0 125.5t1 94q0 113 9 182t37 123q29 56 70 91q-109 14 -110 148q0 61 23.5 117t57.5 56q12 0 14.5 -5.5t0.5 -18t0 -21.5q2 -14 12 -24t22 -10zM389 782q-72 0 -115.5 -60t-48.5 -152q-9 -140 -3 -234q2 -46 12 -66.5t21 -24t37 -3.5h8h437q22 0 31 7t12 29 q14 85 14 243q0 53 -3.5 89.5t-14 81t-36 67.5t-64.5 23h-287z" />
<glyph unicode="&#xfb3e;" horiz-adv-x="996" d="M592 579q29 0 48.5 -20t19.5 -48t-19.5 -48.5t-48.5 -20.5t-48.5 20.5t-19.5 48.5t19.5 48t48.5 20zM265 82q2 -27 -10.5 -47.5t-29.5 -30t-35.5 -14t-33 -1t-18.5 10.5q-5 9 -5 51q0 215 42.5 362.5t135.5 275.5q14 19 6 39t-29 25q-22 5 -50 6.5t-48.5 6.5t-42.5 22 q-51 41 -51 142q0 61 23 117t57 56q12 0 14.5 -5.5t0.5 -18t0 -21.5q2 -14 12 -24t21 -10h35q126 0 154 -109q17 -65 -3 -140q79 39 119.5 97t69.5 138q9 22 20 25.5t31 -1.5q84 -15 145.5 -62t95.5 -118t49.5 -151t15.5 -176q0 -263 -62 -493q-5 -20 -14.5 -27t-29.5 -7 h-423q-27 0 -32.5 11t1.5 32l46 177q3 14 10 18t26 4h285q24 0 38.5 8.5t31.5 34.5q20 31 27 107t-12 168q-22 89 -85 142.5t-154 53.5q-164 0 -262.5 -183.5t-81.5 -490.5z" />
<glyph unicode="&#xfb3f;" horiz-adv-x="549" d="M135 579q29 0 48.5 -20t19.5 -48t-19.5 -48.5t-48.5 -20.5t-48.5 20.5t-19.5 48.5t19.5 48t48.5 20zM203 1024h162q60 0 90 -45t30 -114q0 -85 -55 -181q-44 -79 -44 -145q0 -87 15 -418t14 -391q-5 -96 -53 -143q-27 -27 -65 -39t-48 8q-3 5 -4 8.5t0.5 8t4.5 19t6 37.5 t5 70t4 110q0 82 6.5 375.5t13.5 390.5q3 53 26.5 100t23.5 69q0 15 -15 26.5t-32 11.5h-70q-75 0 -109 35.5t-34 112.5q0 60 23 116.5t56 56.5q14 0 16 -5.5t0.5 -18t0.5 -21.5q2 -14 12 -24t20 -10z" />
<glyph unicode="&#xfb40;" horiz-adv-x="648" d="M300 579q29 0 48.5 -20t19.5 -48t-19.5 -48.5t-48.5 -20.5t-48.5 20.5t-19.5 48.5t19.5 48t48.5 20zM300 1024h115q138 0 141 -157q0 -26 -13 -114q-24 -148 -24 -219q0 -67 26.5 -173.5t29.5 -147.5q7 -99 -19 -177q-5 -14 -8.5 -20t-15 -11t-32.5 -5h-408q-27 0 -32 11 t1 32l47 177q3 14 10 18t25 4h212q49 0 63 58q5 24 5 60t-2.5 88t-2.5 83q0 67 7 124t3 77q-7 49 -70 50h-44q-73 0 -108 35.5t-35 112.5q0 60 23 116.5t57 56.5q12 0 14.5 -5.5t1 -18t-0.5 -21.5q2 -14 12 -24t22 -10z" />
<glyph unicode="&#xfb41;" horiz-adv-x="921" d="M493 579q29 0 48.5 -20t19.5 -48t-19.5 -48.5t-48.5 -20.5t-48.5 20.5t-19.5 48.5t19.5 48t48.5 20zM222 782q-106 12 -106 148q0 60 23 116.5t57 56.5q12 0 14.5 -5.5t1 -18t0.5 -21.5q2 -14 12 -24t20 -10h306q68 0 123.5 -22t89.5 -54t59 -84t36 -93t17.5 -100.5 t7.5 -87.5t1 -74q0 -160 -35 -268t-115 -181q-77 -72 -256 -72q-166 0 -248 75q-108 97 -121 323q-9 135 26 256q27 94 87 140zM497 230q297 0 297 289q0 125 -61 194t-170 69h-136q-58 0 -78.5 -3.5t-39.5 -19.5q-48 -38 -73.5 -106.5t-25.5 -150.5q0 -272 287 -272z" />
<glyph unicode="&#xfb42;" horiz-adv-x="991" d="M539 688q29 0 48.5 -20t19.5 -48t-19.5 -48.5t-48.5 -20.5t-48.5 20.5t-19.5 48.5t19.5 48t48.5 20zM719 775q-82 5 -119 41.5t-37 113.5q0 60 23 116.5t57 56.5q12 0 14.5 -5.5t1 -18t0.5 -21.5q2 -19 18 -28t31.5 -11t42.5 -4h8q169 -7 180 -131q3 -34 -5.5 -64 t-18.5 -45.5t-32.5 -42.5t-30.5 -41q-31 -44 -55 -110t-36 -114.5t-32 -145.5q-2 -3 -6 -24t-5 -25l-5.5 -22l-6 -24t-6 -22t-8 -24t-7.5 -20.5t-9 -22t-11 -20.5t-13 -21q-44 -67 -95.5 -105.5t-124.5 -72.5l-323 -150q-22 -12 -29.5 -8t-4.5 32l14 199q2 22 9.5 31 t26.5 16l198 75q48 19 80 48.5t30 65.5q-3 31 -17.5 57.5t-24 36.5t-34.5 34q-34 32 -54 52.5t-40.5 54t-25.5 65.5t4.5 89.5t16.5 89t-2 55.5q-12 14 -52 22.5t-56 16.5q-56 32 -56 130q0 60 23 116.5t57 56.5q12 0 14.5 -5.5t1 -18t0.5 -21.5q3 -26 32 -32 q24 -5 72.5 -9.5t78.5 -15.5t54 -40q20 -26 23.5 -97.5t-21.5 -110.5q-5 -7 -36 5t-45 1q-14 -9 -17 -57t12 -93q10 -27 43.5 -60.5t67 -71.5t46.5 -83q26 -80 0 -181q43 29 62.5 72t36 104.5t38.5 103.5q22 44 58 98t54 85.5t18 57.5q-2 17 -14.5 28t-31.5 13z" />
<glyph unicode="&#xfb43;" horiz-adv-x="923" d="M609 579q29 0 48.5 -20t19.5 -48t-19.5 -48.5t-48.5 -20.5t-48.5 20.5t-19.5 48.5t19.5 48t48.5 20zM247 783q-75 -2 -106.5 36.5t-31.5 110.5q0 60 23 116.5t57 56.5q12 0 15 -5.5t1 -18t0 -21.5q2 -14 12 -24t20 -10h371q84 0 131.5 -25.5t64.5 -82.5q19 -61 32 -343 q34 -719 29 -843q-5 -96 -53 -143q-27 -27 -64.5 -39t-47.5 8q-3 5 -4 8.5t0.5 8t5 19t6 37.5t4 70t3.5 110q0 58 22 802q2 75 -34 123t-119 48h-197q-44 0 -77.5 -34.5t-44.5 -73.5t1 -56q10 -9 15.5 -6.5t27.5 6t48 2.5q55 -5 89 -31t44 -92q7 -44 -3.5 -84.5t-46.5 -40.5 q-20 0 -32 6t-15.5 12t-10.5 21q-19 36 -82 36q-61 0 -78 -32q-9 -15 -14 -22t-17 -14t-27 -7q-32 0 -46 13.5t-12 41.5q2 63 19 138q32 155 122 218z" />
<glyph unicode="&#xfb44;" horiz-adv-x="916" d="M638 579q29 0 48.5 -20t19.5 -48t-19.5 -48.5t-48.5 -20.5t-48.5 20.5t-19.5 48.5t19.5 48t48.5 20zM123 0q-27 0 -32.5 11t1.5 32l46 177q3 14 10 18t26 4h435q96 0 136 78t40 219q0 96 -44.5 169.5t-124.5 73.5h-215q-43 0 -77 -34.5t-45 -73.5t1 -56q12 -9 16 -6.5 t27 6t49 2.5q53 -5 87 -31t46 -92q7 -44 -4 -84.5t-47 -40.5q-19 0 -31 6t-15.5 12t-11.5 21q-17 36 -80 36q-61 0 -79 -32q-9 -15 -14 -22t-16.5 -14t-29.5 -7q-32 0 -45 13.5t-13 41.5q3 63 19 138q34 155 123 218q-137 -2 -136 147q0 60 23 116.5t57 56.5q12 0 14.5 -5.5 t0.5 -18t0 -21.5q2 -14 12 -24t21 -10h353q87 0 137.5 -24t75.5 -84q67 -157 62 -406q-5 -273 -81 -476q-12 -34 -51 -34h-626z" />
<glyph unicode="&#xfb45;" horiz-adv-x="916" d="M495 796q29 0 48.5 -20t19.5 -48t-19.5 -48.5t-48.5 -20.5t-48.5 20.5t-19.5 48.5t19.5 48t48.5 20zM572 800q-53 32 -53 130q0 60 24 116.5t56 56.5q14 0 16.5 -5.5t0.5 -18t-2 -21.5q3 -14 13.5 -24t21.5 -10l105 -14q34 -5 55.5 -20t31 -41.5t12 -49.5t2.5 -56 q0 -73 -22 -99q-10 -19 -31.5 -4.5t-45.5 2.5q-5 -3 -30.5 -30.5t-70 -76t-66.5 -72.5q-167 -179 -181 -413q-5 -96 7.5 -250t12.5 -170q-5 -96 -53 -143q-27 -27 -64.5 -39t-47.5 8q-5 9 1.5 29.5t14.5 67.5t-1 156q0 5 -7.5 80t-14.5 153.5t-15.5 191t-10 192t1.5 156.5 q2 29 25 83t23 79q0 15 -14.5 26.5t-31.5 11.5h-16q-73 0 -108 35.5t-35 112.5q0 60 23 116.5t57 56.5q12 0 14.5 -5.5t1 -18t0.5 -21.5q2 -14 12 -24t20 -10h106q121 0 121 -166q0 -58 -17 -104.5t-53 -110.5q-29 -51 -31 -97q-5 -97 7 -210q34 130 190 294q17 19 40 42 l35.5 35.5t24.5 26.5t16.5 22.5t2.5 13.5q-3 9 -13.5 12t-28 6t-31.5 12z" />
<glyph unicode="&#xfb46;" horiz-adv-x="954" d="M305 431q29 0 48.5 -20t19.5 -48t-19.5 -48.5t-48.5 -20.5t-48.5 20.5t-19.5 48.5t19.5 48t48.5 20zM591 800q-53 32 -53 130q0 60 23 116.5t57 56.5q12 0 14.5 -5.5t0.5 -18t0 -21.5q2 -14 12 -24t21 -10l88 -7q49 -3 76 -29.5t35 -59.5q20 -85 -7 -170q-5 -15 -14 -17 t-20.5 5.5t-24 12t-24.5 -0.5q-17 -10 -39 -39q-19 -27 -44 -61.5t-60.5 -83t-58.5 -79.5q32 -20 112 -63t121 -76t68 -83q15 -27 7 -60l-48 -179q-5 -20 -14.5 -27t-35.5 -7h-653q-26 0 -32 11t3 32l44 177q3 14 11 18t25 4h481q-27 46 -77.5 78.5t-106 64t-89.5 71.5 q-27 32 -40.5 65.5t-16.5 65t-3 70.5t-1 82q0 12 -4.5 20.5t-7 13t-13.5 6t-13 1.5t-19 2h-21.5t-35.5 0.5t-39 6.5t-38 17q-48 34 -48 124q0 60 24 116.5t56 56.5q14 0 16.5 -5.5t0.5 -18t-2 -21.5q3 -14 13.5 -24t20.5 -10h57q92 0 123.5 -34t31.5 -109q0 -12 -6 -62.5 t-5 -96.5t14 -80q15 -38 62 -84q119 154 150 193q9 12 4.5 24t-18.5 13q-30 5 -40 12z" />
<glyph unicode="&#xfb47;" horiz-adv-x="965" d="M495 625q29 0 48.5 -20t19.5 -48t-19.5 -48.5t-48.5 -20.5t-48.5 20.5t-19.5 48.5t19.5 48t48.5 20zM227 1024h492q53 0 92 -21.5t59.5 -51t31.5 -77.5t13.5 -83t2.5 -86q0 -128 -32.5 -209t-103.5 -136q-41 -31 -132.5 -78.5t-115.5 -63.5q-72 -48 -75 -107 q-5 -53 -20.5 -73.5t-42.5 -20.5q-26 0 -45.5 18t-19.5 50q0 26 4.5 45.5t22 53t64 75t119.5 91.5q9 5 47 29t64 42.5t57.5 48.5t47.5 68.5t16 82.5q-2 82 -43.5 121.5t-109.5 39.5h-378q-75 0 -109 35.5t-34 112.5q0 60 23 116.5t55 56.5q14 0 16.5 -5.5t1 -18t0.5 -21.5 q2 -14 12 -24t20 -10zM251 406q-2 -114 2.5 -339.5t2.5 -283.5q-2 -7 -2.5 -39t-1.5 -45t-3.5 -36t-7 -38.5t-11.5 -27.5q-17 -29 -52 -45t-59 4q-5 5 -5.5 15.5t1 30t5 43.5t7 68.5t3.5 93.5q0 99 -4.5 330.5t-0.5 292.5v51t0.5 55.5t5 45.5t14.5 38q12 20 39.5 33t46 13 t25.5 -7q2 -7 2 -8t0.5 -5t0.5 -6t-0.5 -9.5t-1.5 -17t-2 -28t-1.5 -41.5t-1.5 -59t-1 -79z" />
<glyph unicode="&#xfb48;" horiz-adv-x="870" d="M502 579q29 0 48.5 -20t19.5 -48t-19.5 -48.5t-48.5 -20.5t-48.5 20.5t-19.5 48.5t19.5 48t48.5 20zM227 782q-75 0 -109 35.5t-34 112.5q0 60 23 116.5t57 56.5q12 0 14.5 -5.5t0.5 -18t0 -21.5q2 -14 12 -24t21 -10h419q55 0 93.5 -20.5t59 -55.5t29 -71.5t8.5 -77.5 v-328v-305q0 -80 -10 -111q-10 -27 -36.5 -46t-49.5 -19q-10 0 -17 8.5t-7 18.5v625q0 77 -33 108.5t-124 31.5h-317z" />
<glyph unicode="&#xfb49;" horiz-adv-x="1218" d="M744 579q29 0 48.5 -20t19.5 -48t-19.5 -48.5t-48.5 -20.5t-48.5 20.5t-19.5 48.5t19.5 48t48.5 20zM894 794q-56 32 -56 136q0 60 23 116.5t57 56.5q12 0 15.5 -5.5t2 -18t-1.5 -21.5q5 -29 34 -34l100 -17q44 -7 67.5 -40t25 -78.5t-4.5 -84.5t-16 -72 q-19 -58 -76 -147.5t-72 -116.5q-31 -60 -107 -210t-115 -224q-14 -22 -24 -28t-36 -6h-410q-19 0 -28 6t-14 28q-17 73 -37 162t-26.5 120.5t-15 74t-12 66.5t-7.5 55q-14 119 52 236q19 38 -16 44q-3 0 -15 1t-22.5 3.5t-20.5 9.5q-48 34 -48 124q0 60 24 116.5t57 56.5 q12 0 15 -5.5t1.5 -18t-1.5 -21.5q7 -34 34 -36l91 -8q43 -5 66.5 -28t38.5 -68q9 -26 10 -77t-8 -82q-5 -17 -20.5 -14t-32.5 10.5t-39 -7.5q-22 -17 -37.5 -91.5t-3.5 -158.5q36 -275 131 -256q24 155 45 222q15 55 59.5 132.5t52.5 106.5q17 55 12 67q-7 15 -33 19.5 t-40 10.5q-53 31 -53 130q0 60 23 116.5t57 56.5q12 0 15.5 -5.5t2 -18t-1.5 -21.5q2 -14 13 -24t21 -10l90 -9q87 -9 108 -87q26 -97 -7 -170q-7 -15 -19 -12.5t-27 10t-39 -4.5q-15 -7 -26 -39q-9 -24 -25 -96.5t-31 -113.5q-12 -34 -37.5 -81t-42 -88t-21.5 -91h142 q44 0 63.5 15.5t41.5 54.5q118 195 260 377q29 36 0 72q-17 22 -64 23t-61 10z" />
<glyph unicode="&#xfb4a;" horiz-adv-x="1032" d="M597 579q29 0 48.5 -20t19.5 -48t-19.5 -48.5t-48.5 -20.5t-48.5 20.5t-19.5 48.5t19.5 48t48.5 20zM65 0q-27 0 -32.5 11t1.5 32l46 177q3 14 10 18t26 4h67q20 0 33 4.5t16.5 14.5t3.5 16t-4.5 23t-4.5 21q-26 135 2 259q26 119 124 202h-30q-73 0 -108.5 35.5 t-35.5 112.5q0 60 23 116.5t57 56.5q12 0 14.5 -5.5t1 -18t0.5 -21.5q2 -14 12 -24t20 -10h452q53 0 91.5 -20.5t59 -55.5t30 -71.5t9.5 -77.5q0 -104 -1 -328t-1 -305q0 -80 -10 -111q-9 -27 -36 -46t-49 -19q-10 0 -17 8.5t-7 18.5v625q0 77 -33.5 108.5t-122.5 31.5h-122 q-51 0 -80.5 -16.5t-63.5 -60.5q-58 -75 -61 -188q-2 -67 17.5 -165t19.5 -171q0 -85 -39 -150q-19 -31 -53 -31h-225z" />
<glyph unicode="&#xfb4b;" horiz-adv-x="580" d="M317 1263q29 0 48.5 -19.5t19.5 -48.5t-19.5 -49t-48.5 -20t-48.5 20t-19.5 49t19.5 48.5t48.5 19.5zM213 1024h91q113 0 151 -57t38 -168q0 -72 2 -219t1 -252.5t-4 -206.5q-2 -61 -33 -96t-61 -35q-9 0 -15 6t-6 14v330.5v279.5q0 39 -1 57.5t-8.5 42.5t-22 35t-42 19 t-67.5 8h-9q-73 0 -108 36.5t-35 113.5q0 61 23.5 116t56.5 55q14 0 16.5 -5.5t0.5 -20t-2 -21.5q3 -14 13.5 -23t20.5 -9z" />
<glyph unicode="&#xfb4c;" horiz-adv-x="868" d="M259 1263h342v-102h-342v102zM212 1024h375q29 0 66.5 -16t59.5 -52q55 -99 55 -311q0 -198 -87 -384q-2 -5 0 -12t8 -7h123q26 0 32 -10t-1 -31l-46 -167q-5 -20 -13.5 -27t-34.5 -7h-655q-26 0 -32 11t1 32l46 177q3 14 10 18t26 4h381q55 0 68 14q24 24 39.5 95.5 t15.5 157.5q0 140 -38 204q-43 68 -145 69h-241q-73 0 -108 35.5t-35 112.5q0 60 23 116.5t57 56.5q12 0 14.5 -5.5t1 -18t-0.5 -21.5q2 -14 12.5 -24t22.5 -10z" />
<glyph unicode="&#xfb4d;" horiz-adv-x="889" d="M298 1263h342v-102h-342v102zM119 0q-26 0 -31.5 11t1.5 32l46 177q3 14 10 18t26 4h380q196 0 197 270q0 126 -64 198t-192 72h-241q-73 0 -107.5 35t-35.5 113q-2 60 22 116.5t58 56.5q12 0 14.5 -5.5t0.5 -18t0 -21.5q2 -14 13 -24t21 -10h316q294 0 294 -512 q0 -97 -15 -183.5t-47 -162.5t-92 -121t-140 -45h-434z" />
<glyph unicode="&#xfb4e;" horiz-adv-x="916" d="M314 1263h342v-102h-342v102zM123 0q-27 0 -32.5 11t1.5 32l46 177q3 14 10 18t26 4h435q96 0 136 78t40 219q0 96 -44.5 169.5t-124.5 73.5h-215q-43 0 -77 -34.5t-45 -73.5t1 -56q12 -9 16 -6.5t27 6t49 2.5q53 -5 87 -31t46 -92q7 -44 -4 -84.5t-47 -40.5q-19 0 -31 6 t-15.5 12t-11.5 21q-17 36 -80 36q-61 0 -79 -32q-9 -15 -14 -22t-16.5 -14t-29.5 -7q-32 0 -45 13.5t-13 41.5q3 63 19 138q34 155 123 218q-137 -2 -136 147q0 60 23 116.5t57 56.5q12 0 14.5 -5.5t0.5 -18t0 -21.5q2 -14 12 -24t21 -10h353q87 0 137.5 -24t75.5 -84 q67 -157 62 -406q-5 -273 -81 -476q-12 -34 -51 -34h-626z" />
<glyph unicode="&#xfb4f;" horiz-adv-x="993" d="M602 567q7 108 79 203q-39 10 -58 17.5t-41 24.5t-31.5 46t-9.5 74q0 61 24 116t56 55q14 0 16.5 -5.5t1 -20t-0.5 -21.5q3 -26 43 -32l56 -10q87 -14 122 -42t35 -98q0 -58 -8.5 -91.5t-23.5 -41t-36 0.5q-61 26 -109 -104q-14 -36 -21 -76t-1.5 -81.5t24.5 -65.5 l131 -164q29 -36 38.5 -87t-1.5 -82q-10 -43 -44 -75.5t-65 -23.5q-14 3 -17 11.5t-2.5 19t-2.5 26t-15 30.5l-657 840q-29 36 -19 148q3 38 14 89t20.5 84.5t14.5 70t-5 45.5q-12 19 -39 28t-43.5 25.5t-14.5 55.5q9 114 37 114q14 0 25 -18t32 -25q26 -9 43.5 -3.5t40 -7 t40.5 -50.5q15 -22 7 -60.5t-22.5 -68.5t-32.5 -74t-22 -82q-3 -48 24 -82z" />
</font>
</defs>
</svg>
