<?xml version="1.0" standalone="no"?>
<!DOCTYPE svg PUBLIC "-//W3C//DTD SVG 1.1//EN" "http://www.w3.org/Graphics/SVG/1.1/DTD/svg11.dtd" >
<svg xmlns="http://www.w3.org/2000/svg">
<metadata></metadata>
<defs>
<font id="gentium_plusitalic" horiz-adv-x="1006" >
<font-face units-per-em="2048" ascent="1638" descent="-410" />
<missing-glyph horiz-adv-x="410" />
<glyph horiz-adv-x="2048" />
<glyph horiz-adv-x="2048" />
<glyph unicode="&#xd;" horiz-adv-x="1024" />
<glyph unicode=" "  horiz-adv-x="410" />
<glyph unicode="&#x09;" horiz-adv-x="410" />
<glyph unicode="&#xa0;" horiz-adv-x="410" />
<glyph unicode="!" horiz-adv-x="410" d="M283 152q0 -31 -10.5 -63.5t-30 -59t-46.5 -43.5t-61 -17q-40 0 -62 27t-22 72q0 29 11.5 60.5t32 57.5t47.5 43t59 17q37 0 59.5 -26t22.5 -68zM250 389q-20 -14 -34.5 -22.5t-39.5 -16.5l-24 21l86 970q14 10 35 24t44.5 28t47.5 25.5t45 17.5l36 -25z" />
<glyph unicode="&#x22;" horiz-adv-x="791" d="M305 874q-17 -9 -34.5 -12.5t-39.5 -3.5l33 524q12 6 28 13.5t33 14t32.5 12t25.5 8.5l37 -21zM631 874q-16 -9 -34 -12.5t-40 -3.5l33 524q12 6 28 13.5t33 14t32.5 12t25.5 8.5l36 -21z" />
<glyph unicode="#" horiz-adv-x="823" d="M354 590h176l95 256h-176zM770 961h141l19 -25q-8 -22 -20 -47.5t-21 -42.5h-161l-95 -256h145l19 -27q-8 -20 -19 -45.5t-20 -42.5h-168l-113 -305q-18 -14 -41 -24t-49 -19l-20 20l121 328h-176l-113 -305q-19 -14 -41.5 -24t-48.5 -19l-23 20l122 328h-134l-19 25 q8 20 19 45t22 45h154l95 256h-138l-19 24q8 22 19 46.5t22 44.5h159l108 290q21 16 43.5 24t44.5 17l22 -22l-115 -309h176l107 290q22 16 44.5 24t43.5 17l23 -22z" />
<glyph unicode="$" horiz-adv-x="823" d="M249 950q0 -19 6.5 -39.5t23.5 -42.5t47 -46t78 -51l51 361q-47 -3 -85 -20.5t-65 -43.5t-41.5 -57t-14.5 -61zM614 343q0 31 -8.5 59t-28 54t-50 51.5t-74.5 51.5l-65 -464q48 9 89 32t71.5 55.5t48 73.5t17.5 87zM793 1144q6 -4 -5 -23.5t-28 -42t-36 -42t-28 -25.5 l-28 5q-24 33 -59 62t-76 44l-55 -390q69 -36 118.5 -70.5t81 -71.5t46.5 -79t15 -93q0 -76 -28.5 -146.5t-78.5 -128.5t-117 -100t-143 -60l-17 -121q-9 -8 -15 -12.5t-12.5 -7.5t-14 -5t-19.5 -5l-20 21l16 117q-7 0 -14 -0.5t-14 -0.5q-36 0 -84 12.5t-91 32t-73 44.5 t-30 50q0 12 11.5 34t27.5 44t34 38.5t32 16.5q10 0 26.5 -21.5t42 -48.5t62 -51t87.5 -29l72 508l-24 12q-63 30 -105.5 64t-68.5 69t-37 71t-11 70q0 56 24 111t68 101.5t106 80t137 46.5l16 114q13 8 19 11.5t10 6t10 4.5t19 6l22 -22l-16 -113h1q72 0 135 -26t109 -61z " />
<glyph unicode="%" horiz-adv-x="1315" d="M1075 387q0 91 -30.5 134.5t-73.5 43.5q-31 0 -54 -19t-40.5 -49.5t-29 -69t-18 -77.5t-9.5 -74.5t-3 -60.5q0 -84 29 -124t76 -40q29 0 52 18t40 47t28.5 66t19 74.5t10.5 71.5t3 59zM506 975q0 91 -31 134.5t-76 43.5q-31 0 -54 -19t-40 -49.5t-28.5 -69t-18 -77.5 t-9.5 -74.5t-3 -60.5q0 -84 30 -124t76 -40q29 0 52 18t40 47t29 66t19 74.5t10.5 71.5t3.5 59zM1212 377q0 -66 -23.5 -138t-66.5 -132t-102.5 -99t-132.5 -39q-48 0 -86 21t-64.5 57.5t-40.5 86.5t-14 108q0 43 10.5 90t30.5 92t48.5 85.5t64.5 71t79 48.5t91 18 q49 0 87.5 -20.5t64.5 -57t40 -86t14 -106.5zM256 16q-10 -7 -27.5 -14.5t-37 -14t-38 -12.5t-30.5 -10l-19 35l963 1188q28 17 64.5 29t64.5 20l25 -33zM641 965q0 -44 -10.5 -91t-30.5 -92t-48.5 -86t-64.5 -72t-79.5 -49t-92.5 -18q-48 0 -85.5 21t-64 57.5t-40.5 86.5 t-14 107q0 44 10.5 91t30.5 92t48.5 85.5t65 71t79 48.5t91.5 18q48 0 86.5 -20.5t64.5 -57t40 -86t14 -106.5z" />
<glyph unicode="&#x26;" horiz-adv-x="1190" d="M516 1130q-8 -58 -1.5 -121t23.5 -129q3 1 9 5q62 35 105.5 70.5t71 70.5t42.5 69t20 66q7 37 5 70t-14.5 58t-37 39.5t-61.5 14.5q-36 0 -64 -18.5t-48 -48.5t-32.5 -68.5t-17.5 -77.5zM446 84q80 0 148.5 25.5t125.5 67.5q-39 52 -78.5 113.5t-76 129t-69 139.5 t-56.5 146q-55 -43 -94.5 -82.5t-66.5 -78.5t-42.5 -78.5t-21.5 -82.5q-9 -70 7 -125.5t49 -94t79 -59t96 -20.5zM1274 748q-26 -31 -51 -51.5t-49 -37.5q-15 9 -35 16t-40 12.5t-40 8.5t-35 4q7 -18 10.5 -35t4.5 -37.5t-1 -46t-6 -59.5q-10 -69 -46.5 -145.5t-94.5 -148.5 q24 -29 46.5 -54.5t43.5 -46.5q31 -32 69.5 -42.5t92.5 3.5l2 -43q-85 -38 -140 -57t-75 -19t-61.5 37.5t-95.5 103.5q-78 -63 -171.5 -102t-198.5 -39q-84 0 -151.5 26.5t-112.5 76.5t-64.5 123.5t-6.5 166.5q15 112 105 223.5t240 215.5q-17 71 -23 139t3 133 q11 81 44 150t80.5 119.5t105.5 79t118 28.5q57 0 94.5 -21.5t58 -57t26 -81.5t-1.5 -96q-16 -102 -93 -192t-192 -164l-69 -44q23 -66 54 -132t67 -130t75 -123.5t78 -111.5q32 45 52 92.5t28 91.5q7 48 -0.5 89t-24.5 71t-41 47t-51 17l-17 28q13 13 33.5 28t40.5 23h399z " />
<glyph unicode="'" horiz-adv-x="410" d="M305 874q-17 -9 -34.5 -12.5t-39.5 -3.5l33 524q12 6 28 13.5t32.5 14t32 12t26.5 8.5l37 -21z" />
<glyph unicode="(" horiz-adv-x="604" d="M705 1559q-69 -48 -134.5 -132.5t-121.5 -198.5t-98.5 -255t-65.5 -301q-20 -146 -18.5 -287t22.5 -265t61.5 -225t98.5 -165l-37 -45q-94 50 -159 146t-101.5 223t-43 277.5t16.5 309.5q23 164 73.5 316.5t123 280t164 222.5t196.5 144z" />
<glyph unicode=")" horiz-adv-x="604" d="M500 627q-23 -165 -74 -314t-123.5 -272.5t-164 -215t-195.5 -140.5l-25 45q68 48 134 129.5t122.5 192t99.5 248t66 298.5q20 145 18.5 289t-23 271.5t-61.5 231.5t-98 169l37 45q94 -50 158.5 -149.5t100.5 -230.5t43 -284.5t-15 -312.5z" />
<glyph unicode="*" horiz-adv-x="725" d="M415 1188l271 196q9 -7 20 -15t22.5 -17t21 -18t14.5 -17l-4 -41l-324 -142l262 -128q-5 -25 -11 -59t-15 -56l-37 -23l-234 213l-10 -325q-11 -6 -25 -13.5t-28 -14t-27.5 -12t-23.5 -7.5l-31 18l87 352l-271 -196q-19 14 -43 33t-35 34l6 43l321 140l-262 129 q3 12 5.5 27.5t6 31.5t7 30.5t8.5 24.5l37 23l233 -211l11 325q10 6 23.5 13t28 14t28 12.5t24.5 8.5l33 -21z" />
<glyph unicode="+" horiz-adv-x="770" d="M720 597q-3 -10 -7.5 -22.5t-10 -25t-11 -24t-10.5 -19.5h-229l-34 -242q-19 -9 -48.5 -18t-50.5 -14l-23 24l35 250h-238l-19 24q7 20 18.5 45.5t22.5 45.5h232l34 244q9 3 22 7t27 8.5t27.5 8.5t23.5 6l23 -24l-36 -250h234z" />
<glyph unicode="," horiz-adv-x="410" d="M303 102q0 -26 -11.5 -60t-32 -72t-47.5 -78t-59 -77t-67 -68t-70 -52l-34 35q153 162 153 270q0 18 -5.5 35.5t-18 29.5t-33 17.5t-51.5 1.5l-9 45q11 12 40.5 29t64 33t67 27.5t48.5 10.5q18 -10 30 -19.5t20 -23t11.5 -33.5t3.5 -51z" />
<glyph unicode="-" horiz-adv-x="641" d="M580 541q-8 -22 -20 -45.5t-21 -40.5h-478l-18 24q8 22 19.5 44t23.5 42h475z" />
<glyph unicode="." horiz-adv-x="410" d="M283 152q0 -31 -10.5 -63.5t-30 -59t-46.5 -43.5t-61 -17q-40 0 -62 27t-22 72q0 29 11.5 60.5t32 57.5t47.5 43t59 17q37 0 59.5 -26t22.5 -68z" />
<glyph unicode="/" horiz-adv-x="819" d="M43 -285q-10 -7 -26 -14.5t-34 -14t-35.5 -12.5t-29.5 -10l-29 25l904 1861q27 17 59 29t61 20l31 -22z" />
<glyph unicode="0" horiz-adv-x="823" d="M649 786q0 82 -13.5 144.5t-37 104.5t-55 63.5t-66.5 21.5q-56 0 -98.5 -37.5t-73.5 -97.5t-51.5 -135t-32.5 -150.5t-17 -144t-5 -115.5q0 -176 46.5 -265t127.5 -89q58 0 101 38.5t73.5 100.5t50 139.5t31 155.5t16 148t4.5 118zM803 784q0 -60 -6 -128.5t-21 -140.5 t-40.5 -143.5t-63.5 -135.5q-33 -56 -70.5 -104.5t-80.5 -84.5t-93.5 -57t-108.5 -21q-70 0 -121 34.5t-84.5 95t-50 143.5t-16.5 180q0 58 6.5 125t21 136.5t38.5 140.5t59 137q31 57 68.5 107t81.5 87t95 58.5t111 21.5q70 0 122 -34t86 -94t50.5 -143t16.5 -180z" />
<glyph unicode="1" horiz-adv-x="823" d="M666 0h-603l7 53q72 9 120.5 20.5t78 23.5t42.5 23.5t15 22.5l108 797q6 40 6.5 62t-8.5 36q-5 6 -19.5 10t-43 3t-71.5 -7t-103 -20l-13 51q39 12 93.5 33t111 45.5t108 49t83.5 42.5l28 -35l-145 -1067q-2 -10 6.5 -21.5t32 -23.5t65.5 -24t109 -21z" />
<glyph unicode="2" horiz-adv-x="823" d="M784 1006q0 -62 -28 -138t-98 -180t-190 -243.5t-304 -329.5h375q15 0 27.5 8t24 21t20.5 29.5t17 33.5q18 40 29 92l43 -12l-51 -287h-635l-14 74q182 181 305 321t197.5 248.5t106.5 189.5t32 144q0 72 -45 118t-129 46q-37 0 -67.5 -19t-53 -49t-37 -67t-18.5 -72 q-16 -9 -29.5 -17t-27.5 -14.5t-29.5 -11t-36.5 -6.5l-21 30q7 52 43.5 108.5t91 103.5t122.5 77.5t137 30.5q50 0 94 -13.5t77 -41.5t52.5 -71t19.5 -103z" />
<glyph unicode="3" horiz-adv-x="823" d="M733 1001q0 -54 -17.5 -100.5t-48.5 -85t-73 -68t-90 -49.5q45 -6 83 -30t65 -61t42 -83t15 -96q0 -94 -31 -177.5t-88 -146t-138 -99t-182 -36.5q-71 0 -139 35.5t-143 114.5l39 67q38 -34 68.5 -56t58.5 -35t56.5 -18t63.5 -5q71 0 124.5 27t89.5 73t54.5 105t18.5 124 q0 58 -17.5 100t-45.5 69t-64 40t-72 13h-18q-5 0 -9.5 -1t-11 -2t-20.5 -4l-6 60q58 17 111 40.5t93.5 58.5t64.5 83.5t24 114.5q0 31 -8.5 61.5t-26.5 54t-46.5 38t-68.5 14.5q-35 0 -63.5 -13.5t-49 -36.5t-31 -53.5t-9.5 -64.5q-34 -17 -63.5 -26.5t-67.5 -12.5l-21 31 q6 42 39.5 89.5t83.5 87.5t112 66.5t126 26.5q60 0 105 -19.5t74 -52t43.5 -75t14.5 -87.5z" />
<glyph unicode="4" horiz-adv-x="823" d="M162 455h338l80 585zM756 426q-12 -15 -22.5 -26t-20.5 -19t-19.5 -15t-19.5 -16h-64l-32 -246q-2 -8 2.5 -14.5t17.5 -14t36.5 -15.5t59.5 -17l-6 -43h-440l6 43q59 11 97 20.5t60 18t31 16.5t11 17l30 235h-444l-27 33l553 791q42 18 75 37t60 34l27 -35l-102 -753h108 z" />
<glyph unicode="5" horiz-adv-x="823" d="M799 1194q-12 -16 -27 -33t-30 -32t-29.5 -28t-26.5 -22h-348q-6 -29 -17.5 -75.5t-24.5 -94.5t-25 -90.5t-19 -64.5q37 12 86.5 19t95.5 7q69 0 123 -25t90.5 -67t56 -97t19.5 -114q0 -60 -13 -120.5t-37.5 -117t-60.5 -106t-82.5 -86t-103.5 -57.5t-123 -21 q-83 0 -159.5 35.5t-147.5 114.5l41 67q45 -35 81.5 -57.5t67.5 -35t57 -17t52 -4.5q75 0 128 33.5t86.5 86.5t49.5 119.5t16 132.5q0 49 -14 90.5t-41 71.5t-66 47t-89 17q-102 0 -209 -80l-37 33q10 36 23.5 83.5t28.5 100.5t30 108t28.5 107.5t25 99.5t17.5 82h394 q25 0 45.5 2.5t34.5 6.5q17 4 30 10z" />
<glyph unicode="6" horiz-adv-x="823" d="M451 659q-58 0 -112 -27t-111 -93q-7 -42 -10 -83t-3 -83q0 -150 53 -223.5t144 -73.5q40 0 71.5 16.5t54.5 44.5t39 64t25.5 74t14 76.5t4.5 70.5q0 71 -15.5 117t-40 72.5t-54.5 37t-60 10.5zM799 1190q-108 -23 -196 -73.5t-156.5 -121t-116.5 -157.5t-76 -183 q69 65 133 90t117 25q128 0 193 -76t65 -211q0 -54 -12.5 -113.5t-37 -116.5t-59.5 -108.5t-79.5 -90.5t-98.5 -62t-115 -23q-65 0 -118.5 28.5t-92 80t-60 123.5t-21.5 159q0 108 22.5 211.5t66 197t106 174.5t143 144t177.5 105t208 57z" />
<glyph unicode="7" horiz-adv-x="823" d="M866 1167q-56 -108 -113 -218t-112 -217t-105.5 -208t-94 -190.5t-78.5 -163.5t-58 -127q-66 -48 -155 -74l-33 33q98 153 179.5 293t153.5 272t137.5 258.5t133.5 253.5h-410q-13 0 -26.5 -1.5t-29.5 -15t-36.5 -44t-48.5 -88.5l-37 18q6 23 15.5 57.5t19.5 71.5t20 71 t19 56h635z" />
<glyph unicode="8" horiz-adv-x="823" d="M287 940q0 -39 17 -69t45.5 -55t65.5 -47t76 -44q33 22 61 47.5t48 56t31.5 66.5t11.5 80q0 81 -47 123.5t-125 42.5q-40 0 -73.5 -17t-58 -45t-38.5 -64.5t-14 -74.5zM592 342q0 55 -17.5 95t-46.5 71t-66 55.5t-76 47.5q-49 -33 -87.5 -67t-65.5 -74t-41 -87.5 t-14 -108.5q0 -43 13 -80t38 -64.5t60 -43.5t80 -16q55 0 97 24.5t70 63.5t42 87.5t14 96.5zM778 1001q0 -55 -19 -101t-50 -84t-71.5 -70t-82.5 -59q37 -23 70.5 -50.5t59 -62t41 -78.5t15.5 -99q0 -85 -35 -162.5t-94.5 -136.5t-137.5 -94t-163 -35q-69 0 -121 23t-87 62 t-52.5 89.5t-17.5 106.5q0 69 25 128t65.5 108.5t93 90t107.5 70.5q-32 20 -61 42.5t-51 51.5t-35 65t-13 83q0 73 30.5 136.5t81.5 110t117 73t137 26.5q61 0 107.5 -17.5t78 -48.5t47 -74t15.5 -94z" />
<glyph unicode="9" horiz-adv-x="823" d="M420 555q74 0 128.5 38t96.5 100q4 35 6 70.5t2 72.5q0 81 -15 137t-39 91t-54.5 50.5t-61.5 15.5q-46 0 -81 -16.5t-61.5 -44t-45 -64t-30 -76.5t-16.5 -81t-5 -78q0 -65 17.5 -107t43.5 -66t57 -33t58 -9zM803 862q0 -171 -48 -325t-140.5 -275.5t-228 -201.5 t-310.5 -103l-8 59q118 27 210.5 79t161.5 124t114.5 161.5t69.5 193.5q-52 -59 -117.5 -94.5t-139.5 -35.5q-60 0 -108.5 21t-83 58.5t-53 89t-18.5 112.5q0 56 15 116t42 116.5t66 107t87 88.5t103.5 60t117.5 22q54 0 103 -22.5t85.5 -68.5t58 -116.5t21.5 -165.5z" />
<glyph unicode=":" horiz-adv-x="410" d="M383 866q0 -30 -10.5 -62t-29.5 -58t-46 -43t-61 -17q-41 0 -62.5 26.5t-21.5 71.5q0 28 11.5 59.5t31.5 57.5t47 43t59 17q37 0 59.5 -25.5t22.5 -69.5zM283 152q0 -31 -10.5 -63.5t-30 -59t-46.5 -43.5t-61 -17q-40 0 -62 27t-22 72q0 29 11.5 60.5t32 57.5t47.5 43 t59 17q37 0 59.5 -26t22.5 -68z" />
<glyph unicode=";" horiz-adv-x="410" d="M383 866q0 -30 -10.5 -62t-29.5 -58t-46 -43t-61 -17q-41 0 -62.5 26.5t-21.5 71.5q0 28 11.5 59.5t31.5 57.5t47 43t59 17q37 0 59.5 -25.5t22.5 -69.5zM303 102q0 -26 -11.5 -60t-32 -72t-47.5 -78t-59 -77t-67 -68t-70 -52l-34 35q153 162 153 270q0 18 -5.5 35.5 t-18 29.5t-33 17.5t-51.5 1.5l-9 45q11 12 40.5 29t64 33t67 27.5t48.5 10.5q18 -10 30 -19.5t20 -23t11.5 -33.5t3.5 -51z" />
<glyph unicode="&#x3c;" horiz-adv-x="840" d="M72 504l-22 26q6 23 18 51t20 44l698 274l19 -25q-4 -10 -8.5 -23.5t-9.5 -28t-10 -28t-9 -22.5l-540 -208l484 -210l11 -37q-12 -10 -21 -17l-17 -14q-8 -7 -18.5 -14t-25.5 -16z" />
<glyph unicode="=" horiz-adv-x="840" d="M805 746q-3 -10 -8 -23l-10 -25q-5 -12 -11 -23.5t-10 -19.5h-657l-19 24q8 20 19 45.5t22 45.5h656zM765 446q-3 -10 -8 -23l-10 -25q-5 -12 -11 -23.5t-10 -19.5h-657l-19 24q8 20 19 45.5t22 45.5h656z" />
<glyph unicode="&#x3e;" horiz-adv-x="840" d="M785 625q-7 -22 -17 -49t-21 -46l-698 -274l-19 25q4 10 8.5 23.5t9.5 28t9.5 28t9.5 22.5l540 208l-484 210l-11 37q12 10 20 17l17 14q9 7 19.5 14t25.5 16l569 -248z" />
<glyph unicode="?" horiz-adv-x="813" d="M442 152q0 -31 -10.5 -63.5t-30 -59t-47 -43.5t-61.5 -17q-38 0 -61 27t-23 72q0 29 11.5 60.5t31.5 57.5t47 43t59 17q39 0 61.5 -26t22.5 -68zM809 1186q0 -88 -25.5 -154t-64.5 -120t-85.5 -100t-89 -95t-75 -104.5t-43.5 -127.5l-12 -96q-19 -14 -34 -23.5t-40 -17.5 l-23 21l5 116q1 67 26 123t61.5 107t78.5 98.5t77.5 96.5t59.5 102.5t24 115.5q0 100 -43.5 153.5t-130.5 53.5q-41 0 -73 -19t-51.5 -51.5t-25.5 -75.5t3 -91q-22 -10 -39.5 -16.5t-34 -11t-33.5 -7t-39 -4.5l-20 31q0 64 28 125t80 109t125.5 77t165.5 29q64 0 110.5 -19 t77 -52t45.5 -77.5t15 -95.5z" />
<glyph unicode="@" horiz-adv-x="1593" d="M1161 842l-2 -2q-7 -14 -12 -33t-10 -47q-15 -72 -28 -147.5t-22.5 -142.5t-14.5 -118t-5 -73q0 -57 5 -93t13.5 -56.5t19.5 -28t23 -7.5q25 0 63.5 33t76.5 90t69.5 132.5t44.5 160.5q17 113 9 209t-36.5 174t-74 138t-104 100.5t-127 61.5t-142.5 21 q-93 0 -175.5 -27.5t-153.5 -76.5t-129.5 -116t-103 -146t-74 -166.5t-42.5 -177.5q-25 -182 9.5 -323t113 -238.5t193.5 -148t250 -50.5q75 0 149 17.5t139 44t117 56.5t84 56l16 -55q-38 -38 -95.5 -80t-130.5 -77t-159.5 -58t-183.5 -23q-166 0 -298 59t-219 168.5 t-123 265t-9 347.5q16 112 56.5 220.5t101.5 204.5t140.5 177.5t171.5 140.5t195.5 92t213.5 33q133 0 244 -52t186 -152.5t106 -246.5t4 -333q-12 -87 -40.5 -164t-68.5 -142.5t-87 -118t-96 -89.5t-96.5 -56.5t-86.5 -19.5q-18 0 -35.5 12.5t-32 47t-23.5 95t-9 157.5 q-25 -45 -58 -99.5t-70.5 -102t-78 -79t-82.5 -31.5q-34 0 -71.5 19t-69 60.5t-52 107t-20.5 159.5q0 79 15.5 154.5t48 144.5t83 129.5t121.5 108.5q27 18 59 35t66.5 30t68.5 21t66 8q40 0 75 -19t65 -39q23 16 48.5 30.5t51.5 27.5l20 -35q-20 -16 -32 -28.5t-20 -30.5h1 zM943 429q7 46 15 96t16.5 96t15 84t10.5 59q-15 12 -31.5 23.5t-35.5 21.5t-39.5 16t-43.5 6q-46 0 -85 -22.5t-71 -59.5t-57 -84.5t-41.5 -98t-25.5 -99.5t-9 -88q0 -65 11 -117t29.5 -89t44 -57t54.5 -20q25 0 55.5 30.5t62.5 78.5t64.5 107t60.5 117z" />
<glyph unicode="A" horiz-adv-x="1147" d="M371 444l-143 -333q-14 -31 15.5 -44.5t106.5 -23.5l-6 -43h-379l6 43q63 12 101 25.5t51 42.5l487 1118q13 12 31 24.5t37 24t36.5 22t30.5 17.5l216 -1206q2 -14 7.5 -24.5t17.5 -19t32.5 -14.5t52.5 -10l-4 -43h-385l4 43q71 5 102 20.5t25 47.5l-58 333h-384z M739 535l-94 544l-235 -544h329z" />
<glyph unicode="B" horiz-adv-x="1014" d="M551 1206q-30 0 -57 -0.5t-51 -1.5l-65 -479h32q70 0 135.5 11t116 40t80.5 80t30 131q0 61 -21.5 103t-54.5 68t-72 37t-73 11zM518 649q-44 0 -81 -4.5t-71 -9.5l-73 -531q-3 -8 11 -19q19 -9 42 -15.5t47.5 -10t48.5 -5t45 -1.5q66 0 119.5 27.5t91.5 72.5t59 103 t21 119q0 50 -14.5 99t-45.5 88t-80.5 63t-119.5 24zM934 410q0 -98 -38 -179t-103 -139t-151 -90.5t-181 -32.5q-20 0 -48 1t-59.5 3.5t-65 5t-65.5 5.5q-75 7 -157 16h-66l6 43q63 14 101 30.5t40 30.5l149 1089q-45 -6 -82 -13t-73 -15v62q46 13 94 24.5t101 20t113 13.5 t129 5q81 0 145.5 -17t110 -49.5t70 -79t24.5 -104.5q0 -52 -16.5 -101t-46 -90.5t-70 -74t-88.5 -51.5q51 -12 92.5 -40t71.5 -68.5t46.5 -92.5t16.5 -112z" />
<glyph unicode="C" horiz-adv-x="995" d="M1016 1190q4 -5 -7 -22t-28.5 -38t-37 -41.5t-32.5 -31.5l-30 8q-41 45 -99.5 74.5t-140.5 29.5q-40 0 -90 -19t-90 -50q-63 -49 -107.5 -123t-72.5 -155.5t-41 -162t-13 -143.5q0 -109 29.5 -188.5t76 -131t102 -76t108.5 -24.5q56 0 134.5 35.5t190.5 124.5 q5 -2 9 -8.5t8 -13.5t7 -13.5t5 -9.5q-68 -68 -127.5 -114t-113.5 -73.5t-103 -39t-96 -11.5q-75 0 -144 32.5t-121.5 94.5t-84 152.5t-31.5 206.5q0 94 18.5 191.5t57.5 190t100 176t145 150.5q73 57 157.5 90t178.5 33q99 0 169 -29t114 -71z" />
<glyph unicode="D" horiz-adv-x="1118" d="M1077 745q0 -88 -17 -177.5t-51 -172t-84 -155t-116.5 -126t-148.5 -84t-179 -30.5h-481l6 43q63 14 101 30.5t40 30.5l149 1089l-153 -17v63q115 28 227.5 39.5t215.5 11.5q117 0 208 -39t154 -110t96 -171.5t33 -224.5zM504 1206h-30q-15 0 -30 -1l-145 -1066 q-2 -15 4 -25t23 -17t48.5 -10t80.5 -3q74 0 136.5 28t113.5 76t90.5 112t66 135.5t40 146.5t13.5 145q0 107 -27 195t-79 151t-128.5 98t-176.5 35z" />
<glyph unicode="E" horiz-adv-x="946" d="M856 244q-20 -87 -40.5 -151t-31.5 -93h-784l6 43q63 14 101 30.5t40 30.5l146 1051q2 12 -29 30t-96 32l6 43h737l25 -25q-5 -26 -12.5 -57t-17 -62t-19.5 -59t-19 -47h-43q5 46 4 76.5t-8 49t-19 26t-30 7.5h-335l-59 -434h374l20 -28q-10 -14 -22.5 -29t-26 -29.5 t-26.5 -27t-23 -21.5q-16 17 -34 27.5t-44.5 16.5t-65 8.5t-94.5 2.5h-69l-68 -501q-2 -15 3 -26.5t24 -20t55 -13t96 -4.5h121q42 0 71 5t52.5 22.5t45.5 51.5t50 93z" />
<glyph unicode="F" horiz-adv-x="891" d="M944 1235q-5 -26 -12.5 -57t-17 -62t-19.5 -59t-18 -47h-41q4 46 2 76.5t-9 49t-19 26t-30 7.5h-343l-60 -434h323l23 -28q-11 -14 -23.5 -29t-25.5 -29.5t-26 -27t-23 -21.5q-34 34 -78.5 44.5t-110.5 10.5h-70l-75 -551q-2 -12 32 -27t121 -34l-6 -43h-438l6 43 q63 14 101 30.5t40 30.5l146 1051q2 12 -29 30t-96 32l6 43h746z" />
<glyph unicode="G" horiz-adv-x="1073" d="M1057 539q-54 -16 -79 -37.5t-28 -44.5q-4 -27 -10 -70.5t-12 -88.5t-11.5 -85t-7.5 -59q-76 -61 -134 -97.5t-105 -56t-87.5 -25.5t-80.5 -6q-83 0 -160 33.5t-136 98t-94.5 158.5t-35.5 214q0 95 22 191.5t62.5 185t96.5 164t124 129.5q85 67 189 107t223 40 q30 0 65 -7t70 -20t68 -32t59 -43q6 -5 -5 -22t-29 -37.5t-38.5 -40.5t-34.5 -31l-28 6q-26 31 -55 52t-62.5 33.5t-72 17.5t-83.5 5q-38 0 -92.5 -26t-108.5 -70q-51 -41 -91.5 -107t-69.5 -143.5t-44.5 -158t-15.5 -150.5q0 -107 32.5 -185.5t83.5 -130.5t114 -77t125 -25 q54 0 106 16t87 42l40 301q1 10 -4 20t-27.5 20t-66.5 20t-119 22l6 43h461z" />
<glyph unicode="H" horiz-adv-x="1235" d="M578 1217q-63 -14 -101 -31t-41 -31l-61 -450h556l62 450q2 12 -29 30t-94 32l4 43h412l-6 -43q-63 -14 -101 -31t-40 -31l-146 -1051q-2 -12 29 -29.5t96 -31.5l-6 -43h-410l7 43q63 14 100 30.5t39 30.5l70 510h-556l-69 -510q-3 -12 28.5 -29.5t94.5 -31.5l-6 -43 h-410l6 43q63 14 101 30.5t40 30.5l146 1051q2 12 -29 30t-96 32l6 43h410z" />
<glyph unicode="I" horiz-adv-x="573" d="M598 1217q-63 -14 -101 -31t-40 -31l-146 -1051q-2 -12 29 -29.5t96 -31.5l-6 -43h-410l7 43q63 14 100.5 30.5t40.5 30.5l143 1051q2 12 -29 30t-94 32l7 43h409z" />
<glyph unicode="J" horiz-adv-x="578" d="M623 1217q-63 -14 -101 -31t-41 -31l-131 -950q-16 -119 -42 -198.5t-58.5 -134.5t-70.5 -92t-79 -69q-27 -21 -58.5 -38t-63 -29t-58.5 -18.5t-45 -6.5q-28 0 -53 9.5t-44 22t-30.5 26t-11.5 22.5q0 10 14.5 27t34 33t40 28t32.5 12q10 0 20.5 -9t25 -19.5t35.5 -19.5 t52 -9q24 0 53 17t57.5 61t54 120t42.5 193l141 1022q1 6 -5.5 13t-25 15t-52 16.5t-87.5 17.5l4 43h457z" />
<glyph unicode="K" horiz-adv-x="1102" d="M578 1217q-63 -14 -101 -31t-41 -31l-69 -507l458 480q25 26 33 42t0.5 25.5t-30 14t-56.5 7.5l6 43h383l-6 -43q-31 -4 -54.5 -8t-42.5 -11t-35 -17t-32 -26l-485 -484l350 -515q14 -21 30 -32t38.5 -12.5t55 7.5t79.5 28l18 -36q-38 -29 -74.5 -52.5t-69 -39.5 t-60 -24.5t-46.5 -8.5q-15 0 -27.5 2.5t-23.5 10t-22 20t-23 32.5l-366 586l-72 -533q-3 -12 28.5 -29.5t94.5 -31.5l-6 -43h-410l6 43q63 14 101 30.5t40 30.5l146 1051q2 12 -29 30t-96 32l6 43h410z" />
<glyph unicode="L" horiz-adv-x="918" d="M848 244q-20 -87 -40.5 -151t-33.5 -93h-774l6 43q63 14 101 30.5t40 30.5l146 1051q2 12 -29 30t-96 32l6 43h410l-6 -43q-63 -14 -101 -31t-41 -31l-137 -1001q-2 -18 4 -30.5t24.5 -20t51 -10.5t82.5 -3h127q42 0 71.5 5t53.5 22.5t46 51.5t50 93z" />
<glyph unicode="M" horiz-adv-x="1511" d="M1532 1217q-27 0 -62 -9.5t-71 -26.5l-121 -1077q-2 -12 31 -29.5t98 -31.5l-6 -43h-410l6 43q63 14 103.5 30.5t42.5 30.5l108 955l-540 -1059h-41l-278 1047l-136 -943q-2 -12 28 -29.5t95 -31.5l-6 -43h-369l6 43q65 14 101.5 30.5t38.5 30.5l156 1075 q-31 21 -64.5 29.5t-59.5 8.5l6 43h265q8 0 13.5 -3t10 -12t9.5 -25.5t12 -43.5l249 -895l459 895q14 27 23.5 43.5t17 25.5t14 12t15.5 3h260z" />
<glyph unicode="N" horiz-adv-x="1239" d="M1288 1217q-66 -10 -99.5 -27.5t-35.5 -34.5l-164 -1186q-21 3 -38 7t-31 12t-26 21.5t-24 35.5l-497 959l-123 -900q-3 -12 25 -31t96 -30l-6 -43h-365l6 43q68 9 101.5 28t35.5 33l146 1050q-26 30 -57 42.5t-74 20.5l6 43h178q22 0 34.5 -1t22 -8.5t18 -23.5t23.5 -45 l484 -924l123 897q1 6 -5 14.5t-20.5 17t-38.5 16.5t-59 14l6 43h364z" />
<glyph unicode="O" horiz-adv-x="1116" d="M936 756q0 84 -18 158.5t-53 130t-86 88t-117 32.5q-76 0 -136.5 -29.5t-107.5 -78.5t-80 -114t-54.5 -135t-31.5 -141.5t-10 -134.5q0 -93 19.5 -172.5t55.5 -137t86.5 -90t112.5 -32.5q77 0 138.5 31t108 82.5t79.5 119t54 140.5t30.5 146.5t9.5 136.5zM1085 774 q0 -71 -11.5 -144t-35 -144t-58 -137.5t-79.5 -123.5q-42 -54 -89.5 -100.5t-101 -81t-113 -54.5t-126.5 -20q-96 0 -167.5 41t-119 111.5t-71 164.5t-23.5 199q0 63 11.5 133.5t33 141t52.5 137t71 121.5q42 56 90.5 105.5t104 86.5t118.5 58.5t134 21.5q98 0 170 -41 t118.5 -111.5t69 -164.5t22.5 -199z" />
<glyph unicode="P" horiz-adv-x="965" d="M975 942q0 -85 -33 -159.5t-90.5 -129.5t-134.5 -86.5t-164 -31.5q-38 0 -77 9.5t-66 24.5l-11 74q34 -14 67.5 -23.5t65.5 -9.5q66 0 121 21.5t94.5 60.5t61.5 93.5t22 119.5q0 84 -27 141.5t-73 93t-107 51t-128 15.5h-27q-13 0 -26 -1l-150 -1101q-2 -6 4 -13t23 -15 t47 -16t77 -17l-6 -43h-438l6 43q63 14 101 30.5t40 30.5l149 1091q-35 -5 -73 -12t-82 -18v60q42 15 86.5 27.5t95.5 20.5t109.5 12.5t126.5 4.5q96 0 173 -22t131 -66t83 -109t29 -151z" />
<glyph unicode="Q" horiz-adv-x="1135" d="M936 756q0 84 -18 158.5t-53 130t-86 88t-117 32.5q-76 0 -136.5 -29.5t-107.5 -78.5t-80 -114t-54.5 -135t-31.5 -141.5t-10 -134.5q0 -93 19.5 -172.5t55.5 -137t86.5 -90t112.5 -32.5q77 0 138.5 31t108 82.5t79.5 119t54 140.5t30.5 146.5t9.5 136.5zM1104 -117 q-29 -44 -57 -77.5t-53.5 -56t-46.5 -34.5t-36 -12q-56 0 -106 29t-98 71t-95.5 88.5t-97.5 80.5q-21 -3 -43 -3q-96 0 -167.5 41t-119 111.5t-71 164.5t-23.5 199q0 63 11.5 133.5t33 141t52.5 137t71 121.5q42 56 90.5 105.5t104 86.5t118.5 58.5t134 21.5q98 0 170 -41 t118.5 -111.5t69 -164.5t22.5 -199q0 -71 -11.5 -144t-35 -144t-58 -137.5t-79.5 -123.5q-54 -69 -115.5 -124.5t-133.5 -90.5q39 -24 75.5 -53.5t72 -55.5t70 -43.5t68.5 -17.5q12 0 24.5 4t29 13t38.5 24t53 37z" />
<glyph unicode="R" horiz-adv-x="1077" d="M1077 109q-39 -26 -77 -48.5t-70 -39t-57.5 -26t-38.5 -9.5q-17 0 -32.5 5t-31 19.5t-32.5 40t-36 66.5l-226 472q-29 2 -59.5 6t-55.5 10l-68 -501q-3 -12 28.5 -29.5t94.5 -31.5l-6 -43h-410l6 43q63 14 101 30.5t40 30.5l149 1089q-39 -5 -77.5 -11.5t-77.5 -14.5v60 q45 13 90.5 24.5t95.5 20t107 13.5t125 5q88 0 159.5 -20.5t122.5 -61t79 -100t28 -137.5q0 -39 -17.5 -95.5t-57 -112t-103.5 -102t-158 -64.5l234 -413q18 -32 34.5 -49t39 -21t55.5 5t84 28zM514 1206h-36q-18 0 -35 -1l-72 -527q29 -8 57.5 -12t56.5 -4q63 0 121 17.5 t102 52t70.5 87t26.5 123.5q0 74 -27.5 124.5t-70 81.5t-94 44.5t-99.5 13.5z" />
<glyph unicode="S" horiz-adv-x="899" d="M872 1198q4 -3 0 -13.5t-12.5 -24.5t-21 -30t-25.5 -30.5t-24.5 -25.5t-18.5 -15l-29 6q-17 24 -38 45.5t-46 38.5t-52.5 27t-57.5 10q-54 0 -96 -17.5t-70.5 -45t-43.5 -61.5t-15 -67q0 -22 7 -46t29 -50t62.5 -55.5t107.5 -63.5q79 -41 134 -78t89 -76.5t49 -84.5 t15 -101q0 -94 -39 -179t-105.5 -150t-155 -103.5t-187.5 -38.5q-38 0 -86.5 13t-92 34t-73 47t-29.5 52q0 12 12 35t28.5 46.5t35 40.5t31.5 17q12 0 29 -24.5t44.5 -54.5t68 -54.5t99.5 -24.5q61 0 113.5 20.5t91.5 56t61.5 83.5t22.5 104q0 41 -12 76.5t-42 69t-80 66.5 t-126 69q-66 31 -109 66.5t-67.5 72t-34.5 74.5t-10 74q0 66 30.5 131t86 116t134 83t175.5 32q72 0 133.5 -27.5t109.5 -64.5z" />
<glyph unicode="T" horiz-adv-x="1067" d="M684 0h-446l6 43q86 19 121.5 38.5t37.5 33.5l147 1054h-271q-13 0 -24.5 -5.5t-25.5 -23.5t-33 -52.5t-46 -92.5l-37 19q3 26 9.5 58.5t15 66t18 65t18.5 56.5h922l22 -25q-4 -24 -10 -54.5t-14 -62.5t-16.5 -63t-16.5 -56h-41q-2 50 -6 83t-11.5 52.5t-20 27t-32.5 7.5 h-257l-144 -1054q-2 -13 29 -33t112 -39z" />
<glyph unicode="U" horiz-adv-x="1227" d="M1280 1217q-63 -14 -98 -31t-37 -31l-90 -643q-18 -131 -61 -232.5t-107 -170.5t-147.5 -104.5t-182.5 -35.5q-82 0 -150.5 25t-117.5 73t-76 118.5t-27 162.5q0 53 9 115l98 692q2 12 -29 30t-96 32l6 43h410l-6 -43q-63 -14 -101.5 -31t-40.5 -31l-88 -645 q-4 -29 -5 -58t-1 -55q0 -70 17 -127t50.5 -98t83.5 -63.5t115 -22.5t120 32t97 85t69.5 122t37.5 144l92 686q2 12 -26 30t-93 32l6 43h375z" />
<glyph unicode="V" horiz-adv-x="1214" d="M1298 1217q-63 -13 -100 -25.5t-51 -40.5l-500 -1092q-10 -22 -30 -38t-43 -26.5t-44.5 -16.5t-33.5 -9l-240 1182q-5 26 -31.5 42t-85.5 24l6 43h398l-6 -43q-72 -5 -102 -20t-23 -46l190 -956l440 956q14 29 -18 42.5t-104 23.5l6 43h379z" />
<glyph unicode="W" horiz-adv-x="1571" d="M1665 1217q-29 -7 -55 -13t-46 -13t-33.5 -15.5t-17.5 -20.5l-360 -1096q-8 -22 -25.5 -38t-38 -26.5t-41 -16.5t-32.5 -9l-165 977l-384 -887q-10 -23 -30 -38.5t-42 -26t-43 -16.5t-33 -9l-73 1178q-2 25 -27 41t-90 29l6 43h391l-6 -43q-44 -5 -71 -12.5t-41.5 -16.5 t-19 -19.5t-3.5 -21.5l59 -893l437 1006h55l180 -1006l293 901q4 12 -4.5 21t-26.5 16t-43.5 13t-56.5 12l6 43h385z" />
<glyph unicode="X" horiz-adv-x="1171" d="M1085 0h-411l6 43q40 4 66 10.5t38.5 16t13 23.5t-9.5 34l-208 421l-293 -421q-31 -44 -2 -61t112 -23l-6 -43h-411l6 43q60 5 105 23.5t73 60.5l364 527l-235 479q-12 22 -23 36t-26 23t-35.5 14.5t-50.5 10.5l6 43h411l-6 -43q-78 -8 -105 -24t-5 -60l180 -365l256 365 q16 23 16 37.5t-15 24t-43.5 14.5t-68.5 8l7 43h411l-6 -43q-33 -4 -59 -9.5t-47.5 -15t-39 -24t-32.5 -35.5l-329 -467l267 -539q10 -21 23 -35.5t29.5 -24t37 -15t46.5 -9.5z" />
<glyph unicode="Y" horiz-adv-x="1145" d="M733 0h-446l6 43q87 19 122.5 38.5t37.5 33.5l59 436q-18 73 -47 157.5t-63.5 167t-71 156t-70.5 123.5q-10 15 -21.5 24t-28 13.5t-40.5 4t-59 -4.5l-9 43q27 7 59.5 14t64.5 13t60.5 10t47.5 4q26 0 51 -39q22 -33 46 -78t48.5 -96.5t47 -105t42 -105t34 -96.5 t22.5 -78l309 473q17 28 -5.5 42t-90.5 24l6 43h360l-6 -43q-63 -13 -98.5 -26.5t-52.5 -39.5l-390 -609l-59 -427q-1 -6 5.5 -14.5t23 -18.5t44 -20t68.5 -19z" />
<glyph unicode="Z" horiz-adv-x="1022" d="M242 100h485q20 0 38 9.5t36.5 34t39 66.5t46.5 107l49 -14q-6 -33 -13 -73.5t-14 -82t-14 -80t-12 -67.5h-834l-18 45l790 1122h-422q-15 0 -34.5 -11t-41 -35t-42.5 -63t-39 -95l-52 12l72 311q24 -10 44 -15t40 -7.5t41 -3t47 -0.5h572l18 -46z" />
<glyph unicode="[" horiz-adv-x="614" d="M740 1573q-6 -25 -17.5 -49.5t-19.5 -36.5h-262l-240 -1708h256l29 -29q-6 -20 -16.5 -44.5t-20.5 -41.5h-393l272 1935h385z" />
<glyph unicode="\" horiz-adv-x="819" d="M647 -336q-11 4 -27 10t-32.5 12.5t-31 14t-21.5 14.5l-390 1862l37 22q28 -8 58 -20t55 -29l387 -1861z" />
<glyph unicode="]" horiz-adv-x="614" d="M334 -336h-385l-29 29q8 23 18.5 48t18.5 38h262l240 1708h-254l-29 26q6 22 17 45.5t20 40.5h391z" />
<glyph unicode="^" horiz-adv-x="938" d="M854 635q-28 -23 -52.5 -38.5t-58.5 -31.5l-30 27l-160 723l-330 -680q-11 -10 -26 -20.5t-30.5 -20t-29.5 -17t-24 -12.5l-19 27l422 870q13 12 31 24.5t37 24.5t37 22t32 17z" />
<glyph unicode="_" horiz-adv-x="744" d="M684 -156q-6 -21 -17.5 -46t-21.5 -44h-749l-16 27q6 20 17 44t24 44h745z" />
<glyph unicode="`" horiz-adv-x="606" d="M565 1047q-20 -12 -32 -16t-30 -5l-250 386l32 36q12 2 30.5 4t39 3.5t39.5 2.5t32 1z" />
<glyph unicode="a" horiz-adv-x="922" d="M603 431q7 45 15.5 93.5t17 93.5t15 82.5t10.5 59.5q-15 12 -33 24.5t-38.5 23t-43 17t-46.5 6.5q-46 0 -86.5 -22.5t-75 -59.5t-62 -84.5t-46.5 -98t-29.5 -99.5t-10.5 -88q0 -65 11 -117t30 -89t45 -57t56 -20q24 0 58.5 30.5t72 79t74.5 108t66 117.5zM901 68 q-87 -57 -140.5 -83t-82.5 -26q-18 0 -34.5 12.5t-29.5 47t-20.5 95.5t-7.5 158q-26 -46 -63.5 -100.5t-80.5 -102t-88.5 -79t-87.5 -31.5q-33 0 -70.5 19t-69 60.5t-52.5 107t-21 159.5q0 79 18.5 154.5t55.5 144.5t90.5 129.5t124.5 108.5q27 18 59.5 35t67 30t68.5 21 t65 8q21 0 41 -5.5t38.5 -14.5t35.5 -19.5t32 -20.5q23 17 49 31.5t54 28.5l20 -35q-17 -14 -28 -25t-19.5 -25.5t-14.5 -35.5t-13 -55q-15 -72 -28.5 -147.5t-23 -142.5t-15 -118t-5.5 -73q0 -57 3.5 -96t9.5 -62.5t15 -34t21 -10.5q20 0 47.5 5.5t67.5 22.5z" />
<glyph unicode="b" horiz-adv-x="956" d="M604 803q-19 0 -55 -24.5t-79.5 -69t-89 -105t-82.5 -132.5q-11 -72 -16.5 -128.5t-5.5 -87.5q0 -26 15.5 -56t41.5 -55.5t58.5 -42t67.5 -16.5q36 0 67 13t57.5 33.5t47.5 46t37 50.5q23 36 37 75t22 78t11 76.5t3 71.5q0 69 -12.5 120.5t-32 85.5t-44 50.5t-48.5 16.5z M885 610q-2 -106 -31.5 -213.5t-101.5 -208.5q-34 -45 -75.5 -86.5t-90.5 -73t-105 -50.5t-119 -19q-21 0 -46.5 10.5t-52 29.5t-52 44t-45 53.5t-31.5 59.5t-12 61q0 26 6.5 82t17 131t24 163t27 179.5t27 181t24 166.5t17 136t6.5 90q0 23 -5 36.5t-13 20t-17 8.5t-18 2 t-25.5 -4.5t-33.5 -9.5q-19 -6 -41 -13l-13 39q42 19 86 36t82.5 30t67.5 21t41 8q28 0 38.5 -18t10.5 -64q0 -31 -5 -81.5t-13.5 -115t-20 -140t-24 -155.5t-25 -161.5t-24.5 -157.5q51 86 105.5 145t105.5 95.5t95.5 52.5t75.5 16q39 0 73 -21.5t58.5 -62.5t38.5 -102 t13 -140z" />
<glyph unicode="c" horiz-adv-x="795" d="M813 815q-21 -15 -44.5 -32t-45.5 -30.5t-41.5 -22.5t-32.5 -9q-11 0 -27 17t-37.5 38t-48.5 38t-59 17q-46 0 -84 -22t-69 -59t-54.5 -85.5t-39 -101t-23.5 -105.5t-8 -100q0 -65 14.5 -117t40.5 -88.5t62 -56.5t79 -20q18 0 46 6t64.5 22.5t81.5 44.5t99 72 q8 -11 17 -22t14 -19q-78 -71 -140 -114.5t-112.5 -67t-91 -31.5t-76.5 -8q-34 0 -76 17t-79.5 59t-63 112t-25.5 175q0 67 14 138.5t45.5 140t82 130.5t124.5 111q28 18 62 35t70.5 30t72 21t66.5 8q44 0 78.5 -17t61.5 -38.5t47.5 -41t35.5 -24.5z" />
<glyph unicode="d" horiz-adv-x="969" d="M621 424q9 60 21 136.5t26 161.5q-17 18 -36.5 37.5t-42 35.5t-47.5 26t-53 10q-46 0 -85.5 -22.5t-73 -59.5t-59.5 -84.5t-44 -98t-27.5 -99.5t-9.5 -88q0 -65 13.5 -117t35.5 -89t50 -57t57 -20q27 0 60 25t68.5 69.5t73 104.5t73.5 129zM924 68q-85 -57 -139.5 -83 t-88.5 -26q-19 0 -35 15.5t-27.5 53t-18.5 99.5t-7 154q-34 -63 -73.5 -121t-82.5 -103t-88 -71.5t-88 -26.5q-34 0 -73 20.5t-72.5 64t-55.5 111t-22 160.5q0 79 17 153.5t51.5 142t87 126t123.5 105.5q28 18 60.5 34.5t66.5 30t68 21.5t65 8q25 0 51 -16t52 -37 q12 73 22.5 143t18.5 130.5t13 109.5t5 80q0 23 -3.5 36.5t-10 20t-14.5 8.5t-17 2t-26.5 -4.5t-35.5 -9.5q-21 -6 -45 -13l-12 39q42 19 84.5 36t79 30t64.5 21t40 8q28 0 41.5 -18t13.5 -64q0 -39 -7 -101t-18.5 -139t-26 -164t-30 -175.5t-30 -174.5t-26 -160 t-18.5 -132.5t-7 -92.5q0 -116 11 -168.5t34 -52.5q26 0 53.5 5.5t62.5 20.5z" />
<glyph unicode="e" horiz-adv-x="805" d="M391 782q-33 -30 -64.5 -73t-57 -93t-42.5 -104.5t-21 -107.5q131 51 207.5 92.5t115.5 78.5t50 71t11 69q0 31 -8 53.5t-21 36t-29.5 20t-33.5 6.5q-16 0 -47 -11.5t-60 -37.5zM750 760q0 -28 -6.5 -59t-27 -64t-57 -69t-97 -74.5t-147.5 -80t-208 -86.5 q6 -56 23.5 -102t41 -79t51 -51.5t54.5 -18.5q21 0 51 4.5t69.5 19.5t89 44t109.5 77q11 -6 19.5 -19.5t11.5 -21.5q-82 -71 -145 -114.5t-112.5 -67t-89 -31.5t-75.5 -8q-33 0 -75 18.5t-79 59t-62.5 106t-25.5 160.5q0 78 19 153.5t54.5 145t87.5 131.5t118 113 q23 18 52 34.5t60.5 29t64 19.5t63.5 7q43 0 74.5 -15.5t52.5 -40.5t31 -56.5t10 -63.5z" />
<glyph unicode="f" horiz-adv-x="559" d="M903 1403q-21 -15 -45 -32.5t-47 -32t-42.5 -24t-31.5 -9.5q-13 0 -26 17.5t-29 38.5t-37 38.5t-49 17.5q-38 0 -67 -22.5t-51 -60t-38 -86t-27 -100.5t-18 -103t-12 -93l-6 -47h256l20 -28q-10 -14 -27 -30.5t-36 -31.5t-36.5 -27.5t-27.5 -17.5q-5 14 -15.5 22.5 t-28.5 13.5t-45 7t-64 2h-6l-72 -622q-13 -110 -44.5 -212.5t-79 -191t-109.5 -159t-136 -115.5l-26 63q50 28 90.5 88t71 138t50.5 165.5t29 169.5l78 676h-151l-15 31l101 59h75q10 80 23.5 154t38 140t65 123.5t103.5 104.5q27 19 52 36t51 30t53.5 20t58.5 7 q44 0 79.5 -16.5t63.5 -37t49.5 -39.5t36.5 -24z" />
<glyph unicode="g" horiz-adv-x="911" d="M338 96q21 0 57 33.5t77.5 89.5t84 130t75.5 155q4 38 8.5 79.5t12.5 88.5q3 21 8.5 40t12.5 36q-15 12 -33 26t-39.5 27t-46.5 21.5t-53 8.5q-46 0 -87 -22.5t-75.5 -59.5t-62 -84.5t-47 -98t-30 -99.5t-10.5 -88q0 -65 12 -117t32 -89t47 -57t57 -20zM879 901 q-34 -28 -53.5 -69t-28.5 -113q-14 -119 -20.5 -217t-11 -183.5t-11 -163t-20.5 -154.5q-18 -104 -63.5 -195t-108 -159t-138 -107.5t-153.5 -39.5q-42 0 -90.5 12.5t-89.5 30.5t-68.5 39t-27.5 39q0 17 13 38.5t30 40t33.5 31.5t23.5 13q8 0 16.5 -10t21 -24.5t30 -32 t42.5 -32t60 -24.5t82 -10q97 0 154 87t86 254q9 56 14.5 105.5t9 96t5.5 91t4 91.5q-32 -63 -74.5 -129.5t-90 -121.5t-96.5 -90.5t-93 -35.5q-33 0 -70.5 19t-70 60.5t-53.5 107t-21 159.5q0 79 18 154.5t54.5 144t91.5 129t129 109.5q28 18 60 35t66 30t67.5 21t64.5 8 q22 0 43 -6.5t40.5 -16.5t37 -22t33.5 -22q23 22 48.5 38t51.5 29z" />
<glyph unicode="h" horiz-adv-x="1012" d="M969 72q-93 -54 -153.5 -83.5t-102.5 -29.5q-29 0 -51.5 31.5t-22.5 85.5q0 18 6.5 64.5t16 108.5t20.5 132t20.5 133t16 113t6.5 73q0 38 -3 63.5t-10.5 41.5t-21 22.5t-35.5 6.5q-13 0 -46 -15.5t-75.5 -47t-88 -78.5t-83.5 -111q-27 -48 -45 -119.5t-32 -161.5 q-9 -55 -14 -97t-7.5 -74.5t-3 -58t1.5 -46.5q-13 -7 -32.5 -15.5t-40 -17.5t-39.5 -17.5t-31 -15.5l-33 31q9 54 22.5 133.5t29 175t32 201.5t32.5 211.5t30.5 206t25 185t17 148t6.5 95.5q0 23 -3.5 36.5t-9 20t-13 8.5t-15.5 2q-10 0 -28.5 -4.5t-38.5 -9.5 q-23 -6 -48 -13l-12 39q42 19 84.5 36t79.5 30t65 21t41 8q28 0 43.5 -18t15.5 -64q0 -24 -6 -79.5t-15.5 -127.5t-21.5 -154t-23.5 -158.5t-21.5 -140.5t-16 -100q58 72 115 121.5t111 79.5t103.5 43.5t94.5 13.5q63 0 90 -39.5t27 -136.5q0 -35 -6.5 -87t-16 -112 t-20.5 -124t-20.5 -121.5t-16 -105t-6.5 -75.5q0 -34 12 -46.5t24 -12.5q28 0 58 8.5t67 24.5z" />
<glyph unicode="i" horiz-adv-x="504" d="M455 72q-47 -28 -84.5 -49t-68.5 -35.5t-56 -21.5t-47 -7q-34 0 -54 31.5t-20 85.5q0 30 7.5 85.5t18.5 123t24 141t24 140t18.5 118.5t7.5 76q0 23 -3 36.5t-8 20t-13 8.5t-17 2q-8 0 -24.5 -3.5t-33.5 -8.5q-19 -5 -42 -12l-14 37q42 19 83.5 36.5t77.5 30.5t63 21 t40 8q28 0 39.5 -19t11.5 -65q0 -29 -7.5 -85.5t-19.5 -126.5t-25 -146.5t-25 -146.5t-19.5 -126.5t-7.5 -85.5q0 -31 6.5 -45t23.5 -14q31 0 59.5 8t69.5 25zM482 1262q0 -28 -8.5 -55.5t-24.5 -50t-39 -36.5t-51 -14q-31 0 -48 18t-17 52q0 27 9 54.5t25 50.5t38.5 37.5 t50.5 14.5q31 0 48 -18.5t17 -52.5z" />
<glyph unicode="j" horiz-adv-x="502" d="M375 870q0 -11 -2.5 -38.5t-6.5 -64.5t-8.5 -79.5t-9 -83t-8.5 -75t-6 -56.5q-4 -35 -8 -79.5t-10 -96.5t-13 -110.5t-17 -120.5q-20 -117 -49.5 -196.5t-64.5 -134t-74.5 -91t-80.5 -68.5q-27 -21 -59 -35.5t-63 -23.5t-58 -13t-45 -4q-28 0 -59 8t-57 20t-43 25t-17 23 q0 13 13 34t31 40.5t36.5 34t28.5 14.5q8 0 20 -13t32 -28t50 -28t74 -13q85 0 140 103t87 291q13 74 22 141t15 124t10 101.5t7 73.5q1 16 4 42.5t6 57t6.5 63t6.5 61.5t4.5 51.5t1.5 33.5q0 23 -3 36.5t-8.5 20t-13 8.5t-16.5 2t-25.5 -3.5t-33.5 -8.5q-19 -5 -41 -12 l-15 37q42 19 84 36.5t78 30.5t63 21t39 8q28 0 42 -12t14 -54zM458 1262q0 -28 -9 -55.5t-25.5 -50t-39.5 -36.5t-51 -14q-64 0 -64 70q0 27 8.5 54.5t24.5 50.5t38.5 37.5t51.5 14.5q31 0 48.5 -18.5t17.5 -52.5z" />
<glyph unicode="k" horiz-adv-x="899" d="M440 1417q0 -39 -6 -97.5t-15.5 -131.5t-22.5 -156.5t-27 -171.5t-28.5 -178t-27.5 -175l215 163q69 52 113 89t56.5 59.5t-11 32t-90.5 7.5l-4 39q59 8 113.5 20.5t117.5 12.5q48 0 62 -14t14 -48q0 -15 -21.5 -42t-63 -63.5t-100.5 -79.5t-134 -89l-117 -71 q26 -32 53 -77.5t53 -95t51.5 -98.5t49.5 -88t46 -63.5t42 -24.5q23 0 49.5 2.5t64.5 23.5l17 -34q-66 -56 -115.5 -81.5t-87.5 -25.5q-36 0 -70 34t-66.5 87t-63.5 117t-60.5 124t-57.5 108.5t-55 69.5q-13 -85 -23.5 -162t-17 -139.5t-7.5 -107t5 -65.5q-14 -7 -34.5 -16 t-41.5 -18.5t-41 -18t-32 -15.5l-35 31q4 29 14 94.5t24.5 154t32 194.5t34.5 216t33.5 218t29 201t20 165t7.5 110q0 25 -3 39t-9 21t-15 8.5t-21 1.5q-8 0 -26 -4.5t-36 -9.5q-21 -6 -46 -13l-14 39q42 19 85 36t80 30t65 21t40 8q14 0 25 -3t18.5 -13.5t11.5 -31t4 -55.5 z" />
<glyph unicode="l" horiz-adv-x="481" d="M436 72q-49 -31 -86.5 -52.5t-68 -35t-56.5 -19.5t-51 -6q-28 0 -50 30t-22 89q0 25 7.5 85t19.5 143t27.5 182.5t31.5 203.5t31.5 206t27.5 190t19.5 155.5t7.5 102.5q0 23 -4.5 36.5t-11.5 20t-16.5 8.5t-18.5 2q-8 0 -25.5 -4.5t-34.5 -9.5q-20 -6 -44 -13l-15 39 q42 19 84.5 36t79 30t64.5 21t41 8q28 0 44.5 -18t16.5 -64q0 -39 -7.5 -108t-19.5 -157.5t-28 -190t-32 -205.5t-32 -204.5t-28 -186.5t-19.5 -151.5t-7.5 -99.5t9.5 -46.5t25.5 -12.5q23 0 53.5 8t75.5 25z" />
<glyph unicode="m" horiz-adv-x="1477" d="M1413 72q-93 -54 -154 -83.5t-104 -29.5q-29 0 -49.5 31.5t-20.5 85.5q0 18 7 63t17 105.5t22.5 129.5t22.5 134.5t17 121.5t7 89q0 62 -12.5 88.5t-30.5 26.5q-19 0 -48 -13.5t-64 -42t-74.5 -73t-78.5 -105.5q-22 -35 -36.5 -69t-24 -70.5t-16.5 -77t-15 -88.5 q-14 -91 -17.5 -156t-0.5 -114q-14 -7 -34 -15.5t-41 -17.5t-40.5 -17.5t-32.5 -15.5l-32 31q22 102 42.5 212t36.5 208.5t25.5 175.5t9.5 114q0 76 -15.5 105t-43.5 29q-13 0 -40 -13t-62 -41.5t-74.5 -72.5t-77.5 -105q-21 -32 -35.5 -66t-25 -71.5t-19 -79.5t-16.5 -90 q-16 -91 -20.5 -156.5t-2.5 -113.5q-13 -7 -32.5 -15.5t-40 -17.5t-39.5 -17.5t-31 -15.5l-33 31q14 70 27.5 146.5t26 152.5t23.5 148.5t19 134.5t12.5 110.5t4.5 77.5q0 23 -3 36.5t-8.5 21t-12.5 9.5t-15 2q-10 0 -27.5 -4t-35.5 -9q-21 -6 -44 -13l-12 39q42 18 84 35 t78 30t63 21t39 8q15 0 24 -5t13.5 -17.5t6 -35t1.5 -57.5q0 -11 -1.5 -27.5t-3 -36t-4 -40.5t-3.5 -39q59 70 110.5 119.5t98 80t89 44.5t83.5 14q37 0 62 -15t39 -40t20 -56.5t6 -64.5q0 -19 -1 -34.5t-3 -37.5q58 67 107 114t91.5 77t81 43.5t76.5 13.5q29 0 53 -9.5 t41 -30.5t26 -54.5t9 -81.5q0 -38 -6.5 -91.5t-16.5 -113.5t-21 -123t-21 -119.5t-16.5 -103t-6.5 -74.5q0 -34 10 -45.5t27 -11.5q29 0 57.5 7.5t69.5 23.5z" />
<glyph unicode="n" horiz-adv-x="1012" d="M973 72q-91 -54 -154.5 -83.5t-101.5 -29.5q-35 0 -54.5 31.5t-19.5 85.5q0 18 6.5 64.5t16.5 108.5t22 132t22 133t16.5 113t6.5 73q0 76 -16 106t-60 30q-13 0 -45.5 -16t-73.5 -48t-85.5 -80t-81.5 -112q-28 -48 -45.5 -115t-34.5 -164q-16 -89 -20.5 -153t-2.5 -123 q-13 -7 -32.5 -15.5t-40 -17.5t-39.5 -17.5t-31 -15.5l-33 31q14 66 27.5 143t26 154.5t23.5 153t19 139t12.5 111.5t4.5 71t-2.5 36.5t-7 20t-11.5 8.5t-16 2t-26.5 -4t-35.5 -9q-21 -6 -45 -13l-14 39q42 18 84.5 35t79.5 30t64.5 21t39.5 8q14 0 22 -4.5t11.5 -16.5 t4.5 -34t1 -58q0 -11 -1 -30t-2.5 -40.5t-3.5 -42t-3 -32.5q54 68 109 117t108 80.5t102.5 46t94.5 14.5q31 0 55.5 -9t40.5 -29.5t24.5 -54t8.5 -81.5q0 -35 -6.5 -87t-16.5 -112.5t-22 -124.5t-22 -122t-16.5 -105.5t-6.5 -75.5q0 -34 9 -46.5t27 -12.5q23 0 53 8t72 25z " />
<glyph unicode="o" horiz-adv-x="864" d="M668 504q0 153 -56 234t-159 81q-72 0 -121 -41.5t-79 -104.5t-43 -136.5t-13 -137.5q0 -67 16.5 -126.5t46 -104t69 -70.5t85.5 -26t82.5 20.5t65 55t48.5 79t33 92.5t19 96t6 89zM811 559q0 -67 -15 -135.5t-44 -133t-71.5 -123t-98.5 -104.5q-26 -21 -55 -40 t-59 -33.5t-61 -22.5t-61 -8q-70 0 -124.5 29.5t-92 81t-57 122t-19.5 152.5q0 72 12 138.5t39 128.5t72 119t111 110q51 40 112 68t123 28q78 0 133 -28t89.5 -78t50.5 -119t16 -152z" />
<glyph unicode="p" horiz-adv-x="965" d="M610 805q-27 0 -68 -25t-86 -70.5t-89 -109t-76 -140.5l-25 -146q15 -30 42 -66.5t62 -68t75 -52.5t81 -21q54 0 95.5 29.5t64.5 83.5q18 39 29 81.5t16 84t6.5 79.5t1.5 68q0 70 -11 121.5t-29.5 85t-41.5 50t-47 16.5zM348 870q0 -30 -6.5 -84t-20.5 -142 q64 99 120 157t102.5 88t84.5 38.5t68 8.5q39 0 73 -20t60 -59.5t41 -97t15 -132.5q0 -100 -28 -212t-91 -227q-23 -40 -52.5 -80.5t-64.5 -73.5t-74.5 -54t-82.5 -21q-34 0 -66.5 20.5t-64 53.5t-60.5 75t-55 84l-31 -186q-34 -206 -42 -315.5t3 -137.5q-15 -4 -35 -10.5 t-41.5 -14t-41 -15t-32.5 -13.5l-32 29q4 29 14.5 90t25 143t31.5 179t34.5 197t34 198t29 181.5t20 147t7.5 95.5q0 23 -4 36.5t-11 20t-15 8.5t-17 2t-25.5 -3.5t-33.5 -8.5q-19 -5 -41 -12l-14 37q42 19 85 36.5t80.5 30.5t66 21t40.5 8q20 0 33.5 -13.5t13.5 -52.5z" />
<glyph unicode="q" horiz-adv-x="918" d="M348 96q26 0 60.5 29.5t72.5 77.5t76.5 108.5t72.5 121.5l54 327q-16 12 -34.5 24.5t-40 23t-46 17t-51.5 6.5q-46 0 -88 -22.5t-78.5 -59.5t-66.5 -84.5t-51.5 -98t-33.5 -99.5t-12 -88q0 -65 15 -117t39 -89t53.5 -57t58.5 -20zM895 901q-17 -14 -28 -25t-19.5 -25.5 t-14.5 -35.5t-12 -55q-22 -133 -44.5 -268t-42.5 -261.5t-36.5 -240t-25.5 -203.5t-10 -151t10 -83q-14 -5 -34 -11.5t-41.5 -13.5t-41.5 -14.5t-32 -13.5l-35 29q5 38 16 110.5t26 169t33.5 211.5t38.5 238q-35 -58 -75.5 -112t-83 -95.5t-85 -66.5t-82.5 -25q-33 0 -72 19 t-72.5 60.5t-56 107t-22.5 159.5q0 79 20.5 155.5t59.5 146t94.5 129.5t126.5 106q28 18 60 35t65.5 30t67 21t65.5 8q22 0 43 -6t41 -15t38 -19.5t35 -20.5q23 17 49 32t54 29z" />
<glyph unicode="r" horiz-adv-x="727" d="M768 850q-12 -16 -26.5 -39t-29 -44.5t-27.5 -36.5t-23 -15q-19 0 -32.5 11t-25 23.5t-23 23.5t-26.5 11q-26 0 -60.5 -35.5t-69 -93t-66 -129t-52.5 -143.5q-11 -38 -19.5 -83.5t-15 -93.5t-9.5 -94.5t-1 -86.5q-13 -7 -32.5 -15.5t-40 -17.5t-39.5 -17.5t-31 -15.5 l-33 31q15 71 29 147t26.5 151.5t23 147.5t18 134t12 111t4.5 79q0 23 -3.5 36.5t-9 20t-13 8.5t-15.5 2q-10 0 -27 -3.5t-34 -8.5q-20 -5 -42 -12l-14 37q42 19 84.5 36.5t79.5 30.5t64.5 21t39.5 8q14 0 22 -5t11.5 -17.5t4.5 -35t1 -57.5q0 -11 -3 -37t-7 -56.5 t-8.5 -60.5t-7.5 -49q48 99 91 161t81.5 97t73.5 47.5t67 12.5q18 0 32.5 -10t29.5 -24t32 -28.5t39 -23.5z" />
<glyph unicode="s" horiz-adv-x="711" d="M698 844q-20 -23 -39.5 -41.5t-36.5 -32.5t-30.5 -21.5t-20.5 -7.5q-13 0 -27.5 17.5t-33 38t-43 38t-57.5 17.5q-28 0 -55 -10.5t-48.5 -29t-35 -45t-13.5 -58.5q0 -35 33.5 -74t114.5 -76q41 -19 82 -44t73.5 -57.5t53 -74t20.5 -94.5q0 -69 -35.5 -129.5t-91 -105 t-123.5 -70t-133 -25.5q-47 0 -93 13.5t-82 34.5t-58.5 45.5t-22.5 45.5q0 11 12 32t28.5 41.5t33.5 36t28 15.5q7 0 14.5 -12.5t19 -31t27.5 -40.5t40 -40.5t56.5 -31t76.5 -12.5q35 0 66.5 13.5t55 36t37 53t13.5 65.5q0 39 -16 70.5t-42.5 57t-61.5 46.5t-73 39 q-53 25 -89 50t-58 51t-31.5 55t-9.5 61q0 63 31 115t80 89.5t109.5 58t119.5 20.5q51 0 86 -12t61.5 -28t46.5 -31t41 -21z" />
<glyph unicode="t" horiz-adv-x="629" d="M580 117q-49 -38 -98 -67.5t-93 -49.5t-79.5 -30.5t-57.5 -10.5q-25 0 -47.5 15t-40 41.5t-27.5 63.5t-10 81q0 19 1 38t2.5 39.5t4 43.5t6.5 51l77 483h-144l-15 31l101 59h72l6 35q6 41 12.5 68t15 45t18.5 29.5t23 21.5l101 72l28 -25q-7 -9 -15 -32q-7 -20 -16.5 -57 t-19.5 -99l-9 -58h249l20 -28q-10 -14 -27.5 -30.5t-36.5 -31.5t-36.5 -27.5t-26.5 -17.5q-6 14 -16.5 22.5t-28.5 13.5t-44.5 7t-63.5 2h-3l-71 -459q-3 -19 -5.5 -40.5t-4 -41t-2 -36.5t-0.5 -27q0 -62 22.5 -91.5t50.5 -29.5q35 0 85.5 15t125.5 49z" />
<glyph unicode="u" horiz-adv-x="1022" d="M975 68q-81 -54 -137.5 -81.5t-94.5 -27.5q-19 0 -37.5 17.5t-32 57.5t-19 104.5t1.5 158.5q-41 -74 -86.5 -136t-94.5 -107t-101 -70t-106 -25q-20 0 -45.5 15.5t-48 46.5t-38 77t-15.5 107q0 30 5.5 76t13.5 99t18 110t18 109t13.5 94.5t5.5 66.5q0 23 -3 36.5t-8.5 20 t-13 8.5t-16.5 2t-26 -3.5t-34 -8.5q-20 -5 -43 -12l-12 37q42 19 84.5 36.5t78.5 30.5t63.5 21t39.5 8q29 0 39 -19t10 -65q0 -29 -6 -76t-15 -103t-19 -116t-19 -116t-15 -103t-6 -76q0 -96 20.5 -139t57.5 -43q20 0 53 19.5t75 63t91.5 113.5t102.5 171q7 43 14.5 86.5 t14.5 84t11.5 77t4.5 65.5q0 23 -2.5 36.5t-7.5 20t-11.5 8.5t-15.5 2t-24.5 -3.5t-31.5 -8.5q-18 -5 -38 -12l-15 37q42 19 83 36.5t75.5 30.5t60.5 21t39 8q28 0 37 -19t9 -65q0 -29 -6 -75.5t-15 -102t-20 -116t-20 -117t-15 -105.5t-6 -82q0 -91 13 -134.5t38 -43.5 q26 0 52.5 6.5t62.5 21.5z" />
<glyph unicode="v" horiz-adv-x="913" d="M893 852q0 -32 -22 -95t-73 -165t-134.5 -247.5t-206.5 -342.5q-9 -5 -21 -10.5t-25 -11t-26 -11.5t-23 -10l-32 31q-7 56 -17 125.5t-21.5 143t-24.5 147.5t-25 139t-23.5 117t-19.5 83q-8 27 -17 43t-18.5 25t-18.5 11.5t-18 2.5q-10 0 -26 -3.5t-32 -8.5 q-18 -5 -40 -12l-13 37q42 19 81 36.5t71 30.5t56 21t36 8q15 0 25.5 -6.5t19 -21.5t17 -39.5t18.5 -59.5q7 -26 18.5 -81t24 -124t25.5 -143.5t23.5 -139.5t17 -111.5t6.5 -59.5q74 120 130 227t93.5 191.5t56.5 143.5t19 85q0 20 -17 30.5t-45 10.5q-17 0 -37.5 -3.5 t-42.5 -11.5l-18 35q28 15 60.5 29t63.5 25t57.5 17.5t43.5 6.5q35 0 54.5 -18t19.5 -66z" />
<glyph unicode="w" horiz-adv-x="1290" d="M1278 860q0 -27 -5 -62t-18.5 -84t-37.5 -114.5t-62.5 -152t-93 -196.5t-129.5 -249q-9 -5 -20.5 -10.5t-24.5 -11t-25 -11.5t-22 -10l-33 31q-7 56 -15.5 121.5t-18 133t-19.5 134t-20 125.5t-19.5 107t-18.5 79q-1 -21 -13 -63.5t-32 -99.5t-47 -123t-58 -135 t-64.5 -135.5t-67.5 -123.5q-9 -5 -21.5 -11.5t-26.5 -14t-27.5 -14.5t-23.5 -11l-32 31q-7 56 -14.5 124.5t-15 141t-15.5 145.5t-16 138t-16.5 118.5t-17.5 87.5q-6 27 -14.5 43t-18 25t-19.5 11.5t-19 2.5t-25 -3.5t-33 -8.5q-19 -5 -41 -12l-14 37q42 19 80 36.5 t69 30.5t54.5 21t36.5 8q28 0 42 -32.5t31 -104.5q6 -28 14 -78.5t16.5 -112.5t16.5 -129.5t15 -128.5t11.5 -110t6.5 -74q40 78 82 170.5t77 186.5t58.5 182.5t28.5 158.5q15 13 32.5 26t35 23t33 16.5t26.5 6.5q4 0 10 -16.5t13 -43.5t14.5 -62.5t14.5 -72.5l14 -74 q7 -37 12 -67q7 -47 16.5 -104t19 -117t18 -120t13.5 -112q75 138 122.5 243t74 183.5t36 133t9.5 92.5q0 21 -14.5 33t-40.5 12q-14 0 -34 -4t-42 -11l-18 37q34 20 65 33.5t55.5 21.5t41.5 11.5t24 3.5q17 0 32 -2.5t26.5 -10.5t18.5 -23t7 -40z" />
<glyph unicode="x" horiz-adv-x="901" d="M877 72q-43 -30 -76 -51.5t-59.5 -35t-48 -20t-40.5 -6.5q-30 0 -60.5 31.5t-60 84t-59 121t-57.5 142.5q-23 -31 -52.5 -69.5t-63 -82.5t-69.5 -93.5t-71 -102.5q-37 -5 -83 -12.5t-83 -18.5l-23 35q46 40 99 93t107.5 111t107 117.5t97.5 113.5q-29 76 -57 148 t-55.5 127.5t-53.5 89t-50 33.5q-9 0 -29.5 -4t-41.5 -9q-25 -6 -54 -13l-14 39q42 18 80.5 35.5t70.5 31t54.5 21.5t33.5 8q27 0 55 -34t57 -90.5t59 -129t60 -149.5q41 49 80 100t69 94.5t48.5 73.5t18.5 37q0 10 -3 18t-13 12t-29.5 4.5t-51.5 -2.5l-2 41q66 14 117 19.5 t76 5.5q48 0 67 -16t19 -37q0 -20 -23.5 -54.5t-69 -88t-113.5 -127t-156 -169.5q28 -72 55.5 -138.5t53.5 -117.5t51 -81.5t48 -30.5t53.5 7t67.5 26z" />
<glyph unicode="y" horiz-adv-x="926" d="M893 860q0 -34 -18.5 -87.5t-60 -143t-109 -222.5t-164.5 -325q-67 -131 -133.5 -238t-136.5 -183.5t-146 -118.5t-161 -42q-30 0 -56.5 5t-46 12.5t-31 16.5t-11.5 17q0 12 9.5 33.5t23.5 45t30.5 43t30.5 26.5q24 -16 42.5 -25t34.5 -13t32 -4.5t34 -0.5 q81 0 158.5 78.5t161.5 221.5q-10 58 -24.5 131t-32 150t-36.5 154.5t-38 145.5t-36.5 122.5t-32.5 85.5q-23 51 -39 66.5t-33 15.5q-9 0 -25.5 -3.5t-32.5 -8.5q-19 -5 -40 -12l-12 37q42 19 80 36.5t68.5 30.5t53.5 21t35 8q14 0 24.5 -7t20.5 -22t19.5 -39.5t21.5 -58.5 q19 -54 41.5 -127.5t45.5 -158.5t45 -176.5t40 -181.5q32 63 64.5 128.5t62.5 129.5t55.5 122.5t45 107.5t30.5 84.5t11 53.5q0 50 -53 53q-32 3 -91 -23l-18 37q72 42 126.5 60t88.5 18q17 0 32 -2.5t26 -10.5t17.5 -23t6.5 -40z" />
<glyph unicode="z" horiz-adv-x="776" d="M776 885q-82 -89 -148 -176.5t-128.5 -178t-127 -185t-143.5 -195.5q3 2 27 9t55 7q20 0 53.5 -9.5t73.5 -21.5t81.5 -21.5t78.5 -9.5q9 0 22 2.5t28 13.5t33 33t38 60l35 -20q-28 -62 -49 -103t-45.5 -65.5t-56.5 -34.5t-81 -10t-93 10.5t-83 23t-74.5 23t-66.5 10.5 q-16 0 -33 -5t-38.5 -15t-49.5 -24.5t-66 -33.5l-22 33q50 60 103.5 132.5t107.5 149t106.5 153t99.5 145t87 124t69 89.5h-301q-24 0 -40.5 -4.5t-30 -18t-25.5 -39t-27 -67.5l-39 8q19 90 37.5 154.5t26.5 107.5q19 -5 41 -13t57 -8h488z" />
<glyph unicode="{" horiz-adv-x="641" d="M741 1552q-40 -24 -75.5 -55t-64 -68.5t-48 -81.5t-27.5 -96q-8 -58 -6.5 -95t4 -69.5t3 -69.5t-8.5 -95q-6 -42 -23 -82t-43 -75.5t-61.5 -64.5t-77.5 -47q45 -9 74 -31.5t44 -56.5t17 -79.5t-6 -100.5q-8 -60 -20 -102t-24 -79t-23.5 -74t-18.5 -87q-8 -55 -6.5 -97.5 t15 -77t40.5 -64t72 -58.5l-28 -61q-73 34 -124 71.5t-80.5 83.5t-38.5 103t1 129q8 59 19.5 97.5t23.5 74t24 76t21 102.5q11 81 -21.5 122.5t-101.5 41.5h-18q-6 0 -11 -0.5t-12 -2t-20 -3.5l-9 53q115 31 179 92.5t75 136.5q6 40 7 69t0.5 52.5t-3 44t-3 43.5t0.5 52.5 t7 70.5q20 136 114 236.5t244 168.5z" />
<glyph unicode="|" horiz-adv-x="525" d="M213 -449q-10 -7 -24.5 -14.5t-30.5 -14t-31.5 -12.5t-27.5 -10l-29 25l282 2026q55 34 113 49l30 -22z" />
<glyph unicode="}" horiz-adv-x="641" d="M557 651q-114 -31 -178.5 -91.5t-75.5 -137.5q-6 -41 -7 -69.5t0 -51.5t3 -43t3 -43.5t0 -52.5t-7 -70q-10 -68 -39.5 -127t-76 -110t-108 -93.5t-134.5 -76.5l-19 49q40 24 76 54.5t64 68t47 82t26 96.5q6 39 7.5 67.5t1 52t-2.5 44.5t-2.5 44.5t0.5 52.5t6 69 q6 41 23 81t43.5 75t61.5 63.5t77 46.5q-45 10 -74 32.5t-43.5 56.5t-17 79.5t5.5 101.5q9 59 20.5 101t23.5 79t22.5 74t17.5 86q9 56 8 99t-14.5 77.5t-41.5 63t-73 57.5l31 61q74 -33 124.5 -70.5t80 -83.5t38.5 -102.5t-1 -128.5q-9 -59 -20 -98t-23 -74.5t-23.5 -76 t-19.5 -101.5q-13 -81 19 -122.5t101 -41.5h18q6 0 11 0.5t11.5 2t21.5 4.5z" />
<glyph unicode="~" horiz-adv-x="983" d="M964 774q-27 -49 -64 -101.5t-79.5 -96t-88 -71.5t-89.5 -28q-40 0 -80.5 25t-81.5 55t-81.5 55t-80.5 25q-46 0 -90.5 -39t-93.5 -123l-45 27q26 49 63 101.5t80 96t88.5 71.5t89.5 28q43 0 84.5 -25t82 -55t79 -55t76.5 -25q45 0 90 39t96 121z" />
<glyph unicode="&#xa2;" horiz-adv-x="823" d="M250 510q0 -51 11 -95t30.5 -78.5t46.5 -59.5t58 -38l97 707q-58 -14 -103.5 -60.5t-76.5 -109t-47 -133t-16 -133.5zM586 1050q14 2 28 3.5t27 1.5q44 0 78.5 -16.5t61.5 -37.5t47.5 -40.5t35.5 -24.5q-21 -15 -41.5 -33.5t-39 -34.5t-34.5 -26.5t-28 -10.5 q-10 0 -20.5 15.5t-27 36t-41 39.5t-60.5 26l-99 -723q18 1 42.5 8t56.5 24t72.5 45t92.5 71q8 -13 17 -23.5t14 -19.5q-55 -50 -99.5 -85.5t-82 -60.5t-68.5 -39.5t-59 -22.5l-19 -140q-9 -8 -15.5 -12.5t-12.5 -7.5t-13.5 -5t-19.5 -6l-19 22l19 138h-12q-23 0 -51 7 t-57.5 23.5t-57 44t-49.5 67.5t-35 94t-13 124q0 67 14 135.5t45.5 133.5t82.5 124.5t125 108.5q28 18 62.5 33t71.5 26l21 154q13 9 19 13.5t10.5 7t10.5 4.5t20 6l20 -23z" />
<glyph unicode="&#xa3;" horiz-adv-x="823" d="M523 537h-218q-7 -69 -22.5 -132t-37.5 -118.5t-48.5 -102.5t-54.5 -83q62 6 103 6t75.5 -2t70 -4t85.5 0q42 1 72 6t55.5 22t48.5 50.5t50 92.5l37 -18q-9 -43 -19.5 -82.5t-20.5 -73t-18.5 -58.5t-13.5 -40q-44 -25 -99 -28t-116.5 4t-126 18.5t-127.5 16.5 t-121.5 -2.5t-107.5 -38.5l-13 49q31 25 55.5 47t43.5 47.5t33.5 59.5t25.5 83t19.5 117.5t16.5 163.5h-103l-15 25q5 15 12.5 32t15.5 33h97q14 142 49.5 255t93 191.5t137.5 120t183 41.5q24 0 45.5 -2t45.5 -9.5t53.5 -21t68.5 -37.5q-5 -26 -13.5 -63t-19 -75.5t-21 -73 t-18.5 -53.5h-43q4 124 -41.5 180t-136.5 56q-24 0 -48.5 -5.5t-48.5 -23t-46 -51t-39.5 -90t-30 -140t-17.5 -199.5h226l20 -23z" />
<glyph unicode="&#xa5;" horiz-adv-x="823" d="M972 1179q-55 -12 -86 -25t-45 -39l-339 -591l-1 -13h210l17 -23l-28 -66h-210l-38 -311q-2 -12 24.5 -31.5t97.5 -37.5l-5 -42h-387l6 42q75 18 105.5 36.5t32.5 32.5l38 311h-213l-14 25l25 64h213l3 23q-16 71 -41.5 153t-55 161.5t-61.5 150.5t-61 120 q-9 14 -18.5 23t-24 13.5t-35.5 4t-51 -4.5l-8 42q23 6 51 13t56 13t52.5 9.5t41.5 3.5q22 0 44 -37q19 -32 40 -76t42 -93.5t41 -101.5t36.5 -101.5t29 -93.5t19.5 -76l268 458q16 26 -4 40.5t-79 23.5l5 42h312z" />
<glyph unicode="&#xa8;" horiz-adv-x="1042" d="M513 1262q0 -28 -9 -55.5t-25 -50t-39.5 -36.5t-51.5 -14q-32 0 -50 18t-18 52q0 27 9.5 54.5t26 50.5t40 37.5t51.5 14.5q31 0 48.5 -18.5t17.5 -52.5zM886 1262q0 -28 -9 -55.5t-25.5 -50t-40 -36.5t-52.5 -14q-31 0 -48.5 18t-17.5 52q0 27 9 54.5t25 50.5t39 37.5 t52 14.5q31 0 49.5 -18.5t18.5 -52.5z" />
<glyph unicode="&#xa9;" horiz-adv-x="1360" d="M1014 942q-38 -25 -72 -47.5t-57 -22.5q-10 0 -23.5 14t-32.5 31.5t-44.5 31.5t-59.5 14q-42 0 -78 -19t-65 -51t-52 -73.5t-38 -86.5t-23 -90t-8 -84q0 -54 17 -99t46 -77.5t67.5 -50t80.5 -17.5q16 0 37.5 6t51 21t68.5 39.5t89 62.5q8 -11 15.5 -19.5t12.5 -16.5 q-72 -60 -125.5 -96.5t-95.5 -56t-76.5 -26t-68.5 -6.5q-31 0 -73 14.5t-80 49t-64.5 93t-26.5 146.5q0 57 11 114.5t37 113t69 109t108 102.5q23 18 54 33t64.5 25t67 15.5t62.5 5.5q41 0 73 -14.5t56.5 -32.5t43 -34.5t32.5 -20.5zM1200 719q0 101 -30 189.5t-86 154 t-136 103.5t-180 38q-86 0 -163 -26.5t-143.5 -73t-120 -109.5t-91 -136.5t-58 -153.5t-20.5 -160q0 -102 30 -191t86.5 -155.5t136.5 -105t181 -38.5q86 0 163.5 26.5t143.5 73.5t119 110.5t90.5 137.5t57.5 154.5t20 161.5zM1280 752q0 -95 -22 -190t-64 -182t-102.5 -162 t-136.5 -130.5t-167 -87t-194 -31.5q-114 0 -206.5 43t-158 118t-100.5 177t-35 219q0 93 23 186t66 178t104 158t137 127t165.5 84.5t188.5 30.5q113 0 205.5 -41t158.5 -113t102 -170.5t36 -213.5z" />
<glyph unicode="&#xab;" horiz-adv-x="882" d="M58 414q2 19 5 34q2 13 3.5 24t3.5 13l372 404l34 -29l-11 -18q-11 -17 -29.5 -46t-42 -66t-48 -75.5t-47.5 -75.5t-41.5 -66t-29.5 -46t-10 -17l148 -414l-42 -29zM386 414q2 19 5 34q2 13 3.5 24t3.5 13l372 404l34 -29l-11 -18q-11 -17 -29.5 -46t-42 -66t-48 -75.5 t-47.5 -75.5t-41.5 -66t-29.5 -46t-10 -17l148 -414l-42 -29z" />
<glyph unicode="&#xad;" horiz-adv-x="641" d="M580 541q-8 -22 -20 -45.5t-21 -40.5h-478l-18 24q8 22 19.5 44t23.5 42h475z" />
<glyph unicode="&#xae;" horiz-adv-x="704" d="M736 1084q-10 -72 -41 -135t-77.5 -110t-105 -74t-122.5 -27q-65 0 -115.5 27t-83.5 74t-46.5 110t-3.5 135t41 135t77.5 110t104.5 74t123 27q64 0 115 -27t84 -74t46.5 -110t3.5 -135zM683 1084q8 59 -3.5 112t-39 92.5t-70 63t-96.5 23.5q-53 0 -100.5 -23.5 t-84.5 -63t-62 -92.5t-33 -112q-8 -60 3 -112.5t39 -92.5t70 -63t95 -23q54 0 101.5 23t85 63t62.5 92.5t33 112.5zM276 887l2 18q40 9 42 19l45 326l-39 -6l2 29q27 7 56.5 12.5t66.5 5.5q34 0 58.5 -9t40 -23.5t22 -33.5t3.5 -39q-7 -47 -36 -73.5t-70 -36.5l72 -142 q5 -11 15 -12.5t30 6.5l3 -18l-3 -2q-17 -9 -38.5 -18t-31.5 -9q-8 0 -15.5 6t-9.5 12l-71 171h-2q-14 0 -27 3l-21 -149q-2 -10 35 -19l-2 -18h-127zM436 1256h-10q-5 0 -10 -1l-20 -146q6 -2 11 -2h13q45 0 69.5 16t29.5 54q2 15 -1 29t-12.5 25t-26.5 18t-43 7z" />
<glyph unicode="&#xb4;" horiz-adv-x="606" d="M572 1374l-355 -348q-16 4 -23.5 11t-21.5 24l272 398q10 -3 25.5 -7.5t32.5 -10t32 -11.5t23 -11z" />
<glyph unicode="&#xb7;" horiz-adv-x="410" d="M336 678q0 -30 -10.5 -62t-29.5 -58t-46 -43t-61 -17q-40 0 -62 26.5t-22 71.5q0 28 11.5 59.5t31.5 57t47 42.5t59 17q38 0 60 -26t22 -68z" />
<glyph unicode="&#xb8;" horiz-adv-x="324" d="M220 -221q0 -53 -31 -97t-80.5 -68.5t-111 -24t-121.5 35.5l-2 39q52 -24 93 -25.5t69 11t42.5 35.5t14.5 47q0 26 -23 40.5t-70 12.5q14 37 23.5 65.5t16.5 53.5t12.5 48.5t11.5 51.5l68 -2q-8 -41 -14 -65.5t-13 -49.5q51 -2 83 -30.5t32 -77.5z" />
<glyph unicode="&#xbb;" horiz-adv-x="882" d="M806 485q0 -2 -1 -13t-3 -24l-4 -34l-376 -407l-34 29l261 414q1 -1 -10 29.5t-27.5 76t-36 99t-36.5 99t-28 75.5l-11 31l42 29zM478 485q0 -2 -1 -13t-3 -24l-4 -34l-376 -407l-34 29l261 414q1 -1 -10 29.5t-27.5 76t-36 99t-36.5 99t-28 75.5l-11 31l42 29z" />
<glyph unicode="&#x2c6;" horiz-adv-x="557" d="M661 1071q-14 -20 -21.5 -29t-23.5 -16l-208 265l-273 -265q-9 6 -16 15.5t-17 29.5l284 371h92z" />
<glyph unicode="&#x2da;" horiz-adv-x="448" d="M390 1243q0 35 -15 62.5t-46 27.5q-28 0 -49 -13t-35.5 -33.5t-21.5 -45.5t-7 -49q0 -37 16.5 -64.5t47.5 -27.5q27 0 47.5 13.5t34.5 34t21 46t7 49.5zM474 1280q0 -41 -17.5 -85.5t-48 -82t-71 -62t-86.5 -24.5q-26 0 -48 10t-38 27t-24.5 39t-8.5 47q0 45 17.5 91 t48 83.5t71.5 61.5t88 24q53 0 85 -36.5t32 -92.5z" />
<glyph unicode="&#x2dc;" horiz-adv-x="688" d="M764 1326q-21 -40 -47.5 -80t-57.5 -71.5t-66.5 -51t-74.5 -19.5q-32 0 -57.5 17t-49 37.5t-47 37.5t-49.5 17q-35 0 -71 -31.5t-78 -87.5l-43 21q21 40 47.5 79.5t58 71t67.5 51t74 19.5q33 0 60.5 -17t51.5 -37.5t45 -37.5t42 -17q35 0 73.5 31.5t76.5 87.5z" />
<glyph unicode="&#x374;" horiz-adv-x="606" d="M87 1061q-15 5 -23.5 11t-23.5 22l217 368q16 6 38 13t45.5 13.5t47 12t41.5 10.5l25 -34z" />
<glyph unicode="&#x375;" horiz-adv-x="606" d="M-131 -501q-15 5 -23.5 11t-23.5 22l217 368q16 6 38 13t45.5 13.5t47 12t41.5 10.5l25 -34z" />
<glyph unicode="&#x37a;" horiz-adv-x="0" d="M-472 -407q-20 -29 -42.5 -47t-43.5 -28.5t-39.5 -14t-30.5 -3.5q-15 0 -28.5 8t-21.5 26.5t-9 48t7 71.5q15 76 18.5 124.5t0.5 67.5q12 3 28 6.5t33 8t33.5 9.5t30.5 10h25l-24 -160q-8 -45 -11 -70.5t-2.5 -38.5t5 -16.5t10.5 -3.5q17 0 40 23z" />
<glyph unicode="&#x37b;" horiz-adv-x="804" d="M-20 -5q15 23 35 52.5t40 56t39 44.5t31 18t33 -15t49.5 -33t63.5 -33t77 -15q45 0 82 21.5t65 58t48.5 84.5t33.5 100t19.5 104.5t6.5 98.5q0 72 -17 124.5t-46.5 87t-69 51.5t-83.5 19q-23 1 -51 -5t-62 -21t-74 -40.5t-88 -63.5q-8 8 -16.5 19t-14.5 22 q59 58 107 97.5t93 63.5t91.5 34.5t102.5 10.5q49 0 98 -19.5t88 -62.5t63.5 -112.5t24.5 -168.5q0 -66 -13.5 -134t-41 -133.5t-71 -127t-103.5 -113.5q-69 -60 -136 -83t-129 -23q-39 0 -70 8t-59 14.5t-56 6t-60 -18.5q-9 9 -15.5 16t-14.5 10z" />
<glyph unicode="&#x37c;" horiz-adv-x="803" d="M598 522q0 -28 -8.5 -55.5t-24.5 -50t-39 -36.5t-51 -14q-31 0 -48 18t-17 52q0 27 9 54.5t25 50.5t38.5 37.5t50.5 14.5q31 0 48 -18.5t17 -52.5zM817 888q-17 -19 -34.5 -41.5t-34.5 -42t-32.5 -32.5t-27.5 -13t-30 10.5t-42.5 22.5t-56.5 22.5t-74 10.5 q-46 0 -84 -21.5t-68.5 -58t-53.5 -84.5t-38.5 -100t-23 -104.5t-7.5 -98.5q0 -72 17 -124.5t46.5 -87t69 -52t83.5 -18.5q55 -2 120.5 33.5t160.5 111.5q8 -8 16.5 -19t14.5 -22q-59 -53 -111.5 -94t-102 -69.5t-97.5 -43t-99 -14.5q-50 0 -97 19.5t-84.5 62.5t-60 112.5 t-22.5 168.5q0 66 14 136.5t44.5 138.5t77.5 128t113 105q30 20 65 39t71.5 34t72 24t66.5 9q27 0 52.5 -3.5t50.5 -7.5t50 -7t52 -1q9 -9 12.5 -17.5t11.5 -11.5z" />
<glyph unicode="&#x37d;" horiz-adv-x="804" d="M407 492q0 -28 -8.5 -55.5t-24.5 -50t-39 -36.5t-51 -14q-31 0 -48 18t-17 52q0 27 9 54.5t25 50.5t38.5 37.5t50.5 14.5q31 0 48 -18.5t17 -52.5zM-20 -5q15 23 35 52.5t40 56t39 44.5t31 18t33 -15t49.5 -33t63.5 -33t77 -15q45 0 82 21.5t65 58t48.5 84.5t33.5 100 t19.5 104.5t6.5 98.5q0 72 -17 124.5t-46.5 87t-69 51.5t-83.5 19q-23 1 -51 -5t-62 -21t-74 -40.5t-88 -63.5q-8 8 -16.5 19t-14.5 22q59 58 107 97.5t93 63.5t91.5 34.5t102.5 10.5q49 0 98 -19.5t88 -62.5t63.5 -112.5t24.5 -168.5q0 -66 -13.5 -134t-41 -133.5t-71 -127 t-103.5 -113.5q-69 -60 -136 -83t-129 -23q-39 0 -70 8t-59 14.5t-56 6t-60 -18.5q-9 9 -15.5 16t-14.5 10z" />
<glyph unicode="&#x37e;" horiz-adv-x="410" d="M383 866q0 -30 -10.5 -62t-29.5 -58t-46 -43t-61 -17q-41 0 -62.5 26.5t-21.5 71.5q0 28 11.5 59.5t31.5 57.5t47 43t59 17q37 0 59.5 -25.5t22.5 -69.5zM303 102q0 -26 -11.5 -60t-32 -72t-47.5 -78t-59 -77t-67 -68t-70 -52l-34 35q153 162 153 270q0 18 -5.5 35.5 t-18 29.5t-33 17.5t-51.5 1.5l-9 45q11 12 40.5 29t64 33t67 27.5t48.5 10.5q18 -10 30 -19.5t20 -23t11.5 -33.5t3.5 -51z" />
<glyph unicode="&#x384;" horiz-adv-x="480" d="M87 1061q-15 5 -23.5 11t-23.5 22l217 368q16 6 38 13t45.5 13.5t47 12t41.5 10.5l25 -34z" />
<glyph unicode="&#x385;" horiz-adv-x="771" d="M303 1061q-15 5 -23 11t-24 22l219 368q15 6 37 13t45.5 13.5t47 12t42.5 10.5l25 -34zM218 1229q0 -28 -9 -55.5t-25.5 -50t-40 -36.5t-52.5 -14q-31 0 -48.5 18t-17.5 52q0 27 9 54.5t25.5 50.5t40 37.5t52.5 14.5q31 0 48.5 -18.5t17.5 -52.5zM739 1229 q0 -28 -9 -55.5t-25.5 -50t-40 -36.5t-52.5 -14q-31 0 -48 18t-17 52q0 27 9 54.5t25.5 50.5t40 37.5t51.5 14.5q31 0 48.5 -18.5t17.5 -52.5z" />
<glyph unicode="&#x386;" horiz-adv-x="1407" d="M631 444l-143 -333q-14 -31 15.5 -44.5t106.5 -23.5l-6 -43h-379l6 43q63 12 101 25.5t51 42.5l487 1118q13 12 31 24.5t37 24t36.5 22t30.5 17.5l216 -1206q2 -14 7.5 -24.5t17.5 -19t32.5 -14.5t52.5 -10l-4 -43h-385l4 43q71 5 102 20.5t25 47.5l-58 333h-384z M999 535l-94 544l-235 -544h329zM87 962q-15 5 -23.5 11t-23.5 22l217 368q16 6 38 13t45.5 13.5t47 12t41.5 10.5l25 -34z" />
<glyph unicode="&#x387;" horiz-adv-x="410" d="M336 678q0 -30 -10.5 -62t-29.5 -58t-46 -43t-61 -17q-40 0 -62 26.5t-22 71.5q0 28 11.5 59.5t31.5 57t47 42.5t59 17q38 0 60 -26t22 -68z" />
<glyph unicode="&#x388;" horiz-adv-x="1393" d="M1303 244q-20 -87 -40.5 -151t-31.5 -93h-784l6 43q63 14 101 30.5t40 30.5l146 1051q2 12 -29 30t-96 32l6 43h737l25 -25q-5 -26 -12.5 -57t-17 -62t-19.5 -59t-19 -47h-43q5 46 4 76.5t-8 49t-19 26t-30 7.5h-335l-59 -434h374l20 -28q-10 -14 -22.5 -29t-26 -29.5 t-26.5 -27t-23 -21.5q-16 17 -34 27.5t-44.5 16.5t-65 8.5t-94.5 2.5h-69l-68 -501q-2 -15 3 -26.5t24 -20t55 -13t96 -4.5h121q42 0 71 5t52.5 22.5t45.5 51.5t50 93zM87 962q-15 5 -23.5 11t-23.5 22l217 368q16 6 38 13t45.5 13.5t47 12t41.5 10.5l25 -34z" />
<glyph unicode="&#x389;" horiz-adv-x="1682" d="M1025 1217q-63 -14 -101 -31t-41 -31l-61 -450h556l62 450q2 12 -29 30t-94 32l4 43h412l-6 -43q-63 -14 -101 -31t-40 -31l-146 -1051q-2 -12 29 -29.5t96 -31.5l-6 -43h-410l7 43q63 14 100 30.5t39 30.5l70 510h-556l-69 -510q-3 -12 28.5 -29.5t94.5 -31.5l-6 -43 h-410l6 43q63 14 101 30.5t40 30.5l146 1051q2 12 -29 30t-96 32l6 43h410zM87 962q-15 5 -23.5 11t-23.5 22l217 368q16 6 38 13t45.5 13.5t47 12t41.5 10.5l25 -34z" />
<glyph unicode="&#x38a;" horiz-adv-x="1041" d="M1045 1217q-63 -14 -101 -31t-40 -31l-146 -1051q-2 -12 29 -29.5t96 -31.5l-6 -43h-410l7 43q63 14 100.5 30.5t40.5 30.5l143 1051q2 12 -29 30t-94 32l7 43h409zM87 962q-15 5 -23.5 11t-23.5 22l217 368q16 6 38 13t45.5 13.5t47 12t41.5 10.5l25 -34z" />
<glyph unicode="&#x38c;" horiz-adv-x="1445" d="M1246 756q0 82 -19 156.5t-54 130.5t-86 89t-115 33q-75 0 -135 -29.5t-106.5 -78.5t-80.5 -114t-55.5 -135t-32 -141.5t-10.5 -134.5q0 -92 20.5 -170.5t56.5 -137t86.5 -91.5t110.5 -33q76 0 137 31t107.5 82.5t80 119t54.5 140.5t31 146.5t10 136.5zM1395 774 q0 -71 -11.5 -144t-35 -144t-58 -137.5t-79.5 -123.5q-42 -54 -89.5 -100.5t-101 -81t-113 -54.5t-126.5 -20q-96 0 -167.5 41t-119 111.5t-71 164.5t-23.5 199q0 63 11 134t32.5 141.5t52.5 137t72 120.5q42 56 90.5 105.5t104 86.5t118.5 58.5t134 21.5q98 0 170 -41 t118.5 -111.5t69 -164.5t22.5 -199zM87 962q-15 5 -23.5 11t-23.5 22l217 368q16 6 38 13t45.5 13.5t47 12t41.5 10.5l25 -34z" />
<glyph unicode="&#x38e;" horiz-adv-x="1631" d="M1643 1116q-24 4 -50 0.5t-54.5 -20t-60 -50t-67.5 -90.5q-28 -44 -66 -115.5t-75 -159.5t-68.5 -188t-45.5 -202l-24 -176q-1 -6 5 -14.5t22 -18.5t43 -20t68 -19l-5 -43h-441l5 43q85 19 121 38.5t38 33.5l24 176q16 115 7 225.5t-31.5 208t-53 179t-55.5 138.5 q-14 31 -34 64t-45.5 60t-57 44t-68.5 17l2 43q54 8 108.5 14t91.5 6q19 0 34.5 -10t28.5 -25t23.5 -33.5t19.5 -35.5q41 -75 70 -150.5t49 -152.5t32 -155t19 -157q23 63 54.5 137.5t65.5 147.5t68.5 138t64.5 110q78 114 157 157t155 23l13 -35zM87 962q-15 5 -23.5 11 t-23.5 22l217 368q16 6 38 13t45.5 13.5t47 12t41.5 10.5l25 -34z" />
<glyph unicode="&#x38f;" horiz-adv-x="1482" d="M338 0l-25 27q4 24 10.5 55t14.5 65t18 68t21 66h41q3 -85 13.5 -127.5t48.5 -42.5h198q-85 85 -137 163.5t-78.5 155t-30.5 152.5t7 157q9 65 33.5 131.5t62 128t88 114.5t112 92.5t133.5 62t153 22.5q99 0 176.5 -37t127.5 -105.5t69.5 -166t2.5 -219.5 q-13 -89 -45.5 -169t-86.5 -158t-129.5 -157t-173.5 -167h208q18 0 31.5 9.5t27 30t28.5 53.5t38 81l39 -19q-6 -29 -14.5 -64.5t-17.5 -71.5t-18 -70t-17 -60h-398l15 111q63 76 112.5 136t87.5 111t65.5 95.5t47 89t32 92t20.5 104.5q13 91 3.5 174t-42.5 147t-90.5 102 t-139.5 38q-62 0 -113.5 -23t-94 -60.5t-75 -85.5t-56 -98t-38 -98t-19.5 -85q-8 -60 -11 -109t1 -95t17 -91t37 -96.5t59 -111.5t85 -136l-15 -111h-419zM87 962q-15 5 -23.5 11t-23.5 22l217 368q16 6 38 13t45.5 13.5t47 12t41.5 10.5l25 -34z" />
<glyph unicode="&#x390;" horiz-adv-x="539" d="M492 219q-67 -127 -133 -193.5t-144 -66.5q-134 0 -94 231l80 459q10 58 13 92t-8.5 50.5t-41 21t-84.5 4.5l6 39q63 11 136.5 31t139.5 49h31l-108 -647q-12 -67 -13.5 -104t3 -55t14.5 -22t22 -4q23 0 61.5 32t86.5 114zM279 1061q-15 5 -23 11t-24 22l219 368 q15 6 37 13t45.5 13.5t47 12t42.5 10.5l25 -34zM194 1229q0 -28 -9 -55.5t-25.5 -50t-40 -36.5t-52.5 -14q-31 0 -48.5 18t-17.5 52q0 27 9 54.5t25.5 50.5t40 37.5t52.5 14.5q31 0 48.5 -18.5t17.5 -52.5zM715 1229q0 -28 -9 -55.5t-25.5 -50t-40 -36.5t-52.5 -14 q-31 0 -48 18t-17 52q0 27 9 54.5t25.5 50.5t40 37.5t51.5 14.5q31 0 48.5 -18.5t17.5 -52.5z" />
<glyph unicode="&#x391;" horiz-adv-x="1147" d="M371 444l-143 -333q-14 -31 15.5 -44.5t106.5 -23.5l-6 -43h-379l6 43q63 12 101 25.5t51 42.5l487 1118q13 12 31 24.5t37 24t36.5 22t30.5 17.5l216 -1206q2 -14 7.5 -24.5t17.5 -19t32.5 -14.5t52.5 -10l-4 -43h-385l4 43q71 5 102 20.5t25 47.5l-58 333h-384z M739 535l-94 544l-235 -544h329z" />
<glyph unicode="&#x392;" horiz-adv-x="1034" d="M551 1206q-30 0 -57 -0.5t-51 -1.5l-65 -479h32q70 0 135.5 11t116 40t80.5 80t30 131q0 61 -21.5 103t-54.5 68t-72 37t-73 11zM518 649q-44 0 -81 -4.5t-71 -9.5l-73 -531q-3 -8 11 -19q19 -9 42 -15.5t47.5 -10t48.5 -5t45 -1.5q66 0 119.5 27.5t91.5 72.5t59 103 t21 119q0 50 -14.5 99t-45.5 88t-80.5 63t-119.5 24zM934 410q0 -98 -38 -179t-103 -139t-151 -90.5t-181 -32.5q-20 0 -48 1t-59.5 3.5t-65 5t-65.5 5.5q-75 7 -157 16h-66l6 43q63 14 101 30.5t40 30.5l149 1089q-45 -6 -82 -13t-73 -15v62q46 13 94 24.5t101 20t113 13.5 t129 5q81 0 145.5 -17t110 -49.5t70 -79t24.5 -104.5q0 -52 -16.5 -101t-46 -90.5t-70 -74t-88.5 -51.5q51 -12 92.5 -40t71.5 -68.5t46.5 -92.5t16.5 -112z" />
<glyph unicode="&#x393;" horiz-adv-x="902" d="M0 0l5 43q63 14 101.5 30.5t40.5 30.5l146 1051q2 12 -30 30t-95 32l6 43h768l24 -25q-5 -26 -15 -66t-22.5 -83.5t-26 -85.5t-24.5 -70h-43q13 127 9 183t-38 56h-369l-145 -1065q-1 -7 5.5 -13.5t25 -13.5t51.5 -15.5t86 -18.5l-5 -43h-455z" />
<glyph unicode="&#x394;" horiz-adv-x="1112" d="M806 166q-35 168 -68 329q-14 69 -29 142.5t-29.5 146.5t-28 140.5t-24.5 124.5q-29 -63 -62.5 -135t-68 -146t-69 -147t-65.5 -140q-74 -158 -148 -315q-9 -19 -12 -29.5t5 -16t31 -6.5t66 -1h394q44 0 68 1t34 6.5t9.5 16t-3.5 29.5zM956 0h-899l-7 51q114 239 220 462 q45 95 92.5 195.5t92 196t84 181.5t69.5 151q12 12 26.5 23.5t30.5 21.5t31 19t28 16q13 -74 31 -167.5t39 -196.5t43 -209.5t43 -206.5q49 -235 102 -486z" />
<glyph unicode="&#x395;" horiz-adv-x="946" d="M856 244q-20 -87 -40.5 -151t-31.5 -93h-784l6 43q63 14 101 30.5t40 30.5l146 1051q2 12 -29 30t-96 32l6 43h737l25 -25q-5 -26 -12.5 -57t-17 -62t-19.5 -59t-19 -47h-43q5 46 4 76.5t-8 49t-19 26t-30 7.5h-335l-59 -434h374l20 -28q-10 -14 -22.5 -29t-26 -29.5 t-26.5 -27t-23 -21.5q-16 17 -34 27.5t-44.5 16.5t-65 8.5t-94.5 2.5h-69l-68 -501q-2 -15 3 -26.5t24 -20t55 -13t96 -4.5h121q42 0 71 5t52.5 22.5t45.5 51.5t50 93z" />
<glyph unicode="&#x396;" horiz-adv-x="1022" d="M242 100h485q20 0 38 9.5t36.5 34t39 66.5t46.5 107l49 -14q-6 -33 -13 -73.5t-14 -82t-14 -80t-12 -67.5h-834l-18 45l790 1122h-422q-15 0 -34.5 -11t-41 -35t-42.5 -63t-39 -95l-52 12l72 311q24 -10 44 -15t40 -7.5t41 -3t47 -0.5h572l18 -46z" />
<glyph unicode="&#x397;" horiz-adv-x="1235" d="M578 1217q-63 -14 -101 -31t-41 -31l-61 -450h556l62 450q2 12 -29 30t-94 32l4 43h412l-6 -43q-63 -14 -101 -31t-40 -31l-146 -1051q-2 -12 29 -29.5t96 -31.5l-6 -43h-410l7 43q63 14 100 30.5t39 30.5l70 510h-556l-69 -510q-3 -12 28.5 -29.5t94.5 -31.5l-6 -43 h-410l6 43q63 14 101 30.5t40 30.5l146 1051q2 12 -29 30t-96 32l6 43h410z" />
<glyph unicode="&#x398;" horiz-adv-x="1192" d="M825 469h-39q-2 34 -7.5 56.5t-12.5 36t-14.5 19t-13.5 5.5h-280q-6 0 -15.5 -5t-20.5 -17.5t-22.5 -35.5t-22.5 -59h-39l78 360h39q1 -34 4.5 -56t9 -35t11.5 -18t12 -5h282q6 0 16 4.5t22.5 16.5t25.5 34.5t24 58.5h38zM976 629q9 69 7 136.5t-15.5 128t-38 112.5 t-59 89.5t-79 59t-97.5 21.5q-85 0 -157 -38t-128 -107.5t-94 -168.5t-55 -221q-16 -112 -1 -212t54 -175.5t98.5 -119.5t131.5 -44q78 0 148.5 34.5t127.5 102.5t98 169t59 233zM1117 647q-13 -91 -44 -176t-76.5 -160.5t-103 -138t-122 -107.5t-133.5 -70t-139 -25 q-111 0 -191 53t-128.5 142t-64.5 205t2 242q12 91 43 176.5t76 160.5t101.5 138t121.5 108t135 70t142 25q115 0 195 -54.5t127 -144.5t61.5 -206t-2.5 -238z" />
<glyph unicode="&#x399;" horiz-adv-x="614" d="M618 1217q-63 -14 -101 -31t-40 -31l-146 -1051q-2 -12 29 -29.5t96 -31.5l-6 -43h-410l7 43q63 14 100.5 30.5t40.5 30.5l143 1051q2 12 -29 30t-94 32l7 43h409z" />
<glyph unicode="&#x39a;" horiz-adv-x="1121" d="M578 1217q-63 -14 -101 -31t-41 -31l-143 -1051q-3 -12 28.5 -29.5t94.5 -31.5l-6 -43h-410l6 43q63 14 101 30.5t40 30.5l146 1051q2 12 -29 30t-96 32l6 43h410zM1077 111q-38 -29 -74.5 -52.5t-69 -39.5t-60 -24.5t-46.5 -8.5q-15 0 -27.5 2.5t-23.5 10t-22 20 t-23 32.5l-364 592l458 485q25 26 33 42t0.5 25.5t-30 14t-56.5 7.5l6 43h383l-6 -43q-31 -4 -54.5 -8t-42.5 -11t-35 -17t-32 -26l-481 -484l346 -515q14 -21 30 -32t38.5 -12.5t55 7.5t79.5 28z" />
<glyph unicode="&#x39b;" horiz-adv-x="1124" d="M663 0l5 43q71 5 101.5 20.5t23.5 47.5l-159 938l-411 -938q-13 -31 18 -45t103 -23l-5 -43h-374l5 43q63 12 100.5 25.5t51.5 42.5l492 1126q24 25 57 45.5t59 34.5l210 -1206q5 -28 28 -44t80 -24l-5 -43h-380z" />
<glyph unicode="&#x39c;" horiz-adv-x="1511" d="M1532 1217q-27 0 -62 -9.5t-71 -27.5l-121 -1076q-2 -12 31 -29.5t98 -31.5l-6 -43h-410l6 43q63 14 103.5 30.5t42.5 30.5l108 954q-3 -5 -5.5 -9t-4.5 -9l-530 -1040h-41l-278 1047l-136 -943q-2 -12 28 -29.5t95 -31.5l-6 -43h-369l6 43q65 14 101.5 30.5t38.5 30.5 l156 1075q-31 21 -64.5 29.5t-59.5 8.5l6 43h265q8 0 13.5 -3t10 -12t9.5 -25.5t12 -43.5l249 -895l459 895q14 27 23.5 43.5t17 25.5t14 12t15.5 3h260z" />
<glyph unicode="&#x39d;" horiz-adv-x="1239" d="M1288 1217q-66 -10 -99.5 -27.5t-35.5 -34.5l-164 -1186q-21 3 -38 7t-31 12t-26 21.5t-24 35.5l-497 959l-123 -900q-3 -12 25 -31t96 -30l-6 -43h-365l6 43q68 9 101.5 28t35.5 33l146 1050q-26 30 -57 42.5t-74 20.5l6 43h178q22 0 34.5 -1t22 -8.5t18 -23.5t23.5 -45 l484 -924l123 897q1 6 -5 14.5t-20.5 17t-38.5 16.5t-59 14l6 43h364z" />
<glyph unicode="&#x39e;" horiz-adv-x="977" d="M708 469h-39q-2 34 -7 56.5t-12.5 36t-15 19t-13.5 5.5h-236q-6 0 -14.5 -5t-19 -17.5t-22.5 -35.5t-23 -59h-38l76 360h39q1 -34 5 -56t9 -35t11.5 -18t12.5 -5h236q6 0 16.5 4.5t22.5 16.5t25 34.5t24 58.5h39zM1017 1235q-4 -26 -10.5 -57t-15 -64.5t-18 -68 t-19.5 -66.5h-40q-3 42 -6 71t-9.5 47t-18.5 25.5t-32 7.5h-488q-19 0 -33.5 -7t-28 -25t-28.5 -48t-36 -75l-35 18q5 29 14 64.5t19.5 72t21 70.5t18.5 60h721zM730 139q18 0 31 5t25.5 20.5t27.5 44t38 76.5l37 -19q-6 -29 -14.5 -64.5t-17.5 -71.5t-18 -70t-17 -60h-790 l-27 27q8 49 23.5 116.5t31.5 137.5h42q4 -42 9 -69t13 -43.5t21 -23t33 -6.5h552z" />
<glyph unicode="&#x39f;" horiz-adv-x="1135" d="M936 756q0 82 -19 156.5t-54 130.5t-86 89t-115 33q-75 0 -135 -29.5t-106.5 -78.5t-80.5 -114t-55.5 -135t-32 -141.5t-10.5 -134.5q0 -92 20.5 -170.5t56.5 -137t86.5 -91.5t110.5 -33q76 0 137 31t107.5 82.5t80 119t54.5 140.5t31 146.5t10 136.5zM1085 774 q0 -71 -11.5 -144t-35 -144t-58 -137.5t-79.5 -123.5q-42 -54 -89.5 -100.5t-101 -81t-113 -54.5t-126.5 -20q-96 0 -167.5 41t-119 111.5t-71 164.5t-23.5 199q0 63 11 134t32.5 141.5t52.5 137t72 120.5q42 56 90.5 105.5t104 86.5t118.5 58.5t134 21.5q98 0 170 -41 t118.5 -111.5t69 -164.5t22.5 -199z" />
<glyph unicode="&#x3a0;" horiz-adv-x="1180" d="M0 0l5 43q63 14 100.5 30.5t39.5 30.5l146 1051q2 12 -28.5 30t-93.5 32l6 43h1055l-6 -43q-64 -14 -101.5 -31t-39.5 -31l-146 -1051q-2 -12 29 -29.5t94 -31.5l-5 -43h-406l5 43q63 14 100 30.5t39 30.5l140 1006q1 12 -9 24t-32 22t-55 16.5t-78 6.5h-149 q-43 -1 -76 -7.5t-56 -16t-35.5 -21.5t-13.5 -24l-140 -1006q-2 -12 28.5 -29.5t93.5 -31.5l-5 -43h-406z" />
<glyph unicode="&#x3a1;" horiz-adv-x="985" d="M975 942q0 -85 -33 -159.5t-90.5 -129.5t-134.5 -86.5t-164 -31.5q-38 0 -77 9.5t-66 24.5l-11 74q34 -14 67.5 -23.5t65.5 -9.5q66 0 121 21.5t94.5 60.5t61.5 93.5t22 119.5q0 84 -27 141.5t-73 93t-107 51t-128 15.5h-27q-13 0 -26 -1l-150 -1101q-2 -6 4 -13t23 -15 t47 -16t77 -17l-6 -43h-438l6 43q63 14 101 30.5t40 30.5l149 1091q-35 -5 -73 -12t-82 -18v60q42 15 86.5 27.5t95.5 20.5t109.5 12.5t126.5 4.5q96 0 173 -22t131 -66t83 -109t29 -151z" />
<glyph unicode="&#x3a3;" horiz-adv-x="1027" d="M898 345q-8 -40 -17.5 -89t-19.5 -97t-19 -90t-15 -69h-786l-23 43l476 592l-293 582l6 43h655q23 0 46 1.5t47 5t52 9.5l-38 -301l-52 -12q-6 74 -17 114t-23.5 58t-26.5 21t-27 3h-422l240 -485l-432 -535h479q28 0 47.5 9.5t37 34t35 66.5t43.5 108z" />
<glyph unicode="&#x3a4;" horiz-adv-x="1067" d="M1118 1235q-4 -24 -10 -54.5t-14 -62.5t-16.5 -63t-16.5 -56h-41q-2 50 -6 83t-11.5 52.5t-20 27t-32.5 7.5h-257l-144 -1054q-2 -13 29 -33t112 -39l-6 -43h-446l6 43q86 19 121.5 38.5t37.5 33.5l147 1054h-271q-13 0 -24.5 -5.5t-25.5 -23.5t-33 -52.5t-46 -92.5 l-37 19q3 26 9.5 58.5t15 66t18 65t18.5 56.5h922z" />
<glyph unicode="&#x3a5;" horiz-adv-x="1091" d="M1103 1116q-24 4 -50 0.5t-54.5 -20t-60 -50t-67.5 -90.5q-28 -44 -66 -115.5t-75 -159.5t-68.5 -188t-45.5 -202l-24 -176q-1 -6 5 -14.5t22 -18.5t43 -20t68 -19l-5 -43h-441l5 43q85 19 121 38.5t38 33.5l24 176q16 115 7 225.5t-31.5 208t-53 179t-55.5 138.5 q-14 31 -34 64t-45.5 60t-57 44t-68.5 17l2 43q54 8 108.5 14t91.5 6q19 0 34.5 -10t28.5 -25t23.5 -33.5t19.5 -35.5q41 -75 70 -150.5t49 -152.5t32 -155t19 -157q23 63 54.5 137.5t65.5 147.5t68.5 138t64.5 110q78 114 157 157t155 23l13 -35z" />
<glyph unicode="&#x3a6;" horiz-adv-x="1230" d="M269 641q-12 -87 4 -152.5t52 -111t87 -73t108 -39.5l103 743q-83 -8 -145.5 -43.5t-106 -87t-69 -113.5t-33.5 -123zM1017 626q11 79 -4 142.5t-49.5 110.5t-85.5 77.5t-113 43.5l-103 -742q80 8 142 40t106 81.5t70.5 113t36.5 133.5zM352 0l5 43q63 14 101 30.5 t40 30.5l9 67q-55 5 -108 18.5t-99 37.5t-83.5 59.5t-61.5 84t-33 111t2 141.5q12 89 54.5 168t109 140.5t154.5 102.5t192 54l10 67q2 12 -29 30t-94 32l6 43h406l-6 -43q-63 -14 -100.5 -31t-39.5 -31l-9 -63q87 -7 162.5 -36.5t128.5 -84t78.5 -135.5t10.5 -191 q-14 -102 -60 -185t-115 -144t-154.5 -98t-178.5 -47l-9 -67q-2 -12 28.5 -29.5t93.5 -31.5l-5 -43h-406z" />
<glyph unicode="&#x3a7;" horiz-adv-x="1171" d="M1085 0h-411l6 43q40 4 66 10.5t38.5 16t13 23.5t-9.5 34l-208 421l-293 -421q-31 -44 -2 -61t112 -23l-6 -43h-411l6 43q60 5 105 23.5t73 60.5l364 527l-235 479q-12 22 -23 36t-26 23t-35.5 14.5t-50.5 10.5l6 43h411l-6 -43q-78 -8 -105 -24t-5 -60l180 -365l256 365 q16 23 16 37.5t-15 24t-43.5 14.5t-68.5 8l7 43h411l-6 -43q-33 -4 -59 -9.5t-47.5 -15t-39 -24t-32.5 -35.5l-329 -467l267 -539q10 -21 23 -35.5t29.5 -24t37 -15t46.5 -9.5z" />
<glyph unicode="&#x3a8;" horiz-adv-x="1289" d="M382 0l5 43q63 14 100.5 30.5t39.5 30.5l53 383q-99 7 -168.5 34.5t-111 74.5t-57 113.5t-6.5 150.5q12 110 15.5 179t-0.5 108.5t-16 54.5t-32 17l-91 8l2 43q26 3 56 6.5t58.5 6.5t52 5t37.5 2q30 0 50 -15t29.5 -55t7.5 -110t-15 -180q-11 -88 -1 -150t36.5 -102 t69 -61.5t98.5 -28.5l79 567q2 12 -28.5 30t-93.5 32l6 43h406l-6 -43q-64 -14 -101 -31t-39 -31l-79 -567q70 10 121 38.5t86 73t57 103t36 127.5q21 104 38 173.5t35.5 111t40.5 58.5t53 17q12 0 36.5 -2t53.5 -5t58.5 -6.5t52.5 -6.5l-10 -43l-101 -9q-17 -2 -30 -14 t-26.5 -48.5t-29 -103t-36.5 -175.5q-13 -68 -48 -133t-92 -118.5t-134.5 -90t-174.5 -46.5l-53 -385q-2 -12 28.5 -29.5t93.5 -31.5l-5 -43h-406z" />
<glyph unicode="&#x3a9;" horiz-adv-x="1192" d="M48 0l-25 27q4 24 10.5 55t14.5 65t18 68t21 66h41q3 -85 13.5 -127.5t48.5 -42.5h198q-85 85 -137 163.5t-78.5 155t-30.5 152.5t7 157q9 65 33.5 131.5t62 128t88 114.5t112 92.5t133.5 62t153 22.5q99 0 176.5 -37t127.5 -105.5t69.5 -166t2.5 -219.5 q-13 -89 -45.5 -169t-86.5 -158t-129.5 -157t-173.5 -167h208q18 0 31.5 9.5t27 30t28.5 53.5t38 81l39 -19q-6 -29 -14.5 -64.5t-17.5 -71.5t-18 -70t-17 -60h-398l15 111q63 76 112.5 136t87.5 111t65.5 95.5t47 89t32 92t20.5 104.5q13 91 3.5 174t-42.5 147t-90.5 102 t-139.5 38q-62 0 -113.5 -23t-94 -60.5t-75 -85.5t-56 -98t-38 -98t-19.5 -85q-8 -60 -11 -109t1 -95t17 -91t37 -96.5t59 -111.5t85 -136l-15 -111h-419z" />
<glyph unicode="&#x3aa;" horiz-adv-x="614" d="M618 1217q-63 -14 -101 -31t-40 -31l-146 -1051q-2 -12 29 -29.5t96 -31.5l-6 -43h-410l7 43q63 14 100.5 30.5t40.5 30.5l143 1051q2 12 -29 30t-94 32l7 43h409zM369 1599q0 -28 -9 -55.5t-25 -50t-39.5 -36.5t-51.5 -14q-32 0 -50 18t-18 52q0 27 9.5 54.5t26 50.5 t40 37.5t51.5 14.5q31 0 48.5 -18.5t17.5 -52.5zM742 1599q0 -28 -9 -55.5t-25.5 -50t-40 -36.5t-52.5 -14q-31 0 -48.5 18t-17.5 52q0 27 9 54.5t25 50.5t39 37.5t52 14.5q31 0 49.5 -18.5t18.5 -52.5z" />
<glyph unicode="&#x3ab;" horiz-adv-x="1091" d="M1103 1116q-24 4 -50 0.5t-54.5 -20t-60 -50t-67.5 -90.5q-28 -44 -66 -115.5t-75 -159.5t-68.5 -188t-45.5 -202l-24 -176q-1 -6 5 -14.5t22 -18.5t43 -20t68 -19l-5 -43h-441l5 43q85 19 121 38.5t38 33.5l24 176q16 115 7 225.5t-31.5 208t-53 179t-55.5 138.5 q-14 31 -34 64t-45.5 60t-57 44t-68.5 17l2 43q54 8 108.5 14t91.5 6q19 0 34.5 -10t28.5 -25t23.5 -33.5t19.5 -35.5q41 -75 70 -150.5t49 -152.5t32 -155t19 -157q23 63 54.5 137.5t65.5 147.5t68.5 138t64.5 110q78 114 157 157t155 23l13 -35zM630 1599q0 -28 -9 -55.5 t-25 -50t-39.5 -36.5t-51.5 -14q-32 0 -50 18t-18 52q0 27 9.5 54.5t26 50.5t40 37.5t51.5 14.5q31 0 48.5 -18.5t17.5 -52.5zM1003 1599q0 -28 -9 -55.5t-25.5 -50t-40 -36.5t-52.5 -14q-31 0 -48.5 18t-17.5 52q0 27 9 54.5t25 50.5t39 37.5t52 14.5q31 0 49.5 -18.5 t18.5 -52.5z" />
<glyph unicode="&#x3ac;" horiz-adv-x="1022" d="M322 106q22 0 53.5 27t68 73t76.5 106.5t80 127.5q-10 73 -22.5 143.5t-32 125.5t-48 88.5t-69.5 33.5q-29 0 -70 -28.5t-78.5 -85t-63.5 -141t-26 -197.5q0 -130 36 -201.5t96 -71.5zM1030 915q-41 -36 -81 -87.5t-80.5 -111.5t-80.5 -127t-80 -135q9 -51 21 -104 t25.5 -96t27.5 -70.5t25 -27.5q16 0 35.5 9.5t38.5 25.5t35.5 35.5t27.5 39.5q13 -8 19 -15t14 -15q-11 -26 -27.5 -56.5t-36.5 -61t-42.5 -59.5t-45 -51t-45 -35.5t-41.5 -13.5q-25 0 -43 21.5t-31.5 65t-24.5 108.5t-23 151q-44 -71 -88 -134t-88 -110t-87.5 -74.5 t-87.5 -27.5q-33 0 -70.5 19t-69 60.5t-52.5 107t-21 159.5q0 72 16 146.5t46 144.5t71.5 132t92.5 108t110 73t123 27q49 0 80 -25t50 -69.5t29.5 -107t18.5 -137.5q26 47 49 91.5t42.5 83.5t34.5 71t24 54q43 9 86 21t90 26q6 -11 8.5 -16.5t5.5 -12.5zM563 1061 q-15 5 -23.5 11t-23.5 22l217 368q16 6 38 13t45.5 13.5t47 12t41.5 10.5l25 -34z" />
<glyph unicode="&#x3ad;" horiz-adv-x="819" d="M866 872q-45 -66 -71 -99.5t-40 -33.5q-10 0 -33.5 15t-55.5 33.5t-70 33.5t-76 15q-46 0 -81.5 -13.5t-60 -37t-37 -55t-12.5 -68.5q0 -22 15.5 -45.5t46 -43.5t76 -33t104.5 -13q32 0 61.5 4t54.5 10l14 -21l-46 -104q-31 10 -66 15t-67 5q-57 0 -105.5 -13 t-84.5 -37.5t-56.5 -60.5t-20.5 -81q0 -29 16.5 -57t46.5 -49.5t72 -34.5t93 -13q45 0 80 3.5t70 17t74.5 39t92.5 69.5l31 -43q-57 -57 -109 -98t-104.5 -67.5t-107.5 -39t-117 -12.5q-67 0 -121 17t-91.5 46.5t-58 69.5t-20.5 86q0 48 18 91.5t48.5 79.5t71.5 64.5 t87 47.5q-60 25 -93.5 65.5t-33.5 102.5q0 46 18.5 86.5t49 74.5t70 61.5t81 46t81.5 28.5t73 10q47 0 83 -7t67 -15t59 -13.5t59 -1.5q9 -5 14 -11t11 -16zM523 1061q-15 5 -23.5 11t-23.5 22l217 368q16 6 38 13t45.5 13.5t47 12t41.5 10.5l25 -34z" />
<glyph unicode="&#x3ae;" d="M895 762q0 -20 -4.5 -62.5t-12.5 -100.5t-18.5 -128t-22 -143.5t-23 -147.5t-22.5 -141q-16 -104 -23.5 -175.5t-9 -119t1.5 -74t9 -40.5q-15 -5 -36.5 -13.5t-45 -19t-45 -20.5t-35.5 -17l-33 29q4 29 13 85t21 130t26.5 160.5t28.5 176t27 176.5t23.5 162t16.5 132.5 t6 88.5q0 76 -20 106t-62 30q-14 0 -47.5 -20t-75.5 -57t-87 -88.5t-83 -115.5q-27 -45 -46 -110t-31 -144q-14 -89 -19.5 -153t-3.5 -123q-13 -7 -32.5 -15.5t-40 -17.5t-39.5 -17.5t-31 -15.5l-33 31q14 66 27.5 143t26 154.5t23.5 153t19 139t12.5 111.5t4.5 71 t-2.5 36.5t-7 20t-11.5 8.5t-16 2t-26.5 -4t-35.5 -9q-21 -6 -45 -13l-14 39q42 18 84.5 35t79.5 30t64.5 21t39.5 8q14 0 22 -4.5t11.5 -16.5t4.5 -34t1 -58q0 -11 -1.5 -34t-4 -49t-5 -50.5t-3.5 -36.5q55 69 111 122t110 89t104.5 54t94.5 18q32 0 58 -9t44.5 -29.5 t28.5 -54t10 -81.5zM583 1061q-15 5 -23.5 11t-23.5 22l217 368q16 6 38 13t45.5 13.5t47 12t41.5 10.5l25 -34z" />
<glyph unicode="&#x3af;" horiz-adv-x="539" d="M492 219q-67 -127 -133 -193.5t-144 -66.5q-134 0 -94 231l80 459q10 58 13 92t-8.5 50.5t-41 21t-84.5 4.5l6 39q63 11 136.5 31t139.5 49h31l-108 -647q-12 -67 -13.5 -104t3 -55t14.5 -22t22 -4q23 0 61.5 32t86.5 114zM314 1061q-15 5 -23.5 11t-23.5 22l217 368 q16 6 38 13t45.5 13.5t47 12t41.5 10.5l25 -34z" />
<glyph unicode="&#x3b0;" horiz-adv-x="965" d="M887 588q-10 -69 -37 -142t-67.5 -143t-92.5 -132.5t-112.5 -109.5t-126.5 -74.5t-134 -27.5q-24 0 -59.5 13t-68.5 47t-55.5 93t-18.5 150q2 54 15 118t27.5 131t26 131t11.5 118q0 23 -3 36.5t-8.5 20t-13 8.5t-16.5 2t-26 -3.5t-34 -8.5q-20 -5 -43 -12l-12 37 q42 19 84.5 36.5t78.5 30.5t63.5 21t39.5 8q29 0 39 -19t10 -65q0 -57 -12 -129t-27 -145.5t-29 -141.5t-18 -117q-11 -120 23 -179.5t102 -59.5q42 0 83.5 22t78.5 58.5t69.5 83.5t58 97.5t42 100.5t22.5 93q9 60 6 111t-18 90.5t-42.5 66t-68.5 35.5l-10 38 q18 8 42.5 16.5t50.5 17t50.5 15t43.5 11.5q58 -20 82.5 -110t3.5 -238zM533 1061q-15 5 -23 11t-24 22l219 368q15 6 37 13t45.5 13.5t47 12t42.5 10.5l25 -34zM448 1229q0 -28 -9 -55.5t-25.5 -50t-40 -36.5t-52.5 -14q-31 0 -48.5 18t-17.5 52q0 27 9 54.5t25.5 50.5 t40 37.5t52.5 14.5q31 0 48.5 -18.5t17.5 -52.5zM969 1229q0 -28 -9 -55.5t-25.5 -50t-40 -36.5t-52.5 -14q-31 0 -48 18t-17 52q0 27 9 54.5t25.5 50.5t40 37.5t51.5 14.5q31 0 48.5 -18.5t17.5 -52.5z" />
<glyph unicode="&#x3b1;" horiz-adv-x="1022" d="M322 106q22 0 53.5 27t68 73t76.5 106.5t80 127.5q-10 73 -22.5 143.5t-32 125.5t-48 88.5t-69.5 33.5q-29 0 -70 -28.5t-78.5 -85t-63.5 -141t-26 -197.5q0 -130 36 -201.5t96 -71.5zM1030 915q-41 -36 -81 -87.5t-80.5 -111.5t-80.5 -127t-80 -135q9 -51 21 -104 t25.5 -96t27.5 -70.5t25 -27.5q16 0 35.5 9.5t38.5 25.5t35.5 35.5t27.5 39.5q13 -8 19 -15t14 -15q-11 -26 -27.5 -56.5t-36.5 -61t-42.5 -59.5t-45 -51t-45 -35.5t-41.5 -13.5q-25 0 -43 21.5t-31.5 65t-24.5 108.5t-23 151q-44 -71 -88 -134t-88 -110t-87.5 -74.5 t-87.5 -27.5q-33 0 -70.5 19t-69 60.5t-52.5 107t-21 159.5q0 72 16 146.5t46 144.5t71.5 132t92.5 108t110 73t123 27q49 0 80 -25t50 -69.5t29.5 -107t18.5 -137.5q26 47 49 91.5t42.5 83.5t34.5 71t24 54q43 9 86 21t90 26q6 -11 8.5 -16.5t5.5 -12.5z" />
<glyph unicode="&#x3b2;" horiz-adv-x="948" d="M307 762q-20 -140 -36 -254.5t-30 -211.5q15 -39 37 -78.5t51 -71.5t63 -52t73 -20q53 0 95.5 23t75 60t54 83.5t31.5 93.5q20 91 12.5 165t-37.5 126t-79 80t-113 28q-25 0 -53 -6t-54 -12l4 78q62 13 115.5 48.5t94.5 84.5t67 107t33 116q7 63 -0.5 111t-26 80.5 t-46 49t-61.5 16.5q-57 0 -99 -52t-73.5 -140.5t-55 -205.5t-42.5 -246zM864 379q-8 -38 -23.5 -83.5t-40 -92t-58 -90.5t-76.5 -78.5t-95 -55t-114 -20.5q-23 0 -55 12.5t-65.5 36t-64.5 56t-52 71.5q-13 -99 -21 -173.5t-12.5 -131t-5.5 -96.5t0.5 -70t5 -51.5t9.5 -39.5 q-16 -5 -39 -14.5t-47 -20.5t-45.5 -21.5t-34.5 -16.5l-33 29q7 55 20.5 159t33 248.5t44 324t52.5 386.5q12 87 31 186t46.5 196t65.5 186t90 156.5t119 108t153 40.5q45 0 84.5 -25t67 -65t41.5 -90t9 -100q-5 -46 -15.5 -98t-35.5 -106t-69.5 -109.5t-117.5 -107.5 q72 -2 128 -32t90 -86.5t43 -137.5t-13 -184z" />
<glyph unicode="&#x3b3;" horiz-adv-x="924" d="M954 913q-60 -104 -118 -218.5t-112.5 -234t-105 -240t-96.5 -235.5q-1 -25 -1.5 -62t-2 -78.5t-2.5 -84.5t-2.5 -80.5t-3 -66.5t-2.5 -41q-35 -17 -77.5 -36t-74.5 -36q-6 6 -13 12.5t-19 16.5q40 165 50.5 285.5t10.5 185.5q0 16 -5.5 60.5t-15 106t-23 134t-30 146 t-34.5 142t-37.5 121.5t-40 85t-39.5 32q-9 0 -29.5 -4t-41.5 -9q-25 -6 -54 -13l-15 39q42 18 84 35.5t78 31t62 21.5t37 8q23 0 45.5 -39t45.5 -107.5t47 -162t50 -203.5q5 -21 10 -49.5t10 -61t10 -67t9 -68.5q45 91 83 179t69 176t55 178.5t41 185.5q18 4 40.5 10.5 t45.5 13t45.5 12.5t40.5 11z" />
<glyph unicode="&#x3b4;" horiz-adv-x="872" d="M653 398q0 63 -13.5 121.5t-36.5 114t-52.5 108t-60.5 102.5q-63 -32 -112.5 -71.5t-85.5 -89.5t-57 -112.5t-26 -141.5q-6 -92 15 -159t57 -111t80 -65.5t83 -21.5q44 0 82 21.5t66.5 63.5t44.5 102.5t16 138.5zM943 1364q-74 -62 -116.5 -91t-61.5 -29q-11 0 -31 14 t-45.5 34.5t-55.5 44.5t-61 44.5t-62 34.5t-59 14q-25 0 -40 -18.5t-15 -66.5q0 -51 28.5 -109.5t71 -124.5t92.5 -139t92.5 -153.5t71 -168.5t28.5 -184q0 -99 -30 -190.5t-83 -162t-125 -112.5t-156 -42q-68 0 -129 28t-105 81.5t-68 130.5t-19 175q5 100 39.5 183 t87.5 149.5t120 116t137 83.5q-32 49 -62 97.5t-53 96t-37 95t-14 95.5q0 44 13.5 83.5t38.5 69.5t60 48t79 18q50 0 93.5 -12.5t83 -30t75 -36t69 -31.5t65 -16.5t63.5 10.5q6 -5 9 -10t11 -19z" />
<glyph unicode="&#x3b5;" horiz-adv-x="819" d="M799 872q-45 -66 -71 -99.5t-40 -33.5q-10 0 -33.5 15t-55.5 33.5t-70 33.5t-76 15q-46 0 -81.5 -13.5t-60 -37t-37 -55t-12.5 -68.5q0 -22 15.5 -45.5t46 -43.5t76 -33t104.5 -13q32 0 61.5 4t54.5 10l14 -21l-46 -104q-31 10 -66 15t-67 5q-57 0 -105.5 -13 t-84.5 -37.5t-56.5 -60.5t-20.5 -81q0 -29 16.5 -57t46.5 -49.5t72 -34.5t93 -13q45 0 80 3.5t70 17t74.5 39t92.5 69.5l31 -43q-57 -57 -109 -98t-104.5 -67.5t-107.5 -39t-117 -12.5q-67 0 -121 17t-91.5 46.5t-58 69.5t-20.5 86q0 48 18 91.5t48.5 79.5t71.5 64.5 t87 47.5q-60 25 -93.5 65.5t-33.5 102.5q0 46 18.5 86.5t49 74.5t70 61.5t81 46t81.5 28.5t73 10q47 0 83 -7t67 -15t59 -13.5t59 -1.5q9 -5 14 -11t11 -16z" />
<glyph unicode="&#x3b6;" horiz-adv-x="725" d="M905 1397q-58 -34 -132.5 -92.5t-151.5 -133.5t-151 -163t-132 -180t-93.5 -185.5t-35.5 -179.5q0 -61 18 -107.5t47.5 -81.5t67.5 -62t77 -50t77 -44t67.5 -44.5t47.5 -52t18 -66.5q0 -40 -13 -82.5t-46 -93t-90 -113t-144 -143.5q-24 12 -37 35q46 54 78.5 97.5 t53.5 79.5t30.5 66t9.5 56q0 35 -17.5 61t-46.5 48t-66 42t-76 43.5t-76 53t-66 68.5t-46.5 91.5t-17.5 122.5q0 83 25.5 171t70.5 176.5t106.5 175t133 166t150 149.5t157.5 125q-52 -16 -98.5 -29.5t-84.5 -23t-66.5 -14.5t-44.5 -5q-12 0 -27 3t-27.5 9t-21 15.5 t-8.5 23.5v178q14 5 28 7.5t27 -1.5q2 -10 6.5 -29t15 -38.5t28.5 -34t48 -14.5q25 0 68 3.5t98.5 11t121 18.5t134.5 26q0 -12 3 -28.5t3 -30.5z" />
<glyph unicode="&#x3b7;" d="M895 762q0 -20 -4.5 -62.5t-12.5 -100.5t-18.5 -128t-22 -143.5t-23 -147.5t-22.5 -141q-16 -104 -23.5 -175.5t-9 -119t1.5 -74t9 -40.5q-15 -5 -36.5 -13.5t-45 -19t-45 -20.5t-35.5 -17l-33 29q4 29 13 85t21 130t26.5 160.5t28.5 176t27 176.5t23.5 162t16.5 132.5 t6 88.5q0 76 -20 106t-62 30q-14 0 -47.5 -20t-75.5 -57t-87 -88.5t-83 -115.5q-27 -45 -46 -110t-31 -144q-14 -89 -19.5 -153t-3.5 -123q-13 -7 -32.5 -15.5t-40 -17.5t-39.5 -17.5t-31 -15.5l-33 31q14 66 27.5 143t26 154.5t23.5 153t19 139t12.5 111.5t4.5 71 t-2.5 36.5t-7 20t-11.5 8.5t-16 2t-26.5 -4t-35.5 -9q-21 -6 -45 -13l-14 39q42 18 84.5 35t79.5 30t64.5 21t39.5 8q14 0 22 -4.5t11.5 -16.5t4.5 -34t1 -58q0 -11 -1.5 -34t-4 -49t-5 -50.5t-3.5 -36.5q55 69 111 122t110 89t104.5 54t94.5 18q32 0 58 -9t44.5 -29.5 t28.5 -54t10 -81.5z" />
<glyph unicode="&#x3b8;" horiz-adv-x="952" d="M600 1299q-118 0 -200 -139t-120 -411q128 -9 248 -6.5t238 10.5q7 114 -0.5 213.5t-28.5 173.5t-55.5 116.5t-81.5 42.5zM440 80q130 0 208 148t109 428q-119 5 -244 2.5t-245 -7.5q-11 -118 -3.5 -222t30 -181.5t59.5 -122.5t86 -45zM901 690q-20 -151 -68.5 -284 t-115.5 -232.5t-147.5 -157t-164.5 -57.5q-90 0 -151.5 54.5t-95 149.5t-39.5 225t14 282q13 101 40 195.5t64.5 178t84 152.5t97.5 119t105.5 77.5t108.5 27.5q61 0 108 -26t81 -73.5t56 -114t31.5 -147.5t7 -174.5t-15.5 -194.5z" />
<glyph unicode="&#x3b9;" horiz-adv-x="539" d="M492 219q-67 -127 -133 -193.5t-144 -66.5q-134 0 -94 231l80 459q10 58 13 92t-8.5 50.5t-41 21t-84.5 4.5l6 39q63 11 136.5 31t139.5 49h31l-108 -647q-12 -67 -13.5 -104t3 -55t14.5 -22t22 -4q23 0 61.5 32t86.5 114z" />
<glyph unicode="&#x3ba;" horiz-adv-x="987" d="M930 230q-21 -42 -47 -90t-54.5 -88t-58.5 -66.5t-59 -26.5q-35 0 -62 35.5t-50 89.5t-42.5 116t-39.5 116t-40.5 89.5t-45.5 35.5q-11 0 -24.5 -10.5t-27.5 -28.5q-28 -44 -54.5 -90.5t-46.5 -95t-32.5 -98t-12.5 -98.5q-14 -6 -32 -14t-36.5 -16t-36.5 -16.5t-30 -14.5 l-32 31q17 63 33 138t31 153t27.5 154t22 141t14.5 114t5 72t-2.5 36.5t-7 20t-11.5 8.5t-16 2t-26.5 -4t-35.5 -9q-21 -6 -45 -13l-14 39q42 18 84.5 35t79.5 30t64.5 21t39.5 8q14 0 22 -4.5t11.5 -16.5t4.5 -34t1 -58q0 -12 -2.5 -40.5t-6.5 -65.5t-9.5 -79.5t-12 -82.5 t-13 -74t-13.5 -55q71 103 131.5 178t110.5 127t91.5 84.5t74.5 52.5t58.5 30t43.5 17q46 17 82 19t73 2q7 -9 9.5 -16t5.5 -13q-12 -25 -27 -52t-28.5 -48.5t-25.5 -35.5t-18 -13q-18 1 -32.5 2t-29.5 -0.5t-31.5 -5t-37.5 -9.5q-20 -5 -47.5 -18.5t-60.5 -36t-69.5 -55 t-72.5 -75.5q8 3 13.5 4t10.5 1q30 0 54 -32t44 -79.5t37.5 -103.5t35.5 -103.5t38 -79.5t44 -32q16 0 33.5 12t34 30t32.5 39.5t29 41.5l18 -12q6 -4 15 -16z" />
<glyph unicode="&#x3bb;" horiz-adv-x="993" d="M962 248q-29 -65 -57.5 -118.5t-55.5 -91.5t-52.5 -58.5t-49.5 -20.5q-23 0 -41.5 7.5t-34.5 34.5t-31 80.5t-31.5 145.5t-35 228.5t-42.5 329.5q-2 11 -3 21l-2 20q-48 -100 -95.5 -200t-95.5 -203t-96.5 -210.5t-99.5 -222.5q-18 -2 -40 -5t-44 -7t-43 -8.5t-39 -10.5 l-23 33q59 65 114.5 145.5t107 169t98 181.5t88 183.5t77.5 175t65 156.5q-30 184 -66.5 272t-86.5 88q-21 0 -38.5 -9.5t-35 -29t-36.5 -49.5t-43 -70l-33 29q26 69 59 122.5t69.5 89.5t75 55t76.5 19q25 0 46.5 -11.5t40 -41.5t35 -83t33 -135.5t33.5 -199t36 -273.5 q15 -125 30.5 -237.5t33.5 -198t39 -136t47 -50.5q11 0 25 11t29 28.5t30 40t30 45.5z" />
<glyph unicode="&#x3bc;" horiz-adv-x="1051" d="M1022 215q-42 -77 -75 -126.5t-62 -78.5t-57.5 -40t-59.5 -11q-21 0 -37.5 20.5t-28 54t-17 77.5t-5.5 92q0 10 0.5 21t1.5 23q-35 -64 -71 -117t-73.5 -91t-76.5 -59t-80 -21q-33 0 -63 14.5t-55 41t-45 64t-34 83.5l-8 -58q-14 -103 -11 -192.5t13.5 -158.5t23 -114.5 t17.5 -58.5q-15 -6 -40 -16.5t-52 -22.5t-51 -23.5t-36 -17.5l-33 29q7 57 18.5 130t25 155t29 169t30 172.5t28 165t24.5 146.5q4 39 10.5 79.5t11.5 78.5t9 73t4 62q0 23 -3 36.5t-8.5 20t-12.5 8.5t-15 2q-10 0 -27 -3.5t-34 -8.5q-20 -5 -42 -12l-14 37q42 19 84.5 36.5 t79.5 30.5t64.5 21t39.5 8q28 0 37.5 -19t9.5 -65q0 -29 -4.5 -69t-11.5 -84.5t-15 -91.5t-15 -91t-11.5 -82t-4.5 -65q0 -55 9 -101t25 -79t38 -51.5t48 -18.5q61 0 134.5 74t156.5 235q8 50 16.5 99.5t15 94t11 80.5t4.5 58q0 32 -3.5 65t-13.5 52q18 7 39.5 15t44.5 16 t46 15.5t44 12.5q8 -11 13 -20.5t8 -18.5q-6 -29 -16 -79t-21.5 -110.5t-23 -126.5t-21 -128t-15.5 -114t-6 -85q0 -45 3 -72t8 -41t11.5 -18t14.5 -4q10 0 19.5 2.5t23 14.5t32.5 37.5t48 70.5z" />
<glyph unicode="&#x3bd;" horiz-adv-x="994" d="M944 852q0 -61 -24.5 -139.5t-80.5 -182t-149 -234t-229 -294.5q-9 -5 -21 -10.5t-25 -11t-25.5 -11.5t-22.5 -10l-33 31q-10 123 -25.5 239t-32 215.5t-33.5 177t-30 123.5q-8 27 -18.5 43t-22 25t-23 11.5t-20.5 2.5t-25 -3.5t-32 -8.5q-18 -5 -39 -12l-13 37 q42 19 81 36.5t71 30.5t56 21t36 8q29 0 49.5 -28.5t40.5 -98.5q11 -38 25.5 -105.5t29.5 -154.5t28 -189t22 -210q98 97 163 188t103.5 170.5t54 145t15.5 112.5q0 35 -12 53.5t-40 18.5q-17 0 -37.5 -3.5t-41.5 -11.5l-21 35q29 15 62 29t64 25t57.5 17.5t43.5 6.5 q36 0 55 -18t19 -66z" />
<glyph unicode="&#x3be;" horiz-adv-x="809" d="M938 1419q-131 -36 -230.5 -85t-167.5 -104t-102.5 -112.5t-34.5 -111.5q0 -31 18 -52.5t48 -35t69 -20.5t80.5 -9.5t82.5 -0.5t75 7q0 -19 -2 -39t-4 -39q-135 -18 -241.5 -62t-180 -104t-112.5 -130.5t-39 -141.5q0 -48 24 -85.5t62.5 -68.5t88.5 -56.5t101.5 -48.5 t101.5 -45.5t88.5 -47.5t62.5 -54t24 -65q0 -29 -11 -66t-40.5 -84.5t-80.5 -106t-131 -128.5q-14 6 -22 15t-16 20q40 44 66.5 78t41.5 62t21 52.5t6 50.5q-1 40 -24 69t-60 51.5t-84 42t-96 40.5t-96 47t-83.5 62.5t-59 86t-22.5 117.5q0 82 29.5 157.5t83.5 140.5 t129.5 116.5t167.5 85.5q-60 4 -99.5 21.5t-63 41.5t-33 51.5t-9.5 51.5q0 100 93 199q93 98 279 183q-24 -4 -52 -10q-29 -5 -56 -9t-48 -6.5t-29 -2.5q-19 0 -32 5t-22 25.5t-15.5 61.5t-12.5 113q14 5 26 6.5t25 1.5q7 -32 13.5 -52.5t16.5 -32t25 -15.5t39 -4 q37 0 76 2.5t87 8.5t109.5 15.5t143.5 24.5q5 -15 6.5 -38.5t1.5 -39.5z" />
<glyph unicode="&#x3bf;" horiz-adv-x="874" d="M668 504q0 153 -56 234t-159 81q-72 0 -121 -41.5t-79 -104.5t-43 -136.5t-13 -137.5q0 -67 16.5 -126.5t46 -104t69 -70.5t85.5 -26t82.5 20.5t65 55t48.5 79t33 92.5t19 96t6 89zM811 559q0 -67 -15 -135.5t-44 -133t-71.5 -123t-98.5 -104.5q-26 -21 -55 -40 t-59 -33.5t-61 -22.5t-61 -8q-70 0 -124.5 29.5t-92 81t-57 122t-19.5 152.5q0 72 12 138.5t39 128.5t72 119t111 110q51 40 112 68t123 28q78 0 133 -28t89.5 -78t50.5 -119t16 -152z" />
<glyph unicode="&#x3c0;" horiz-adv-x="1013" d="M948 195q-42 -73 -77.5 -119t-67 -72t-59.5 -35.5t-56 -9.5q-18 0 -38 9t-36.5 30.5t-27.5 59t-11 94.5q0 29 4.5 71t17 111.5t35.5 173t60 255.5q-70 7 -137.5 15.5t-144.5 15.5q-21 -92 -42 -196t-39.5 -206t-32 -195.5t-17.5 -163.5q-14 -9 -37 -20t-49 -22.5 t-53.5 -21.5t-49.5 -16q-2 3 -5.5 8.5t-7.5 11.5q-4 7 -9 15q26 46 48 92.5t42 99t38.5 113t37 135t37.5 166.5t40 206q-17 1 -35 1h-36q-30 0 -54.5 -4t-48 -12.5t-47.5 -22.5t-53 -33l-17 35q32 34 63 65.5t61 55t60 37.5t60 14q108 0 196 -6.5t163.5 -14t141.5 -14 t130 -6.5q40 0 76.5 17.5t68.5 42.5l23 -29q-25 -32 -52 -62.5t-54.5 -54.5t-55.5 -38.5t-55 -14.5h-31q-15 0 -29 1q-17 -62 -31.5 -129.5t-25.5 -132t-17.5 -121t-6.5 -95.5q0 -53 5.5 -83t15 -45.5t22 -19.5t26.5 -4q12 0 24.5 1.5t29 10.5t38 29.5t49.5 58.5z" />
<glyph unicode="&#x3c1;" horiz-adv-x="904" d="M221 327q45 -81 86 -125.5t77 -66t66 -25.5t51 -4q18 0 44 12.5t52.5 42.5t48.5 81t32 128q14 101 7 186t-32.5 146.5t-67.5 96t-97 34.5q-29 0 -66.5 -11t-74 -49.5t-66.5 -112.5t-43 -201zM818 446q-7 -54 -25 -111t-45 -111t-62 -102t-75 -84.5t-84 -57.5t-89 -21 q-19 0 -44 14.5t-56.5 46.5t-69.5 84t-82 127q-2 -13 -3.5 -29t-3.5 -34q-6 -50 -10 -107.5t-6.5 -116t-3.5 -114t-0.5 -101.5t3 -79.5t6.5 -46.5q-19 -11 -41.5 -24t-46 -26.5t-45.5 -27t-41 -25.5q-9 5 -12.5 10t-11.5 14q6 33 17.5 99.5t25 151.5t28 180t27.5 184.5 t24 165.5t17 123q18 130 63 225.5t105.5 158.5t132.5 93.5t145 30.5q85 0 140.5 -43.5t86 -113.5t38.5 -157.5t-2 -175.5z" />
<glyph unicode="&#x3c2;" horiz-adv-x="803" d="M817 888q-17 -19 -34.5 -41.5t-34.5 -42t-32.5 -32.5t-27.5 -13t-30 10.5t-42.5 22.5t-56.5 22.5t-74 10.5q-46 0 -83.5 -21t-68 -56t-53 -79t-37.5 -90.5t-22.5 -90.5t-7.5 -78q0 -64 30.5 -115t76 -94t98.5 -81.5t98.5 -76.5t76 -79.5t30.5 -90.5q0 -56 -60 -147 t-188 -205q-14 8 -22.5 17t-16.5 20q34 37 58.5 69t39.5 60t22 54t7 52q0 41 -29 77t-72 71.5t-93.5 74t-93.5 87t-72 108.5t-29 139q0 63 13.5 127t44 126.5t79 122.5t117.5 116q28 22 60.5 39.5t66.5 29.5t68 18.5t65 6.5q27 0 52.5 -3.5t50.5 -7.5t50 -7t52 -1 q9 -9 12.5 -17.5t11.5 -11.5z" />
<glyph unicode="&#x3c3;" horiz-adv-x="977" d="M640 281q18 70 24 142t1.5 138.5t-17.5 124t-31 97.5q-55 8 -100 14t-64 6q-65 0 -113 -35t-79.5 -92t-47.5 -129.5t-16 -147.5q0 -67 16.5 -126.5t46 -104t69 -70.5t85.5 -26q48 0 84.5 17t64.5 46t46.5 67t30.5 79zM1047 926q-25 -32 -49 -62t-49 -53t-52 -37t-57 -14 q-26 0 -65.5 4t-84.5 9q50 -53 77 -106.5t36.5 -109t3 -112.5t-23.5 -115q-9 -31 -28.5 -70.5t-48.5 -80.5t-66.5 -80.5t-82 -70.5t-95.5 -50t-106 -19q-70 0 -126 29.5t-95.5 81t-60.5 122t-21 152.5q0 68 18.5 138.5t52 136t79 123.5t100.5 101t117 68t127 25 q40 0 82.5 -6t85 -12.5t84 -12.5t80.5 -6q57 0 89.5 16.5t58.5 39.5z" />
<glyph unicode="&#x3c4;" horiz-adv-x="841" d="M673 158q-46 -42 -95 -78t-95 -63t-87 -42.5t-71 -15.5q-49 0 -84 43.5t-35 124.5q0 62 17 136.5t42.5 159.5t54.5 178t53 192q-34 4 -62.5 6t-49.5 2q-28 0 -51 -3t-46 -10.5t-48 -20t-56 -31.5l-15 34q26 28 55.5 57.5t60.5 53.5t62.5 39.5t61.5 15.5q59 0 123.5 -6 t125.5 -13.5t115.5 -13.5t93.5 -6q28 0 50 5t39 13.5t31 19t27 22.5l21 -29q-25 -32 -50 -62.5t-50.5 -54.5t-52 -38.5t-54.5 -14.5q-20 0 -47 2t-58 5.5t-65.5 7.5t-68.5 9q-20 -96 -40 -181t-35.5 -157t-25.5 -130.5t-10 -102.5q0 -62 22 -91.5t50 -29.5q18 0 42.5 7.5 t54.5 21t63.5 32.5t68.5 42z" />
<glyph unicode="&#x3c5;" horiz-adv-x="965" d="M887 588q-10 -69 -37 -142t-67.5 -143t-92.5 -132.5t-112.5 -109.5t-126.5 -74.5t-134 -27.5q-24 0 -59.5 13t-68.5 47t-55.5 93t-18.5 150q2 54 15 118t27.5 131t26 131t11.5 118q0 23 -3 36.5t-8.5 20t-13 8.5t-16.5 2t-26 -3.5t-34 -8.5q-20 -5 -43 -12l-12 37 q42 19 84.5 36.5t78.5 30.5t63.5 21t39.5 8q29 0 39 -19t10 -65q0 -57 -12 -129t-27 -145.5t-29 -141.5t-18 -117q-11 -120 23 -179.5t102 -59.5q42 0 83.5 22t78.5 58.5t69.5 83.5t58 97.5t42 100.5t22.5 93q9 60 6 111t-18 90.5t-42.5 66t-68.5 35.5l-10 38 q18 8 42.5 16.5t50.5 17t50.5 15t43.5 11.5q58 -20 82.5 -110t3.5 -238z" />
<glyph unicode="&#x3c6;" horiz-adv-x="1227" d="M678 459q-4 -30 -9 -74t-11 -96.5t-12.5 -110.5t-13.5 -118q93 9 166.5 43.5t124 92t77 136t26.5 176.5q0 62 -14.5 119t-38.5 100t-56.5 68.5t-68.5 25.5q-19 0 -36 -3t-32.5 -15t-29.5 -35.5t-26.5 -63.5t-24 -100t-21.5 -145zM1157 563q0 -117 -41.5 -219.5 t-113.5 -181t-170 -130t-211 -66.5q-7 -60 -13 -115.5t-10.5 -100.5t-7.5 -77t-4 -45q-15 -12 -34.5 -24.5t-40 -25t-41 -24.5t-38.5 -21q-9 6 -13.5 11.5t-12.5 15.5q4 24 11.5 65.5t16.5 94.5t19.5 114.5t21.5 126.5q-81 5 -143.5 26.5t-109 53.5t-78 73t-51 86t-28 91.5 t-8.5 89.5q0 37 7 84t26.5 98.5t53 104.5t87 103t129.5 93.5t179 75.5q5 -12 7.5 -28t4.5 -25q-96 -42 -161 -97t-104 -115.5t-56 -124t-17 -122.5q0 -60 17 -120t51.5 -110t86.5 -86t123 -49q9 57 18 111.5t17 103t14 89.5t11 71q18 125 52.5 218.5t82.5 155.5t106 93 t123 31q50 0 94 -29t77 -79t52 -118.5t19 -146.5z" />
<glyph unicode="&#x3c7;" horiz-adv-x="940" d="M852 -152q-45 -65 -78.5 -109t-60.5 -72t-48 -40t-40 -12q-37 0 -64 30t-51.5 95.5t-49.5 168t-57 246.5q-27 -51 -64 -115t-77 -132.5t-79 -136.5t-72 -125q-38 -5 -83.5 -12.5t-82.5 -18.5l-23 33q134 147 249 301.5t209 309.5q-33 153 -62.5 260t-57 174.5t-54.5 98.5 t-56 31q-9 0 -27.5 -3.5t-38.5 -7.5q-23 -5 -49 -11l-15 39q42 18 85.5 35.5t81 31t65.5 21.5t39 8q17 0 31.5 -7.5t28 -28.5t28 -58.5t31.5 -98.5t37 -147.5t45 -204.5q79 131 148.5 264.5t121.5 251.5q37 5 83 12.5t83 18.5l22 -33q-119 -150 -227 -302t-208 -315 q28 -130 53 -224.5t47 -156t41 -91t36 -29.5q25 0 56.5 26.5t74.5 75.5z" />
<glyph unicode="&#x3c8;" horiz-adv-x="1226" d="M1176 725q0 -68 -16 -148t-48 -162t-79 -159.5t-108.5 -140.5t-137.5 -105.5t-166 -54.5q-11 -100 -17.5 -184t-8.5 -147q-13 -10 -32.5 -23t-40 -26t-40.5 -24t-33 -18q-11 6 -15 11.5t-12 15.5q21 81 42.5 181t42.5 212q-98 8 -166.5 44t-111.5 88.5t-61 116t-16 126.5 q2 58 9 108.5t14.5 97.5t13 93.5t5.5 97.5q0 46 -15 74t-34 28q-8 0 -25 -3.5t-34 -8.5q-20 -5 -43 -12l-12 37q42 19 80 36.5t68.5 30.5t53.5 21t35 8q41 0 57 -39t16 -105q0 -60 -6.5 -114t-15 -105.5t-16 -102.5t-8.5 -106q-2 -55 11 -104.5t41.5 -88.5t73 -66.5 t107.5 -38.5q26 147 49.5 304t42.5 310t32 295t18 260q38 26 79 47.5t70 34.5q6 -6 12.5 -16.5t8.5 -16.5q-19 -78 -38 -171t-38 -195.5t-37.5 -212t-35 -219.5t-31.5 -218t-27 -208q58 4 110 28t96.5 63t80 90.5t61 111.5t39 126t13.5 133q0 32 -4 66t-13 64.5t-23 56.5 t-33 43q34 24 77 50t77 46q12 -6 18.5 -7.5t18.5 -6.5q4 -17 8 -35.5t8 -42t6.5 -53t2.5 -68.5z" />
<glyph unicode="&#x3c9;" horiz-adv-x="1370" d="M1266 383q-14 -101 -53 -180t-92 -133t-114 -82.5t-120 -28.5q-53 0 -92.5 18.5t-67 50t-43 74t-20.5 91.5q-13 -34 -39.5 -75t-65.5 -76t-89.5 -59t-111.5 -24q-70 0 -125.5 36.5t-92 100t-50.5 148.5t0 182q12 80 41 156t73 143t100.5 122.5t123.5 94.5q3 -3 9.5 -6 t14 -6.5t14 -7.5t9.5 -8q-59 -63 -99 -121t-66.5 -114t-41.5 -112t-22 -116q-12 -89 -2 -161.5t34.5 -123.5t59.5 -79t74 -28q43 0 78 26t62 67t44.5 91.5t24.5 98.5q4 36 5.5 71.5t0.5 67t-3.5 56.5t-4.5 40q43 16 86 35t75 34q4 -5 9 -10l21 -21q-15 -35 -29 -77 q-12 -36 -24 -84.5t-18 -105.5q-5 -49 -3.5 -100.5t17.5 -93.5t50.5 -68.5t95.5 -26.5q28 0 58.5 18.5t58 52.5t50 83t34.5 109q17 83 22.5 156.5t-2 144t-28 143t-56.5 154.5q8 8 26.5 12.5t28.5 9.5q108 -98 154 -239t21 -320z" />
<glyph unicode="&#x3ca;" horiz-adv-x="539" d="M492 219q-67 -127 -133 -193.5t-144 -66.5q-134 0 -94 231l80 459q10 58 13 92t-8.5 50.5t-41 21t-84.5 4.5l6 39q63 11 136.5 31t139.5 49h31l-108 -647q-12 -67 -13.5 -104t3 -55t14.5 -22t22 -4q23 0 61.5 32t86.5 114zM266 1279q0 -28 -9 -55.5t-25 -50t-39.5 -36.5 t-51.5 -14q-32 0 -50 18t-18 52q0 27 9.5 54.5t26 50.5t40 37.5t51.5 14.5q31 0 48.5 -18.5t17.5 -52.5zM639 1279q0 -28 -9 -55.5t-25.5 -50t-40 -36.5t-52.5 -14q-31 0 -48.5 18t-17.5 52q0 27 9 54.5t25 50.5t39 37.5t52 14.5q31 0 49.5 -18.5t18.5 -52.5z" />
<glyph unicode="&#x3cb;" horiz-adv-x="965" d="M887 588q-10 -69 -37 -142t-67.5 -143t-92.5 -132.5t-112.5 -109.5t-126.5 -74.5t-134 -27.5q-24 0 -59.5 13t-68.5 47t-55.5 93t-18.5 150q2 54 15 118t27.5 131t26 131t11.5 118q0 23 -3 36.5t-8.5 20t-13 8.5t-16.5 2t-26 -3.5t-34 -8.5q-20 -5 -43 -12l-12 37 q42 19 84.5 36.5t78.5 30.5t63.5 21t39.5 8q29 0 39 -19t10 -65q0 -57 -12 -129t-27 -145.5t-29 -141.5t-18 -117q-11 -120 23 -179.5t102 -59.5q42 0 83.5 22t78.5 58.5t69.5 83.5t58 97.5t42 100.5t22.5 93q9 60 6 111t-18 90.5t-42.5 66t-68.5 35.5l-10 38 q18 8 42.5 16.5t50.5 17t50.5 15t43.5 11.5q58 -20 82.5 -110t3.5 -238zM521 1279q0 -28 -9 -55.5t-25 -50t-39.5 -36.5t-51.5 -14q-32 0 -50 18t-18 52q0 27 9.5 54.5t26 50.5t40 37.5t51.5 14.5q31 0 48.5 -18.5t17.5 -52.5zM894 1279q0 -28 -9 -55.5t-25.5 -50t-40 -36.5 t-52.5 -14q-31 0 -48.5 18t-17.5 52q0 27 9 54.5t25 50.5t39 37.5t52 14.5q31 0 49.5 -18.5t18.5 -52.5z" />
<glyph unicode="&#x3cc;" horiz-adv-x="874" d="M668 504q0 153 -56 234t-159 81q-72 0 -121 -41.5t-79 -104.5t-43 -136.5t-13 -137.5q0 -67 16.5 -126.5t46 -104t69 -70.5t85.5 -26t82.5 20.5t65 55t48.5 79t33 92.5t19 96t6 89zM811 559q0 -67 -15 -135.5t-44 -133t-71.5 -123t-98.5 -104.5q-26 -21 -55 -40 t-59 -33.5t-61 -22.5t-61 -8q-70 0 -124.5 29.5t-92 81t-57 122t-19.5 152.5q0 72 12 138.5t39 128.5t72 119t111 110q51 40 112 68t123 28q78 0 133 -28t89.5 -78t50.5 -119t16 -152zM533 1061q-15 5 -23.5 11t-23.5 22l217 368q16 6 38 13t45.5 13.5t47 12t41.5 10.5 l25 -34z" />
<glyph unicode="&#x3cd;" horiz-adv-x="965" d="M887 588q-10 -69 -37 -142t-67.5 -143t-92.5 -132.5t-112.5 -109.5t-126.5 -74.5t-134 -27.5q-24 0 -59.5 13t-68.5 47t-55.5 93t-18.5 150q2 54 15 118t27.5 131t26 131t11.5 118q0 23 -3 36.5t-8.5 20t-13 8.5t-16.5 2t-26 -3.5t-34 -8.5q-20 -5 -43 -12l-12 37 q42 19 84.5 36.5t78.5 30.5t63.5 21t39.5 8q29 0 39 -19t10 -65q0 -57 -12 -129t-27 -145.5t-29 -141.5t-18 -117q-11 -120 23 -179.5t102 -59.5q42 0 83.5 22t78.5 58.5t69.5 83.5t58 97.5t42 100.5t22.5 93q9 60 6 111t-18 90.5t-42.5 66t-68.5 35.5l-10 38 q18 8 42.5 16.5t50.5 17t50.5 15t43.5 11.5q58 -20 82.5 -110t3.5 -238zM569 1061q-15 5 -23.5 11t-23.5 22l217 368q16 6 38 13t45.5 13.5t47 12t41.5 10.5l25 -34z" />
<glyph unicode="&#x3ce;" horiz-adv-x="1370" d="M1266 383q-14 -101 -53 -180t-92 -133t-114 -82.5t-120 -28.5q-53 0 -92.5 18.5t-67 50t-43 74t-20.5 91.5q-13 -34 -39.5 -75t-65.5 -76t-89.5 -59t-111.5 -24q-70 0 -125.5 36.5t-92 100t-50.5 148.5t0 182q12 80 41 156t73 143t100.5 122.5t123.5 94.5q3 -3 9.5 -6 t14 -6.5t14 -7.5t9.5 -8q-59 -63 -99 -121t-66.5 -114t-41.5 -112t-22 -116q-12 -89 -2 -161.5t34.5 -123.5t59.5 -79t74 -28q43 0 78 26t62 67t44.5 91.5t24.5 98.5q4 36 5.5 71.5t0.5 67t-3.5 56.5t-4.5 40q43 16 86 35t75 34q4 -5 9 -10l21 -21q-15 -35 -29 -77 q-12 -36 -24 -84.5t-18 -105.5q-5 -49 -3.5 -100.5t17.5 -93.5t50.5 -68.5t95.5 -26.5q28 0 58.5 18.5t58 52.5t50 83t34.5 109q17 83 22.5 156.5t-2 144t-28 143t-56.5 154.5q8 8 26.5 12.5t28.5 9.5q108 -98 154 -239t21 -320zM793 1061q-15 5 -23.5 11t-23.5 22l217 368 q16 6 38 13t45.5 13.5t47 12t41.5 10.5l25 -34z" />
<glyph unicode="&#x3cf;" horiz-adv-x="1121" d="M4 0l5 43q63 14 100.5 30.5t39.5 30.5l144 1051q2 12 -29 30t-94 32l6 43h406l-6 -43q-63 -14 -100 -31t-39 -31l-144 -1051q-2 -12 28.5 -29.5t93.5 -31.5l-5 -43h-406zM369 643l453 485q24 27 31.5 43t0 25t-29.5 13.5t-57 7.5l6 43h378l3 -43h-9q-29 -4 -52 -8 t-41.5 -10.5t-35 -16.5t-32.5 -27l-476 -484l343 -511q27 -40 81.5 -41.5t126.5 28.5l18 -36q-95 -43 -186 -98t-183 -136q-26 -23 -58.5 -53.5t-73 -73.5t-90.5 -101.5t-110 -136.5q-2 1 -8 5t-13 9t-13.5 10t-10.5 8q102 159 204.5 280t205.5 211z" />
<glyph unicode="&#x3d0;" horiz-adv-x="891" d="M731 1207q3 58 -6 96.5t-27.5 61.5t-44 32t-53.5 9q-31 0 -63 -23.5t-63 -65.5t-60 -99t-55.5 -123.5t-49 -140t-39.5 -147.5q96 20 178.5 62t144.5 96.5t98.5 117t39.5 124.5zM686 440q9 136 -16.5 215t-83 105t-144.5 2.5t-199 -90.5q-5 -36 -9.5 -71t-6.5 -68 q-3 -46 -1.5 -98t9.5 -103t23 -98t39 -83t57 -57.5t78 -21.5q62 0 108 34.5t77.5 88t48 118.5t20.5 127zM865 1297q-5 -61 -19.5 -115t-45.5 -106t-81.5 -104.5t-126.5 -109.5q51 5 97 -10.5t79.5 -56t50.5 -108t10 -165.5q-4 -56 -20.5 -119.5t-45.5 -126.5t-69 -120 t-91.5 -101t-113 -70t-133.5 -26q-60 0 -105.5 22t-78 59.5t-53.5 89t-31.5 110t-12 122t4.5 125.5q6 64 20 142.5t36 163t52.5 171.5t69 167.5t86 151.5t103.5 123.5t121 83t139 30.5q40 0 71 -19t51 -50.5t29 -71.5t7 -82z" />
<glyph unicode="&#x3d1;" horiz-adv-x="983" d="M643 842q76 0 159 27q2 29 3 58t1 57q0 101 -12.5 179.5t-35.5 132t-55 81t-70 27.5q-56 0 -96.5 -35t-67 -86t-39 -107.5t-12.5 -99.5q0 -49 16 -92t45.5 -74.5t71 -49.5t92.5 -18zM953 936q17 9 33 19t33 21q7 -8 11 -24t7 -32q-45 -33 -87 -57q-6 -99 -26.5 -204 t-53.5 -205.5t-78.5 -190.5t-101.5 -157.5t-122 -107t-140 -39.5q-56 0 -107 22.5t-91 66.5t-63.5 110.5t-23.5 154.5q0 31 4 64t9.5 65t9.5 60.5t4 51.5q0 35 -9 49.5t-36 14.5q-9 0 -19 -1t-18 -3q-10 -2 -19 -3l-2 45q76 26 127.5 40t75.5 14q31 0 38.5 -21t7.5 -55 q0 -22 -4 -60.5t-8.5 -80.5t-8.5 -81t-4 -62q0 -84 18 -136.5t46 -82t61 -40.5t63 -11q45 0 84.5 29t72 79.5t59 119t47 148t34 165.5t21.5 171q-57 -19 -110.5 -26.5t-107.5 -7.5q-79 0 -136.5 27.5t-94.5 69.5t-54.5 91.5t-17.5 94.5q0 90 34 169.5t89 139.5t122.5 95 t135.5 35q67 0 121.5 -26.5t93.5 -89.5t60 -166.5t21 -257.5v-4z" />
<glyph unicode="&#x3d2;" horiz-adv-x="1177" d="M1058 971q9 34 11.5 61.5t-2 47t-14 30t-24.5 9.5q-18 0 -40 -15.5t-44 -39t-43.5 -52.5t-38.5 -56q-28 -44 -64.5 -115.5t-72.5 -159.5t-66 -188t-44 -202l-24 -176q-1 -6 5 -14.5t22 -18.5t43 -20t68 -19l-5 -43h-441l5 43q85 19 121 38.5t38 33.5l24 176 q16 115 7 225.5t-31.5 208t-53 179t-55.5 138.5q-14 31 -34 64t-45.5 60t-57 44t-68.5 17l2 43q54 8 108.5 14t91.5 6q19 0 34.5 -10t28.5 -25t23.5 -33.5t19.5 -35.5q41 -75 70 -150.5t49 -152.5t32 -155t19 -157q23 63 53 137.5t63 147.5t66 138t63 110q22 32 48.5 65 t57.5 60t66.5 44t74.5 17q24 0 51 -9.5t49 -34t34.5 -66.5t6.5 -108l-154 -121z" />
<glyph unicode="&#x3d3;" horiz-adv-x="1717" d="M1598 971q9 34 11.5 61.5t-2 47t-14 30t-24.5 9.5q-18 0 -40 -15.5t-44 -39t-43.5 -52.5t-38.5 -56q-28 -44 -64.5 -115.5t-72.5 -159.5t-66 -188t-44 -202l-24 -176q-1 -6 5 -14.5t22 -18.5t43 -20t68 -19l-5 -43h-441l5 43q85 19 121 38.5t38 33.5l24 176 q16 115 7 225.5t-31.5 208t-53 179t-55.5 138.5q-14 31 -34 64t-45.5 60t-57 44t-68.5 17l2 43q54 8 108.5 14t91.5 6q19 0 34.5 -10t28.5 -25t23.5 -33.5t19.5 -35.5q41 -75 70 -150.5t49 -152.5t32 -155t19 -157q23 63 53 137.5t63 147.5t66 138t63 110q22 32 48.5 65 t57.5 60t66.5 44t74.5 17q24 0 51 -9.5t49 -34t34.5 -66.5t6.5 -108l-154 -121zM87 962q-15 5 -23.5 11t-23.5 22l217 368q16 6 38 13t45.5 13.5t47 12t41.5 10.5l25 -34z" />
<glyph unicode="&#x3d4;" horiz-adv-x="1177" d="M1058 971q9 34 11.5 61.5t-2 47t-14 30t-24.5 9.5q-18 0 -40 -15.5t-44 -39t-43.5 -52.5t-38.5 -56q-28 -44 -64.5 -115.5t-72.5 -159.5t-66 -188t-44 -202l-24 -176q-1 -6 5 -14.5t22 -18.5t43 -20t68 -19l-5 -43h-441l5 43q85 19 121 38.5t38 33.5l24 176 q16 115 7 225.5t-31.5 208t-53 179t-55.5 138.5q-14 31 -34 64t-45.5 60t-57 44t-68.5 17l2 43q54 8 108.5 14t91.5 6q19 0 34.5 -10t28.5 -25t23.5 -33.5t19.5 -35.5q41 -75 70 -150.5t49 -152.5t32 -155t19 -157q23 63 53 137.5t63 147.5t66 138t63 110q22 32 48.5 65 t57.5 60t66.5 44t74.5 17q24 0 51 -9.5t49 -34t34.5 -66.5t6.5 -108l-154 -121zM630 1599q0 -28 -9 -55.5t-25 -50t-39.5 -36.5t-51.5 -14q-32 0 -50 18t-18 52q0 27 9.5 54.5t26 50.5t40 37.5t51.5 14.5q31 0 48.5 -18.5t17.5 -52.5zM1003 1599q0 -28 -9 -55.5t-25.5 -50 t-40 -36.5t-52.5 -14q-31 0 -48.5 18t-17.5 52q0 27 9 54.5t25 50.5t39 37.5t52 14.5q31 0 49.5 -18.5t18.5 -52.5z" />
<glyph unicode="&#x3d5;" horiz-adv-x="1297" d="M632 868q-105 -6 -184 -47.5t-132.5 -103t-81 -136t-29.5 -145.5q-2 -69 17 -133.5t59 -117.5t100 -90.5t139 -50.5q36 202 65 412.5t47 411.5zM1070 455q3 72 -15 139.5t-57 122t-100 93t-145 52.5q-37 -208 -68 -420t-54 -404q100 3 179 37t135.5 90.5t88 131 t36.5 158.5zM1227 518q0 -88 -24 -162.5t-65.5 -135.5t-99 -108t-124.5 -80t-141.5 -51.5t-149.5 -22.5q-5 -45 -9.5 -91t-8.5 -90t-7.5 -83t-4.5 -69q-12 -9 -31 -22t-39.5 -25.5t-40.5 -24.5t-35 -20q-10 6 -14.5 11.5t-12.5 15.5q22 83 42 184t42 216q-96 7 -178.5 39 t-143 86t-95 130.5t-34.5 173.5q0 110 42 206t119 169t184.5 119.5t239.5 57.5q3 35 8 74t9.5 78t7.5 75.5t4 66.5q38 26 79.5 47t72.5 35q7 -6 13 -16.5t8 -16.5q-19 -71 -36.5 -160.5t-36.5 -180.5q103 -5 188 -37.5t145.5 -88t93.5 -131.5t33 -168z" />
<glyph unicode="&#x3d6;" horiz-adv-x="1370" d="M1297 451q-16 -113 -55.5 -203.5t-94.5 -155t-122 -99t-138 -34.5q-53 0 -92.5 18.5t-67 50t-43 74t-20.5 91.5q-13 -34 -39.5 -75t-65.5 -76t-89.5 -59t-111.5 -24q-70 0 -126 35t-92.5 96.5t-50.5 145t0 180.5q18 125 88 226t187 178q-36 10 -66 24.5t-51.5 34 t-33.5 44t-12 55.5q0 69 43.5 117.5t111 79.5t148 45.5t155.5 14.5q177 0 310.5 -65t217.5 -182q104 54 190 135q8 -15 11.5 -27.5t6.5 -28.5q-39 -44 -81.5 -78t-87.5 -62q53 -97 71.5 -217t-0.5 -259zM638 789q-51 0 -102 3.5t-99 11.5q-49 -49 -82.5 -93.5t-56 -88 t-35 -88t-18.5 -93.5q-11 -89 -1 -160t34.5 -120.5t59.5 -75.5t74 -26q43 0 78 26t62 67t44.5 91.5t24.5 98.5q4 36 5.5 71.5t0.5 67t-3.5 56.5t-4.5 40q43 16 86 35t75 34q4 -5 9 -10l21 -21q-15 -35 -29 -77q-12 -36 -24 -84.5t-18 -105.5q-5 -49 -3.5 -100.5t17.5 -93.5 t50.5 -68.5t95.5 -26.5q34 0 71 18t70 59.5t60 109.5t42 169q7 53 10 110t-1.5 115t-16.5 115t-33 110q-112 -45 -230 -60.5t-233 -15.5zM702 873q85 0 177.5 14.5t186.5 47.5q-29 49 -69 90t-93 71t-120 46.5t-149 16.5q-63 0 -114.5 -11.5t-89 -31.5t-58 -46.5 t-20.5 -56.5q0 -44 28 -71t76 -42.5t111.5 -21t133.5 -5.5z" />
<glyph unicode="&#x3d7;" horiz-adv-x="1053" d="M1065 1061q-15 5 -23.5 11t-23.5 22l217 368q16 6 38 13t45.5 13.5t47 12t41.5 10.5l25 -34zM100 -582q159 70 273.5 147t191.5 157t119 162t57 162q5 23 6.5 44t1.5 41q0 63 -16.5 111t-44 79.5t-63.5 47.5t-74 16q-42 0 -82.5 -14.5t-76.5 -38t-65.5 -54t-49.5 -63.5 q-20 -48 -32 -96.5t-12 -98.5q-14 -6 -32 -14t-36.5 -16t-36.5 -16.5t-30 -14.5l-32 31q17 63 33 138t31 153t27.5 154t22 141t14.5 114t5 72t-2.5 36.5t-7 20t-11.5 8.5t-16 2t-26.5 -4t-35.5 -9q-21 -6 -45 -13l-14 39q42 18 84.5 35t79.5 30t64.5 21t39.5 8q14 0 22 -4.5 t11.5 -16.5t4.5 -34t1 -58q0 -12 -2.5 -40.5t-6.5 -65.5t-9.5 -79.5t-12 -82.5t-13 -74t-13.5 -55q102 151 191 249t165.5 155.5t140 80.5t115.5 23q27 0 53 -6.5t48 -20.5q7 -9 9.5 -16t5.5 -13q-12 -25 -27 -53t-29.5 -50.5t-26 -36t-16.5 -9.5q-20 15 -46 21.5t-53 6.5 q-42 0 -90 -16.5t-97.5 -49t-98.5 -81.5t-93 -114l-58 -86q37 29 75.5 49t74.5 32.5t69.5 18t61.5 5.5q55 0 103 -19.5t83.5 -56.5t55.5 -90.5t20 -122.5q0 -20 -1.5 -40.5t-5.5 -42.5q-16 -96 -75 -205t-158 -212.5t-237 -193t-313 -147.5q-11 5 -20.5 12.5t-16.5 20.5z " />
<glyph unicode="&#x3d8;" horiz-adv-x="1021" d="M845 785q11 79 -1 150.5t-43 126t-79 86.5t-108 32q-70 0 -127 -24.5t-100 -70t-71 -112t-40 -150.5q-11 -79 2.5 -150.5t46.5 -125.5t82.5 -85.5t110.5 -31.5t115 20.5t97 64t72.5 110.5t42.5 160zM990 815q-12 -93 -51 -174t-96 -144t-127.5 -106t-145.5 -60l-32 -227 q-2 -12 29 -29.5t96 -31.5l-6 -43h-410l7 43q63 14 100.5 30.5t40.5 30.5l29 220q-72 11 -131.5 50.5t-99.5 101.5t-57.5 143t-4.5 175q15 107 65 198t121.5 157t157.5 103.5t172 37.5q83 0 152 -36t116 -99.5t67.5 -150.5t7.5 -189z" />
<glyph unicode="&#x3d9;" horiz-adv-x="874" d="M668 504q0 153 -56 234t-159 81q-72 0 -121 -41.5t-79 -104.5t-43 -136.5t-13 -137.5q0 -67 16.5 -126.5t46 -104t69 -70.5t85.5 -26t82.5 20.5t65 55t48.5 79t33 92.5t19 96t6 89zM811 559q0 -67 -15 -135.5t-44 -133t-71.5 -123t-98.5 -104.5q-35 -28 -72.5 -51 t-77.5 -37q-12 -106 -19 -195.5t-9 -155.5q-13 -10 -32.5 -23t-40 -26t-40.5 -24t-33 -18q-11 6 -15 11.5t-12 15.5q21 83 43 184t44 216q-63 6 -112.5 37.5t-83.5 82.5t-51.5 118.5t-17.5 145.5q0 72 12 138.5t39 128.5t72 119t111 110q51 40 112 68t123 28q78 0 133 -28 t89.5 -78t50.5 -119t16 -152z" />
<glyph unicode="&#x3da;" horiz-adv-x="1077" d="M1224 1387q-67 -95 -119.5 -153t-91 -90t-64 -42.5t-38.5 -10.5q-17 0 -41 13t-55 28t-68 28t-78 13q-61 0 -128 -32t-127 -99t-106.5 -170.5t-65.5 -245.5q-15 -107 -3.5 -200t51.5 -161t110 -107t174 -39q103 0 165.5 -8.5t95 -26t40.5 -43t3 -58.5q-5 -40 -40.5 -129 t-117.5 -234q-12 3 -24 7.5t-22 10.5q26 75 38 128t17 88q4 25 -5.5 48t-38.5 40t-81.5 27.5t-134.5 10.5q-100 0 -177 44t-126 124t-67 191.5t0 246.5q16 114 51.5 210.5t85 174.5t111.5 137.5t130.5 100t141 61t143.5 20.5q29 0 54.5 -4t49.5 -8.5t47 -8.5t48 -4 q14 0 36.5 8t51.5 26t63.5 47.5t72.5 73.5q8 -6 21.5 -15.5t17.5 -17.5z" />
<glyph unicode="&#x3db;" horiz-adv-x="803" d="M588 936q22 0 50.5 -3.5t57 -8t54.5 -8t44 -3.5q17 0 35 9.5t38.5 30t45.5 52.5t55 76l33 -30q-31 -64 -59 -118t-53 -93.5t-47 -61.5t-41 -22q-28 0 -71 6.5t-89.5 14.5t-92 14.5t-77.5 6.5q-46 0 -82.5 -19.5t-65 -51.5t-49.5 -74t-34.5 -87.5t-20 -91t-6.5 -84.5 q0 -59 17.5 -103.5t46.5 -78.5t66 -60t75 -49t75 -44.5t66 -47.5t46.5 -58.5t17.5 -75.5q0 -56 -60 -147t-188 -205q-14 8 -22.5 17t-16.5 20q34 37 58.5 69t39.5 60t22 54t7 52q0 39 -16.5 67t-44 49.5t-62.5 41t-71.5 41.5t-71.5 49.5t-62.5 67t-44 93.5t-16.5 128 q0 70 13.5 137.5t44 132t79 125t117.5 117.5q28 22 60.5 39.5t67 29.5t68.5 18.5t64 6.5z" />
<glyph unicode="&#x3dc;" horiz-adv-x="891" d="M827 707q-11 -14 -23.5 -29t-25.5 -29.5t-26 -27t-23 -21.5q-34 34 -78.5 44.5t-110.5 10.5h-174l-75 -551q-2 -12 32 -27t121 -34l-6 -43h-438l6 43q63 14 101 30.5t40 30.5l146 1051q2 12 -29 30t-96 32l6 43h746l24 -25q-5 -26 -12.5 -57t-17 -62t-19.5 -59t-18 -47 h-41q4 46 2 76.5t-9 49t-19 26t-30 7.5h-343l-60 -434h427z" />
<glyph unicode="&#x3dd;" horiz-adv-x="802" d="M734 467q-10 -14 -27.5 -30.5t-36.5 -31.5t-36.5 -27.5t-26.5 -17.5q-6 14 -16.5 22.5t-28.5 13.5t-44.5 7t-63.5 2l-201 1q-24 -160 -40.5 -301t-25 -251t-7 -183t15.5 -98q-16 -5 -39 -14.5t-47 -20.5t-45.5 -21.5t-34.5 -16.5l-33 29q7 55 17.5 143t26.5 212.5 t38.5 287t53.5 365.5q12 79 37.5 139.5t59.5 105t73.5 74t80.5 47.5t80 25.5t72 7.5q47 0 83 -7t67 -15t59 -13.5t59 -1.5q9 -5 14 -11t11 -16q-45 -66 -71 -99.5t-40 -33.5q-10 0 -33.5 15t-55.5 33.5t-70 33.5t-76 15q-46 0 -78.5 -9t-55 -32t-37 -64t-24.5 -105 q-6 -34 -11 -66.5t-10 -64.5h447z" />
<glyph unicode="&#x3de;" horiz-adv-x="976" d="M97 580l-20 42q128 115 220.5 208t160 170t116 140.5t88.5 119.5h188l13 -37q-81 -63 -152.5 -126t-137 -126t-127 -126t-122.5 -126h647l17 -41q-133 -137 -232 -246.5t-171 -193.5t-119 -143.5t-76 -94.5h-187l-17 37q77 60 144.5 117.5t133.5 121.5t135 138t149 166 h-651z" />
<glyph unicode="&#x3df;" horiz-adv-x="934" d="M707 451q-80 -11 -150.5 -7.5t-143.5 8t-154 3.5t-181 -22l-24 32q55 65 111 141.5t110 157.5t103.5 162t92 155.5t76 139t55.5 111.5q56 12 112 30t108 37l22 -33q-62 -72 -136 -167.5t-150 -198.5t-150 -206t-137 -191q81 12 159 10t154.5 -5.5t151.5 -2t150 20.5 l29 -18l-118 -196q-59 -98 -114 -190.5t-104.5 -178t-91 -159t-73.5 -133t-50 -100.5q-26 -8 -56.5 -17.5t-60.5 -19t-56.5 -17.5t-44.5 -13l-23 33q66 71 141.5 168.5t152.5 208t151 228t139 229.5z" />
<glyph unicode="&#x3e0;" horiz-adv-x="1150" d="M1061 857q28 -103 33 -201.5t-8 -192.5q-14 -98 -44 -188.5t-70.5 -170t-89 -146.5t-97.5 -118q-5 10 -13.5 17t-12.5 15q31 42 61.5 96t56.5 117t45.5 133.5t30.5 145.5q7 49 9 99.5t-2 102.5q-45 -31 -106.5 -76.5t-131 -99.5t-141 -112.5t-137 -114.5t-119 -106 t-86.5 -87l-35 11q6 19 11.5 42.5t10.5 48.5t9.5 48.5t7.5 41.5q56 33 119.5 75.5t129 89.5t131 96t125 95.5t110 88.5t87.5 75q-4 17 -8 35t-9 35q-37 130 -107 230q-48 -33 -109.5 -79t-128.5 -98.5t-135 -108.5t-129 -109.5t-111.5 -100.5t-81.5 -82l-35 11 q6 19 11.5 42.5t10.5 48.5t9.5 48.5t7.5 41.5q72 43 155.5 101t168.5 120t164 124t142 114q-69 70 -157.5 108.5t-196.5 38.5q-54 0 -110.5 -10t-118.5 -31q-6 10 -10 20t-1 22q92 42 179 62t168 20q100 0 188.5 -29.5t159 -85t122 -135t78.5 -178.5z" />
<glyph unicode="&#x3e1;" horiz-adv-x="1211" d="M863 -496q-15 -1 -30.5 9.5t-25.5 14.5q81 227 104 458t-20 450q-94 -56 -179 -117t-159.5 -123t-136.5 -122.5t-110 -114.5l-38 16q6 18 10.5 43t8.5 51t7 50.5t5 42.5q46 26 99.5 59t109 68.5t110 73t102 72.5t84.5 65.5t59 54.5q-54 190 -164 354q-94 -56 -176 -115.5 t-153 -119.5t-130 -118.5t-107 -112.5l-38 16q6 18 10.5 43t8.5 51t7 50.5t5 42.5q61 35 133 79.5t142 91.5t132 93t104 83q-127 157 -315 274.5t-442 181.5q2 13 4 28t7 23q219 -30 395.5 -98.5t312 -166.5t231.5 -222t153 -265.5t77 -296t4.5 -314t-66.5 -320t-135 -313.5 z" />
<glyph unicode="&#x1f00;" horiz-adv-x="1022" d="M322 106q22 0 53.5 27t68 73t76.5 106.5t80 127.5q-10 73 -22.5 143.5t-32 125.5t-48 88.5t-69.5 33.5q-29 0 -70 -28.5t-78.5 -85t-63.5 -141t-26 -197.5q0 -130 36 -201.5t96 -71.5zM1030 915q-41 -36 -81 -87.5t-80.5 -111.5t-80.5 -127t-80 -135q9 -51 21 -104 t25.5 -96t27.5 -70.5t25 -27.5q16 0 35.5 9.5t38.5 25.5t35.5 35.5t27.5 39.5q13 -8 19 -15t14 -15q-11 -26 -27.5 -56.5t-36.5 -61t-42.5 -59.5t-45 -51t-45 -35.5t-41.5 -13.5q-25 0 -43 21.5t-31.5 65t-24.5 108.5t-23 151q-44 -71 -88 -134t-88 -110t-87.5 -74.5 t-87.5 -27.5q-33 0 -70.5 19t-69 60.5t-52.5 107t-21 159.5q0 72 16 146.5t46 144.5t71.5 132t92.5 108t110 73t123 27q49 0 80 -25t50 -69.5t29.5 -107t18.5 -137.5q26 47 49 91.5t42.5 83.5t34.5 71t24 54q43 9 86 21t90 26q6 -11 8.5 -16.5t5.5 -12.5zM802 1331 q-8 -33 -25.5 -69.5t-44.5 -71t-62 -65.5t-78 -55l-30 31q84 74 103 160q5 26 2.5 49.5t-15.5 41t-36 28t-58 10.5l-5 40q9 10 35 22t56.5 22t59 16t42.5 5q45 -23 55.5 -68.5t0.5 -95.5z" />
<glyph unicode="&#x1f01;" horiz-adv-x="1022" d="M322 106q22 0 53.5 27t68 73t76.5 106.5t80 127.5q-10 73 -22.5 143.5t-32 125.5t-48 88.5t-69.5 33.5q-29 0 -70 -28.5t-78.5 -85t-63.5 -141t-26 -197.5q0 -130 36 -201.5t96 -71.5zM1030 915q-41 -36 -81 -87.5t-80.5 -111.5t-80.5 -127t-80 -135q9 -51 21 -104 t25.5 -96t27.5 -70.5t25 -27.5q16 0 35.5 9.5t38.5 25.5t35.5 35.5t27.5 39.5q13 -8 19 -15t14 -15q-11 -26 -27.5 -56.5t-36.5 -61t-42.5 -59.5t-45 -51t-45 -35.5t-41.5 -13.5q-25 0 -43 21.5t-31.5 65t-24.5 108.5t-23 151q-44 -71 -88 -134t-88 -110t-87.5 -74.5 t-87.5 -27.5q-33 0 -70.5 19t-69 60.5t-52.5 107t-21 159.5q0 72 16 146.5t46 144.5t71.5 132t92.5 108t110 73t123 27q49 0 80 -25t50 -69.5t29.5 -107t18.5 -137.5q26 47 49 91.5t42.5 83.5t34.5 71t24 54q43 9 86 21t90 26q6 -11 8.5 -16.5t5.5 -12.5zM493 1315 q2 49 27 98.5t75 84.5q15 1 36.5 -2.5t45 -10.5t47 -16t42.5 -18l-15 -41q-42 -8 -68.5 -25.5t-42.5 -39t-22.5 -45t-7.5 -44.5q-3 -46 13.5 -84.5t52.5 -76.5l-37 -32q-43 25 -71.5 54.5t-46 62t-24 67t-4.5 68.5z" />
<glyph unicode="&#x1f02;" horiz-adv-x="1022" d="M322 106q22 0 53.5 27t68 73t76.5 106.5t80 127.5q-10 73 -22.5 143.5t-32 125.5t-48 88.5t-69.5 33.5q-29 0 -70 -28.5t-78.5 -85t-63.5 -141t-26 -197.5q0 -130 36 -201.5t96 -71.5zM1030 915q-41 -36 -81 -87.5t-80.5 -111.5t-80.5 -127t-80 -135q9 -51 21 -104 t25.5 -96t27.5 -70.5t25 -27.5q16 0 35.5 9.5t38.5 25.5t35.5 35.5t27.5 39.5q13 -8 19 -15t14 -15q-11 -26 -27.5 -56.5t-36.5 -61t-42.5 -59.5t-45 -51t-45 -35.5t-41.5 -13.5q-25 0 -43 21.5t-31.5 65t-24.5 108.5t-23 151q-44 -71 -88 -134t-88 -110t-87.5 -74.5 t-87.5 -27.5q-33 0 -70.5 19t-69 60.5t-52.5 107t-21 159.5q0 72 16 146.5t46 144.5t71.5 132t92.5 108t110 73t123 27q49 0 80 -25t50 -69.5t29.5 -107t18.5 -137.5q26 47 49 91.5t42.5 83.5t34.5 71t24 54q43 9 86 21t90 26q6 -11 8.5 -16.5t5.5 -12.5zM815 1078 q-20 -8 -31 -12t-28 -3l-140 406l30 33q32 -2 64 -5t67 -11zM545 1331q-8 -33 -25.5 -69.5t-44.5 -71t-62 -65.5t-78 -55l-30 31q84 74 103 160q5 26 2.5 49.5t-15.5 41t-36 28t-58 10.5l-5 40q9 10 35 22t56.5 22t59 16t42.5 5q45 -23 55.5 -68.5t0.5 -95.5z" />
<glyph unicode="&#x1f03;" horiz-adv-x="1022" d="M322 106q22 0 53.5 27t68 73t76.5 106.5t80 127.5q-10 73 -22.5 143.5t-32 125.5t-48 88.5t-69.5 33.5q-29 0 -70 -28.5t-78.5 -85t-63.5 -141t-26 -197.5q0 -130 36 -201.5t96 -71.5zM1030 915q-41 -36 -81 -87.5t-80.5 -111.5t-80.5 -127t-80 -135q9 -51 21 -104 t25.5 -96t27.5 -70.5t25 -27.5q16 0 35.5 9.5t38.5 25.5t35.5 35.5t27.5 39.5q13 -8 19 -15t14 -15q-11 -26 -27.5 -56.5t-36.5 -61t-42.5 -59.5t-45 -51t-45 -35.5t-41.5 -13.5q-25 0 -43 21.5t-31.5 65t-24.5 108.5t-23 151q-44 -71 -88 -134t-88 -110t-87.5 -74.5 t-87.5 -27.5q-33 0 -70.5 19t-69 60.5t-52.5 107t-21 159.5q0 72 16 146.5t46 144.5t71.5 132t92.5 108t110 73t123 27q49 0 80 -25t50 -69.5t29.5 -107t18.5 -137.5q26 47 49 91.5t42.5 83.5t34.5 71t24 54q43 9 86 21t90 26q6 -11 8.5 -16.5t5.5 -12.5zM820 1078 q-20 -8 -31 -12t-28 -3l-140 406l30 33q32 -2 64 -5t67 -11zM289 1315q2 49 27 98.5t75 84.5q15 1 36.5 -2.5t45 -10.5t47 -16t42.5 -18l-15 -41q-42 -8 -68.5 -25.5t-42.5 -39t-22.5 -45t-7.5 -44.5q-3 -46 13.5 -84.5t52.5 -76.5l-37 -32q-43 25 -71.5 54.5t-46 62t-24 67 t-4.5 68.5z" />
<glyph unicode="&#x1f04;" horiz-adv-x="1022" d="M322 106q22 0 53.5 27t68 73t76.5 106.5t80 127.5q-10 73 -22.5 143.5t-32 125.5t-48 88.5t-69.5 33.5q-29 0 -70 -28.5t-78.5 -85t-63.5 -141t-26 -197.5q0 -130 36 -201.5t96 -71.5zM1030 915q-41 -36 -81 -87.5t-80.5 -111.5t-80.5 -127t-80 -135q9 -51 21 -104 t25.5 -96t27.5 -70.5t25 -27.5q16 0 35.5 9.5t38.5 25.5t35.5 35.5t27.5 39.5q13 -8 19 -15t14 -15q-11 -26 -27.5 -56.5t-36.5 -61t-42.5 -59.5t-45 -51t-45 -35.5t-41.5 -13.5q-25 0 -43 21.5t-31.5 65t-24.5 108.5t-23 151q-44 -71 -88 -134t-88 -110t-87.5 -74.5 t-87.5 -27.5q-33 0 -70.5 19t-69 60.5t-52.5 107t-21 159.5q0 72 16 146.5t46 144.5t71.5 132t92.5 108t110 73t123 27q49 0 80 -25t50 -69.5t29.5 -107t18.5 -137.5q26 47 49 91.5t42.5 83.5t34.5 71t24 54q43 9 86 21t90 26q6 -11 8.5 -16.5t5.5 -12.5zM645 1331 q-8 -33 -25.5 -69.5t-44.5 -71t-62 -65.5t-78 -55l-30 31q84 74 103 160q5 26 2.5 49.5t-15.5 41t-36 28t-58 10.5l-5 40q9 10 35 22t56.5 22t59 16t42.5 5q45 -23 55.5 -68.5t0.5 -95.5zM681 1061q-15 5 -23.5 11t-23.5 22l217 368q16 6 38 13t45.5 13.5t47 12t41.5 10.5 l25 -34z" />
<glyph unicode="&#x1f05;" horiz-adv-x="1022" d="M322 106q22 0 53.5 27t68 73t76.5 106.5t80 127.5q-10 73 -22.5 143.5t-32 125.5t-48 88.5t-69.5 33.5q-29 0 -70 -28.5t-78.5 -85t-63.5 -141t-26 -197.5q0 -130 36 -201.5t96 -71.5zM1030 915q-41 -36 -81 -87.5t-80.5 -111.5t-80.5 -127t-80 -135q9 -51 21 -104 t25.5 -96t27.5 -70.5t25 -27.5q16 0 35.5 9.5t38.5 25.5t35.5 35.5t27.5 39.5q13 -8 19 -15t14 -15q-11 -26 -27.5 -56.5t-36.5 -61t-42.5 -59.5t-45 -51t-45 -35.5t-41.5 -13.5q-25 0 -43 21.5t-31.5 65t-24.5 108.5t-23 151q-44 -71 -88 -134t-88 -110t-87.5 -74.5 t-87.5 -27.5q-33 0 -70.5 19t-69 60.5t-52.5 107t-21 159.5q0 72 16 146.5t46 144.5t71.5 132t92.5 108t110 73t123 27q49 0 80 -25t50 -69.5t29.5 -107t18.5 -137.5q26 47 49 91.5t42.5 83.5t34.5 71t24 54q43 9 86 21t90 26q6 -11 8.5 -16.5t5.5 -12.5zM389 1315 q2 49 27 98.5t75 84.5q15 1 36.5 -2.5t45 -10.5t47 -16t42.5 -18l-15 -41q-42 -8 -68.5 -25.5t-42.5 -39t-22.5 -45t-7.5 -44.5q-3 -46 13.5 -84.5t52.5 -76.5l-37 -32q-43 25 -71.5 54.5t-46 62t-24 67t-4.5 68.5zM661 1061q-15 5 -23.5 11t-23.5 22l217 368q16 6 38 13 t45.5 13.5t47 12t41.5 10.5l25 -34z" />
<glyph unicode="&#x1f06;" horiz-adv-x="1022" d="M322 106q22 0 53.5 27t68 73t76.5 106.5t80 127.5q-10 73 -22.5 143.5t-32 125.5t-48 88.5t-69.5 33.5q-29 0 -70 -28.5t-78.5 -85t-63.5 -141t-26 -197.5q0 -130 36 -201.5t96 -71.5zM1030 915q-41 -36 -81 -87.5t-80.5 -111.5t-80.5 -127t-80 -135q9 -51 21 -104 t25.5 -96t27.5 -70.5t25 -27.5q16 0 35.5 9.5t38.5 25.5t35.5 35.5t27.5 39.5q13 -8 19 -15t14 -15q-11 -26 -27.5 -56.5t-36.5 -61t-42.5 -59.5t-45 -51t-45 -35.5t-41.5 -13.5q-25 0 -43 21.5t-31.5 65t-24.5 108.5t-23 151q-44 -71 -88 -134t-88 -110t-87.5 -74.5 t-87.5 -27.5q-33 0 -70.5 19t-69 60.5t-52.5 107t-21 159.5q0 72 16 146.5t46 144.5t71.5 132t92.5 108t110 73t123 27q49 0 80 -25t50 -69.5t29.5 -107t18.5 -137.5q26 47 49 91.5t42.5 83.5t34.5 71t24 54q43 9 86 21t90 26q6 -11 8.5 -16.5t5.5 -12.5zM995 1676 q-21 -40 -47 -76.5t-57 -64.5t-66 -44.5t-74 -16.5q-32 0 -58 14t-50 30.5t-47.5 30.5t-49.5 14q-35 0 -70.5 -22t-76.5 -77l-43 21q21 40 47.5 76t57.5 64t66.5 44.5t73.5 16.5q33 0 61 -14t52 -30.5t45.5 -30.5t42.5 -14q35 0 72.5 21.5t75.5 77.5zM755 1282 q-1 -30 -14 -65t-35 -68.5t-51.5 -62t-63.5 -46.5l-36 23q37 29 55.5 67t20.5 68q0 18 -7.5 33t-22 25.5t-34 16.5t-41.5 5l-11 36q7 10 30.5 24.5t52.5 28t56.5 23.5t41.5 12q31 -20 46.5 -47.5t12.5 -72.5z" />
<glyph unicode="&#x1f08;" horiz-adv-x="1267" d="M491 444l-143 -333q-14 -31 15.5 -44.5t106.5 -23.5l-6 -43h-379l6 43q63 12 101 25.5t51 42.5l487 1118q13 12 31 24.5t37 24t36.5 22t30.5 17.5l216 -1206q2 -14 7.5 -24.5t17.5 -19t32.5 -14.5t52.5 -10l-4 -43h-385l4 43q71 5 102 20.5t25 47.5l-58 333h-384z M859 535l-94 544l-235 -544h329zM382 1232q-8 -33 -25.5 -69.5t-44.5 -71t-62 -65.5t-78 -55l-30 31q84 74 103 160q5 26 2.5 49.5t-15.5 41t-36 28t-58 10.5l-5 40q9 10 35 22t56.5 22t59 16t42.5 5q45 -23 55.5 -68.5t0.5 -95.5z" />
<glyph unicode="&#x1f09;" horiz-adv-x="1267" d="M491 444l-143 -333q-14 -31 15.5 -44.5t106.5 -23.5l-6 -43h-379l6 43q63 12 101 25.5t51 42.5l487 1118q13 12 31 24.5t37 24t36.5 22t30.5 17.5l216 -1206q2 -14 7.5 -24.5t17.5 -19t32.5 -14.5t52.5 -10l-4 -43h-385l4 43q71 5 102 20.5t25 47.5l-58 333h-384z M859 535l-94 544l-235 -544h329zM133 1216q2 49 27 98.5t75 84.5q15 1 36.5 -2.5t45 -10.5t47 -16t42.5 -18l-15 -41q-42 -8 -68.5 -25.5t-42.5 -39t-22.5 -45t-7.5 -44.5q-3 -46 13.5 -84.5t52.5 -76.5l-37 -32q-43 25 -71.5 54.5t-46 62t-24 67t-4.5 68.5z" />
<glyph unicode="&#x1f0c;" horiz-adv-x="1507" d="M731 444l-143 -333q-14 -31 15.5 -44.5t106.5 -23.5l-6 -43h-379l6 43q63 12 101 25.5t51 42.5l487 1118q13 12 31 24.5t37 24t36.5 22t30.5 17.5l216 -1206q2 -14 7.5 -24.5t17.5 -19t32.5 -14.5t52.5 -10l-4 -43h-385l4 43q71 5 102 20.5t25 47.5l-58 333h-384z M1099 535l-94 544l-235 -544h329zM375 1232q-8 -33 -25.5 -69.5t-44.5 -71t-62 -65.5t-78 -55l-30 31q84 74 103 160q5 26 2.5 49.5t-15.5 41t-36 28t-58 10.5l-5 40q9 10 35 22t56.5 22t59 16t42.5 5q45 -23 55.5 -68.5t0.5 -95.5zM411 962q-15 5 -23.5 11t-23.5 22 l217 368q16 6 38 13t45.5 13.5t47 12t41.5 10.5l25 -34z" />
<glyph unicode="&#x1f0d;" horiz-adv-x="1507" d="M731 444l-143 -333q-14 -31 15.5 -44.5t106.5 -23.5l-6 -43h-379l6 43q63 12 101 25.5t51 42.5l487 1118q13 12 31 24.5t37 24t36.5 22t30.5 17.5l216 -1206q2 -14 7.5 -24.5t17.5 -19t32.5 -14.5t52.5 -10l-4 -43h-385l4 43q71 5 102 20.5t25 47.5l-58 333h-384z M1099 535l-94 544l-235 -544h329zM119 1216q2 49 27 98.5t75 84.5q15 1 36.5 -2.5t45 -10.5t47 -16t42.5 -18l-15 -41q-42 -8 -68.5 -25.5t-42.5 -39t-22.5 -45t-7.5 -44.5q-3 -46 13.5 -84.5t52.5 -76.5l-37 -32q-43 25 -71.5 54.5t-46 62t-24 67t-4.5 68.5zM391 962 q-15 5 -23.5 11t-23.5 22l217 368q16 6 38 13t45.5 13.5t47 12t41.5 10.5l25 -34z" />
<glyph unicode="&#x1f10;" horiz-adv-x="819" d="M866 872q-45 -66 -71 -99.5t-40 -33.5q-10 0 -33.5 15t-55.5 33.5t-70 33.5t-76 15q-46 0 -81.5 -13.5t-60 -37t-37 -55t-12.5 -68.5q0 -22 15.5 -45.5t46 -43.5t76 -33t104.5 -13q32 0 61.5 4t54.5 10l14 -21l-46 -104q-31 10 -66 15t-67 5q-57 0 -105.5 -13 t-84.5 -37.5t-56.5 -60.5t-20.5 -81q0 -29 16.5 -57t46.5 -49.5t72 -34.5t93 -13q45 0 80 3.5t70 17t74.5 39t92.5 69.5l31 -43q-57 -57 -109 -98t-104.5 -67.5t-107.5 -39t-117 -12.5q-67 0 -121 17t-91.5 46.5t-58 69.5t-20.5 86q0 48 18 91.5t48.5 79.5t71.5 64.5 t87 47.5q-60 25 -93.5 65.5t-33.5 102.5q0 46 18.5 86.5t49 74.5t70 61.5t81 46t81.5 28.5t73 10q47 0 83 -7t67 -15t59 -13.5t59 -1.5q9 -5 14 -11t11 -16zM762 1331q-8 -33 -25.5 -69.5t-44.5 -71t-62 -65.5t-78 -55l-30 31q84 74 103 160q5 26 2.5 49.5t-15.5 41t-36 28 t-58 10.5l-5 40q9 10 35 22t56.5 22t59 16t42.5 5q45 -23 55.5 -68.5t0.5 -95.5z" />
<glyph unicode="&#x1f11;" horiz-adv-x="819" d="M866 872q-45 -66 -71 -99.5t-40 -33.5q-10 0 -33.5 15t-55.5 33.5t-70 33.5t-76 15q-46 0 -81.5 -13.5t-60 -37t-37 -55t-12.5 -68.5q0 -22 15.5 -45.5t46 -43.5t76 -33t104.5 -13q32 0 61.5 4t54.5 10l14 -21l-46 -104q-31 10 -66 15t-67 5q-57 0 -105.5 -13 t-84.5 -37.5t-56.5 -60.5t-20.5 -81q0 -29 16.5 -57t46.5 -49.5t72 -34.5t93 -13q45 0 80 3.5t70 17t74.5 39t92.5 69.5l31 -43q-57 -57 -109 -98t-104.5 -67.5t-107.5 -39t-117 -12.5q-67 0 -121 17t-91.5 46.5t-58 69.5t-20.5 86q0 48 18 91.5t48.5 79.5t71.5 64.5 t87 47.5q-60 25 -93.5 65.5t-33.5 102.5q0 46 18.5 86.5t49 74.5t70 61.5t81 46t81.5 28.5t73 10q47 0 83 -7t67 -15t59 -13.5t59 -1.5q9 -5 14 -11t11 -16zM453 1315q2 49 27 98.5t75 84.5q15 1 36.5 -2.5t45 -10.5t47 -16t42.5 -18l-15 -41q-42 -8 -68.5 -25.5t-42.5 -39 t-22.5 -45t-7.5 -44.5q-3 -46 13.5 -84.5t52.5 -76.5l-37 -32q-43 25 -71.5 54.5t-46 62t-24 67t-4.5 68.5z" />
<glyph unicode="&#x1f13;" horiz-adv-x="819" d="M866 872q-45 -66 -71 -99.5t-40 -33.5q-10 0 -33.5 15t-55.5 33.5t-70 33.5t-76 15q-46 0 -81.5 -13.5t-60 -37t-37 -55t-12.5 -68.5q0 -22 15.5 -45.5t46 -43.5t76 -33t104.5 -13q32 0 61.5 4t54.5 10l14 -21l-46 -104q-31 10 -66 15t-67 5q-57 0 -105.5 -13 t-84.5 -37.5t-56.5 -60.5t-20.5 -81q0 -29 16.5 -57t46.5 -49.5t72 -34.5t93 -13q45 0 80 3.5t70 17t74.5 39t92.5 69.5l31 -43q-57 -57 -109 -98t-104.5 -67.5t-107.5 -39t-117 -12.5q-67 0 -121 17t-91.5 46.5t-58 69.5t-20.5 86q0 48 18 91.5t48.5 79.5t71.5 64.5 t87 47.5q-60 25 -93.5 65.5t-33.5 102.5q0 46 18.5 86.5t49 74.5t70 61.5t81 46t81.5 28.5t73 10q47 0 83 -7t67 -15t59 -13.5t59 -1.5q9 -5 14 -11t11 -16zM820 1078q-20 -8 -31 -12t-28 -3l-140 406l30 33q32 -2 64 -5t67 -11zM289 1315q2 49 27 98.5t75 84.5 q15 1 36.5 -2.5t45 -10.5t47 -16t42.5 -18l-15 -41q-42 -8 -68.5 -25.5t-42.5 -39t-22.5 -45t-7.5 -44.5q-3 -46 13.5 -84.5t52.5 -76.5l-37 -32q-43 25 -71.5 54.5t-46 62t-24 67t-4.5 68.5z" />
<glyph unicode="&#x1f14;" horiz-adv-x="819" d="M866 872q-45 -66 -71 -99.5t-40 -33.5q-10 0 -33.5 15t-55.5 33.5t-70 33.5t-76 15q-46 0 -81.5 -13.5t-60 -37t-37 -55t-12.5 -68.5q0 -22 15.5 -45.5t46 -43.5t76 -33t104.5 -13q32 0 61.5 4t54.5 10l14 -21l-46 -104q-31 10 -66 15t-67 5q-57 0 -105.5 -13 t-84.5 -37.5t-56.5 -60.5t-20.5 -81q0 -29 16.5 -57t46.5 -49.5t72 -34.5t93 -13q45 0 80 3.5t70 17t74.5 39t92.5 69.5l31 -43q-57 -57 -109 -98t-104.5 -67.5t-107.5 -39t-117 -12.5q-67 0 -121 17t-91.5 46.5t-58 69.5t-20.5 86q0 48 18 91.5t48.5 79.5t71.5 64.5 t87 47.5q-60 25 -93.5 65.5t-33.5 102.5q0 46 18.5 86.5t49 74.5t70 61.5t81 46t81.5 28.5t73 10q47 0 83 -7t67 -15t59 -13.5t59 -1.5q9 -5 14 -11t11 -16zM605 1331q-8 -33 -25.5 -69.5t-44.5 -71t-62 -65.5t-78 -55l-30 31q84 74 103 160q5 26 2.5 49.5t-15.5 41t-36 28 t-58 10.5l-5 40q9 10 35 22t56.5 22t59 16t42.5 5q45 -23 55.5 -68.5t0.5 -95.5zM641 1061q-15 5 -23.5 11t-23.5 22l217 368q16 6 38 13t45.5 13.5t47 12t41.5 10.5l25 -34z" />
<glyph unicode="&#x1f15;" horiz-adv-x="819" d="M866 872q-45 -66 -71 -99.5t-40 -33.5q-10 0 -33.5 15t-55.5 33.5t-70 33.5t-76 15q-46 0 -81.5 -13.5t-60 -37t-37 -55t-12.5 -68.5q0 -22 15.5 -45.5t46 -43.5t76 -33t104.5 -13q32 0 61.5 4t54.5 10l14 -21l-46 -104q-31 10 -66 15t-67 5q-57 0 -105.5 -13 t-84.5 -37.5t-56.5 -60.5t-20.5 -81q0 -29 16.5 -57t46.5 -49.5t72 -34.5t93 -13q45 0 80 3.5t70 17t74.5 39t92.5 69.5l31 -43q-57 -57 -109 -98t-104.5 -67.5t-107.5 -39t-117 -12.5q-67 0 -121 17t-91.5 46.5t-58 69.5t-20.5 86q0 48 18 91.5t48.5 79.5t71.5 64.5 t87 47.5q-60 25 -93.5 65.5t-33.5 102.5q0 46 18.5 86.5t49 74.5t70 61.5t81 46t81.5 28.5t73 10q47 0 83 -7t67 -15t59 -13.5t59 -1.5q9 -5 14 -11t11 -16zM349 1315q2 49 27 98.5t75 84.5q15 1 36.5 -2.5t45 -10.5t47 -16t42.5 -18l-15 -41q-42 -8 -68.5 -25.5t-42.5 -39 t-22.5 -45t-7.5 -44.5q-3 -46 13.5 -84.5t52.5 -76.5l-37 -32q-43 25 -71.5 54.5t-46 62t-24 67t-4.5 68.5zM621 1061q-15 5 -23.5 11t-23.5 22l217 368q16 6 38 13t45.5 13.5t47 12t41.5 10.5l25 -34z" />
<glyph unicode="&#x1f18;" horiz-adv-x="1253" d="M1163 244q-20 -87 -40.5 -151t-31.5 -93h-784l6 43q63 14 101 30.5t40 30.5l146 1051q2 12 -29 30t-96 32l6 43h737l25 -25q-5 -26 -12.5 -57t-17 -62t-19.5 -59t-19 -47h-43q5 46 4 76.5t-8 49t-19 26t-30 7.5h-335l-59 -434h374l20 -28q-10 -14 -22.5 -29t-26 -29.5 t-26.5 -27t-23 -21.5q-16 17 -34 27.5t-44.5 16.5t-65 8.5t-94.5 2.5h-69l-68 -501q-2 -15 3 -26.5t24 -20t55 -13t96 -4.5h121q42 0 71 5t52.5 22.5t45.5 51.5t50 93zM382 1232q-8 -33 -25.5 -69.5t-44.5 -71t-62 -65.5t-78 -55l-30 31q84 74 103 160q5 26 2.5 49.5 t-15.5 41t-36 28t-58 10.5l-5 40q9 10 35 22t56.5 22t59 16t42.5 5q45 -23 55.5 -68.5t0.5 -95.5z" />
<glyph unicode="&#x1f19;" horiz-adv-x="1253" d="M1163 244q-20 -87 -40.5 -151t-31.5 -93h-784l6 43q63 14 101 30.5t40 30.5l146 1051q2 12 -29 30t-96 32l6 43h737l25 -25q-5 -26 -12.5 -57t-17 -62t-19.5 -59t-19 -47h-43q5 46 4 76.5t-8 49t-19 26t-30 7.5h-335l-59 -434h374l20 -28q-10 -14 -22.5 -29t-26 -29.5 t-26.5 -27t-23 -21.5q-16 17 -34 27.5t-44.5 16.5t-65 8.5t-94.5 2.5h-69l-68 -501q-2 -15 3 -26.5t24 -20t55 -13t96 -4.5h121q42 0 71 5t52.5 22.5t45.5 51.5t50 93zM133 1216q2 49 27 98.5t75 84.5q15 1 36.5 -2.5t45 -10.5t47 -16t42.5 -18l-15 -41q-42 -8 -68.5 -25.5 t-42.5 -39t-22.5 -45t-7.5 -44.5q-3 -46 13.5 -84.5t52.5 -76.5l-37 -32q-43 25 -71.5 54.5t-46 62t-24 67t-4.5 68.5z" />
<glyph unicode="&#x1f1c;" horiz-adv-x="1493" d="M1403 244q-20 -87 -40.5 -151t-31.5 -93h-784l6 43q63 14 101 30.5t40 30.5l146 1051q2 12 -29 30t-96 32l6 43h737l25 -25q-5 -26 -12.5 -57t-17 -62t-19.5 -59t-19 -47h-43q5 46 4 76.5t-8 49t-19 26t-30 7.5h-335l-59 -434h374l20 -28q-10 -14 -22.5 -29t-26 -29.5 t-26.5 -27t-23 -21.5q-16 17 -34 27.5t-44.5 16.5t-65 8.5t-94.5 2.5h-69l-68 -501q-2 -15 3 -26.5t24 -20t55 -13t96 -4.5h121q42 0 71 5t52.5 22.5t45.5 51.5t50 93zM375 1232q-8 -33 -25.5 -69.5t-44.5 -71t-62 -65.5t-78 -55l-30 31q84 74 103 160q5 26 2.5 49.5 t-15.5 41t-36 28t-58 10.5l-5 40q9 10 35 22t56.5 22t59 16t42.5 5q45 -23 55.5 -68.5t0.5 -95.5zM411 962q-15 5 -23.5 11t-23.5 22l217 368q16 6 38 13t45.5 13.5t47 12t41.5 10.5l25 -34z" />
<glyph unicode="&#x1f1d;" horiz-adv-x="1493" d="M1403 244q-20 -87 -40.5 -151t-31.5 -93h-784l6 43q63 14 101 30.5t40 30.5l146 1051q2 12 -29 30t-96 32l6 43h737l25 -25q-5 -26 -12.5 -57t-17 -62t-19.5 -59t-19 -47h-43q5 46 4 76.5t-8 49t-19 26t-30 7.5h-335l-59 -434h374l20 -28q-10 -14 -22.5 -29t-26 -29.5 t-26.5 -27t-23 -21.5q-16 17 -34 27.5t-44.5 16.5t-65 8.5t-94.5 2.5h-69l-68 -501q-2 -15 3 -26.5t24 -20t55 -13t96 -4.5h121q42 0 71 5t52.5 22.5t45.5 51.5t50 93zM119 1216q2 49 27 98.5t75 84.5q15 1 36.5 -2.5t45 -10.5t47 -16t42.5 -18l-15 -41q-42 -8 -68.5 -25.5 t-42.5 -39t-22.5 -45t-7.5 -44.5q-3 -46 13.5 -84.5t52.5 -76.5l-37 -32q-43 25 -71.5 54.5t-46 62t-24 67t-4.5 68.5zM391 962q-15 5 -23.5 11t-23.5 22l217 368q16 6 38 13t45.5 13.5t47 12t41.5 10.5l25 -34z" />
<glyph unicode="&#x1f20;" d="M895 762q0 -20 -4.5 -62.5t-12.5 -100.5t-18.5 -128t-22 -143.5t-23 -147.5t-22.5 -141q-16 -104 -23.5 -175.5t-9 -119t1.5 -74t9 -40.5q-15 -5 -36.5 -13.5t-45 -19t-45 -20.5t-35.5 -17l-33 29q4 29 13 85t21 130t26.5 160.5t28.5 176t27 176.5t23.5 162t16.5 132.5 t6 88.5q0 76 -20 106t-62 30q-14 0 -47.5 -20t-75.5 -57t-87 -88.5t-83 -115.5q-27 -45 -46 -110t-31 -144q-14 -89 -19.5 -153t-3.5 -123q-13 -7 -32.5 -15.5t-40 -17.5t-39.5 -17.5t-31 -15.5l-33 31q14 66 27.5 143t26 154.5t23.5 153t19 139t12.5 111.5t4.5 71 t-2.5 36.5t-7 20t-11.5 8.5t-16 2t-26.5 -4t-35.5 -9q-21 -6 -45 -13l-14 39q42 18 84.5 35t79.5 30t64.5 21t39.5 8q14 0 22 -4.5t11.5 -16.5t4.5 -34t1 -58q0 -11 -1.5 -34t-4 -49t-5 -50.5t-3.5 -36.5q55 69 111 122t110 89t104.5 54t94.5 18q32 0 58 -9t44.5 -29.5 t28.5 -54t10 -81.5zM822 1331q-8 -33 -25.5 -69.5t-44.5 -71t-62 -65.5t-78 -55l-30 31q84 74 103 160q5 26 2.5 49.5t-15.5 41t-36 28t-58 10.5l-5 40q9 10 35 22t56.5 22t59 16t42.5 5q45 -23 55.5 -68.5t0.5 -95.5z" />
<glyph unicode="&#x1f21;" d="M895 762q0 -20 -4.5 -62.5t-12.5 -100.5t-18.5 -128t-22 -143.5t-23 -147.5t-22.5 -141q-16 -104 -23.5 -175.5t-9 -119t1.5 -74t9 -40.5q-15 -5 -36.5 -13.5t-45 -19t-45 -20.5t-35.5 -17l-33 29q4 29 13 85t21 130t26.5 160.5t28.5 176t27 176.5t23.5 162t16.5 132.5 t6 88.5q0 76 -20 106t-62 30q-14 0 -47.5 -20t-75.5 -57t-87 -88.5t-83 -115.5q-27 -45 -46 -110t-31 -144q-14 -89 -19.5 -153t-3.5 -123q-13 -7 -32.5 -15.5t-40 -17.5t-39.5 -17.5t-31 -15.5l-33 31q14 66 27.5 143t26 154.5t23.5 153t19 139t12.5 111.5t4.5 71 t-2.5 36.5t-7 20t-11.5 8.5t-16 2t-26.5 -4t-35.5 -9q-21 -6 -45 -13l-14 39q42 18 84.5 35t79.5 30t64.5 21t39.5 8q14 0 22 -4.5t11.5 -16.5t4.5 -34t1 -58q0 -11 -1.5 -34t-4 -49t-5 -50.5t-3.5 -36.5q55 69 111 122t110 89t104.5 54t94.5 18q32 0 58 -9t44.5 -29.5 t28.5 -54t10 -81.5zM513 1315q2 49 27 98.5t75 84.5q15 1 36.5 -2.5t45 -10.5t47 -16t42.5 -18l-15 -41q-42 -8 -68.5 -25.5t-42.5 -39t-22.5 -45t-7.5 -44.5q-3 -46 13.5 -84.5t52.5 -76.5l-37 -32q-43 25 -71.5 54.5t-46 62t-24 67t-4.5 68.5z" />
<glyph unicode="&#x1f22;" d="M895 762q0 -20 -4.5 -62.5t-12.5 -100.5t-18.5 -128t-22 -143.5t-23 -147.5t-22.5 -141q-16 -104 -23.5 -175.5t-9 -119t1.5 -74t9 -40.5q-15 -5 -36.5 -13.5t-45 -19t-45 -20.5t-35.5 -17l-33 29q4 29 13 85t21 130t26.5 160.5t28.5 176t27 176.5t23.5 162t16.5 132.5 t6 88.5q0 76 -20 106t-62 30q-14 0 -47.5 -20t-75.5 -57t-87 -88.5t-83 -115.5q-27 -45 -46 -110t-31 -144q-14 -89 -19.5 -153t-3.5 -123q-13 -7 -32.5 -15.5t-40 -17.5t-39.5 -17.5t-31 -15.5l-33 31q14 66 27.5 143t26 154.5t23.5 153t19 139t12.5 111.5t4.5 71 t-2.5 36.5t-7 20t-11.5 8.5t-16 2t-26.5 -4t-35.5 -9q-21 -6 -45 -13l-14 39q42 18 84.5 35t79.5 30t64.5 21t39.5 8q14 0 22 -4.5t11.5 -16.5t4.5 -34t1 -58q0 -11 -1.5 -34t-4 -49t-5 -50.5t-3.5 -36.5q55 69 111 122t110 89t104.5 54t94.5 18q32 0 58 -9t44.5 -29.5 t28.5 -54t10 -81.5zM875 1078q-20 -8 -31 -12t-28 -3l-140 406l30 33q32 -2 64 -5t67 -11zM605 1331q-8 -33 -25.5 -69.5t-44.5 -71t-62 -65.5t-78 -55l-30 31q84 74 103 160q5 26 2.5 49.5t-15.5 41t-36 28t-58 10.5l-5 40q9 10 35 22t56.5 22t59 16t42.5 5 q45 -23 55.5 -68.5t0.5 -95.5z" />
<glyph unicode="&#x1f23;" d="M895 762q0 -20 -4.5 -62.5t-12.5 -100.5t-18.5 -128t-22 -143.5t-23 -147.5t-22.5 -141q-16 -104 -23.5 -175.5t-9 -119t1.5 -74t9 -40.5q-15 -5 -36.5 -13.5t-45 -19t-45 -20.5t-35.5 -17l-33 29q4 29 13 85t21 130t26.5 160.5t28.5 176t27 176.5t23.5 162t16.5 132.5 t6 88.5q0 76 -20 106t-62 30q-14 0 -47.5 -20t-75.5 -57t-87 -88.5t-83 -115.5q-27 -45 -46 -110t-31 -144q-14 -89 -19.5 -153t-3.5 -123q-13 -7 -32.5 -15.5t-40 -17.5t-39.5 -17.5t-31 -15.5l-33 31q14 66 27.5 143t26 154.5t23.5 153t19 139t12.5 111.5t4.5 71 t-2.5 36.5t-7 20t-11.5 8.5t-16 2t-26.5 -4t-35.5 -9q-21 -6 -45 -13l-14 39q42 18 84.5 35t79.5 30t64.5 21t39.5 8q14 0 22 -4.5t11.5 -16.5t4.5 -34t1 -58q0 -11 -1.5 -34t-4 -49t-5 -50.5t-3.5 -36.5q55 69 111 122t110 89t104.5 54t94.5 18q32 0 58 -9t44.5 -29.5 t28.5 -54t10 -81.5zM880 1078q-20 -8 -31 -12t-28 -3l-140 406l30 33q32 -2 64 -5t67 -11zM349 1315q2 49 27 98.5t75 84.5q15 1 36.5 -2.5t45 -10.5t47 -16t42.5 -18l-15 -41q-42 -8 -68.5 -25.5t-42.5 -39t-22.5 -45t-7.5 -44.5q-3 -46 13.5 -84.5t52.5 -76.5l-37 -32 q-43 25 -71.5 54.5t-46 62t-24 67t-4.5 68.5z" />
<glyph unicode="&#x1f24;" d="M895 762q0 -20 -4.5 -62.5t-12.5 -100.5t-18.5 -128t-22 -143.5t-23 -147.5t-22.5 -141q-16 -104 -23.5 -175.5t-9 -119t1.5 -74t9 -40.5q-15 -5 -36.5 -13.5t-45 -19t-45 -20.5t-35.5 -17l-33 29q4 29 13 85t21 130t26.5 160.5t28.5 176t27 176.5t23.5 162t16.5 132.5 t6 88.5q0 76 -20 106t-62 30q-14 0 -47.5 -20t-75.5 -57t-87 -88.5t-83 -115.5q-27 -45 -46 -110t-31 -144q-14 -89 -19.5 -153t-3.5 -123q-13 -7 -32.5 -15.5t-40 -17.5t-39.5 -17.5t-31 -15.5l-33 31q14 66 27.5 143t26 154.5t23.5 153t19 139t12.5 111.5t4.5 71 t-2.5 36.5t-7 20t-11.5 8.5t-16 2t-26.5 -4t-35.5 -9q-21 -6 -45 -13l-14 39q42 18 84.5 35t79.5 30t64.5 21t39.5 8q14 0 22 -4.5t11.5 -16.5t4.5 -34t1 -58q0 -11 -1.5 -34t-4 -49t-5 -50.5t-3.5 -36.5q55 69 111 122t110 89t104.5 54t94.5 18q32 0 58 -9t44.5 -29.5 t28.5 -54t10 -81.5zM665 1331q-8 -33 -25.5 -69.5t-44.5 -71t-62 -65.5t-78 -55l-30 31q84 74 103 160q5 26 2.5 49.5t-15.5 41t-36 28t-58 10.5l-5 40q9 10 35 22t56.5 22t59 16t42.5 5q45 -23 55.5 -68.5t0.5 -95.5zM701 1061q-15 5 -23.5 11t-23.5 22l217 368q16 6 38 13 t45.5 13.5t47 12t41.5 10.5l25 -34z" />
<glyph unicode="&#x1f25;" d="M895 762q0 -20 -4.5 -62.5t-12.5 -100.5t-18.5 -128t-22 -143.5t-23 -147.5t-22.5 -141q-16 -104 -23.5 -175.5t-9 -119t1.5 -74t9 -40.5q-15 -5 -36.5 -13.5t-45 -19t-45 -20.5t-35.5 -17l-33 29q4 29 13 85t21 130t26.5 160.5t28.5 176t27 176.5t23.5 162t16.5 132.5 t6 88.5q0 76 -20 106t-62 30q-14 0 -47.5 -20t-75.5 -57t-87 -88.5t-83 -115.5q-27 -45 -46 -110t-31 -144q-14 -89 -19.5 -153t-3.5 -123q-13 -7 -32.5 -15.5t-40 -17.5t-39.5 -17.5t-31 -15.5l-33 31q14 66 27.5 143t26 154.5t23.5 153t19 139t12.5 111.5t4.5 71 t-2.5 36.5t-7 20t-11.5 8.5t-16 2t-26.5 -4t-35.5 -9q-21 -6 -45 -13l-14 39q42 18 84.5 35t79.5 30t64.5 21t39.5 8q14 0 22 -4.5t11.5 -16.5t4.5 -34t1 -58q0 -11 -1.5 -34t-4 -49t-5 -50.5t-3.5 -36.5q55 69 111 122t110 89t104.5 54t94.5 18q32 0 58 -9t44.5 -29.5 t28.5 -54t10 -81.5zM409 1315q2 49 27 98.5t75 84.5q15 1 36.5 -2.5t45 -10.5t47 -16t42.5 -18l-15 -41q-42 -8 -68.5 -25.5t-42.5 -39t-22.5 -45t-7.5 -44.5q-3 -46 13.5 -84.5t52.5 -76.5l-37 -32q-43 25 -71.5 54.5t-46 62t-24 67t-4.5 68.5zM681 1061q-15 5 -23.5 11 t-23.5 22l217 368q16 6 38 13t45.5 13.5t47 12t41.5 10.5l25 -34z" />
<glyph unicode="&#x1f26;" d="M895 762q0 -20 -4.5 -62.5t-12.5 -100.5t-18.5 -128t-22 -143.5t-23 -147.5t-22.5 -141q-16 -104 -23.5 -175.5t-9 -119t1.5 -74t9 -40.5q-15 -5 -36.5 -13.5t-45 -19t-45 -20.5t-35.5 -17l-33 29q4 29 13 85t21 130t26.5 160.5t28.5 176t27 176.5t23.5 162t16.5 132.5 t6 88.5q0 76 -20 106t-62 30q-14 0 -47.5 -20t-75.5 -57t-87 -88.5t-83 -115.5q-27 -45 -46 -110t-31 -144q-14 -89 -19.5 -153t-3.5 -123q-13 -7 -32.5 -15.5t-40 -17.5t-39.5 -17.5t-31 -15.5l-33 31q14 66 27.5 143t26 154.5t23.5 153t19 139t12.5 111.5t4.5 71 t-2.5 36.5t-7 20t-11.5 8.5t-16 2t-26.5 -4t-35.5 -9q-21 -6 -45 -13l-14 39q42 18 84.5 35t79.5 30t64.5 21t39.5 8q14 0 22 -4.5t11.5 -16.5t4.5 -34t1 -58q0 -11 -1.5 -34t-4 -49t-5 -50.5t-3.5 -36.5q55 69 111 122t110 89t104.5 54t94.5 18q32 0 58 -9t44.5 -29.5 t28.5 -54t10 -81.5zM1015 1676q-21 -40 -47 -76.5t-57 -64.5t-66 -44.5t-74 -16.5q-32 0 -58 14t-50 30.5t-47.5 30.5t-49.5 14q-35 0 -70.5 -22t-76.5 -77l-43 21q21 40 47.5 76t57.5 64t66.5 44.5t73.5 16.5q33 0 61 -14t52 -30.5t45.5 -30.5t42.5 -14q35 0 72.5 21.5 t75.5 77.5zM775 1282q-1 -30 -14 -65t-35 -68.5t-51.5 -62t-63.5 -46.5l-36 23q37 29 55.5 67t20.5 68q0 18 -7.5 33t-22 25.5t-34 16.5t-41.5 5l-11 36q7 10 30.5 24.5t52.5 28t56.5 23.5t41.5 12q31 -20 46.5 -47.5t12.5 -72.5z" />
<glyph unicode="&#x1f27;" d="M895 762q0 -20 -4.5 -62.5t-12.5 -100.5t-18.5 -128t-22 -143.5t-23 -147.5t-22.5 -141q-16 -104 -23.5 -175.5t-9 -119t1.5 -74t9 -40.5q-15 -5 -36.5 -13.5t-45 -19t-45 -20.5t-35.5 -17l-33 29q4 29 13 85t21 130t26.5 160.5t28.5 176t27 176.5t23.5 162t16.5 132.5 t6 88.5q0 76 -20 106t-62 30q-14 0 -47.5 -20t-75.5 -57t-87 -88.5t-83 -115.5q-27 -45 -46 -110t-31 -144q-14 -89 -19.5 -153t-3.5 -123q-13 -7 -32.5 -15.5t-40 -17.5t-39.5 -17.5t-31 -15.5l-33 31q14 66 27.5 143t26 154.5t23.5 153t19 139t12.5 111.5t4.5 71 t-2.5 36.5t-7 20t-11.5 8.5t-16 2t-26.5 -4t-35.5 -9q-21 -6 -45 -13l-14 39q42 18 84.5 35t79.5 30t64.5 21t39.5 8q14 0 22 -4.5t11.5 -16.5t4.5 -34t1 -58q0 -11 -1.5 -34t-4 -49t-5 -50.5t-3.5 -36.5q55 69 111 122t110 89t104.5 54t94.5 18q32 0 58 -9t44.5 -29.5 t28.5 -54t10 -81.5zM1015 1676q-21 -40 -47 -76.5t-57 -64.5t-66 -44.5t-74 -16.5q-32 0 -58 14t-50 30.5t-47.5 30.5t-49.5 14q-35 0 -70.5 -22t-76.5 -77l-43 21q21 40 47.5 76t57.5 64t66.5 44.5t73.5 16.5q33 0 61 -14t52 -30.5t45.5 -30.5t42.5 -14q35 0 72.5 21.5 t75.5 77.5zM537 1283q11 46 33.5 75t56.5 49q13 -1 37 -10.5t49 -22.5t44.5 -27t23.5 -24l-19 -38q-23 0 -44 -6t-38.5 -17.5t-29 -27t-15.5 -33.5q-7 -31 3 -68t32 -68l-42 -25q-29 19 -49 47.5t-31.5 62t-14.5 68t4 65.5z" />
<glyph unicode="&#x1f28;" horiz-adv-x="1542" d="M885 1217q-63 -14 -101 -31t-41 -31l-61 -450h556l62 450q2 12 -29 30t-94 32l4 43h412l-6 -43q-63 -14 -101 -31t-40 -31l-146 -1051q-2 -12 29 -29.5t96 -31.5l-6 -43h-410l7 43q63 14 100 30.5t39 30.5l70 510h-556l-69 -510q-3 -12 28.5 -29.5t94.5 -31.5l-6 -43 h-410l6 43q63 14 101 30.5t40 30.5l146 1051q2 12 -29 30t-96 32l6 43h410zM382 1232q-8 -33 -25.5 -69.5t-44.5 -71t-62 -65.5t-78 -55l-30 31q84 74 103 160q5 26 2.5 49.5t-15.5 41t-36 28t-58 10.5l-5 40q9 10 35 22t56.5 22t59 16t42.5 5q45 -23 55.5 -68.5t0.5 -95.5z " />
<glyph unicode="&#x1f29;" horiz-adv-x="1542" d="M885 1217q-63 -14 -101 -31t-41 -31l-61 -450h556l62 450q2 12 -29 30t-94 32l4 43h412l-6 -43q-63 -14 -101 -31t-40 -31l-146 -1051q-2 -12 29 -29.5t96 -31.5l-6 -43h-410l7 43q63 14 100 30.5t39 30.5l70 510h-556l-69 -510q-3 -12 28.5 -29.5t94.5 -31.5l-6 -43 h-410l6 43q63 14 101 30.5t40 30.5l146 1051q2 12 -29 30t-96 32l6 43h410zM133 1216q2 49 27 98.5t75 84.5q15 1 36.5 -2.5t45 -10.5t47 -16t42.5 -18l-15 -41q-42 -8 -68.5 -25.5t-42.5 -39t-22.5 -45t-7.5 -44.5q-3 -46 13.5 -84.5t52.5 -76.5l-37 -32q-43 25 -71.5 54.5 t-46 62t-24 67t-4.5 68.5z" />
<glyph unicode="&#x1f2a;" horiz-adv-x="1833" d="M1176 1217q-63 -14 -101 -31t-41 -31l-61 -450h556l62 450q2 12 -29 30t-94 32l4 43h412l-6 -43q-63 -14 -101 -31t-40 -31l-146 -1051q-2 -12 29 -29.5t96 -31.5l-6 -43h-410l7 43q63 14 100 30.5t39 30.5l70 510h-556l-69 -510q-3 -12 28.5 -29.5t94.5 -31.5l-6 -43 h-410l6 43q63 14 101 30.5t40 30.5l146 1051q2 12 -29 30t-96 32l6 43h410zM653 979q-20 -8 -31 -12t-28 -3l-140 406l30 33q32 -2 64 -5t67 -11zM383 1232q-8 -33 -25.5 -69.5t-44.5 -71t-62 -65.5t-78 -55l-30 31q84 74 103 160q5 26 2.5 49.5t-15.5 41t-36 28t-58 10.5 l-5 40q9 10 35 22t56.5 22t59 16t42.5 5q45 -23 55.5 -68.5t0.5 -95.5z" />
<glyph unicode="&#x1f2c;" horiz-adv-x="1782" d="M1125 1217q-63 -14 -101 -31t-41 -31l-61 -450h556l62 450q2 12 -29 30t-94 32l4 43h412l-6 -43q-63 -14 -101 -31t-40 -31l-146 -1051q-2 -12 29 -29.5t96 -31.5l-6 -43h-410l7 43q63 14 100 30.5t39 30.5l70 510h-556l-69 -510q-3 -12 28.5 -29.5t94.5 -31.5l-6 -43 h-410l6 43q63 14 101 30.5t40 30.5l146 1051q2 12 -29 30t-96 32l6 43h410zM375 1232q-8 -33 -25.5 -69.5t-44.5 -71t-62 -65.5t-78 -55l-30 31q84 74 103 160q5 26 2.5 49.5t-15.5 41t-36 28t-58 10.5l-5 40q9 10 35 22t56.5 22t59 16t42.5 5q45 -23 55.5 -68.5t0.5 -95.5z M411 962q-15 5 -23.5 11t-23.5 22l217 368q16 6 38 13t45.5 13.5t47 12t41.5 10.5l25 -34z" />
<glyph unicode="&#x1f2d;" horiz-adv-x="1782" d="M1125 1217q-63 -14 -101 -31t-41 -31l-61 -450h556l62 450q2 12 -29 30t-94 32l4 43h412l-6 -43q-63 -14 -101 -31t-40 -31l-146 -1051q-2 -12 29 -29.5t96 -31.5l-6 -43h-410l7 43q63 14 100 30.5t39 30.5l70 510h-556l-69 -510q-3 -12 28.5 -29.5t94.5 -31.5l-6 -43 h-410l6 43q63 14 101 30.5t40 30.5l146 1051q2 12 -29 30t-96 32l6 43h410zM119 1216q2 49 27 98.5t75 84.5q15 1 36.5 -2.5t45 -10.5t47 -16t42.5 -18l-15 -41q-42 -8 -68.5 -25.5t-42.5 -39t-22.5 -45t-7.5 -44.5q-3 -46 13.5 -84.5t52.5 -76.5l-37 -32q-43 25 -71.5 54.5 t-46 62t-24 67t-4.5 68.5zM391 962q-15 5 -23.5 11t-23.5 22l217 368q16 6 38 13t45.5 13.5t47 12t41.5 10.5l25 -34z" />
<glyph unicode="&#x1f2e;" horiz-adv-x="1542" d="M885 1217q-63 -14 -101 -31t-41 -31l-61 -450h556l62 450q2 12 -29 30t-94 32l4 43h412l-6 -43q-63 -14 -101 -31t-40 -31l-146 -1051q-2 -12 29 -29.5t96 -31.5l-6 -43h-410l7 43q63 14 100 30.5t39 30.5l70 510h-556l-69 -510q-3 -12 28.5 -29.5t94.5 -31.5l-6 -43 h-410l6 43q63 14 101 30.5t40 30.5l146 1051q2 12 -29 30t-96 32l6 43h410zM576 1577q-21 -40 -47 -76.5t-57 -64.5t-66 -44.5t-74 -16.5q-32 0 -58 14t-50 30.5t-47.5 30.5t-49.5 14q-35 0 -70.5 -22t-76.5 -77l-43 21q21 40 47.5 76t57.5 64t66.5 44.5t73.5 16.5 q33 0 61 -14t52 -30.5t45.5 -30.5t42.5 -14q35 0 72.5 21.5t75.5 77.5zM336 1183q-1 -30 -14 -65t-35 -68.5t-51.5 -62t-63.5 -46.5l-36 23q37 29 55.5 67t20.5 68q0 18 -7.5 33t-22 25.5t-34 16.5t-41.5 5l-11 36q7 10 30.5 24.5t52.5 28t56.5 23.5t41.5 12 q31 -20 46.5 -47.5t12.5 -72.5z" />
<glyph unicode="&#x1f30;" horiz-adv-x="539" d="M492 219q-67 -127 -133 -193.5t-144 -66.5q-134 0 -94 231l80 459q10 58 13 92t-8.5 50.5t-41 21t-84.5 4.5l6 39q63 11 136.5 31t139.5 49h31l-108 -647q-12 -67 -13.5 -104t3 -55t14.5 -22t22 -4q23 0 61.5 32t86.5 114zM553 1331q-8 -33 -25.5 -69.5t-44.5 -71 t-62 -65.5t-78 -55l-30 31q84 74 103 160q5 26 2.5 49.5t-15.5 41t-36 28t-58 10.5l-5 40q9 10 35 22t56.5 22t59 16t42.5 5q45 -23 55.5 -68.5t0.5 -95.5z" />
<glyph unicode="&#x1f31;" horiz-adv-x="539" d="M492 219q-67 -127 -133 -193.5t-144 -66.5q-134 0 -94 231l80 459q10 58 13 92t-8.5 50.5t-41 21t-84.5 4.5l6 39q63 11 136.5 31t139.5 49h31l-108 -647q-12 -67 -13.5 -104t3 -55t14.5 -22t22 -4q23 0 61.5 32t86.5 114zM244 1315q2 49 27 98.5t75 84.5q15 1 36.5 -2.5 t45 -10.5t47 -16t42.5 -18l-15 -41q-42 -8 -68.5 -25.5t-42.5 -39t-22.5 -45t-7.5 -44.5q-3 -46 13.5 -84.5t52.5 -76.5l-37 -32q-43 25 -71.5 54.5t-46 62t-24 67t-4.5 68.5z" />
<glyph unicode="&#x1f33;" horiz-adv-x="539" d="M492 219q-67 -127 -133 -193.5t-144 -66.5q-134 0 -94 231l80 459q10 58 13 92t-8.5 50.5t-41 21t-84.5 4.5l6 39q63 11 136.5 31t139.5 49h31l-108 -647q-12 -67 -13.5 -104t3 -55t14.5 -22t22 -4q23 0 61.5 32t86.5 114zM612 1078q-20 -8 -31 -12t-28 -3l-140 406 l30 33q32 -2 64 -5t67 -11zM81 1315q2 49 27 98.5t75 84.5q15 1 36.5 -2.5t45 -10.5t47 -16t42.5 -18l-15 -41q-42 -8 -68.5 -25.5t-42.5 -39t-22.5 -45t-7.5 -44.5q-3 -46 13.5 -84.5t52.5 -76.5l-37 -32q-43 25 -71.5 54.5t-46 62t-24 67t-4.5 68.5z" />
<glyph unicode="&#x1f34;" horiz-adv-x="539" d="M492 219q-67 -127 -133 -193.5t-144 -66.5q-134 0 -94 231l80 459q10 58 13 92t-8.5 50.5t-41 21t-84.5 4.5l6 39q63 11 136.5 31t139.5 49h31l-108 -647q-12 -67 -13.5 -104t3 -55t14.5 -22t22 -4q23 0 61.5 32t86.5 114zM396 1331q-8 -33 -25.5 -69.5t-44.5 -71 t-62 -65.5t-78 -55l-30 31q84 74 103 160q5 26 2.5 49.5t-15.5 41t-36 28t-58 10.5l-5 40q9 10 35 22t56.5 22t59 16t42.5 5q45 -23 55.5 -68.5t0.5 -95.5zM432 1061q-15 5 -23.5 11t-23.5 22l217 368q16 6 38 13t45.5 13.5t47 12t41.5 10.5l25 -34z" />
<glyph unicode="&#x1f35;" horiz-adv-x="539" d="M492 219q-67 -127 -133 -193.5t-144 -66.5q-134 0 -94 231l80 459q10 58 13 92t-8.5 50.5t-41 21t-84.5 4.5l6 39q63 11 136.5 31t139.5 49h31l-108 -647q-12 -67 -13.5 -104t3 -55t14.5 -22t22 -4q23 0 61.5 32t86.5 114zM140 1315q2 49 27 98.5t75 84.5q15 1 36.5 -2.5 t45 -10.5t47 -16t42.5 -18l-15 -41q-42 -8 -68.5 -25.5t-42.5 -39t-22.5 -45t-7.5 -44.5q-3 -46 13.5 -84.5t52.5 -76.5l-37 -32q-43 25 -71.5 54.5t-46 62t-24 67t-4.5 68.5zM412 1061q-15 5 -23.5 11t-23.5 22l217 368q16 6 38 13t45.5 13.5t47 12t41.5 10.5l25 -34z" />
<glyph unicode="&#x1f36;" horiz-adv-x="539" d="M492 219q-67 -127 -133 -193.5t-144 -66.5q-134 0 -94 231l80 459q10 58 13 92t-8.5 50.5t-41 21t-84.5 4.5l6 39q63 11 136.5 31t139.5 49h31l-108 -647q-12 -67 -13.5 -104t3 -55t14.5 -22t22 -4q23 0 61.5 32t86.5 114zM746 1676q-21 -40 -47 -76.5t-57 -64.5 t-66 -44.5t-74 -16.5q-32 0 -58 14t-50 30.5t-47.5 30.5t-49.5 14q-35 0 -70.5 -22t-76.5 -77l-43 21q21 40 47.5 76t57.5 64t66.5 44.5t73.5 16.5q33 0 61 -14t52 -30.5t45.5 -30.5t42.5 -14q35 0 72.5 21.5t75.5 77.5zM506 1282q-1 -30 -14 -65t-35 -68.5t-51.5 -62 t-63.5 -46.5l-36 23q37 29 55.5 67t20.5 68q0 18 -7.5 33t-22 25.5t-34 16.5t-41.5 5l-11 36q7 10 30.5 24.5t52.5 28t56.5 23.5t41.5 12q31 -20 46.5 -47.5t12.5 -72.5z" />
<glyph unicode="&#x1f37;" horiz-adv-x="539" d="M492 219q-67 -127 -133 -193.5t-144 -66.5q-134 0 -94 231l80 459q10 58 13 92t-8.5 50.5t-41 21t-84.5 4.5l6 39q63 11 136.5 31t139.5 49h31l-108 -647q-12 -67 -13.5 -104t3 -55t14.5 -22t22 -4q23 0 61.5 32t86.5 114zM746 1676q-21 -40 -47 -76.5t-57 -64.5 t-66 -44.5t-74 -16.5q-32 0 -58 14t-50 30.5t-47.5 30.5t-49.5 14q-35 0 -70.5 -22t-76.5 -77l-43 21q21 40 47.5 76t57.5 64t66.5 44.5t73.5 16.5q33 0 61 -14t52 -30.5t45.5 -30.5t42.5 -14q35 0 72.5 21.5t75.5 77.5zM268 1283q11 46 33.5 75t56.5 49q13 -1 37 -10.5 t49 -22.5t44.5 -27t23.5 -24l-19 -38q-23 0 -44 -6t-38.5 -17.5t-29 -27t-15.5 -33.5q-7 -31 3 -68t32 -68l-42 -25q-29 19 -49 47.5t-31.5 62t-14.5 68t4 65.5z" />
<glyph unicode="&#x1f38;" horiz-adv-x="901" d="M905 1217q-63 -14 -101 -31t-40 -31l-146 -1051q-2 -12 29 -29.5t96 -31.5l-6 -43h-410l7 43q63 14 100.5 30.5t40.5 30.5l143 1051q2 12 -29 30t-94 32l7 43h409zM382 1232q-8 -33 -25.5 -69.5t-44.5 -71t-62 -65.5t-78 -55l-30 31q84 74 103 160q5 26 2.5 49.5 t-15.5 41t-36 28t-58 10.5l-5 40q9 10 35 22t56.5 22t59 16t42.5 5q45 -23 55.5 -68.5t0.5 -95.5z" />
<glyph unicode="&#x1f39;" horiz-adv-x="901" d="M905 1217q-63 -14 -101 -31t-40 -31l-146 -1051q-2 -12 29 -29.5t96 -31.5l-6 -43h-410l7 43q63 14 100.5 30.5t40.5 30.5l143 1051q2 12 -29 30t-94 32l7 43h409zM133 1216q2 49 27 98.5t75 84.5q15 1 36.5 -2.5t45 -10.5t47 -16t42.5 -18l-15 -41q-42 -8 -68.5 -25.5 t-42.5 -39t-22.5 -45t-7.5 -44.5q-3 -46 13.5 -84.5t52.5 -76.5l-37 -32q-43 25 -71.5 54.5t-46 62t-24 67t-4.5 68.5z" />
<glyph unicode="&#x1f3c;" horiz-adv-x="1141" d="M1145 1217q-63 -14 -101 -31t-40 -31l-146 -1051q-2 -12 29 -29.5t96 -31.5l-6 -43h-410l7 43q63 14 100.5 30.5t40.5 30.5l143 1051q2 12 -29 30t-94 32l7 43h409zM375 1232q-8 -33 -25.5 -69.5t-44.5 -71t-62 -65.5t-78 -55l-30 31q84 74 103 160q5 26 2.5 49.5 t-15.5 41t-36 28t-58 10.5l-5 40q9 10 35 22t56.5 22t59 16t42.5 5q45 -23 55.5 -68.5t0.5 -95.5zM411 962q-15 5 -23.5 11t-23.5 22l217 368q16 6 38 13t45.5 13.5t47 12t41.5 10.5l25 -34z" />
<glyph unicode="&#x1f3d;" horiz-adv-x="1141" d="M1145 1217q-63 -14 -101 -31t-40 -31l-146 -1051q-2 -12 29 -29.5t96 -31.5l-6 -43h-410l7 43q63 14 100.5 30.5t40.5 30.5l143 1051q2 12 -29 30t-94 32l7 43h409zM119 1216q2 49 27 98.5t75 84.5q15 1 36.5 -2.5t45 -10.5t47 -16t42.5 -18l-15 -41q-42 -8 -68.5 -25.5 t-42.5 -39t-22.5 -45t-7.5 -44.5q-3 -46 13.5 -84.5t52.5 -76.5l-37 -32q-43 25 -71.5 54.5t-46 62t-24 67t-4.5 68.5zM391 962q-15 5 -23.5 11t-23.5 22l217 368q16 6 38 13t45.5 13.5t47 12t41.5 10.5l25 -34z" />
<glyph unicode="&#x1f40;" horiz-adv-x="874" d="M668 504q0 153 -56 234t-159 81q-72 0 -121 -41.5t-79 -104.5t-43 -136.5t-13 -137.5q0 -67 16.5 -126.5t46 -104t69 -70.5t85.5 -26t82.5 20.5t65 55t48.5 79t33 92.5t19 96t6 89zM811 559q0 -67 -15 -135.5t-44 -133t-71.5 -123t-98.5 -104.5q-26 -21 -55 -40 t-59 -33.5t-61 -22.5t-61 -8q-70 0 -124.5 29.5t-92 81t-57 122t-19.5 152.5q0 72 12 138.5t39 128.5t72 119t111 110q51 40 112 68t123 28q78 0 133 -28t89.5 -78t50.5 -119t16 -152zM772 1331q-8 -33 -25.5 -69.5t-44.5 -71t-62 -65.5t-78 -55l-30 31q84 74 103 160 q5 26 2.5 49.5t-15.5 41t-36 28t-58 10.5l-5 40q9 10 35 22t56.5 22t59 16t42.5 5q45 -23 55.5 -68.5t0.5 -95.5z" />
<glyph unicode="&#x1f41;" horiz-adv-x="874" d="M668 504q0 153 -56 234t-159 81q-72 0 -121 -41.5t-79 -104.5t-43 -136.5t-13 -137.5q0 -67 16.5 -126.5t46 -104t69 -70.5t85.5 -26t82.5 20.5t65 55t48.5 79t33 92.5t19 96t6 89zM811 559q0 -67 -15 -135.5t-44 -133t-71.5 -123t-98.5 -104.5q-26 -21 -55 -40 t-59 -33.5t-61 -22.5t-61 -8q-70 0 -124.5 29.5t-92 81t-57 122t-19.5 152.5q0 72 12 138.5t39 128.5t72 119t111 110q51 40 112 68t123 28q78 0 133 -28t89.5 -78t50.5 -119t16 -152zM463 1315q2 49 27 98.5t75 84.5q15 1 36.5 -2.5t45 -10.5t47 -16t42.5 -18l-15 -41 q-42 -8 -68.5 -25.5t-42.5 -39t-22.5 -45t-7.5 -44.5q-3 -46 13.5 -84.5t52.5 -76.5l-37 -32q-43 25 -71.5 54.5t-46 62t-24 67t-4.5 68.5z" />
<glyph unicode="&#x1f42;" horiz-adv-x="874" d="M668 504q0 153 -56 234t-159 81q-72 0 -121 -41.5t-79 -104.5t-43 -136.5t-13 -137.5q0 -67 16.5 -126.5t46 -104t69 -70.5t85.5 -26t82.5 20.5t65 55t48.5 79t33 92.5t19 96t6 89zM811 559q0 -67 -15 -135.5t-44 -133t-71.5 -123t-98.5 -104.5q-26 -21 -55 -40 t-59 -33.5t-61 -22.5t-61 -8q-70 0 -124.5 29.5t-92 81t-57 122t-19.5 152.5q0 72 12 138.5t39 128.5t72 119t111 110q51 40 112 68t123 28q78 0 133 -28t89.5 -78t50.5 -119t16 -152zM825 1078q-20 -8 -31 -12t-28 -3l-140 406l30 33q32 -2 64 -5t67 -11zM555 1331 q-8 -33 -25.5 -69.5t-44.5 -71t-62 -65.5t-78 -55l-30 31q84 74 103 160q5 26 2.5 49.5t-15.5 41t-36 28t-58 10.5l-5 40q9 10 35 22t56.5 22t59 16t42.5 5q45 -23 55.5 -68.5t0.5 -95.5z" />
<glyph unicode="&#x1f43;" horiz-adv-x="874" d="M668 504q0 153 -56 234t-159 81q-72 0 -121 -41.5t-79 -104.5t-43 -136.5t-13 -137.5q0 -67 16.5 -126.5t46 -104t69 -70.5t85.5 -26t82.5 20.5t65 55t48.5 79t33 92.5t19 96t6 89zM811 559q0 -67 -15 -135.5t-44 -133t-71.5 -123t-98.5 -104.5q-26 -21 -55 -40 t-59 -33.5t-61 -22.5t-61 -8q-70 0 -124.5 29.5t-92 81t-57 122t-19.5 152.5q0 72 12 138.5t39 128.5t72 119t111 110q51 40 112 68t123 28q78 0 133 -28t89.5 -78t50.5 -119t16 -152zM830 1078q-20 -8 -31 -12t-28 -3l-140 406l30 33q32 -2 64 -5t67 -11zM299 1315 q2 49 27 98.5t75 84.5q15 1 36.5 -2.5t45 -10.5t47 -16t42.5 -18l-15 -41q-42 -8 -68.5 -25.5t-42.5 -39t-22.5 -45t-7.5 -44.5q-3 -46 13.5 -84.5t52.5 -76.5l-37 -32q-43 25 -71.5 54.5t-46 62t-24 67t-4.5 68.5z" />
<glyph unicode="&#x1f44;" horiz-adv-x="874" d="M668 504q0 153 -56 234t-159 81q-72 0 -121 -41.5t-79 -104.5t-43 -136.5t-13 -137.5q0 -67 16.5 -126.5t46 -104t69 -70.5t85.5 -26t82.5 20.5t65 55t48.5 79t33 92.5t19 96t6 89zM811 559q0 -67 -15 -135.5t-44 -133t-71.5 -123t-98.5 -104.5q-26 -21 -55 -40 t-59 -33.5t-61 -22.5t-61 -8q-70 0 -124.5 29.5t-92 81t-57 122t-19.5 152.5q0 72 12 138.5t39 128.5t72 119t111 110q51 40 112 68t123 28q78 0 133 -28t89.5 -78t50.5 -119t16 -152zM615 1331q-8 -33 -25.5 -69.5t-44.5 -71t-62 -65.5t-78 -55l-30 31q84 74 103 160 q5 26 2.5 49.5t-15.5 41t-36 28t-58 10.5l-5 40q9 10 35 22t56.5 22t59 16t42.5 5q45 -23 55.5 -68.5t0.5 -95.5zM651 1061q-15 5 -23.5 11t-23.5 22l217 368q16 6 38 13t45.5 13.5t47 12t41.5 10.5l25 -34z" />
<glyph unicode="&#x1f45;" horiz-adv-x="874" d="M668 504q0 153 -56 234t-159 81q-72 0 -121 -41.5t-79 -104.5t-43 -136.5t-13 -137.5q0 -67 16.5 -126.5t46 -104t69 -70.5t85.5 -26t82.5 20.5t65 55t48.5 79t33 92.5t19 96t6 89zM811 559q0 -67 -15 -135.5t-44 -133t-71.5 -123t-98.5 -104.5q-26 -21 -55 -40 t-59 -33.5t-61 -22.5t-61 -8q-70 0 -124.5 29.5t-92 81t-57 122t-19.5 152.5q0 72 12 138.5t39 128.5t72 119t111 110q51 40 112 68t123 28q78 0 133 -28t89.5 -78t50.5 -119t16 -152zM359 1315q2 49 27 98.5t75 84.5q15 1 36.5 -2.5t45 -10.5t47 -16t42.5 -18l-15 -41 q-42 -8 -68.5 -25.5t-42.5 -39t-22.5 -45t-7.5 -44.5q-3 -46 13.5 -84.5t52.5 -76.5l-37 -32q-43 25 -71.5 54.5t-46 62t-24 67t-4.5 68.5zM631 1061q-15 5 -23.5 11t-23.5 22l217 368q16 6 38 13t45.5 13.5t47 12t41.5 10.5l25 -34z" />
<glyph unicode="&#x1f48;" horiz-adv-x="1435" d="M1236 756q0 82 -19 156.5t-54 130.5t-86 89t-115 33q-75 0 -135 -29.5t-106.5 -78.5t-80.5 -114t-55.5 -135t-32 -141.5t-10.5 -134.5q0 -92 20.5 -170.5t56.5 -137t86.5 -91.5t110.5 -33q76 0 137 31t107.5 82.5t80 119t54.5 140.5t31 146.5t10 136.5zM1385 774 q0 -71 -11.5 -144t-35 -144t-58 -137.5t-79.5 -123.5q-42 -54 -89.5 -100.5t-101 -81t-113 -54.5t-126.5 -20q-96 0 -167.5 41t-119 111.5t-71 164.5t-23.5 199q0 63 11 134t32.5 141.5t52.5 137t72 120.5q42 56 90.5 105.5t104 86.5t118.5 58.5t134 21.5q98 0 170 -41 t118.5 -111.5t69 -164.5t22.5 -199zM382 1232q-8 -33 -25.5 -69.5t-44.5 -71t-62 -65.5t-78 -55l-30 31q84 74 103 160q5 26 2.5 49.5t-15.5 41t-36 28t-58 10.5l-5 40q9 10 35 22t56.5 22t59 16t42.5 5q45 -23 55.5 -68.5t0.5 -95.5z" />
<glyph unicode="&#x1f49;" horiz-adv-x="1435" d="M1236 756q0 82 -19 156.5t-54 130.5t-86 89t-115 33q-75 0 -135 -29.5t-106.5 -78.5t-80.5 -114t-55.5 -135t-32 -141.5t-10.5 -134.5q0 -92 20.5 -170.5t56.5 -137t86.5 -91.5t110.5 -33q76 0 137 31t107.5 82.5t80 119t54.5 140.5t31 146.5t10 136.5zM1385 774 q0 -71 -11.5 -144t-35 -144t-58 -137.5t-79.5 -123.5q-42 -54 -89.5 -100.5t-101 -81t-113 -54.5t-126.5 -20q-96 0 -167.5 41t-119 111.5t-71 164.5t-23.5 199q0 63 11 134t32.5 141.5t52.5 137t72 120.5q42 56 90.5 105.5t104 86.5t118.5 58.5t134 21.5q98 0 170 -41 t118.5 -111.5t69 -164.5t22.5 -199zM133 1216q2 49 27 98.5t75 84.5q15 1 36.5 -2.5t45 -10.5t47 -16t42.5 -18l-15 -41q-42 -8 -68.5 -25.5t-42.5 -39t-22.5 -45t-7.5 -44.5q-3 -46 13.5 -84.5t52.5 -76.5l-37 -32q-43 25 -71.5 54.5t-46 62t-24 67t-4.5 68.5z" />
<glyph unicode="&#x1f4b;" horiz-adv-x="1718" d="M1519 756q0 82 -19 156.5t-54 130.5t-86 89t-115 33q-75 0 -135 -29.5t-106.5 -78.5t-80.5 -114t-55.5 -135t-32 -141.5t-10.5 -134.5q0 -92 20.5 -170.5t56.5 -137t86.5 -91.5t110.5 -33q76 0 137 31t107.5 82.5t80 119t54.5 140.5t31 146.5t10 136.5zM1668 774 q0 -71 -11.5 -144t-35 -144t-58 -137.5t-79.5 -123.5q-42 -54 -89.5 -100.5t-101 -81t-113 -54.5t-126.5 -20q-96 0 -167.5 41t-119 111.5t-71 164.5t-23.5 199q0 63 11 134t32.5 141.5t52.5 137t72 120.5q42 56 90.5 105.5t104 86.5t118.5 58.5t134 21.5q98 0 170 -41 t118.5 -111.5t69 -164.5t22.5 -199zM650 979q-20 -8 -31 -12t-28 -3l-140 406l30 33q32 -2 64 -5t67 -11zM119 1216q2 49 27 98.5t75 84.5q15 1 36.5 -2.5t45 -10.5t47 -16t42.5 -18l-15 -41q-42 -8 -68.5 -25.5t-42.5 -39t-22.5 -45t-7.5 -44.5q-3 -46 13.5 -84.5 t52.5 -76.5l-37 -32q-43 25 -71.5 54.5t-46 62t-24 67t-4.5 68.5z" />
<glyph unicode="&#x1f4c;" horiz-adv-x="1595" d="M1396 756q0 82 -19 156.5t-54 130.5t-86 89t-115 33q-75 0 -135 -29.5t-106.5 -78.5t-80.5 -114t-55.5 -135t-32 -141.5t-10.5 -134.5q0 -92 20.5 -170.5t56.5 -137t86.5 -91.5t110.5 -33q76 0 137 31t107.5 82.5t80 119t54.5 140.5t31 146.5t10 136.5zM1545 774 q0 -71 -11.5 -144t-35 -144t-58 -137.5t-79.5 -123.5q-42 -54 -89.5 -100.5t-101 -81t-113 -54.5t-126.5 -20q-96 0 -167.5 41t-119 111.5t-71 164.5t-23.5 199q0 63 11 134t32.5 141.5t52.5 137t72 120.5q42 56 90.5 105.5t104 86.5t118.5 58.5t134 21.5q98 0 170 -41 t118.5 -111.5t69 -164.5t22.5 -199zM375 1232q-8 -33 -25.5 -69.5t-44.5 -71t-62 -65.5t-78 -55l-30 31q84 74 103 160q5 26 2.5 49.5t-15.5 41t-36 28t-58 10.5l-5 40q9 10 35 22t56.5 22t59 16t42.5 5q45 -23 55.5 -68.5t0.5 -95.5zM411 962q-15 5 -23.5 11t-23.5 22 l217 368q16 6 38 13t45.5 13.5t47 12t41.5 10.5l25 -34z" />
<glyph unicode="&#x1f4d;" horiz-adv-x="1595" d="M1396 756q0 82 -19 156.5t-54 130.5t-86 89t-115 33q-75 0 -135 -29.5t-106.5 -78.5t-80.5 -114t-55.5 -135t-32 -141.5t-10.5 -134.5q0 -92 20.5 -170.5t56.5 -137t86.5 -91.5t110.5 -33q76 0 137 31t107.5 82.5t80 119t54.5 140.5t31 146.5t10 136.5zM1545 774 q0 -71 -11.5 -144t-35 -144t-58 -137.5t-79.5 -123.5q-42 -54 -89.5 -100.5t-101 -81t-113 -54.5t-126.5 -20q-96 0 -167.5 41t-119 111.5t-71 164.5t-23.5 199q0 63 11 134t32.5 141.5t52.5 137t72 120.5q42 56 90.5 105.5t104 86.5t118.5 58.5t134 21.5q98 0 170 -41 t118.5 -111.5t69 -164.5t22.5 -199zM119 1216q2 49 27 98.5t75 84.5q15 1 36.5 -2.5t45 -10.5t47 -16t42.5 -18l-15 -41q-42 -8 -68.5 -25.5t-42.5 -39t-22.5 -45t-7.5 -44.5q-3 -46 13.5 -84.5t52.5 -76.5l-37 -32q-43 25 -71.5 54.5t-46 62t-24 67t-4.5 68.5zM391 962 q-15 5 -23.5 11t-23.5 22l217 368q16 6 38 13t45.5 13.5t47 12t41.5 10.5l25 -34z" />
<glyph unicode="&#x1f50;" horiz-adv-x="965" d="M887 588q-10 -69 -37 -142t-67.5 -143t-92.5 -132.5t-112.5 -109.5t-126.5 -74.5t-134 -27.5q-24 0 -59.5 13t-68.5 47t-55.5 93t-18.5 150q2 54 15 118t27.5 131t26 131t11.5 118q0 23 -3 36.5t-8.5 20t-13 8.5t-16.5 2t-26 -3.5t-34 -8.5q-20 -5 -43 -12l-12 37 q42 19 84.5 36.5t78.5 30.5t63.5 21t39.5 8q29 0 39 -19t10 -65q0 -57 -12 -129t-27 -145.5t-29 -141.5t-18 -117q-11 -120 23 -179.5t102 -59.5q42 0 83.5 22t78.5 58.5t69.5 83.5t58 97.5t42 100.5t22.5 93q9 60 6 111t-18 90.5t-42.5 66t-68.5 35.5l-10 38 q18 8 42.5 16.5t50.5 17t50.5 15t43.5 11.5q58 -20 82.5 -110t3.5 -238zM808 1331q-8 -33 -25.5 -69.5t-44.5 -71t-62 -65.5t-78 -55l-30 31q84 74 103 160q5 26 2.5 49.5t-15.5 41t-36 28t-58 10.5l-5 40q9 10 35 22t56.5 22t59 16t42.5 5q45 -23 55.5 -68.5t0.5 -95.5z " />
<glyph unicode="&#x1f51;" horiz-adv-x="965" d="M887 588q-10 -69 -37 -142t-67.5 -143t-92.5 -132.5t-112.5 -109.5t-126.5 -74.5t-134 -27.5q-24 0 -59.5 13t-68.5 47t-55.5 93t-18.5 150q2 54 15 118t27.5 131t26 131t11.5 118q0 23 -3 36.5t-8.5 20t-13 8.5t-16.5 2t-26 -3.5t-34 -8.5q-20 -5 -43 -12l-12 37 q42 19 84.5 36.5t78.5 30.5t63.5 21t39.5 8q29 0 39 -19t10 -65q0 -57 -12 -129t-27 -145.5t-29 -141.5t-18 -117q-11 -120 23 -179.5t102 -59.5q42 0 83.5 22t78.5 58.5t69.5 83.5t58 97.5t42 100.5t22.5 93q9 60 6 111t-18 90.5t-42.5 66t-68.5 35.5l-10 38 q18 8 42.5 16.5t50.5 17t50.5 15t43.5 11.5q58 -20 82.5 -110t3.5 -238zM499 1315q2 49 27 98.5t75 84.5q15 1 36.5 -2.5t45 -10.5t47 -16t42.5 -18l-15 -41q-42 -8 -68.5 -25.5t-42.5 -39t-22.5 -45t-7.5 -44.5q-3 -46 13.5 -84.5t52.5 -76.5l-37 -32q-43 25 -71.5 54.5 t-46 62t-24 67t-4.5 68.5z" />
<glyph unicode="&#x1f52;" horiz-adv-x="965" d="M887 588q-10 -69 -37 -142t-67.5 -143t-92.5 -132.5t-112.5 -109.5t-126.5 -74.5t-134 -27.5q-24 0 -59.5 13t-68.5 47t-55.5 93t-18.5 150q2 54 15 118t27.5 131t26 131t11.5 118q0 23 -3 36.5t-8.5 20t-13 8.5t-16.5 2t-26 -3.5t-34 -8.5q-20 -5 -43 -12l-12 37 q42 19 84.5 36.5t78.5 30.5t63.5 21t39.5 8q29 0 39 -19t10 -65q0 -57 -12 -129t-27 -145.5t-29 -141.5t-18 -117q-11 -120 23 -179.5t102 -59.5q42 0 83.5 22t78.5 58.5t69.5 83.5t58 97.5t42 100.5t22.5 93q9 60 6 111t-18 90.5t-42.5 66t-68.5 35.5l-10 38 q18 8 42.5 16.5t50.5 17t50.5 15t43.5 11.5q58 -20 82.5 -110t3.5 -238zM861 1078q-20 -8 -31 -12t-28 -3l-140 406l30 33q32 -2 64 -5t67 -11zM591 1331q-8 -33 -25.5 -69.5t-44.5 -71t-62 -65.5t-78 -55l-30 31q84 74 103 160q5 26 2.5 49.5t-15.5 41t-36 28t-58 10.5 l-5 40q9 10 35 22t56.5 22t59 16t42.5 5q45 -23 55.5 -68.5t0.5 -95.5z" />
<glyph unicode="&#x1f53;" horiz-adv-x="965" d="M887 588q-10 -69 -37 -142t-67.5 -143t-92.5 -132.5t-112.5 -109.5t-126.5 -74.5t-134 -27.5q-24 0 -59.5 13t-68.5 47t-55.5 93t-18.5 150q2 54 15 118t27.5 131t26 131t11.5 118q0 23 -3 36.5t-8.5 20t-13 8.5t-16.5 2t-26 -3.5t-34 -8.5q-20 -5 -43 -12l-12 37 q42 19 84.5 36.5t78.5 30.5t63.5 21t39.5 8q29 0 39 -19t10 -65q0 -57 -12 -129t-27 -145.5t-29 -141.5t-18 -117q-11 -120 23 -179.5t102 -59.5q42 0 83.5 22t78.5 58.5t69.5 83.5t58 97.5t42 100.5t22.5 93q9 60 6 111t-18 90.5t-42.5 66t-68.5 35.5l-10 38 q18 8 42.5 16.5t50.5 17t50.5 15t43.5 11.5q58 -20 82.5 -110t3.5 -238zM866 1078q-20 -8 -31 -12t-28 -3l-140 406l30 33q32 -2 64 -5t67 -11zM335 1315q2 49 27 98.5t75 84.5q15 1 36.5 -2.5t45 -10.5t47 -16t42.5 -18l-15 -41q-42 -8 -68.5 -25.5t-42.5 -39t-22.5 -45 t-7.5 -44.5q-3 -46 13.5 -84.5t52.5 -76.5l-37 -32q-43 25 -71.5 54.5t-46 62t-24 67t-4.5 68.5z" />
<glyph unicode="&#x1f54;" horiz-adv-x="965" d="M887 588q-10 -69 -37 -142t-67.5 -143t-92.5 -132.5t-112.5 -109.5t-126.5 -74.5t-134 -27.5q-24 0 -59.5 13t-68.5 47t-55.5 93t-18.5 150q2 54 15 118t27.5 131t26 131t11.5 118q0 23 -3 36.5t-8.5 20t-13 8.5t-16.5 2t-26 -3.5t-34 -8.5q-20 -5 -43 -12l-12 37 q42 19 84.5 36.5t78.5 30.5t63.5 21t39.5 8q29 0 39 -19t10 -65q0 -57 -12 -129t-27 -145.5t-29 -141.5t-18 -117q-11 -120 23 -179.5t102 -59.5q42 0 83.5 22t78.5 58.5t69.5 83.5t58 97.5t42 100.5t22.5 93q9 60 6 111t-18 90.5t-42.5 66t-68.5 35.5l-10 38 q18 8 42.5 16.5t50.5 17t50.5 15t43.5 11.5q58 -20 82.5 -110t3.5 -238zM651 1331q-8 -33 -25.5 -69.5t-44.5 -71t-62 -65.5t-78 -55l-30 31q84 74 103 160q5 26 2.5 49.5t-15.5 41t-36 28t-58 10.5l-5 40q9 10 35 22t56.5 22t59 16t42.5 5q45 -23 55.5 -68.5t0.5 -95.5z M687 1061q-15 5 -23.5 11t-23.5 22l217 368q16 6 38 13t45.5 13.5t47 12t41.5 10.5l25 -34z" />
<glyph unicode="&#x1f55;" horiz-adv-x="965" d="M887 588q-10 -69 -37 -142t-67.5 -143t-92.5 -132.5t-112.5 -109.5t-126.5 -74.5t-134 -27.5q-24 0 -59.5 13t-68.5 47t-55.5 93t-18.5 150q2 54 15 118t27.5 131t26 131t11.5 118q0 23 -3 36.5t-8.5 20t-13 8.5t-16.5 2t-26 -3.5t-34 -8.5q-20 -5 -43 -12l-12 37 q42 19 84.5 36.5t78.5 30.5t63.5 21t39.5 8q29 0 39 -19t10 -65q0 -57 -12 -129t-27 -145.5t-29 -141.5t-18 -117q-11 -120 23 -179.5t102 -59.5q42 0 83.5 22t78.5 58.5t69.5 83.5t58 97.5t42 100.5t22.5 93q9 60 6 111t-18 90.5t-42.5 66t-68.5 35.5l-10 38 q18 8 42.5 16.5t50.5 17t50.5 15t43.5 11.5q58 -20 82.5 -110t3.5 -238zM395 1315q2 49 27 98.5t75 84.5q15 1 36.5 -2.5t45 -10.5t47 -16t42.5 -18l-15 -41q-42 -8 -68.5 -25.5t-42.5 -39t-22.5 -45t-7.5 -44.5q-3 -46 13.5 -84.5t52.5 -76.5l-37 -32q-43 25 -71.5 54.5 t-46 62t-24 67t-4.5 68.5zM667 1061q-15 5 -23.5 11t-23.5 22l217 368q16 6 38 13t45.5 13.5t47 12t41.5 10.5l25 -34z" />
<glyph unicode="&#x1f56;" horiz-adv-x="965" d="M887 588q-10 -69 -37 -142t-67.5 -143t-92.5 -132.5t-112.5 -109.5t-126.5 -74.5t-134 -27.5q-24 0 -59.5 13t-68.5 47t-55.5 93t-18.5 150q2 54 15 118t27.5 131t26 131t11.5 118q0 23 -3 36.5t-8.5 20t-13 8.5t-16.5 2t-26 -3.5t-34 -8.5q-20 -5 -43 -12l-12 37 q42 19 84.5 36.5t78.5 30.5t63.5 21t39.5 8q29 0 39 -19t10 -65q0 -57 -12 -129t-27 -145.5t-29 -141.5t-18 -117q-11 -120 23 -179.5t102 -59.5q42 0 83.5 22t78.5 58.5t69.5 83.5t58 97.5t42 100.5t22.5 93q9 60 6 111t-18 90.5t-42.5 66t-68.5 35.5l-10 38 q18 8 42.5 16.5t50.5 17t50.5 15t43.5 11.5q58 -20 82.5 -110t3.5 -238zM1001 1676q-21 -40 -47 -76.5t-57 -64.5t-66 -44.5t-74 -16.5q-32 0 -58 14t-50 30.5t-47.5 30.5t-49.5 14q-35 0 -70.5 -22t-76.5 -77l-43 21q21 40 47.5 76t57.5 64t66.5 44.5t73.5 16.5 q33 0 61 -14t52 -30.5t45.5 -30.5t42.5 -14q35 0 72.5 21.5t75.5 77.5zM761 1282q-1 -30 -14 -65t-35 -68.5t-51.5 -62t-63.5 -46.5l-36 23q37 29 55.5 67t20.5 68q0 18 -7.5 33t-22 25.5t-34 16.5t-41.5 5l-11 36q7 10 30.5 24.5t52.5 28t56.5 23.5t41.5 12 q31 -20 46.5 -47.5t12.5 -72.5z" />
<glyph unicode="&#x1f57;" horiz-adv-x="965" d="M887 588q-10 -69 -37 -142t-67.5 -143t-92.5 -132.5t-112.5 -109.5t-126.5 -74.5t-134 -27.5q-24 0 -59.5 13t-68.5 47t-55.5 93t-18.5 150q2 54 15 118t27.5 131t26 131t11.5 118q0 23 -3 36.5t-8.5 20t-13 8.5t-16.5 2t-26 -3.5t-34 -8.5q-20 -5 -43 -12l-12 37 q42 19 84.5 36.5t78.5 30.5t63.5 21t39.5 8q29 0 39 -19t10 -65q0 -57 -12 -129t-27 -145.5t-29 -141.5t-18 -117q-11 -120 23 -179.5t102 -59.5q42 0 83.5 22t78.5 58.5t69.5 83.5t58 97.5t42 100.5t22.5 93q9 60 6 111t-18 90.5t-42.5 66t-68.5 35.5l-10 38 q18 8 42.5 16.5t50.5 17t50.5 15t43.5 11.5q58 -20 82.5 -110t3.5 -238zM1001 1676q-21 -40 -47 -76.5t-57 -64.5t-66 -44.5t-74 -16.5q-32 0 -58 14t-50 30.5t-47.5 30.5t-49.5 14q-35 0 -70.5 -22t-76.5 -77l-43 21q21 40 47.5 76t57.5 64t66.5 44.5t73.5 16.5 q33 0 61 -14t52 -30.5t45.5 -30.5t42.5 -14q35 0 72.5 21.5t75.5 77.5zM523 1283q11 46 33.5 75t56.5 49q13 -1 37 -10.5t49 -22.5t44.5 -27t23.5 -24l-19 -38q-23 0 -44 -6t-38.5 -17.5t-29 -27t-15.5 -33.5q-7 -31 3 -68t32 -68l-42 -25q-29 19 -49 47.5t-31.5 62 t-14.5 68t4 65.5z" />
<glyph unicode="&#x1f59;" horiz-adv-x="1491" d="M1503 1116q-24 4 -50 0.5t-54.5 -20t-60 -50t-67.5 -90.5q-28 -44 -66 -115.5t-75 -159.5t-68.5 -188t-45.5 -202l-24 -176q-1 -6 5 -14.5t22 -18.5t43 -20t68 -19l-5 -43h-441l5 43q85 19 121 38.5t38 33.5l24 176q16 115 7 225.5t-31.5 208t-53 179t-55.5 138.5 q-14 31 -34 64t-45.5 60t-57 44t-68.5 17l2 43q54 8 108.5 14t91.5 6q19 0 34.5 -10t28.5 -25t23.5 -33.5t19.5 -35.5q41 -75 70 -150.5t49 -152.5t32 -155t19 -157q23 63 54.5 137.5t65.5 147.5t68.5 138t64.5 110q78 114 157 157t155 23l13 -35zM133 1216q2 49 27 98.5 t75 84.5q15 1 36.5 -2.5t45 -10.5t47 -16t42.5 -18l-15 -41q-42 -8 -68.5 -25.5t-42.5 -39t-22.5 -45t-7.5 -44.5q-3 -46 13.5 -84.5t52.5 -76.5l-37 -32q-43 25 -71.5 54.5t-46 62t-24 67t-4.5 68.5z" />
<glyph unicode="&#x1f5d;" horiz-adv-x="1731" d="M1743 1116q-24 4 -50 0.5t-54.5 -20t-60 -50t-67.5 -90.5q-28 -44 -66 -115.5t-75 -159.5t-68.5 -188t-45.5 -202l-24 -176q-1 -6 5 -14.5t22 -18.5t43 -20t68 -19l-5 -43h-441l5 43q85 19 121 38.5t38 33.5l24 176q16 115 7 225.5t-31.5 208t-53 179t-55.5 138.5 q-14 31 -34 64t-45.5 60t-57 44t-68.5 17l2 43q54 8 108.5 14t91.5 6q19 0 34.5 -10t28.5 -25t23.5 -33.5t19.5 -35.5q41 -75 70 -150.5t49 -152.5t32 -155t19 -157q23 63 54.5 137.5t65.5 147.5t68.5 138t64.5 110q78 114 157 157t155 23l13 -35zM119 1216q2 49 27 98.5 t75 84.5q15 1 36.5 -2.5t45 -10.5t47 -16t42.5 -18l-15 -41q-42 -8 -68.5 -25.5t-42.5 -39t-22.5 -45t-7.5 -44.5q-3 -46 13.5 -84.5t52.5 -76.5l-37 -32q-43 25 -71.5 54.5t-46 62t-24 67t-4.5 68.5zM391 962q-15 5 -23.5 11t-23.5 22l217 368q16 6 38 13t45.5 13.5t47 12 t41.5 10.5l25 -34z" />
<glyph unicode="&#x1f60;" horiz-adv-x="1370" d="M1266 383q-14 -101 -53 -180t-92 -133t-114 -82.5t-120 -28.5q-53 0 -92.5 18.5t-67 50t-43 74t-20.5 91.5q-13 -34 -39.5 -75t-65.5 -76t-89.5 -59t-111.5 -24q-70 0 -125.5 36.5t-92 100t-50.5 148.5t0 182q12 80 41 156t73 143t100.5 122.5t123.5 94.5q3 -3 9.5 -6 t14 -6.5t14 -7.5t9.5 -8q-59 -63 -99 -121t-66.5 -114t-41.5 -112t-22 -116q-12 -89 -2 -161.5t34.5 -123.5t59.5 -79t74 -28q43 0 78 26t62 67t44.5 91.5t24.5 98.5q4 36 5.5 71.5t0.5 67t-3.5 56.5t-4.5 40q43 16 86 35t75 34q4 -5 9 -10l21 -21q-15 -35 -29 -77 q-12 -36 -24 -84.5t-18 -105.5q-5 -49 -3.5 -100.5t17.5 -93.5t50.5 -68.5t95.5 -26.5q28 0 58.5 18.5t58 52.5t50 83t34.5 109q17 83 22.5 156.5t-2 144t-28 143t-56.5 154.5q8 8 26.5 12.5t28.5 9.5q108 -98 154 -239t21 -320zM1032 1331q-8 -33 -25.5 -69.5t-44.5 -71 t-62 -65.5t-78 -55l-30 31q84 74 103 160q5 26 2.5 49.5t-15.5 41t-36 28t-58 10.5l-5 40q9 10 35 22t56.5 22t59 16t42.5 5q45 -23 55.5 -68.5t0.5 -95.5z" />
<glyph unicode="&#x1f61;" horiz-adv-x="1370" d="M1266 383q-14 -101 -53 -180t-92 -133t-114 -82.5t-120 -28.5q-53 0 -92.5 18.5t-67 50t-43 74t-20.5 91.5q-13 -34 -39.5 -75t-65.5 -76t-89.5 -59t-111.5 -24q-70 0 -125.5 36.5t-92 100t-50.5 148.5t0 182q12 80 41 156t73 143t100.5 122.5t123.5 94.5q3 -3 9.5 -6 t14 -6.5t14 -7.5t9.5 -8q-59 -63 -99 -121t-66.5 -114t-41.5 -112t-22 -116q-12 -89 -2 -161.5t34.5 -123.5t59.5 -79t74 -28q43 0 78 26t62 67t44.5 91.5t24.5 98.5q4 36 5.5 71.5t0.5 67t-3.5 56.5t-4.5 40q43 16 86 35t75 34q4 -5 9 -10l21 -21q-15 -35 -29 -77 q-12 -36 -24 -84.5t-18 -105.5q-5 -49 -3.5 -100.5t17.5 -93.5t50.5 -68.5t95.5 -26.5q28 0 58.5 18.5t58 52.5t50 83t34.5 109q17 83 22.5 156.5t-2 144t-28 143t-56.5 154.5q8 8 26.5 12.5t28.5 9.5q108 -98 154 -239t21 -320zM723 1315q2 49 27 98.5t75 84.5 q15 1 36.5 -2.5t45 -10.5t47 -16t42.5 -18l-15 -41q-42 -8 -68.5 -25.5t-42.5 -39t-22.5 -45t-7.5 -44.5q-3 -46 13.5 -84.5t52.5 -76.5l-37 -32q-43 25 -71.5 54.5t-46 62t-24 67t-4.5 68.5z" />
<glyph unicode="&#x1f62;" horiz-adv-x="1370" d="M1266 383q-14 -101 -53 -180t-92 -133t-114 -82.5t-120 -28.5q-53 0 -92.5 18.5t-67 50t-43 74t-20.5 91.5q-13 -34 -39.5 -75t-65.5 -76t-89.5 -59t-111.5 -24q-70 0 -125.5 36.5t-92 100t-50.5 148.5t0 182q12 80 41 156t73 143t100.5 122.5t123.5 94.5q3 -3 9.5 -6 t14 -6.5t14 -7.5t9.5 -8q-59 -63 -99 -121t-66.5 -114t-41.5 -112t-22 -116q-12 -89 -2 -161.5t34.5 -123.5t59.5 -79t74 -28q43 0 78 26t62 67t44.5 91.5t24.5 98.5q4 36 5.5 71.5t0.5 67t-3.5 56.5t-4.5 40q43 16 86 35t75 34q4 -5 9 -10l21 -21q-15 -35 -29 -77 q-12 -36 -24 -84.5t-18 -105.5q-5 -49 -3.5 -100.5t17.5 -93.5t50.5 -68.5t95.5 -26.5q28 0 58.5 18.5t58 52.5t50 83t34.5 109q17 83 22.5 156.5t-2 144t-28 143t-56.5 154.5q8 8 26.5 12.5t28.5 9.5q108 -98 154 -239t21 -320zM1085 1078q-20 -8 -31 -12t-28 -3l-140 406 l30 33q32 -2 64 -5t67 -11zM815 1331q-8 -33 -25.5 -69.5t-44.5 -71t-62 -65.5t-78 -55l-30 31q84 74 103 160q5 26 2.5 49.5t-15.5 41t-36 28t-58 10.5l-5 40q9 10 35 22t56.5 22t59 16t42.5 5q45 -23 55.5 -68.5t0.5 -95.5z" />
<glyph unicode="&#x1f64;" horiz-adv-x="1370" d="M1266 383q-14 -101 -53 -180t-92 -133t-114 -82.5t-120 -28.5q-53 0 -92.5 18.5t-67 50t-43 74t-20.5 91.5q-13 -34 -39.5 -75t-65.5 -76t-89.5 -59t-111.5 -24q-70 0 -125.5 36.5t-92 100t-50.5 148.5t0 182q12 80 41 156t73 143t100.5 122.5t123.5 94.5q3 -3 9.5 -6 t14 -6.5t14 -7.5t9.5 -8q-59 -63 -99 -121t-66.5 -114t-41.5 -112t-22 -116q-12 -89 -2 -161.5t34.5 -123.5t59.5 -79t74 -28q43 0 78 26t62 67t44.5 91.5t24.5 98.5q4 36 5.5 71.5t0.5 67t-3.5 56.5t-4.5 40q43 16 86 35t75 34q4 -5 9 -10l21 -21q-15 -35 -29 -77 q-12 -36 -24 -84.5t-18 -105.5q-5 -49 -3.5 -100.5t17.5 -93.5t50.5 -68.5t95.5 -26.5q28 0 58.5 18.5t58 52.5t50 83t34.5 109q17 83 22.5 156.5t-2 144t-28 143t-56.5 154.5q8 8 26.5 12.5t28.5 9.5q108 -98 154 -239t21 -320zM875 1331q-8 -33 -25.5 -69.5t-44.5 -71 t-62 -65.5t-78 -55l-30 31q84 74 103 160q5 26 2.5 49.5t-15.5 41t-36 28t-58 10.5l-5 40q9 10 35 22t56.5 22t59 16t42.5 5q45 -23 55.5 -68.5t0.5 -95.5zM911 1061q-15 5 -23.5 11t-23.5 22l217 368q16 6 38 13t45.5 13.5t47 12t41.5 10.5l25 -34z" />
<glyph unicode="&#x1f65;" horiz-adv-x="1370" d="M1266 383q-14 -101 -53 -180t-92 -133t-114 -82.5t-120 -28.5q-53 0 -92.5 18.5t-67 50t-43 74t-20.5 91.5q-13 -34 -39.5 -75t-65.5 -76t-89.5 -59t-111.5 -24q-70 0 -125.5 36.5t-92 100t-50.5 148.5t0 182q12 80 41 156t73 143t100.5 122.5t123.5 94.5q3 -3 9.5 -6 t14 -6.5t14 -7.5t9.5 -8q-59 -63 -99 -121t-66.5 -114t-41.5 -112t-22 -116q-12 -89 -2 -161.5t34.5 -123.5t59.5 -79t74 -28q43 0 78 26t62 67t44.5 91.5t24.5 98.5q4 36 5.5 71.5t0.5 67t-3.5 56.5t-4.5 40q43 16 86 35t75 34q4 -5 9 -10l21 -21q-15 -35 -29 -77 q-12 -36 -24 -84.5t-18 -105.5q-5 -49 -3.5 -100.5t17.5 -93.5t50.5 -68.5t95.5 -26.5q28 0 58.5 18.5t58 52.5t50 83t34.5 109q17 83 22.5 156.5t-2 144t-28 143t-56.5 154.5q8 8 26.5 12.5t28.5 9.5q108 -98 154 -239t21 -320zM619 1315q2 49 27 98.5t75 84.5 q15 1 36.5 -2.5t45 -10.5t47 -16t42.5 -18l-15 -41q-42 -8 -68.5 -25.5t-42.5 -39t-22.5 -45t-7.5 -44.5q-3 -46 13.5 -84.5t52.5 -76.5l-37 -32q-43 25 -71.5 54.5t-46 62t-24 67t-4.5 68.5zM891 1061q-15 5 -23.5 11t-23.5 22l217 368q16 6 38 13t45.5 13.5t47 12 t41.5 10.5l25 -34z" />
<glyph unicode="&#x1f66;" horiz-adv-x="1370" d="M1266 383q-14 -101 -53 -180t-92 -133t-114 -82.5t-120 -28.5q-53 0 -92.5 18.5t-67 50t-43 74t-20.5 91.5q-13 -34 -39.5 -75t-65.5 -76t-89.5 -59t-111.5 -24q-70 0 -125.5 36.5t-92 100t-50.5 148.5t0 182q12 80 41 156t73 143t100.5 122.5t123.5 94.5q3 -3 9.5 -6 t14 -6.5t14 -7.5t9.5 -8q-59 -63 -99 -121t-66.5 -114t-41.5 -112t-22 -116q-12 -89 -2 -161.5t34.5 -123.5t59.5 -79t74 -28q43 0 78 26t62 67t44.5 91.5t24.5 98.5q4 36 5.5 71.5t0.5 67t-3.5 56.5t-4.5 40q43 16 86 35t75 34q4 -5 9 -10l21 -21q-15 -35 -29 -77 q-12 -36 -24 -84.5t-18 -105.5q-5 -49 -3.5 -100.5t17.5 -93.5t50.5 -68.5t95.5 -26.5q28 0 58.5 18.5t58 52.5t50 83t34.5 109q17 83 22.5 156.5t-2 144t-28 143t-56.5 154.5q8 8 26.5 12.5t28.5 9.5q108 -98 154 -239t21 -320zM1225 1676q-21 -40 -47 -76.5t-57 -64.5 t-66 -44.5t-74 -16.5q-32 0 -58 14t-50 30.5t-47.5 30.5t-49.5 14q-35 0 -70.5 -22t-76.5 -77l-43 21q21 40 47.5 76t57.5 64t66.5 44.5t73.5 16.5q33 0 61 -14t52 -30.5t45.5 -30.5t42.5 -14q35 0 72.5 21.5t75.5 77.5zM985 1282q-1 -30 -14 -65t-35 -68.5t-51.5 -62 t-63.5 -46.5l-36 23q37 29 55.5 67t20.5 68q0 18 -7.5 33t-22 25.5t-34 16.5t-41.5 5l-11 36q7 10 30.5 24.5t52.5 28t56.5 23.5t41.5 12q31 -20 46.5 -47.5t12.5 -72.5z" />
<glyph unicode="&#x1f67;" horiz-adv-x="1370" d="M1266 383q-14 -101 -53 -180t-92 -133t-114 -82.5t-120 -28.5q-53 0 -92.5 18.5t-67 50t-43 74t-20.5 91.5q-13 -34 -39.5 -75t-65.5 -76t-89.5 -59t-111.5 -24q-70 0 -125.5 36.5t-92 100t-50.5 148.5t0 182q12 80 41 156t73 143t100.5 122.5t123.5 94.5q3 -3 9.5 -6 t14 -6.5t14 -7.5t9.5 -8q-59 -63 -99 -121t-66.5 -114t-41.5 -112t-22 -116q-12 -89 -2 -161.5t34.5 -123.5t59.5 -79t74 -28q43 0 78 26t62 67t44.5 91.5t24.5 98.5q4 36 5.5 71.5t0.5 67t-3.5 56.5t-4.5 40q43 16 86 35t75 34q4 -5 9 -10l21 -21q-15 -35 -29 -77 q-12 -36 -24 -84.5t-18 -105.5q-5 -49 -3.5 -100.5t17.5 -93.5t50.5 -68.5t95.5 -26.5q28 0 58.5 18.5t58 52.5t50 83t34.5 109q17 83 22.5 156.5t-2 144t-28 143t-56.5 154.5q8 8 26.5 12.5t28.5 9.5q108 -98 154 -239t21 -320zM1225 1676q-21 -40 -47 -76.5t-57 -64.5 t-66 -44.5t-74 -16.5q-32 0 -58 14t-50 30.5t-47.5 30.5t-49.5 14q-35 0 -70.5 -22t-76.5 -77l-43 21q21 40 47.5 76t57.5 64t66.5 44.5t73.5 16.5q33 0 61 -14t52 -30.5t45.5 -30.5t42.5 -14q35 0 72.5 21.5t75.5 77.5zM747 1283q11 46 33.5 75t56.5 49q13 -1 37 -10.5 t49 -22.5t44.5 -27t23.5 -24l-19 -38q-23 0 -44 -6t-38.5 -17.5t-29 -27t-15.5 -33.5q-7 -31 3 -68t32 -68l-42 -25q-29 19 -49 47.5t-31.5 62t-14.5 68t4 65.5z" />
<glyph unicode="&#x1f69;" horiz-adv-x="1472" d="M328 0l-25 27q4 24 10.5 55t14.5 65t18 68t21 66h41q3 -85 13.5 -127.5t48.5 -42.5h198q-85 85 -137 163.5t-78.5 155t-30.5 152.5t7 157q9 65 33.5 131.5t62 128t88 114.5t112 92.5t133.5 62t153 22.5q99 0 176.5 -37t127.5 -105.5t69.5 -166t2.5 -219.5 q-13 -89 -45.5 -169t-86.5 -158t-129.5 -157t-173.5 -167h208q18 0 31.5 9.5t27 30t28.5 53.5t38 81l39 -19q-6 -29 -14.5 -64.5t-17.5 -71.5t-18 -70t-17 -60h-398l15 111q63 76 112.5 136t87.5 111t65.5 95.5t47 89t32 92t20.5 104.5q13 91 3.5 174t-42.5 147t-90.5 102 t-139.5 38q-62 0 -113.5 -23t-94 -60.5t-75 -85.5t-56 -98t-38 -98t-19.5 -85q-8 -60 -11 -109t1 -95t17 -91t37 -96.5t59 -111.5t85 -136l-15 -111h-419zM133 1216q2 49 27 98.5t75 84.5q15 1 36.5 -2.5t45 -10.5t47 -16t42.5 -18l-15 -41q-42 -8 -68.5 -25.5t-42.5 -39 t-22.5 -45t-7.5 -44.5q-3 -46 13.5 -84.5t52.5 -76.5l-37 -32q-43 25 -71.5 54.5t-46 62t-24 67t-4.5 68.5z" />
<glyph unicode="&#x1f6d;" horiz-adv-x="1632" d="M488 0l-25 27q4 24 10.5 55t14.5 65t18 68t21 66h41q3 -85 13.5 -127.5t48.5 -42.5h198q-85 85 -137 163.5t-78.5 155t-30.5 152.5t7 157q9 65 33.5 131.5t62 128t88 114.5t112 92.5t133.5 62t153 22.5q99 0 176.5 -37t127.5 -105.5t69.5 -166t2.5 -219.5 q-13 -89 -45.5 -169t-86.5 -158t-129.5 -157t-173.5 -167h208q18 0 31.5 9.5t27 30t28.5 53.5t38 81l39 -19q-6 -29 -14.5 -64.5t-17.5 -71.5t-18 -70t-17 -60h-398l15 111q63 76 112.5 136t87.5 111t65.5 95.5t47 89t32 92t20.5 104.5q13 91 3.5 174t-42.5 147t-90.5 102 t-139.5 38q-62 0 -113.5 -23t-94 -60.5t-75 -85.5t-56 -98t-38 -98t-19.5 -85q-8 -60 -11 -109t1 -95t17 -91t37 -96.5t59 -111.5t85 -136l-15 -111h-419zM119 1216q2 49 27 98.5t75 84.5q15 1 36.5 -2.5t45 -10.5t47 -16t42.5 -18l-15 -41q-42 -8 -68.5 -25.5t-42.5 -39 t-22.5 -45t-7.5 -44.5q-3 -46 13.5 -84.5t52.5 -76.5l-37 -32q-43 25 -71.5 54.5t-46 62t-24 67t-4.5 68.5zM391 962q-15 5 -23.5 11t-23.5 22l217 368q16 6 38 13t45.5 13.5t47 12t41.5 10.5l25 -34z" />
<glyph unicode="&#x1f6e;" horiz-adv-x="1472" d="M328 0l-25 27q4 24 10.5 55t14.5 65t18 68t21 66h41q3 -85 13.5 -127.5t48.5 -42.5h198q-85 85 -137 163.5t-78.5 155t-30.5 152.5t7 157q9 65 33.5 131.5t62 128t88 114.5t112 92.5t133.5 62t153 22.5q99 0 176.5 -37t127.5 -105.5t69.5 -166t2.5 -219.5 q-13 -89 -45.5 -169t-86.5 -158t-129.5 -157t-173.5 -167h208q18 0 31.5 9.5t27 30t28.5 53.5t38 81l39 -19q-6 -29 -14.5 -64.5t-17.5 -71.5t-18 -70t-17 -60h-398l15 111q63 76 112.5 136t87.5 111t65.5 95.5t47 89t32 92t20.5 104.5q13 91 3.5 174t-42.5 147t-90.5 102 t-139.5 38q-62 0 -113.5 -23t-94 -60.5t-75 -85.5t-56 -98t-38 -98t-19.5 -85q-8 -60 -11 -109t1 -95t17 -91t37 -96.5t59 -111.5t85 -136l-15 -111h-419zM576 1577q-21 -40 -47 -76.5t-57 -64.5t-66 -44.5t-74 -16.5q-32 0 -58 14t-50 30.5t-47.5 30.5t-49.5 14 q-35 0 -70.5 -22t-76.5 -77l-43 21q21 40 47.5 76t57.5 64t66.5 44.5t73.5 16.5q33 0 61 -14t52 -30.5t45.5 -30.5t42.5 -14q35 0 72.5 21.5t75.5 77.5zM336 1183q-1 -30 -14 -65t-35 -68.5t-51.5 -62t-63.5 -46.5l-36 23q37 29 55.5 67t20.5 68q0 18 -7.5 33t-22 25.5 t-34 16.5t-41.5 5l-11 36q7 10 30.5 24.5t52.5 28t56.5 23.5t41.5 12q31 -20 46.5 -47.5t12.5 -72.5z" />
<glyph unicode="&#x1f70;" horiz-adv-x="1022" d="M322 106q22 0 53.5 27t68 73t76.5 106.5t80 127.5q-10 73 -22.5 143.5t-32 125.5t-48 88.5t-69.5 33.5q-29 0 -70 -28.5t-78.5 -85t-63.5 -141t-26 -197.5q0 -130 36 -201.5t96 -71.5zM1030 915q-41 -36 -81 -87.5t-80.5 -111.5t-80.5 -127t-80 -135q9 -51 21 -104 t25.5 -96t27.5 -70.5t25 -27.5q16 0 35.5 9.5t38.5 25.5t35.5 35.5t27.5 39.5q13 -8 19 -15t14 -15q-11 -26 -27.5 -56.5t-36.5 -61t-42.5 -59.5t-45 -51t-45 -35.5t-41.5 -13.5q-25 0 -43 21.5t-31.5 65t-24.5 108.5t-23 151q-44 -71 -88 -134t-88 -110t-87.5 -74.5 t-87.5 -27.5q-33 0 -70.5 19t-69 60.5t-52.5 107t-21 159.5q0 72 16 146.5t46 144.5t71.5 132t92.5 108t110 73t123 27q49 0 80 -25t50 -69.5t29.5 -107t18.5 -137.5q26 47 49 91.5t42.5 83.5t34.5 71t24 54q43 9 86 21t90 26q6 -11 8.5 -16.5t5.5 -12.5zM652 1078 q-20 -8 -31 -12t-28 -3l-140 406l30 33q32 -2 64 -5t67 -11z" />
<glyph unicode="&#x1f71;" horiz-adv-x="1022" d="M322 106q22 0 53.5 27t68 73t76.5 106.5t80 127.5q-10 73 -22.5 143.5t-32 125.5t-48 88.5t-69.5 33.5q-29 0 -70 -28.5t-78.5 -85t-63.5 -141t-26 -197.5q0 -130 36 -201.5t96 -71.5zM1030 915q-41 -36 -81 -87.5t-80.5 -111.5t-80.5 -127t-80 -135q9 -51 21 -104 t25.5 -96t27.5 -70.5t25 -27.5q16 0 35.5 9.5t38.5 25.5t35.5 35.5t27.5 39.5q13 -8 19 -15t14 -15q-11 -26 -27.5 -56.5t-36.5 -61t-42.5 -59.5t-45 -51t-45 -35.5t-41.5 -13.5q-25 0 -43 21.5t-31.5 65t-24.5 108.5t-23 151q-44 -71 -88 -134t-88 -110t-87.5 -74.5 t-87.5 -27.5q-33 0 -70.5 19t-69 60.5t-52.5 107t-21 159.5q0 72 16 146.5t46 144.5t71.5 132t92.5 108t110 73t123 27q49 0 80 -25t50 -69.5t29.5 -107t18.5 -137.5q26 47 49 91.5t42.5 83.5t34.5 71t24 54q43 9 86 21t90 26q6 -11 8.5 -16.5t5.5 -12.5zM563 1061 q-15 5 -23.5 11t-23.5 22l217 368q16 6 38 13t45.5 13.5t47 12t41.5 10.5l25 -34z" />
<glyph unicode="&#x1f72;" horiz-adv-x="819" d="M866 872q-45 -66 -71 -99.5t-40 -33.5q-10 0 -33.5 15t-55.5 33.5t-70 33.5t-76 15q-46 0 -81.5 -13.5t-60 -37t-37 -55t-12.5 -68.5q0 -22 15.5 -45.5t46 -43.5t76 -33t104.5 -13q32 0 61.5 4t54.5 10l14 -21l-46 -104q-31 10 -66 15t-67 5q-57 0 -105.5 -13 t-84.5 -37.5t-56.5 -60.5t-20.5 -81q0 -29 16.5 -57t46.5 -49.5t72 -34.5t93 -13q45 0 80 3.5t70 17t74.5 39t92.5 69.5l31 -43q-57 -57 -109 -98t-104.5 -67.5t-107.5 -39t-117 -12.5q-67 0 -121 17t-91.5 46.5t-58 69.5t-20.5 86q0 48 18 91.5t48.5 79.5t71.5 64.5 t87 47.5q-60 25 -93.5 65.5t-33.5 102.5q0 46 18.5 86.5t49 74.5t70 61.5t81 46t81.5 28.5t73 10q47 0 83 -7t67 -15t59 -13.5t59 -1.5q9 -5 14 -11t11 -16zM612 1078q-20 -8 -31 -12t-28 -3l-140 406l30 33q32 -2 64 -5t67 -11z" />
<glyph unicode="&#x1f73;" horiz-adv-x="819" d="M866 872q-45 -66 -71 -99.5t-40 -33.5q-10 0 -33.5 15t-55.5 33.5t-70 33.5t-76 15q-46 0 -81.5 -13.5t-60 -37t-37 -55t-12.5 -68.5q0 -22 15.5 -45.5t46 -43.5t76 -33t104.5 -13q32 0 61.5 4t54.5 10l14 -21l-46 -104q-31 10 -66 15t-67 5q-57 0 -105.5 -13 t-84.5 -37.5t-56.5 -60.5t-20.5 -81q0 -29 16.5 -57t46.5 -49.5t72 -34.5t93 -13q45 0 80 3.5t70 17t74.5 39t92.5 69.5l31 -43q-57 -57 -109 -98t-104.5 -67.5t-107.5 -39t-117 -12.5q-67 0 -121 17t-91.5 46.5t-58 69.5t-20.5 86q0 48 18 91.5t48.5 79.5t71.5 64.5 t87 47.5q-60 25 -93.5 65.5t-33.5 102.5q0 46 18.5 86.5t49 74.5t70 61.5t81 46t81.5 28.5t73 10q47 0 83 -7t67 -15t59 -13.5t59 -1.5q9 -5 14 -11t11 -16zM523 1061q-15 5 -23.5 11t-23.5 22l217 368q16 6 38 13t45.5 13.5t47 12t41.5 10.5l25 -34z" />
<glyph unicode="&#x1f74;" d="M895 762q0 -20 -4.5 -62.5t-12.5 -100.5t-18.5 -128t-22 -143.5t-23 -147.5t-22.5 -141q-16 -104 -23.5 -175.5t-9 -119t1.5 -74t9 -40.5q-15 -5 -36.5 -13.5t-45 -19t-45 -20.5t-35.5 -17l-33 29q4 29 13 85t21 130t26.5 160.5t28.5 176t27 176.5t23.5 162t16.5 132.5 t6 88.5q0 76 -20 106t-62 30q-14 0 -47.5 -20t-75.5 -57t-87 -88.5t-83 -115.5q-27 -45 -46 -110t-31 -144q-14 -89 -19.5 -153t-3.5 -123q-13 -7 -32.5 -15.5t-40 -17.5t-39.5 -17.5t-31 -15.5l-33 31q14 66 27.5 143t26 154.5t23.5 153t19 139t12.5 111.5t4.5 71 t-2.5 36.5t-7 20t-11.5 8.5t-16 2t-26.5 -4t-35.5 -9q-21 -6 -45 -13l-14 39q42 18 84.5 35t79.5 30t64.5 21t39.5 8q14 0 22 -4.5t11.5 -16.5t4.5 -34t1 -58q0 -11 -1.5 -34t-4 -49t-5 -50.5t-3.5 -36.5q55 69 111 122t110 89t104.5 54t94.5 18q32 0 58 -9t44.5 -29.5 t28.5 -54t10 -81.5zM672 1078q-20 -8 -31 -12t-28 -3l-140 406l30 33q32 -2 64 -5t67 -11z" />
<glyph unicode="&#x1f75;" d="M895 762q0 -20 -4.5 -62.5t-12.5 -100.5t-18.5 -128t-22 -143.5t-23 -147.5t-22.5 -141q-16 -104 -23.5 -175.5t-9 -119t1.5 -74t9 -40.5q-15 -5 -36.5 -13.5t-45 -19t-45 -20.5t-35.5 -17l-33 29q4 29 13 85t21 130t26.5 160.5t28.5 176t27 176.5t23.5 162t16.5 132.5 t6 88.5q0 76 -20 106t-62 30q-14 0 -47.5 -20t-75.5 -57t-87 -88.5t-83 -115.5q-27 -45 -46 -110t-31 -144q-14 -89 -19.5 -153t-3.5 -123q-13 -7 -32.5 -15.5t-40 -17.5t-39.5 -17.5t-31 -15.5l-33 31q14 66 27.5 143t26 154.5t23.5 153t19 139t12.5 111.5t4.5 71 t-2.5 36.5t-7 20t-11.5 8.5t-16 2t-26.5 -4t-35.5 -9q-21 -6 -45 -13l-14 39q42 18 84.5 35t79.5 30t64.5 21t39.5 8q14 0 22 -4.5t11.5 -16.5t4.5 -34t1 -58q0 -11 -1.5 -34t-4 -49t-5 -50.5t-3.5 -36.5q55 69 111 122t110 89t104.5 54t94.5 18q32 0 58 -9t44.5 -29.5 t28.5 -54t10 -81.5zM583 1061q-15 5 -23.5 11t-23.5 22l217 368q16 6 38 13t45.5 13.5t47 12t41.5 10.5l25 -34z" />
<glyph unicode="&#x1f76;" horiz-adv-x="539" d="M492 219q-67 -127 -133 -193.5t-144 -66.5q-134 0 -94 231l80 459q10 58 13 92t-8.5 50.5t-41 21t-84.5 4.5l6 39q63 11 136.5 31t139.5 49h31l-108 -647q-12 -67 -13.5 -104t3 -55t14.5 -22t22 -4q23 0 61.5 32t86.5 114zM404 1078q-20 -8 -31 -12t-28 -3l-140 406 l30 33q32 -2 64 -5t67 -11z" />
<glyph unicode="&#x1f77;" horiz-adv-x="539" d="M492 219q-67 -127 -133 -193.5t-144 -66.5q-134 0 -94 231l80 459q10 58 13 92t-8.5 50.5t-41 21t-84.5 4.5l6 39q63 11 136.5 31t139.5 49h31l-108 -647q-12 -67 -13.5 -104t3 -55t14.5 -22t22 -4q23 0 61.5 32t86.5 114zM314 1061q-15 5 -23.5 11t-23.5 22l217 368 q16 6 38 13t45.5 13.5t47 12t41.5 10.5l25 -34z" />
<glyph unicode="&#x1f78;" horiz-adv-x="874" d="M668 504q0 153 -56 234t-159 81q-72 0 -121 -41.5t-79 -104.5t-43 -136.5t-13 -137.5q0 -67 16.5 -126.5t46 -104t69 -70.5t85.5 -26t82.5 20.5t65 55t48.5 79t33 92.5t19 96t6 89zM811 559q0 -67 -15 -135.5t-44 -133t-71.5 -123t-98.5 -104.5q-26 -21 -55 -40 t-59 -33.5t-61 -22.5t-61 -8q-70 0 -124.5 29.5t-92 81t-57 122t-19.5 152.5q0 72 12 138.5t39 128.5t72 119t111 110q51 40 112 68t123 28q78 0 133 -28t89.5 -78t50.5 -119t16 -152zM622 1078q-20 -8 -31 -12t-28 -3l-140 406l30 33q32 -2 64 -5t67 -11z" />
<glyph unicode="&#x1f79;" horiz-adv-x="874" d="M668 504q0 153 -56 234t-159 81q-72 0 -121 -41.5t-79 -104.5t-43 -136.5t-13 -137.5q0 -67 16.5 -126.5t46 -104t69 -70.5t85.5 -26t82.5 20.5t65 55t48.5 79t33 92.5t19 96t6 89zM811 559q0 -67 -15 -135.5t-44 -133t-71.5 -123t-98.5 -104.5q-26 -21 -55 -40 t-59 -33.5t-61 -22.5t-61 -8q-70 0 -124.5 29.5t-92 81t-57 122t-19.5 152.5q0 72 12 138.5t39 128.5t72 119t111 110q51 40 112 68t123 28q78 0 133 -28t89.5 -78t50.5 -119t16 -152zM533 1061q-15 5 -23.5 11t-23.5 22l217 368q16 6 38 13t45.5 13.5t47 12t41.5 10.5 l25 -34z" />
<glyph unicode="&#x1f7a;" horiz-adv-x="965" d="M887 588q-10 -69 -37 -142t-67.5 -143t-92.5 -132.5t-112.5 -109.5t-126.5 -74.5t-134 -27.5q-24 0 -59.5 13t-68.5 47t-55.5 93t-18.5 150q2 54 15 118t27.5 131t26 131t11.5 118q0 23 -3 36.5t-8.5 20t-13 8.5t-16.5 2t-26 -3.5t-34 -8.5q-20 -5 -43 -12l-12 37 q42 19 84.5 36.5t78.5 30.5t63.5 21t39.5 8q29 0 39 -19t10 -65q0 -57 -12 -129t-27 -145.5t-29 -141.5t-18 -117q-11 -120 23 -179.5t102 -59.5q42 0 83.5 22t78.5 58.5t69.5 83.5t58 97.5t42 100.5t22.5 93q9 60 6 111t-18 90.5t-42.5 66t-68.5 35.5l-10 38 q18 8 42.5 16.5t50.5 17t50.5 15t43.5 11.5q58 -20 82.5 -110t3.5 -238zM658 1078q-20 -8 -31 -12t-28 -3l-140 406l30 33q32 -2 64 -5t67 -11z" />
<glyph unicode="&#x1f7b;" horiz-adv-x="965" d="M887 588q-10 -69 -37 -142t-67.5 -143t-92.5 -132.5t-112.5 -109.5t-126.5 -74.5t-134 -27.5q-24 0 -59.5 13t-68.5 47t-55.5 93t-18.5 150q2 54 15 118t27.5 131t26 131t11.5 118q0 23 -3 36.5t-8.5 20t-13 8.5t-16.5 2t-26 -3.5t-34 -8.5q-20 -5 -43 -12l-12 37 q42 19 84.5 36.5t78.5 30.5t63.5 21t39.5 8q29 0 39 -19t10 -65q0 -57 -12 -129t-27 -145.5t-29 -141.5t-18 -117q-11 -120 23 -179.5t102 -59.5q42 0 83.5 22t78.5 58.5t69.5 83.5t58 97.5t42 100.5t22.5 93q9 60 6 111t-18 90.5t-42.5 66t-68.5 35.5l-10 38 q18 8 42.5 16.5t50.5 17t50.5 15t43.5 11.5q58 -20 82.5 -110t3.5 -238zM569 1061q-15 5 -23.5 11t-23.5 22l217 368q16 6 38 13t45.5 13.5t47 12t41.5 10.5l25 -34z" />
<glyph unicode="&#x1f7c;" horiz-adv-x="1370" d="M1266 383q-14 -101 -53 -180t-92 -133t-114 -82.5t-120 -28.5q-53 0 -92.5 18.5t-67 50t-43 74t-20.5 91.5q-13 -34 -39.5 -75t-65.5 -76t-89.5 -59t-111.5 -24q-70 0 -125.5 36.5t-92 100t-50.5 148.5t0 182q12 80 41 156t73 143t100.5 122.5t123.5 94.5q3 -3 9.5 -6 t14 -6.5t14 -7.5t9.5 -8q-59 -63 -99 -121t-66.5 -114t-41.5 -112t-22 -116q-12 -89 -2 -161.5t34.5 -123.5t59.5 -79t74 -28q43 0 78 26t62 67t44.5 91.5t24.5 98.5q4 36 5.5 71.5t0.5 67t-3.5 56.5t-4.5 40q43 16 86 35t75 34q4 -5 9 -10l21 -21q-15 -35 -29 -77 q-12 -36 -24 -84.5t-18 -105.5q-5 -49 -3.5 -100.5t17.5 -93.5t50.5 -68.5t95.5 -26.5q28 0 58.5 18.5t58 52.5t50 83t34.5 109q17 83 22.5 156.5t-2 144t-28 143t-56.5 154.5q8 8 26.5 12.5t28.5 9.5q108 -98 154 -239t21 -320zM882 1078q-20 -8 -31 -12t-28 -3l-140 406 l30 33q32 -2 64 -5t67 -11z" />
<glyph unicode="&#x1f7d;" horiz-adv-x="1370" d="M1266 383q-14 -101 -53 -180t-92 -133t-114 -82.5t-120 -28.5q-53 0 -92.5 18.5t-67 50t-43 74t-20.5 91.5q-13 -34 -39.5 -75t-65.5 -76t-89.5 -59t-111.5 -24q-70 0 -125.5 36.5t-92 100t-50.5 148.5t0 182q12 80 41 156t73 143t100.5 122.5t123.5 94.5q3 -3 9.5 -6 t14 -6.5t14 -7.5t9.5 -8q-59 -63 -99 -121t-66.5 -114t-41.5 -112t-22 -116q-12 -89 -2 -161.5t34.5 -123.5t59.5 -79t74 -28q43 0 78 26t62 67t44.5 91.5t24.5 98.5q4 36 5.5 71.5t0.5 67t-3.5 56.5t-4.5 40q43 16 86 35t75 34q4 -5 9 -10l21 -21q-15 -35 -29 -77 q-12 -36 -24 -84.5t-18 -105.5q-5 -49 -3.5 -100.5t17.5 -93.5t50.5 -68.5t95.5 -26.5q28 0 58.5 18.5t58 52.5t50 83t34.5 109q17 83 22.5 156.5t-2 144t-28 143t-56.5 154.5q8 8 26.5 12.5t28.5 9.5q108 -98 154 -239t21 -320zM793 1061q-15 5 -23.5 11t-23.5 22l217 368 q16 6 38 13t45.5 13.5t47 12t41.5 10.5l25 -34z" />
<glyph unicode="&#x1f84;" horiz-adv-x="1022" d="M322 106q22 0 53.5 27t68 73t76.5 106.5t80 127.5q-10 73 -22.5 143.5t-32 125.5t-48 88.5t-69.5 33.5q-29 0 -70 -28.5t-78.5 -85t-63.5 -141t-26 -197.5q0 -130 36 -201.5t96 -71.5zM1030 915q-41 -36 -81 -87.5t-80.5 -111.5t-80.5 -127t-80 -135q9 -51 21 -104 t25.5 -96t27.5 -70.5t25 -27.5q16 0 35.5 9.5t38.5 25.5t35.5 35.5t27.5 39.5q13 -8 19 -15t14 -15q-11 -26 -27.5 -56.5t-36.5 -61t-42.5 -59.5t-45 -51t-45 -35.5t-41.5 -13.5q-25 0 -43 21.5t-31.5 65t-24.5 108.5t-23 151q-44 -71 -88 -134t-88 -110t-87.5 -74.5 t-87.5 -27.5q-33 0 -70.5 19t-69 60.5t-52.5 107t-21 159.5q0 72 16 146.5t46 144.5t71.5 132t92.5 108t110 73t123 27q49 0 80 -25t50 -69.5t29.5 -107t18.5 -137.5q26 47 49 91.5t42.5 83.5t34.5 71t24 54q43 9 86 21t90 26q6 -11 8.5 -16.5t5.5 -12.5zM645 1331 q-8 -33 -25.5 -69.5t-44.5 -71t-62 -65.5t-78 -55l-30 31q84 74 103 160q5 26 2.5 49.5t-15.5 41t-36 28t-58 10.5l-5 40q9 10 35 22t56.5 22t59 16t42.5 5q45 -23 55.5 -68.5t0.5 -95.5zM681 1061q-15 5 -23.5 11t-23.5 22l217 368q16 6 38 13t45.5 13.5t47 12t41.5 10.5 l25 -34zM488 -407q-20 -29 -42.5 -47t-43.5 -28.5t-39.5 -14t-30.5 -3.5q-15 0 -28.5 8t-21.5 26.5t-9 48t7 71.5q15 76 18.5 124.5t0.5 67.5q12 3 28 6.5t33 8t33.5 9.5t30.5 10h25l-24 -160q-8 -45 -11 -70.5t-2.5 -38.5t5 -16.5t10.5 -3.5q17 0 40 23z" />
<glyph unicode="&#x1f85;" horiz-adv-x="1022" d="M322 106q22 0 53.5 27t68 73t76.5 106.5t80 127.5q-10 73 -22.5 143.5t-32 125.5t-48 88.5t-69.5 33.5q-29 0 -70 -28.5t-78.5 -85t-63.5 -141t-26 -197.5q0 -130 36 -201.5t96 -71.5zM1030 915q-41 -36 -81 -87.5t-80.5 -111.5t-80.5 -127t-80 -135q9 -51 21 -104 t25.5 -96t27.5 -70.5t25 -27.5q16 0 35.5 9.5t38.5 25.5t35.5 35.5t27.5 39.5q13 -8 19 -15t14 -15q-11 -26 -27.5 -56.5t-36.5 -61t-42.5 -59.5t-45 -51t-45 -35.5t-41.5 -13.5q-25 0 -43 21.5t-31.5 65t-24.5 108.5t-23 151q-44 -71 -88 -134t-88 -110t-87.5 -74.5 t-87.5 -27.5q-33 0 -70.5 19t-69 60.5t-52.5 107t-21 159.5q0 72 16 146.5t46 144.5t71.5 132t92.5 108t110 73t123 27q49 0 80 -25t50 -69.5t29.5 -107t18.5 -137.5q26 47 49 91.5t42.5 83.5t34.5 71t24 54q43 9 86 21t90 26q6 -11 8.5 -16.5t5.5 -12.5zM389 1315 q2 49 27 98.5t75 84.5q15 1 36.5 -2.5t45 -10.5t47 -16t42.5 -18l-15 -41q-42 -8 -68.5 -25.5t-42.5 -39t-22.5 -45t-7.5 -44.5q-3 -46 13.5 -84.5t52.5 -76.5l-37 -32q-43 25 -71.5 54.5t-46 62t-24 67t-4.5 68.5zM661 1061q-15 5 -23.5 11t-23.5 22l217 368q16 6 38 13 t45.5 13.5t47 12t41.5 10.5l25 -34zM488 -407q-20 -29 -42.5 -47t-43.5 -28.5t-39.5 -14t-30.5 -3.5q-15 0 -28.5 8t-21.5 26.5t-9 48t7 71.5q15 76 18.5 124.5t0.5 67.5q12 3 28 6.5t33 8t33.5 9.5t30.5 10h25l-24 -160q-8 -45 -11 -70.5t-2.5 -38.5t5 -16.5t10.5 -3.5 q17 0 40 23z" />
<glyph unicode="&#x1f90;" d="M895 762q0 -20 -4.5 -62.5t-12.5 -100.5t-18.5 -128t-22 -143.5t-23 -147.5t-22.5 -141q-16 -104 -23.5 -175.5t-9 -119t1.5 -74t9 -40.5q-15 -5 -36.5 -13.5t-45 -19t-45 -20.5t-35.5 -17l-33 29q4 29 13 85t21 130t26.5 160.5t28.5 176t27 176.5t23.5 162t16.5 132.5 t6 88.5q0 76 -20 106t-62 30q-14 0 -47.5 -20t-75.5 -57t-87 -88.5t-83 -115.5q-27 -45 -46 -110t-31 -144q-14 -89 -19.5 -153t-3.5 -123q-13 -7 -32.5 -15.5t-40 -17.5t-39.5 -17.5t-31 -15.5l-33 31q14 66 27.5 143t26 154.5t23.5 153t19 139t12.5 111.5t4.5 71 t-2.5 36.5t-7 20t-11.5 8.5t-16 2t-26.5 -4t-35.5 -9q-21 -6 -45 -13l-14 39q42 18 84.5 35t79.5 30t64.5 21t39.5 8q14 0 22 -4.5t11.5 -16.5t4.5 -34t1 -58q0 -11 -1.5 -34t-4 -49t-5 -50.5t-3.5 -36.5q55 69 111 122t110 89t104.5 54t94.5 18q32 0 58 -9t44.5 -29.5 t28.5 -54t10 -81.5zM822 1331q-8 -33 -25.5 -69.5t-44.5 -71t-62 -65.5t-78 -55l-30 31q84 74 103 160q5 26 2.5 49.5t-15.5 41t-36 28t-58 10.5l-5 40q9 10 35 22t56.5 22t59 16t42.5 5q45 -23 55.5 -68.5t0.5 -95.5zM256 -407q-20 -29 -42.5 -47t-43.5 -28.5t-39.5 -14 t-30.5 -3.5q-15 0 -28.5 8t-21.5 26.5t-9 48t7 71.5q15 76 18.5 124.5t0.5 67.5q12 3 28 6.5t33 8t33.5 9.5t30.5 10h25l-24 -160q-8 -45 -11 -70.5t-2.5 -38.5t5 -16.5t10.5 -3.5q17 0 40 23z" />
<glyph unicode="&#x1f91;" d="M895 762q0 -20 -4.5 -62.5t-12.5 -100.5t-18.5 -128t-22 -143.5t-23 -147.5t-22.5 -141q-16 -104 -23.5 -175.5t-9 -119t1.5 -74t9 -40.5q-15 -5 -36.5 -13.5t-45 -19t-45 -20.5t-35.5 -17l-33 29q4 29 13 85t21 130t26.5 160.5t28.5 176t27 176.5t23.5 162t16.5 132.5 t6 88.5q0 76 -20 106t-62 30q-14 0 -47.5 -20t-75.5 -57t-87 -88.5t-83 -115.5q-27 -45 -46 -110t-31 -144q-14 -89 -19.5 -153t-3.5 -123q-13 -7 -32.5 -15.5t-40 -17.5t-39.5 -17.5t-31 -15.5l-33 31q14 66 27.5 143t26 154.5t23.5 153t19 139t12.5 111.5t4.5 71 t-2.5 36.5t-7 20t-11.5 8.5t-16 2t-26.5 -4t-35.5 -9q-21 -6 -45 -13l-14 39q42 18 84.5 35t79.5 30t64.5 21t39.5 8q14 0 22 -4.5t11.5 -16.5t4.5 -34t1 -58q0 -11 -1.5 -34t-4 -49t-5 -50.5t-3.5 -36.5q55 69 111 122t110 89t104.5 54t94.5 18q32 0 58 -9t44.5 -29.5 t28.5 -54t10 -81.5zM513 1315q2 49 27 98.5t75 84.5q15 1 36.5 -2.5t45 -10.5t47 -16t42.5 -18l-15 -41q-42 -8 -68.5 -25.5t-42.5 -39t-22.5 -45t-7.5 -44.5q-3 -46 13.5 -84.5t52.5 -76.5l-37 -32q-43 25 -71.5 54.5t-46 62t-24 67t-4.5 68.5zM256 -407q-20 -29 -42.5 -47 t-43.5 -28.5t-39.5 -14t-30.5 -3.5q-15 0 -28.5 8t-21.5 26.5t-9 48t7 71.5q15 76 18.5 124.5t0.5 67.5q12 3 28 6.5t33 8t33.5 9.5t30.5 10h25l-24 -160q-8 -45 -11 -70.5t-2.5 -38.5t5 -16.5t10.5 -3.5q17 0 40 23z" />
<glyph unicode="&#x1f94;" d="M895 762q0 -20 -4.5 -62.5t-12.5 -100.5t-18.5 -128t-22 -143.5t-23 -147.5t-22.5 -141q-16 -104 -23.5 -175.5t-9 -119t1.5 -74t9 -40.5q-15 -5 -36.5 -13.5t-45 -19t-45 -20.5t-35.5 -17l-33 29q4 29 13 85t21 130t26.5 160.5t28.5 176t27 176.5t23.5 162t16.5 132.5 t6 88.5q0 76 -20 106t-62 30q-14 0 -47.5 -20t-75.5 -57t-87 -88.5t-83 -115.5q-27 -45 -46 -110t-31 -144q-14 -89 -19.5 -153t-3.5 -123q-13 -7 -32.5 -15.5t-40 -17.5t-39.5 -17.5t-31 -15.5l-33 31q14 66 27.5 143t26 154.5t23.5 153t19 139t12.5 111.5t4.5 71 t-2.5 36.5t-7 20t-11.5 8.5t-16 2t-26.5 -4t-35.5 -9q-21 -6 -45 -13l-14 39q42 18 84.5 35t79.5 30t64.5 21t39.5 8q14 0 22 -4.5t11.5 -16.5t4.5 -34t1 -58q0 -11 -1.5 -34t-4 -49t-5 -50.5t-3.5 -36.5q55 69 111 122t110 89t104.5 54t94.5 18q32 0 58 -9t44.5 -29.5 t28.5 -54t10 -81.5zM665 1331q-8 -33 -25.5 -69.5t-44.5 -71t-62 -65.5t-78 -55l-30 31q84 74 103 160q5 26 2.5 49.5t-15.5 41t-36 28t-58 10.5l-5 40q9 10 35 22t56.5 22t59 16t42.5 5q45 -23 55.5 -68.5t0.5 -95.5zM701 1061q-15 5 -23.5 11t-23.5 22l217 368q16 6 38 13 t45.5 13.5t47 12t41.5 10.5l25 -34zM256 -407q-20 -29 -42.5 -47t-43.5 -28.5t-39.5 -14t-30.5 -3.5q-15 0 -28.5 8t-21.5 26.5t-9 48t7 71.5q15 76 18.5 124.5t0.5 67.5q12 3 28 6.5t33 8t33.5 9.5t30.5 10h25l-24 -160q-8 -45 -11 -70.5t-2.5 -38.5t5 -16.5t10.5 -3.5 q17 0 40 23z" />
<glyph unicode="&#x1f96;" d="M895 762q0 -20 -4.5 -62.5t-12.5 -100.5t-18.5 -128t-22 -143.5t-23 -147.5t-22.5 -141q-16 -104 -23.5 -175.5t-9 -119t1.5 -74t9 -40.5q-15 -5 -36.5 -13.5t-45 -19t-45 -20.5t-35.5 -17l-33 29q4 29 13 85t21 130t26.5 160.5t28.5 176t27 176.5t23.5 162t16.5 132.5 t6 88.5q0 76 -20 106t-62 30q-14 0 -47.5 -20t-75.5 -57t-87 -88.5t-83 -115.5q-27 -45 -46 -110t-31 -144q-14 -89 -19.5 -153t-3.5 -123q-13 -7 -32.5 -15.5t-40 -17.5t-39.5 -17.5t-31 -15.5l-33 31q14 66 27.5 143t26 154.5t23.5 153t19 139t12.5 111.5t4.5 71 t-2.5 36.5t-7 20t-11.5 8.5t-16 2t-26.5 -4t-35.5 -9q-21 -6 -45 -13l-14 39q42 18 84.5 35t79.5 30t64.5 21t39.5 8q14 0 22 -4.5t11.5 -16.5t4.5 -34t1 -58q0 -11 -1.5 -34t-4 -49t-5 -50.5t-3.5 -36.5q55 69 111 122t110 89t104.5 54t94.5 18q32 0 58 -9t44.5 -29.5 t28.5 -54t10 -81.5zM1015 1676q-21 -40 -47 -76.5t-57 -64.5t-66 -44.5t-74 -16.5q-32 0 -58 14t-50 30.5t-47.5 30.5t-49.5 14q-35 0 -70.5 -22t-76.5 -77l-43 21q21 40 47.5 76t57.5 64t66.5 44.5t73.5 16.5q33 0 61 -14t52 -30.5t45.5 -30.5t42.5 -14q35 0 72.5 21.5 t75.5 77.5zM775 1282q-1 -30 -14 -65t-35 -68.5t-51.5 -62t-63.5 -46.5l-36 23q37 29 55.5 67t20.5 68q0 18 -7.5 33t-22 25.5t-34 16.5t-41.5 5l-11 36q7 10 30.5 24.5t52.5 28t56.5 23.5t41.5 12q31 -20 46.5 -47.5t12.5 -72.5zM256 -407q-20 -29 -42.5 -47t-43.5 -28.5 t-39.5 -14t-30.5 -3.5q-15 0 -28.5 8t-21.5 26.5t-9 48t7 71.5q15 76 18.5 124.5t0.5 67.5q12 3 28 6.5t33 8t33.5 9.5t30.5 10h25l-24 -160q-8 -45 -11 -70.5t-2.5 -38.5t5 -16.5t10.5 -3.5q17 0 40 23z" />
<glyph unicode="&#x1f97;" d="M895 762q0 -20 -4.5 -62.5t-12.5 -100.5t-18.5 -128t-22 -143.5t-23 -147.5t-22.5 -141q-16 -104 -23.5 -175.5t-9 -119t1.5 -74t9 -40.5q-15 -5 -36.5 -13.5t-45 -19t-45 -20.5t-35.5 -17l-33 29q4 29 13 85t21 130t26.5 160.5t28.5 176t27 176.5t23.5 162t16.5 132.5 t6 88.5q0 76 -20 106t-62 30q-14 0 -47.5 -20t-75.5 -57t-87 -88.5t-83 -115.5q-27 -45 -46 -110t-31 -144q-14 -89 -19.5 -153t-3.5 -123q-13 -7 -32.5 -15.5t-40 -17.5t-39.5 -17.5t-31 -15.5l-33 31q14 66 27.5 143t26 154.5t23.5 153t19 139t12.5 111.5t4.5 71 t-2.5 36.5t-7 20t-11.5 8.5t-16 2t-26.5 -4t-35.5 -9q-21 -6 -45 -13l-14 39q42 18 84.5 35t79.5 30t64.5 21t39.5 8q14 0 22 -4.5t11.5 -16.5t4.5 -34t1 -58q0 -11 -1.5 -34t-4 -49t-5 -50.5t-3.5 -36.5q55 69 111 122t110 89t104.5 54t94.5 18q32 0 58 -9t44.5 -29.5 t28.5 -54t10 -81.5zM1015 1676q-21 -40 -47 -76.5t-57 -64.5t-66 -44.5t-74 -16.5q-32 0 -58 14t-50 30.5t-47.5 30.5t-49.5 14q-35 0 -70.5 -22t-76.5 -77l-43 21q21 40 47.5 76t57.5 64t66.5 44.5t73.5 16.5q33 0 61 -14t52 -30.5t45.5 -30.5t42.5 -14q35 0 72.5 21.5 t75.5 77.5zM537 1283q11 46 33.5 75t56.5 49q13 -1 37 -10.5t49 -22.5t44.5 -27t23.5 -24l-19 -38q-23 0 -44 -6t-38.5 -17.5t-29 -27t-15.5 -33.5q-7 -31 3 -68t32 -68l-42 -25q-29 19 -49 47.5t-31.5 62t-14.5 68t4 65.5zM256 -407q-20 -29 -42.5 -47t-43.5 -28.5 t-39.5 -14t-30.5 -3.5q-15 0 -28.5 8t-21.5 26.5t-9 48t7 71.5q15 76 18.5 124.5t0.5 67.5q12 3 28 6.5t33 8t33.5 9.5t30.5 10h25l-24 -160q-8 -45 -11 -70.5t-2.5 -38.5t5 -16.5t10.5 -3.5q17 0 40 23z" />
<glyph unicode="&#x1fa0;" horiz-adv-x="1370" d="M1266 383q-14 -101 -53 -180t-92 -133t-114 -82.5t-120 -28.5q-53 0 -92.5 18.5t-67 50t-43 74t-20.5 91.5q-13 -34 -39.5 -75t-65.5 -76t-89.5 -59t-111.5 -24q-70 0 -125.5 36.5t-92 100t-50.5 148.5t0 182q12 80 41 156t73 143t100.5 122.5t123.5 94.5q3 -3 9.5 -6 t14 -6.5t14 -7.5t9.5 -8q-59 -63 -99 -121t-66.5 -114t-41.5 -112t-22 -116q-12 -89 -2 -161.5t34.5 -123.5t59.5 -79t74 -28q43 0 78 26t62 67t44.5 91.5t24.5 98.5q4 36 5.5 71.5t0.5 67t-3.5 56.5t-4.5 40q43 16 86 35t75 34q4 -5 9 -10l21 -21q-15 -35 -29 -77 q-12 -36 -24 -84.5t-18 -105.5q-5 -49 -3.5 -100.5t17.5 -93.5t50.5 -68.5t95.5 -26.5q28 0 58.5 18.5t58 52.5t50 83t34.5 109q17 83 22.5 156.5t-2 144t-28 143t-56.5 154.5q8 8 26.5 12.5t28.5 9.5q108 -98 154 -239t21 -320zM1032 1331q-8 -33 -25.5 -69.5t-44.5 -71 t-62 -65.5t-78 -55l-30 31q84 74 103 160q5 26 2.5 49.5t-15.5 41t-36 28t-58 10.5l-5 40q9 10 35 22t56.5 22t59 16t42.5 5q45 -23 55.5 -68.5t0.5 -95.5zM718 -407q-20 -29 -42.5 -47t-43.5 -28.5t-39.5 -14t-30.5 -3.5q-15 0 -28.5 8t-21.5 26.5t-9 48t7 71.5 q15 76 18.5 124.5t0.5 67.5q12 3 28 6.5t33 8t33.5 9.5t30.5 10h25l-24 -160q-8 -45 -11 -70.5t-2.5 -38.5t5 -16.5t10.5 -3.5q17 0 40 23z" />
<glyph unicode="&#x1fa7;" horiz-adv-x="1370" d="M1266 383q-14 -101 -53 -180t-92 -133t-114 -82.5t-120 -28.5q-53 0 -92.5 18.5t-67 50t-43 74t-20.5 91.5q-13 -34 -39.5 -75t-65.5 -76t-89.5 -59t-111.5 -24q-70 0 -125.5 36.5t-92 100t-50.5 148.5t0 182q12 80 41 156t73 143t100.5 122.5t123.5 94.5q3 -3 9.5 -6 t14 -6.5t14 -7.5t9.5 -8q-59 -63 -99 -121t-66.5 -114t-41.5 -112t-22 -116q-12 -89 -2 -161.5t34.5 -123.5t59.5 -79t74 -28q43 0 78 26t62 67t44.5 91.5t24.5 98.5q4 36 5.5 71.5t0.5 67t-3.5 56.5t-4.5 40q43 16 86 35t75 34q4 -5 9 -10l21 -21q-15 -35 -29 -77 q-12 -36 -24 -84.5t-18 -105.5q-5 -49 -3.5 -100.5t17.5 -93.5t50.5 -68.5t95.5 -26.5q28 0 58.5 18.5t58 52.5t50 83t34.5 109q17 83 22.5 156.5t-2 144t-28 143t-56.5 154.5q8 8 26.5 12.5t28.5 9.5q108 -98 154 -239t21 -320zM1225 1676q-21 -40 -47 -76.5t-57 -64.5 t-66 -44.5t-74 -16.5q-32 0 -58 14t-50 30.5t-47.5 30.5t-49.5 14q-35 0 -70.5 -22t-76.5 -77l-43 21q21 40 47.5 76t57.5 64t66.5 44.5t73.5 16.5q33 0 61 -14t52 -30.5t45.5 -30.5t42.5 -14q35 0 72.5 21.5t75.5 77.5zM747 1283q11 46 33.5 75t56.5 49q13 -1 37 -10.5 t49 -22.5t44.5 -27t23.5 -24l-19 -38q-23 0 -44 -6t-38.5 -17.5t-29 -27t-15.5 -33.5q-7 -31 3 -68t32 -68l-42 -25q-29 19 -49 47.5t-31.5 62t-14.5 68t4 65.5zM718 -407q-20 -29 -42.5 -47t-43.5 -28.5t-39.5 -14t-30.5 -3.5q-15 0 -28.5 8t-21.5 26.5t-9 48t7 71.5 q15 76 18.5 124.5t0.5 67.5q12 3 28 6.5t33 8t33.5 9.5t30.5 10h25l-24 -160q-8 -45 -11 -70.5t-2.5 -38.5t5 -16.5t10.5 -3.5q17 0 40 23z" />
<glyph unicode="&#x1fb3;" horiz-adv-x="1022" d="M322 106q22 0 53.5 27t68 73t76.5 106.5t80 127.5q-10 73 -22.5 143.5t-32 125.5t-48 88.5t-69.5 33.5q-29 0 -70 -28.5t-78.5 -85t-63.5 -141t-26 -197.5q0 -130 36 -201.5t96 -71.5zM1030 915q-41 -36 -81 -87.5t-80.5 -111.5t-80.5 -127t-80 -135q9 -51 21 -104 t25.5 -96t27.5 -70.5t25 -27.5q16 0 35.5 9.5t38.5 25.5t35.5 35.5t27.5 39.5q13 -8 19 -15t14 -15q-11 -26 -27.5 -56.5t-36.5 -61t-42.5 -59.5t-45 -51t-45 -35.5t-41.5 -13.5q-25 0 -43 21.5t-31.5 65t-24.5 108.5t-23 151q-44 -71 -88 -134t-88 -110t-87.5 -74.5 t-87.5 -27.5q-33 0 -70.5 19t-69 60.5t-52.5 107t-21 159.5q0 72 16 146.5t46 144.5t71.5 132t92.5 108t110 73t123 27q49 0 80 -25t50 -69.5t29.5 -107t18.5 -137.5q26 47 49 91.5t42.5 83.5t34.5 71t24 54q43 9 86 21t90 26q6 -11 8.5 -16.5t5.5 -12.5zM488 -407 q-20 -29 -42.5 -47t-43.5 -28.5t-39.5 -14t-30.5 -3.5q-15 0 -28.5 8t-21.5 26.5t-9 48t7 71.5q15 76 18.5 124.5t0.5 67.5q12 3 28 6.5t33 8t33.5 9.5t30.5 10h25l-24 -160q-8 -45 -11 -70.5t-2.5 -38.5t5 -16.5t10.5 -3.5q17 0 40 23z" />
<glyph unicode="&#x1fb4;" horiz-adv-x="1022" d="M322 106q22 0 53.5 27t68 73t76.5 106.5t80 127.5q-10 73 -22.5 143.5t-32 125.5t-48 88.5t-69.5 33.5q-29 0 -70 -28.5t-78.5 -85t-63.5 -141t-26 -197.5q0 -130 36 -201.5t96 -71.5zM1030 915q-41 -36 -81 -87.5t-80.5 -111.5t-80.5 -127t-80 -135q9 -51 21 -104 t25.5 -96t27.5 -70.5t25 -27.5q16 0 35.5 9.5t38.5 25.5t35.5 35.5t27.5 39.5q13 -8 19 -15t14 -15q-11 -26 -27.5 -56.5t-36.5 -61t-42.5 -59.5t-45 -51t-45 -35.5t-41.5 -13.5q-25 0 -43 21.5t-31.5 65t-24.5 108.5t-23 151q-44 -71 -88 -134t-88 -110t-87.5 -74.5 t-87.5 -27.5q-33 0 -70.5 19t-69 60.5t-52.5 107t-21 159.5q0 72 16 146.5t46 144.5t71.5 132t92.5 108t110 73t123 27q49 0 80 -25t50 -69.5t29.5 -107t18.5 -137.5q26 47 49 91.5t42.5 83.5t34.5 71t24 54q43 9 86 21t90 26q6 -11 8.5 -16.5t5.5 -12.5zM563 1061 q-15 5 -23.5 11t-23.5 22l217 368q16 6 38 13t45.5 13.5t47 12t41.5 10.5l25 -34zM488 -407q-20 -29 -42.5 -47t-43.5 -28.5t-39.5 -14t-30.5 -3.5q-15 0 -28.5 8t-21.5 26.5t-9 48t7 71.5q15 76 18.5 124.5t0.5 67.5q12 3 28 6.5t33 8t33.5 9.5t30.5 10h25l-24 -160 q-8 -45 -11 -70.5t-2.5 -38.5t5 -16.5t10.5 -3.5q17 0 40 23z" />
<glyph unicode="&#x1fb6;" horiz-adv-x="1022" d="M322 106q22 0 53.5 27t68 73t76.5 106.5t80 127.5q-10 73 -22.5 143.5t-32 125.5t-48 88.5t-69.5 33.5q-29 0 -70 -28.5t-78.5 -85t-63.5 -141t-26 -197.5q0 -130 36 -201.5t96 -71.5zM1030 915q-41 -36 -81 -87.5t-80.5 -111.5t-80.5 -127t-80 -135q9 -51 21 -104 t25.5 -96t27.5 -70.5t25 -27.5q16 0 35.5 9.5t38.5 25.5t35.5 35.5t27.5 39.5q13 -8 19 -15t14 -15q-11 -26 -27.5 -56.5t-36.5 -61t-42.5 -59.5t-45 -51t-45 -35.5t-41.5 -13.5q-25 0 -43 21.5t-31.5 65t-24.5 108.5t-23 151q-44 -71 -88 -134t-88 -110t-87.5 -74.5 t-87.5 -27.5q-33 0 -70.5 19t-69 60.5t-52.5 107t-21 159.5q0 72 16 146.5t46 144.5t71.5 132t92.5 108t110 73t123 27q49 0 80 -25t50 -69.5t29.5 -107t18.5 -137.5q26 47 49 91.5t42.5 83.5t34.5 71t24 54q43 9 86 21t90 26q6 -11 8.5 -16.5t5.5 -12.5zM927 1310 q-21 -40 -47 -76.5t-57 -64.5t-66 -44.5t-74 -16.5q-32 0 -58 14t-50 30.5t-47.5 30.5t-49.5 14q-35 0 -70.5 -22t-76.5 -77l-43 21q21 40 47.5 76t57.5 64t66.5 44.5t73.5 16.5q33 0 61 -14t52 -30.5t45.5 -30.5t42.5 -14q35 0 72.5 21.5t75.5 77.5z" />
</font>
</defs>
</svg>
